<svg xmlns="http://www.w3.org/2000/svg" width="403.156" height="396.222" viewBox="0 0 403.156 396.222"><defs><style>.a{isolation:isolate;}.b{fill:#00d5e5;}.c{fill:#fff;}.d{fill:#4a4a4a;}.e{fill:#00222c;}.aa,.ab,.ac,.ad,.ae,.af,.ag,.ah,.ai,.aj,.ak,.al,.am,.an,.ao,.ap,.aq,.ar,.as,.at,.au,.av,.aw,.ax,.ay,.az,.ba,.bb,.bc,.bd,.be,.bf,.bg,.bh,.bi,.bj,.bk,.e,.f,.g,.h,.i,.j,.k,.l,.m,.n,.o,.p,.q,.r,.s,.t,.u,.v,.w,.x,.y,.z{fill-rule:evenodd;}.f{fill:#00394a;}.g{fill:#f1b287;}.h{fill:#e8a476;}.i{fill:#fbeec1;}.j{fill:#c5161d;}.k{fill:#af1015;}.l{fill:#423100;}.m{fill:#0f2730;}.n{fill:#254753;}.o{fill:#000d13;}.p{fill:#c8dee6;}.q{fill:#eaf7ff;}.r{fill:#d5e9f5;}.s{fill:#db9669;}.t{fill:#8c5b3c;}.u{fill:#4f2b0c;}.v{fill:#361d07;}.w{fill:#4a2b12;}.x{fill:#241304;}.y{fill:#bababa;}.z{fill:#d4d4d4;}.aa{fill:#a8a8a8;}.ab{fill:#e6e6e6;}.ac{fill:#e9f5f5;opacity:0.5;}.ad{fill:#292424;}.ae{fill:#fb0;}.af{fill:#f5a700;}.ag{fill:#e38c00;}.ah{fill:#d8f4ff;}.ai{fill:#0b3c4b;}.aj{fill:#002a38;}.ak{fill:#001219;}.al{fill:#013547;}.am{fill:#d9364c;}.an{fill:#257299;}.ao{fill:#c42d41;}.ap{fill:#3b8bb3;}.aq{fill:#076186;}.ar{fill:#459ac1;}.as{fill:#d9d0d0;}.at{fill:#fcfafa;}.au{fill:#e8dfdf;}.av{fill:#d1c6c6;}.aw{fill:#96ccee;}.ax{fill:#85c3ea;}.ay{fill:#abddfc;}.az{fill:#e5f6ff;}.ba{fill:#afcfe0;}.bb{fill:#1d2645;}.bc{fill:#131a30;}.bd{fill:#be8747;}.be{fill:#ceddf0;}.bf{fill:#e2ecf8;}.bg{fill:#031a3c;}.bh{fill:#232e54;}.bi{fill:#2c3a6b;}.bj{fill:#d89d51;}.bk{fill:#e2b260;}.bl{fill:#206030;}.bm{fill:#79564a;}.bn{fill:#d54627;}.bo{fill:#f48867;}.bp{fill:#f27048;}.bq{fill:#368d43;}</style></defs><g transform="translate(-51.658 -66.511)"><g class="a"><path class="b" d="M211.724,197.259c22.085-12.945,58.285-13.034,80.706-.2l145.389,83.23c22.421,12.835,22.693,33.8.607,46.749L294.838,411.2c-22.086,12.945-58.286,13.034-80.706.2L68.742,328.168c-22.42-12.835-22.692-33.8-.607-46.748ZM430.99,284.293,285.6,201.062c-18.611-10.654-48.674-10.544-66.945.166L75.068,285.388c-18.333,10.746-18.108,28.124.5,38.778L220.96,407.4c18.549,10.618,48.613,10.58,66.946-.166l143.588-84.16c18.271-10.71,18.045-28.16-.5-38.778"/><path class="c" d="M218.656,201.228c18.272-10.71,48.334-10.82,66.945-.166L430.99,284.293c18.549,10.618,18.776,28.068.5,38.778l-143.588,84.16c-18.333,10.746-48.4,10.784-66.946.166L75.571,324.166c-18.61-10.654-18.836-28.032-.5-38.778Z"/><path class="c" d="M454.814,313.96c0,.549-.09,1.1-.139,1.644-.054.609-.1,1.216-.208,1.822-.088.481-.232.957-.357,1.435-.149.577-.292,1.155-.495,1.727-.164.461-.378.917-.576,1.374-.259.6-.522,1.2-.84,1.793-.229.426-.5.845-.759,1.267-.412.67-.852,1.336-1.341,1.991-.288.386-.6.768-.912,1.148a32.659,32.659,0,0,1-2.484,2.671c-.288.278-.544.564-.848.839-.548.5-1.163.973-1.762,1.455-.515.415-1,.837-1.558,1.24-.648.473-1.366.923-2.065,1.38-.679.442-1.317.9-2.044,1.324L294.838,421.231a60.963,60.963,0,0,1-7.933,3.794c-.745.3-1.506.584-2.271.862-1.737.634-3.559,1.144-5.382,1.658-1.871.527-3.762,1.02-5.7,1.421-2.217.458-4.45.879-6.732,1.173-.625.081-1.24.192-1.869.26-3.148.342-6.335.518-9.528.552-.519.005-1.038.01-1.556.007-3.17-.016-6.337-.181-9.47-.5-.474-.049-.946-.1-1.417-.159a90.782,90.782,0,0,1-9.227-1.554c-.523-.117-1.034-.255-1.552-.381a78.261,78.261,0,0,1-7.806-2.347c-.532-.191-1.092-.345-1.616-.546a62.5,62.5,0,0,1-8.643-4.041L68.742,338.2c-8.509-4.871-13.828-10.914-15.945-17.245a19.88,19.88,0,0,1-1.049-6.394l-.09,31.76c-.025,8.567,5.649,17.144,16.994,23.639l145.39,83.231a62.015,62.015,0,0,0,8.042,3.838c.193.076.4.127.6.2.528.2,1.088.356,1.625.548,1.549.553,3.084,1.126,4.7,1.586,1.012.288,2.065.507,3.1.759.521.127,1.027.264,1.553.381.434.1.851.225,1.289.316q2.793.577,5.66.984c.753.107,1.519.166,2.278.255.474.055.941.11,1.416.158.624.064,1.24.157,1.867.209q2.8.231,5.635.3c.656.016,1.312-.012,1.969-.009.521,0,1.035,0,1.556-.008.78-.008,1.56.016,2.339-.01q3.182-.109,6.334-.422c.288-.029.567-.088.854-.119.632-.068,1.243-.179,1.871-.261,1.535-.2,3.081-.367,4.589-.639.737-.133,1.411-.383,2.14-.533,1.95-.4,3.829-.892,5.707-1.421.968-.273,2.006-.429,2.952-.735.837-.272,1.611-.625,2.429-.923.768-.28,1.523-.56,2.271-.863a60.771,60.771,0,0,0,7.933-3.794l143.588-84.16c.183-.108.364-.215.544-.323.539-.325,1-.676,1.512-1.01.7-.454,1.407-.9,2.051-1.369.559-.409,1.055-.836,1.576-1.255.591-.478,1.2-.948,1.742-1.439.092-.083.205-.16.3-.244.213-.2.36-.409.566-.607a33.073,33.073,0,0,0,2.473-2.659c.152-.185.358-.358.5-.543s.262-.41.412-.612c.488-.654.924-1.315,1.335-1.982.169-.273.392-.537.548-.812.086-.153.135-.311.217-.464.317-.59.577-1.185.835-1.782.146-.337.344-.667.471-1.006.047-.125.064-.253.109-.378.2-.57.343-1.144.493-1.719.1-.375.246-.745.322-1.122.021-.106.017-.212.036-.318.112-.61.155-1.22.209-1.831.033-.379.119-.756.13-1.134.005-.167.007-.334.008-.5h0Z"/><path class="d" d="M454.814,303.96c0,.549-.09,1.1-.139,1.644-.054.609-.1,1.216-.208,1.822-.088.481-.232.957-.357,1.435-.149.577-.292,1.155-.495,1.727-.164.461-.378.917-.576,1.374-.259.6-.522,1.2-.84,1.793-.229.426-.5.845-.759,1.267-.412.67-.852,1.336-1.341,1.991-.288.386-.6.768-.912,1.148a32.659,32.659,0,0,1-2.484,2.671c-.288.278-.544.564-.848.839-.548.5-1.163.973-1.762,1.455-.515.415-1,.837-1.558,1.24-.648.473-1.366.923-2.065,1.38-.679.442-1.317.9-2.044,1.324L294.838,411.231a60.963,60.963,0,0,1-7.933,3.794c-.745.3-1.506.584-2.271.862-1.737.634-3.559,1.144-5.382,1.658-1.871.527-3.762,1.02-5.7,1.421-2.217.458-4.45.879-6.732,1.173-.625.081-1.24.192-1.869.26-3.148.342-6.335.518-9.528.552-.519.005-1.038.01-1.556.007-3.17-.016-6.337-.181-9.47-.5-.474-.049-.946-.1-1.417-.159a90.782,90.782,0,0,1-9.227-1.554c-.523-.117-1.034-.255-1.552-.381a78.261,78.261,0,0,1-7.806-2.347c-.532-.191-1.092-.345-1.616-.546a62.5,62.5,0,0,1-8.643-4.041L68.742,328.2c-8.509-4.871-13.828-10.914-15.945-17.245a19.88,19.88,0,0,1-1.049-6.394l-.09,31.76c-.025,8.567,5.649,17.144,16.994,23.639l145.39,83.231a62.015,62.015,0,0,0,8.042,3.838c.193.076.4.127.6.2.528.2,1.088.356,1.625.548,1.549.553,3.084,1.126,4.7,1.586,1.012.288,2.065.507,3.1.759.521.127,1.027.264,1.553.381.434.1.851.225,1.289.316q2.793.577,5.66.984c.753.107,1.519.166,2.278.255.474.055.941.11,1.416.158.624.064,1.24.157,1.867.209q2.8.231,5.635.3c.656.016,1.312-.012,1.969-.009.521,0,1.035,0,1.556-.008.78-.008,1.56.016,2.339-.01q3.182-.109,6.334-.422c.288-.029.567-.088.854-.119.632-.068,1.243-.179,1.871-.261,1.535-.2,3.081-.367,4.589-.639.737-.133,1.411-.383,2.14-.533,1.95-.4,3.829-.892,5.707-1.421.968-.273,2.006-.429,2.952-.735.837-.272,1.611-.625,2.429-.923.768-.28,1.523-.56,2.271-.863a60.771,60.771,0,0,0,7.933-3.794l143.588-84.16c.183-.108.364-.215.544-.323.539-.325,1-.676,1.512-1.01.7-.454,1.407-.9,2.051-1.369.559-.409,1.055-.836,1.576-1.255.591-.478,1.2-.948,1.742-1.439.092-.083.205-.16.3-.244.213-.2.36-.409.566-.607a33.073,33.073,0,0,0,2.473-2.659c.152-.185.358-.358.5-.543s.262-.41.412-.612c.488-.654.924-1.315,1.335-1.982.169-.273.392-.537.548-.812.086-.153.135-.311.217-.464.317-.59.577-1.185.835-1.782.146-.337.344-.667.471-1.006.047-.125.064-.253.109-.378.2-.57.343-1.144.493-1.719.1-.375.246-.745.322-1.122.021-.106.017-.212.036-.318.112-.61.155-1.22.209-1.831.033-.379.119-.756.13-1.134.005-.167.007-.334.008-.5h0Z"/></g><path class="e" d="M256.278,161.526c2.881,10.129,5.744,38.407,6.567,51.176.468,10.645-12.131,9.537-15.293,5.712-3.571-10.182-9.228-28.868-11.042-40.649l4.13-12.642L253,162.933Z"/><path class="e" d="M261.13,218.967c-11.6,11.043-20.463,18.05-31.2,29.249-3.543,1.119-10.7-4.87-10.168-10.328,7.746-9.6,11.332-13.975,16.03-18.826a51.048,51.048,0,0,1,12.922-9.665c4.833-5.819,13.57-5.8,13.812-.741C262.672,211.709,263.579,216.241,261.13,218.967Z"/><path class="f" d="M256.495,167.085c-1.445.9-5.228,4.156-8.062,5.372.775,6.271,1.386,9.9-.043,11.461.889,5.733,5.67,23.328,6.209,26.46a8.191,8.191,0,0,1-.649,5.548c-.583,1.06-10.555,7.474-15.47,14.089l-.567,7.492c6.851-6.368,15.183-12.851,21.51-19.127,1.893-1.877,2.233-4.136,2.033-6.984C260.981,204.591,257.456,175.759,256.495,167.085Z"/><path class="g" d="M222.5,233.821a10.28,10.28,0,0,1-2.888,4.6c-.779.593-2.708,1.021-4.366,1.871-3.317,1.7-4.743,3.125-5.024,4.937-.2,1.305.826,4.376,1.625,7.033a10.535,10.535,0,0,1,.628,3.7c-.131,2.3-.4,3.692.365,5.957a23.049,23.049,0,0,0,2.785,5.315c1.231,1.8,4.767,4.891,6.384,5.377.963.288,1.818.324,2.236-.221,1.633-2.129.9-8.422.709-12.949-.194-4.488.063-8.745,1.558-12.207.391-.9,5.805-9.065,6.38-9.852C228.769,235.825,224.767,234.242,222.5,233.821Z"/><path class="h" d="M221.76,236.2a16.384,16.384,0,0,1-2.15,2.222c-.779.593-2.708,1.021-4.366,1.871-3.317,1.7-4.743,3.125-5.024,4.937-.2,1.305.825,4.376,1.625,7.033a10.535,10.535,0,0,1,.628,3.7c-.131,2.3-.4,3.692.365,5.957a26.2,26.2,0,0,0,5.1,8.267c.683.761,4.839,3.7,6.53,2.014-3.146-.592-5.286-3.065-6.652-6.465-1.378-3.43-.351-6.884-1.281-10.988s-2.229-6.61-1.4-9.082,3.143-3.774,6.415-6.879A8.57,8.57,0,0,1,221.76,236.2Z"/><path class="i" d="M208.835,244.677a3.967,3.967,0,0,0-.568,2.312c.373,5.933,2.368,3.313,2.829,7.994.326,3.308-.542,4.014-.2,6.3a15.919,15.919,0,0,0,3.266,7.074c.871,1.155,4.117,4.182,6.672,4.96,1.6.487,3.311.017,3.649-1.555.681-3.167-2.685-8.958-2.954-9.939-.5-1.76-1.481-8.921-3.17-14.3-.143.034-.279.072-.406.112a6.95,6.95,0,0,1-2.059-5.357,2.134,2.134,0,0,0-2.582-.86A22.267,22.267,0,0,0,208.835,244.677Z"/><path class="j" d="M215.576,240.132c-.112.053-.222.107-.332.163-3.317,1.7-4.743,3.125-5.024,4.937-.2,1.305.825,4.376,1.625,7.033a10.535,10.535,0,0,1,.628,3.7c-.131,2.3-.4,3.692.365,5.957a23.049,23.049,0,0,0,2.785,5.315c1.231,1.8,4.767,4.891,6.384,5.377.963.288,1.818.324,2.236-.221,1.633-2.129.9-8.422.709-12.949a31.3,31.3,0,0,1,1.041-10.832c-1.116-1.628-5.84-1.664-8.036-.973C214.868,244.152,216.455,242.308,215.576,240.132Z"/><path class="k" d="M215.576,240.132c-.112.053-.222.107-.332.163-3.317,1.7-4.743,3.125-5.024,4.937-.2,1.305.825,4.376,1.625,7.033a10.535,10.535,0,0,1,.628,3.7c-.131,2.3-.4,3.692.365,5.957a26.2,26.2,0,0,0,5.1,8.267c.683.761,4.839,3.7,6.53,2.014-3.146-.592-5.286-3.065-6.652-6.465-1.378-3.43-.351-6.884-1.281-10.989s-2.229-6.609-1.4-9.081a5.983,5.983,0,0,1,.881-1.669C215.762,242.559,216.089,241.4,215.576,240.132Z"/><path class="l" d="M224.926,253.745a4.267,4.267,0,0,0-2.134-1.207,6.77,6.77,0,0,0-2.9-.091l-.12-.694a7.467,7.467,0,0,1,3.2.1,5.388,5.388,0,0,1,2.13,1.071q-.039.361-.071.728Z"/><path class="l" d="M224.912,255.777A4.452,4.452,0,0,0,222.9,254.7a6.78,6.78,0,0,0-2.9-.091l-.12-.694a7.468,7.468,0,0,1,3.2.1,5.606,5.606,0,0,1,1.868.864Q224.924,255.329,224.912,255.777Z"/><path class="l" d="M224.9,257.932a4.572,4.572,0,0,0-1.924-.987,6.762,6.762,0,0,0-2.9-.092l-.12-.693a7.474,7.474,0,0,1,3.2.1,5.713,5.713,0,0,1,1.735.77C224.9,257.332,224.9,257.632,224.9,257.932Z"/><path class="l" d="M225,260.425a4.512,4.512,0,0,0-1.977-1.039,6.765,6.765,0,0,0-2.9-.091L220,258.6a7.458,7.458,0,0,1,3.2.1,5.7,5.7,0,0,1,1.751.781Q224.974,259.946,225,260.425Z"/><path class="l" d="M225.134,262.748a4.56,4.56,0,0,0-1.931-1,6.771,6.771,0,0,0-2.9-.09l-.12-.694a7.456,7.456,0,0,1,3.2.1,5.711,5.711,0,0,1,1.7.745Q225.107,262.279,225.134,262.748Z"/><path class="l" d="M225.247,265.054A4.489,4.489,0,0,0,223.254,264a6.781,6.781,0,0,0-2.9-.091l-.121-.694a7.487,7.487,0,0,1,3.2.105,5.667,5.667,0,0,1,1.774.8Q225.229,264.587,225.247,265.054Z"/><path class="m" d="M223.6,232.364c-2.4,5.234,5.047,13.716,9.036,12.786C235.056,242.6,226.659,230.159,223.6,232.364Z"/><path class="n" d="M223.6,232.364c-1.531,3.771,5.12,11.726,9.036,12.786l-7.006,4.031c-2.43-.359-9.448-9.374-7.033-12.891Z"/><path class="g" d="M224.756,263.542a10.286,10.286,0,0,1,.339,5.424c-.287.935-1.606,2.408-2.456,4.066-1.7,3.317-2.032,5.3-1.2,6.94.6,1.178,3.222,3.073,5.42,4.766a10.529,10.529,0,0,1,2.665,2.636c1.233,1.943,1.825,3.234,3.77,4.626a23,23,0,0,0,5.362,2.694c2.047.743,6.725,1.194,8.321.646.95-.327,1.666-.8,1.688-1.483.085-2.682-4.177-7.369-6.975-10.932-2.773-3.534-5.048-7.143-5.851-10.826-.211-.964-.569-10.75-.561-11.724C231.02,261.515,226.846,262.562,224.756,263.542Z"/><path class="h" d="M225.546,265.907a16.481,16.481,0,0,1-.451,3.059c-.287.935-1.606,2.408-2.456,4.066-1.7,3.317-2.032,5.3-1.2,6.94.6,1.178,3.222,3.073,5.42,4.766a10.529,10.529,0,0,1,2.665,2.636c1.233,1.943,1.825,3.234,3.77,4.626a26.22,26.22,0,0,0,8.961,3.744c1,.22,6.091.187,6.48-2.171-2.9,1.353-6.081.592-9.174-1.374-3.119-1.982-4.3-5.388-7.448-8.18s-5.664-4.07-6.431-6.562.352-4.9,1.2-9.329A8.541,8.541,0,0,1,225.546,265.907Z"/><path class="i" d="M219.986,280.329a3.969,3.969,0,0,0,.887,2.208c3.763,4.6,3.855,1.312,6.96,4.846,2.193,2.5,1.9,3.577,3.516,5.234a15.933,15.933,0,0,0,6.778,3.844c1.381.43,5.783,1,8.312.139,1.583-.537,2.7-1.917,2.057-3.392-1.292-2.969-7.4-5.711-8.194-6.351-1.433-1.138-6.4-6.385-10.916-9.773-.1.112-.184.221-.264.328a6.952,6.952,0,0,1-4.8-3.152,2.136,2.136,0,0,0-2.6.807A22.254,22.254,0,0,0,219.986,280.329Z"/><path class="j" d="M222.813,272.706c-.06.108-.118.216-.174.326-1.7,3.317-2.032,5.3-1.2,6.94.6,1.178,3.221,3.073,5.42,4.766a10.529,10.529,0,0,1,2.665,2.636c1.233,1.943,1.826,3.234,3.77,4.626a23,23,0,0,0,5.362,2.694c2.047.743,6.725,1.194,8.321.646.95-.327,1.666-.8,1.688-1.483.085-2.682-4.177-7.369-6.975-10.932a31.351,31.351,0,0,1-5.47-9.408c-1.855-.672-5.714,2.052-7.1,3.895C224.582,276.385,224.795,273.961,222.813,272.706Z"/><path class="k" d="M222.813,272.706c-.06.108-.118.216-.174.326-1.7,3.317-2.032,5.3-1.2,6.94.6,1.178,3.221,3.073,5.42,4.766a10.529,10.529,0,0,1,2.665,2.636c1.233,1.943,1.826,3.234,3.77,4.626a26.22,26.22,0,0,0,8.961,3.744c1,.22,6.091.187,6.48-2.171-2.9,1.353-6.081.592-9.174-1.374-3.119-1.982-4.3-5.388-7.448-8.18s-5.664-4.07-6.431-6.562a5.984,5.984,0,0,1-.257-1.87C224.38,274.568,223.97,273.438,222.813,272.706Z"/><path class="l" d="M238.347,278.313a4.273,4.273,0,0,0-2.439.264A6.79,6.79,0,0,0,233.5,280.2l-.5-.493a7.472,7.472,0,0,1,2.662-1.782,5.4,5.4,0,0,1,2.356-.372c.118.212.241.423.366.634Z"/><path class="l" d="M239.519,279.972a4.459,4.459,0,0,0-2.262.3,6.771,6.771,0,0,0-2.411,1.619l-.5-.494a7.48,7.48,0,0,1,2.663-1.782,5.618,5.618,0,0,1,2.021-.387Q239.267,279.6,239.519,279.972Z"/><path class="l" d="M240.771,281.728a4.573,4.573,0,0,0-2.138.318,6.78,6.78,0,0,0-2.412,1.618l-.5-.493a7.485,7.485,0,0,1,2.662-1.782A5.718,5.718,0,0,1,240.24,281Q240.5,281.366,240.771,281.728Z"/><path class="l" d="M242.3,283.7a4.516,4.516,0,0,0-2.212.308,6.772,6.772,0,0,0-2.411,1.619l-.5-.494a7.464,7.464,0,0,1,2.662-1.781,5.683,5.683,0,0,1,1.878-.387C241.906,283.2,242.1,283.448,242.3,283.7Z"/><path class="l" d="M243.765,285.506a4.557,4.557,0,0,0-2.15.316,6.78,6.78,0,0,0-2.411,1.619l-.5-.494a7.464,7.464,0,0,1,2.662-1.781,5.724,5.724,0,0,1,1.814-.385Z"/><path class="l" d="M245.2,287.313a4.5,4.5,0,0,0-2.234.305,6.772,6.772,0,0,0-2.411,1.619l-.5-.493a7.475,7.475,0,0,1,2.662-1.783,5.649,5.649,0,0,1,1.906-.386C244.817,286.821,245.011,287.067,245.2,287.313Z"/><path class="m" d="M222.715,263.56c2.454,5.208,13.738,4.986,15.6,1.338C237.92,261.4,223,259.8,222.715,263.56Z"/><path class="e" d="M246.573,166.149c.267,2.269,1.485,8.9.725,15.045-.375,3.039-3.718,5.82-3.918,7.709-1.226,11.591-3.813,25.847-4.635,34.423-.3,9.834-14.723,9.337-15.343,3.139-.642-6.93-4.638-27.55-4.47-41.452.07-5.693,1.473-15.526,3.454-17.566l9.508-2.146Z"/><path class="e" d="M238.688,223.5c-.087,3.646-.958,4.061-1.087,6.153-.843,13.569-.5,23.39-.627,36.762-4.415,2.455-10.571,2.311-12.694-.806-.879-12.3-2.854-18.281-2.726-25.033.106-5.619.2-9.062,1.848-14.108C225.3,217.781,239,216.264,238.688,223.5Z"/><path class="o" d="M223.713,265.765c-1.424-12.214-2.922-19.53-2.795-26.281.106-5.62.832-7.973,2.484-13.019-.73-7.829-5.789-33.258-4.149-46.619.394-3.212,1.9-11.085,3.224-12.49l9.421-2.167,11.4,2.22,2.264,3.358c-1.774,1.8-9.9,4.236-14.727,6.579-.679,1.417-1.669,23.373-1.7,27.825-.033,5.651.1,11.233.539,17.143a47.486,47.486,0,0,1-.419,11.916c-1.967,13.989-.549,19.337.777,33.8C229.072,268,224.546,267.546,223.713,265.765Z"/><path class="f" d="M245.713,172.856c-3.335,2.465-9.271,3.927-13.536,5.63-.618,14.569.372,40.227-.182,50.3-.242,4.416-1.566,8.746-1.475,13.167l.522,25.353c1.9-.013,4.286-.03,5.5-2,.324-11.812-1.214-23.87.141-34.648.234-1.864.742-3.3.957-4.96.2-1.546.131-2.31.329-4.01.68-5.858,2.21-22.093,4.714-34.328.743-3.628,2.758-3.749,3.267-6.632A22.256,22.256,0,0,0,245.713,172.856Z"/><path class="p" d="M283.743,154.748c-.711,2.746-5.72,5.231-7.187,4.093a1.232,1.232,0,0,1-.464-.755c-.414-2.568,4.326-6.861,7.244-5.17C283.855,153.216,283.879,154.223,283.743,154.748Z"/><path class="g" d="M281.637,151.036c2.562,3.039,4.506,5.882,6.739,9.1l.231,6.426-1.15,5.7c-.156.78-1.665,2.742-2.622,2.692-2.155-.111-3.555-.489-3.738-.858-.9-1.826-.208-5.7-.442-8.9-1.608-1.727-3.049-2.56-3.511-4.78-.765-3.678-.393-4.921-2.2-6.832Z"/><path class="h" d="M282.835,159.008c1.57,2.755,2.052,3.061,3.228,6.341.041,1.749-.956,3.858-.742,5.252-.349,2.109-1.627,2.489-1.2,4.274-1.389-.169-2.882-.494-3.024-.779-.9-1.826-.208-5.7-.442-8.9-1.608-1.727-3.049-2.56-3.511-4.78-.765-3.678-.393-4.921-2.2-6.832l4.232-1.615Z"/><path class="g" d="M278.293,155.856c-.843,2.711,1.147,2.687,3.126,4.871a9.9,9.9,0,0,0,.878,2.592c-.547,3.056.646,3.9,2.159,4.026.333-.977,1.019-2.9,1.219-3.756-.295-5.107,1.463-6.481-3.341-10.925C280.41,153.7,278.869,154,278.293,155.856Z"/><path class="q" d="M271.713,132.72c4.139,7.449,8.23,12.483,11.76,20.295-3.16-.662-6.436,1.879-7.219,5.472-8.043-7.987-14.89-14.85-16.686-19.411-3.782-9.455-7.717-19.775-9.247-26.405-1.8-7.816-1.047-13.553,1.151-13.962,3.814-.712,5.86.207,7.912,3.371C263.877,109.012,268.569,124.479,271.713,132.72Z"/><path class="r" d="M278.991,154.083a7.5,7.5,0,0,0-2.737,4.4c-8.043-7.987-14.89-14.85-16.686-19.411-3.782-9.455-7.717-19.775-9.247-26.405-1.8-7.816-1.047-13.553,1.151-13.962a11.16,11.16,0,0,1,2.564-.219,11.793,11.793,0,0,1,5.648,4.578c5.528,8.418,4.08,20.961,5.939,33.045a7.74,7.74,0,0,1,5.59-1.5,9.618,9.618,0,0,0-4.625,3.6C269.878,143.264,274.853,149.063,278.991,154.083Z"/><path class="q" d="M221.886,105.9c1.755-.919,5.053-2.853,8.817-4.879a57.06,57.06,0,0,1,11-3.947c2.182-.587,8.793-2.371,11.038-2.076,2.054.269,3.318,1.424,4.724,3.632,3.42,5.373,4.039,16.881,3.545,27.021-.28,5.745-1.664,11.223-1.906,18.363-.105,3.091.861,15.022-1.719,17.559a14.518,14.518,0,0,0-.391,2.779c-8.923,7.743-31.51,12.324-35.871,5.266a22.174,22.174,0,0,0,.632-2.5c-1.778-2.79.922-12.708-.517-18.367-2.606-10.251-7.9-24.551-7.619-32.849C213.788,110.885,218.143,107.863,221.886,105.9Z"/><path class="r" d="M221.886,105.9c1.755-.919,5.053-2.853,8.817-4.879.344-.185.715-.37,1.11-.554l.216.092c-1.559,2.373-5.627,4.86-10.034,8.4a19.732,19.732,0,0,1,5.343,9.987c2.058,9.043,5.249,20.956,5.648,29.191.52,10.718-1.573,16.56-3.9,21.49-.082.171,13.841-.978,23.467-5.788-8.526,6.018-24.059,7.083-24.157,7.284-.385.787-.62,1.178-1,1.95-2.9-.552-5.165-1.671-6.27-3.458a22.174,22.174,0,0,0,.632-2.5c-1.778-2.79.922-12.708-.517-18.367-2.606-10.251-7.9-24.551-7.619-32.849C213.788,110.885,218.143,107.863,221.886,105.9Z"/><path class="h" d="M248.407,99.617a18.716,18.716,0,0,1,.885-4.095l.008-.026-12.381-5.755-2.645-1.485c1.047,5.8-.139,8.686-2.254,13.17,1.515,4.624,7.591,8.175,11.188,8.255,3.972.09,6.742-1.819,6.576-4.833C249.465,103.891,247.9,102.036,248.407,99.617Z"/><path class="s" d="M232.557,102.689c5.415-2.659,9.007.094,15.593-1.5A45.827,45.827,0,0,1,249.3,95.5l-12.381-5.755-2.645-1.484c1.047,5.794-.139,8.685-2.254,13.169A8.3,8.3,0,0,0,232.557,102.689Z"/><path class="g" d="M246.629,99.856c-1.588-.683-5.242-1.438-6.681-2.142-3.149-1.543-3.311-4.807-4.849-8.744-2.937-1.393-4.076-2.711-4.607-4.338-1.263-3.861.227-8.533,2.832-11.407a10.678,10.678,0,0,1,8.769-3.494c6.9.262,10.54,4.8,11.922,10.478a3.922,3.922,0,0,1,.07,1.46c-.152,1.221-.557,1.822-.674,2.654-.209,1.486.236,1.65.526,2.49.367,1.061.2,3.616-.043,5.511-.166,1.292-.616,6.249-1.679,6.907a13.965,13.965,0,0,1-2.117.844C249.378,100.358,248.66,100.459,246.629,99.856Z"/><path class="h" d="M246.629,99.856c-1.588-.683-5.242-1.438-6.681-2.142-3.149-1.543-3.311-4.807-4.849-8.744-2.937-1.393-4.076-2.711-4.607-4.338-1.263-3.861.227-8.533,2.832-11.408a10.68,10.68,0,0,1,8.769-3.493c6,.228,9.529,3.68,11.259,8.307-.261.629-5.939,3.436-11.024,3.347-.436,2.287.643,4.2.74,5.355.024.279-.726,1.613.084,2.673.221.289.826.608.734,1.131-.624,3.518,3.183,8.242,4.99,9.754A8.867,8.867,0,0,1,246.629,99.856Z"/><path class="t" d="M230.108,73.491c-3.455,9.325-.243,13.754,5.664,19.1,1.058-1.584.68-2.94,1.03-5.343.352.761.755,1.545,1.169,2.359l.886-.485c-.52-4.289,1.9-4.29,1.144-6.805a10.207,10.207,0,0,1-1.034-2.723c0-.509.867-.345,1.621-.722C240.6,78.871,231.518,76.081,230.108,73.491Z"/><path class="h" d="M235.338,85.374c-2.709-.686-2.482,2.36-1.925,4.174.383,1.247,1.423,1.068,1.883,2.039A2.4,2.4,0,0,0,237.6,93.14c1.6-.173.417-2.477.15-3.409C237.817,88.165,237.057,85.81,235.338,85.374Z"/><path class="u" d="M230.25,73.449c-.746.546-1.394,3.509-1.453,5.347a3.976,3.976,0,0,1,1.485-2.44,5.971,5.971,0,0,0-.223,4.627c-.028-1.492.269-2.966,1.464-3.72a8.712,8.712,0,0,0-.118,6.484c-.291-2.24.316-4.661,1.79-5.761-.8,1.65-.238,3.57.077,5.206a10.16,10.16,0,0,1,1.114-4.547,7.533,7.533,0,0,0,.915,5.14,14.431,14.431,0,0,1,.739-4.919,7.306,7.306,0,0,0,.6,3.252,8.294,8.294,0,0,1,.706-2.85,3.5,3.5,0,0,0,1.744,3.253,6.622,6.622,0,0,1-.48-3.139c.182-.566.831-.223,2.01-.736C236.839,77.451,231.2,72.892,230.25,73.449Z"/><path class="v" d="M230.112,73.78c-.005-2.506,1.864-5.788,4.865-6.1a2.135,2.135,0,0,0-.97.621,16.694,16.694,0,0,1,15.23.739c2.741,1.671,4.354,4.09,3.734,6.591-.523,2.111-3.96,3.281-7.371,3.577C241.07,79.605,231.971,77.916,230.112,73.78Z"/><path class="w" d="M232.9,69.163a13.6,13.6,0,0,1,8.093-2.651,37.127,37.127,0,0,1,6.382.972,7.037,7.037,0,0,1-1.281.146,11.363,11.363,0,0,1,3.2,1.267,26.933,26.933,0,0,0-7.776-.711c.222.149.525.3,1.008.585C238.471,68.069,235.8,68.009,232.9,69.163Z"/><path class="w" d="M230.112,73.78a6.049,6.049,0,0,1,.236-1.638c.983,1.306,2.254.548,3.76.663a2.765,2.765,0,0,1-1.411.253,8.467,8.467,0,0,0,6.395,1.155c-.216.441-.434.526-1.169.755a11.72,11.72,0,0,0,6.687-1.451,9.793,9.793,0,0,1-.878,1.084c1.978-.93,2.807-1.881,4.848-2.508a8.228,8.228,0,0,0-.85.9,4.619,4.619,0,0,0,2.909-3.32c2.444.617,3.256,4.336,2.885,5.927-.586,2.516-5.811,3.426-7.924,3.61C241.07,79.605,231.971,77.916,230.112,73.78Z"/><path class="v" d="M230.112,73.78c0-.124,0-.25.013-.378a4.313,4.313,0,0,0,3.373,1.781,1.622,1.622,0,0,1-1.153.1,10.511,10.511,0,0,0,7.149,1.357c-.216.441-.434.526-1.17.755a13.609,13.609,0,0,0,7.219-1.53,9.365,9.365,0,0,1-.878,1.084c1.978-.93,2.818-1.869,4.86-2.495a8.14,8.14,0,0,0-.851.9c1.189-.38,3.505-1.972,3.38-4.217a6.593,6.593,0,0,1,1.544,3.9,3.063,3.063,0,0,1-.074.569c-.586,2.516-5.811,3.426-7.924,3.61C241.07,79.605,231.971,77.916,230.112,73.78Z"/><path class="x" d="M230.112,73.78a2.4,2.4,0,0,1,.01-.252,3.109,3.109,0,0,0,2.508,1.612,2.7,2.7,0,0,1-1.166-.075c1.374,1.078,4.327,2.51,6.637,2.071a6.976,6.976,0,0,1-1.486.528c1.947.4,4.981.958,7.255-.182a9.819,9.819,0,0,1-.878,1.083c2.316-.623,2.65-1.574,4.7-2.384a6.143,6.143,0,0,0-1.422,1.669c1.189-.379,6.065-1.22,6.678-4.483a2.577,2.577,0,0,1,.58,2.234c-.527,2.529-5.811,3.426-7.924,3.61C241.07,79.605,231.971,77.916,230.112,73.78Z"/><path class="q" d="M216.1,110.285c-5.22,5.344-10.987,18.247-14.3,27-1.686,4.451-2.686,8.044.327,10.592,2.857,2.415,7.222.353,9.428-2.777,2.614-3.709,5.376-8.479,10.367-16.521,3.975-6.406,3.4-13.984.659-17.538C220.987,108.98,218.656,107.665,216.1,110.285Z"/><path class="r" d="M216.1,110.285c-5.22,5.344-10.987,18.247-14.3,27-1.686,4.451-2.686,8.044.328,10.592,2,1.7,4.752,1.185,6.975-.353a41.185,41.185,0,0,1-3.58-2.472c-1.008-.782-1.709-1-.491-3.542,5.42-11.29,10.15-20.937,16.918-31.2C220.4,108.712,218.336,107.993,216.1,110.285Z"/><path class="y" d="M220.741,120.328l22.374,20.437,2.235-.631-22.368-20.377Z"/><path class="z" d="M220.741,120.328l22.374,20.437-9.746,40.156-22.373-20.437Z"/><path class="aa" d="M245.349,140.136l-2.235.629-9.746,40.156,2.145-.55Z"/><path class="ab" d="M227.665,143.939c2.237.682,3.344,3.549,2.474,6.4s-3.39,4.614-5.627,3.932-3.345-3.549-2.474-6.4S225.427,143.257,227.665,143.939Z"/><path class="p" d="M226.937,160.167l-.5-2.551,1.6-3.974c2.293-.719,3.9-.756,4.664-.205a2.143,2.143,0,0,1,.2.126C235.246,155.726,230.3,162.683,226.937,160.167Z"/><path class="h" d="M234.06,166.159a19.7,19.7,0,0,0,5.885-.279c1.174-.239,3.31-7.606,3.189-7.657-1.382-.091-4.478-.072-5.939-.238-1.589-.96-6.569-4.168-8.159-5.129l-2.459,3.026-.936,3.539c.542.008,1.695.985,1.82,1.08C229.672,162.172,231.312,164.6,234.06,166.159Z"/><path class="g" d="M236.922,158.737a21.371,21.371,0,0,0,5.884-.279c1.19-.212-.978-2.391-1.313-2.6l-.442,1.468c-1.382-.091-2.544-.06-4-.226-1.589-.961-4.3-3.5-5.818-4.576L229,152.71A91.863,91.863,0,0,0,236.922,158.737Z"/><path class="g" d="M239.221,156.829c-.208,2.116-3.1.384-3.787-.165-.667-.22-5.172-2.758-4.154-2.824a5.77,5.77,0,0,1,3.909.368c.965.527.906.923,1.941,1.559A11.915,11.915,0,0,0,239.221,156.829Z"/><path class="q" d="M200.361,144.368a5.279,5.279,0,0,0,1.283,3,24,24,0,0,0,3.414,2.648c4.993,3.964,13.7,7.041,22.157,10.37.772-4.784,2.958-7.107,5.682-6.819-6.545-4.71-15-8.3-21.747-12.205a15.069,15.069,0,0,0-2.614-1.2C205.316,140.512,199.934,139.9,200.361,144.368Z"/><path class="r" d="M200.361,144.368a5.279,5.279,0,0,0,1.283,3,24,24,0,0,0,3.414,2.648c4.993,3.964,13.7,7.041,22.157,10.37a15.237,15.237,0,0,1,.7-2.79c-6.975-4.516-15.682-7.324-22.4-12.542-1.008-.782-1.709-1-.491-3.542l.553-1.152C202.812,140.558,200.051,141.122,200.361,144.368Z"/><path class="n" d="M222.715,263.56c1.894,3.6,12.263,3.648,15.6,1.338l-1.437,7.955c-1.841,1.625-13.257,1.176-14.388-2.938Z"/><path class="ac" d="M248.847,85.787a24.644,24.644,0,0,1-4.4,1.062.746.746,0,0,0-.643.7l.049,3.081c-.038.83.977,1.465,2.259,1.4,1.6-.086,3.546-1.1,3.6-2.329l.143-3.178a.751.751,0,0,0-1.005-.729Zm5.607-3.8c-.194.923-1.67,1.766-2.89,2.533a.742.742,0,0,0-.35.591L251.07,88.2a1.23,1.23,0,0,0,1.8.882,3.042,3.042,0,0,0,1.5-2.836Z"/><path class="ad" d="M248.95,86.247a23.753,23.753,0,0,1-4.355,1.034.566.566,0,0,0-.49.517c-.117,2.625-.764,4.863,3.206,3.819,3.085-.812,2.258-2.34,2.37-4.83a.546.546,0,0,0-.731-.54Zm-.169-.639a.945.945,0,0,1,1.266.917c-.122,2.73.735,4.575-2.635,5.46-4.444,1.169-3.937-1.542-3.807-4.449a.938.938,0,0,1,.808-.876,24.265,24.265,0,0,0,4.368-1.052Zm5.551-2.715A9.021,9.021,0,0,1,251.694,85a.7.7,0,0,0-.3.5l-.131,2.514c-.083,1.831,2.428,1.347,2.924-1.183a22.885,22.885,0,0,0,.142-3.94Zm-.215-1.134c-.239,1.138-1.83,1.994-2.743,2.569a.935.935,0,0,0-.441.743L250.8,88c-.093,2.073,2.981,1.993,3.572-.994a34.133,34.133,0,0,0,.177-5.394l-.4-.011Z"/><path class="ad" d="M249.7,86.392a2.916,2.916,0,0,0,1.419-.956l-.145,1.4c-.72-.61-.592.778-1.18.85Z"/><path class="ad" d="M243.982,88.418l-6.89-1.584-.231-.331,7.2.756Z"/><path class="ae" d="M284.01,235.411c7.419-7.73,18-11.373,35.38-24.177a73.2,73.2,0,0,0,16.4-16.474c10.915-15.285,22.371-20.39,33.507-18.652,10.863,1.7,21.422,9.9,30.878,21.53,35.357,43.468,29.623,94.314-12.044,114.7-26.324,12.879-87.5,5.067-105.357-21.621C275.39,279.679,268.851,251.206,284.01,235.411Z"/><path class="af" d="M374.536,177.428c9.008,3.119,17.712,10.463,25.641,20.21,35.357,43.468,29.623,94.314-12.044,114.7-26.324,12.879-87.5,5.067-105.357-21.621a49.663,49.663,0,0,1-6.286-15.539c29.313,23.866,70.617,11.561,99.08-7.545,10.941-7.344,17.144-20.58,14.679-32.943-1.679-8.422-6.647-15.134-8.543-36.492C381.252,193.085,381.709,184.218,374.536,177.428Z"/><path class="ag" d="M372.2,176.713a92.331,92.331,0,0,1,6.988,6.119c14.576,13.3,23.263,32.461,24.286,53.881,1.025,21.441-5.629,45.147-21.74,67.508A151.943,151.943,0,0,1,371,317.279a10.5,10.5,0,0,0,1.311-.19,142.985,142.985,0,0,0,10.062-12.411c16.221-22.514,22.92-46.394,21.887-68-1.033-21.63-9.812-40.985-24.541-54.423a72.731,72.731,0,0,0-6.446-5.24Z"/><path class="ag" d="M371.036,317.261c-24-1.678-36.922-6.675-49.3-11.456-9.528-3.678-19.138-7.389-34.214-9.779l-.122.773c14.994,2.377,24.564,6.072,34.054,9.736,12.108,4.674,24.038,9.32,46.91,11.117C368.758,317.609,370.557,317.349,371.036,317.261Z"/><path class="ag" d="M412.747,223.834c-16.606-2.186-31.157.75-42.537,15.619C385.226,228.9,392.327,225.31,412.747,223.834Z"/><path class="ag" d="M325.429,244.687c-14.981-1.733-14.619-16.06-26.336-19.856C310.576,224.77,315.08,241.541,325.429,244.687Z"/><path class="ag" d="M307.99,251.04c-4.182-6.513-9.559-10.773-18.2-10.355C297.992,242.838,301.378,244.273,307.99,251.04Z"/><path class="ag" d="M308.679,251.757c-5.455-5.491-11.606-8.528-19.968-6.306C297.183,245.834,300.8,246.528,308.679,251.757Z"/><path class="ag" d="M308.609,251.82a18.5,18.5,0,0,0-18.137-.061A38.684,38.684,0,0,1,308.609,251.82Z"/><path class="ag" d="M405.958,266.312c-3.581-.268-6.014-.27-9.526-1.636l-.282.73c3.605,1.4,6.076,1.412,9.749,1.688Z"/><path class="ag" d="M405.252,268.431c-3.581-.269-6.015-.271-9.526-1.636l-.282.73c3.605,1.4,6.076,1.413,9.749,1.687Z"/><path class="ag" d="M404.545,270.881c-3.58-.268-6.014-.269-9.525-1.635l-.282.729c3.6,1.4,6.076,1.413,9.749,1.688Z"/><path class="af" d="M330.32,272.975c-.435,10.231-3.257,19.925-5.649,29.493l-23.6-5.649,1.828-44.863s20.6-8.474,23.1-8.474,9.138-15.62,9.138-15.62l4.819-38.549c4.225-5.023,7.627-8.011,13.347-6.92,10.035,1.914,22.205,8.182,24.689,18.316,1.192,4.867-3.042,18.663-7.03,27.349-1.768,3.852-2.784,6.287-3.192,9.572-1.255,10.113,2.583,17.417-.346,23.162C362.2,271.041,337.035,272.116,330.32,272.975Z"/><path class="g" d="M319.271,303.458l-9.878-.971a140.005,140.005,0,0,1-1.8,15.644c-.137.682-.238,1.111-.42,1.8l7.737,2.853,3.588-1.545c.87-2.053.649-3.426.489-5.89A102.124,102.124,0,0,1,319.271,303.458Z"/><path class="h" d="M319.271,303.458l-3.545-.348c-.264,4.784-.038,14.541-.818,19.67l3.588-1.545c.87-2.053.649-3.426.489-5.89A102.124,102.124,0,0,1,319.271,303.458Z"/><path class="ah" d="M318.887,316.369c.537,1.8,1.159,3.555,1.019,4.648-.176,1.372-1,2.534-1.119,4.278-.1,1.5-.06,3.107-.017,4.812.075,2.97-2.525,5.11-5.345,6.068-2.26.767-7.115.768-9.167-.524a6.431,6.431,0,0,1-.939-3.5c.3-5.437,4.212-11.072,5.057-15.86a4.46,4.46,0,0,1,.534-.631l6.376.241a3.8,3.8,0,0,1,.542.7c.434.721,1.188,1.417,1.7,1.328C317.989,317.854,318.463,317.394,318.887,316.369Z"/><path class="ai" d="M319.022,316.017a11.422,11.422,0,0,1,.615,4c-.177,1.373-.656,2.684-.773,4.428-.1,1.5-.12,2.772-.078,4.477.113,4.524-7.388,6.863-11.009,6.3a13.626,13.626,0,0,1-4.029-1.06c-.365-.17-.638-1.659-.567-2.926.146-2.653.369-2.411,1.789-6.525.485-1.406.893-2.751,1.536-4.386.418-1.061.873-2.05,1.247-3.044l.094-.021a4.084,4.084,0,0,1,3.489-2.686l1.011.038a4.483,4.483,0,0,1,3.481,2c.434.721,1.188,1.417,1.7,1.328S318.565,317.29,319.022,316.017Z"/><path class="aj" d="M319.022,316.017a11.422,11.422,0,0,1,.615,4c-.177,1.373-.656,2.684-.773,4.428-.1,1.5-.12,2.772-.078,4.477.113,4.524-7.388,6.863-11.009,6.3a13.626,13.626,0,0,1-4.029-1.06c-.2-.092-.368-.57-.471-1.19,3.3.638,6.881.708,9.678-1.6,2.094-1.726,2.9-4.6,3.209-8.515.126-1.561.274-3.481.365-5.385a1.342,1.342,0,0,0,1,.465C318.039,317.846,318.565,317.29,319.022,316.017Z"/><path class="ah" d="M315.523,319.637l-.318-.108a14.026,14.026,0,0,0-6.454-1.072l.014.6a13.577,13.577,0,0,1,6.251,1.042l.317.107Z"/><path class="ah" d="M315.1,321.058l-.317-.108a14.015,14.015,0,0,0-6.454-1.071l.014.6a13.583,13.583,0,0,1,6.25,1.042l.318.107Z"/><path class="ah" d="M314.473,322.7l-.317-.107a14,14,0,0,0-6.454-1.072l.013.6a13.575,13.575,0,0,1,6.251,1.041l.317.108Z"/><path class="ah" d="M314.02,324.379l-.317-.107a14,14,0,0,0-6.454-1.072l.013.6a13.575,13.575,0,0,1,6.251,1.041l.317.107Z"/><path class="ah" d="M313.515,325.89l-.317-.107a14,14,0,0,0-6.454-1.072l.013.6a13.589,13.589,0,0,1,6.251,1.042l.317.107Z"/><path class="ah" d="M313.261,327.343l-.317-.107a14.031,14.031,0,0,0-6.454-1.072l.013.6a13.589,13.589,0,0,1,6.251,1.041l.317.108Z"/><path class="g" d="M304.812,294.4a9.793,9.793,0,0,0-1.489,4.954c.064.929.966,2.58,1.4,4.3.859,3.444.734,5.356-.388,6.693-.808.963-3.652,2.151-6.056,3.244a10.038,10.038,0,0,0-3.042,1.866c-1.563,1.534-2.392,2.6-4.5,3.472a21.894,21.894,0,0,1-5.553,1.335c-2.058.245-6.492-.349-7.853-1.2-.81-.508-1.372-1.1-1.244-1.74.5-2.5,5.468-5.926,8.833-8.623,3.336-2.675,6.226-5.527,7.769-8.767.4-.848,2.855-9.841,3.058-10.746A79.753,79.753,0,0,1,304.812,294.4Z"/><path class="h" d="M303.568,296.417a15.626,15.626,0,0,0-.245,2.933c.064.929.966,2.58,1.4,4.3.859,3.444.734,5.356-.388,6.693-.808.963-3.652,2.151-6.056,3.244a10.038,10.038,0,0,0-3.042,1.866c-1.563,1.534-2.392,2.6-4.5,3.472a24.956,24.956,0,0,1-9.117,1.529c-.974-.012-5.686-1.146-5.537-3.416,2.4,1.882,5.51,1.866,8.8.714,3.32-1.162,5.151-4.064,8.675-5.969s6.132-2.547,7.383-4.69.734-4.617.907-8.907A8.162,8.162,0,0,0,303.568,296.417Z"/><path class="ah" d="M305.6,310.989a3.781,3.781,0,0,1-1.3,1.856c-4.485,3.451-3.858.38-7.5,2.983-2.575,1.84-2.537,2.9-4.393,4.091a15.175,15.175,0,0,1-7.116,2.094c-1.373.1-5.576-.329-7.734-1.672-1.351-.841-2.087-2.361-1.173-3.589,1.842-2.472,8.1-3.69,8.971-4.112,1.575-.744,7.32-4.531,12.235-6.7.065.125.123.246.174.362a6.614,6.614,0,0,0,5.129-1.883,2.032,2.032,0,0,1,2.234,1.311A21.176,21.176,0,0,1,305.6,310.989Z"/><path class="ai" d="M304.628,303.311c.032.113.063.226.091.34.859,3.444.734,5.356-.388,6.694-.808.962-3.652,2.15-6.056,3.243a10.038,10.038,0,0,0-3.042,1.866c-1.564,1.534-2.392,2.6-4.5,3.472a21.935,21.935,0,0,1-5.553,1.336c-2.058.244-6.492-.35-7.853-1.2-.81-.508-1.372-1.1-1.244-1.74.5-2.5,5.468-5.926,8.833-8.623a29.816,29.816,0,0,0,7.108-7.535c1.865-.221,4.852,3.14,5.733,5.147C302.192,306.338,302.519,304.045,304.628,303.311Z"/><path class="aj" d="M304.628,303.311c.032.113.063.226.091.34.859,3.444.734,5.356-.388,6.694-.808.962-3.652,2.15-6.056,3.243a10.038,10.038,0,0,0-3.042,1.866c-1.564,1.534-2.392,2.6-4.5,3.472a24.956,24.956,0,0,1-9.117,1.529c-.974-.012-5.686-1.146-5.537-3.416,2.4,1.882,5.509,1.866,8.8.714,3.32-1.162,5.151-4.064,8.675-5.97s6.132-2.546,7.383-4.689a5.708,5.708,0,0,0,.643-1.677C302.772,304.7,303.4,303.739,304.628,303.311Z"/><path class="ah" d="M289.015,305.145a4.042,4.042,0,0,1,2.2.772,6.437,6.437,0,0,1,1.884,2.022l.573-.348a7.11,7.11,0,0,0-2.082-2.228,5.128,5.128,0,0,0-2.1-.855q-.234.255-.477.508Z"/><path class="ah" d="M287.569,306.428a4.244,4.244,0,0,1,2.032.768,6.451,6.451,0,0,1,1.885,2.022l.572-.348a7.1,7.1,0,0,0-2.082-2.228,5.326,5.326,0,0,0-1.79-.8Q287.883,306.138,287.569,306.428Z"/><path class="ah" d="M286.029,307.784a4.35,4.35,0,0,1,1.913.759,6.426,6.426,0,0,1,1.884,2.022l.573-.349a7.1,7.1,0,0,0-2.082-2.228,5.448,5.448,0,0,0-1.639-.76Q286.357,307.507,286.029,307.784Z"/><path class="ah" d="M284.183,309.278a4.285,4.285,0,0,1,1.983.765,6.45,6.45,0,0,1,1.885,2.022l.572-.349a7.107,7.107,0,0,0-2.081-2.228,5.458,5.458,0,0,0-1.658-.765Q284.544,309,284.183,309.278Z"/><path class="ah" d="M282.435,310.637a4.349,4.349,0,0,1,1.924.76,6.451,6.451,0,0,1,1.885,2.022l.572-.349a7.11,7.11,0,0,0-2.082-2.228,5.442,5.442,0,0,0-1.6-.749Z"/><path class="ah" d="M280.712,312a4.262,4.262,0,0,1,2.005.767,6.427,6.427,0,0,1,1.884,2.022l.573-.349a7.122,7.122,0,0,0-2.082-2.228,5.429,5.429,0,0,0-1.682-.772Q281.057,311.721,280.712,312Z"/><path class="aj" d="M306.088,264.348c11.4-7.949,26.712-6.005,34.976-9.666,6.02-2.666,9.013-2.685,6.524-10.374l-17.532-9.489c-.238,1.748-1.638,3.933-2.216,4.069a123.243,123.243,0,0,0-27.811,10.13c-1.478.58-3.884,2.275-4.141,3.986C295.537,255.342,300.622,262.614,306.088,264.348Z"/><path class="ak" d="M306.088,264.348c11.4-7.949,26.712-6.005,34.976-9.666,6.02-2.666,9.013-2.685,6.524-10.374l-6.5-3.517-.01.015c-1.229,1.829-4.219,3.588-5.937,4.7a26.644,26.644,0,0,1-4.689,2.4c-4.042,1.613-14.514,5.251-21.64,7.162-2.872.77-3.582,1.855-3.929,3.2a18.187,18.187,0,0,0-.487,5.374A10.579,10.579,0,0,0,306.088,264.348Z"/><path class="aj" d="M295.149,258.929c-1.229,12.941-2.35,25.8-3.324,38.794,1.425,3.257,10.246,4.641,13.841.82,2.036-11.624,4.018-20.752,4.554-27.191.446-5.36-.508-8.689-.472-13.425-1.293-5.55-9.178-8.7-12.551-6.9C295.1,252.136,295.364,256.66,295.149,258.929Z"/><path class="ak" d="M299.981,300.827a8.427,8.427,0,0,0,5.685-2.284c2.036-11.624,4.018-20.752,4.554-27.191.446-5.36-.508-8.689-.472-13.425a7.7,7.7,0,0,0-1.287-2.765c-2.579.764-3.245,1.812-3.577,3.1-1.176,4.54.083,8.539-.116,13.119C304.411,279.561,301.707,291.252,299.981,300.827Z"/><path class="aj" d="M321.188,275.555c6.406-4.468,15.141-6.5,22.287-7.743,8.275-1.439,23.75-5.553,16.9-16.794a40.56,40.56,0,0,0-4.415-6.461l-15.73-2.6c-.373,2.06-7.738,4.626-7.948,6.9a2.47,2.47,0,0,0,.675,1.553c1.089,1-1.144,1.922-2.15,2.378-4.354,1.974-11.329,5.364-15.682,7.44-1.466.772-3.916,2.366-4.161,3.849C310.583,266.407,315.722,273.821,321.188,275.555Z"/><path class="ak" d="M321.188,275.555c6.406-4.468,15.141-6.5,22.287-7.743,5.426-.943,14.938-2.921,18.414-7.429,1.806-2.341,1.551-5.365-.834-9.281a46.468,46.468,0,0,0-5.091-6.545l-1.847.351,1.78,6.937c-7.949,3.938-20.776,9.208-30.566,13.924-2.866,1.381-4.557,2-5.189,3.861a17.3,17.3,0,0,0-.377,5.346A10.286,10.286,0,0,0,321.188,275.555Z"/><path class="aj" d="M310.71,264.942c-1.444,14.861-2.983,29.669-4.1,44.561,1.426,3.257,10.247,4.641,13.842.82,2.036-11.624,4.177-20.333,4.713-26.772.446-5.36-1.122-9.231-.4-13.95C323.156,262.692,311.329,259.5,310.71,264.942Z"/><path class="ak" d="M314.764,312.608a8.431,8.431,0,0,0,5.689-2.285c2.036-11.624,4.177-20.333,4.713-26.772.446-5.36-1.122-9.231-.4-13.95a7.772,7.772,0,0,0-1.385-2.9c-1.7.84-2.767,1.538-3.239,2.927-.785,2.3-.051,5.728-.573,12.864C318.845,292.395,315.945,302.6,314.764,312.608Z"/><path class="al" d="M339.283,243.779l10.947,8.407c-11.683,4.983-19.375,9.457-30.981,13.435-2.707.928-8.44-1.147-4.087-3.759,5.87-3.522,12.528-6.1,19.05-9.823,1.347-.769-1.632-1.7-.786-3.539C334.056,247.132,338.33,244.008,339.283,243.779Z"/><path class="al" d="M312.038,264.756a6.889,6.889,0,0,0,4.536,2.795c-.189,14.562-3.164,29.659-4.783,44.278a11.32,11.32,0,0,1-4.378-2.124C308.289,294.3,310.254,280,312.038,264.756Z"/><path class="al" d="M329.955,238.3a42.424,42.424,0,0,0,5.811,4.536,19.052,19.052,0,0,1-5.608,3.235c-8.5,3.248-17.277,6.752-25.527,8.322a5.946,5.946,0,0,1-4.941-1.518c-.869-.843-1.476-2,.244-2.96a92.645,92.645,0,0,1,15.262-6.859c3.156-1.076,8.213-1.84,11.472-2.75A7.057,7.057,0,0,0,329.955,238.3Z"/><path class="al" d="M296.525,253.836a8.592,8.592,0,0,0,5.425,3.145c-.525,3.778.1,8.279-.035,13.515-.215,8.665-2.347,19.828-4.084,29.3-2.5-.066-3.837-.592-5.328-2.176C293.746,282.839,295.176,268.607,296.525,253.836Z"/><path class="h" d="M364.029,182.743c11.96,15.5-19.126,11.685-26.549,34.08,2.836-13.358-5.316-35.445,11.739-36.674Z"/><path class="s" d="M313.292,212.638a9.982,9.982,0,0,1-3.674-.128c-3.631-.288-6.365.16-8.6,1.552-.541.337,1.778,6.064,4.364,7.813.123.083.281-.065.4-.117l2.329-.828,6.3-2.354Z"/><path class="s" d="M311.179,212.723c-2.326-.316-3.924-1.285-5.232-1.272-1.342.014-3.232,1.162-5.652,1.492.529,2.406,3.654.715,4.818.9,1.073.168,1.179,1.459,2.173,1.452C308.852,215.28,311.081,214.445,311.179,212.723Z"/><path class="g" d="M339.46,216.7c-9.919,1.473-15.8,1.194-26.193,2.644-2.547-2.929-3.552-4.4-3.449-6.739,8.714-1.8,19.84-6.921,28.907-7.2Z"/><path class="s" d="M339.127,216.156c-4.074,1.429-7.486,1.41-10.82,1.728-4.979.474-9.757.658-15.954,1.477.546-1.768,1.412-3.078.988-4.537,4.776-.448,11.364-1.934,18.221-3.436,1.2-.4,1.7-3.866,2.166-5.427Z"/><path class="am" d="M329.688,234.606c1.848,20.337,18.222,21.358,29.5,13.528.587-29,29.6-51.818,4.491-66.171-2.037,4-8.006,6.269-11.3,5.823-4.213-.571-6.564-3.317-4.758-6.7.166-.312-1.262,2.133-1.34,1.782-3.819,3.879-6.181,9.13-7.844,16.183C337.442,203.291,329.672,234.431,329.688,234.606Z"/><path class="an" d="M348.681,173.388c-10.136,1.23-12.816,11.231-14.465,26.162-.582,5.263-.376,9.988-1.2,16.514-.615,4.9-3,13.7-4.51,20.364,1.35-1.089,2.518-2.3,3.758-3.51.72-2.76,1.64-5.612,2.33-8.536,2.915-12.359,5.727-25.459,9.5-34.679,1.269-3.1,2.423-2.266,5.109-8.669-.072-.309-.151-.623-.224-.954a8.505,8.505,0,0,1-.13-1.612v-1.157h0v-1.316l0-.078v-.175l0-.071v-.084l0-.083v-.02l0-.064,0-.085,0-.084v-.029l0-.056,0-.076v-.01l0-.086,0-.037,0-.049,0-.086h0l0-.034-.005-.093v-.007l0-.041-.006-.087v-.008l-.009-.124V174.4l-.008-.113v-.016l-.006-.073,0-.024-.005-.065-.007-.09,0-.025-.005-.065-.007-.074v-.016l-.009-.091v-.007l-.006-.064,0-.019-.009-.084v-.008l-.01-.091v-.009l-.008-.069Z"/><path class="ao" d="M344.2,252.565c5.467,2.821,12.935-4.538,14.988-4.431.614-30.387,35.86-51.007,3.624-65.42-1.642,2-8.9,5.527-10.272,7.54-2.042,3,.174,6.519-.934,10.07C346.435,216.909,339.488,235.974,344.2,252.565Z"/><path class="an" d="M372.37,187.461c-1.669-1.245-5.042-4-8.707-6.749,2.258,3.6-4.285,4.03-9.379,12.349-.746,1.218-.154,3.464-.6,6.461-2.892,19.678-12.073,32.649-8.6,57.6,4.1,4.116,8.4,5.344,12.7,4.17a26.986,26.986,0,0,0,9.085-4.578c.173-13.283-4.459-14.443-3.722-22.621.678-7.519,13.927-26.017,15.227-36.345C378.955,193.162,375.488,189.788,372.37,187.461Z"/><path class="ap" d="M348.553,179.64c-6.243,3.712-10.249,15.794-11.656,26.948-2.036,16.135-1.978,11.71-4.5,26.583-.907.793-2.263,1.688-3.531,2.7,3.651-13.819,4.844-17.81,5.66-31.207.7-11.409,2.243-23.664,9.688-29.23C344.706,176.8,347.7,178.459,348.553,179.64Z"/><path class="aq" d="M372.37,187.461l-8.495-6.339c1.072,2.385,4.408,5.238,7.9,9.1-3.177,2.178-6.552,5.042-8.618,8.849-4.164,7.674-5.551,17.909-7.077,25.167-4.17,19.835,4.738,22.812,2.917,36.654,2.717-1.071,6.766-3.071,7.832-4.183.374-12.761-4.293-13.338-3.677-22.616.5-7.533,13.927-26.017,15.227-36.345C378.955,193.162,375.488,189.788,372.37,187.461Z"/><path class="ap" d="M365.085,185.115l4.214,4.7c-8.586,7.014-13.645,20.7-15.782,35.18-1.031,6.981.488,28.863,3.461,35.756-3.352,1.6-11.185-2.113-11.3-5.43-.493-14.511,3.409-37.875,7.925-48.762C357.478,197.223,362.5,191.059,365.085,185.115Z"/><path class="an" d="M378.131,195.477c.223,7.09-3.711,20.122-7.008,28.374-1.677,4.2-3.284,7.354-7.028,7.2-3.549-.143-5.28-4.387-4.815-7.994.551-4.274,1.656-9.389,3.349-18.216C364.437,195.421,377.833,186,378.131,195.477Z"/><path class="ap" d="M372.666,193.247c-2.69,10.271-4.878,18.917-8.218,29l-3.237-1.748C364.68,205.167,364.378,201.226,372.666,193.247Z"/><path class="aq" d="M378.131,195.477c.223,7.09-3.711,20.122-7.008,28.374-3.346-3.535-6.167-4.728-10.554-5.473.476-1.113,4.606-1.7,7.263-1.658,2.938-9.123,6.127-21.1,5.669-24.385a4.02,4.02,0,0,0-.1-.488C375.975,190.989,378.016,191.842,378.131,195.477Z"/><path class="ar" d="M372.12,222.522c-1.677,4.2-3.7,8.683-8.025,8.531-3.55-.124-5.28-4.387-4.815-7.994.153-1.185.348-2.434.586-3.81C361.613,215.9,372.033,218.54,372.12,222.522Z"/><path class="g" d="M339.471,225.277c-4.116.817-10.7.983-12.679,3.248-1.712,1.956.092,4.834,1.67,6.025,1.281.967,5.211.088,7.81-.318,2.3-.359,3.36-2.651,5.018-2.784C342.221,229.194,340.731,227.033,339.471,225.277Z"/><path class="s" d="M326.956,228.353c-.057.056-.112.112-.164.172-1.712,1.956.092,4.834,1.67,6.025,1.281.967,5.211.088,7.81-.318,2.3-.359,3.36-2.651,5.018-2.784a3.514,3.514,0,0,0-.074-2.726c-2.553.663-4,2.494-5.814,3.055-2.513.775-4.663.88-5.784.323A24.7,24.7,0,0,1,326.956,228.353Z"/><path class="g" d="M327.66,227.9c-2.048.585-5.376,1.366-7.43,1.91-1.445.383-.312,2.444,1.034,2.227,1.318-.212,4.771-.89,4.78-.894C327.353,230.679,328.466,229.409,327.66,227.9Z"/><path class="s" d="M319.962,231.293a1.019,1.019,0,0,0,1.3.747c1.317-.212,4.771-.89,4.78-.894a2.929,2.929,0,0,0,1.743-1.511Z"/><path class="as" d="M323.537,237.223,306.665,224.29c-1.587-1.262-1.3-1.126-1.969-3.053-.634-1.826-7.58-21.575-7.547-21.589l1.1-.436c.2-.153.808.308,1.577.923l15.9,12.668c1.746,1.39,1.54,1.013,2.262,3.122l6.819,19.925c.352,1.2.524,1.833.357,1.948l-1.134.448C323.752,238.358,323.821,237.112,323.537,237.223Z"/><path class="at" d="M306.665,224.29c-1.587-1.262-1.3-1.126-1.969-3.053-.617-1.887-7.817-21.481-7.525-21.6l1.082-.428c.2-.153.808.308,1.577.923l15.9,12.668c1.746,1.39,1.54,1.013,2.262,3.122Z"/><path class="au" d="M310.633,227.723l-3.968-3.433c-1.587-1.262-1.3-1.126-1.969-3.053l-3.96-10.015,6,4.82,8.64-3.522.354.283c1.746,1.39,1.54,1.013,2.262,3.122l.6,1.765-9.064,3.695Z"/><path class="av" d="M316.878,216.375,323.7,236.3c.663,2.262.689,2.509-1,1.069L306.4,224.4c-1.588-1.262-1.3-1.127-1.969-3.054L297.4,201c-.833-2.052.017-1.453,1.314-.414l15.9,12.666C316.362,214.642,316.156,214.265,316.878,216.375Z"/><path class="s" d="M303.843,214.163c-2.537-.855-2.443-1.485-2.725-.624-.413,1.259.695,6.308,2.931,8.487a12.514,12.514,0,0,0,2.561.807c.746.081.758-.323.506-1.422L306,216.537C305.611,215.072,305.4,214.689,303.843,214.163Z"/><path class="g" d="M366.2,230.878a22.734,22.734,0,0,1-3.935,1.161c-5.786,1.779-14.512-.756-21.977-.528.308-2.836-.407-5.107-1.961-5.96,7.418-1.9,14.226-2.151,21.544-3.273C364.872,221.511,368.722,228.179,366.2,230.878Z"/><path class="s" d="M366.2,230.878a22.734,22.734,0,0,1-3.935,1.161c-5.786,1.779-14.512-.756-21.977-.528a10.437,10.437,0,0,0-.011-2.5c3.825-1.469,17.734,1.117,26.542-1.637A3.655,3.655,0,0,1,366.2,230.878Z"/><path class="aq" d="M348.7,183.031c-.958,1.072-1.2,4.065-1.695,6.7-2.6.289-2.3.562-4.117,3.042a26.744,26.744,0,0,1,1.754-5.077c-1.3-1.457-2.2-1.488-3.882-2.47,1.39-5.436,4.954-7.991,7.549-8.633C349.518,180.017,349.5,179.795,348.7,183.031Z"/><path class="ar" d="M349.855,180.906c-1.759,2.715-2.177,4.9-2.833,8.859a9.214,9.214,0,0,0-5.4-4.828c1.407-3.748,4.462-7.382,6.837-7.962A20.793,20.793,0,0,1,349.855,180.906Z"/><path class="h" d="M364.137,182.24c-.208,4.177-13.246,7.318-15.407,3.312a6.733,6.733,0,0,0,.721-2.446,10.829,10.829,0,0,0-.466-3.026c-.294-1.327.053-4-.351-7.072l12.354-3.5,2.678-.986C361.68,174.18,362.633,177.066,364.137,182.24Z"/><path class="s" d="M364.137,182.24a1.7,1.7,0,0,1-.137.621c-5.057-4.23-8.895-1.781-15.145-4.393a43.074,43.074,0,0,0-.221-5.46l12.354-3.5,2.678-.986C361.68,174.179,362.633,177.066,364.137,182.24Z"/><path class="g" d="M351.02,177.676c1.629-.411,5.25-.574,6.739-1.03,3.259-1,3.915-4.1,5.995-7.642,3.031-.886,4.327-1.976,5.087-3.455,1.8-3.51,1.093-8.221-.966-11.379a10.371,10.371,0,0,0-7.876-4.7c-6.662-.808-10.849,2.983-13.047,8.221a3.817,3.817,0,0,0-.291,1.39c-.042,1.194.254,1.834.239,2.65-.028,1.457-.616,1.551-1.023,2.312-.515.962-.384,3.118-.744,5.045a17.919,17.919,0,0,0-.169,2.345c-.066,1.973.216,4.286.794,4.784a13.458,13.458,0,0,0,1.9,1.135C348.306,177.735,348.979,177.943,351.02,177.676Z"/><path class="h" d="M351.02,177.676c1.629-.411,5.25-.574,6.739-1.03,3.259-1,3.915-4.1,5.995-7.642,3.031-.886,4.327-1.976,5.087-3.455,1.8-3.51,1.093-8.221-.966-11.379a10.371,10.371,0,0,0-7.876-4.7c-5.788-.7-9.707,2.067-12.077,6.24.093.393,2.936,2.646,5.872,3.835,1.876.76,3.217.143,5.244-.051-.076,1.654-2.317,5.055-2.587,6.145-.065.263.45,1.659-.491,2.551-.256.244-.853.457-.877.972-.257,5.376-4.32,7.418-6.286,8.592A8.656,8.656,0,0,0,351.02,177.676Z"/><path class="v" d="M355.534,158.449c1.736-.388,4.615-3.253,7.465-4.032,2.915-.8,6.086-1.625,7.775.533,1.238,2.763.713,7.022-.263,9.225-1.4,3.154-4.3,5.474-7.976,7.758-1.38.859-.054-3.774-.151-4.84-.454.676-.962,1.365-1.484,2.083l-.776-.6c.267-.927,2.819-10.37,2.474-11.174C361.659,156.778,359.25,158.131,355.534,158.449Z"/><path class="h" d="M364.077,165.517c2.705-.243,2.019,2.645,1.206,4.3-.559,1.137-1.529.8-2.119,1.667a2.335,2.335,0,0,1-2.454,1.135c-1.511-.412-.019-2.441.379-3.294C361.27,167.813,362.361,165.67,364.077,165.517Z"/><path class="v" d="M363.152,157.733c-.136-4.124,1.431.187,2.934,2.525a11.069,11.069,0,0,0-3.813,4.714,15.742,15.742,0,0,0-1.172,8.04,1.974,1.974,0,0,1-1.355,2.505,24.914,24.914,0,0,1-8.519,2.795c-1.66.161-2.938.135-3.715-.39-1.311-.888-2.194-1.491-2.561-2.28-.668-1.434-.084-5.449.233-6.992.382.556.747.114,1.719.127a7.5,7.5,0,0,1,2.622,1.385c2.6,1.964,2.024,3.936,2.724,4.2a10.875,10.875,0,0,0,2.579-.839,5.4,5.4,0,0,0,2.871-2.163c2-3.859,5.6-9.232,5.453-13.625ZM348.817,175.05c.353.139.285.008.438-.182a3.436,3.436,0,0,0,.167-2.714,7.123,7.123,0,0,0-1.933-1.537c-.73-.456-1.432.252-1.721,1.037a1.4,1.4,0,0,0-.121.924c.107.292.4.4.845.723.419-.546.565-.665,1.018-.289.392.327.542.431.08,1.2A4.1,4.1,0,0,0,348.817,175.05Z"/><path class="u" d="M353.4,174.07a12.712,12.712,0,0,1-3.96,3.306c-.189.111-.864.5-1.322.831a2.344,2.344,0,0,1-.607-.285c-1.311-.888-2.194-1.491-2.561-2.28-.668-1.434-.084-5.449.233-6.992.382.556.747.114,1.719.127a7.5,7.5,0,0,1,2.622,1.385c2.6,1.964,2.024,3.936,2.724,4.2a3.421,3.421,0,0,0,1.152-.29Zm-4.584.98c.353.139.285.008.438-.182a3.436,3.436,0,0,0,.167-2.714,7.123,7.123,0,0,0-1.933-1.537c-.73-.456-1.432.252-1.721,1.037a1.4,1.4,0,0,0-.121.924c.107.292.4.4.845.723.419-.546.565-.665,1.018-.289.392.327.542.431.08,1.2A4.1,4.1,0,0,0,348.817,175.05Z"/><path class="u" d="M370.8,155.213a8.257,8.257,0,0,1,.564,5.324,4.173,4.173,0,0,0-.876-3.439,5.691,5.691,0,0,1-.273,4.423,4.5,4.5,0,0,0-.927-3.971,8.619,8.619,0,0,1-.676,6.315c.546-2.1.268-4.6-.988-6.03.556,1.8-.209,3.522-.7,5.029.087-2.147.272-3.294-.964-4.7a7.975,7.975,0,0,1-1.507,4.958,14.591,14.591,0,0,0-.084-4.871,3.919,3.919,0,0,1-2.063,2.565,10.919,10.919,0,0,0,.594-3.484c-.019-.373-.7-.5-1.222-.705C365.381,156.4,369.766,155.154,370.8,155.213Z"/><path class="v" d="M370.9,155.2c-3.384-3.307-8.769,2.257-14.116,3.165-2.273.387-3.138-.026-5.875-1.63-1.718-1.008-3.192-2.181-3.247-3.079-.31-5.043,1.819-6.383,5.017-6.74,1.3-.146,2.967.2,4.431.012C363.01,146.181,370.024,148.223,370.9,155.2Z"/><path class="x" d="M370.351,153.04a4.221,4.221,0,0,1,.526,2.282c-4.183,1.6-5.675,1.064-9.462,1.87-3.454.735-7.1,2.073-9.719-.521,2.487-3.728,4.9-4.768,9.7-3.829,1.793.351,2.451,1.35,6.259,1.277a3.808,3.808,0,0,0-1.329-.519C368.378,153.434,369.658,154.068,370.351,153.04Z"/><path class="u" d="M350.782,147.242c4.262-1.48,10.672.014,13.64,7.5-3.913-1.577-5.678-.66-7.84,1.649a4.746,4.746,0,0,1-3.128,1.307c-1.385-.076-2.6-.883-4.215-1.975a4.913,4.913,0,0,1-2.1-2.221C346.394,151.333,347.462,148.394,350.782,147.242Z"/><path class="v" d="M354.495,148.206a6.281,6.281,0,0,0-5.427,1.755,5.851,5.851,0,0,1,3.908-.83,5.716,5.716,0,0,0-3.156,1.751c2.19-.707,3.459-1.2,5.926-.815a6.548,6.548,0,0,0-4.379,1.655c2.49-.683,4.987-1.588,7.7-.287-2.159-.6-5.5.468-7.221,2.079a12.307,12.307,0,0,1,4.517-.623c-1.171.027-2.531,1.746-2.894,2.075,1.947-.64,4.2-2.505,7.1-1.742-3.6.075-6.537,5.456-8.913,3.984-1.286-.795-4.009-2.546-4.42-3.5a4.261,4.261,0,0,1,2.42-5.638A7.629,7.629,0,0,1,354.495,148.206Z"/><path class="aq" d="M353.883,190.18c-1.238,1.52-.643,7.067.008,8.3-.089-2.123.613-5.061,1.131-4.849,2.434,1,3.334,3.893,4.546,4.879,3.543-3.451,8.609-10.929,7.415-15.623-.156-.612-.246-1.351-.913-1.726-1.1-.616-2.447-1.21-2.409-.7C364.033,185.4,359.136,187.063,353.883,190.18Z"/><path class="ar" d="M362.8,178.261a9.448,9.448,0,0,1,.548,1.31c.88,3.146-8.3,7.055-9.881,11.3,2.744.284,5.151,2.5,6.335,5.044,2.859-4.871,7.166-10.771,5.587-14.9A6.694,6.694,0,0,0,362.8,178.261Z"/><path class="g" d="M173.178,286.372c1.048,2.312,1.325,10.207,1.207,10.969-.136.878-1.129,2.374-1.677,3.976-1.1,3.205-1.135,5.034-.176,6.4.69.981,3.3,2.342,5.5,3.577a9.549,9.549,0,0,1,2.74,2.022c1.363,1.586,2.064,2.669,3.993,3.667a20.918,20.918,0,0,0,5.173,1.721c1.937.4,6.2.2,7.565-.5.812-.417,1.4-.933,1.324-1.554-.273-2.422-4.717-6.08-7.7-8.918-2.956-2.815-5.472-5.763-6.675-8.969a62.475,62.475,0,0,1-.964-11.345C179.811,288.991,174.928,285.218,173.178,286.372Z"/><path class="h" d="M174.293,290.928c.054,1.4.208,5.663.092,6.413-.136.878-1.129,2.374-1.677,3.976-1.1,3.205-1.135,5.034-.176,6.4.69.981,3.3,2.342,5.5,3.577a9.549,9.549,0,0,1,2.74,2.022c1.363,1.586,2.064,2.669,3.993,3.667a23.839,23.839,0,0,0,8.547,2.2c.926.067,5.5-.627,5.542-2.8-2.431,1.6-5.39,1.325-8.428-.038-3.063-1.375-4.568-4.283-7.764-6.382s-5.625-2.92-6.639-5.06c-.283-.6.089-.589.191-1.692.111-1.191-.579-2.2-.493-3.121.146-1.565.847-2.695.955-3.782.179-1.794-.373-2.485-.3-3.991C176.15,292.121,174.735,291.756,174.293,290.928Z"/><path class="ah" d="M171.276,308.223a3.609,3.609,0,0,0,1.085,1.871c3.985,3.647,3.638.675,6.89,3.447,2.3,1.959,2.175,2.968,3.844,4.247a14.493,14.493,0,0,0,6.6,2.571c1.3.206,5.33.141,7.491-.96,1.353-.691,2.177-2.076,1.407-3.318-1.551-2.5-7.4-4.169-8.2-4.641-1.437-.836-6.592-4.9-11.09-7.361-.072.113-.137.223-.195.329a6.314,6.314,0,0,1-4.724-2.207,1.94,1.94,0,0,0-2.231,1.065A20.266,20.266,0,0,0,171.276,308.223Z"/><path class="ai" d="M172.822,301c-.04.1-.079.21-.114.316-1.1,3.205-1.135,5.033-.176,6.4.69.981,3.3,2.342,5.5,3.577a9.549,9.549,0,0,1,2.74,2.022c1.363,1.586,2.064,2.669,3.993,3.667a20.958,20.958,0,0,0,5.173,1.722c1.937.4,6.2.2,7.565-.506.812-.417,1.4-.933,1.324-1.554-.273-2.422-4.717-6.08-7.7-8.918a28.445,28.445,0,0,1-6.147-7.744c-1.756-.362-4.87,2.592-5.871,4.428C174.893,304.077,174.768,301.871,172.822,301Z"/><path class="aj" d="M172.822,301c-.04.1-.079.21-.114.316-1.1,3.205-1.135,5.033-.176,6.4.69.981,3.3,2.342,5.5,3.577a9.549,9.549,0,0,1,2.74,2.022c1.363,1.586,2.064,2.669,3.993,3.667a23.839,23.839,0,0,0,8.546,2.2c.927.067,5.5-.627,5.543-2.8-2.431,1.6-5.39,1.325-8.428-.038-3.063-1.375-4.568-4.283-7.764-6.382s-5.625-2.919-6.639-5.06a5.447,5.447,0,0,1-.476-1.647C174.474,302.471,173.958,301.508,172.822,301Z"/><path class="ah" d="M187.52,304.014a3.864,3.864,0,0,0-2.158.556,6.147,6.147,0,0,0-1.956,1.769l-.516-.378a6.8,6.8,0,0,1,2.16-1.949,4.905,4.905,0,0,1,2.069-.642c.135.175.272.349.413.522Z"/><path class="ah" d="M188.791,305.352a4.054,4.054,0,0,0-2,.566,6.158,6.158,0,0,0-1.956,1.769l-.515-.378a6.793,6.793,0,0,1,2.16-1.949,5.123,5.123,0,0,1,1.767-.613C188.427,304.95,188.608,305.151,188.791,305.352Z"/><path class="ah" d="M190.145,306.767a4.166,4.166,0,0,0-1.881.566,6.147,6.147,0,0,0-1.956,1.769l-.516-.378a6.8,6.8,0,0,1,2.161-1.949,5.187,5.187,0,0,1,1.62-.59Q189.855,306.478,190.145,306.767Z"/><path class="ah" d="M191.779,308.338a4.094,4.094,0,0,0-1.949.566,6.14,6.14,0,0,0-1.956,1.77l-.516-.378a6.762,6.762,0,0,1,2.161-1.949,5.156,5.156,0,0,1,1.638-.593Q191.459,308.041,191.779,308.338Z"/><path class="ah" d="M193.331,309.773a4.146,4.146,0,0,0-1.892.565,6.156,6.156,0,0,0-1.956,1.771l-.517-.378a6.786,6.786,0,0,1,2.161-1.95,5.212,5.212,0,0,1,1.581-.583Z"/><path class="ah" d="M194.858,311.211a4.078,4.078,0,0,0-1.969.566,6.151,6.151,0,0,0-1.956,1.77l-.517-.378a6.786,6.786,0,0,1,2.161-1.95,5.156,5.156,0,0,1,1.663-.6C194.448,310.818,194.654,311.015,194.858,311.211Z"/><path class="g" d="M157.8,304.475l8.876-.577c.079,1.743-.206,4.852.365,6.57a6.262,6.262,0,0,1,.2,3.415c-.218,1.59.336,2.582.583,4.079.1.615.179,1,.322,1.621l-7.013,2.327-3.169-1.49c-.719-1.864-.48-3.089-.264-5.29.174-1.77.409-3.847.4-5.634S157.834,306.239,157.8,304.475Z"/><path class="h" d="M157.679,303.939l3.306.329c.1,4.292-.4,13.024.153,17.642l-3.169-1.49c-.719-1.864-.6-3.105-.264-5.29.159-1.021-.2-2.526-.172-3.783.024-1.115.4-1.781.465-2.682A29.286,29.286,0,0,0,157.679,303.939Z"/><path class="q" d="M157.763,316.05c-.534,1.6-1.143,3.15-1.05,4.132.117,1.235.823,2.3.876,3.865.045,1.343-.039,2.786-.127,4.31-.156,2.659,2.11,4.651,4.607,5.593,2,.754,6.35.9,8.226-.2a5.773,5.773,0,0,0,.945-3.106c-.108-4.878-3.446-10.041-4.062-14.354a3.965,3.965,0,0,0-.458-.581L161,315.74a3.4,3.4,0,0,0-.506.614c-.41.632-1.106,1.234-1.561,1.139C158.523,317.407,158.113,316.98,157.763,316.05Z"/><path class="ai" d="M157.652,315.731a10.209,10.209,0,0,0-.668,3.563c.117,1.235.507,2.423.56,3.989.045,1.342.027,2.486-.062,4.012-.235,4.049,6.414,6.364,9.674,5.964a12.184,12.184,0,0,0,3.64-.83c.332-.142.62-1.467.6-2.6-.053-2.381-.26-2.171-1.41-5.9-.393-1.273-.718-2.49-1.247-3.974-.342-.962-.72-1.862-1.026-2.763l-.083-.021a3.663,3.663,0,0,0-3.046-2.51l-.907.005a4.015,4.015,0,0,0-3.177,1.689c-.41.632-1.106,1.234-1.561,1.139S158.024,316.884,157.652,315.731Z"/><path class="aj" d="M157.652,315.731a10.209,10.209,0,0,0-.668,3.563c.117,1.235.507,2.423.56,3.989.045,1.342.027,2.486-.062,4.012-.235,4.049,6.414,6.364,9.674,5.964a12.184,12.184,0,0,0,3.64-.83c.179-.077.346-.5.458-1.052-2.978.474-6.185.431-8.621-1.716-1.825-1.608-2.457-4.2-2.624-7.721-.065-1.4-.142-3.127-.166-4.834a1.214,1.214,0,0,1-.909.387C158.479,317.4,158.024,316.884,157.652,315.731Z"/><path class="ah" d="M160.679,319.076l.287-.087a12.551,12.551,0,0,1,5.813-.769l-.03.534a12.176,12.176,0,0,0-5.629.748l-.288.086Z"/><path class="ah" d="M161.018,320.361l.288-.086a12.558,12.558,0,0,1,5.812-.77l-.03.534a12.164,12.164,0,0,0-5.629.749l-.287.086Z"/><path class="ah" d="M161.529,321.852l.287-.086a12.558,12.558,0,0,1,5.812-.77l-.029.534a12.18,12.18,0,0,0-5.63.749l-.287.086Z"/><path class="ah" d="M161.885,323.368l.288-.087a12.567,12.567,0,0,1,5.811-.769l-.029.534a12.164,12.164,0,0,0-5.629.748l-.288.086Z"/><path class="ah" d="M162.293,324.736l.287-.087a12.545,12.545,0,0,1,5.812-.769l-.03.533a12.177,12.177,0,0,0-5.629.749l-.287.086Z"/><path class="ah" d="M162.477,326.045l.288-.086a12.545,12.545,0,0,1,5.812-.77l-.03.534a12.176,12.176,0,0,0-5.629.748l-.288.087Z"/><path class="aw" d="M172.6,188.94c-1.5,5.741-6.3,5.919-4.258,15.48,2.041,9.534,7.84,27.906,7.152,36.711-.468,5.974-2.446,7.09-3.387,14.875-1.141,9.447,1.44,26.317,1.07,36.729-.013,1.946,7.331,4.088,10.891-.637,1.162-9.131,2.61-36.064,5.059-45.816,1.809-5.4,1.3-8.026,1.729-13.406a274.367,274.367,0,0,0-.157-40.659,40.082,40.082,0,0,0-.427-7.445Z"/><path class="ax" d="M168.347,204.42c2.041,9.534,7.84,27.906,7.152,36.711-.468,5.974-2.446,7.09-3.387,14.875-1.141,9.447,1.465,26.281,1.094,36.692-.252,1.285,3.046,2.656,6.2,2.031-1.169-17.473-2.774-32.36,2.489-46.809a17.986,17.986,0,0,0,.879-7.229,377,377,0,0,0-5.137-41.877Z"/><path class="aw" d="M160.986,183.025c-1.544,4.808-6,7.431-8.251,16.045-1.417,5.434-.237,13.844,1.781,23.272,1.11,5.186,2.719,10.534,3.614,15.105a46.807,46.807,0,0,1,.935,8.675c.066,5.246-3.281,9.831-4.273,14.889-1.673,8.524.6,31.42,1.868,43.658.581,3.531,7.22,5.476,11.227.978-.259-11.816-.417-23.744,1.055-36.055.608-5.086-.221-7.93,1.675-11.931a56.531,56.531,0,0,0,2.6-6.313c.167-.49.31-.987.431-1.485.526-1.3,1.248-3.988.944-8.761l-.974-33.117q.822-.846,1.647-1.689c5.478-5.6,11.064-11.2,15.362-17.785a11.924,11.924,0,0,0-.133-2.315c-.085-.77-.211-1.531-.363-2.29-.794-3.95-2.22-6.79-2.841-9.9-10.453,6.882-18.483,9.929-26.179,7.958a6.59,6.59,0,0,0,.134,1.078Z"/><path class="ay" d="M164.4,210.682c.974,6.755,2.325,20.185,3.068,26.295.592,4.858,1.29,9.656,1.937,10.292,1.044,1.027,3.015,2.714,4.268-1.1.695-2.119-.229-12.781-.258-13.522-.228-5.63-1.236-18.6-1.4-24.726-.027-1.017,5.376-5.195,8.028-7.666,1.42,7.419,4.657,39.582,5.235,40.15,1.043,1.026,2.917,1.837,4.17-1.979.376-1.149,1.283-28.522.745-41.026l-.043-1.949c-.153-6.981-.327-11.335-2.755-17.458-4.564,3.575-10.449,5.925-17.958,7.61,1.4,5.15,1.611,5.3,7.671,4.08,2.562-.518,4.51-1.077,5.309.13,1.952,2.95-1.66,5.968-3.955,7.611-4.544,3.256-8.243,3.521-12.125,6.5C164.312,205.48,164.088,208.519,164.4,210.682Z"/><path class="ay" d="M170.789,254.361l-5.163,1.851c-5.016,15.642-3.377,29.815-2.24,49.967,1.221-.108,2.9.122,3.8-.779.027-8.8-.159-16.55.167-24.543.169-4.13.617-8.325,1-12.762C169,260.655,167.93,262.365,170.789,254.361Z"/><path class="ay" d="M189,245.449l-5.163,1.85c-5.016,15.643-4.765,24.7-3.628,44.854a5.219,5.219,0,0,0,3.556-.536c.027-8.8.985-11.582,1.311-19.575.169-4.13.618-8.325,1-12.763C186.724,251.84,186.144,253.452,189,245.449Z"/><path class="ax" d="M152.792,199.341c-1.417,5.434-.237,13.844,1.781,23.272.042.2.087.4.133.6,1.1,4.911,2.579,9.921,3.424,14.238a46.807,46.807,0,0,1,.935,8.675c.066,5.246-3.281,9.831-4.273,14.889-1.673,8.524.644,31.225,1.917,43.464.323,2.578,3.52,3.874,5.554,3.734-1.718-21.608-2.873-37.909,2.436-54.325.682-2.622,1.334-4.04,1.141-6.647.851-13.215-3.546-33.66-3.737-38.995-.252-7.014,5.13-6.747,12.652-10.183,7.068-3.228,9.409-8.874,3.431-6.977-7.39,2.346-12.143.437-11.751-3.233.192-1.8.449-3.543.481-5.019l.211-.322a19.047,19.047,0,0,1-6.02-.546,7.722,7.722,0,0,1-.259,1.236,23.37,23.37,0,0,1-3.34,6.155A30.178,30.178,0,0,0,152.792,199.341Z"/><path class="az" d="M161.8,214.872l2.976-.5-.288.349,3.606-.758,1.048-.022s-.466.248-.142.193,2.29-.684,2.29-.684l-.762.968.786.1.276.872.755.29-.2.6-.7.631,1.061.088s-3.611.721-3.936.776-6.428.733-6.428.733l1.861-.586,1.485-.49-3.127.176s-1.02-.2-.472-.232,3.151-.437,3.534-.458,3.753-.915,3.753-.915l-4.435.324-2.354.17-.929.089a1.218,1.218,0,0,1,.782-.377c.594-.107,1.3-.221,1.3-.221l-1.189-.229-1.239-.188Z"/><path class="ba" d="M161.8,214.872l-.685.705,1.239.188,1.189.229s-.7.114-1.3.221a1.218,1.218,0,0,0-.782.377c.643-.144,1.439-.211,2.1-.329.45-.081,1.094-.27,1.094-.27l-1.073-.206-1.737-.246,1.24-.422,1.6-.108,3.686-.668-.139.141a4.522,4.522,0,0,0,1.023-.122,5.456,5.456,0,0,0,2.037-.913s-1.965.628-2.29.684.142-.193.142-.193l-1.048.022-3.606.758.288-.349-2.976.5Zm2.208,3.056,1.485-.49-3.127.176s-1.02-.2-.472-.232,3.179-.438,3.534-.458,3.107-.768,3.841-.961l.472.044s-3.533,1.065-3.88,1.084-1.763.213-2.5.329.224.036.224.036l3.81-.224-1.952.532-1.726.486-1.574.264Z"/><path class="g" d="M164.02,232.145l2.7-.28-.318.42,3.3-.537.921.1s-.455.266-.161.235,2.134-.606,2.134-.606l-.849,1.17.668.234.077,1.175.607.476-.29.763-.726.738.913.248s-3.3.489-3.593.52-5.765.148-5.765.148l1.739-.532,1.392-.454L164,235.8s-.856-.392-.369-.363,2.839-.174,3.179-.154,3.458-.723,3.458-.723l-3.943-.135-2.094-.074H163.4a1.056,1.056,0,0,1,.755-.394c.541-.066,1.178-.126,1.178-.126l-1-.449-1.05-.4Z"/><path class="h" d="M164.02,232.145l-.732.835,1.05.4,1,.449s-.637.06-1.178.126a1.056,1.056,0,0,0-.755.394c.59-.108,1.3-.094,1.9-.167a8.7,8.7,0,0,0,1.009-.214l-.9-.4-1.473-.542,1.164-.4,1.423.06,3.352-.408-.149.166a2.751,2.751,0,0,0,.919-.03,4.332,4.332,0,0,0,1.956-.937s-1.839.574-2.134.606.161-.235.161-.235l-.921-.1-3.3.537.318-.42-2.7.28Zm1.046,4.659,1.6-.417,1.809-.45-3.378-.187s-.853-.017-.189-.076,1.94-.133,2.247-.115,3.6-.929,3.6-.929l-.4-.117c-.679.16-3.229.791-3.544.772s-2.693.183-3.179.154.369.363.369.363l2.77.164-1.392.454-1.739.532Z"/><path class="g" d="M180.713,212.114l2.631-.666-.253.462,3.188-1.006.926-.031s-.411.329-.124.256,2.024-.907,2.024-.907l-.673,1.279.7.137.246,1.152.668.382-.177.8-.612.835.939.115s-3.193.958-3.48,1.032-5.685.975-5.685.975l1.645-.777,1.313-.65-2.766.238s-.9-.265-.417-.307,2.785-.581,3.124-.61,3.319-1.212,3.319-1.212l-3.923.433-2.082.227-.821.119a1.06,1.06,0,0,1,.691-.5c.525-.142,1.147-.293,1.147-.293l-1.052-.3-1.1-.249Z"/><path class="h" d="M180.713,212.114l-.6.931,1.1.249,1.052.3s-.622.151-1.147.293a1.06,1.06,0,0,0-.691.5c.568-.191,1.272-.28,1.852-.437a8.756,8.756,0,0,0,.967-.358l-.95-.271L180.752,213l1.1-.558,1.416-.146,3.259-.886-.123.186a2.79,2.79,0,0,0,.9-.162,4.33,4.33,0,0,0,1.8-1.209s-1.737.833-2.024.907.124-.256.124-.256l-.926.031-3.188,1.006.253-.462-2.631.666Zm1.959,4.035,1.313-.65-2.766.238s-.9-.265-.417-.307,2.81-.583,3.124-.61,2.746-1.017,3.4-1.273l.418.057s-3.124,1.411-3.431,1.437-1.558.284-2.207.438.2.047.2.047l3.368-.3-1.724.706-1.526.644-1.392.351Z"/><path class="az" d="M178.193,257.374l2.3.142-.244.286,2.8.021.8.2s-.372.147-.122.162,1.794-.188,1.794-.188l-.651.8.592.274.146.928.554.453-.2.558-.574.48.8.317s-2.8-.059-3.053-.075-4.949-.655-4.949-.655l1.459-.183,1.168-.169-2.4-.5s-.762-.42-.342-.333,2.431.244,2.725.3,2.924-.1,2.924-.1l-3.4-.633-1.8-.338-.713-.111a.7.7,0,0,1,.622-.208c.46.022,1,.06,1,.06l-.889-.485-.93-.456Z"/><path class="ba" d="M178.193,257.374l-.573.554.93.456.889.485s-.544-.038-1-.06a.7.7,0,0,0-.622.208c.5-.006,1.11.1,1.618.123a7.476,7.476,0,0,0,.853-.033l-.8-.438-1.3-.62.975-.153,1.227.237,2.856.13-.117.11a2.708,2.708,0,0,0,.788.1,3.061,3.061,0,0,0,1.618-.471s-1.542.2-1.794.188.122-.162.122-.162l-.8-.2-2.8-.021.244-.286-2.3-.142Zm1.218,3.782,1.349-.112,1.525-.11-2.917-.6s-.734-.127-.168-.084,1.66.155,1.925.21,3.033-.244,3.033-.244l-.356-.146c-.573.035-2.722.187-2.994.13s-2.3-.218-2.725-.3.342.333.342.333l2.4.5-1.168.169-1.459.183Z"/><path class="az" d="M156.635,287.024l2.625-.176-.254.318,3.181-.365.924.091s-.411.2-.125.178,2.02-.434,2.02-.434l-.672.885.693.189.243.9.666.373-.177.581-.612.555.936.2s-3.185.328-3.472.348-5.669.031-5.669.031l1.64-.382,1.311-.329-2.759-.165s-.9-.313-.415-.284,2.778-.093,3.116-.073,3.31-.505,3.31-.505l-3.911-.159-2.077-.087-.818-.012a.9.9,0,0,1,.689-.292c.524-.043,1.145-.08,1.145-.08l-1.049-.358-1.093-.324Z"/><path class="ba" d="M156.635,287.024l-.6.63,1.093.324,1.049.358s-.621.037-1.145.08a.9.9,0,0,0-.689.292c.566-.074,1.268-.054,1.847-.1.4-.032.965-.15.965-.15l-.947-.324-1.531-.435,1.093-.287,1.412.066,3.251-.265-.123.125a3.479,3.479,0,0,0,.9-.01,3.987,3.987,0,0,0,1.8-.691s-1.734.414-2.02.434.125-.178.125-.178l-.924-.091-3.181.365.254-.318-2.625.176Zm1.7,3.587,1.522-.3,1.721-.32-3.36-.191s-.844-.025-.2-.06,1.895-.075,2.2-.056,3.422-.662,3.422-.662l-.416-.1c-.648.114-3.074.561-3.388.542s-2.633.1-3.116.073.415.284.415.284l2.759.165-1.311.329-1.64.382Z"/><path class="g" d="M204.728,173.811c-7.476-1.162-27-3.687-29.349-4.257l1.529-12.279c9.839,1.2,21.282,8.067,29.763,10.859,1.96.343,3.6-.287,5.653-.09,2.288.22,2.188.779,5.29.886a11.239,11.239,0,0,0,3.836-.211c.348,2.491-3.053,2.01-3.983,2.2a18.321,18.321,0,0,0-1.724.837,6.679,6.679,0,0,0,2.819.751l4.374-.059c1.87-.367,3.812-1.061,4.183-.971.5.119-2.539,3.88-3.3,4.648-1.071,1.082-5.345,3.312-6.009,3.193l-5.087-.91C208.74,177.693,210.019,174.9,204.728,173.811Z"/><path class="h" d="M214.572,176.932a6.1,6.1,0,0,0,3.7.72c1.471-.1,4.527-2.809,6.114-2.162-.237.277-.436.5-.568.632-1.071,1.082-5.345,3.312-6.009,3.193l-5.087-.91c-3.373-.6-4.022-2.3-5.183-3.277a6.142,6.142,0,0,0-2.79-1.139c-6.927-1.12-26.94-3.844-29.372-4.435l1.005-6.177c8.939,3.662,16.334,5.252,26.958,7.78a20.477,20.477,0,0,1,2.508.6C212.637,173.418,210.515,174.718,214.572,176.932Z"/><path class="h" d="M221.4,168.65c.261,2.758-3.144,2.1-3.993,2.266a15.893,15.893,0,0,0-1.663.837,5.017,5.017,0,0,1-1.42-1.221,3.611,3.611,0,0,1,.682-.3C216.359,169.889,220.384,170.845,221.4,168.65Z"/><path class="bb" d="M187.9,171.817c-5.949-1.028-11.318-1.971-12.518-2.263l2.077-12.766a48.861,48.861,0,0,1,13.317,4.175C191.193,164.307,189.6,170.389,187.9,171.817Z"/><path class="bc" d="M187.9,171.817c-5.949-1.028-11.318-1.971-12.518-2.263l12.158-9.975c1.53.464,1.017,5.338.928,7.241a2.122,2.122,0,0,0,1.48.958A9.223,9.223,0,0,1,187.9,171.817Z"/><path class="bd" d="M163.111,147.233c18.137,2.591,6.439-2.235.852-15.365-1.884-7.425-1.476-23.032-5.5-23.7C156.416,125.729,156.291,141.633,163.111,147.233Z"/><path class="be" d="M157.718,168.629c2.471,4.9,3.789,10.348,3.352,13.552,5.918,4.088,19.045-1.626,26.384-7.4-.059-.253-.115-.512-.168-.779-.939-4.7,1.021-8.653.508-14.087-.137-1.456-.28-2.926-.427-4.394-.5-4.968-1.042-9.922-1.6-14.264-.493-3.8-.626-12.3-3.762-15.74-1.007-1.1-2.091-1.108-3.855-1.048-4.933.167-17.165,6.832-24.547,12.595-3.792,2.96-5.39,5.229-5.6,8.286C147.5,152.651,154.533,162.309,157.718,168.629Z"/><path class="be" d="M157.718,168.629c2.472,4.9,3.789,10.348,3.352,13.552a9.5,9.5,0,0,0,5.823,1.373q.01-.794-.022-1.625c-.184-4.666-2.4-8.124.922-11.763.775-.849,2.9-1.484,4.708-2.16,5.722-2.14,7.016-5.393,9.94-6.813,1.851-.9,3.561-1.691,5.221-2.453,0-6-2.648-12.014-4.539-17.647l-23.267,8.95A23.5,23.5,0,0,0,153.4,137.3c-2.552,2.022-4.77,4.2-5.015,7.779C147.889,152.383,154.533,162.309,157.718,168.629Z"/><path class="bf" d="M180.351,157.574c-2.207,1.123-4.366,4.413-7.85,6.32a8.62,8.62,0,0,1-10.722-2.1,20.064,20.064,0,0,1-1.205-5.535c-.317-7.092-1.008-9.734-5.033-15.44,2.52-1.378,4.8-4.013,6.193-5.522l15.935-8.688,5.081,1.341a41.458,41.458,0,0,0,5.831,11.9,11.1,11.1,0,0,1,1.785,9C189.2,153.883,184.363,155.534,180.351,157.574Z"/><path class="bg" d="M159.209,147.412c-1.768.89-5.112,10.6-6.762,8.292-3.737-5.229-6.735-11.683-1.3-16.47,5.817-5.122,13.334-10.679,20.834-13.825-5.486,3.782-9.5,9.11-16.2,15.414A23.534,23.534,0,0,1,159.209,147.412Z"/><path class="h" d="M157.534,135.764c7.376,7.728,10.934,8.555,17.409,5.855,8.841-3.688,5.874-10.649,2.169-16.472C168.923,127.45,163.959,129.484,157.534,135.764Z"/><path class="bc" d="M159.01,146.376c-1.768.89-5.989,10.844-7.638,8.536-3.738-5.229-5.666-11.731-.253-16.543a56.358,56.358,0,0,1,8.7-6.138l-.048,3.592c-1.441,1.408-2.771,2.841-4.43,4.256C156.921,142.318,158.087,143.7,159.01,146.376Z"/><path class="bb" d="M157.812,168.762c-3.186-6.32-10.366-17.074-9.865-24.373.222-3.247,2.03-5.042,4.508-6.549a35.532,35.532,0,0,1,7.495-5.8,3.511,3.511,0,0,0-.109,3.072,2.25,2.25,0,0,0,.895,1.132c1.332,2.4,3.511,5.417,4.618,6.976,1.053,1.258,2.237,2.463,3.484,3.7a55.18,55.18,0,0,1,8.121,25.564c.909,19.14,2.706,22.794.234,36.067-4.155,3.285-20.775,12.47-25.544-.385-1.68-12.239,8.247-21.576,9.292-24.834.949-2.954-.373-9.1-3.129-14.569Zm20.9-35.8c2.64,6.761,3.63,13.741,4.128,20.8.823,3.979,1.426,7.846,2.1,13.135,1.465,11.589,4.741,23.1,4.961,34.55a12.513,12.513,0,0,0,2-2.1c-.2-4.857-.728-11.386-1.136-13.555-1.111-5.905-2.637-7.922-3.383-11.655-.938-4.7,1.023-8.653.51-14.087-.138-1.456-.281-2.926-.428-4.394-.5-4.968-1.042-9.922-1.6-14.264-.725-5.6-1.4-10.367-2.118-12.616a6.788,6.788,0,0,0-1.088-2.232c-1.482-2.116-4.142-3.188-8.772-1.246-1.365.573-2.874,1.209-4.454,1.911a19.743,19.743,0,0,1,3.107.813A7.766,7.766,0,0,1,178.714,132.96Z"/><path class="bc" d="M157.812,168.762c-3.186-6.32-10.366-17.074-9.865-24.373.272-3.966,2.909-5.766,6.241-7.52v1.54a23.928,23.928,0,0,1,5.762,11.767l8.6-3.308.644.651a57.459,57.459,0,0,1,7.066,18.791,18.209,18.209,0,0,1-3.664,1.829c-1.808.676-3.934,1.311-4.707,2.159-3.319,3.64-1.106,7.1-.923,11.763.523,13.27-8.139,21.386-8.2,32.121a9.959,9.959,0,0,1-7.114-6.017c-1.68-12.239,8.247-21.576,9.292-24.834.949-2.954-.373-9.1-3.129-14.569ZM181.3,142.51l1.914-1.284c1.444,4.3,3.329,8.823,4.14,13.393l.1,1.037q.15,1.5.294,2.992c0,.075,0,.15,0,.225-1.219.56-2.4,1.091-3.694,1.7C183.049,153.989,183.051,149.018,181.3,142.51Z"/><path class="bb" d="M175.324,162.1a59.73,59.73,0,0,0-6.947-15.947c-2.86-2.987-5.432-5.795-7.253-9.593-1.454,1.368-3.486,1.966-5.782,3.222,4.025,5.706,5.008,9.517,5.326,16.61a20.092,20.092,0,0,0,1.2,5.534,8.62,8.62,0,0,0,10.722,2.1,16.321,16.321,0,0,0,2.73-1.922Zm2.439-35.359,5.081,1.341a41.4,41.4,0,0,0,5.83,11.9,11.1,11.1,0,0,1,1.786,9c-.905,3.884-3.917,5.729-7.12,7.316a74.772,74.772,0,0,0-5.148-21c-.847-2.128-3.041-6.3-5.657-7.32Z"/><path class="bh" d="M158.444,138.674l-1.4,1.388c1.594,2.26,3.756,5.684,3.9,9.6a28.587,28.587,0,0,0,1.957,10.078c1.71,3.725,4.715,4.393,8.477,3.376a8.968,8.968,0,0,0,3.679-1.976,58.586,58.586,0,0,0-4.638-11.415C165.632,145.014,160.042,140.173,158.444,138.674Z"/><path class="bi" d="M182.262,131.929l-2.24,1.851,2.824.925a87.556,87.556,0,0,1,.642,21.657c-.9-6.505-2.935-16.283-6.5-23.466a9.463,9.463,0,0,0-7.488-5.679l2.985-1.343C177.173,125.014,180.335,127.882,182.262,131.929Z"/><path class="bi" d="M160.67,131.005a6.628,6.628,0,0,0-2.881,3.845c-.923,3.176.747,6.248,3.442,10.34l3.346-.924-1.184,4.1c7.479,3.639,9.776,7.133,11.832,13.771-2.818-16.064-12.094-20.03-14.021-27.056-.841-3.065.327-3.9.964-4.989C162.272,129.915,160.651,131.216,160.67,131.005Z"/><path class="bh" d="M168.247,179.281a41.661,41.661,0,0,1-.636,13.451c-1.528,5.723-5.339,12.5-7.127,20.9A27.132,27.132,0,0,0,175.9,208.1c2.554-12.212.768-16.868-.1-35.135a47.485,47.485,0,0,0-.481-4.83C168.144,172.93,167.391,170.113,168.247,179.281Z"/><path class="bh" d="M187.467,160.294c-1.135.5-1.563.931-2.691,1.387.717,4.862,1.184,8.71,2.1,13.925,1.348,7.679,3.434,15.936,3.55,23.948.39-.381.216-.529.694-1.045-.217-12.722-2.729-16.662-4.149-23.927C186.285,171.074,187.491,167.2,187.467,160.294Z"/><path class="h" d="M161.962,130.714c-.74,6.468,11.819,8.808,13.833,4.672.221-4.492.508-7.73,3.031-12.617l-12-4.734-3.04-1.326C165.341,123.056,164.142,125.265,161.962,130.714Z"/><path class="s" d="M161.961,130.591a.878.878,0,0,0-.016.219c5.068-5.755,8.8-3.52,14.6-2.108.132-.3,1.314-4.35,1.43-4.472.375-1.062.243-1.009.743-2.376l-12-4.734-3.04-1.326C165.238,122.141,164.141,125.143,161.961,130.591Z"/><path class="bj" d="M181.967,116.844l-5.052-3.388,2.37-9.046,4.4-6.4C190.472,102.588,186.334,116.34,181.967,116.844Z"/><path class="bj" d="M163.341,124.529c-4.728-3.39-6.107-13.241-4.5-19.092a23.089,23.089,0,0,1,4.125-7.922c2.538-3,6.566-4.521,12.2-3.181,1.683.4-3.49.611-1.562,2.08l-5.452,14.556C166.9,118.131,167.382,118.485,163.341,124.529Z"/><path class="g" d="M176.057,127.427c-6.424-2.973-8.236-6.3-9.533-13.024-2.79-2.012-3.961-3.652-4.2-5.447-.576-4.259,1.869-8.837,5.131-11.331a11.3,11.3,0,0,1,9.795-1.958c7.134,1.594,9.648,6.274,10,12.452a18.53,18.53,0,0,1-1.07,4.886c-.661,1.983.3,1.466.149,3.511A34.733,34.733,0,0,1,184.158,124c-.788,1.979-.962,4.036-2,4.327A9.013,9.013,0,0,1,176.057,127.427Z"/><path class="h" d="M176.057,127.427c-6.439-2.976-8.236-6.3-9.533-13.024-2.79-2.012-3.961-3.652-4.2-5.447-.576-4.259,1.869-8.837,5.131-11.331a11.3,11.3,0,0,1,9.795-1.958,12.988,12.988,0,0,1,9.145,7.655c-1.7,3.957-7.849,7.786-10.335,8.79-1.569.633-2.061.894-2.349,2.026-.6,2.378,2.182,2.654,2.185,3.795,0,1.167-2.924,1.193-2.436,4.364a19.835,19.835,0,0,0,3,5.308C176.321,127.556,176.193,127.489,176.057,127.427Z"/><path class="bj" d="M186.773,102.284c-8.427,11.634-20,11.251-20.619,14.056-.476,2.172-4.007-2.432-4.661-4.6a14.21,14.21,0,0,1,6.49-16.095C175.016,91.651,184.865,96.071,186.773,102.284Z"/><path class="bd" d="M165.757,120.474c-5.624-4.848-7.8-11.318-5.994-17.2-.011.132-.02.266-.027.4.925-1.832,2.289-4.387,4.414-5.074a13.426,13.426,0,0,0-3.887,8.107c.929-2.945,2.1-4.109,4.54-6.519a22.626,22.626,0,0,0-3.114,7.081c1.009-2.1,3.592-5.108,5.07-5.657a10.92,10.92,0,0,0-3.622,8.177c.819-2.787,3.412-6.31,5.66-6.95-1.228,1.053-3.119,3.784-3.268,5.626,1.6-2.1,1.694-2.575,4.391-4.388a15.03,15.03,0,0,0-2.81,4.96c1.28-1.385,2.32-2.685,3.961-4.186-.745,1.1-2.822,4.86-2.9,6.132.525-.675,4.718-3.11,6.512-4.027-1.987,2.152-4.216,4.431-6.038,5.3-.29.384,6.768-1.284,15.377-7.206-4.737,5.421-10.785,6.652-16.542,9.782l-.452,2.588A8.533,8.533,0,0,1,165.757,120.474Z"/><path class="h" d="M166.155,109.951c-2.622-1.367-3.131,1.826-3,3.829.091,1.376,1.2,1.446,1.442,2.559a2.541,2.541,0,0,0,2,2.161c1.692.212,1.033-2.45.985-3.474C168.028,113.428,167.819,110.818,166.155,109.951Z"/><path class="s" d="M166.772,113.915c-.391-1.4-.394-3.13-2.3-3.215C166.091,111.085,166.228,112.628,166.772,113.915Z"/><path class="bd" d="M159.192,104.48c-1.854,3.636-2.37,13.734,4.1,21.628.695-.523,2.532-4.359,2.765-6.064C159.774,112.342,161.064,115.315,159.192,104.48Z"/><path class="bk" d="M186.158,102.672c.136-3.753-4.968-7.79-11.456-8.44-2.967-.556-7.42-.4-9.9,1.837a17.5,17.5,0,0,1,9.487-1.239c-2.12.01-6.871.7-9.289,3.557a13.576,13.576,0,0,1,9.409-2.67c-3.453.5-4.394,1.277-6.71,3.125a19.493,19.493,0,0,1,7.829-2.3,9.455,9.455,0,0,0-5.552,3.6c3.149-1.76,3.46-2.591,7.142-2.66a22.614,22.614,0,0,0-5.963,3.926,42.888,42.888,0,0,1,7.413-2.64,25.925,25.925,0,0,0-5.074,3.705,24.758,24.758,0,0,1,7.082-2.624,27.752,27.752,0,0,0-7.323,5.079,50.591,50.591,0,0,1,8.047-3.908c-2.008,1.746-3.36,2.71-5.4,4.451a48.222,48.222,0,0,0,7.961-4.156c-1.756,1.534-6.964,5.827-9.035,7.2a69.942,69.942,0,0,0,9.934-6.207,14.588,14.588,0,0,1-5.166,5.015A17.728,17.728,0,0,0,186.158,102.672Z"/><path class="g" d="M176.144,128.943c-2.033,1.6-3.884,5.107-5.85,7.99a6.609,6.609,0,0,0,5.259-1.51A30.6,30.6,0,0,1,176.144,128.943Z"/><path class="h" d="M157.963,219.617l-3.137-2.467c2.559-2.9,2.691-4.439,3.972-4.075,2.153.61,2.991,1.833,3.192,2.7C162.347,217.317,158.326,220.159,157.963,219.617Z"/><path class="g" d="M151.381,215.1c.41.8,5.053,3.923,6.555,4.576.468.184,3.149-1.357,3.927-3.144a1.019,1.019,0,0,1-1.212-.456,6.02,6.02,0,0,0-1.409.4,24.746,24.746,0,0,1-.692-3.489c-.049-1.175.688-.953.828-.488.306,1.016.964,3.3,1.508,3.794.51.465,2.134.292,1.527-2.029-.687-2.665-.938-5.218-3-6.9-1.959-1.592-2.2-2.811-2.5-5.321-.967-7.993.372-18.468-1.793-25.311l-10.331.5c1.558,9.594,4.1,17.248,6.26,26.428C151.652,206.235,151.279,214.9,151.381,215.1Z"/><path class="h" d="M150.816,204.326c.705,4.265.178,10.013.565,10.773a16.845,16.845,0,0,0,3.55,2.8c-.644-3.16.556-7.336-.839-13.775-1.892-8.731-3.737-18.583-5.273-27.068l-4.235.168C146.253,187.511,149.041,194.293,150.816,204.326Z"/><path class="bb" d="M150.844,140.929c-4.815,5.625-5.265,24.293-6.06,36.3.829,5.1,1.9,9.79,3.076,14.42,2.874,1.127,7.55.316,8.613-1.789a78.589,78.589,0,0,0-1.041-13.444c1.074-6,3.055-19.1,2.968-24.922-.074-4.922-1.132-9.759-4.53-11.031A2.6,2.6,0,0,0,150.844,140.929Z"/><path class="bc" d="M149.6,141.16c-6.023,7.178-4.819,24.088-5.113,36.043.826,5.087,2.068,9.812,3.3,14.477a7.58,7.58,0,0,0,3.927.348c-1.054-5.229-2.14-10.454-3.015-15.284,2.148-11.872,1.52-25.315,6.081-35.863A3.558,3.558,0,0,0,149.6,141.16Z"/><path class="bd" d="M158.685,106.269c-1.719,5.965,1.616,12.036,1.725,17,.4,18.125,9.761,15.776,16,26.445-1.251-10.488-12.64-17.3-10.026-30.732C161.865,118.154,159.7,113.941,158.685,106.269Z"/><path class="bj" d="M163.635,120.061c-2.014,5.633-1.889,10.088-.112,13.545,2.952,5.744,9.606,9.249,12.287,14.6-2.31-6.193-7.377-10.62-10.216-16.419A24.749,24.749,0,0,1,163.635,120.061Z"/><path class="bl" d="M234.608,294.314a6.979,6.979,0,0,1,2.183,2.427Q235.783,295.5,234.608,294.314Z"/><path class="bl" d="M256.6,312.786c-.112.023-.216.04-.329.068-.36.065-.764.083-1.168.147A8.569,8.569,0,0,1,256.6,312.786Z"/><path class="bl" d="M246.362,311.465c.1.286.191.567.3.837-.029.093-.055.19-.086.284C246.527,312.237,246.446,311.856,246.362,311.465Z"/><path class="bl" d="M246.345,311.413a25.721,25.721,0,0,1-.885-3.365C245.835,309.245,246.135,310.391,246.345,311.413Z"/><path class="bl" d="M245.638,324.875c.035.347.09.7.142,1.051a8.239,8.239,0,0,0-.263-1.037C245.558,324.889,245.592,324.875,245.638,324.875Z"/><path class="bl" d="M245.638,324.875c-.046,0-.08.014-.121.014a8.506,8.506,0,0,0-.579-1.426c.158-.013.308-.043.467-.053C245.488,323.892,245.558,324.389,245.638,324.875Z"/><path class="bm" d="M246.4,334.88h-.012c0,.953-.692,2.111-.406,2.864a1.815,1.815,0,0,0,3.149.3,2.847,2.847,0,0,0-.24-1.912c-.092-1.71-.242-3.435-.386-5.131,5.9-.067,11.558,1.858,14.422,5.3a9.584,9.584,0,0,1,.854,1.242c-1.238,2.624-4.136,4.967-8.318,6.367-8.12,2.718-18.032.906-22.135-4.05a7.569,7.569,0,0,1-.86-1.254c1.234-2.615,4.124-4.941,8.317-6.355a24.08,24.08,0,0,1,5.548-1.127A31.388,31.388,0,0,1,246.4,334.88Z"/><path class="bn" d="M245.78,325.952c.245,1.722.461,3.447.556,5.174a24.08,24.08,0,0,0-5.548,1.127c-4.193,1.414-7.083,3.74-8.317,6.355-2.7-4.7.663-10.138,8.107-12.631a24,24,0,0,1,4.939-1.088,8.239,8.239,0,0,1,.263,1.037Z"/><path class="bn" d="M262.708,330.017a6.754,6.754,0,0,1,1.076,7.528,9.584,9.584,0,0,0-.854-1.242c-2.864-3.444-8.519-5.369-14.422-5.3-.179-2.113-.369-4.216-.476-6.276C254.025,324.605,259.8,326.53,262.708,330.017Z"/><path class="bo" d="M262.708,330.017c-2.91-3.487-8.683-5.412-14.676-5.292-.026-.495-.055-1-.066-1.488,7.082-.18,13.92,2.082,17.334,6.19a7.98,7.98,0,0,1,1.906,6.974c-.836,3.752-4.513,7.283-10.355,9.234-9.476,3.177-21.055,1.051-25.848-4.722a9.032,9.032,0,0,1-1.972-3.984c-.883-4.8,3.051-9.766,10.427-12.227a29.138,29.138,0,0,1,5.48-1.239,8.506,8.506,0,0,1,.579,1.426,24,24,0,0,0-4.939,1.088c-7.444,2.493-10.8,7.933-8.107,12.631a7.569,7.569,0,0,0,.86,1.254c4.1,4.956,14.015,6.768,22.135,4.05,4.182-1.4,7.08-3.743,8.318-6.367A6.754,6.754,0,0,0,262.708,330.017Z"/><path class="bp" d="M262.287,359.625c-.6,2.8-3.337,5.4-7.688,6.852-7.02,2.35-15.613.781-19.178-3.516a6.258,6.258,0,0,1-1.188-2.02l-5.2-24.012A9.032,9.032,0,0,0,231,340.913c4.793,5.773,16.372,7.9,25.848,4.722,5.842-1.951,9.519-5.482,10.355-9.234h.015Z"/><path class="bq" d="M240.788,297.829a18.772,18.772,0,0,0-1.88-2.355l.052-.054c-2.184-2.816-6.071-4.956-9-7-3.244-2.341-8.467-4.885-12.965-4.885a10.517,10.517,0,0,0-2.354.268s3.233.782,3.521.877c1.578.593,3.354.983,4.917,1.684,2.763,1.167,4.914,3.432,7.377,5.192.946.664,2.682,1.633,4.133,2.749a.013.013,0,0,0,.014.013q1.176,1.194,2.183,2.427a32.128,32.128,0,0,1,4.6,7.509c-3.118-3.676-6.255-5.615-11.132-6.207-6.281-.781-12.962-1.186-17.877-5.692-3.339-3.153-6.687-10.034-1.188-12.781,4.323-2.163,11.016-.2,15.342.786,5.1,1.368,10.215,3.147,12.574,8.249C240.456,291.459,240.635,294.73,240.788,297.829Z"/><path class="bq" d="M212.183,325.75c-3.14-3.136-1.577-8.846,1.37-11.8,4.972-4.749,18.067-5.274,22.794.639a25.6,25.6,0,0,0-4.715-.584v.055c-2.745.1-5.1,0-7.755.982-3.766,1.248-9.623,3.068-11.495,6.974,1.861-2.141,7.957-4.325,10.61-4.914,1.872-.392,3.729-.891,5.6-1.182,1.278-.174,2.552.062,3.766-.15.012.016.012,0,.021,0a16.93,16.93,0,0,1,4.879,1.181c-3.435-.265-7.411,2.01-9.946,3.694C223.378,323.393,217.3,330.864,212.183,325.75Z"/><path class="bq" d="M276.045,314.362c2.377,6.083-2.537,11.59-8.824,9.42-3.936-1.37-6.105-6.287-9.643-7.655-1.359-.392-3.758-.971-5.128-.4a14.026,14.026,0,0,1,2.57-1.174l-.018-.028a22.471,22.471,0,0,1,9.136-.359,18.031,18.031,0,0,1,5.958,1.825,11.708,11.708,0,0,1,3.533,2.7,6.674,6.674,0,0,0-1.174-1.833c-2.884-3.351-7.936-4.063-12.051-4.386a13.176,13.176,0,0,0-3.807.323,8.569,8.569,0,0,0-1.5.215h-.04a2.77,2.77,0,0,0-.476.109c-.02,0-.043.013-.063.013a13.738,13.738,0,0,0-1.439.443C257.3,305.7,272.573,305.663,276.045,314.362Z"/><path class="bq" d="M261.661,295.3c-1.578.781-4.083,2.641-5.453,3.339a20.193,20.193,0,0,0-4.015,3.393,17.689,17.689,0,0,1,1.846-2.8c.981-2.165.981-4.522,1.776-6.688,2.362-6.087,7.66-8.644,13.756-10.223,4.519-.982,9.032-1.171,13.171,1.186,4.715,2.748,8.438,6.289,3.723,11.2-2.348,2.556-6.673,3.729-9.82,4.914a96.092,96.092,0,0,1-12.184,3.727c-4.718.744-8.781-.213-12.458,2.734a21.411,21.411,0,0,1,3.887-4.134c.018-.014.047-.026.061-.053a46.69,46.69,0,0,1,4.383-3.259,64.92,64.92,0,0,1,7.169-3.743c4.724-1.765,10.417-3.635,14.644-6.571-2.465,0-4.764,1.093-7.12,1.589-2.263.394-4.077,1.494-6.246,2.29A45.109,45.109,0,0,0,261.661,295.3Z"/><path class="bq" d="M247.265,295.041a38.855,38.855,0,0,1,1.468-7.995l-.121-.043a35.874,35.874,0,0,0,1.693-13.421c-.2,2.952-1.37,6.287-2.057,9.127-.4,1.521-1.248,3.161-1.557,4.74v.026a40.237,40.237,0,0,0-1.7,8.562c-1.78-2.8-3.175-4.735-3.715-8.213-.8-5.115-.4-11.981,3.126-16.317,3.158-3.727,9.837-3.135,12.582,1.185C261.7,279.856,249,288.148,247.265,295.041Z"/><path class="bl" d="M244.938,323.463a14.3,14.3,0,0,0-7.645-6.507h-.032a16.93,16.93,0,0,0-4.879-1.181c-.009,0-.009.016-.021,0-1.214.212-2.488-.024-3.766.15-1.874.291-3.731.79-5.6,1.182-2.653.589-8.749,2.773-10.61,4.914,1.872-3.906,7.729-5.726,11.495-6.974,2.659-.982,5.01-.885,7.755-.982v-.055a25.6,25.6,0,0,1,4.715.584,13.242,13.242,0,0,1,8.591,5.732c.144,1.021.308,2.047.467,3.084C245.246,323.42,245.1,323.45,244.938,323.463Z"/><path class="bl" d="M272.455,316.849a6.674,6.674,0,0,1,1.174,1.833,11.708,11.708,0,0,0-3.533-2.7,18.031,18.031,0,0,0-5.958-1.825,22.471,22.471,0,0,0-9.136.359l.018.028a14.026,14.026,0,0,0-2.57,1.174c-.014,0-.029.012-.046.012a11.049,11.049,0,0,0-4.467,4.252c.017-.766.06-1.537.124-2.291-.014-.009,0-.021,0-.021.79-1.884,2.849-3.3,5.021-4.109a13.738,13.738,0,0,1,1.439-.443c.02,0,.043-.013.063-.013.167-.044.329-.082.476-.109h.04c.4-.064.808-.082,1.168-.147.113-.028.217-.045.329-.068a13.176,13.176,0,0,1,3.807-.323C264.519,312.786,269.571,313.5,272.455,316.849Z"/><path class="bl" d="M248.894,336.132a2.847,2.847,0,0,1,.24,1.912,1.815,1.815,0,0,1-3.149-.3c-.286-.753.406-1.911.406-2.864h.012a31.388,31.388,0,0,0-.067-3.754,21.179,21.179,0,0,1,2.172-.125C248.652,332.7,248.8,334.422,248.894,336.132Z"/><path class="bl" d="M248.032,324.725c.107,2.06.3,4.163.476,6.276a21.179,21.179,0,0,0-2.172.125c-.1-1.727-.311-3.452-.556-5.174v-.026c-.052-.352-.107-.7-.142-1.051A23.7,23.7,0,0,1,248.032,324.725Z"/><path class="bl" d="M245.4,323.41c.851-.1,1.71-.152,2.561-.173.011.491.04.993.066,1.488a23.7,23.7,0,0,0-2.394.15C245.558,324.389,245.488,323.892,245.4,323.41Z"/><path class="bl" d="M282.147,288.321c-4.227,2.936-9.92,4.806-14.644,6.571a64.92,64.92,0,0,0-7.169,3.743,46.69,46.69,0,0,0-4.383,3.259c-.014.027-.043.039-.061.053A21.411,21.411,0,0,0,252,306.081a22.462,22.462,0,0,0-3.942,11.594s-.014.012,0,.021c-.064.754-.107,1.525-.124,2.291-.026,1.067-.012,2.155.029,3.25-.851.021-1.71.078-2.561.173-.159-1.037-.323-2.063-.467-3.084-.2-1.416-.392-2.815-.534-4.2a39.85,39.85,0,0,0-3.013-11.877,32.128,32.128,0,0,0-4.6-7.509,6.979,6.979,0,0,0-2.183-2.427.013.013,0,0,1-.014-.013c-1.451-1.116-3.187-2.085-4.133-2.749-2.463-1.76-4.614-4.025-7.377-5.192-1.563-.7-3.339-1.091-4.917-1.684-.288-.1-3.521-.877-3.521-.877a10.517,10.517,0,0,1,2.354-.268c4.5,0,9.721,2.544,12.965,4.885,2.924,2.048,6.811,4.188,9,7l-.052.054a18.772,18.772,0,0,1,1.88,2.355,39.02,39.02,0,0,1,4.672,10.2v.014a25.721,25.721,0,0,0,.885,3.365c0,.028,0,.041.017.052.084.391.165.772.214,1.121.031-.094.057-.191.086-.284a35.025,35.025,0,0,1,1.454-3.9,23.487,23.487,0,0,1,4.077-6.37,20.193,20.193,0,0,1,4.015-3.393c1.37-.7,3.875-2.558,5.453-3.339a45.109,45.109,0,0,1,7.12-3.1c2.169-.8,3.983-1.9,6.246-2.29C277.383,289.414,279.682,288.321,282.147,288.321Z"/><path class="bl" d="M248.733,287.046a38.855,38.855,0,0,0-1.468,7.995,44.912,44.912,0,0,0,.851,13.357,35.025,35.025,0,0,0-1.454,3.9c-.109-.27-.2-.551-.3-.837-.017-.011-.017-.024-.017-.052-.21-1.022-.51-2.168-.885-3.365v-.014a42.3,42.3,0,0,1-.467-12,40.237,40.237,0,0,1,1.7-8.562v-.026c.309-1.579,1.159-3.219,1.557-4.74.687-2.84,1.855-6.175,2.057-9.127A35.874,35.874,0,0,1,248.612,287Z"/></g></svg>