<svg xmlns="http://www.w3.org/2000/svg" width="403.156" height="385.096" viewBox="0 0 403.156 385.096"><defs><style>.a{isolation:isolate;}.b{fill:#00d5e5;}.c{fill:#fff;}.d{fill:#4a4a4a;}.e{fill:#1a1a1a;}.f{fill:#131313;}.g{fill:#c7a495;}.h{fill:#b3b2b3;}.i{fill:#1c4b92;}.j{fill:#3666af;}.k{fill:#30302f;}.l{fill:#efc6b4;}.m{fill:#664031;}.n{fill:#a09f9f;}.o{fill:#4a2e23;}.p{fill:#d3d3d3;}.q{fill:#afafb0;}.r{fill:#181624;}.aa,.ab,.ac,.ad,.ae,.af,.ag,.ah,.cd,.ce,.cf,.cg,.ch,.ci,.cj,.ck,.cl,.cm,.r,.s,.t,.u,.v,.w,.x,.y,.z{fill-rule:evenodd;}.s{fill:#13131c;}.t{fill:#121415;}.v{fill:#0d0d11;}.w{fill:#1f1b2e;}.x{fill:#2f2c45;}.y{fill:#e7a376;}.z{fill:#da9569;}.aa{fill:#d1d6ec;}.ab{fill:#394b94;}.ac{fill:#273570;}.ad{fill:#e6ebf6;}.ae{fill:#20232e;}.af{fill:#262338;}.ag{fill:#f0b185;}.ah{fill:#341f0f;}.ai{fill:#c82127;}.aj{fill:#a7a099;}.ak{fill:#716c64;}.al{fill:#8c847e;}.am{fill:#8d1a1c;}.an{fill:#fab585;}.ao{fill:#ffeaca;}.ap{fill:#cbe5f1;}.aq{fill:#eb2027;}.ar{fill:#ffd99b;}.as{fill:#261720;}.at{fill:#fff2df;}.au{fill:#191417;}.av{fill:#151114;}.aw{fill:#fde2b7;}.ax{fill:#161811;}.ay{fill:#131011;}.az{fill:#090b08;}.ba{fill:#0a0809;}.bb{fill:#231216;}.bc{fill:#210c0d;}.bd{fill:#282125;}.be{fill:#1b0c0c;}.bf{fill:#060706;}.bg,.cm{fill:#e8f6fd;}.bh{fill:#251f23;}.bi{fill:#f8a26d;}.bj{fill:#110e11;}.bk{fill:#463540;}.bl{fill:#f79b6a;}.bm{fill:#f8a773;}.bn{fill:#1c161a;}.bo{fill:#f69458;}.bp{fill:#1a1719;}.bq{fill:#100f1e;}.br{fill:#121025;}.bs{fill:#08070c;}.bt{fill:#0f0d18;}.bu{fill:#764d2a;}.bv{fill:#5f3a16;}.bw{fill:#15123a;}.bx{fill:#13112c;}.by{fill:#2b254d;}.bz{fill:#a87c51;}.ca{fill:#2f120b;}.cb{fill:#8a5f3c;}.cc{fill:#c6c5c0;}.cd{fill:#071824;}.ce{fill:#0a151c;}.cf{fill:#071f2e;}.cg{fill:#00263d;}.ch{fill:#012b45;}.ci{fill:#4e2d13;}.cj{fill:#54321e;}.ck{fill:#25170d;}.cl{fill:#093453;}.cn{fill:#f2f2f2;}.co{fill:#dcd6d5;}.cp{fill:#221315;}.cq{fill:#3e191a;}.cr{fill:#682e32;}.cs{fill:#a65c6d;}.ct{fill:#8f3b43;}</style></defs><g transform="translate(-51.658 -77.637)"><g class="a"><path class="b" d="M211.724,197.259c22.085-12.945,58.285-13.034,80.706-.2l145.389,83.23c22.421,12.835,22.693,33.8.607,46.749L294.838,411.2c-22.086,12.945-58.286,13.034-80.706.2L68.742,328.168c-22.42-12.835-22.692-33.8-.607-46.748ZM430.99,284.293,285.6,201.062c-18.611-10.654-48.674-10.544-66.945.166L75.068,285.388c-18.333,10.746-18.108,28.124.5,38.778L220.96,407.4c18.549,10.618,48.613,10.58,66.946-.166l143.588-84.16c18.271-10.71,18.045-28.16-.5-38.778"/><path class="c" d="M218.656,201.228c18.272-10.71,48.334-10.82,66.945-.166L430.99,284.293c18.549,10.618,18.776,28.068.5,38.778l-143.588,84.16c-18.333,10.746-48.4,10.784-66.946.166L75.571,324.166c-18.61-10.654-18.836-28.032-.5-38.778Z"/><path class="c" d="M454.814,313.96c0,.549-.09,1.1-.139,1.644-.054.609-.1,1.216-.208,1.822-.088.481-.232.957-.357,1.435-.149.577-.292,1.155-.495,1.727-.164.461-.378.917-.576,1.374-.259.6-.522,1.2-.84,1.793-.229.426-.5.845-.759,1.267-.412.67-.852,1.336-1.341,1.991-.288.386-.6.768-.912,1.148a32.659,32.659,0,0,1-2.484,2.671c-.288.278-.544.564-.848.839-.548.5-1.163.973-1.762,1.455-.515.415-1,.837-1.558,1.24-.648.473-1.366.923-2.065,1.38-.679.442-1.317.9-2.044,1.324L294.838,421.231a60.963,60.963,0,0,1-7.933,3.794c-.745.3-1.506.584-2.271.862-1.737.634-3.559,1.144-5.382,1.658-1.871.527-3.762,1.02-5.7,1.421-2.217.458-4.45.879-6.732,1.173-.625.081-1.24.192-1.869.26-3.148.342-6.335.518-9.528.552-.519.005-1.038.01-1.556.007-3.17-.016-6.337-.181-9.47-.5-.474-.049-.946-.1-1.417-.159a90.782,90.782,0,0,1-9.227-1.554c-.523-.117-1.034-.255-1.552-.381a78.261,78.261,0,0,1-7.806-2.347c-.532-.191-1.092-.345-1.616-.546a62.5,62.5,0,0,1-8.643-4.041L68.742,338.2c-8.509-4.871-13.828-10.914-15.945-17.245a19.88,19.88,0,0,1-1.049-6.394l-.09,31.76c-.025,8.567,5.649,17.144,16.994,23.639l145.39,83.231a62.015,62.015,0,0,0,8.042,3.838c.193.076.4.127.6.2.528.2,1.088.356,1.625.548,1.549.553,3.084,1.126,4.7,1.586,1.012.288,2.065.507,3.1.759.521.127,1.027.264,1.553.381.434.1.851.225,1.289.316q2.793.577,5.66.984c.753.107,1.519.166,2.278.255.474.055.941.11,1.416.158.624.064,1.24.157,1.867.209q2.8.231,5.635.3c.656.016,1.312-.012,1.969-.009.521,0,1.035,0,1.556-.008.78-.008,1.56.016,2.339-.01q3.182-.109,6.334-.422c.288-.029.567-.088.854-.119.632-.068,1.243-.179,1.871-.261,1.535-.2,3.081-.367,4.589-.639.737-.133,1.411-.383,2.14-.533,1.95-.4,3.829-.892,5.707-1.421.968-.273,2.006-.429,2.952-.735.837-.272,1.611-.625,2.429-.923.768-.28,1.523-.56,2.271-.863a60.771,60.771,0,0,0,7.933-3.794l143.588-84.16c.183-.108.364-.215.544-.323.539-.325,1-.676,1.512-1.01.7-.454,1.407-.9,2.051-1.369.559-.409,1.055-.836,1.576-1.255.591-.478,1.2-.948,1.742-1.439.092-.083.205-.16.3-.244.213-.2.36-.409.566-.607a33.073,33.073,0,0,0,2.473-2.659c.152-.185.358-.358.5-.543s.262-.41.412-.612c.488-.654.924-1.315,1.335-1.982.169-.273.392-.537.548-.812.086-.153.135-.311.217-.464.317-.59.577-1.185.835-1.782.146-.337.344-.667.471-1.006.047-.125.064-.253.109-.378.2-.57.343-1.144.493-1.719.1-.375.246-.745.322-1.122.021-.106.017-.212.036-.318.112-.61.155-1.22.209-1.831.033-.379.119-.756.13-1.134.005-.167.007-.334.008-.5h0Z"/><path class="d" d="M454.814,303.96c0,.549-.09,1.1-.139,1.644-.054.609-.1,1.216-.208,1.822-.088.481-.232.957-.357,1.435-.149.577-.292,1.155-.495,1.727-.164.461-.378.917-.576,1.374-.259.6-.522,1.2-.84,1.793-.229.426-.5.845-.759,1.267-.412.67-.852,1.336-1.341,1.991-.288.386-.6.768-.912,1.148a32.659,32.659,0,0,1-2.484,2.671c-.288.278-.544.564-.848.839-.548.5-1.163.973-1.762,1.455-.515.415-1,.837-1.558,1.24-.648.473-1.366.923-2.065,1.38-.679.442-1.317.9-2.044,1.324L294.838,411.231a60.963,60.963,0,0,1-7.933,3.794c-.745.3-1.506.584-2.271.862-1.737.634-3.559,1.144-5.382,1.658-1.871.527-3.762,1.02-5.7,1.421-2.217.458-4.45.879-6.732,1.173-.625.081-1.24.192-1.869.26-3.148.342-6.335.518-9.528.552-.519.005-1.038.01-1.556.007-3.17-.016-6.337-.181-9.47-.5-.474-.049-.946-.1-1.417-.159a90.782,90.782,0,0,1-9.227-1.554c-.523-.117-1.034-.255-1.552-.381a78.261,78.261,0,0,1-7.806-2.347c-.532-.191-1.092-.345-1.616-.546a62.5,62.5,0,0,1-8.643-4.041L68.742,328.2c-8.509-4.871-13.828-10.914-15.945-17.245a19.88,19.88,0,0,1-1.049-6.394l-.09,31.76c-.025,8.567,5.649,17.144,16.994,23.639l145.39,83.231a62.015,62.015,0,0,0,8.042,3.838c.193.076.4.127.6.2.528.2,1.088.356,1.625.548,1.549.553,3.084,1.126,4.7,1.586,1.012.288,2.065.507,3.1.759.521.127,1.027.264,1.553.381.434.1.851.225,1.289.316q2.793.577,5.66.984c.753.107,1.519.166,2.278.255.474.055.941.11,1.416.158.624.064,1.24.157,1.867.209q2.8.231,5.635.3c.656.016,1.312-.012,1.969-.009.521,0,1.035,0,1.556-.008.78-.008,1.56.016,2.339-.01q3.182-.109,6.334-.422c.288-.029.567-.088.854-.119.632-.068,1.243-.179,1.871-.261,1.535-.2,3.081-.367,4.589-.639.737-.133,1.411-.383,2.14-.533,1.95-.4,3.829-.892,5.707-1.421.968-.273,2.006-.429,2.952-.735.837-.272,1.611-.625,2.429-.923.768-.28,1.523-.56,2.271-.863a60.771,60.771,0,0,0,7.933-3.794l143.588-84.16c.183-.108.364-.215.544-.323.539-.325,1-.676,1.512-1.01.7-.454,1.407-.9,2.051-1.369.559-.409,1.055-.836,1.576-1.255.591-.478,1.2-.948,1.742-1.439.092-.083.205-.16.3-.244.213-.2.36-.409.566-.607a33.073,33.073,0,0,0,2.473-2.659c.152-.185.358-.358.5-.543s.262-.41.412-.612c.488-.654.924-1.315,1.335-1.982.169-.273.392-.537.548-.812.086-.153.135-.311.217-.464.317-.59.577-1.185.835-1.782.146-.337.344-.667.471-1.006.047-.125.064-.253.109-.378.2-.57.343-1.144.493-1.719.1-.375.246-.745.322-1.122.021-.106.017-.212.036-.318.112-.61.155-1.22.209-1.831.033-.379.119-.756.13-1.134.005-.167.007-.334.008-.5h0Z"/></g><path class="e" d="M314.222,126.122c-5.273-1.246-10.738,9.577-10.738,9.577s-13.732,13.941-15.075,14.978c-5.49,4.256-4.6,14.275-4.6,14.275s.312,5.743,5.228,5.743c3.548,0,5.27-5.264,5.27-5.264s.752-5.052,1.083-6.984c6.084-4.426,12.411-9.316,12.411-9.316l6.424-14.936S315.563,126.506,314.222,126.122Z"/><path d="M294.951,157.663a8.11,8.11,0,0,0-4.793-4.528C292.819,155.531,294.951,157.663,294.951,157.663Z"/><path d="M312.688,245.006s-10.643,6.041-11.6,7.479-.576,5.369-.385,6.232c3.166,1.917,5.864.837,8.261-.121a63.05,63.05,0,0,0,6.984-3.856s6.112.358,8.821-2.157c.886-3.741,0-9.108,0-9.108Z"/><path class="f" d="M328.028,188.152l-2.022,30.163s.44,2.147,1.447,7.9-1.439,20.793-1.439,20.793-4.6,4.708-14.956-1.043c0-1.006,3.069-20.563.767-28.329-.812-2.563-5.56-13.566-5.226-28.333C307.751,186.857,328.028,188.152,328.028,188.152Z"/><path d="M338.765,262.553c-1.341,9.108-6.069,13.021-4.121,16.584.64,1.229,4.561,2.933,7.245,2.265s4.548-2.935,6.081-5.907a17.332,17.332,0,0,0,2.109-9.012,20.787,20.787,0,0,0-.671-5.178S341.163,262.266,338.765,262.553Z"/><path class="e" d="M341.26,195.2s4.744,21.283,5.608,28.616c.74,3.491,3.553,8.2,4.272,12.083s.321,28.044.321,28.044-2.725,3.451-10.921,3.317a56.213,56.213,0,0,1-4.746-3.747s1.13-20.282-.863-26.178c-4.725-7.046-14.238-36.67-14.238-36.67s-11.361-5.9-14.094-13.225c.1-.816.863-5.46.863-5.46Z"/><path class="g" d="M334.552,126.105a9.824,9.824,0,0,0,1.35,3.8c.384.431-9.456,8.342-9.456,8.342h-3.835L317.77,131.3l13.039-10.5Z"/><path class="c" d="M316.619,128.615l4.937,5.224,1.256,3.638h0l1.495-2.63c6.6-1.057,11.007-6.812,11.007-6.812l1.315,2.867a.064.064,0,0,1,.013-.01l2.249,2.587-7.124,13.064L318.44,160.158l-6.247-2.716-1.135-15.883Z"/><path class="h" d="M324.307,134.847l1.372,4.121-1.03-1.516-1.837.025Z"/><path class="h" d="M336.629,130.9s-.832,5.2-10.95,8.066C334.033,136.236,336.629,130.9,336.629,130.9Z"/><path class="i" d="M323.732,135.786l.858-.087.434,1.3-2.622.352Z"/><path class="j" d="M312.68,157.7c1.965-8.071,6.664-17.667,7.861-20.044l-.188-2.892,3.971.969-2.192,2.479a168.115,168.115,0,0,0-3.692,21.562C317.978,159.625,312.254,157.563,312.68,157.7Z"/><path class="k" d="M321.283,126.6c-8.931,11.073-4.9,31.349-4.9,31.349s-1.391,28-1.871,29.2a103.56,103.56,0,0,0-2.535,13.519s-5.315-1.815-6.765-5.417c-.656-1.631.816-14.334,1.151-20.422s-1.055-21.764-.479-27.516a64.376,64.376,0,0,1,2.474-11.612s2.416-6.891,5.219-9.24C316.667,125.737,320.864,124.876,321.283,126.6Z"/><path class="k" d="M348.409,141.644c-4.946-4.3-5.808-4.878-10.888-9.769-2.11,9.875-17.027,16.685-22.377,25.316-.123,2.969-1.735,24.348-1.328,29.813,1.173,7.572,3.282,16.872,3.282,16.872s12.655,6.041,20.613,2.109a10.859,10.859,0,0,0,5.657-6.424l-3.836-22.527S348.08,143.644,348.409,141.644Z"/><path d="M322.132,170.128s-2.375-2.281.816-6.281,6.326-1.868,6.326-1.868,2.965,4.383-.479,8.053A4.339,4.339,0,0,1,322.132,170.128Z"/><path class="l" d="M326.949,160.759s-2.732-2.878-4.817-3.526-10.714.288-10.714.288-11.29,6.326-10.715,7.406,8.629-3.689,8.629-3.689-2.668,1.314-2.846,2.956c-.317,2.963,4.811,4.543,4.811,4.543s2.755.648,3.847-.143a2.822,2.822,0,0,0,1.163-1.942s3.788-.933,4.482-1.725l.672,1.7,5.488-2.782Z"/><path class="c" d="M329.97,163.2s-3.845-3.518-4.3-3.663c.648,1.725-1.766,6.42-5.534,5.832l4.224,5.093,5.61-.431Z"/><path class="e" d="M337.807,146.351c1.63-3.836,7-8.916,11.938-3.5,3.69,4.65-1.1,15.581-1.1,15.581s-2.2,20.517-5.657,22.05-7.478,2.017-9.875.863c-1.865-.9-10.977-11.217-10.977-11.217,5.655,2.015,8.677-6.136,7.142-8.149.5.462,4.938,4.6,4.938,4.6C335.123,166.582,336.622,149.139,337.807,146.351Z"/><path d="M342.793,175.69c-.863.477-7.862-8.533-7.862-8.533S343.656,175.21,342.793,175.69Z"/><path class="l" d="M312.784,115.6s-.863,5.681-.5,6.616a1.962,1.962,0,0,0,1.293,1.148v3.1s2.158,7.406,2.95,8.341,3.092,1.581,4.673,1.436,6.687-4.746,7.981-5.9,1.727-4.026,1.727-4.026l2.66-1.512v-5.749l-4.459-6.69-10.354-3.451Z"/><path class="m" d="M330.9,126.314s2.108-1.727,2.108-2.878-3.043-.67-3.043-.67-2.135,2.3-3.188,2.3-1.4-3.453-1.4-3.453a2.5,2.5,0,0,1-2.722-.575,2.858,2.858,0,0,1-.526-2.684s-5.107,1.151-6.988.576c-5.14-3.166-2.484-8.653-2.484-8.653s6.547-8.8,13.546-3.908c11.026.865,10.431,13.615,10.431,13.615s-.268,7-2.569,7.862A2.43,2.43,0,0,1,330.9,126.314Z"/><path class="n" d="M306.544,166.55a7.706,7.706,0,0,0-.59-3.146,2.179,2.179,0,0,0-.911-.682,2.654,2.654,0,0,0-1.559,0c-.606.2-1.1,1.8-1.1,1.8l3.979,2.349Z"/><path class="m" d="M316.818,191.767l-.934.86-9.327-24.68L282.017,154l.935-.863,24.54,13.949Z"/><path class="o" d="M315.884,192.627,291.346,178.68,282.017,154l24.54,13.95Z"/><path class="p" d="M306.553,166.55s-.016-6.512-3.547-2.015c-2.772,3.966,8.062,23.274,8.062,23.274l-20.134-12.1s-13.087-19.517-10.523-23.89a3.231,3.231,0,0,1,4.1-1.438S304.762,162.3,305.7,163,306.553,166.55,306.553,166.55Z"/><path class="q" d="M301.217,167.372l.18,1.295-19.045-10.854-.667-1.615Z"/><path class="q" d="M302.211,170.948l.587,1.531-19.452-11.091-.667-1.614Z"/><path class="q" d="M307.028,181.658l.948,1.821L291.2,173.826l-1.094-1.925Z"/><path class="l" d="M288.715,170.194a3.837,3.837,0,0,0-2.161-1.527l-1.214-2.124s-1.261,3.01-.734,4.784,3.692,4.363,4.171,4.889c.863.528,1.725-.345,2.157-.509S289.649,171.489,288.715,170.194Z"/><path class="r" d="M244.785,132.258a153.748,153.748,0,0,0,11.506-17.113c2.6-5.254,1.932-11.035.038-13.007s-6.6-.307-10.856,4.169c-2.881,3.03-5.521,7.675-7.721,11.454-1.557,2.676-6.475,9.652-7.34,14.75a7.005,7.005,0,0,0,1.348,5.607C235.489,142.5,242.5,135.087,244.785,132.258Z"/><path class="s" d="M244.785,132.258a153.748,153.748,0,0,0,11.506-17.113c2.6-5.254,1.932-11.035.038-13.007-1.022-1.066-2.854-1.074-4.99-.158-2.423,2.3-4.77,3.421-6.723,7.422-2.488,5.1-3.761,11.186-6.078,16.4a24.236,24.236,0,0,1-4.292,6.488l-3.642,3.646a5.933,5.933,0,0,0,1.156,2.182C235.489,142.5,242.5,135.087,244.785,132.258Z"/><path class="t" d="M276.907,255.708a13.083,13.083,0,0,1,1.08,4.168c-.057,1.129-.365,2.227-.351,3.655.012,1.225.075,2.266.217,3.653.145,1.418,0,2.089-.625,2.655a21.817,21.817,0,0,1-5.45,2.828,5.739,5.739,0,0,1-2.5.336,11.135,11.135,0,0,1-3.349-.61c-.308-.116-.623-1.312-.645-2.349-.047-2.17.15-1.987,1.048-5.428.307-1.176.555-2.3.977-3.67a19.491,19.491,0,0,0,1.247-4.9l6.358-.248Z"/><path class="u" d="M276.907,255.708a13.083,13.083,0,0,1,1.08,4.168c-.057,1.129-.365,2.227-.351,3.655.012,1.225.075,2.266.217,3.653.145,1.418,0,2.089-.625,2.655a21.817,21.817,0,0,1-5.45,2.828,5.739,5.739,0,0,1-2.5.336,11.135,11.135,0,0,1-3.349-.61c-.278-.105-.563-1.1-.632-2.051l.017,0a7.17,7.17,0,0,0,5.7.016c3.941-1.925,3.427-3.523,3.057-8.066-2.564-.451-3.571-.909-4.872-2.312,2.186.642,4.535.757,5.7-.578l.361-3.615Z"/><path class="t" d="M250.1,241.483c-.683,2.4-.855,3.639-1.851,5.035-1.989,2.785-4.92,4.775-9.187,7.8-2.03,1.439-2.459,2.8-.4,4.058,1.62.988,5.58.2,8.055-.379,4.641-1.092,6.518-3.885,8.106-4.612l1.2.272c.984.018,4.852-1.543,5.607-2.554a27.562,27.562,0,0,0,.605-3.6c.144-3.929-.472-3.529-1.524-6.6C257.139,241.161,253.678,241.361,250.1,241.483Z"/><path class="u" d="M237.313,256.578c-.02.62.4,1.221,1.345,1.8,1.62.989,5.58.2,8.055-.379,4.641-1.092,6.518-3.885,8.106-4.612l1.2.272c.984.018,4.853-1.543,5.607-2.554a27.562,27.562,0,0,0,.605-3.6c.144-3.929-.473-3.529-1.524-6.6-1.58.115-3.139.218-4.7.308-.282,2.586.1,7.048-2.034,8.708-2.38,1.857-4.237,2.351-5.828,3.318C243.086,256.317,239.738,258.82,237.313,256.578Z"/><path class="s" d="M243.535,165.6c-.772,9.112,2.377,27.633,3.8,38.654,1.742,13.5,1.129,26.927,1.941,40.459,1.679,2.756,9.782,2.925,12.551-.95.414-10.705,1.084-19.157.78-25.014-.252-4.876-.484-7.685-2.06-12.018,1.351-9.273,3.3-26.99,2.889-37.334l-8.67-3.467-4.623-3.8Z"/><path class="v" d="M243.535,165.6a54.055,54.055,0,0,0,.218,9.387,24.575,24.575,0,0,0,9.452,9.645c.681,6.39.634,15.608.743,22.058,2.657,12.558,3.33,21.419,1.633,40.01,2.446-.182,4.938-1.109,6.244-2.937.414-10.705,1.084-19.157.78-25.014-.252-4.876-.484-7.685-2.06-12.018,1.351-9.273,3.3-26.99,2.889-37.334l-8.67-3.467-4.623-3.8Z"/><path class="r" d="M259.1,170.461c-.517,9.131,3.061,32.24,4.79,43.217,2.117,13.45,2.448,29.22,3.637,42.725,1.839,2.874,8.762,3.466,11.413-.11.115-10.712,1.087-22.706.621-28.552a36.947,36.947,0,0,0-2.9-12.107c.272-8.514,4.8-42.441-1.484-48.168l-9.575-.656Z"/><path class="s" d="M259.1,170.462a89.039,89.039,0,0,0,1.04,14.992,27.043,27.043,0,0,0,10.729,2.094c.144,6.349.615,19.78,1.218,26.925a23.572,23.572,0,0,1-.586,5.313c2.263,10.692,2.312,29.706,2.322,38.962a6.817,6.817,0,0,0,5.117-2.455c.115-10.712,1.087-22.706.621-28.552a36.922,36.922,0,0,0-2.9-12.107c.272-8.514,4.8-42.441-1.484-48.168l-9.575-.655Z"/><path class="w" d="M276.53,112.687c-3.966-2.2-17.643-10.89-21.645-10.3-10.741,1.59-12.127,11.371-11.764,26.089.121,4.888.9,9.185.956,15.258.072,7.279-1.334,19.76-.98,27.46,2.028,4.419,1.967,4.04,5.367,6.853a122.828,122.828,0,0,1-.413-14.862c.821,5.293,1.368,10.561,2.56,15.771,5.906,4.139,22.984,6.4,28.4-.331,0-13.413-4.549-13.569-5.137-22.134-.476-6.954,9.517-25.53,9.425-35.141C283.262,117.086,279.671,114.429,276.53,112.687Z"/><path class="r" d="M276.53,112.687l-8.558-4.746c1.238,1.987,4.47,4.434,8.059,7.45-1.249.467-7.9,6.2-8.225,11.241-.26.385,8.723-8.98,8.457-8.543-4.365,7.184-9.37,20.527-10.077,30.265-1.356,18.665,3.563,22.071,3.613,34.96,3.716-.593,7.113-2.074,9.215-4.687,0-13.413-4.549-13.569-5.137-22.134-.476-6.954,9.517-25.53,9.425-35.141C283.262,117.086,279.671,114.429,276.53,112.687Z"/><path class="x" d="M254.047,106.278c-3.129,1.46-3.458,1.957-5.632,5.315l1.9,1.569-2.394.784c-.952,9.7-.319,22.909.227,32.738,1.15-9.737,1.042-23.88,4.284-32.5a24.018,24.018,0,0,1,3.077-5.409C255.842,108.281,254.634,106,254.047,106.278Z"/><path class="y" d="M268.35,107.441c.3,3.48-9.235,8.039-12.866,6.257-.383-.188-.583-.993-.819-1.317a6.215,6.215,0,0,0,.357-2.327,10,10,0,0,0-.8-2.711c-.433-1.178-.448-3.669-1.2-6.427l10.869-4.737,2.327-1.234C265.1,100.371,266.333,102.893,268.35,107.441Z"/><path class="z" d="M268.35,107.441a1.6,1.6,0,0,1-.047.585c-5.152-3.243-8.36-.526-14.4-2.141a39.873,39.873,0,0,0-.879-4.969l10.869-4.737,2.327-1.234C265.1,100.37,266.333,102.893,268.35,107.441Z"/><path class="aa" d="M266.7,109.033c.891,14.344-14.44,13.434-18.454,34.844.886-11.876.309-20.813,5.119-32.037l1.115,1.569,3.22.578Z"/><path class="ab" d="M257.415,114.9c-.52,2.173-.6,2.165-2.583,3.662.244,1.1.4,2.058.561,3.189-3.967,9.354-4.78,11.653-7.086,22.376.092-1.739-.235-.431-.148-1.909A161.6,161.6,0,0,1,251.34,118.4a6.906,6.906,0,0,1,2.042-.738c-.542-2.4-.239-3.944.252-4.235A3.994,3.994,0,0,1,257.415,114.9Z"/><path class="ac" d="M257.415,114.9c-.52,2.173-.6,2.165-2.583,3.662.244,1.1.4,2.058.561,3.189-3.967,9.354-4.78,11.653-7.086,22.376.092-1.739-.235-.431-.148-1.909l.022-.359a86.278,86.278,0,0,1,5.862-20.5,18.346,18.346,0,0,0,.039-3.273,5.863,5.863,0,0,0,2.583-3.883l-.073-.058.073.116.008-.051A7.757,7.757,0,0,1,257.415,114.9Z"/><path class="ad" d="M255.489,113.56c-.419-1.053-.123-3.089-.558-4.086-1.237.157-2.551,3.107-3.6,5.315A5.676,5.676,0,0,1,255.489,113.56Z"/><path class="x" d="M267.711,106.391c1.445,1.338,2.629,1.946,3.027,2.913,1.227,2.982-2.4,8.2-3.875,13.365l-2.837-.783.952,2.857c-10.987,8.378-15.685,12.443-17.39,24.419C249.532,119.627,268.568,119.177,267.711,106.391Z"/><path class="ae" d="M268.226,260.329c1.84,1.451,1.2,2.085,3.881,2.436A15.081,15.081,0,0,1,270.015,268c-.109,1.011-.19,2.339-2.161,2.352-3.679.024-1.126-3.014-1.114-3.128A30.434,30.434,0,0,1,268.226,260.329Z"/><path class="w" d="M261.982,187.59c2.251.894,5.068,1.017,7.237,1.238.839,12.269.953,20.511,1.157,31.76l2.745,37.21a18.258,18.258,0,0,1-4.89-1.4c-.837-12.487-.975-25.565-2.193-38.239C265.025,207.622,263.146,197.594,261.982,187.59Z"/><path class="ae" d="M248.974,245.894c.506.748,1.5,1.169,3.148,1.579-2.655,2.993-3.029,2.713-6.6,4.717-1.8,2.053-2.047,2.442-3.193,3.1-1.369.79-3.3,1.6-4.115,1.019-.35-.251.121-.954,1.628-2.047,1.711-1.24,3.451-2.495,5.026-3.8A18.532,18.532,0,0,0,248.974,245.894Z"/><path class="ad" d="M267.54,105.5c.248,4-7.867,7.061-12.1,8.069,1.063,1.283,2.449,2.888,2.394,4.17,3.055-.836,8.827-2.825,10.925-6.731A3.956,3.956,0,0,0,267.54,105.5Z"/><path class="r" d="M244.591,179.5a53.987,53.987,0,0,0,6.027,5.367c.574,9.623,1.165,23.293,2.229,32.875l-.236,28.28a5.409,5.409,0,0,1-3.107-1.61l-.454-33.131C247.656,202.079,246.247,188.662,244.591,179.5Z"/><path class="af" d="M264.5,127.952c-2.216,10.044-4.123,16.777-4.466,22.958-.489,8.824.445,16.606,2.731,31.125l-9.825-2.4c-1.342-8.823-4.322-18.721-3.643-28.4C249.966,141.7,254.207,132.341,264.5,127.952Z"/><path class="w" d="M263.924,161.816a39.586,39.586,0,0,0-9.008-3.35l1.531,10.712a14.248,14.248,0,0,0,8.659,3.209Z"/><path class="r" d="M263.924,161.816a39.586,39.586,0,0,0-9.008-3.35c.48,3.205.231,3.069,3.441,4.634,5.734,2.8,3.956,2.672,5.852,9.24.083.289.6.042.9.047Z"/><path class="af" d="M251.417,107.988c-5.706,6.69-5.135,16.217-5.039,26.6.138,15.014.234,27.033,1.117,41.812a13.284,13.284,0,0,1-3.984-5.511c.526-12.51,1.55-26.418.635-38.776-.779-10.525-.985-20.924,5.135-26.939A11.018,11.018,0,0,0,251.417,107.988Z"/><path class="w" d="M263.635,160.411c-4.23-1.94-6.112-3.073-9.252-4.427l.752,4.325c1.064,1.014,6.682,4.084,9.186,3.978Z"/><path class="r" d="M263.635,160.411c-4.23-1.94-6.112-3.073-9.252-4.427,3.043,2.436,8.206,4.335,9.056,8.237a4.391,4.391,0,0,0,.882.066Z"/><path class="w" d="M246.42,155.358a8.351,8.351,0,0,0-2.975-2.617l.123,11.063c.67,1.025,2.675,2.15,3.243,2.029Z"/><path class="r" d="M246.42,155.358a8.351,8.351,0,0,0-2.975-2.617c.159,3.165.076,3.05,1.136,4.354,1.9,2.33,1.251,2.34,1.877,8.753a1.081,1.081,0,0,0,.353-.015Z"/><path class="af" d="M243.683,156.495l1.745,2.687.414,6.149a4.815,4.815,0,0,1-1.995-1.71Z"/><path class="af" d="M255.636,162.278l5.285,3.117,2.064,6.152a22.087,22.087,0,0,1-5.883-2.188Z"/><path class="af" d="M254.831,156.705c2.462,1.808,5.918,4.337,7.349,6.791a25.563,25.563,0,0,1-6.481-3.2A19.8,19.8,0,0,1,254.831,156.705Z"/><path class="w" d="M246.647,152.78c-1.473-.884-2.1-1.552-3.2-2.122l-.11,4.217c.321.758,2.231,2.435,3.22,1.679Z"/><path class="r" d="M246.647,152.78c-1.473-.884-2.1-1.552-3.2-2.122.962,1.7,2.8,2.3,2.771,6.058a.907.907,0,0,0,.339-.162Z"/><path class="af" d="M243.551,151.278a12.672,12.672,0,0,1,2.239,5.025,3.8,3.8,0,0,1-2.236-1.587C243.487,153.566,243.526,152.514,243.551,151.278Z"/><path class="w" d="M255.579,152.142c-7.969-5.9-7.8-8.137-13.1-19.267a6.053,6.053,0,0,1,4.724-3.121c2.214,2.859,9.1,8.59,13.82,14.384,2.266,2.782,3.067,7.169,1.553,8.319a6.465,6.465,0,0,1-3.885,1.117A6.188,6.188,0,0,1,255.579,152.142Z"/><path class="r" d="M255.579,152.142c-7.969-5.9-7.8-8.137-13.1-19.267a6.5,6.5,0,0,1,2.553-2.488c4.3,5.365,6.569,13.173,11.774,17.293,2.744,2.171,2.39,1.5,4.778-1q.321-.336.637-.678c1.3,2.575,1.56,5.541.355,6.456a6.465,6.465,0,0,1-3.885,1.117A6.188,6.188,0,0,1,255.579,152.142Z"/><path class="ag" d="M256.82,132.527a33.359,33.359,0,0,1,3.957.361,4.688,4.688,0,0,1,2.76,1.843l-3.315,8.454c-1.883-2.2-4.027-4.376-6.051-6.361l.087-1.291Z"/><path class="w" d="M257.259,132.411a5.382,5.382,0,0,0-2.235,5.441c-6.829,1.04-18.563,2.365-22.5,1.339-1.754-.457-2.434-2.645-2.28-5.47.113-2.079,3.437-4.218,8.114-4.265C242.66,129.412,253.291,131.658,257.259,132.411Z"/><path class="r" d="M255.347,134.758a5.26,5.26,0,0,0-.323,3.094c-6.829,1.04-18.563,2.365-22.5,1.339-1.754-.457-2.434-2.645-2.28-5.47a1.583,1.583,0,0,1,.246-.751C232.476,137.684,248.793,133.232,255.347,134.758Z"/><path class="w" d="M282.916,125.214c-1.952,6.4-9.421,16.844-14.87,23.214a17.819,17.819,0,0,1-5.726,4.242c-1.526.732-2.868,1.305-4.3.754-3.126-1.206-1.823-6.218-.313-9.3,1.789-3.65,5.3-7.408,8.52-15.252,3.444-8.4,9.885-12.718,13.834-11.809C282.615,117.652,284.273,120.766,282.916,125.214Z"/><path class="r" d="M282.916,125.214c-1.952,6.4-9.421,16.844-14.87,23.214a17.826,17.826,0,0,1-5.725,4.242c-1.527.732-2.869,1.305-4.3.754-2.146-.828-2.205-3.449-1.542-6.008q.159.134.321.264c2.744,2.171,2.39,1.5,4.778-1A93.274,93.274,0,0,0,280.1,117.073C282.629,117.679,284.267,120.785,282.916,125.214Z"/><path class="y" d="M246.92,129.792c-1.656-2.444-3.128-3.994-4.381-3.817-1.306.185-3.228,1.8-4.248,3.481h.065a48.513,48.513,0,0,1,7.053.753A6.442,6.442,0,0,1,246.92,129.792Z"/><path class="ag" d="M255.424,106.3c1.414-.567,4.649-1.155,5.932-1.746,2.807-1.292,3.019-4.164,4.457-7.6,2.617-1.164,3.648-2.3,4.151-3.724,1.2-3.374-.019-7.522-2.254-10.11a9.408,9.408,0,0,0-7.651-3.264c-6.087.085-9.388,4-10.726,8.979a3.451,3.451,0,0,0-.092,1.285c.108,1.078.452,1.617.537,2.352.153,1.313-.364,1.47-.637,2.2-.346.927.035,2.849-.054,4.625a16.115,16.115,0,0,0,.133,2.128c.182,1.781.717,3.826,1.3,4.2a12.331,12.331,0,0,0,1.847.789C252.992,106.68,253.622,106.785,255.424,106.3Z"/><path class="y" d="M255.424,106.3c1.414-.567,4.649-1.155,5.932-1.746,2.807-1.292,3.019-4.164,4.457-7.6,2.617-1.164,3.648-2.3,4.151-3.724,1.2-3.374-.019-7.522-2.254-10.11a9.408,9.408,0,0,0-7.651-3.264c-5.288.074-8.473,3.04-10.095,7.08.132.342,2.853,2.016,5.664,2.61,1.576.332,3.233-.589,5.031-1.009.133,1.5-1.71,5.272-1.82,6.284-.026.245.606,1.436-.13,2.353-.2.25-.711.515-.67.98.424,4.864-2.979,7.194-4.6,8.488A7.748,7.748,0,0,0,255.424,106.3Z"/><path class="ah" d="M254.543,87.7c1.514-.562,6.348-2.716,8.814-3.764,2.523-1.071,5.273-2.2,7.054-.468,1.449,2.332,1.455,6.347.847,8.446a13.309,13.309,0,0,1-5.9,7.579c-1.232.81-1.634-2.332-1.851-3.278a33.863,33.863,0,0,0-.239-3.533c.094-.842-.7-.948-.57-1.744.332-2.018.943-3.134.582-4.475C262.157,84.879,257.925,88.092,254.543,87.7Z"/><path class="ah" d="M270.529,83.674c.057-2.208-1.743-5.139-4.381-5.475a4.993,4.993,0,0,1,1.065.568,15.5,15.5,0,0,0-7.126-1.047c-3.534.4-5.26,1.881-8.225,3.493a10.516,10.516,0,0,1-2.717.909c-1.046,5.148,6.2,6.666,11.263,6.013a25.175,25.175,0,0,0,4.524-.74,10.65,10.65,0,0,1-2.15,1.1C266.279,87.921,269.737,85.561,270.529,83.674Z"/><path class="y" d="M265.679,93.777c2.4-.547,2.136,2.132,1.607,3.718-.364,1.09-1.276.911-1.7,1.756a2.235,2.235,0,0,1-1.745,1.328,17.683,17.683,0,0,1-.36-3.909A2.978,2.978,0,0,1,265.679,93.777Z"/><path class="ai" d="M289.577,165.057a6.243,6.243,0,0,1-.636.842c.951,1.478,1.906,2.916,2.834,4.315a4.1,4.1,0,0,1,.838-1.193c-.938-1.395-1.883-2.82-2.841-4.295C289.7,164.836,289.642,164.953,289.577,165.057Z"/><path class="aj" d="M296.775,175.249c-1.329-2.023-2.727-4.082-4.162-6.228a4.1,4.1,0,0,0-.838,1.193c1.511,2.26,2.984,4.432,4.378,6.535C296.085,176.2,296.747,175.782,296.775,175.249Z"/><path class="ak" d="M296.775,175.249c-.028.533-.69.954-.622,1.5.21.321.429.646.632.96.182-.414.474-.848.646-1.255.086.062.175.12.257.18C297.386,176.172,297.084,175.714,296.775,175.249Z"/><path class="ai" d="M297.431,176.454c-.172.407-.464.841-.646,1.255.869,1.321,1.71,2.627,2.5,3.917.271-.39.546-.8.834-1.17v-.006q-1.044-1.711-2.19-3.45c-.083-.119-.158-.246-.241-.366C297.606,176.574,297.517,176.516,297.431,176.454Z"/><path class="ak" d="M298.622,176.856c.347-.127.625-.347.581-.617l.031-.067a10.164,10.164,0,0,0-2.466-1.037.6.6,0,0,1,.007.114c.309.465.611.923.913,1.385.083.12.158.247.241.366A2.314,2.314,0,0,0,298.622,176.856Z"/><path class="al" d="M299.361,176.239a62.281,62.281,0,0,0-4.3-6.284c-.292-.14-1.03-.613-1.628-.876a1.259,1.259,0,0,0-.731-.151s-.034.036-.092.093c1.435,2.146,2.833,4.205,4.162,6.228a.6.6,0,0,0-.007-.114,10.164,10.164,0,0,1,2.466,1.037A.782.782,0,0,0,299.361,176.239Z"/><path class="am" d="M297.929,177q1.143,1.743,2.19,3.45h.008c.12-.162.237-.317.367-.473-.68-1.016-1.291-2.083-1.872-3.121A2.314,2.314,0,0,1,297.929,177Z"/><path class="am" d="M300.127,180.45c.346.185.717.379,1.109.578-.258-.336-.505-.692-.742-1.051C300.364,180.133,300.247,180.288,300.127,180.45Z"/><path class="am" d="M309.3,175.185c-1.865.19-4.571-.914-4.622-2.452-5.656-2.983-11.824-6.269-14.863-8.074a.213.213,0,0,0-.042.067c.958,1.475,1.9,2.9,2.841,4.295.058-.057.092-.093.092-.093a1.259,1.259,0,0,1,.731.151c-.391-.436-.7-.877-1.057-1.316l.055-.046c6.377,2.871,13.28,9.23,20.588,9.45C311.947,176.593,310.683,175.92,309.3,175.185Z"/><path class="an" d="M304.677,172.733c.051,1.538,2.757,2.642,4.622,2.452,1.384.735,2.648,1.408,3.723,1.982.1,0,.192.011.292.011a2.971,2.971,0,0,0,.3-.978c0-.212,0-.393,0-.56,0-.048,0-.093-.007-.141a.074.074,0,0,0,.017,0,2.516,2.516,0,0,0-.958-2.23,9.15,9.15,0,0,1-7.332-1.908A1.873,1.873,0,0,0,304.677,172.733Z"/><path class="ao" d="M314.945,177.075a10.634,10.634,0,0,1-1.631.1.864.864,0,0,1-.059.112c-.072-.038-.151-.084-.233-.123-7.308-.22-14.211-6.579-20.588-9.45l-.055.046c.357.439.666.88,1.057,1.316.6.263,1.336.736,1.628.876a62.281,62.281,0,0,1,4.3,6.284.782.782,0,0,1-.127-.067l-.031.067c.044.27-.234.49-.581.617.581,1.038,1.192,2.1,1.872,3.121.237.359.484.715.742,1.051,3.214,1.643,7.63,3.79,12.074,5.991a.047.047,0,0,1,.041.021c.9.371,1.776.786,2.645,1.21,3.712-2.788,3.908-9.868-.982-11.185A.37.37,0,0,1,314.945,177.075Z"/><path class="ap" d="M314.962,176.2a4.828,4.828,0,0,0-1.336-.7c0,.045-.01.09-.01.138a1.908,1.908,0,0,1,0,.56,2.971,2.971,0,0,1-.3.978,10.634,10.634,0,0,0,1.631-.1s0-.019,0-.027A2.5,2.5,0,0,0,314.962,176.2Z"/><path class="aq" d="M315.917,188.317c-.855-.433-1.707-.848-2.566-1.277a.047.047,0,0,0-.041-.021c-4.444-2.2-8.86-4.348-12.074-5.991-.392-.2-.763-.393-1.109-.578h-.008v.006c-.288.375-.563.78-.834,1.17a1.586,1.586,0,0,1,.086.139c3.53,1.861,9.214,4.624,14.764,7.413A5.52,5.52,0,0,0,315.917,188.317Z"/><path class="ar" d="M316,188.25c-.869-.424-1.741-.839-2.645-1.21.859.429,1.711.844,2.566,1.277C315.938,188.3,315.965,188.274,316,188.25Z"/><path class="as" d="M314.948,177.048c0,.008,0,.022,0,.027a.37.37,0,0,0,.069-.01A.179.179,0,0,0,314.948,177.048Z"/><path class="as" d="M314.691,175.3a2.714,2.714,0,0,1,.271.9,2.5,2.5,0,0,1-.014.848.179.179,0,0,1,.066.017,10.525,10.525,0,0,0,2.143-.479v0A11.224,11.224,0,0,0,314.691,175.3Z"/><path class="at" d="M317.157,176.586a20.881,20.881,0,0,1,2.067.814c-.357-.424-.68-.836-.993-1.209A11.223,11.223,0,0,1,317.157,176.586Z"/><path class="au" d="M327.961,182.773a53.434,53.434,0,0,0-8.737-5.373c1.611,1.985,3.565,4.4,5.667,6.613,2.293.733,4.783,1.737,7.033,2.273,2.07-5.158,4.128-10.158,3.849-16.048a74.345,74.345,0,0,1-4.65,8.7c-.02.022-.034.046-.054.068a38.757,38.757,0,0,1-2.981,3.587Z"/><path class="am" d="M328.524,194.48a10.392,10.392,0,0,1-2.04-.617c1.264.73,2.328,1.388,3.115,1.96C329.238,195.388,328.888,194.942,328.524,194.48Z"/><path class="av" d="M332,194.635a10.926,10.926,0,0,1-3.475-.155c.364.462.714.908,1.075,1.343l.044.024c-.264.455-.553.91-.851,1.356a134.84,134.84,0,0,0-13.624-7.505c3.775,3.446,12.065,11.109,14.578,9.24l.007-.011c3.294-1.6,8.7-8.7,10.142-12.56.274-6.53.751-13.2,1.428-18.686h0a25.162,25.162,0,0,1,.813-6.607c-2.62,2.156-4.6,5.647-6.367,9.164.279,5.89-1.779,10.89-3.849,16.048-2.25-.536-4.74-1.54-7.033-2.273,2.568,2.73,5.35,5.165,7.922,6.16l.192.2c-.532.066-1.075.153-1.617.243l.021.1c.371.592,1.256,1.1,1.706,1.77a9.142,9.142,0,0,1-2.531.568l.018.1C331.117,193.594,331.556,194.183,332,194.635Z"/><path class="aq" d="M329.6,195.823c-.787-.572-1.851-1.23-3.115-1.96-.017-.013-.031-.02-.041-.027a7.388,7.388,0,0,1-1.429-.8c-.01,0-.024-.017-.027-.017-2.6-1.432-5.777-3.065-9.07-4.7a5.52,5.52,0,0,1-1.782.861c.343.173.683.352,1.03.52h0a134.84,134.84,0,0,1,13.624,7.505c.3-.446.587-.9.851-1.356Z"/><path class="ar" d="M326.312,192.859a26.93,26.93,0,0,1-6.484-2.816s-.013-.007-.02-.007c-1.285-.539-2.548-1.171-3.812-1.786-.031.024-.058.048-.079.067,3.293,1.637,6.473,3.27,9.07,4.7,0,0,.017.013.027.017.5.273.979.543,1.429.8.01.007.024.014.041.027a10.392,10.392,0,0,0,2.04.617,10.926,10.926,0,0,0,3.475.155c-.443-.452-.882-1.041-1.4-1.481l-.018-.1A14.337,14.337,0,0,1,326.312,192.859Z"/><path class="at" d="M324.891,184.013c-2.1-2.215-4.056-4.628-5.667-6.613a20.881,20.881,0,0,0-2.067-.814h0a10.525,10.525,0,0,1-2.143.479c4.89,1.317,4.694,8.4.982,11.185,1.264.615,2.527,1.247,3.812,1.786.007,0,.017.007.02.007a18.449,18.449,0,0,0,3.538,1.116c2.768.491,5.415-.1,8.022-.544.542-.09,1.085-.177,1.617-.243l-.192-.2C330.241,189.178,327.459,186.743,324.891,184.013Z"/><path class="aw" d="M319.828,190.043a26.93,26.93,0,0,0,6.484,2.816,14.337,14.337,0,0,0,4.272.2,9.142,9.142,0,0,0,2.531-.568c-.45-.666-1.335-1.178-1.706-1.77l-.021-.1c-2.607.439-5.254,1.035-8.022.544A18.449,18.449,0,0,1,319.828,190.043Z"/><path class="ax" d="M339.747,315.717c1.909.763,12.408-4.021,15.79-6.825a1.648,1.648,0,0,0,.052-.229,4.1,4.1,0,0,0-.066-1.181c-.326-.079-.666-.153-.995-.228-2.583,3.456-9.826,4.881-13.294,6.822a19.447,19.447,0,0,0-3.829-2.169,8.372,8.372,0,0,1-1.281.61,17.184,17.184,0,0,0-.337,1.885A17.354,17.354,0,0,1,339.747,315.717Z"/><path class="ay" d="M355.111,160.261c-.127-.044-.264-.092-.388-.149-1.834-.728-6.968-2.807-9-2.993-1.892.277-2.97,1.922-3.582,3.955a25.162,25.162,0,0,0-.813,6.607h0c-.677,5.49-1.154,12.156-1.428,18.686-.234,5.158-.344,10.23-.344,14.578h-.007a54.817,54.817,0,0,1,.749,5.769c0,3.549-.237,6.753-.237,10.152l-.058.08c.065.049.123.1.192.139-.065,5.033.172,10.678.172,13.409.412.488.827.948,1.239,1.383a23.731,23.731,0,0,0,3.239,2.8,20.862,20.862,0,0,0,2.38,1.49,91.561,91.561,0,0,1,1.772-10.9,200.883,200.883,0,0,1,.181-25.185c-.041-.207-.1-.427-.147-.652-.965-4.186-2.995-10.624-3.269-14.735-.107-2.067-.2-4.236-.2-6.305a14.673,14.673,0,0,1-.189-2.855c.392-.883,2.16-1.377,2.761-1.967a11.922,11.922,0,0,0-1.885-1.086c1.782-2.069,3.163-4.231,4.832-6.5,1.13-1.6,2.8-4.049,4.138-5.679Z"/><path class="az" d="M343.538,303.77c-.367,3.058-3.29,6.508-6.133,8.137a19.447,19.447,0,0,1,3.829,2.169c3.468-1.941,10.711-3.366,13.294-6.822a51.739,51.739,0,0,1-8.778-2.389A18.1,18.1,0,0,1,343.538,303.77Z"/><path class="ba" d="M341.6,231.877c-.481,3.928.457,48.451.457,52.289,0,6.408,1.223,12.861,1.061,19.356.137.09.271.169.419.248a18.1,18.1,0,0,0,2.212,1.1c-.282-10.9-.625-20.993-.921-32.415-.281-11.872.485-24.383.011-37.776A23.731,23.731,0,0,1,341.6,231.877Z"/><path d="M350.214,237.5a109.339,109.339,0,0,1-1.222-12.236,91.561,91.561,0,0,0-1.772,10.9A23.559,23.559,0,0,0,350.214,237.5Z"/><path class="au" d="M366.238,180.364a8.9,8.9,0,0,0-2.266-.989c-.1,1.773.2,2.264-.886,3.547a25.342,25.342,0,0,1-2.363,2.169c-2.655,2.363-9,11.389-11.463,14.047-.031.3-.059.62-.087.941a200.883,200.883,0,0,0-.181,25.185,109.339,109.339,0,0,0,1.222,12.236c.859.319,1.731.6,2.627.85,2.009.562,4.142.987,6.415,1.439,1.2.235,2.445.479,3.737.747a17.118,17.118,0,0,0,3.032.469c2.157-4.559,2.737-9.893,2.744-15.265-.728-.139-2.744-.7-4.763-1.249-1.714-.477-3.441-.954-4.365-1.169-.426-1.822-.632-3.728-1.085-5.263,3.207,1.281,7.126,2.243,10.138,3.986-.134-3.531-.419-7.005-.567-10.205a2.9,2.9,0,0,0-1.927,1.334,16.218,16.218,0,0,1,1.779-5.912,24.414,24.414,0,0,0-3.843,3.106c-1.177-6.21,0-13.742.739-19.952a53.823,53.823,0,0,1,2.067-10.631,6.583,6.583,0,0,1,.206-.673A11.671,11.671,0,0,1,366.238,180.364Z"/><path class="ba" d="M352.841,238.35c.505,2.71,1.22,7.181,1.549,8.661.656,3.364.862,6.752,1.511,10.114.687,3.606,1.336,7.261,1.951,10.943.4,2.322.776,4.667,1.157,7.006.512,3.214.917,8.609,1.422,11.812,1.659,10.263,3.328,16.547,3.953,26.874a9.947,9.947,0,0,0,1.717.925,13.054,13.054,0,0,0,1.741.614c-.474-12.415-2.861-24.246-3.949-37.2,0-.023.092-2.219.092-2.238-.714-6.617-4.443-32.807-4.729-36.069C356.983,239.337,354.85,238.912,352.841,238.35Z"/><path class="ap" d="M353.834,170.118c-.175-.229-.351-.493-.543-.773-.7,2.3-1.229,4.691-1.727,6.783q-.36,1.761-.691,3.545a32.983,32.983,0,0,1,3.843-6.882v-.068a21.883,21.883,0,0,1,.344-3.845C354.644,169.295,354.236,169.711,353.834,170.118Z"/><path class="bb" d="M354.716,172.791a32.983,32.983,0,0,0-3.843,6.882l-.006.007a86.467,86.467,0,0,0-1.463,12.5v3.739l.123.02c.076-.527.138-.925.165-1.006a38.05,38.05,0,0,1,4.557-9.511c.286-1.836.474-3.934.759-5.855.2-2.061.68-4.216.989-6.287a.281.281,0,0,1-.085-.032,6.43,6.43,0,0,1-1.158-.505A.526.526,0,0,1,354.716,172.791Z"/><path class="bc" d="M353.886,142.519a48.717,48.717,0,0,1-.916,5.585c.141-.26.3-.51.455-.766h0a2.892,2.892,0,0,0,.727-1.757,1.114,1.114,0,0,0-.266-.762,44.589,44.589,0,0,0,1.625-5.43,4.3,4.3,0,0,1-.416-.575A10.7,10.7,0,0,0,353.886,142.519Z"/><path class="bd" d="M355.211,160.3c-1.339,1.63-3.008,4.082-4.138,5.679-1.669,2.27-3.05,4.432-4.832,6.5a11.922,11.922,0,0,1,1.885,1.086c-.6.59-2.369,1.084-2.761,1.967a14.673,14.673,0,0,0,.189,2.855c0,2.069.1,4.238.2,6.305.274,4.111,2.3,10.549,3.269,14.735.1-.558.333-2.342.5-3.486l-.123-.02v-3.739a86.467,86.467,0,0,1,1.463-12.5l.006-.007q.33-1.785.691-3.545c.5-2.092,1.027-4.484,1.727-6.783a23.377,23.377,0,0,1,2.5-5.785c0-.012,0-.022,0-.031v-.008a14.336,14.336,0,0,0,.065-2.995C355.647,160.454,355.431,160.383,355.211,160.3Z"/><path class="ap" d="M359.109,172.283c-.134-.45-.251-.886-.34-1.315a28.477,28.477,0,0,0-2.857,2.282.281.281,0,0,0,.085.032c-.309,2.071-.786,4.226-.989,6.287-.285,1.921-.473,4.019-.759,5.855,1.443-2.325,3.009-4.564,4.406-6.642a47.257,47.257,0,0,1,5.736-6.676l-.018-.015C363.484,172.876,360.393,172.384,359.109,172.283Z"/><path class="be" d="M355.527,139.312c-.144-.167-.282-.337-.432-.5a4.3,4.3,0,0,0,.416.575C355.514,139.361,355.524,139.337,355.527,139.312Z"/><path class="an" d="M366.889,144.509c-2.945-.276-5.239.554-7.9-1.466a15.545,15.545,0,0,1-2.912-3.07l0-.005a4.763,4.763,0,0,1-.557-.579,44.589,44.589,0,0,1-1.625,5.43,1.114,1.114,0,0,1,.266.762,2.892,2.892,0,0,1-.727,1.757h0c-.154.256-.314.506-.455.766a4,4,0,0,0-.391.969,14.23,14.23,0,0,0,0,3.56,57.134,57.134,0,0,0,.506,6.615,3.332,3.332,0,0,0,1.9,1.507c.115.053.244.1.362.139.032.014.061.023.093.036.2.078.407.144.6.211.359.108.689.21.962.3a3.614,3.614,0,0,0,2.39.387c.205-.091.407-.176.612-.272.131-.032.256-.069.388-.1a13.167,13.167,0,0,0,1.791-5.64c.317-1.945,1.073-3.529,3.178-3.934.244-1.029.769-1.966.949-2.959a28.1,28.1,0,0,0,.413-2.8,6.755,6.755,0,0,1-1.858-.505C365.415,145.246,366.344,145.063,366.889,144.509Z"/><path class="an" d="M355.527,139.312c0,.025-.013.049-.016.077a4.763,4.763,0,0,0,.557.579C355.892,139.752,355.713,139.533,355.527,139.312Z"/><path d="M356.488,307.714c-.144-3.252,1.814-34.624,1.364-39.646-.615-3.682-1.264-7.337-1.951-10.943-.649-3.362-.855-6.75-1.511-10.114-.329-1.48-1.044-5.951-1.549-8.661-.9-.252-1.768-.531-2.627-.85a23.559,23.559,0,0,1-2.994-1.336,20.862,20.862,0,0,1-2.38-1.49c.474,13.393-.292,25.9-.011,37.776.3,11.422.639,21.515.921,32.415a51.739,51.739,0,0,0,8.778,2.389c.329.075.669.149.995.228S356.173,307.635,356.488,307.714Z"/><path class="bf" d="M355.537,308.892c-3.382,2.8-13.881,7.588-15.79,6.825a17.354,17.354,0,0,0-3.96-1.315,13.389,13.389,0,0,0-.106,1.6c1.638.592,3.455,1.453,5.1,1.494v-.028c2.129-.129,8.8-2.2,9.413-3.1.622-.927,1.717-3.5,2.607-1.875.724-.33,2.737-1.408,2.737-1.408a9.052,9.052,0,0,0,.069-2.238A.226.226,0,0,1,355.537,308.892Z"/><path class="bg" d="M355.06,168.878a20.048,20.048,0,0,1,2.823-2.442c-.018-.053-.035-.109-.055-.163a5.168,5.168,0,0,1-2.03-2.73.015.015,0,0,0-.01.017,23.377,23.377,0,0,0-2.5,5.785c.192.28.368.544.543.773C354.236,169.711,354.644,169.295,355.06,168.878Z"/><path class="bb" d="M357.883,166.436a20.048,20.048,0,0,0-2.823,2.442,21.883,21.883,0,0,0-.344,3.845.32.32,0,0,1,.038.022,6.43,6.43,0,0,0,1.158.505,28.477,28.477,0,0,1,2.857-2.282C358.432,169.441,358.332,168.011,357.883,166.436Z"/><path class="bh" d="M358.556,218.059c.453,1.535.659,3.441,1.085,5.263.924.215,2.651.692,4.365,1.169,2.019.551,4.035,1.11,4.763,1.249,0-1.23-.027-2.464-.075-3.7C365.682,220.3,361.763,219.34,358.556,218.059Z"/><path class="bi" d="M359.449,161.259c-.835.328-1.717-.137-2.562-.415-.292-.093-.646-.2-1.031-.318a14.336,14.336,0,0,1-.065,2.995v.008s.007.009.007.014a5.168,5.168,0,0,0,2.03,2.73,8.5,8.5,0,0,0,2.5,1.023c1.676-2.245,3.942-4.716,4.155-7.514-.892.33-1.761.493-2.665.735-.415.131-.862.234-1.3.344-.14.032-.274.072-.415.106C359.885,161.07,359.668,161.161,359.449,161.259Z"/><path class="bj" d="M371.523,315.968a14.775,14.775,0,0,0,3.984-.333c.258-.052.525-.122.776-.189a1.62,1.62,0,0,1,.2-.063,6.424,6.424,0,0,0,1.353-.579l-.062-.106c-.268-6.347.783-12.039.457-17.345A167.244,167.244,0,0,0,375.25,277.4c.4-7.508.954-32.565-.409-38.716a14.848,14.848,0,0,1-8.816,2.322,17.118,17.118,0,0,1-3.032-.469c-1.292-.268-2.541-.512-3.737-.747.286,3.262,4.015,29.452,4.729,36.069,0,.019-.092,2.215-.092,2.238,1.088,12.957,3.475,24.788,3.949,37.2A19.9,19.9,0,0,0,371.523,315.968Z"/><path class="av" d="M371.252,166.048c-.086,2.631-1.044,5.007-1.765,7.517a21.66,21.66,0,0,1-2.339,5.547,6.583,6.583,0,0,0-.206.673,53.823,53.823,0,0,0-2.067,10.631c-.739,6.21-1.916,13.742-.739,19.952a24.414,24.414,0,0,1,3.843-3.106,16.218,16.218,0,0,0-1.779,5.912,2.9,2.9,0,0,1,1.927-1.334c.148,3.2.433,6.674.567,10.205l.6.369a9.13,9.13,0,0,1-.4,3.35c-.035-.006-.079-.012-.124-.024-.007,5.372-.587,10.706-2.744,15.265a14.848,14.848,0,0,0,8.816-2.322,26.735,26.735,0,0,0,2.534-1.693c-1.051-8.465-2.514-19.156-2.373-29.35l-.041-.01c1-3.888,2.27-8.976,2.864-11.139-1.786-4.891-3.846-10.311-5.673-14.664a.374.374,0,0,1-.021-.052c-2.105-5.606,4.612-10.158,6.319-10.117l0-.064C376.238,169.955,373.577,167.532,371.252,166.048Z"/><path class="bg" d="M368.711,167.015c-1.271,1.973-5.069,1.02-6.9.642-.518-.118-1.013-.233-1.48-.361a8.5,8.5,0,0,1-2.5-1.023c.02.054.037.11.055.163.449,1.575.549,3,.886,4.532.089.429.206.865.34,1.315,1.284.1,4.375.593,5.264-.192l.018.015a55.236,55.236,0,0,0,4.292-4.794C368.694,167.211,368.7,167.113,368.711,167.015Z"/><path class="bk" d="M369.291,222.414l-.6-.369c.048,1.231.075,2.465.075,3.7.045.012.089.018.124.024A9.13,9.13,0,0,0,369.291,222.414Z"/><path class="bl" d="M367.421,158.613a7.7,7.7,0,0,1-2.868,1.649c-.157.065-.314.126-.465.186-.2,2.609-2.313,4.915-3.877,7.01.436.119.9.226,1.381.337,1.711.352,5.255,1.241,6.441-.6.153-1.548.1-3.1.169-4.64a2,2,0,0,1,.023-.234c.032-.628.1-1.267.173-1.9a30.546,30.546,0,0,0,.272-3.352c-.057-.091-.137-.194-.221-.323A4,4,0,0,1,367.421,158.613Z"/><path class="bd" d="M369.487,173.565c.721-2.51,1.679-4.886,1.765-7.517.014-.187.014-.369.014-.561a8.794,8.794,0,0,0-1.291-1.48,11.974,11.974,0,0,0-1.058-2.216,2.069,2.069,0,0,0-.024.251c-.072,1.656-.017,3.314-.182,4.973-.007.1-.017.2-.028.3a55.236,55.236,0,0,1-4.292,4.794,47.257,47.257,0,0,0-5.736,6.676c-1.4,2.078-2.963,4.317-4.406,6.642a38.05,38.05,0,0,0-4.557,9.511c-.027.081-.089.479-.165,1.006-.168,1.144-.4,2.928-.5,3.486.048.225.106.445.147.652.028-.321.056-.637.087-.941,2.462-2.658,8.808-11.684,11.463-14.047a25.342,25.342,0,0,0,2.363-2.169c1.085-1.283.786-1.774.886-3.547a8.9,8.9,0,0,1,2.266.989,11.671,11.671,0,0,0,.91-1.252A21.66,21.66,0,0,0,369.487,173.565Z"/><path class="bm" d="M371.887,153.37c.253-1.05.087-2.386-1.211-1.655-.548.332-.929.907-1.464,1.261-.241.413-.471.831-.673,1.26a9.1,9.1,0,0,1-.744,1.268,4.058,4.058,0,0,0-.692-.423c.481-1.133.616-2.841,1.135-4.141a1.671,1.671,0,0,0,.112-.364c.339-1.482-.83-2.967-.071-4.336a10.719,10.719,0,0,1-1.557-.121,28.1,28.1,0,0,1-.413,2.8c-.18.993-.7,1.93-.949,2.959-2.1.4-2.861,1.989-3.178,3.934a13.167,13.167,0,0,1-1.791,5.64c.407-.1.823-.2,1.211-.321.843-.225,1.653-.378,2.486-.685.151-.06.308-.121.465-.186a7.7,7.7,0,0,0,2.868-1.649,4,4,0,0,0,1.028-1.864c.084.129.164.232.221.323.551.678.852.128,1.435-.711A10.48,10.48,0,0,0,371.887,153.37Z"/><path class="az" d="M375.507,315.635a14.775,14.775,0,0,1-3.984.333,19.9,19.9,0,0,1-3.681-.669,13.054,13.054,0,0,1-1.741-.614,34.7,34.7,0,0,1-.491,7.341c-.268,1.408-.587,2.78-.883,4.109,2.995-.486,5.821,2.476,7.683-.242a25.562,25.562,0,0,0,3.1-10.193Z"/><path class="bc" d="M374.854,147.883c-.269,1.176-2.954,3.1-4.13,2.693.138-.212.138-.487.346-.76a5.117,5.117,0,0,1-2.72.76,1.671,1.671,0,0,1-.112.364c-.519,1.3-.654,3.008-1.135,4.141a4.058,4.058,0,0,1,.692.423,9.1,9.1,0,0,0,.744-1.268c.2-.429.432-.847.673-1.26.535-.354.916-.929,1.464-1.261,1.3-.731,1.464.605,1.211,1.655a10.48,10.48,0,0,1-1.782,2.991c-.583.839-.884,1.389-1.435.711a30.546,30.546,0,0,1-.272,3.352c.734.286,2.329.064,2.6-.795.109-.335-.061-.581-.125-.867a4.554,4.554,0,0,1,.041-2.273,7.209,7.209,0,0,1,1.5-1.661,33.934,33.934,0,0,0,3.46-3.932l.026.01a16.856,16.856,0,0,0,.788-2.917,1.977,1.977,0,0,0,.068-.334C375.79,148.881,374.636,149.93,374.854,147.883Z"/><path class="bf" d="M374.381,325.275c-.845,1.774-2.181,3.807-3.4,4.435a19.308,19.308,0,0,1-6.758-1.15c-.134.691-.237,1.372-.309,2.027l.137.025c1.995,1.062,5.574,1.444,7.6.575,1.741-1.8,2.96-4.868,3.712-8.057-.155.311-.306.622-.453.922a.173.173,0,0,0-.014.05c-.134.349-.3.735-.5,1.135A.077.077,0,0,1,374.381,325.275Z"/><path class="ax" d="M375.356,323.13a34.23,34.23,0,0,0,.927-7.684c-.251.067-.518.137-.776.189l.007.065a25.562,25.562,0,0,1-3.1,10.193c-1.862,2.718-4.688-.244-7.683.242-.185.817-.367,1.635-.508,2.425a19.308,19.308,0,0,0,6.758,1.15c1.223-.628,2.559-2.661,3.4-4.435a.077.077,0,0,0,.01-.038c.134-.357.3-.738.5-1.135a.173.173,0,0,1,.014-.05C375.05,323.752,375.2,323.441,375.356,323.13Z"/><path class="bf" d="M376.283,315.446a34.23,34.23,0,0,1-.927,7.684,17.263,17.263,0,0,0,1.26-2.984,9.875,9.875,0,0,0,.048-2.428c.007-.565-.134-1.334-.178-2.335A1.62,1.62,0,0,0,376.283,315.446Z"/><path class="bc" d="M377.225,142.54a13.854,13.854,0,0,0-1.3-2.578,11.842,11.842,0,0,0-2.875-2.951,13.143,13.143,0,0,0-4.469-2.489,16.814,16.814,0,0,0-4.339-.851,19.817,19.817,0,0,0-4.008.434,7.625,7.625,0,0,1-1.342-.069,1,1,0,0,1-.138-.042,9.1,9.1,0,0,0-1.426-.51c-1.013-.094-1.746.826-2.118,1.931-.407,1.245-.753,2.253-.122,3.389l0,.01c.15.161.288.331.432.5.186.221.365.44.541.656l0,.005a15.545,15.545,0,0,0,2.912,3.07c2.666,2.02,4.96,1.19,7.9,1.466-.545.554-1.474.737-2.025,1.1a6.755,6.755,0,0,0,1.858.505,10.719,10.719,0,0,0,1.557.121c-.759,1.369.41,2.854.071,4.336a5.117,5.117,0,0,0,2.72-.76c-.208.273-.208.548-.346.76,1.176.411,3.861-1.517,4.13-2.693-.218,2.047.936,1,1.907-.228a24.946,24.946,0,0,0,.461-5.046l.022,0C377.238,142.583,377.231,142.559,377.225,142.54Z"/><path class="bh" d="M381.723,173.784c-3.819,2.855-3.084,8.175-1.926,12.5,1.181,4.727,2.214,9.6,3.4,14.473a6.2,6.2,0,0,1,3.987,0c-.591.6-1.625,1.039-2.064,1.923a9.477,9.477,0,0,1,1.916.589c-1.769,1.628,5.763,12.559,7.538,14.628,2.209,2.8,2.359,1.328,5.021-.145a10.107,10.107,0,0,1,4.811-1.182c-4.388-5.16-10.158-11.326-12.682-15.217C390.2,194.133,387.28,179.569,381.723,173.784Z"/><path class="as" d="M397.778,224.423a6.048,6.048,0,0,0-.639,1.372,2.15,2.15,0,0,0,1.751.245A19.123,19.123,0,0,1,397.778,224.423Z"/><path class="ap" d="M397.778,224.418v.005a19.123,19.123,0,0,0,1.112,1.617c.152.194.265.3.289.239a3.184,3.184,0,0,1,.467-.73c1.477-1.847,5.034-3.333,7.322-3.814.034-.015.068-.029.106-.042a7.978,7.978,0,0,0-1.006-1.577A9.9,9.9,0,0,0,397.778,224.418Z"/><path class="bi" d="M408.029,229.962a9.791,9.791,0,0,0-2.359.409c.1.185.195.364.295.534a20.209,20.209,0,0,0,2.947,4.172c.813.958,1.669,3.247,2.9,3.671l.058-.266c.883-1.743-1.092-4.284-2.39-5.283l-.017.008A10.317,10.317,0,0,0,408.029,229.962Z"/><path class="bn" d="M378.45,171.658c-1.707-.041-8.424,4.511-6.319,10.117a.374.374,0,0,0,.021.052c1.827,4.353,3.887,9.773,5.673,14.664,1.192,3.25,2.256,6.269,3.05,8.571l.093-.034c4.666,6.334,11.123,15.7,16.15,20.859.007-.03.014-.065.021-.092a6.048,6.048,0,0,1,.639-1.372v-.005a.2.2,0,0,1-.045-.064.31.31,0,0,1,.045.064,9.9,9.9,0,0,1,8.29-4.3,5.164,5.164,0,0,1,1.387.268.32.32,0,0,0-.031-.1c-.861-1.131-1.9-2.394-3.022-3.714a10.107,10.107,0,0,0-4.811,1.182c-2.662,1.473-2.812,2.949-5.021.145-1.775-2.069-9.307-13-7.538-14.628a9.477,9.477,0,0,0-1.916-.589c.439-.884,1.473-1.327,2.064-1.923a6.2,6.2,0,0,0-3.987,0c-1.182-4.875-2.215-9.746-3.4-14.473-1.158-4.327-1.893-9.647,1.926-12.5a8.374,8.374,0,0,0-2.61-1.934l-.464-.158A.553.553,0,0,0,378.45,171.658Z"/><path class="an" d="M404.368,232.613c-.227-.46-.511-.925-.769-1.337l-.072-.189c.693-.254,1.421-.512,2.143-.716a9.791,9.791,0,0,1,2.359-.409.686.686,0,0,1,.158-.009c1.562,2.562,3.64,4.291,5.632,6.407a1.316,1.316,0,0,0,.323-1.384l-.165-.172c-.038-1.058-1.075-1.995-1.827-2.651-.948-.987-1.717-2.145-2.641-3.262l-.024-.213a13.992,13.992,0,0,0-.089-3.636l.007-.568a5.682,5.682,0,0,0,2.891-.432,2.267,2.267,0,0,0,1.123-1.821c0-.28-.014-.841-.2-.954-.522-.467-.281.007-.755.249-.811.226-1.041.59-1.982.441-.6-.076-1.119-.543-1.713-.68a3.042,3.042,0,0,0-1.669.405.281.281,0,0,0-.021.031l-.113.022c-2.288.481-5.845,1.967-7.322,3.814.512,1.6,1.01,3.213,1.442,4.865l.162.18a19.187,19.187,0,0,0,1.291,2.522,29.59,29.59,0,0,0,2.648,2.724l.072-.073c.549.336,1.542,1.745,1.94.935a.567.567,0,0,0,.041-.205,4.4,4.4,0,0,0-.759-1.767A9.076,9.076,0,0,0,404.368,232.613Z"/><path class="bo" d="M405.67,230.371c-.722.2-1.45.462-2.143.716l.072.189c.258.412.542.877.769,1.337a9.076,9.076,0,0,1,2.115,2.117,4.4,4.4,0,0,1,.759,1.767,8.44,8.44,0,0,0,2.15,1.805l.024-.043c.656-1.03-.549-2.7-1.229-3.412a6.316,6.316,0,0,1-2.222-3.942C405.865,230.735,405.766,230.556,405.67,230.371Z"/><path class="as" d="M406.068,220.116a7.978,7.978,0,0,1,1.006,1.577.055.055,0,0,1,.028-.011,2.519,2.519,0,0,0,.353-1.3A5.164,5.164,0,0,0,406.068,220.116Z"/><path class="an" d="M355.2,149.287l-1.727,2.525a5.579,5.579,0,0,0,1.239,1.437c.471.221,1.237-.555,1.237-.555a3.288,3.288,0,0,1-1.315-.331,1.944,1.944,0,0,1-.845-.687Z"/><path class="bp" d="M152.709,309.794a3.547,3.547,0,0,1-.365-.514c0,.03.006.051.007.078A3.334,3.334,0,0,0,152.709,309.794Z"/><path class="bq" d="M153.451,310.452l1.646-75.5c-.177-.123-.354-.246-.531-.372-.206-.144-.414-.292-.618-.439-.381-.27-.76-.544-1.133-.823-.025-.021-.049-.036-.073-.054-.089-.069-.178-.138-.268-.2-.226-.178-.452-.349-.676-.523-.109-.087-.221-.172-.33-.262l0,0c.073,4.564.236,9.4.422,14.189.248,6.541-.059,32.316-.084,37.98-.023,9.57-.045,18.407-.486,21.781a5.778,5.778,0,0,0,.845,2.855,2.433,2.433,0,0,0,.189.282c0-.027-.007-.048-.007-.078a3.547,3.547,0,0,0,.365.514.382.382,0,0,0,.033.039A5.251,5.251,0,0,0,153.451,310.452Z"/><path class="br" d="M154.566,234.579l.339.234.107-1.087c-.709-.5-1.421-1-2.117-1.518-.051.349-.1.7-.153,1.052v0c.024.018.048.033.073.054.373.273.752.553,1.133.823C154.152,234.287,154.36,234.435,154.566,234.579Z"/><path class="br" d="M159.875,238.116c.137-.253.266-.517.389-.8-.231-.156-.457-.318-.676-.481-.18-.12-.357-.243-.544-.36-1.316-.9-2.68-1.809-4.032-2.752l-.107,1.087q.565.393,1.135.781C157.327,236.463,158.622,237.3,159.875,238.116Z"/><path class="bs" d="M159.875,238.116c.174.111.35.228.521.339.316.219.643.445.974.667.08-.279.159-.577.234-.877-.342-.223-.667-.448-.988-.673-.118-.084-.238-.166-.352-.253C160.141,237.6,160.012,237.863,159.875,238.116Z"/><path class="br" d="M160.264,237.319a48.226,48.226,0,0,0,1.881-6.791,33.31,33.31,0,0,0,.8-8.2c.016.072.03.147.048.222a143.506,143.506,0,0,0-1.882-20.748c-4.875-2.2-9.614-4.4-13.586-6.538l-.078.066a22.022,22.022,0,0,1-2.356-3.4c2.6,8.922,4.887,18.068,7.066,27.149v0q.87,3.619,1.714,7.215c-.346,1.872-.678,3.852-.981,5.913.7.52,1.408,1.022,2.117,1.518,1.352.943,2.716,1.856,4.032,2.752.187.117.364.24.544.36C159.807,237,160.033,237.163,160.264,237.319Z"/><path class="bs" d="M162.145,230.528a48.226,48.226,0,0,1-1.881,6.791c.114.087.234.169.352.253.321.225.646.45.988.673a50.724,50.724,0,0,0,1.53-12.332c-.045-1.139-.093-2.256-.136-3.362-.018-.075-.032-.15-.048-.222A33.31,33.31,0,0,1,162.145,230.528Z"/><path class="bs" d="M164.055,239.837c1.445-5.231.051-12.34-1.057-17.286.043,1.106.091,2.223.136,3.362a50.724,50.724,0,0,1-1.53,12.332q.757.526,1.551,1.027C163.454,239.465,163.75,239.651,164.055,239.837Z"/><path class="bs" d="M164.055,239.837c-.3-.186-.6-.372-.9-.565q-.792-.5-1.551-1.027c-.075.3-.154.6-.234.877.775.526,1.586,1.055,2.422,1.569C163.885,240.411,163.97,240.129,164.055,239.837Z"/><path class="br" d="M163.792,240.691c.957.586,1.951,1.162,2.967,1.691q-.129-.581-.245-1.121c-.832-.453-1.654-.931-2.459-1.424C163.97,240.129,163.885,240.411,163.792,240.691Z"/><path class="bt" d="M166.8,242.548c.079.044.156.09.237.129-.012-.057-.018-.111-.027-.163-.087-.045-.162-.084-.248-.132C166.773,242.436,166.783,242.49,166.8,242.548Z"/><path class="bt" d="M167.566,245.727c-.211-1.082-.383-2.1-.532-3.05-.081-.039-.158-.085-.237-.129C167.02,243.548,167.274,244.609,167.566,245.727Z"/><path class="bt" d="M169.409,253.869c.053-.351.1-.694.15-1.024q-1.164-3.871-1.993-7.118c.423,2.214.984,4.7,1.663,7.43C169.292,253.4,169.351,253.626,169.409,253.869Z"/><path class="bs" d="M153.451,310.452c3.26,2.356,9.967.82,13.5-3.894.07-1.331-.463-3.435-.024-5.727.1.018.2.039.309.06.011-.223.038-.46.059-.694.157-1.512.323-3.188.494-4.994l-.553-.319-.16-25.919a.13.13,0,0,0-.007.033V265.11l-.277-.123c.084-.042.177-.081.277-.132l.707-.34c.715-.348,1.623-.784,2.681-1.3v0q.166-2.2.314-4.257c-.5-1.776-.955-3.477-1.367-5.091-.058-.243-.117-.474-.18-.712-.679-2.731-1.24-5.216-1.663-7.43-.292-1.118-.546-2.179-.769-3.179-.806-.442-1.6-.914-2.365-1.392-.881-.543-1.728-1.1-2.539-1.652-.352-.235-.7-.478-1.025-.7-.177-.12-.363-.241-.551-.355-1.315-.868-2.673-1.752-4.03-2.671-.4-.268-.8-.541-1.19-.824Z"/><path class="bt" d="M170.776,258.96c.1-1.362.19-2.666.275-3.9-.079-.252-.161-.493-.23-.739-.891-2.882-1.64-5.505-2.232-7.845q-.588-1.875-1.061-3.528c-.167-.09-.331-.177-.494-.27.149.952.321,1.968.532,3.05q.827,3.24,1.993,7.118c-.048.33-.1.673-.15,1.024C169.821,255.483,170.274,257.184,170.776,258.96Z"/><path class="bt" d="M171.814,262.565c1.336-.64,2.837-1.361,4.434-2.133l-2.121-15.312a27.612,27.612,0,0,1-7.12-2.606c.009.052.015.106.027.163.163.093.327.18.494.27q.476,1.65,1.061,3.528c.592,2.34,1.341,4.963,2.232,7.845.069.246.151.487.23.739-.085,1.235-.177,2.539-.275,3.9Q171.268,260.717,171.814,262.565Z"/><path class="bu" d="M193.3,252.19c-3.5,1.7-7.956,3.858-12.256,5.928,0,1.127.006,2.088.019,2.5l.122.012c0,.628-.046.944-.673,1.256-.58.316-1.523.67-1.749-.177h-.114c-.006-.793-.06-1.587-.123-2.368-.777.367-1.543.736-2.276,1.091l.883,6.406,16.683-8.386c-.092-1.073-.176-2.131-.263-3.179-.036-.439-.074-.872-.107-1.31C193.4,253.365,193.346,252.773,193.3,252.19Z"/><path class="br" d="M167.007,242.514a27.612,27.612,0,0,0,7.12,2.606,15.48,15.48,0,0,0,4.691.234c.242-1.53.457-3.1.63-4.69.129-1.133.237-2.281.326-3.417,0-2.578-.089-5.282-.293-7.388-.356-4.213-.183-8.426-.807-12.636-.451-2.632-.76-5.264-1.056-7.914-5.007-2.413-10.843-4.955-16.5-7.506A143.506,143.506,0,0,1,163,222.551c1.108,4.946,2.5,12.055,1.057,17.286.805.493,1.627.971,2.459,1.424q.117.541.245,1.121C166.845,242.43,166.92,242.469,167.007,242.514Z"/><path class="bt" d="M179.774,237.247c-.089,1.136-.2,2.284-.326,3.417h.005c.033-.184.3-1.046.3-1.046C179.765,238.858,179.774,238.058,179.774,237.247Z"/><path class="bt" d="M179.481,229.859c.2,2.106.293,4.81.293,7.388.156-2.061.246-4.092.246-6.048,0-2.9.2-6.322.169-9.733-.039-3.885-.38-7.767-1.665-10.922a.506.506,0,0,1-.024-.057c-.14-.334-.282-.655-.442-.968-.15-.069-.294-.141-.44-.21.3,2.65.605,5.282,1.056,7.914C179.3,221.433,179.125,225.646,179.481,229.859Z"/><path class="bq" d="M181.048,253.082c0,.009.009.009.013.009v-.006A.022.022,0,0,1,181.048,253.082Z"/><path class="bq" d="M181.141,244.867a2.1,2.1,0,0,0,.29.421c0-.174.005-.343.008-.517C181.337,244.807,181.239,244.834,181.141,244.867Z"/><path class="bt" d="M181.439,244.771c.051-5.727-1.165-13.347-.908-18.948.027-.742.027-2.281.009-4.363l-.351.006c.03,3.411-.169,6.83-.169,9.733,0,1.956-.09,3.987-.246,6.048,0,.811-.009,1.611-.024,2.371,0,0-.264.862-.3,1.046h-.005c-.173,1.589-.388,3.16-.63,4.69a12.11,12.11,0,0,0,2.323-.487C181.239,244.834,181.337,244.807,181.439,244.771Z"/><path class="bq" d="M178.524,259.341c-.347-4.321-.95-8.3,4.161-9.786l.062-.033a7.755,7.755,0,0,1-.494-3.363l.087-.138a3.3,3.3,0,0,1-.909-.733,2.1,2.1,0,0,1-.29-.421,12.11,12.11,0,0,1-2.323.487,15.48,15.48,0,0,1-4.691-.234l2.121,15.312C176.981,260.077,177.747,259.708,178.524,259.341Z"/><path class="bv" d="M182.618,252.25a1.5,1.5,0,0,0,.116-.1,1.393,1.393,0,0,0,.18-2.1l.062-.126a4.17,4.17,0,0,1-.229-.4l-.062.033c-5.111,1.487-4.508,5.465-4.161,9.786.828-.4,1.674-.811,2.518-1.223,0-1.779.016-3.966.019-5.027,0,0-.008,0-.013-.009a.022.022,0,0,0,.013,0C181.766,253.247,182.083,252.61,182.618,252.25Z"/><path class="bw" d="M190.3,181.227v0c.092.144.177.288.26.435-.065-.18-.131-.348-.2-.52A.766.766,0,0,0,190.3,181.227Z"/><path class="bx" d="M190.874,182.627h0c-.1-.328-.2-.646-.317-.962-.083-.147-.168-.291-.26-.435-.3.456-.21.97.571,1.4Z"/><path class="bx" d="M190.874,182.627h0Z"/><path class="bx" d="M190.558,181.665c.113.316.221.634.317.962.038-.033.075-.063.116-.1C190.863,182.239,190.717,181.948,190.558,181.665Z"/><path class="bx" d="M190.875,182.627c.059.036.129.069.2.1a1.794,1.794,0,0,0-.082-.2c-.041.033-.078.063-.116.1Z"/><path class="bx" d="M191.192,214.621a21.487,21.487,0,0,1,.431-4.086c.129-.778.25-1.569.313-2.362.473-5.348,1.185-10.934.88-16.391-.03-.556-.074-1.114-.129-1.67-.054-.535-.116-1.07-.194-1.6a3.467,3.467,0,0,1-.584-.853l-.1.009c.511,5.55-.26,11.682-.715,15.883a70.587,70.587,0,0,0-.445,8.563h.033c0,.815.02,1.659.057,2.527Z"/><path class="bm" d="M191.623,252.487a21.537,21.537,0,0,0,.475-2.482c-2.6,1.7-6.139,2.086-9.364,2.149a1.5,1.5,0,0,1-.116.1c-.535.36-.852,1-1.557.835v.006c.716.586,2.066,1.818,2.631,2.386A49.575,49.575,0,0,0,191.623,252.487Z"/><path class="an" d="M182.734,252.154c3.225-.063,6.76-.448,9.364-2.149.009-.09.017-.174.027-.267a8.806,8.806,0,0,0-.361-3.777,6.028,6.028,0,0,0-.327-.778,9.659,9.659,0,0,1-7.318,1.493,1.423,1.423,0,0,1-.207-.051,6.215,6.215,0,0,1-1.572-.6l-.087.138a7.755,7.755,0,0,0,.494,3.363,4.17,4.17,0,0,0,.229.4l-.062.126A1.393,1.393,0,0,1,182.734,252.154Z"/><path class="bx" d="M191.4,183.624a8.1,8.1,0,0,0-.323-.895c-.069-.033-.139-.066-.2-.1a25.327,25.327,0,0,1,.933,5.039l.1-.009a3.467,3.467,0,0,0,.584.853A29.571,29.571,0,0,0,191.4,183.624Z"/><path class="bx" d="M184.119,246.676a9.659,9.659,0,0,0,7.318-1.493,6.7,6.7,0,0,0,1.176-1.082c-.134-1.521-.258-3.011-.392-4.471-3.057,2.332-7.431,3.885-10.472,5.03-.1.039-.21.075-.31.111,0,.174-.006.343-.008.517a3.3,3.3,0,0,0,.909.733,6.215,6.215,0,0,0,1.572.6A1.423,1.423,0,0,0,184.119,246.676Z"/><path class="bq" d="M181.042,258.118c4.3-2.07,8.76-4.228,12.256-5.928-.027-.337-.06-.67-.081-1.007,0-.006,0-.006-.006-.009-.133-.754-.338-1.343-.667-1.484h0c-.144.108-.3.216-.445.315a21.537,21.537,0,0,1-.475,2.482,49.575,49.575,0,0,1-7.931,2.99c-.565-.568-1.915-1.8-2.631-2.386C181.058,254.152,181.042,256.339,181.042,258.118Z"/><path class="bx" d="M190.874,182.627h0c-.781-.427-.873-.941-.571-1.4v0c-1.357-2.119-3.517-3.6-5.813-2.38a20.068,20.068,0,0,0-2.818,4.161c-.063.123-.123.244-.188.355l0,.009-.006.015c-.446.959-.879,1.956-1.284,2.987-.086,6.8.282,26.027.354,35.086.018,2.082.018,3.621-.009,4.363-.257,5.6.959,13.221.908,18.948.1-.036.208-.072.31-.111,3.041-1.145,7.415-2.7,10.472-5.03.23-.18.455-.358.669-.544.055-2.857.14-5.781.174-8.726a75.317,75.317,0,0,1-2.326-15.721c-.037-.868-.057-1.712-.057-2.527h-.033a70.587,70.587,0,0,1,.445-8.563c.455-4.2,1.226-10.333.715-15.883a25.327,25.327,0,0,0-.933-5.039Z"/><path class="bx" d="M191.623,210.535a21.487,21.487,0,0,0-.431,4.086l-.454.018a75.317,75.317,0,0,0,2.326,15.721A92.83,92.83,0,0,0,191.623,210.535Z"/><path class="bq" d="M151.8,232.536l-.33-.262C151.577,232.364,151.689,232.449,151.8,232.536Z"/><path class="br" d="M152.474,233.059c.09.066.179.135.268.2.051-.355.1-.7.153-1.052-.458-.333-.91-.676-1.361-1.018-.023.357-.044.721-.069,1.081l0,0,.33.262C152.022,232.71,152.248,232.881,152.474,233.059Z"/><path class="br" d="M152.742,233.26c-.089-.066-.178-.135-.268-.2.09.066.179.135.268.2Z"/><path class="br" d="M153.876,226.295q-.848-3.6-1.714-7.215c.173,4.171-.511,8.705-2.329,11.833.528.463,1.074.92,1.632,1.358.025-.36.046-.724.069-1.081.451.342.9.685,1.361,1.018C153.2,230.147,153.53,228.167,153.876,226.295Z"/><path class="br" d="M153.948,234.14c-.381-.27-.76-.55-1.133-.823C153.188,233.6,153.567,233.87,153.948,234.14Z"/><path class="by" d="M155.795,161.618a3.118,3.118,0,0,1,1.421-.653.211.211,0,0,1-.044-.1,5.455,5.455,0,0,0-1.211.586,1.6,1.6,0,0,0-.139.132A.217.217,0,0,1,155.795,161.618Z"/><path class="by" d="M158.251,162.119c.484-.018.895-.838,1.348-.949a18.724,18.724,0,0,1-1.89-.214,3.044,3.044,0,0,0-.493.009,3.751,3.751,0,0,0,1,.728C158.224,161.834,158.24,161.981,158.251,162.119Z"/><path class="by" d="M158.288,162.567c.023.282.047.574.07.857a2.589,2.589,0,0,1,.106-.343l-.067-.5C158.358,162.579,158.325,162.576,158.288,162.567Z"/><path class="by" d="M158.583,166.14c-.02-.241-.042-.478-.059-.715a3.1,3.1,0,0,1-.166-2v-.005c-.023-.283-.047-.575-.07-.857-.012-.15-.022-.3-.037-.448s-.027-.285-.033-.426a3.751,3.751,0,0,1-1-.728,3.118,3.118,0,0,0-1.421.653C154.54,163.144,156.272,164.806,158.583,166.14Z"/><path class="by" d="M158.358,163.429a3.1,3.1,0,0,0,.166,2C158.466,164.76,158.407,164.1,158.358,163.429Z"/><path class="by" d="M165.017,164.76a35.8,35.8,0,0,0-6.62-2.175l.067.5a2.589,2.589,0,0,0-.106.343v.005c.049.667.108,1.331.166,2a4.131,4.131,0,0,0,.637,1.036c.706.379,1.446.724,2.158,1.022a20.135,20.135,0,0,0,3.57,1.208c.973.156,1.9.306,2.827.42a5.085,5.085,0,0,0,2.111-.988c-1.09-.872-2.246-1.839-3.385-2.8C165.966,165.133,165.489,164.941,165.017,164.76Z"/><path class="by" d="M159.161,166.461a4.131,4.131,0,0,1-.637-1.036c.017.237.039.474.059.715C158.772,166.251,158.966,166.356,159.161,166.461Z"/><path class="bx" d="M158.424,180.578a28.486,28.486,0,0,1,.716-6.638,158.2,158.2,0,0,1-16.978-9.068,4.192,4.192,0,0,0-.245.354,39.67,39.67,0,0,0-.986,8.975c0,6.172,1.3,12.665,4.165,17.728a22.022,22.022,0,0,0,2.356,3.4l.078-.066c3.972,2.133,8.711,4.333,13.586,6.538-.209-1.154-.451-2.313-.72-3.488A83.979,83.979,0,0,1,158.424,180.578Z"/><path class="bg" d="M159.618,161.17c.06.006.12.006.179.006h0a.362.362,0,0,0-.1-.015A.782.782,0,0,0,159.618,161.17Z"/><path class="bg" d="M159.8,161.176Z"/><path class="an" d="M160.443,161.011h.01c.613.06,1.273.132,1.957.216.192.024.384.045.581.072.642.09,1.314.186,2,.294a13.015,13.015,0,0,1-4.246-2.028c-.009.012,0,.015-.009.024h-.022A6.872,6.872,0,0,1,160.443,161.011Z"/><path class="bw" d="M159.14,173.94a39.651,39.651,0,0,1,1.964-5.925,6.814,6.814,0,0,1-1.943-1.554c-.195-.1-.389-.21-.578-.321-2.311-1.334-4.043-3-2.788-4.522a.217.217,0,0,0,.027-.037,1.6,1.6,0,0,1,.139-.132c-1.969-.189-5.516-.52-5.74-.513a11.553,11.553,0,0,0-8.059,3.936A158.2,158.2,0,0,0,159.14,173.94Z"/><path class="bw" d="M159.161,166.461a6.814,6.814,0,0,0,1.943,1.554c.07-.175.14-.352.215-.532C160.607,167.185,159.867,166.84,159.161,166.461Z"/><path class="bg" d="M164.157,162.654a8.767,8.767,0,0,0,1.389.547C165.081,163.012,164.618,162.825,164.157,162.654Z"/><path class="bg" d="M162.241,161.96c-.861-.294-1.678-.556-2.428-.784H159.8c-.059,0-.119,0-.179-.006H159.6c-.453.111-.864.931-1.348.949.015.148.025.3.037.448.037.009.07.012.109.018a35.8,35.8,0,0,1,6.62,2.175c.439.166.89.328,1.336.493C164.909,164.042,163.488,162.868,162.241,161.96Z"/><path class="by" d="M166.442,165.325c1.139.959,2.295,1.926,3.385,2.8a3.8,3.8,0,0,0,.943-1.148C169.426,166.509,167.935,165.92,166.442,165.325Z"/><path class="bp" d="M166.956,306.558c-3.538,4.714-10.245,6.25-13.5,3.894a5.251,5.251,0,0,1-.709-.619,3.985,3.985,0,0,0,.794.709c3.115,2.181,9.488.944,13.345-3.465A2.789,2.789,0,0,0,166.956,306.558Z"/><path class="bs" d="M167.074,265.11v-.255c-.1.051-.193.09-.277.132Z"/><path class="bz" d="M167.074,269a.13.13,0,0,1,.007-.033v-.06c.187-1.193.36-2.383.537-3.554h0l-.544-.241Z"/><path class="bz" d="M167.081,268.965c.192-1.217.38-2.413.564-3.6l-.027-.012c-.177,1.171-.35,2.361-.537,3.554Z"/><path class="bs" d="M167.034,306.456c.192-1.268.01-3.074.207-5.565-.111-.021-.207-.042-.309-.06-.439,2.292.094,4.4.024,5.727C166.983,306.525,167.007,306.492,167.034,306.456Z"/><path class="bw" d="M161.1,168.015a9.9,9.9,0,0,0,6.612,1.1c-.923-.114-1.854-.264-2.827-.42a20.135,20.135,0,0,1-3.57-1.208C161.244,167.663,161.174,167.84,161.1,168.015Z"/><path class="bu" d="M167.618,265.351h0l.027.012c.006-.033.011-.067.017-.1l-.027-.012C167.629,265.282,167.624,265.318,167.618,265.351Z"/><path class="bu" d="M167.781,264.515l-.707.34v.255l.544.241c.006-.033.011-.069.017-.1l.027.012C167.7,265.011,167.74,264.762,167.781,264.515Z"/><path class="bu" d="M167.662,265.26l2.456,1.1c.036-.018.074-.039.111-.06.082-1.04.158-2.07.233-3.08-1.058.511-1.966.947-2.681,1.3C167.74,264.762,167.7,265.011,167.662,265.26Z"/><path class="bz" d="M169.287,266.8l.284.129.295,4.108c-.661,8.386-1.411,17.214-2.072,24.164l6.459,3.741-.08-.048V270.389c-.186-.6-.371-1.213-.542-1.793-.069-.226-.134-.442-.2-.658l-3.416-1.521c-.167.087-.322.172-.462.244C169.456,266.709,169.368,266.757,169.287,266.8Z"/><path class="bz" d="M169.553,266.661c.14-.072.3-.157.462-.244l-2.37-1.054c-.184,1.189-.372,2.385-.564,3.6l.16,25.919.553.319c.661-6.95,1.411-15.778,2.072-24.164l-.295-4.108-.284-.129C169.368,266.757,169.456,266.709,169.553,266.661Z"/><path class="bu" d="M173.431,267.938l-.035-.115-3.278-1.463c-.033.021-.069.036-.1.057Z"/><path class="bu" d="M167.645,265.363l2.37,1.054c.034-.021.07-.036.1-.057l-2.456-1.1C167.656,265.3,167.651,265.33,167.645,265.363Z"/><path class="an" d="M173.21,162.747c.153-1.316.681-3.284.819-4.831-.023-.111-.044-.226-.06-.34-.75.217-1.181-.273-1.454-1.034l-.13.051c-.67,1.188-1.43,3.053-2.121,4.4a5.7,5.7,0,0,1-3.783.866,36.929,36.929,0,0,1,6.613,1.9l0-.018C173.129,163.4,173.165,163.066,173.21,162.747Z"/><path class="bu" d="M170.118,266.36l3.278,1.463c-.53-1.754-1-3.323-1.332-4.432-.084-.279-.169-.556-.25-.826l-1.352.652v0c-.075,1.01-.151,2.04-.233,3.08C170.192,266.321,170.154,266.342,170.118,266.36Z"/><path class="ca" d="M170.676,153.5a1.437,1.437,0,0,0-.133.165c.145.427.278.829.394,1.19C170.841,154.31,170.749,153.847,170.676,153.5Z"/><path class="by" d="M171.3,167.973c.064-.2.15-.448.246-.734-.252-.084-.511-.171-.78-.264a3.8,3.8,0,0,1-.943,1.148c.276.219.553.435.823.64A4.244,4.244,0,0,0,171.3,167.973Z"/><path class="bg" d="M166.442,165.325c1.493.6,2.984,1.184,4.328,1.65a.308.308,0,0,0,.024-.048c-.634-.2-1.274-.433-1.932-.709-.754-.31-1.624-.634-2.509-.965A.9.9,0,0,0,166.442,165.325Z"/><path class="bg" d="M170.794,166.927c.263.081.525.156.785.228.075-.216.159-.462.246-.715-.225-.144-.451-.282-.676-.421h-.006A4.155,4.155,0,0,1,170.794,166.927Z"/><path class="ca" d="M171.319,155.839c-.055.039-.109.087-.167.133.064.444.114.868.152,1.244C171.319,156.666,171.319,156.194,171.319,155.839Z"/><path class="bg" d="M170.77,166.975c.269.093.528.18.78.264.012-.03.018-.054.029-.084-.26-.072-.522-.147-.785-.228A.308.308,0,0,1,170.77,166.975Z"/><path class="bg" d="M171.825,166.44c0-.015.011-.021.011-.033a38.462,38.462,0,0,0-6.285-3.2l0,0a8.767,8.767,0,0,1-1.389-.547l-.014,0c-.652-.246-1.284-.475-1.9-.691,1.247.908,2.668,2.082,4.112,3.293.885.331,1.755.655,2.509.965.658.276,1.3.505,1.932.709a4.155,4.155,0,0,0,.349-.908h.006C171.374,166.158,171.6,166.3,171.825,166.44Z"/><path class="an" d="M172.907,165.725c.085-.622.129-1.31.19-1.989l0,.018a36.929,36.929,0,0,0-6.613-1.9h-.006c-.5-.1-.993-.177-1.48-.265-.69-.108-1.362-.2-2-.294-.2-.027-.389-.048-.581-.072l0,.033a22.026,22.026,0,0,1,3.545.685C168.287,162.609,172.354,165.347,172.907,165.725Z"/><path class="bg" d="M173.587,167.663c-.335-.27-.685-.532-1.048-.79h-.007s0-.006-.005,0c-.232-.15-.468-.291-.7-.43-.087.253-.171.5-.246.715C172.235,167.342,172.893,167.507,173.587,167.663Z"/><path class="bu" d="M173.4,267.823l.035.115.04.015c-.013-.036-.024-.075-.037-.115Z"/><path class="bz" d="M173.635,268.5c-.057-.184-.111-.364-.164-.547l-.04-.015c.066.216.131.432.2.658l.028-.018C173.652,268.551,173.643,268.527,173.635,268.5Z"/><path class="bg" d="M173.943,167.738c-.467-.291-.939-.583-1.4-.865.363.258.713.52,1.048.79C173.706,167.684,173.826,167.714,173.943,167.738Z"/><path class="bz" d="M173.635,268.5c.008.027.017.051.024.078l.514-.256v-.057l-.7-.312C173.524,268.136,173.578,268.316,173.635,268.5Z"/><path class="an" d="M173.739,160.488v.018a.026.026,0,0,1,0-.018Z"/><path class="bl" d="M173.739,160.509c-.006.192-.006.375-.006.556.069-.211.14-.409.209-.6-.074.012-.139.018-.2.027a.026.026,0,0,0,0,.018Z"/><path class="bm" d="M172.515,156.542c.273.761.7,1.251,1.454,1.034.028-.009.058-.018.087-.03.006-.111.009-.222.009-.33l.212-.541c.006-.376,0-.8,0-1.256a35.529,35.529,0,0,0-.242-4.075c-.631-.682-2.752-.42-2.255,1.352C172.047,153.643,172.1,155.4,172.515,156.542Z"/><path class="bg" d="M173.587,167.663c-.694-.156-1.352-.321-2.008-.508-.011.03-.017.054-.029.084a15.537,15.537,0,0,0,2.57.649,1.089,1.089,0,0,1-.1-.1c-.027-.018-.054-.033-.081-.054C173.826,167.714,173.706,167.684,173.587,167.663Z"/><path class="bg" d="M162.408,161.26c-.97-.117-1.914-.192-2.7-.24l-.009.141a.362.362,0,0,1,.1.015h.016c.75.228,1.567.49,2.428.784.618.216,1.25.445,1.9.691l.014,0c.461.171.924.358,1.389.547l0,0a38.462,38.462,0,0,1,6.285,3.2c0,.012-.011.018-.011.033.234.139.47.28.7.43,0,0,0,0,.005,0h.007c.465.282.937.574,1.4.865.027.021.054.036.081.054a3.094,3.094,0,0,1-.3-.39,15.135,15.135,0,0,1-.75-1.632.588.588,0,0,0-.064-.045c-.553-.378-4.62-3.116-6.954-3.78A22.026,22.026,0,0,0,162.408,161.26Z"/><path class="an" d="M173.536,161.93c.063-.463.134-.938.2-1.421v-.021h0c.113-.8.232-1.6.332-2.347-.015-.072-.031-.147-.046-.225-.138,1.547-.666,3.515-.819,4.831-.045.319-.081.653-.113.989C173.177,163.192,173.443,162.576,173.536,161.93Z"/><path class="bm" d="M173.969,157.576c.016.114.037.229.06.34.012-.127.022-.253.027-.37C174.027,157.558,174,157.567,173.969,157.576Z"/><path class="bm" d="M174.075,158.141c.031-.219.06-.424.089-.634a.83.83,0,0,1-.108.039c-.005.117-.015.243-.027.37C174.044,157.994,174.06,158.069,174.075,158.141Z"/><path class="bg" d="M174.12,167.888a.338.338,0,0,0,.082.015c-.056-.036-.119-.075-.178-.111A1.089,1.089,0,0,0,174.12,167.888Z"/><path class="cb" d="M174.173,270.389v15.274l.11-.057-.092-15.153C174.185,270.432,174.178,270.411,174.173,270.389Z"/><path class="bz" d="M174.173,270.389v-.141h0c-.177-.57-.35-1.126-.514-1.67l-.028.018C173.8,269.176,173.987,269.786,174.173,270.389Z"/><path class="bz" d="M174.173,268.322l-.514.256c.164.544.337,1.1.514,1.67Z"/><path class="bt" d="M174.173,268.265v.057l.056-.033Z"/><path class="cb" d="M174.173,270.389c0,.022.012.043.018.064v-.142c-.006-.021-.013-.042-.018-.063Z"/><path class="bu" d="M174.283,285.681v-.075l-.11.057V298.9l.08.048.108.06h0Z"/><path class="bu" d="M174.253,298.944l.105.066,0-.006Z"/><path class="bm" d="M174.277,156.675c.074-.541.134-1.013.171-1.364-.059.036-.114.072-.171.108C174.277,155.875,174.283,156.3,174.277,156.675Z"/><path class="bu" d="M174.283,285.606v.075l.08,13.323,4.316-2.425a120.818,120.818,0,0,1-1.373-12.524Z"/><path class="bl" d="M174.34,159.079c-.042.207-.084.4-.122.589.059-.172.116-.337.17-.487A.587.587,0,0,1,174.34,159.079Z"/><path class="bu" d="M174.361,299l0,.006V299Z"/><path class="bl" d="M173.739,160.509c-.069.483-.14.958-.2,1.421l.03,0c1.623-.252,2.807-.7,3.232-1.5-.472.261-1.98-.424-2.41-1.25-.054.15-.111.315-.17.487.038-.184.08-.382.122-.589a.41.41,0,0,1-.023-.058c-.058-.207-.159-.516-.242-.88-.1.745-.219,1.551-.332,2.347.06-.009.125-.015.2-.027-.069.2-.14.393-.209.6C173.733,160.884,173.733,160.7,173.739,160.509Z"/><path class="bm" d="M174.388,159.181c.107-.319.2-.6.272-.82-.072.027-.131.053-.2.075-.04.222-.084.435-.123.643A.587.587,0,0,0,174.388,159.181Z"/><path class="cb" d="M177.3,280.717c-.127-.409-1.66-5.469-3.108-10.264l.092,15.153,3.023-1.551A15.393,15.393,0,0,1,177.3,280.717Z"/><path class="by" d="M174.12,167.888a15.537,15.537,0,0,1-2.57-.649c-.1.286-.182.532-.246.734a4.244,4.244,0,0,1-.654.79c-.27-.205-.547-.421-.823-.64a5.085,5.085,0,0,1-2.111.988,23.909,23.909,0,0,0,8.164-.159l-.484-.306c-.4-.253-.8-.5-1.194-.743A.338.338,0,0,1,174.12,167.888Z"/><path d="M174.119,305.058c-5.6,4.069-15.48,11.3-20.851,8.02a5.679,5.679,0,0,1-.62-.448c.1.881.232,1.8.388,2.726.009.057.021.123.033.192v.006c.113.372.551,1.139,2.323,1.454,2.369.43,5.607-1.238,5.607-1.238a10.9,10.9,0,0,0,1.809-.733c.414-.964,2.995-3.906,3.344-1.716a53.645,53.645,0,0,0,9.684-6.511,9.8,9.8,0,0,0-.115-4.1l0-.007a1.73,1.73,0,0,0-1.36-1.336C176.056,302.27,175.79,303.841,174.119,305.058Z"/><path class="bp" d="M166.881,307.077c-3.857,4.409-10.23,5.646-13.345,3.465a3.985,3.985,0,0,1-.794-.709.382.382,0,0,1-.033-.039,3.334,3.334,0,0,1-.358-.436c.075,1.025.161,2.125.3,3.272a5.679,5.679,0,0,0,.62.448c5.371,3.278,15.246-3.951,20.851-8.02,1.671-1.217,1.937-2.788.239-3.689-.828-.283-1.886-.8-2.71-.382-1.381.721-3.136.183-4.407-.1-.2,2.491-.015,4.3-.207,5.565-.027.036-.051.069-.078.1A2.789,2.789,0,0,1,166.881,307.077Z"/><path class="bu" d="M176.248,260.432c-1.6.772-3.1,1.493-4.434,2.133.081.27.166.547.25.826.332,1.109.8,2.678,1.332,4.432l.038.015c.013.04.024.079.037.115l.7.312.056.024,2.9-1.451Z"/><path class="bt" d="M177.059,204.5c-.048-.483-.1-.973-.149-1.463a25.256,25.256,0,0,0,.364,3.233C177.206,205.682,177.136,205.087,177.059,204.5Z"/><path class="cb" d="M174.191,270.453c1.448,4.795,2.981,9.855,3.108,10.264a15.393,15.393,0,0,0,.007,3.338l.13-.066,1.92-.988-2.225-16.163-2.9,1.451-.056.033v1.926h0c0,.021.012.042.018.063Z"/><path class="bx" d="M177.436,195.758a25.293,25.293,0,0,0-.643,3.542,25.79,25.79,0,0,0,.117,3.735A33.015,33.015,0,0,1,177.436,195.758Z"/><path class="bx" d="M178.148,209.564a20.727,20.727,0,0,1-.874-3.3q.176,1.528.344,3.041c.146.069.29.141.44.21A.63.63,0,0,0,178.148,209.564Z"/><path class="bw" d="M178.058,209.519c.16.313.3.634.442.968-.126-.307-.245-.616-.352-.923A.63.63,0,0,1,178.058,209.519Z"/><path class="bm" d="M177.145,147.937c-.379,1.466-1.871,3.585-1.68,6.709-.336.226-.674.442-1.017.665-.037.351-.1.823-.171,1.364l-.212.541c0,.108,0,.219-.009.33a.83.83,0,0,0,.108-.039c-.029.21-.058.415-.089.634.083.364.184.673.242.88a.41.41,0,0,0,.023.058c.039-.208.083-.421.123-.643.066-.022.125-.048.2-.075-.072.225-.165.5-.272.82.43.826,1.938,1.511,2.41,1.25.622-.809,1.027-5.217,1.471-7.416a10.445,10.445,0,0,0,.438-3.444c-.3-1.955-.637-2.022.054-3.554,0,0-.06-.778-.261-1.875-.126.132-.27.264-.409.4l-.1-.012A22.467,22.467,0,0,1,177.145,147.937Z"/><path class="ca" d="M171.319,155.839c-.055.039-.109.087-.167.133.064.444.114.868.152,1.244C171.319,156.666,171.319,156.194,171.319,155.839Zm-12.853.746a89.232,89.232,0,0,1-4.9-11.331c-1.272-3.642,1.693-7.972,5.321-10.4l.029.042c7.165-4.747,20.3-.949,20.7,7.786a7.449,7.449,0,0,1-1.115,1.463c-.126.132-.27.264-.409.4l-.1-.012a22.467,22.467,0,0,1-.849,3.41c-.379,1.466-1.871,3.585-1.68,6.709-.336.226-.674.442-1.017.665-.059.036-.114.072-.171.108a35.529,35.529,0,0,0-.242-4.075c-.631-.682-2.752-.42-2.255,1.352.267.947.323,2.708.735,3.846l-.13.051c-.67,1.188-1.43,3.053-2.121,4.4a5.7,5.7,0,0,1-3.783.866h-.006c-.5-.1-.993-.177-1.48-.265a13.015,13.015,0,0,1-4.246-2.028c-.6-.438-.952-.808-.942-.952A5.8,5.8,0,0,0,158.466,156.585Zm12.471-1.734c-.1-.541-.188-1-.261-1.355a1.437,1.437,0,0,0-.133.165C170.688,154.088,170.821,154.49,170.937,154.851Z"/><path class="bu" d="M179.356,283v.006l0-.006Z"/><path class="cb" d="M179.356,283l-1.92.988,1.92-.982Z"/><path class="bu" d="M179.361,283l0,.006.063.418v-.454Z"/><path class="cb" d="M179.361,283l.058-.031Z"/><path class="cc" d="M179.419,283.424v2.154l.108-.057.168-.1Z"/><path class="cc" d="M179.419,281.4v1.569l3.247-1.659v-1.55Z"/><path class="cc" d="M179.7,285.425l2.967-1.67v-2.443l-3.247,1.659v.454l.277,2Z"/><path class="bu" d="M179.7,285.425l-.168.1.168-.1Z"/><path class="bu" d="M181.053,295.242l-1.357-9.817-.168.1-.109.056v-2.154l-.063-.418-1.92.983-.13.066a120.818,120.818,0,0,0,1.373,12.524Z"/><path class="bu" d="M179.7,285.425Z"/><path class="bt" d="M180.54,221.46c-.072-9.059-.44-28.287-.354-35.086a48.559,48.559,0,0,0-2.747,9.374l0,.01a33.015,33.015,0,0,0-.526,7.277c.048.49.1.98.149,1.463.077.589.147,1.184.215,1.77a20.727,20.727,0,0,0,.874,3.3c.107.307.226.616.352.923a.506.506,0,0,0,.024.057c1.285,3.155,1.626,7.037,1.665,10.922Z"/><path class="bx" d="M158.424,180.578a83.979,83.979,0,0,0,1.972,17.737c.269,1.175.511,2.334.72,3.488,5.659,2.551,11.495,5.093,16.5,7.506q-.171-1.511-.344-3.041a25.256,25.256,0,0,1-.364-3.233,25.79,25.79,0,0,1-.117-3.735,25.293,25.293,0,0,1,.643-3.542l0-.01a48.559,48.559,0,0,1,2.747-9.374c0-.156,0-.3.006-.442h-.006a16.142,16.142,0,0,1,1.059-3.086c-6.486-2.476-18.515-7.413-22.1-8.906A28.486,28.486,0,0,0,158.424,180.578Z"/><path class="bv" d="M180.51,261.886c.627-.312.673-.628.673-1.256l-.122-.012c-.013-.412-.019-1.373-.019-2.5-.844.412-1.69.823-2.518,1.223.063.781.117,1.575.123,2.368h.114C178.987,262.556,179.93,262.2,180.51,261.886Z"/><path class="bx" d="M181.479,183.363c.059-.12.114-.24.174-.36-.136-.055-.268-.1-.408-.157a16.142,16.142,0,0,0-1.059,3.086h.006c0,.141-.006.286-.006.442.4-1.031.838-2.028,1.284-2.987l.006-.012Z"/><path class="bw" d="M184.485,178.847c1.073-1.133,2.274-1.833,3.491-1.494-1.876-1.5-3.9-2.968-6-4.408l-.01,0c-.58-.4-1.17-.8-1.761-1.192l0,0c-.493-.324-.989-.654-1.487-.979q-1.416-.924-2.832-1.815a23.909,23.909,0,0,1-8.164.159,9.9,9.9,0,0,1-6.612-1.1,39.651,39.651,0,0,0-1.964,5.925c3.59,1.493,15.619,6.43,22.1,8.906a10.5,10.5,0,0,1,1.911-2.986A5.521,5.521,0,0,1,184.485,178.847Z"/><path class="bp" d="M183.749,328.15c0,1.2.006,2.527.071,3.933a5.086,5.086,0,0,0,2.354,1.115l.071-.346-.408-2.923A3.361,3.361,0,0,1,183.749,328.15Z"/><path class="bw" d="M181.667,183.008a20.068,20.068,0,0,1,2.818-4.161,5.521,5.521,0,0,0-1.329,1.013,10.5,10.5,0,0,0-1.911,2.986c.14.057.272.1.408.157C181.658,183,181.661,183.008,181.667,183.008Z"/><path class="bt" d="M185.837,329.929l-4.784-34.687-2.374,1.337c.3,1.914.652,3.99,1.079,6.223,1.831,9.609,3.208,17.5,3.547,21.276a11.49,11.49,0,0,0-.088,1.383,6.046,6.046,0,0,0,.532,2.689A3.361,3.361,0,0,0,185.837,329.929Z"/><path class="bw" d="M184.485,178.847c2.3-1.217,4.456.261,5.813,2.38a.766.766,0,0,1,.062-.082,13.19,13.19,0,0,0-1.435-2.644c-.152-.219-.318-.423-.485-.625l.075-.09c-.179-.147-.361-.291-.539-.433C186.759,177.014,185.558,177.714,184.485,178.847Z"/><path class="bq" d="M192.125,249.738c-.01.093-.018.177-.027.267.146-.1.3-.207.445-.315A.44.44,0,0,0,192.125,249.738Z"/><path class="bq" d="M191.437,245.183a6.028,6.028,0,0,1,.327.778,3.469,3.469,0,0,1,1-.1q-.07-.883-.149-1.758A6.7,6.7,0,0,1,191.437,245.183Z"/><path class="bx" d="M192.831,243.831c0-1.557.023-3.14.059-4.745-.214.186-.439.364-.669.544.134,1.46.258,2.95.392,4.471A2.5,2.5,0,0,0,192.831,243.831Z"/><path class="bv" d="M191.764,245.961a8.806,8.806,0,0,1,.361,3.777.44.44,0,0,1,.418-.048h0c.329.141.534.73.667,1.484-.147-1.815-.3-3.582-.449-5.315A3.469,3.469,0,0,0,191.764,245.961Z"/><path class="bv" d="M193.346,252.166c.748-.364,1.455-.709,2.1-1.028-.078-2.53-.554-5.165-2.686-5.279.15,1.733.3,3.5.449,5.315.006,0,.006,0,.006.009C193.271,251.493,193.31,251.826,193.346,252.166Z"/><path class="bt" d="M192.89,239.086a8.916,8.916,0,0,0,2.267-2.782,36.992,36.992,0,0,1-2.093-5.944C193.03,233.3,192.945,236.229,192.89,239.086Z"/><path class="cb" d="M195.151,274.921q-.7-8.689-1.337-16.469l-16.683,8.386L179.356,283h0l.058-.031V281.4l3.247-1.641v1.551Z"/><path class="bu" d="M196.132,286.753q-.51-6.12-.981-11.832l-12.485,6.391v2.443l-2.967,1.67h0l1.357,9.817Z"/><path class="bu" d="M195.448,251.138c.039,1.253-.016,2.479-.016,3.353l.016.006c-.189.794-1.308,1.5-1.9.776.087,1.048.171,2.106.263,3.179l12-6.025-6.9-3C198.154,249.81,196.951,250.4,195.448,251.138Z"/><path class="bv" d="M193.551,255.273c.589.724,1.708.018,1.9-.776l-.016-.006c0-.874.055-2.1.016-3.353-.647.319-1.354.664-2.1,1.028.059.607.086,1.247.1,1.8C193.477,254.4,193.515,254.834,193.551,255.273Z"/><path class="cc" d="M198.364,273.265v2.527l3.247-1.821V271.6Z"/><path class="cb" d="M198.364,273.265v-1.647l3.247-1.64V271.6l4.244-2.173v-16.98l-.042-.021-12,6.025q.633,7.788,1.337,16.469Z"/><path class="bq" d="M198.7,315.692c-.084-.73-.161-1.538-.226-2.416q-1.311-14.088-2.337-26.523l-15.079,8.489,4.784,34.687c4.191,1.3,12.1-3.639,13.872-8.2.016-.039.032-.081.045-.114a33.269,33.269,0,0,1-1.053-5.866A.208.208,0,0,1,198.7,315.692Z"/><path class="cc" d="M198.364,273.265l3.247-1.665v-1.623l-3.247,1.641Z"/><path class="bu" d="M195.151,274.921q.471,5.715.981,11.832l9.723-5.462V269.428l-4.244,2.173v2.37l-3.247,1.821v-2.527Z"/><path class="bp" d="M199.709,321.729c-1.77,4.561-9.681,9.5-13.872,8.2l.408,2.923-.071.346c5.292,1.058,13.6-4.534,19.245-7.587a4.6,4.6,0,0,0,2.437-3.08v-.009c0-.111-.012-.207-.012-.3a1.213,1.213,0,0,0-.677-.908,5.529,5.529,0,0,0-2.487-.748c-1.244-.042-1.012.276-1.915.538C201.243,321.554,201.256,321.933,199.709,321.729Z"/><path d="M193.31,334.583c.607-.992,3.37-3.768,3.617-1.6,3.975-1.884,9.1-4.64,10.917-6.587.009-.715.031-1.767.031-2.7,0-.436-.007-.842-.019-1.172a4.6,4.6,0,0,1-2.437,3.08c-5.641,3.053-13.953,8.645-19.245,7.587a5.086,5.086,0,0,1-2.354-1.115c.037.839.1,1.7.188,2.575v0c.009.06.013.121.021.184v0c.081.349.462,1.082,2.216,1.383,2.335.4,5.7-1.175,5.7-1.175A9.651,9.651,0,0,0,193.31,334.583Z"/><path class="z" d="M230.344,260.822c-3.1,7.686-1.382,9.731,1.072,17.585l2.788.071.215-12.367.215-4.86Z"/><path class="t" d="M236.881,361.626a20.646,20.646,0,0,1-3.4,2.129v1.55c-1.822,3.191-3.579,4.641-5.886,3.96-3.216-.949-4.19-1.74-4.228-4.04-.367-3.919-.449-4.653.607-7.538a23.146,23.146,0,0,1,6.968-3.26c1.868-.6,4.683-2.226,7.4-2.942a2.076,2.076,0,0,1,2.6,1.937C241.075,355.873,238.914,359.47,236.881,361.626Z"/><path class="u" d="M236.881,361.626a20.646,20.646,0,0,1-3.4,2.129v1.55c-1.822,3.191-3.579,4.641-5.886,3.96-3.216-.949-4.19-1.74-4.228-4.04a24.073,24.073,0,0,1-.2-4.48c4.277,2.186,7.909,1.986,11.9-2.132,1.2-1.236,4.709-4.431,5.01-6.813a2.305,2.305,0,0,1,.863,1.622C241.075,355.873,238.914,359.47,236.881,361.626Z"/><path class="t" d="M246.458,368.32c.9-.242,3.216-3.774,6.464-3.08,3.9.834,8.431-1.376,11.951-1.419.627-.007,1.419-.164,1.8.12,1.675,1.25,1.881,2.545.437,4.188a25.215,25.215,0,0,1-4.644,3.836,29.957,29.957,0,0,1-5.25,2.976c-1.58.656-2.645.565-4.075,1.074l-.091,1.244a6.809,6.809,0,0,1-3.21,1.643c-2.013.176-4.373-1.113-6.069-2.921-.195-2.057-.928-4.1.13-7.128Z"/><path class="u" d="M267.685,364.94c.657.955.49,1.977-.575,3.189a25.215,25.215,0,0,1-4.644,3.836,29.921,29.921,0,0,1-5.25,2.976c-1.58.656-2.645.565-4.075,1.074l-.091,1.244a6.809,6.809,0,0,1-3.21,1.643c-2.013.176-4.373-1.113-6.069-2.921a20.182,20.182,0,0,1-.351-5.131c4.34,3.323,7.012,1.074,8.681.989,2.475-.126,6.053.09,11.561-3.867C264.938,367.056,266.314,366.044,267.685,364.94Z"/><path class="ae" d="M255.3,369.441c1.008-1.758,1.011-2.912.674-3.608l6.934-1.369c3.4-.7,4.088-.066,3.186.736C263.065,367.895,259.079,368.568,255.3,369.441Z"/><path class="cd" d="M247.484,274.3c-1.058,8.246-3.119,38.642-5.859,45.492-4.119,10.3-5.287,26.027-7.787,37.351a6.778,6.778,0,0,1-3.409,3.956c-2.912,1.462-6.94,1.6-7.731-.517.68-10.446.438-23.625.78-29.438.381-6.51,1.979-12.862,4.543-16.653.332-4.66-.014-23.925-.017-32.6,0-7.768.115-12.753,2.365-17.766Z"/><path class="ce" d="M247.484,277.363c-1.058,8.245-4.545,35.224-5.859,42.433-2.172,11.917-5.287,26.027-7.787,37.351a6.778,6.778,0,0,1-3.409,3.956,10.3,10.3,0,0,1-1.768.688c1.016-8.192,2.061-28.1,4.361-37.317,1.041-4.173.869-5.067,3.254-7.8.294-14.884.576-30.024-3.029-44.774l-4.782,2.141a24.448,24.448,0,0,1,1.9-6.854Z"/><path class="cf" d="M262.618,276.326c3.1,15.015-2.129,38.588-4,49.343-2.136,12.257-1.864,29.457-2.963,41.664-.708,3.506-9.416,6.821-12.735,3.336-.621-10.43-1.884-25.962-1.379-31.69.421-4.769.554-7.528,2.4-11.729-.16-4.526-.219-25.467-.919-34.011-.592-7.223-4.209-20.18-.343-29.086l13.783,15.473Z"/><path class="cd" d="M262.617,280.913c3.1,15.016-2.128,34-4,44.756-2.136,12.257-1.863,29.457-2.963,41.664-.351,1.741-2.676,3.435-5.335,4.273-.262-10.582-.3-25.488.025-33.54.35-8.661,1.182-5.922,2.018-9.72.509-12.577,1.813-31.564,2.32-44.723l1.774.59Z"/><path class="cf" d="M234.075,201.393c8.766,5.716,4.575,42.377,1.962,53.241-.2,2.53-7.352,4.917-8.469,2.158l-5.77-23.649a88.043,88.043,0,0,1,1.646-14.27C225.355,207.766,226.345,202.4,234.075,201.393Z"/><path class="ce" d="M234.412,209.971c8.766,5.716,4.238,33.8,1.625,44.663-.135,1.7-3.388,3.325-5.857,3.388-1.519-10.724-3.762-18.211-4.572-23.463a122.684,122.684,0,0,1,.7-12.783C227.244,211.985,230.594,210.978,234.412,209.971Z"/><path class="cg" d="M232.757,201.627c-8.051,3.331-8.252,14.293-6.867,21.8,1.57,8.519,3.921,13.316,4.295,19.967.4,7.122-4.862,21.722-3.369,33.233,1.04,3.047,9.748,6.982,12.134,8.213a62.578,62.578,0,0,1-.108-14.366c.393,6.621.845,10.488,2.273,15.094,6.078,3.607,18.882,6.8,23.679-.177-1.3-9.94-4.8-21.511-4.632-29.339.293-13.358,6.494-28.261,5.108-34.985a12.33,12.33,0,0,0-4.5-6.92c-4.5-3.618-17.03-11.841-24.483-12.808A7.007,7.007,0,0,0,232.757,201.627Z"/><path class="cf" d="M254.565,289.54c3.827.154,8.814-1.087,10.76-4.929.624-13.885-5-26.234-4.826-34.062.158-7.182,9.376-23.709,5.652-33.27-.663-1.7-1.824-2.526-3.14-3.583-2.14-1.72-8.386-4.676-12.747-6.9l.113,2.327a30.864,30.864,0,0,1,7.485,6.24c-8.655,8.214-3.832,30.83-2.617,40.139C256.284,263.456,254.729,278.464,254.565,289.54Z"/><path class="ch" d="M233.244,203.96c1.034,8.864,11.112,12.595,21.9,11.935-5.661,9.322-4.477,27.291-2.712,40.885,1.2,9.255,1.463,23.137,1.38,31.4A39.177,39.177,0,0,1,241.942,285c-3.12-12.217-2.386-22.664-1.736-34.356-2.372,10.253-2.267,21.892-2.7,31.811a51.268,51.268,0,0,1-9.979-5.748c-1.038-14.837,4.108-30.235,3.674-33.783C229.511,229.065,220.9,207.843,233.244,203.96Z"/><path class="cg" d="M243.846,289.776l6.385,2.831c-.094,9.62-.26,26.906-1.277,37.133-2.562,6.53-1.873,33.09-1.383,41.762a7.844,7.844,0,0,1-3.973-1.079c-.33-16.249-2.139-37.022,1.525-42.167A286.815,286.815,0,0,0,243.846,289.776Z"/><path class="cf" d="M234.185,287.023c.1,7.358-.237,22.088-.433,29.445-2.565,3.567-3.617,7.415-4.367,11.661-1.633,9.233-1.622,23.872-2.123,33.192a5.558,5.558,0,0,1-3.966-.658c.568-9.5.92-24.635,2.31-34.078a29.713,29.713,0,0,1,4.091-11.8c.073-8.537-.293-22.8-.505-31.334A18.547,18.547,0,0,0,234.185,287.023Z"/><path class="y" d="M259.005,202.163c-1.035.513-6.29-.232-6.136.238.094,2.909,1.143,4.4,1.07,9.626-6.14,4.378-14.687-.682-14.073-3.828-.048-2.142,1.023-8.106-.056-9.851-1.224-1.978-3.738-4.182-4.629-7.182-1.424-4.793-.9-10.119,3.564-13.668,8.162-6.482,18.6-1.87,21.244,7.611.517,1.85-.943,2.853-.892,4.436.01.31.42.633.753,1.32C260.31,191.815,260.274,201.535,259.005,202.163Z"/><path class="z" d="M258.951,202.11c-1.035.512-6.236-.179-6.082.291.094,2.909,1.143,4.4,1.07,9.626-3.637-5.312-5.17-8.235-13.65-11.172a5.424,5.424,0,0,0-.479-2.507c-1.224-1.978-3.738-4.182-4.629-7.182-1.424-4.793-.9-10.119,3.564-13.668,8.162-6.482,18.6-1.87,21.244,7.611.517,1.85-.943,2.853-.892,4.436.01.31.42.633.753,1.32C260.31,191.815,260.221,201.481,258.951,202.11Z"/><path class="y" d="M258.791,202.163c-.549.295-2.819.1-4.508-.548a7.9,7.9,0,0,1-2-1.389c-.7-.283-2.254-2.489.155-6,2.348-3.426-11.873,5.342-12.626,4.125-1.223-1.978-3.738-4.182-4.629-7.182-1.424-4.793-.9-10.119,3.564-13.668,8.162-6.482,18.6-1.87,21.244,7.611.517,1.85-.943,2.853-.892,4.436.01.31.42.633.753,1.32C260.31,191.815,260.038,201.493,258.791,202.163Z"/><path class="ag" d="M259.032,202.123a4.705,4.705,0,0,1-2.132-.131,6.062,6.062,0,0,1-1.441-3.225c.1-3.123,1.675-5.654,1.667-6.919-.017-2.672-.9-1.341.114-4.228.783-2.217-.245-2.553-.7-4.454a3.007,3.007,0,0,0,1.839-1.847,15.755,15.755,0,0,1,1.606,3.79c.517,1.85-.943,2.853-.892,4.436.01.31.42.633.753,1.32C260.31,191.815,260.247,201.4,259.032,202.123Z"/><path class="z" d="M252.942,194.326c-2.924-2.726-5.747,5.945-1.041,5.854C250.064,198.236,251.459,195.158,252.942,194.326Z"/><path class="ag" d="M252.928,195.592c.438-1.212.069-1.653-.465-1.522a3.448,3.448,0,0,0-1.852,2.241c-.7,2.027.3,4.587,2.261,3.587-1.684.1-1.526-1.931-1.022-3.183C252.193,195.865,252.724,195.263,252.928,195.592Z"/><path class="z" d="M252.154,196.141c.471.877.634,1.4.482,1.7-.1.21-.43.449-.961-.065A3.037,3.037,0,0,1,252.154,196.141Z"/><path class="ah" d="M240.065,199.537c-1.358-2.85-3.767-4.608-4.884-8.371-1.424-4.793-.9-10.119,3.564-13.668,6.414-5.094,14.234-3.336,18.572,2.252.233.36-2.224,1.515-1.41,3.316,1.162,3.052,1.138,4.42.669,5.091-1.819,2.594-1.851,2.964-1.753,6.914l-1.027.83c-.425-3.1-1.8-2.856-3.143-1.821-2.339,1.807-3.238,5.913-7.13,6.718A3.413,3.413,0,0,1,240.065,199.537Z"/><path class="ah" d="M254.784,194.185c.31,1.936.442,3.16,1.283,4.132a4.054,4.054,0,0,0,1.994.654,11.716,11.716,0,0,1,.432-2.134,3.968,3.968,0,0,1,1.663-2.349,2.478,2.478,0,0,1-.077,1.261,3.073,3.073,0,0,0-.641,1.461,6.31,6.31,0,0,0-.233,1.948c.207.02.38.056.524.077.075.011.082-.552.228-.54.068,1.6.09,3.752-.273,3.894a13.064,13.064,0,0,1-4.584-.938c-1.458-.59-1.029-.911-1.165-2.631-.113-1.419-.109-3.026-.3-4.54Z"/><path class="ci" d="M255.569,197.561a3.446,3.446,0,0,0,.5.756,4.054,4.054,0,0,0,1.994.654,11.716,11.716,0,0,1,.432-2.134,3.968,3.968,0,0,1,1.663-2.349,2.478,2.478,0,0,1-.077,1.261,3.073,3.073,0,0,0-.641,1.461,6.31,6.31,0,0,0-.233,1.948c.207.02.38.056.524.077.075.011.082-.552.228-.54.068,1.6.09,3.752-.273,3.894a10.244,10.244,0,0,1-3.376-.536,6.753,6.753,0,0,1-.739-4.492Z"/><path class="cj" d="M241.282,188.1a13.094,13.094,0,0,0,1.039,5.441c.212-1.376.4-2.771.665-4.135.089-.458.189-.909.3-1.357.321,2.036.555,4.1.809,6.142.462-2.176.969-4.369,1.34-6.558.815,1.25,1.046,3.857,1.355,5.463a44.464,44.464,0,0,0,.986-6.033c.875.887,1.121,3.242,1.363,4.534a46.789,46.789,0,0,0,.865-5.034c.549.8.718,2.711.877,3.707a17.437,17.437,0,0,0,.843-3.926c.883,1.536.908,3.311,1.077,5.026a21.938,21.938,0,0,0,.706-5.618,18.478,18.478,0,0,1,1.051,3.163c.091-1.369.215-2.758.2-4.13a7.141,7.141,0,0,1,1.593,3.5c.646-1.371.338-4.076-.489-5.911l-.1-.215-.235.015q-2.079.132-4.158.262-1.369.087-2.74.169c-.444.026-.941.075-1.379.075-.183-.007-.41-.046-.594-.07-.444-.058-.888-.119-1.332-.18q-1.926-.264-3.852-.542c-1.942-.277-3.785-.754-5.727-1.034-2.709,4.762-.686,9.4.395,11.727a22.088,22.088,0,0,1-.1-4.593,19.711,19.711,0,0,0,1.315,4.277,17.57,17.57,0,0,1,.3-4.314,8.52,8.52,0,0,0,1.328,5.175,15.467,15.467,0,0,1,.231-5.4,19.138,19.138,0,0,0,1.233,6.074A25.8,25.8,0,0,1,241.282,188.1Z"/><path class="ah" d="M235.093,188.075c1.45-1.058,4.753-2.118,10.962-2.557a23.517,23.517,0,0,0,9.9-2.685,5,5,0,0,0,1.652-7.9c-3.206-2.845-11.492-2.548-17.008.293C236.565,177.3,234.339,181.412,235.093,188.075Z"/><path class="ck" d="M235.093,188.075c1.45-1.058,4.753-2.118,10.962-2.557a23.517,23.517,0,0,0,9.9-2.685,5,5,0,0,0,1.652-7.9,5.666,5.666,0,0,0-1.039-.723c-1,7.473-4.717,5.462-12.082,8.05,1.075-1.035.558-.838,1.528-1.447-2.346.844-4.134.7-6.782,2.412.837-.77,1.05-1.233,1.581-1.635a8.307,8.307,0,0,0-5.179,3.576l-.214-3.523A35.515,35.515,0,0,0,235.093,188.075Z"/><path class="ci" d="M258.014,181c-1.211,1.518-6.413-1.991-13.694-.652,1.56-4.809,2.461-5.83,4.648-7.237,2.85-1.834,7.65-1.085,9.156,1.443A6.052,6.052,0,0,1,258.014,181Z"/><path class="ah" d="M247.8,179.618c2.227-2.2,5.592-1.8,8.6-.992-1.741-1.65-5.331-1.03-7.063-.134,2.34-2.173,3.892-2.089,6.836-1.715a6.391,6.391,0,0,0-6.5.442c2.109-2.49,3-2.3,6.085-2.118-2.149-1.15-5.373-.745-6.688.489,1.585-1.854,2.816-2.259,5.75-2.258-2.521-.768-4.472-.69-6.554,1.461,1.63-2.877,5.091-2.891,7.363-1.994a5.538,5.538,0,0,1,3.342,4.783c.049,1.734-.667,2.821-1.163,2.932C255.457,181.043,254.27,179.116,247.8,179.618Z"/><path class="cl" d="M240.284,202.331c-.664-.094-1.282-.446-1.985-.6-1.584.561-2.3,5.066-1.707,6.442,1.275,2.939,5.094,4.793,9.866,5.723,5.805,1.132,13.572-1.858,15.319-.991.307.152-5.342-3.185-5.971-3.3C250.041,208.513,239.129,208.347,240.284,202.331Z"/><path class="cm" d="M240.163,203.272c.2,2.819,8.129,5.094,13.315,3.189l-.092-.548c.582.434,2.679,3.974,2.7,5.239-5.614,1.338-14.949.66-17.095-3.732C238.524,206.459,239.1,204.468,240.163,203.272Z"/><path class="cg" d="M264.025,215.364c4.507,3.089,6.392,21.74,7.645,33.527.222,1.914-.085,5.164-2.877,6.564-2.074,1.041-6.539.565-7.679-3.325-1.674-5.713-3.981-13.589-4.588-18.449-.664-5.32-3.792-15.222,3.762-18.609A4.955,4.955,0,0,1,264.025,215.364Z"/><path class="cf" d="M265.006,215.673c3.879,2.586,4.918,14.938,5.842,24.635-1.18,3.484-1.745,5.81-4.44,8.868,2.982-7.889-2.987-29.1-5.288-34.3A4.792,4.792,0,0,1,265.006,215.673Z"/><path class="ag" d="M293.009,225.148c-2.692,1.389-3.169.834-4.839,1.131-2.938.523-2.74,1.857-3.927,2.931-.92.834-2.843,1.57-3.443,2.453-.992,1.458,1.928,4.5,3.983,5.16l4.624-2.586c3.671-.6,7.631-1.8,9.142-3.359,1-1.028,2.941-9.1,1.884-10.183-1.226-1.254-2.449-1.069-3.327-.019C296.7,221.167,293.782,224.286,293.009,225.148Z"/><path class="y" d="M282.513,235.424a6.851,6.851,0,0,0,2.27,1.4l4.624-2.586c3.671-.6,7.631-1.8,9.142-3.359,1-1.028,2.942-9.1,1.884-10.183-1.235.04-1.281,3.732-1.361,4.308-.306.858-.692,1.449-.874,2.184a6.522,6.522,0,0,1-3.418,4.128c-4.521,1.6-4.575-.549-9.264,2.93-.877.651-.758-.386-2.07.8Z"/><path class="z" d="M296.39,230.49c.354-.573,1.538-2.177,1.517-2.781a1.222,1.222,0,0,0-1.163-1.112c-.9-.034-2.331,2.193-3.363,2.831-4.457-.673-3.578-1.34-7.662,1.062,1.976-2.59,2.414-2.6,5.2-3.117.946-.175,1.637-.372,1.833-1.51.387.744.624,1.724,1.467,1.543.86-.186,2.673-2.908,4.2-.582C298.859,227.5,296.8,229.871,296.39,230.49Z"/><path class="cg" d="M264.219,244.567l17.42-14.956c4.121-2.322,8.162,4.556,6.7,7.224l-17.48,17.332c-2.631,1.664-4.922,2.029-6.372,1.29-1.727-.879-2.364-3.224-2.386-5.435A7.986,7.986,0,0,1,264.219,244.567Z"/><path class="cf" d="M286.844,231.071c1.517,1.783,2.365,4.328,1.5,5.764l-15.619,15.586c-1.572,1.559-2.591,2.779-4.866,3.383a6.016,6.016,0,0,1-5.083-1.216C267.314,255.057,282.485,239.652,286.844,231.071Z"/><path class="cn" d="M278.35,367.357v2.336l3.034-1.978v-1.971Z"/><path class="co" d="M283.212,367.934l-6.686,4.144v-5.149l6.686-3.571v4.576Zm-1.827-2.191-3.035,1.614v2.336l3.035-1.979Z"/><path class="cp" d="M279.37,344.738c.033-.018.07-.039.1-.057v-4.207l-1.055.6V344.2Z"/><path class="cq" d="M267.006,348.3v1.724l1.5.781v-5.622l12.148-7.01c-.053-.205-1.5-.308-1.5-.308l-12.151,7.028Z"/><path class="cr" d="M280.659,340.57v-2.4l-12.148,7.01v5.622h.009c.46-.265.924-.534,1.421-.806l-.055-.1v-3.9l8.528-4.933,1.055-.6v4.207c.447-.247.853-.474,1.19-.658Z"/><path class="cp" d="M255.142,360.326v.025l3.7,2.092.046-2.017-3.749-1.943Z"/><path class="cq" d="M254.116,357.951v2.87l1.026-.5v-1.844Z"/><path class="cq" d="M254.116,360.821v.138l4.7,2.711.03-1.228-3.7-2.092v-.025Z"/><path class="cq" d="M273.4,372.078l-12.505-11.915-1-.527-.11.067.009,1.189.807.424L270.9,371.4Z"/><path class="cs" d="M280.659,344.023c-.337.184-.743.411-1.19.658v.11l-.1-.053-.956-.542V341.84c-2.694,1.532-5.63,3.188-8.528,4.833V349.9l.055.1c-.5.272-.961.541-1.421.806h-.009l-1.5-.781V348.3c-7.427,4.211-13.817,7.831-13.817,7.831l6.7,3.5c2.091-1.182,33.26-18.844,36.062-20.44l.142.053.074-.162c-.014-.188-6.594-3.567-6.594-3.567s-3.781,2.134-8.916,5.05Z"/><path class="ct" d="M295.676,340.265l.419-1.016-.142-.053c-2.8,1.6-33.971,19.258-36.062,20.44l1,.527L273.4,372.078l3.13-1.894v-3.255l6.686-3.571v2.771c1.216-.743,2.04-1.249,2.04-1.249Z"/><path class="ct" d="M255.142,358.482l-1.026-.531v3.008l4.7,2.711.03-1.228.046-2.017ZM260,392.106l-6.585-3.567-.228-32.407,6.7,3.5-.11.067.009,1.189Z"/><path class="cr" d="M259.79,360.892,260,392.106l35.626-20.495.048-31.346L285.252,364.88s-.824.506-2.04,1.249v1.8l-6.686,4.144v-1.894l-3.13,1.894-2.5-.677-10.3-10.085Z"/></g></svg>