<svg xmlns="http://www.w3.org/2000/svg" width="108.525" height="94.682" viewBox="0 0 108.525 94.682"><defs><style>.a{fill:#00b7d1;}.b{fill:#fff;}</style></defs><g transform="translate(-181.053 -22.803)"><path class="a" d="M289.54,44.719a21.091,21.091,0,0,0-4.508-13.178,21.9,21.9,0,0,0-17.983-8.707c-10.587-.059-21.175-.015-31.763-.015s-21.175-.021-31.762.01a21.705,21.705,0,0,0-12.1,3.345c-6.488,4.246-10.2,10.215-10.3,18.037-.145,11.515-.025,23.033-.047,34.55a19.619,19.619,0,0,0,2.466,9.762c4.177,7.455,10.484,11.564,19.147,11.715,3.636.063,7.274.012,10.911.01a2.107,2.107,0,0,1,1.575.454q5.321,4.863,10.665,9.7c2.121,1.929,4.209,3.9,6.358,5.792a4.254,4.254,0,0,0,5.752.321q8.057-7.252,16.045-14.58a5.477,5.477,0,0,1,4.157-1.728,90.443,90.443,0,0,0,12.234-.093,21.859,21.859,0,0,0,19.155-21.446Q289.617,61.691,289.54,44.719Z"/><circle class="b" cx="3.716" cy="3.716" r="3.716" transform="translate(240.27 52.315)"/><circle class="b" cx="3.716" cy="3.716" r="3.716" transform="translate(222.928 52.315)"/><path class="b" d="M235.291,37.45a24.787,24.787,0,1,0,.024,0Zm.024,44.595a19.82,19.82,0,1,1,19.82-19.82A19.82,19.82,0,0,1,235.315,82.045Zm0-9.91a9.909,9.909,0,0,1-8.547-4.955h-4.137a13.613,13.613,0,0,0,25.369,0h-4.137A9.911,9.911,0,0,1,235.315,72.135Z"/></g></svg>