<svg xmlns="http://www.w3.org/2000/svg" xmlns:xlink="http://www.w3.org/1999/xlink" width="695.725" height="1179.818" viewBox="0 0 695.725 1179.818"><defs><style>.a{fill:#fbc6a6;}.b{fill:#f48b72;}.c{fill:#1a1f39;}.d{fill:#6dcbe0;}.e{fill:#e8e8e8;}.f{fill:#e4e4e4;}.g{fill:url(#a);}.h{fill:#fff;}.i{fill:#b7b7b7;}.j{fill:url(#b);}.k{fill:url(#c);}.l{fill:#8e6855;}.m{fill:#ccc6c6;}.n{fill:#3e9faf;}.o{fill:#0e1019;}.p{fill:#5b72b6;}.q{fill:#72cbd7;}.r{fill:#d7dce5;mix-blend-mode:multiply;isolation:isolate;}.s{fill:#00b5cf;}.t{fill:none;stroke:#fff;stroke-linecap:round;stroke-miterlimit:10;}.u{fill:#00b7d1;}.v{fill:#727373;}.w{fill:url(#d);}.x{fill:url(#e);}</style><linearGradient id="a" x1="0.558" y1="-0.103" x2="0.086" y2="2.99" gradientUnits="objectBoundingBox"><stop offset="0.004" stop-color="#00b5cf"/><stop offset="1" stop-color="#008f9a"/></linearGradient><linearGradient id="b" x1="0.593" y1="-0.988" x2="-0.089" y2="1.589" gradientUnits="objectBoundingBox"><stop offset="0.001" stop-color="#808184"/><stop offset="0.991" stop-color="#231f20"/></linearGradient><linearGradient id="c" x1="-151.262" y1="160.959" x2="-151.084" y2="158.5" gradientUnits="objectBoundingBox"><stop offset="0.002" stop-color="#a6a8ab"/><stop offset="0.989" stop-color="#e6e7e8"/></linearGradient><linearGradient id="d" x1="2.097" y1="11.433" x2="0.667" y2="12.844" gradientUnits="objectBoundingBox"><stop offset="0" stop-color="#404041"/><stop offset="0.991" stop-color="#231f20"/></linearGradient><linearGradient id="e" x1="-19.117" y1="79.416" x2="-18.943" y2="76.983" xlink:href="#c"/></defs><g transform="translate(-1487.167 -6514)"><g transform="translate(1799.288 6598.59)"><g transform="translate(0 174.13)"><path class="a" d="M492.115,313.53c-10.092-19.853-30.84-60.148-38.427-75.187s-2.014-4.812-7.094-15.036c1.5-1.556,2.105-4.84,3.261-7.061.1-14.714.209-29.233.341-44.01-3.522.4-4.631,2.087-5.888,6.048s-3.219,11.171-4.688,15.713c-7.945-16.335-15.875-33.322-23.791-49.56a2.7,2.7,0,0,0-3.684-1.624,2.836,2.836,0,0,0-1.967,3.995c4.26,11.915,8.959,24.465,13.363,36.526-9.594-11.211-19.4-22.821-28.942-33.878a2.43,2.43,0,0,0-3.731-.334,2.351,2.351,0,0,0-.515,3.518c7.5,11.213,15.581,22.691,23.326,33.911-8.823-9.688-17.893-19.67-26.531-29.346a2.079,2.079,0,0,0-3.367.059,1.749,1.749,0,0,0-.12,2.5c7.644,11.664,15.8,23.356,23.716,34.952q-13.291-9.6-26.6-19.2c-.106.345-.364.724-.451,1.05a4.247,4.247,0,0,0,.907,4.577c6.154,7.536,14.761,14.557,20.285,22.5s8.116,16.843,13.135,25.018a9.1,9.1,0,0,0,6.288,4.371h0c23.871,33.171,35.909,86.651,50.6,120.764,7.714,17.919,17.026,13.83,29.423,18.793,4.742,1.9,9.937-3.63,12.736-6.119,4.474-3.978,6.591-8.786,9.321-13.678-.158-13.039-.221-26.061-.322-39.055C512.435,313.532,502.724,314.394,492.115,313.53Z" transform="translate(-380.035 -142.598)"/></g><path class="b" d="M397.443,182.9l13.513-3.167-1.506,22.892Z" transform="translate(-356.539 81.655)"/><path class="c" d="M572.854,230.446c2.827-10.459,7.489-31.766,11.774-69.949,6.732-59.974-17.99-86.491-45.345-78.542,0,0-24.893-31.867-72.409,2.451-41.531,30-12.646,115.031-.858,147.5C488.057,222.647,526.776,213.07,572.854,230.446Z" transform="translate(-292.05 -68.491)"/><path class="a" d="M566.374,193.776l-11.647,14.573-42.981,29.741-58.609-38.423c36.451-17.491,39.33-27.276,37-49.777-.183-1.983-.444-4.053-.7-6.262-.651-5.313-1.389-11.269-2.011-18.114,0,0,42.979-28.9,40.589,2.7-.146,1.776-.261,3.527-.35,5.223-.7,12.2-.331,22.21,1.532,30.267,2.491,10.727,7.639,18.034,16.476,22.494C562.062,194.488,566.374,193.776,566.374,193.776Z" transform="translate(-281.369 -7.832)"/><path class="b" d="M508.344,152.931c-24.125,2.636-34.727-7.176-39.06-13.816-.183-1.983-.444-4.053-.7-6.262,7.747-2.568,35.469-11.678,36.127-11.431.085.031.876.475,2.1,1.243C506.107,134.864,506.48,144.873,508.344,152.931Z" transform="translate(-260.518 2.943)"/><path class="a" d="M456.774,131.376s-8.217,4.037-4.6,15.988,16.631,10.964,16.631,10.964,7.78,40.986,45.385,46.29c0,0,27.673-5.113,35.572-44.032,0,0,12.724-1,15.729-12.714s-8.384-15.865-8.384-15.865,2.472-54.131-47.645-55.886-48.877,53.369-48.877,53.369Z" transform="translate(-283.907 -58.25)"/><g transform="translate(213.969 106.378)"><path class="b" d="M485.18,123.067a28.756,28.756,0,0,1-13.457-3.663,1.174,1.174,0,1,1,1.095-2.077c8.32,4.378,14.754,3.684,18.687,2.333,4.521-1.553,7.056-4.354,7.331-4.965a1.115,1.115,0,0,1,1.3-.923,1.243,1.243,0,0,1,.985,1.407c-.167,1.217-2.712,3.788-6.1,5.527A21.406,21.406,0,0,1,485.18,123.067Z" transform="translate(-471.096 -113.763)"/></g><ellipse class="c" cx="4.639" cy="3.093" rx="4.639" ry="3.093" transform="translate(241.167 82.406) rotate(-87.994)"/><ellipse class="c" cx="4.639" cy="3.093" rx="4.639" ry="3.093" transform="translate(200.036 83.821) rotate(-87.994)"/><path class="c" d="M457.36,99.675l3.318,19.333,3.813-21.937Z" transform="translate(-275.668 -29.916)"/><path class="c" d="M520.753,94.512s7.8,16.636,21.3,30.138l2.227,23.291,5.219-18.655,3.191,5.09,2.77.132s7.47-60.184-52.34-60.184-47.561,57.839-47.561,57.839l7.959-1,4.793-3.388,1.405-10.663" transform="translate(-279.49 -60.619)"/><path class="c" d="M478.347,92.533l.129,4.3,25.99-.106S502.025,92.594,478.347,92.533Z" transform="translate(-247.341 -36.041)"/><path class="c" d="M487.113,92.533l-.127,4.3-25.993-.106S463.434,92.594,487.113,92.533Z" transform="translate(-270.764 -36.041)"/><path class="b" d="M454.695,101.534a14.028,14.028,0,0,0,1.168,13.276c4.425,6.69,7.716-1.039,7.716-1.039S457.994,100.669,454.695,101.534Z" transform="translate(-280.822 -23.948)"/><g transform="translate(171.049 76.675)"><path class="c" d="M464.634,117.161a1.18,1.18,0,0,1-1.147-.923c-.667-3.026-3.128-11.192-6.457-12.583a2.483,2.483,0,0,0-2.4.317,1.173,1.173,0,1,1-1.25-1.986,4.8,4.8,0,0,1,4.559-.5c5.042,2.11,7.571,13.008,7.843,14.244a1.178,1.178,0,0,1-1.149,1.429Z" transform="translate(-452.83 -101.122)"/></g><path class="b" d="M503.669,102.925a14.028,14.028,0,0,1-2.1,13.161c-4.88,6.365-7.625-1.574-7.625-1.574S500.438,101.833,503.669,102.925Z" transform="translate(-226.284 -22.104)"/><g transform="translate(266.273 79.866)"><path class="c" d="M494.531,117.9a1.252,1.252,0,0,1-.331-.047,1.172,1.172,0,0,1-.794-1.459c.355-1.215,3.642-11.911,8.818-13.664a4.811,4.811,0,0,1,4.514.815,1.174,1.174,0,1,1-1.386,1.9,2.449,2.449,0,0,0-2.373-.484c-3.421,1.158-6.443,9.126-7.319,12.1A1.174,1.174,0,0,1,494.531,117.9Z" transform="translate(-493.356 -102.481)"/></g><g transform="translate(179.356 94.117)"><circle class="d" cx="2.337" cy="2.337" r="2.337"/><circle class="d" cx="1.981" cy="1.981" r="1.981" transform="translate(87.289 2.693)"/></g><path class="a" d="M538.043,413.131l-1.762,22.111L519.057,651.417H490.766l-4.253-217.89-.376-19.5Z" transform="translate(-236.827 396.679)"/><path class="a" d="M515.253,418.939l-.023,18.4L515.041,664.6h-28.29L462.76,435.082l-3.313-31.721Z" transform="translate(-272.851 383.492)"/><path class="b" d="M459.447,403.361l55.806,15.579.158,25.276c-.27.028-46,.172-52.152.515Z" transform="translate(-272.851 383.492)"/><path class="b" d="M538.042,413.131l-1.762,22.111c-19.926-.775-42.53-1.621-49.767-1.715l-.376-19.5Z" transform="translate(-236.827 396.679)"/><path class="e" d="M535.629,512.69l-32.783.7-4.5,8.217-17.36,16.716s-33.218-3.106-34.825,25.182h91.047s6.849-22.1-.254-34.475Z" transform="translate(-290.783 531.056)"/><path class="f" d="M621.235,615.879c-1.269,10.433-2.514,19.62-3.713,28.267l-69.881,1.2L545.832,633.9l-.235-1.5-65.487.611c-11.232-75.685-23.521-157.032-34.024-203.6-.611-2.82-1.245-5.5-1.856-8.036-3.008-12.36-5.216-21.97-6.274-27.962-8.318-47.746,42.46-144.085,42.46-144.085L610,256.135s37.2,73.993,42.319,106.043C657.444,394.182,636.132,493.387,621.235,615.879Z" transform="translate(-303.101 175.58)"/><path class="g" d="M509.121,144.17s32.029,22.933,61.286-1.687c0,0,26.911,8.9,32.135,12.32s36,18.619,44.743,21.281a9.729,9.729,0,0,1,7.219,10.98l-14.82,41.247-4.246,43.216s-6.774,20.9-3.734,32.837,2.756,18.946.618,26.653-3.278,5.047-2.519,15.308,13.4,16.274,10.983,23.2-5.7,7.982-3.8,17.482-3,9.1-6.422,13.657-3.278,15.313-1.191,19.785-16.9,11.756-31.6,12.517-25.878,11.02-45.752,0-14.282-34.64-30.2-32.36-15.668,7.6-28.523,5.32-26.357-2.594-27.186-7.914,1.431-50.547,7.512-63.088,10.351-16.46,3.858-30.361-3.858-9.54-4.62-20.179-.233-9.122-3.536-16.34-39.447-69.679-39.447-69.679S474.854,158.1,509.121,144.17Z" transform="translate(-312.764 31.378)"/><path class="h" d="M526.581,180.9l-.444,4.072-3.341,1.464.444-4.072Zm-4,7.131-.444,4.072,3.341-1.464.444-4.074Zm-4.15-3.468-.446,4.072,3.341-1.464.444-4.074Zm13.269-6.34-1.638,14.162a4.884,4.884,0,0,1-2.907,3.912l-13.053,5.656a4.861,4.861,0,0,1-4.848-.562l-11.422-8.487a4.9,4.9,0,0,1-1.929-4.474l1.64-14.159a4.893,4.893,0,0,1,2.9-3.915l13.06-5.653a4.889,4.889,0,0,1,4.847.562l11.415,8.485A4.89,4.89,0,0,1,531.7,178.228Zm-28.439,5.952.5-4.065-2.921-2.19-.5,4.065Zm4.178,3.238.5-4.067-2.914-2.188-.5,4.065Zm22.139-9.434a2.75,2.75,0,0,0-1.088-2.512l-11.415-8.487a2.718,2.718,0,0,0-2.723-.315L501.3,172.323a2.729,2.729,0,0,0-1.344,1.269.958.958,0,0,1,.3.148l13.017,9.822a.956.956,0,0,1,.364.851l-1.788,15.793a2.726,2.726,0,0,0,1.408-.211l13.053-5.653a2.754,2.754,0,0,0,1.631-2.2Zm-7.792-3.292-6.079-4.514a.817.817,0,0,0-.811-.094l-6.9,3.008a.815.815,0,0,0-.16,1.4l6.079,4.514a.817.817,0,0,0,.811.094l6.9-3.008A.815.815,0,0,0,521.79,174.692Z" transform="translate(-223.681 60.835)"/><g transform="translate(194.039 253.291)"><rect class="i" width="129.154" height="115.39" rx="4.419" transform="translate(113.301 0) rotate(79.082)"/><rect class="j" width="129.154" height="115.39" rx="4.419" transform="translate(114.479 6.104) rotate(79.082)"/><ellipse class="c" cx="1.908" cy="1.458" rx="1.908" ry="1.458" transform="translate(14.026 20.743) rotate(-10.918)"/><ellipse class="c" cx="1.908" cy="1.458" rx="1.908" ry="1.458" transform="translate(24.743 18.676) rotate(-10.918)"/><ellipse class="c" cx="1.908" cy="1.458" rx="1.908" ry="1.458" transform="translate(35.46 16.609) rotate(-10.918)"/><ellipse class="c" cx="1.908" cy="1.458" rx="1.908" ry="1.458" transform="translate(72.154 9.531) rotate(-10.918)"/><ellipse class="c" cx="1.908" cy="1.458" rx="1.908" ry="1.458" transform="translate(82.871 7.463) rotate(-10.918)"/><ellipse class="c" cx="1.908" cy="1.458" rx="1.908" ry="1.458" transform="translate(93.588 5.396) rotate(-10.918)"/><path class="k" d="M496.2,205.97l-6.156,4.267a4.229,4.229,0,0,0-1.744,4.277l.806,4.187a4.231,4.231,0,0,0,3.21,3.322l7.3,1.671a4.224,4.224,0,0,0,3.351-.646l6.159-4.267a4.229,4.229,0,0,0,1.744-4.276l-.808-4.19a4.228,4.228,0,0,0-3.21-3.32l-7.3-1.671A4.226,4.226,0,0,0,496.2,205.97Z" transform="translate(-428.045 -137.24)"/></g><path class="a" d="M597.909,212.03l7.639,38.352-74.162,9.331s-14.275-5.9-16.775-15.64-19.456-12.04-22.083-18.1c0,0-3.8,2.991-1.619,5.623s12.66,11.518,12.592,13.5-1.3,4.782-3.583,4.986-17.705,2.787-19.122,2.737-5.684.085-5.684.085l-1.5-5.731s-5.489,2.648-4.483,6.375c0,0-2.632,2.178-2.134,4.185s3.673,24.834,10.675,27.635,33.592,5.719,41.966,1.753,13.509-4.638,13.509-4.638,106.311,5.144,110-2.961-9.274-74.745-9.274-74.745" transform="translate(-262.749 115.47)"/><g transform="translate(180.644 172.774)"><g transform="translate(5.421)"><path class="c" d="M503.48,224.516c-.374,0-.75-.007-1.128-.019-17.564-.616-30.594-14.028-37.683-38.782a157.305,157.305,0,0,1-5.449-37.154,1.177,1.177,0,0,1,1.168-1.182h.007a1.174,1.174,0,0,1,1.175,1.17c0,.721.879,72.2,40.864,73.6a24,24,0,0,0,18.922-7.613c18.812-19.672,14.97-70.734,14.93-71.248a1.175,1.175,0,0,1,2.343-.188c.169,2.138,3.964,52.624-15.572,73.058A26.151,26.151,0,0,1,503.48,224.516Z" transform="translate(-459.221 -142.02)"/></g><path class="h" d="M468.924,154.563l-8.107,2.284a2.5,2.5,0,0,0-1.748,1.79l-2.077,8.165a2.5,2.5,0,0,0,.679,2.406l6.032,5.881a2.5,2.5,0,0,0,2.423.618l8.109-2.284a2.5,2.5,0,0,0,1.746-1.79l2.079-8.163a2.508,2.508,0,0,0-.679-2.408l-6.032-5.881A2.5,2.5,0,0,0,468.924,154.563Z" transform="translate(-456.914 -125.218)"/><path class="h" d="M469.245,163.4l-7.033,4.638a2.506,2.506,0,0,0-1.121,2.237l.5,8.41a2.5,2.5,0,0,0,1.377,2.087l7.533,3.771a2.5,2.5,0,0,0,2.5-.148l7.033-4.638a2.5,2.5,0,0,0,1.118-2.237l-.5-8.407a2.5,2.5,0,0,0-1.379-2.089l-7.531-3.771A2.506,2.506,0,0,0,469.245,163.4Z" transform="translate(-451.281 -113.719)"/><path class="h" d="M472.084,171.55l-4.464,7.143a2.5,2.5,0,0,0-.087,2.5l3.955,7.439a2.5,2.5,0,0,0,2.119,1.325l8.419.294a2.5,2.5,0,0,0,2.209-1.173l4.467-7.143a2.508,2.508,0,0,0,.087-2.5L484.833,172a2.5,2.5,0,0,0-2.122-1.325l-8.419-.3A2.5,2.5,0,0,0,472.084,171.55Z" transform="translate(-442.978 -103.752)"/><path class="h" d="M477.44,181.391l3.41,7.7a2.5,2.5,0,0,0,2.021,1.473l8.374.9a2.5,2.5,0,0,0,2.289-1.01l4.967-6.8a2.5,2.5,0,0,0,.268-2.486l-3.409-7.7a2.5,2.5,0,0,0-2.021-1.476l-8.374-.9a2.51,2.51,0,0,0-2.289,1.013l-4.967,6.8A2.511,2.511,0,0,0,477.44,181.391Z" transform="translate(-429.496 -102.807)"/><path class="h" d="M485.1,180.317l6.73,5.068a2.5,2.5,0,0,0,2.481.3l7.754-3.292a2.509,2.509,0,0,0,1.506-2l1.024-8.36a2.5,2.5,0,0,0-.98-2.3l-6.727-5.068a2.5,2.5,0,0,0-2.484-.3l-7.754,3.292a2.5,2.5,0,0,0-1.5,2l-1.025,8.36A2.5,2.5,0,0,0,485.1,180.317Z" transform="translate(-420.214 -112.134)"/><path class="h" d="M491.407,174.236l8.184,1.993a2.5,2.5,0,0,0,2.4-.7l5.818-6.09A2.5,2.5,0,0,0,508.4,167l-2.366-8.083a2.507,2.507,0,0,0-1.809-1.729L496.04,155.2a2.494,2.494,0,0,0-2.4.7l-5.82,6.09a2.506,2.506,0,0,0-.59,2.432l2.366,8.083A2.5,2.5,0,0,0,491.407,174.236Z" transform="translate(-416.131 -124.333)"/></g><g transform="translate(267.505 371.895)"><path class="l" d="M504.264,254.5l-7.3-.256a1.65,1.65,0,0,1-1.593-1.708l.82-23.439a1.654,1.654,0,0,1,1.492-1.586l7.587-.743a1.653,1.653,0,0,1,1.812,1.72l-1.109,24.435A1.654,1.654,0,0,1,504.264,254.5Z" transform="translate(-491.868 -226.763)"/><circle class="h" cx="8.981" cy="8.981" r="8.981" transform="translate(0 8.442)"/><circle class="c" cx="0.948" cy="0.948" r="0.948" transform="translate(1.348 16.239)"/><circle class="c" cx="0.948" cy="0.948" r="0.948" transform="translate(14.55 16.701)"/><circle class="c" cx="0.948" cy="0.948" r="0.948" transform="translate(8.181 9.869)"/><circle class="c" cx="0.948" cy="0.948" r="0.948" transform="translate(7.718 23.071)"/><rect class="c" width="5.399" height="1.007" transform="translate(8.628 17.104) rotate(2.006)"/><rect class="c" width="8.146" height="1.007" transform="translate(9.426 17.289) rotate(92.006)"/></g><path class="h" d="M530.458,513.643l1.344,12.339s11.333,10.308,11.333,37.483l-64.181-.254s-1.527-18.4,17.823-38.829l1.511-11.657Z" transform="translate(-246.56 531.102)"/><path class="m" d="M540.633,548.733l.056,7.23-65.487.611c-11.232-75.685-23.812-165.766-34.315-212.338l94.365-31.815Z" transform="translate(-297.902 260.748)"/><path class="n" d="M502.556,262.765c-1.154-6.873.181-13.753,3.583-22.752s-19.677-66.826-41.273-73.746c0,0-10.043,13.847-11.643,43.089-.961,17.59-1.476,36-1.476,36s-7.909-21.932-18.326-22.1-27.1,8.135-29.087,14.43,4.354,10.755,4.589,15.919,1.645,38.968,12.912,50.47,15.024,27.532,25.821,32.076,17.482,10,20.891,8.534c2.549-1.1,30.239-3.616,28.4-24.512-2.094-23.847,3.426-22.849,3.973-30.906C501.544,280.216,502.556,262.765,502.556,262.765Z" transform="translate(-347.754 63.479)"/><g transform="translate(216.176 75.402)"><path class="b" d="M479.048,126.156a6.376,6.376,0,0,1-5.27-2.265c-4.709-5.858,1.541-20.9,2.27-22.6a1.175,1.175,0,1,1,2.159.928c-1.823,4.248-5.844,16.161-2.6,20.2,1.041,1.295,2.827,1.685,5.454,1.177a1.176,1.176,0,0,1,.439,2.31A13.162,13.162,0,0,1,479.048,126.156Z" transform="translate(-472.036 -100.581)"/></g><path class="d" d="M434.445,194.583l-3.811-7.068s-24.966,9-27.44,14.458l2.164,7.04S411.221,201.519,434.445,194.583Z" transform="translate(-348.777 92.159)"/><path class="o" d="M461.307,254.6l-6.847,16.683h44.513L494.744,254.6Z" transform="translate(-279.581 182.706)"/><g transform="translate(238.638 22.76)"><path class="c" d="M504.484,123.407a11.682,11.682,0,0,1-2.056-.564c-15.078-5.663-20.6-42.756-20.833-44.332l2.326-.334c.054.369,5.548,37.293,19.336,42.464,3.8,1.436,8.043.181,12.587-3.72l1.532,1.783C512.893,122.552,508.565,124.128,504.484,123.407Z" transform="translate(-481.595 -78.177)"/></g><g transform="translate(85.27 170.831)"><path class="n" d="M450.383,318.516l-46.054,7.134-19.709-73.637c-.057-2.064.258-53.314,19.778-81.089a25.154,25.154,0,0,1,5.1,3.669C418.472,184.282,450.383,318.516,450.383,318.516Z" transform="translate(-152.049 -132.872)"/></g></g><g transform="translate(1487.167 6514)"><g transform="translate(144.283 552.189)"><path class="b" d="M535.3,518.848l7.444,36.971,31.16-18.758L568.3,511.9Z" transform="translate(-462.281 31.555)"/><path class="b" d="M612.177,522.823l5.78,19.044,35.492-7.253L644.186,506.2Z" transform="translate(-358.52 23.858)"/><path class="c" d="M504.225,314.967s29.421,303.347,75.14,531.48l32.163-6.036s-15.019-283.751-7.973-470.265l12.91-.646,141.975,463.5,35.965-6.744L705.761,293.2S588.9,253.573,504.225,314.967Z" transform="translate(-504.225 -280.616)"/><path class="o" d="M703.41,285.385l12.911,64.1-207.189-6.106-4.635-28.31Z" transform="translate(-503.857 -274.18)"/><path class="c" d="M544.062,529.338l1.295,7.766s-13.067,13.718-13.067,44.518l72.745-.289s-.813-26.4-22.745-49.548l-4.321-9.176Z" transform="translate(-466.345 46.007)"/><path class="c" d="M614.637,525.545l35.49-7.254,5.491,18.041L676.8,556.726s40.523-3.792,42.483,30.718H623.164s-7.333-17.677-6.292-42.69Z" transform="translate(-355.199 40.18)"/><rect class="p" width="51.823" height="15.86" rx="1.53" transform="matrix(0.98, -0.201, 0.201, 0.98, 65.062, 553.094)"/><rect class="p" width="51.618" height="15.798" rx="1.53" transform="matrix(0.98, -0.201, 0.201, 0.98, 245.129, 544.934)"/></g><g transform="translate(166.307 8.388)"><path class="a" d="M549.5,129.6s10.254,46.814-19.172,50.38,17.834,38.343,55.285,33.885,48.151-30.319,48.151-30.319-32.992,6.687-28.533-53.947S549.5,129.6,549.5,129.6Z" transform="translate(-503.438 22.981)"/><path class="b" d="M538.633,116.91l48.7.594s-1.4,23.114,2.427,34.2c0,0-47.981,5.646-53.426-23.384S538.633,116.91,538.633,116.91Z" transform="translate(-485.532 35.077)"/><path class="a" d="M528.02,118.805s-16.079,4.255-8.985,21.989,17.5,12.3,17.5,12.3l2.129,14.66s6.149,33.874,50.127,34.285c38.141.357,37.123-46.109,37.123-46.109s17.024-2.127,17.024-22.461S630.639,116.2,630.639,116.2s-2.366-52.493-50.6-52.493S528.02,118.805,528.02,118.805Z" transform="translate(-508.7 -29.577)"/><path class="h" d="M567.673,104.269c-14.8,10.106-29.118.491-29.118.491s.331,8.807,13.765,9.476C566.261,114.932,567.673,104.269,567.673,104.269Z" transform="translate(-479.913 25.165)"/><ellipse class="c" cx="2.611" cy="3.917" rx="2.611" ry="3.917" transform="translate(52.755 101.267)"/><ellipse class="c" cx="2.611" cy="3.917" rx="2.611" ry="3.917" transform="translate(95.282 101.267)"/><ellipse class="c" cx="10.652" cy="3.334" rx="10.652" ry="3.334" transform="translate(44.59 83.161) rotate(-4.538)"/><ellipse class="c" cx="3.334" cy="10.652" rx="3.334" ry="10.652" transform="translate(87.36 88.122) rotate(-85.462)"/><path class="c" d="M532.917,138.412a6.128,6.128,0,0,0,5.317,2.744s-1.8,10.609,5.4,14.026l.719,7.371,4.855,2.338V153.382s-1.525-12.014,2.338-15.642c0,0,7.012-7.554.719-20.14a5.715,5.715,0,0,1-3.285-3.238s14.075,6.293,29.9-14.566a58.1,58.1,0,0,0,4.854,14.747c3.417,6.473,12.588,13.845,15.466,12.407s3.954-8.452,3.236-12.587c0,0,7.192,14.925,13.128,16.363,0,0,2.516-.359,3.057-1.978,0,0,1.257,5.576,4.314,5.395,0,0,2.157-1.079,3.417-5.395,0,0-3.057,8.271-.538,11.868l2.345,4.19-.547,15.05,4.316-3.417.179-5.933s5.435-6.556,3.438-14.7c0,0,6.093-1.128,9.15,3.367,0,0,15.266-7.39,14.03-28.8s-20.172-28.406-20.172-28.406,1.236-31.289-31.7-32.729-39.52,22.435-39.52,22.435-17.292-12.761-31.082-.2-5.353,21.613-5.353,21.613a16.334,16.334,0,0,1-12.557-11.939s-1.029,11.732,6.586,16.88L513.6,106.265l12.35-2.472s-17.186,19.317,3.4,36.2Z" transform="translate(-513.598 -49.184)"/><g transform="translate(73.071 96.905)"><path class="b" d="M545.869,118.671a1.175,1.175,0,0,1-.179-2.336c3.292-.515,5.4-1.863,6.45-4.119,3.219-6.932-4.561-19.874-4.638-20a1.174,1.174,0,1,1,2-1.222c.352.573,8.511,14.145,4.765,22.212-1.379,2.982-4.147,4.817-8.219,5.456A1.183,1.183,0,0,1,545.869,118.671Z" transform="translate(-544.696 -90.425)"/></g><path class="b" d="M520.505,90.739a15.938,15.938,0,0,0,1.854,15.027c5.287,7.42,8.72-1.485,8.72-1.485S524.216,89.625,520.505,90.739Z" transform="translate(-505.754 6.821)"/><path class="b" d="M574.076,89.306s5.146,10.94-.141,18.361-10.221,4.728-10.221,4.728S570.366,88.193,574.076,89.306Z" transform="translate(-445.955 4.919)"/><g transform="translate(11.743 96.661)"><path class="c" d="M532.356,107.88a1.173,1.173,0,0,1-1.137-.881c-.884-3.435-4.032-12.667-7.93-14.141a2.93,2.93,0,0,0-2.86.475,1.175,1.175,0,0,1-1.318-1.946,5.292,5.292,0,0,1,5.01-.728c5.735,2.169,9.018,14.369,9.373,15.755a1.176,1.176,0,0,1-.843,1.431A1.271,1.271,0,0,1,532.356,107.88Z" transform="translate(-518.596 -90.322)"/></g><g transform="translate(117.846 92.487)"><path class="c" d="M564.928,114.608a1.3,1.3,0,0,1-.169-.012,1.177,1.177,0,0,1-1-1.33c.541-3.741,3.508-22.494,8.7-24.51a3.082,3.082,0,0,1,3.221.627A1.174,1.174,0,1,1,574.2,91.2c-.5-.4-.745-.305-.884-.254-2.878,1.118-5.959,13.92-7.223,22.654A1.176,1.176,0,0,1,564.928,114.608Z" transform="translate(-563.751 -88.545)"/></g></g><g transform="translate(0 71.113)"><path class="n" d="M444.619,233.677c.55,1.647,0,20.332,1.65,30.225s17.585,24.731,16.486,28.577,4.946,15.936,19.785,11.539,36.268,2.747,48.36-6.593,42.861-33.056,39.015-80.866-3.543-68.694-3.543-68.694-32.725,2.279-36.021,35.8c0,0-17.122,30.575-30.311,27.828s-16.951,15.586-16.951,15.586Z" transform="translate(-440.394 21.282)"/><path class="a" d="M464.566,188.915c-.51,2.77-24.754,131.317-16.4,135.716s37.838,12.569,44.6,6.936S505.116,301.3,505.116,301.3l4.808-116.079s13.4-5.087,15.266-9.406,18.586-32.821,12.851-36.745-9.653-2.131-9.653-2.131l7.756-54.829a4.561,4.561,0,0,0-3.976-5.167L523.5,75.912a4.557,4.557,0,0,0-5.066,4.018l-4.5,40s-8.485-2.634-11.168-1.692-31.329,10.388-33.552,18.589-10.273,30.577-5.592,35.54C466.613,175.542,464.566,188.915,464.566,188.915Z" transform="translate(-437.965 -75.879)"/><path class="q" d="M442.859,194.619c-1.443,15.069,39.041,15.363,58.6,10.635,14.8-3.576,21.042-17.9,19.324-23.908s-9.159-10.391-9.159-10.391c-19.674,19.237-60.4,12.674-60.4,12.674l.32-4.789S444.4,178.559,442.859,194.619Z" transform="translate(-442.821 52.447)"/><path class="h" d="M561.3,145.613l1.377-9.016,16.389-3.247-4.02,4.175,12.74,14.822,25.816,7.855,29.975-16.013,2.843-12.085,1.974.04,29.856,12.571L723.4,426.02l6.325,77.191s-45.239-9.733-113.931,9.805c-60,17.066-120.663.265-120.663.265s5.677-47.659,1.88-76.131,28.352-148.428,28.352-148.428l7.592-106.295Z" transform="translate(-372.218 0.009)"/><path class="r" d="M497.733,450.786l-1.993,40.335s22.985,5.273,53.781,3.966c32.654-1.384,52.291-10.44,52.291-10.44s-15.337-48.7-11.619-74.263.928-90.161-10.226-118.513-11.744-149.812-5.755-156.41l1.9-1.88-4.624.815-2.85,1.628-12.684,10.529" transform="translate(-371.395 2.004)"/><path class="n" d="M485.929,273.58s-4.042,19.968,2.378,23.3,111.018-5.705,109.354-12.362-7.608-16.4-7.608-16.4Z" transform="translate(-386.331 183.583)"/><path class="s" d="M598.675,454.63s-42.257,5.4-60.052,8.478c-22.351,3.868-55.146,1.494-55.146,1.494s-3.757-39.41,10.078-95.357c4.208-17.019,11.871-63.92,4.923-97.9-6.976-33.984,4.81-99.229,4.81-99.229l82.353-40.35S583.223,347.839,598.675,454.63Z" transform="translate(-388.574 -0.451)"/><path class="q" d="M547.1,222.491c0-1.262-6.386-43.557-35.309-35.624,0,0-4.728-52.963,52.018-64.629,0,0,1.835,16.956-9.23,26.655l-4.624.815-2.85,1.628Z" transform="translate(-349.863 -13.308)"/><path class="r" d="M626.125,297.341l-.966-25.4-53.91-8.156,2.839,24.472c-1.809,2.61-6.38,9.568-2.206,10.959S613.78,302.624,626.125,297.341Z" transform="translate(-270.927 177.742)"/><path class="n" d="M570,270.9s-3.038,17.071,1.786,19.916,80.7-.764,83.157-6.046c3.09-6.657-3.567-18.781-3.567-18.781Z" transform="translate(-272.445 180.714)"/><g transform="translate(102.292 355.806)"><path class="c" d="M488.282,308.73a1.15,1.15,0,0,1-.989-.559c-.282-.463-6.591-11.977,17.745-62.616l7.131-17.52a1.175,1.175,0,0,1,2.176.886l-7.162,17.588c-23.488,48.881-17.924,60.364-17.865,60.475a1.189,1.189,0,0,1-.446,1.589A1.176,1.176,0,0,1,488.282,308.73Z" transform="translate(-486.355 -227.304)"/></g><path class="s" d="M737.837,404.388l-68.784,13.821-2.7-12.8,2.7-3.386L665,401.688c-6.415-.331-9.8-15.835-10.792-25.965-1.017-10.106-7.434-31.364-7.434-31.364l15.529,102.082s-13.962,2.056-42.429,5.658c-20.8,2.634-46.771-.618-46.771-.618s-9.9-49.387-4.761-127.36c3.818-58.041-4.887-131.279-4.887-131.279l7.789-58.219c14.841,10.106,84.975,25.967,84.975,25.967a11.978,11.978,0,0,1,4.582,2.749c12.117,10.766,25.659,49,27.468,84.593,2.009,40.119,35.053,110.94,35.053,110.94l1.018,9.775s2.011,6.058,3.717,8.757c1.68,2.7,1.349,7.763-.688,10.792-2.009,3.055,2.037,5.066,2.037,5.066Z" transform="translate(-279.993 3.409)"/><path class="n" d="M693.69,387.893l-68.784,13.821-2.7-12.8,2.7-3.386-4.049-.331c-6.415-.331-9.232-15.905-10.792-25.965-1.407-9.075-6.626-19.749-6.459-20.191l-7.439-97.471,20.492-94.722c12.118,10.766,25.659,49,27.468,84.593,2.009,40.119,35.053,110.94,35.053,110.94l1.017,9.775s2.011,6.058,3.717,8.757c1.68,2.7,1.349,7.763-.688,10.792-2.009,3.055,2.037,5.066,2.037,5.066Z" transform="translate(-235.846 19.904)"/><path class="q" d="M556.949,122.111c17.966,2.42,38.442,21.794,52.954,45.286,0,0-27.466,8.464-37.659,42.323,0,0-6.88-44.323-2.112-61.746l-5.172-2.343s-1.941-.04-1.953-.059c-1.219-1.882-4.03-7.333-4.688-11.415C557.215,127.309,556.949,122.111,556.949,122.111Z" transform="translate(-288.779 -13.479)"/><g transform="translate(336.979 345.01)"><path class="c" d="M617.926,301.413a.564.564,0,0,1-.092,0,1.169,1.169,0,0,1-1.081-1.259c1.969-25.48-8.447-40.754-18.518-55.526-4.622-6.779-8.99-13.184-11.916-20.29a1.176,1.176,0,1,1,2.176-.9c2.829,6.878,7.129,13.187,11.68,19.865,9.822,14.4,20.953,30.727,18.918,57.026A1.175,1.175,0,0,1,617.926,301.413Z" transform="translate(-586.233 -222.709)"/></g><path class="h" d="M602.432,178.042l.16,4.093-3.087,1.941-.16-4.093Zm-2.9,7.641.16,4.093,3.087-1.939-.16-4.1Zm-4.617-2.82.16,4.093,3.088-1.939-.158-4.1Zm12.2-8.222.46,14.249a4.882,4.882,0,0,1-2.3,4.3L593.193,200.7a4.861,4.861,0,0,1-4.878.157l-12.548-6.715A4.887,4.887,0,0,1,573.2,190l-.463-14.246a4.9,4.9,0,0,1,2.291-4.3l12.085-7.512a4.89,4.89,0,0,1,4.878-.16l12.541,6.716A4.887,4.887,0,0,1,607.108,174.642Zm-27.255,10.071-.106-4.1-3.212-1.734.106,4.1Zm4.608,2.587-.106-4.093-3.205-1.736.106,4.1Zm20.508-12.587a2.746,2.746,0,0,0-1.443-2.324l-12.54-6.716a2.713,2.713,0,0,0-2.74.089l-12.08,7.512a2.74,2.74,0,0,0-1.142,1.452.948.948,0,0,1,.317.1l14.322,7.8a.957.957,0,0,1,.484.787L590.7,199.3a2.706,2.706,0,0,0,1.36-.416l12.08-7.512a2.757,2.757,0,0,0,1.29-2.413Zm-8.189-2.11-6.678-3.572a.816.816,0,0,0-.815.028l-6.38,3.99a.814.814,0,0,0,.049,1.407l6.676,3.572a.816.816,0,0,0,.815-.028l6.379-3.99A.814.814,0,0,0,596.781,172.6Z" transform="translate(-267.469 41.995)"/></g><g transform="translate(183.181 93.942)"><g transform="translate(21.234 5.179)"><path class="h" d="M546.755,121.734a16.966,16.966,0,1,1,11.1-29.818h0a16.965,16.965,0,0,1-9.812,29.771C547.612,121.72,547.182,121.734,546.755,121.734Zm.049-31.58c-.367,0-.738.014-1.107.042a14.61,14.61,0,1,0,10.625,3.5h0A14.507,14.507,0,0,0,546.8,90.154Z" transform="translate(-529.816 -87.799)"/></g><g transform="translate(66.482 5.179)"><path class="h" d="M566,121.734a16.966,16.966,0,1,1,11.1-29.818h0a16.965,16.965,0,0,1-9.812,29.771C566.86,121.72,566.43,121.734,566,121.734Zm.049-31.58c-.367,0-.738.014-1.107.042a14.61,14.61,0,1,0,10.625,3.5h0A14.507,14.507,0,0,0,566.052,90.154Z" transform="translate(-549.073 -87.799)"/></g><g transform="translate(0 2.024)"><path class="h" d="M543.322,105.16a1.179,1.179,0,0,1-.714-.24L521.241,88.566a1.175,1.175,0,0,1,1.426-1.868l21.368,16.354a1.175,1.175,0,0,1-.714,2.108Z" transform="translate(-520.779 -86.456)"/></g><line class="t" y1="17.678" x2="6.565" transform="translate(98.787)"/></g><path class="b" d="M495.975,111.978s-9.453,3.651-9.453,5.371-1.931,12.031,3.01,13.1,16.972-2.794,16.972-2.794-16.328,9.239-17.4,9.453-28.359,4.728-28.359,4.728l6.445-31.153,32.44-12.674S497.265,111.978,495.975,111.978Z" transform="translate(-418.631 25.11)"/><rect class="u" width="4.649" height="62.431" rx="0.913" transform="translate(97.78 0) rotate(7.764)"/><rect class="u" width="4.649" height="62.431" rx="0.913" transform="translate(9.349 54.318) rotate(-71.312)"/><rect class="u" width="4.649" height="62.431" rx="0.913" transform="translate(111.194 81.451) rotate(-98.562)"/><path class="u" d="M508.009,66.77h0a2.326,2.326,0,0,1-.376,3.266L492.513,82.388a2.324,2.324,0,0,1-3.266-.376h0a2.324,2.324,0,0,1,.376-3.266l15.12-12.353A2.324,2.324,0,0,1,508.009,66.77Z" transform="translate(-380.84 -18.249)"/><path class="u" d="M485.669,80.8h0a2.325,2.325,0,0,0-.092-3.287l-14-13.612a2.322,2.322,0,0,0-3.285.092h0a2.322,2.322,0,0,0,.092,3.285l14,13.614A2.324,2.324,0,0,0,485.669,80.8Z" transform="translate(-409.296 -21.797)"/><path class="u" d="M484.836,82.779h0a2.325,2.325,0,0,0-3.184-.818l-16.941,9.711a2.324,2.324,0,0,0-.815,3.184h0a2.322,2.322,0,0,0,3.184.815l16.939-9.709A2.323,2.323,0,0,0,484.836,82.779Z" transform="translate(-414.814 3.006)"/><path class="u" d="M500.988,104.826h0a2.323,2.323,0,0,0,.815-3.184L492.095,84.7a2.325,2.325,0,0,0-3.184-.815h0a2.325,2.325,0,0,0-.818,3.184l9.711,16.939A2.323,2.323,0,0,0,500.988,104.826Z" transform="translate(-382.153 5.602)"/><path class="q" d="M608.912,242.06s-12.24,23.739-1.485,38.573,38.2,24.11,48.588,8.532,7.049-49.7-17.43-50.07S608.912,242.06,608.912,242.06Z" transform="translate(-226.618 215.491)"/><path class="b" d="M679.955,275.834c-1.584,0-35.913,19.211-47.533,12.808s-31.688-27.219-18.485-37.894,62.85-11.206,62.85-11.206l11.091,19.747Z" transform="translate(-217.716 216.134)"/><g transform="translate(335.591 321.848)"><path class="v" d="M744.046,183.724l1.237,1.546,2.784,9.124-8.815,15.155L588.986,330.71l-.775-1.55-2.412-7.493" transform="translate(-585.43 -181.052)"/><path class="v" d="M585.936,318.159l29.827-125.013c1.368-5.736,7.127-10.391,12.865-10.4l109.514-.16c5.738-.009,9.279,4.631,7.909,10.367L716.226,317.967c-1.37,5.733-7.129,10.39-12.865,10.4l-109.516.162C588.109,328.536,584.568,323.893,585.936,318.159Z" transform="translate(-585.642 -182.587)"/><path class="w" d="M586.89,321.145l29.825-125.013c1.37-5.736,7.129-10.391,12.865-10.4l109.516-.16c5.736-.009,9.277,4.634,7.909,10.367L717.178,320.953c-1.368,5.733-7.127,10.391-12.865,10.4l-109.514.162C589.061,331.522,585.52,326.879,586.89,321.145Z" transform="translate(-584.355 -178.557)"/><ellipse class="c" cx="2.232" cy="1.587" rx="2.232" ry="1.587" transform="translate(51.058 2.651) rotate(-16.017)"/><ellipse class="c" cx="2.232" cy="1.587" rx="2.232" ry="1.587" transform="translate(63.382 2.633) rotate(-16.017)"/><ellipse class="c" cx="2.232" cy="1.587" rx="2.232" ry="1.587" transform="translate(75.705 2.615) rotate(-16.017)"/><ellipse class="c" cx="2.232" cy="1.587" rx="2.232" ry="1.587" transform="translate(117.901 2.552) rotate(-16.017)"/><ellipse class="c" cx="2.232" cy="1.587" rx="2.232" ry="1.587" transform="translate(130.225 2.534) rotate(-16.017)"/><ellipse class="c" cx="2.232" cy="1.587" rx="2.232" ry="1.587" transform="translate(142.549 2.516) rotate(-16.017)"/><path class="x" d="M630.242,208.211l-10.05,4.023a4.235,4.235,0,0,0-2.543,2.947L616.31,220.8a4.226,4.226,0,0,0,2.249,4.777l6.473,3.182a4.226,4.226,0,0,0,3.438.129l10.047-4.023a4.231,4.231,0,0,0,2.542-2.944L642.4,216.3a4.232,4.232,0,0,0-2.249-4.777l-6.476-3.179A4.229,4.229,0,0,0,630.242,208.211Z" transform="translate(-544.406 -148.41)"/></g><path class="a" d="M647.189,236.946l35.349-5.341a2.993,2.993,0,0,1,3.5,3.63l-.964,6.137a3,3,0,0,0,2.211,3.59h0a3.05,3.05,0,0,1,2.145,3.915L686.7,260.362a4.97,4.97,0,0,1-1.527,2.517l-4.974,4.45a5.158,5.158,0,0,0-.853.982L667.02,286.836a4.554,4.554,0,0,1-4.2,2.143c-8.212-1.093-33.469-4.551-33.469-5.724,0-1.081,1.26-11.868,1.826-16.678a3.01,3.01,0,0,0-1.591-3.2l-3.125-1.518c-1.694-.822-2.124-3.05-.97-5l4.772-8.06a4.883,4.883,0,0,1,3.3-2.347l3.506-.571a4.781,4.781,0,0,0,2.911-1.781l4.248-5.367A4.779,4.779,0,0,1,647.189,236.946Z" transform="translate(-197.136 205.365)"/></g></g></svg>