<svg xmlns="http://www.w3.org/2000/svg" xmlns:xlink="http://www.w3.org/1999/xlink" width="552" height="159.563" viewBox="0 0 552 159.563"><defs><style>.a{fill:#fff;}.b{fill:#5bc8f3;}.c{fill:url(#a);}.d{fill:url(#b);}.e{fill:url(#c);}</style><linearGradient id="a" x1="0.807" y1="0.5" x2="-1.573" y2="0.5" gradientUnits="objectBoundingBox"><stop offset="0" stop-color="#ffdf00"/><stop offset="0.409" stop-color="#fbbc0e"/><stop offset="0.775" stop-color="#f8a318"/><stop offset="1" stop-color="#f89b1c"/></linearGradient><linearGradient id="b" x1="0.862" y1="0.178" x2="-0.501" y2="1.948" gradientUnits="objectBoundingBox"><stop offset="0" stop-color="#ee4447"/><stop offset="1" stop-color="#c5166c"/></linearGradient><linearGradient id="c" x1="-0.507" y1="-0.956" x2="0.606" y2="0.489" gradientUnits="objectBoundingBox"><stop offset="0" stop-color="#269e6f"/><stop offset="0.051" stop-color="#2ba06e"/><stop offset="0.466" stop-color="#52b26a"/><stop offset="0.797" stop-color="#6bbc68"/><stop offset="1" stop-color="#74c168"/></linearGradient></defs><g transform="translate(-75.483 -198.258)"><g transform="translate(75.483 198.258)"><rect width="552" height="159.563" rx="17"/></g><g transform="translate(114.889 225.695)"><path class="a" d="M292.752,260.763a17.481,17.481,0,1,0,17.548,17.48A17.231,17.231,0,0,0,292.752,260.763Zm0,28.076c-5.3,0-9.867-4.371-9.867-10.6,0-6.29,4.57-10.594,9.867-10.594s9.867,4.3,9.867,10.594C302.619,284.469,298.049,288.839,292.752,288.839Zm-38.281-28.076a17.481,17.481,0,1,0,17.548,17.48A17.231,17.231,0,0,0,254.471,260.763Zm0,28.076c-5.3,0-9.867-4.371-9.867-10.6,0-6.29,4.57-10.594,9.867-10.594s9.865,4.3,9.865,10.594C264.336,284.469,259.768,288.839,254.471,288.839Zm-45.538-22.713v7.416H226.68c-.53,4.172-1.92,7.217-4.04,9.337-2.582,2.583-6.623,5.43-13.708,5.43a19.735,19.735,0,0,1,0-39.466,18.915,18.915,0,0,1,13.376,5.3l5.232-5.231a25.872,25.872,0,0,0-18.609-7.483c-14.965,0-27.546,12.185-27.546,27.148s12.581,27.15,27.546,27.15c8.079,0,14.172-2.648,18.938-7.615,4.9-4.9,6.424-11.786,6.424-17.349a24.16,24.16,0,0,0-.4-4.634Zm186.232,5.761c-1.458-3.907-5.894-11.124-14.967-11.124-9.005,0-16.488,7.085-16.488,17.48a17.107,17.107,0,0,0,17.349,17.482,17.386,17.386,0,0,0,14.568-7.748l-5.96-3.972a9.984,9.984,0,0,1-8.608,4.833,8.893,8.893,0,0,1-8.477-5.3l23.376-9.668Zm-23.84,5.827a9.588,9.588,0,0,1,9.138-10.2c3.047,0,5.628,1.523,6.49,3.708Zm-19,16.952H360V243.281h-7.681Zm-12.582-30h-.264a12.116,12.116,0,0,0-9.206-3.907c-8.74,0-16.753,7.681-16.753,17.547,0,9.8,8.013,17.416,16.753,17.416a11.92,11.92,0,0,0,9.206-3.973h.264v2.517c0,6.689-3.574,10.265-9.337,10.265a9.672,9.672,0,0,1-8.806-6.225l-6.689,2.782a16.664,16.664,0,0,0,15.5,10.329c9.007,0,16.622-5.3,16.622-18.209V261.822h-7.285Zm-8.806,24.169c-5.3,0-9.734-4.437-9.734-10.53,0-6.157,4.437-10.661,9.734-10.661,5.232,0,9.337,4.5,9.337,10.661C340.268,284.4,336.164,288.839,330.932,288.839Zm100.214-45.558H412.767v51.386h7.669V275.2h10.709c8.5,0,16.857-6.154,16.857-15.958S439.647,243.281,431.145,243.281Zm.2,24.766H420.436V250.434h10.908a8.808,8.808,0,1,1,0,17.613Zm47.4-7.378c-5.553,0-11.3,2.446-13.684,7.866l6.809,2.843c1.453-2.843,4.164-3.768,7.006-3.768,3.967,0,8,2.38,8.066,6.61v.529a16.962,16.962,0,0,0-8-1.984c-7.337,0-14.807,4.033-14.807,11.569,0,6.875,6.017,11.3,12.759,11.3,5.155,0,8-2.315,9.783-5.024h.265v3.967h7.4v-19.7C494.344,265.759,487.535,260.668,478.742,260.668Zm-.926,28.162c-2.512,0-6.015-1.256-6.015-4.363,0-3.967,4.363-5.488,8.131-5.488a13.657,13.657,0,0,1,7.008,1.72A9.3,9.3,0,0,1,477.816,288.83Zm43.5-27.038-8.792,22.277h-.265l-9.122-22.277h-8.264l13.684,31.136-7.8,17.319h8l21.088-48.455Zm-69.082,32.875H459.9V243.281h-7.669Z" transform="translate(-53.683 -200.746)"/><path class="b" d="M102.357,216.789a8.226,8.226,0,0,0-1.9,5.771v90.828a8.221,8.221,0,0,0,1.9,5.771l.3.3,50.881-50.882v-1.2L102.66,216.492Z" transform="translate(-100.456 -215.157)"/><path class="c" d="M151.056,273.118,134.1,256.151v-1.2l16.963-16.963.383.218,20.094,11.416c5.741,3.262,5.741,8.6,0,11.86L151.444,272.9Z" transform="translate(-81.013 -202.734)"/><path class="d" d="M170.191,266.464l-17.346-17.346L101.661,300.3c1.894,2,5.016,2.252,8.535.253l59.995-34.09" transform="translate(-99.76 -196.301)"/><path class="e" d="M170.191,251.117,110.2,217.027c-3.519-2-6.642-1.752-8.535.251l51.184,51.185Z" transform="translate(-99.76 -215.646)"/></g><g transform="translate(244.301 224.862)"><path class="a" d="M200.508,220.489a8.779,8.779,0,0,0-5.824-2.247,9.289,9.289,0,0,0,0,18.566c4.35,0,7.509-2.526,7.719-6.528h-6.878v-2.843h10.6c0,8.5-4.527,12.5-11.44,12.5a12.409,12.409,0,0,1,0-24.815,11.957,11.957,0,0,1,8.177,3.2Z" transform="translate(-182.469 -215.118)"/><path class="a" d="M214.607,215.3v3.052H203.55v7.722H213.2v3.055H203.55v7.3h11.407v3.052h-14.67V215.3Z" transform="translate(-172.171 -215.015)"/><path class="a" d="M229.357,215.3v3.086h-7.336v21.094h-3.3V218.383h-7.336V215.3Z" transform="translate(-165.756 -215.015)"/><path class="a" d="M233.892,215.3v24.18H230.63V215.3Z" transform="translate(-154.635 -215.015)"/><path class="a" d="M253.381,215.3v3.086h-7.334v21.094h-3.3V218.383h-7.337V215.3Z" transform="translate(-151.872 -215.015)"/><path class="a" d="M265.865,215.118a12.409,12.409,0,1,1-12.213,12.426A12.264,12.264,0,0,1,265.865,215.118Zm0,21.656a9.253,9.253,0,1,0-8.949-9.229A9.013,9.013,0,0,0,265.865,236.774Z" transform="translate(-141.329 -215.118)"/><path class="a" d="M286.643,239.477l-11.019-18.213v18.213h-3.263V215.3h3.229L286.5,233.371V215.3h3.265v24.18Z" transform="translate(-130.517 -215.015)"/></g></g></svg>