<svg xmlns="http://www.w3.org/2000/svg" xmlns:xlink="http://www.w3.org/1999/xlink" width="115.455" height="75.474" viewBox="0 0 115.455 75.474"><defs><style>.a{fill:none;}.b,.f{fill:#fff;}.b{stroke:#155e85;stroke-linejoin:round;stroke-width:2px;}.c{isolation:isolate;}.d{fill:#166fa4;}.e{fill:#08547f;}.g{fill:#166da1;}.h{clip-path:url(#a);}.i{fill:#07527d;}.j{fill:#085480;}.k{fill:#0a5682;}.l{fill:#0c5985;}.m{fill:#0d5b88;}.n{fill:#0f5d8b;}.o{fill:#105f8e;}.p{fill:#116292;}.q{fill:#126495;}.r{fill:#136798;}.s{fill:#14699c;}.t{clip-path:url(#b);}.u{clip-path:url(#c);}.v{clip-path:url(#d);}.w{fill:#156b9f;}.x{clip-path:url(#e);}.y{clip-path:url(#f);}.z{clip-path:url(#g);}</style><clipPath id="a"><path class="a" d="M-58.693,86.831l-.023,7.882c0-.431-.358-.829-1-1.2a4.476,4.476,0,0,0-4.8.266l.023-7.882a4.476,4.476,0,0,1,4.8-.268C-59.051,86-58.691,86.4-58.693,86.831Z" transform="translate(64.51 -85.06)"/></clipPath><clipPath id="b"><path class="a" d="M-57.277,85.951l-.023,7.882c0,1.319-1.143,2.655-3.355,3.939l.023-7.882C-58.421,88.606-57.282,87.27-57.277,85.951Z" transform="translate(60.655 -85.951)"/></clipPath><clipPath id="c"><path class="a" d="M-72.041,98.876l.021-7.882c0-.467.433-.978,1.42-1.55l-.023,7.882C-71.608,97.9-72.041,98.409-72.041,98.876Z" transform="translate(72.041 -89.445)"/></clipPath><clipPath id="d"><path class="a" d="M-74.852,97.974l.023-7.882c0,1.219.961,2.427,2.946,3.572A12.454,12.454,0,0,0-58.931,93.4l-.021,7.882a12.45,12.45,0,0,1-12.951.266C-73.891,100.4-74.856,99.193-74.852,97.974Z" transform="translate(74.852 -90.092)"/></clipPath><clipPath id="e"><path class="a" d="M-39.456,99.237l-.023,7.882c0-.425-.362-.815-1-1.183l.021-7.882C-39.82,98.423-39.456,98.812-39.456,99.237Z" transform="translate(40.482 -98.054)"/></clipPath><clipPath id="f"><path class="a" d="M-35.419,98.736l-.023,7.882c0,1.286-1.133,2.58-3.329,3.855l.023-7.882C-36.553,101.316-35.423,100.022-35.419,98.736Z" transform="translate(38.771 -98.736)"/></clipPath><clipPath id="g"><path class="a" d="M-38.445,104.305l-.023,7.882a12.151,12.151,0,0,1-12.859.195l.023-7.882A12.151,12.151,0,0,0-38.445,104.305Z" transform="translate(51.327 -104.305)"/></clipPath></defs><g transform="translate(0.999 1)"><path class="b" d="M-74.675,99.988l1.066.616-.015,5.587,4.245,2.45,4.647-3.732-.015,4.889c0,1.219.961,2.427,2.948,3.572a13.032,13.032,0,0,0,1.663.806c.029.013.057.029.084.042.375.147.752.276,1.133.383.067.021.134.034.2.05s.138.034.207.052c.151.038.3.08.452.111.245.05.49.092.737.128.082.013.161.017.243.027l.142.017c.1.01.2.025.3.033.222.017.448.029.672.036.18,0,.362,0,.542,0,.027,0,.054,0,.082,0s.052,0,.077,0c.264-.008.526-.027.789-.052.2-.021.4-.054.6-.086.073-.01.149-.019.222-.031.05-.008.1-.01.147-.019.205-.038.406-.109.611-.155.13-.031.262-.057.394-.09l-.01,3.761L-41.044,125l2.555-1.485-.008,2.955,3.8,2.192,5.25-3.051-.017,6.07,4.32,2.5,3.02-1.755-.008,3.491,6.651,3.84a14.213,14.213,0,0,0,1.746.848c.044.017.086.044.128.061q.572.226,1.145.389c.038.01.075.017.113.027.054.015.109.027.163.04.193.05.385.1.58.144.239.048.477.09.716.124.052.008.1.01.155.019l.117.013c.13.015.26.034.389.044.216.017.431.029.649.034.147,0,.3,0,.444,0h.228c.249-.008.5-.025.752-.052.163-.015.327-.044.492-.069l-.008,2.892,3.857,2.226L1.737,144.1l1.066.616-.015,5.587,4.245,2.45,22.312-17.92.023-7.882L23.208,123.4l-9.071,3.817.021-7.2c0,.019-.013.038-.013.057.036-1.229-.946-2.454-3.022-3.652l-6.651-3.84-3.02,1.755.008-3.491-3.75-2.165L-6.623,111.2l.015-5.015-5.279-3.047-2.555,1.485.008-2.955L-25.9,95.047l-5.756,3.344.015-5.145c0,.025-.017.05-.017.075.044-1.244-.9-2.473-2.919-3.639a12.368,12.368,0,0,0-12.487.015l.019-6.858L-53.2,79.283-84.067,92.266l-.021,7.884,3.857,2.226Zm87.085,22.8-.031.025c.084-.065.14-.13.218-.2C12.529,122.673,12.481,122.729,12.41,122.786Zm-71.244-20.733,0,.017Zm17.127-2.569c.046-.015.086-.01.13-.023v.178l-.214-.124c.017-.006.038-.019.054-.025Zm-15.935,1.223c-.14.09-.291.18-.4.266.117-.088.268-.18.415-.272Zm-.584.425,0,0,.031-.027Zm-.216.193c-.01.013-.031.027-.042.04.019-.021.044-.042.065-.063Zm-.3.408.015-.031Zm22.02,12.334,3.024,1.746-3.53,2.05.008-2.955-.475-.274Zm9.57-2.058.008-3.507,1.617-.938,3.022,1.744Zm-6.257-15.919-.042.036c.09-.073.157-.147.241-.222C-33.281,95.966-33.334,96.029-33.409,96.089Zm-30.252,7.959c.08.082.159.165.249.247-.088-.082-.174-.163-.253-.245Zm.565.553a10.415,10.415,0,0,0,1.317.888A10.415,10.415,0,0,1-63.1,104.6Zm77.049,16.346-.034.073a2.37,2.37,0,0,0,.1-.4A2.246,2.246,0,0,1,13.953,120.947Zm-.41.651c-.067.094-.1.188-.184.285l-.034.036C13.415,121.812,13.467,121.705,13.543,121.6Zm-5.31-1.866a.926.926,0,0,0-.241-.563A.926.926,0,0,1,8.232,119.733Zm-.276-.6a2.938,2.938,0,0,0-.712-.544A2.938,2.938,0,0,1,7.956,119.134ZM-31.851,94.2c-.01.027-.025.054-.038.082l0,.008a2.543,2.543,0,0,0,.113-.415A2.314,2.314,0,0,1-31.851,94.2Zm-.415.672c-.069.1-.109.2-.188.3l-.046.048C-32.4,95.105-32.347,94.99-32.266,94.877Zm-5.026-1.767a.948.948,0,0,0-.237-.57A.948.948,0,0,1-37.291,93.11Zm-.276-.607a2.833,2.833,0,0,0-.7-.549A2.833,2.833,0,0,1-37.568,92.5Z" transform="translate(84.089 -79.283)"/><g transform="translate(0)"><g class="c"><g transform="translate(13.557 4.394)"><path class="d" d="M-62.122,81.381l-.022,7.882-15.469,6.647.022-7.882Z" transform="translate(77.614 -81.381)"/></g><g transform="translate(3.858 12.823)"><path class="d" d="M-76.668,85.407l-.022,7.882-5.555,2.388.022-7.882Z" transform="translate(82.246 -85.407)"/></g><g transform="translate(0 12.984)"><path class="e" d="M-80.208,87.711l-.022,7.882-3.858-2.228.022-7.882Z" transform="translate(84.088 -85.483)"/></g><g transform="translate(9.414 12.823)"><path class="e" d="M-74.415,88.383l-.022,7.882-5.155-2.976.022-7.882Z" transform="translate(79.593 -85.407)"/></g><g transform="translate(0.022)"><path class="f" d="M-47.056,82.839l-22.314,17.92-4.242-2.45,4.1-3.227-5.155-2.976-5.555,2.387-3.859-2.228,30.863-12.983Zm-23.463,7.486,4.044,2.335,11.425-8.983-15.468,6.648" transform="translate(84.078 -79.283)"/></g><g transform="translate(14.708 3.556)"><path class="g" d="M-54.729,80.981l-.022,7.882-22.313,17.92.022-7.882Z" transform="translate(77.064 -80.981)"/></g><g transform="translate(10.464 19.025)"><path class="e" d="M-74.825,90.819l-.022,7.882-4.244-2.45.022-7.882Z" transform="translate(79.091 -88.369)"/></g></g><g class="c" transform="translate(19.341 8.704)"><g class="c" transform="translate(21.656 3.394)"><g class="h"><g class="c" transform="translate(0 0)"><path class="i" d="M-60.881,86.686l-.023,7.882c0-.431-.358-.829-1-1.2a4.542,4.542,0,0,0-.609-.3l.023-7.882a4.8,4.8,0,0,1,.609.3c.639.369,1,.766,1,1.2" transform="translate(66.698 -84.915)"/><path class="j" d="M-62.291,85.259l-.023,7.882a3.932,3.932,0,0,0-.375-.126l.023-7.882c.126.036.251.077.375.126" transform="translate(66.502 -84.981)"/><path class="k" d="M-62.517,85.17l-.023,7.882c-.094-.027-.188-.05-.285-.071L-62.8,85.1c.1.019.191.044.285.071" transform="translate(66.353 -85.018)"/><path class="l" d="M-62.676,85.121-62.7,93c-.08-.017-.159-.029-.241-.042l.023-7.882c.08.01.161.025.241.042" transform="translate(66.228 -85.04)"/><path class="m" d="M-62.8,85.092l-.023,7.882c-.075-.01-.149-.019-.226-.025l.023-7.882q.113.009.226.025" transform="translate(66.109 -85.053)"/><path class="n" d="M-62.908,85.074l-.023,7.882c-.073-.006-.149-.01-.224-.013l.023-7.882c.075,0,.151.006.224.013" transform="translate(65.992 -85.06)"/><path class="o" d="M-63.008,85.062l-.023,7.882c-.077,0-.157,0-.237,0l.023-7.882c.08,0,.159,0,.237,0" transform="translate(65.869 -85.06)"/><path class="p" d="M-63.1,85.062l-.023,7.882c-.09,0-.18.008-.272.019l.023-7.884c.092-.008.182-.015.272-.017" transform="translate(65.727 -85.059)"/><path class="q" d="M-63.191,85.07l-.023,7.884c-.115.01-.232.027-.352.048l.023-7.882c.117-.021.237-.038.352-.05" transform="translate(65.543 -85.05)"/><path class="r" d="M-63.209,85.094l-.023,7.882a5.191,5.191,0,0,0-.639.161l.023-7.882a5.094,5.094,0,0,1,.639-.161" transform="translate(65.209 -85.024)"/><path class="s" d="M-63.149,85.171l-.023,7.882a7.02,7.02,0,0,0-1.338.609l.023-7.882a6.905,6.905,0,0,1,1.338-.609" transform="translate(64.51 -84.939)"/></g></g></g><g class="c" transform="translate(29.729 5.259)"><g class="t"><g class="c"><path class="l" d="M-59.029,85.951l-.023,7.882,0,.059.023-7.882,0-.059" transform="translate(62.406 -85.951)"/><path class="m" d="M-59.008,85.979l-.023,7.882a2.361,2.361,0,0,1-.044.4l.021-7.882a2.364,2.364,0,0,0,.046-.4" transform="translate(62.384 -85.92)"/><path class="n" d="M-58.992,86.17l-.021,7.882a2.5,2.5,0,0,1-.119.408l.023-7.882a2.72,2.72,0,0,0,.117-.408" transform="translate(62.321 -85.711)"/><path class="o" d="M-59,86.365l-.023,7.882a3.018,3.018,0,0,1-.207.444l.021-7.882A3.266,3.266,0,0,0-59,86.365" transform="translate(62.213 -85.498)"/><path class="p" d="M-59.024,86.577l-.021,7.882a4.307,4.307,0,0,1-.356.526l.021-7.882a4.08,4.08,0,0,0,.356-.526" transform="translate(62.027 -85.266)"/><path class="q" d="M-59.046,86.828l-.021,7.882a5.969,5.969,0,0,1-.639.683l.021-7.882a5.787,5.787,0,0,0,.639-.683" transform="translate(61.693 -84.992)"/><path class="r" d="M-58.764,87.154l-.021,7.882a10.841,10.841,0,0,1-1.763,1.288l.023-7.882a10.911,10.911,0,0,0,1.761-1.288" transform="translate(60.772 -84.635)"/><path class="s" d="M-60.408,87.769l-.023,7.882c-.073.044-.147.088-.224.132l.023-7.882.224-.132" transform="translate(60.655 -83.962)"/></g></g></g><g transform="translate(27.138 9.198)"><path class="d" d="M-59.278,87.832l-.022,7.882-2.591,1.506.022-7.882Z" transform="translate(61.892 -87.832)"/></g><g transform="translate(23.156 8.405)"><path class="e" d="M-59.789,89.753l-.022,7.882-3.982-2.3.022-7.882Z" transform="translate(63.794 -87.454)"/></g><g transform="translate(7.304 4.235)"><path class="d" d="M-56.99,85.462l-.022,7.882-14.352,8.34.022-7.882Z" transform="translate(71.364 -85.462)"/></g><g transform="translate(14.634 11.141)"><path class="e" d="M-65.927,89.865l-.022,7.882-1.914-1.1.022-7.882Z" transform="translate(67.864 -88.76)"/></g><g class="c" transform="translate(5.886 12.575)"><g class="u"><g class="c" transform="translate(0)"><path class="s" d="M-71.281,89.445l-.023,7.882-.115.069.023-7.882.115-.069" transform="translate(72.722 -89.445)"/><path class="r" d="M-70.979,89.478-71,97.36a4.913,4.913,0,0,0-.8.578l.023-7.882a4.789,4.789,0,0,1,.8-.578" transform="translate(72.305 -89.409)"/><path class="q" d="M-71.648,89.754l-.023,7.882a2.192,2.192,0,0,0-.247.266l.021-7.882a2.4,2.4,0,0,1,.249-.266" transform="translate(72.176 -89.107)"/><path class="p" d="M-71.829,89.881l-.021,7.882a1.6,1.6,0,0,0-.13.188l.023-7.882a1.576,1.576,0,0,1,.128-.188" transform="translate(72.108 -88.968)"/><path class="o" d="M-71.919,89.971l-.023,7.882a1.318,1.318,0,0,0-.073.157l.023-7.882a1.057,1.057,0,0,1,.073-.157" transform="translate(72.07 -88.87)"/><path class="n" d="M-71.971,90.046l-.023,7.882a1.137,1.137,0,0,0-.04.138l.023-7.882a.86.86,0,0,1,.04-.138" transform="translate(72.049 -88.788)"/><path class="m" d="M-72,90.112l-.023,7.882a.968.968,0,0,0-.015.134l.023-7.884A.729.729,0,0,1-72,90.112" transform="translate(72.041 -88.715)"/><path class="l" d="M-72.019,90.175l-.022,7.882v.02l.022-7.882v-.02" transform="translate(72.041 -88.646)"/></g></g></g><g transform="translate(15.899 12.335)"><path class="d" d="M-58.8,89.33l-.022,7.882-8.433,4.9.022-7.882Z" transform="translate(67.259 -89.33)"/></g><g class="c" transform="translate(0 13.93)"><g class="v"><g class="c"><path class="s" d="M-65.7,91.671l-.021,7.882a15.262,15.262,0,0,1-2.942,1.326L-68.641,93a15.247,15.247,0,0,0,2.94-1.326" transform="translate(81.622 -88.365)"/><path class="r" d="M-67.745,92.3l-.023,7.882a13.359,13.359,0,0,1-1.715.433l.023-7.884a13.007,13.007,0,0,0,1.715-.431" transform="translate(80.726 -87.672)"/><path class="q" d="M-68.952,92.51l-.023,7.884c-.325.059-.647.1-.972.136l.021-7.882q.487-.05.974-.138" transform="translate(80.218 -87.447)"/><path class="p" d="M-69.514,92.576l-.021,7.882c-.264.025-.526.044-.789.052l.023-7.882c.262-.008.526-.027.787-.052" transform="translate(79.806 -87.375)"/><path class="o" d="M-69.935,92.6l-.023,7.882c-.235.008-.469.01-.7,0l.021-7.882c.235,0,.469,0,.7,0" transform="translate(79.439 -87.347)"/><path class="n" d="M-70.287,92.623l-.021,7.882c-.224-.006-.45-.019-.672-.036l.021-7.884q.336.028.672.038" transform="translate(79.088 -87.365)"/><path class="m" d="M-70.6,92.624l-.021,7.884c-.228-.019-.456-.046-.683-.077l.023-7.882c.226.031.454.059.681.075" transform="translate(78.731 -87.404)"/><path class="l" d="M-70.9,92.616l-.023,7.882c-.247-.036-.492-.077-.737-.128l.023-7.882c.245.05.49.092.737.128" transform="translate(78.346 -87.471)"/><path class="k" d="M-71.185,92.6l-.023,7.882c-.287-.061-.576-.13-.861-.214l.021-7.882c.287.082.574.153.863.214" transform="translate(77.897 -87.582)"/><path class="j" d="M-71.456,92.586l-.021,7.882c-.381-.107-.758-.237-1.133-.383l.023-7.882q.562.22,1.131.383" transform="translate(77.305 -87.783)"/><path class="i" d="M-70.134,94.512l-.023,7.882a13.25,13.25,0,0,1-1.746-.848c-1.987-1.145-2.953-2.354-2.948-3.572l.023-7.882c0,1.219.961,2.427,2.946,3.572a13.273,13.273,0,0,0,1.748.848" transform="translate(74.852 -90.092)"/></g></g></g><g transform="translate(0.023)"><path class="f" d="M-44.693,85.134c4.121,2.379,3.828,5.036-.419,7.5l-2.59,1.506-3.983-2.3,2.852-1.658c1.9-1.106,1.788-2,.446-2.781a4.476,4.476,0,0,0-4.8.268l-14.352,8.34c-1.9,1.106-1.742,1.979-.4,2.754a4.389,4.389,0,0,0,4.751-.241l4.892-2.842-1.914-1.106,3.8-2.209,5.9,3.4-8.435,4.9a12.454,12.454,0,0,1-12.951.266c-4.136-2.387-3.842-5.042.4-7.511l13.831-8.037A12.461,12.461,0,0,1-44.693,85.134Z" transform="translate(74.841 -83.44)"/></g></g><g class="c" transform="translate(31.577 15.764)"><g transform="translate(34.253 6.621)"><path class="d" d="M-48.826,89.973l-.022,7.882-3.8,2.21.022-7.882Z" transform="translate(52.651 -89.973)"/></g><g transform="translate(26.983 4.634)"><path class="e" d="M-48.831,93.221l-.022,7.882-7.269-4.2.022-7.882Z" transform="translate(56.122 -89.024)"/></g><g transform="translate(19.577 4.634)"><path class="d" d="M-52.231,89.024l-.022,7.882-7.406,4.3.022-7.882Z" transform="translate(59.659 -89.024)"/></g><g transform="translate(21.562 12.27)"><path class="d" d="M-54.9,92.671l-.022,7.882-3.787,2.2.022-7.882Z" transform="translate(58.711 -92.671)"/></g><g transform="translate(15.79 11.138)"><path class="e" d="M-55.673,95.463l-.022,7.882-5.772-3.333.022-7.882Z" transform="translate(61.468 -92.13)"/></g><g transform="translate(8.001 11.138)"><path class="d" d="M-57.376,92.13l-.022,7.882-7.789,4.527.022-7.882Z" transform="translate(65.188 -92.13)"/></g><g transform="translate(0 15.451)"><path class="e" d="M-57.519,100.81l-.022,7.882-11.467-6.621.022-7.882Z" transform="translate(69.008 -94.19)"/></g><g transform="translate(11.467 19.862)"><path class="d" d="M-59.707,96.3l-.022,7.882-3.8,2.21.022-7.882Z" transform="translate(63.532 -96.296)"/></g><g transform="translate(0.022)"><path class="f" d="M-30.943,93.432l-3.8,2.21-7.269-4.2-7.406,4.3,5.772,3.333-3.787,2.2-5.772-3.333L-61,102.476l7.269,4.2-3.8,2.21L-69,102.262-42.41,86.811Z" transform="translate(68.998 -86.811)"/></g></g><g class="c" transform="translate(45.591 23.854)"><g transform="translate(3.797 6.451)"><path class="d" d="M-41.222,93.756l-.022,7.882L-60.5,112.83l.022-7.882Z" transform="translate(60.503 -93.756)"/></g><g transform="translate(20.272 3.047)"><path class="w" d="M-41.018,92.13l-.022,7.882-11.595,11.744.022-7.882Z" transform="translate(52.635 -92.13)"/></g><g transform="translate(0 15.451)"><path class="e" d="M-58.5,100.246l-.022,7.882-3.8-2.192.022-7.882Z" transform="translate(62.316 -98.054)"/></g><g transform="translate(0.022)"><path class="f" d="M-22.367,98.383l-26.588,15.451-4.321-2.5L-39.25,97.126l-19.259,11.192-3.8-2.192,26.588-15.451,5.278,3.047-11.595,11.744,15.916-9.249Z" transform="translate(62.305 -90.675)"/></g><g transform="translate(13.35 7.708)"><path class="d" d="M-29.33,94.356l-.022,7.882-26.588,15.451.022-7.882Z" transform="translate(55.941 -94.356)"/></g><g transform="translate(9.029 20.664)"><path class="e" d="M-53.661,103.038l-.022,7.882L-58,108.425l.022-7.882Z" transform="translate(58.004 -100.543)"/></g></g><g class="c" transform="translate(61.951 33.299)"><g transform="translate(26.999 4.643)"><path class="e" d="M-39.226,98.766l-.022,7.882-2.361-1.363.022-7.882Z" transform="translate(41.61 -97.403)"/></g><g class="c" transform="translate(29.361 6.008)"><g class="x"><g class="c"><path class="i" d="M-39.456,99.237l-.023,7.882c0-.425-.362-.815-1-1.183l.021-7.882c.641.369,1.005.758,1.005,1.183" transform="translate(40.482 -98.054)"/></g></g></g><g class="c" transform="translate(32.944 7.436)"><g class="y"><g class="c"><path class="l" d="M-37.158,98.736l-.023,7.882v.057l.021-7.882,0-.057" transform="translate(40.51 -98.736)"/><path class="m" d="M-37.137,98.763l-.021,7.882a2.362,2.362,0,0,1-.044.381l.023-7.882a2.143,2.143,0,0,0,.042-.381" transform="translate(40.487 -98.706)"/><path class="n" d="M-37.12,98.945l-.023,7.882a2.481,2.481,0,0,1-.113.389l.023-7.882a2.728,2.728,0,0,0,.113-.389" transform="translate(40.428 -98.507)"/><path class="o" d="M-37.129,99.131l-.023,7.882a2.857,2.857,0,0,1-.2.423l.023-7.882a2.96,2.96,0,0,0,.2-.423" transform="translate(40.324 -98.304)"/><path class="p" d="M-37.15,99.333l-.023,7.882a3.982,3.982,0,0,1-.341.507l.021-7.882a4,4,0,0,0,.343-.507" transform="translate(40.146 -98.083)"/><path class="q" d="M-37.169,99.575l-.021,7.882a5.974,5.974,0,0,1-.62.662l.021-7.882a5.781,5.781,0,0,0,.62-.662" transform="translate(39.822 -97.818)"/><path class="r" d="M-36.859,99.891l-.021,7.882a10.928,10.928,0,0,1-1.78,1.3l.023-7.882a11.028,11.028,0,0,0,1.778-1.3" transform="translate(38.892 -97.472)"/><path class="s" d="M-38.516,100.511l-.023,7.882q-.113.069-.232.138l.023-7.882.232-.138" transform="translate(38.771 -96.794)"/></g></g></g><g transform="translate(8.016 4.643)"><path class="d" d="M-31.67,97.4l-.022,7.882-18.983,11.032.022-7.882Z" transform="translate(50.675 -97.403)"/></g><g transform="translate(19.511 11.291)"><path class="d" d="M-31.731,100.577l-.022,7.882-13.432,7.806.022-7.882Z" transform="translate(45.186 -100.577)"/></g><g transform="translate(0 15.452)"><path class="e" d="M-47.829,106.4l-.022,7.882-6.652-3.84.022-7.882Z" transform="translate(54.503 -102.564)"/></g><g transform="translate(0.022)"><path class="f" d="M-21.253,99.027c4.213,2.431,3.966,4.971-.3,7.448l-13.433,7.806a12.151,12.151,0,0,1-12.859.195l-6.653-3.84L-27.9,95.185Zm-18.14,12.937,13.831-8.037c1.9-1.106,1.774-1.96.429-2.735l-2.36-1.363-18.984,11.031,2.362,1.363c1.342.775,2.821.846,4.722-.26" transform="translate(54.493 -95.185)"/></g><g class="c" transform="translate(6.651 19.097)"><g class="z"><g class="c"><path class="s" d="M-43.62,104.305l-.023,7.882a15.167,15.167,0,0,1-2.953,1.336l.021-7.882a15.186,15.186,0,0,0,2.955-1.336" transform="translate(56.503 -104.305)"/><path class="r" d="M-45.711,104.943l-.021,7.882a12.5,12.5,0,0,1-1.654.417l.023-7.882a12.807,12.807,0,0,0,1.652-.417" transform="translate(55.638 -103.607)"/><path class="q" d="M-46.879,105.142l-.023,7.882c-.308.057-.618.1-.926.132l.021-7.884c.31-.029.618-.073.928-.13" transform="translate(55.155 -103.389)"/><path class="p" d="M-47.414,105.2l-.021,7.884c-.251.025-.5.042-.752.05l.023-7.882c.249-.008.5-.027.75-.052" transform="translate(54.762 -103.322)"/><path class="o" d="M-47.813,105.229l-.023,7.882c-.224.006-.448.008-.672,0l.021-7.882c.224.006.448,0,.674,0" transform="translate(54.411 -103.294)"/><path class="n" d="M-48.148,105.248l-.021,7.882c-.216,0-.433-.017-.649-.034l.023-7.882c.216.017.431.029.647.034" transform="translate(54.072 -103.311)"/><path class="m" d="M-48.449,105.253l-.023,7.882c-.22-.019-.442-.044-.662-.075l.023-7.882c.22.031.44.057.662.075" transform="translate(53.726 -103.35)"/><path class="l" d="M-48.737,105.244l-.023,7.882c-.239-.033-.477-.075-.716-.124l.021-7.884c.239.05.477.092.718.126" transform="translate(53.352 -103.416)"/><path class="k" d="M-49.008,105.227l-.021,7.884c-.287-.061-.572-.13-.856-.212l.023-7.882c.285.082.57.151.854.209" transform="translate(52.905 -103.525)"/><path class="j" d="M-49.264,105.221l-.023,7.882q-.575-.163-1.145-.389l.023-7.882q.572.226,1.145.389" transform="translate(52.306 -103.728)"/><path class="i" d="M-49.43,105.307l-.023,7.882a13.857,13.857,0,0,1-1.874-.909l.023-7.882a13.857,13.857,0,0,0,1.874.909" transform="translate(51.327 -104.203)"/></g></g></g></g><g class="c" transform="translate(76.412 44.116)"><g transform="translate(13.542 4.394)"><path class="d" d="M-25.623,102.449l-.022,7.882L-41.13,116.97l.022-7.882Z" transform="translate(41.13 -102.449)"/></g><g transform="translate(3.858 12.823)"><path class="d" d="M-40.177,106.475l-.022,7.882-5.555,2.388.022-7.882Z" transform="translate(45.755 -106.475)"/></g><g transform="translate(0 12.984)"><path class="e" d="M-43.717,108.779l-.022,7.882-3.858-2.228.022-7.882Z" transform="translate(47.597 -106.552)"/></g><g transform="translate(9.414 12.823)"><path class="e" d="M-37.925,109.451l-.022,7.882-5.155-2.976.022-7.882Z" transform="translate(43.102 -106.475)"/></g><g transform="translate(0.022)"><path class="f" d="M-10.565,103.907l-22.314,17.92-4.245-2.45,4.106-3.227-5.155-2.976-5.555,2.387-3.859-2.226,30.863-12.985Zm-23.48,7.478,4.06,2.343,11.425-8.983-15.485,6.64" transform="translate(47.587 -100.351)"/></g><g transform="translate(14.708 3.556)"><path class="g" d="M-18.238,102.049l-.022,7.882-22.313,17.92.022-7.882Z" transform="translate(40.573 -102.049)"/></g><g transform="translate(10.464 19.025)"><path class="e" d="M-38.334,111.887l-.022,7.882-4.244-2.45.022-7.882Z" transform="translate(42.6 -109.437)"/></g></g></g></g></svg>