<svg xmlns="http://www.w3.org/2000/svg" xmlns:xlink="http://www.w3.org/1999/xlink" width="107.456" height="73.613" viewBox="0 0 107.456 73.613"><defs><style>.a,.b{fill:none;}.b{stroke:#831412;stroke-linejoin:round;stroke-width:2px;}.c{isolation:isolate;}.d{fill:#7e120e;}.e{fill:#ab2322;}.f{fill:#8f1917;}.g{fill:#fff;}.h{fill:#831412;}.i{clip-path:url(#a);}.j{fill:#811310;}.k{fill:#841512;}.l{fill:#871614;}.m{fill:#8b1815;}.n{fill:#8e1917;}.o{fill:#921a19;}.p{fill:#951c1a;}.q{fill:#991d1b;}.r{fill:#9c1e1d;}.s{fill:#a01f1e;}.t{clip-path:url(#b);}.u{clip-path:url(#c);}.v{clip-path:url(#d);}.w{clip-path:url(#e);}.x{clip-path:url(#f);}.y{clip-path:url(#g);}.z{fill:#801310;}</style><clipPath id="a"><path class="a" d="M-485.2,209.178l.1-7.811c.006-.41.333-.777.9-1.108,1.265-.731,2.789-.76,4.69.383l-.1,7.811c-1.9-1.143-3.424-1.112-4.688-.381C-484.864,208.4-485.193,208.767-485.2,209.178Z" transform="translate(485.197 -199.742)"/></clipPath><clipPath id="b"><path class="a" d="M-487.88,208.326l.1-7.811c-.017,1.349,1.122,2.747,3.386,4.106l-.1,7.813C-486.758,211.073-487.9,209.674-487.88,208.326Z" transform="translate(487.88 -200.515)"/></clipPath><clipPath id="c"><path class="a" d="M-474.111,205.937l-.1,7.813c.006-.486-.44-1.028-1.457-1.642l.1-7.811C-474.549,204.908-474.105,205.453-474.111,205.937Z" transform="translate(475.665 -204.297)"/></clipPath><clipPath id="d"><path class="a" d="M-464.117,205.1l-.1,7.813c-.015,1.181-.919,2.324-2.741,3.376-3.889,2.245-8.441,2.019-12.7-.544l.1-7.813c4.263,2.563,8.816,2.791,12.7.544C-465.037,207.419-464.132,206.276-464.117,205.1Z" transform="translate(479.659 -205.095)"/></clipPath><clipPath id="e"><path class="a" d="M-486.484,204.441l-.1,7.813c-1.9-1.143-3.193-1.12-4.458-.389l.1-7.813C-489.677,203.323-488.385,203.3-486.484,204.441Z" transform="translate(491.038 -203.538)"/></clipPath><clipPath id="f"><path class="a" d="M-485.443,206.685l-.1,7.813c.006-.45-.444-.957-1.466-1.573l.1-7.811C-485.887,205.73-485.437,206.234-485.443,206.685Z" transform="translate(487.005 -205.114)"/></clipPath><clipPath id="g"><path class="a" d="M-482.063,205.873l-.1,7.813c-.015,1.143-.921,2.257-2.766,3.321l.1-7.811C-482.984,208.13-482.077,207.018-482.063,205.873Z" transform="translate(484.925 -205.873)"/></clipPath></defs><g transform="translate(1 1)"><path class="b" d="M-416.024,196.119-422.35,185.8l-3.966,2.291-.075,6.085-5.126-3.082-3.966,2.291-.036,2.852-2.4-1.445-10.818,6.246-.025,2.023-1.7-1.026-12.269,7.084-.034,2.743a11.32,11.32,0,0,0-7.683,1.369c-1.878,1.083-2.758,2.272-2.712,3.5,0-.04-.023-.08-.023-.119l-.05,4.037a11.161,11.161,0,0,0-10.365.521l-5.834,3.367-.073,5.983-5.807-2.588-5.8,3.35-.1,7.813,22.542,18.32,3.644-2.1.069-5.715.672-.387,5.493,2.5,4.014-2.316.025-2.148,1.811,1.089,3.966-2.291.1-7.811-5.436-3.271.038-3.057,8.215,4.94a15.8,15.8,0,0,0,2.021,1.009c.082.036.159.088.241.121.212.084.423.147.635.22.165.057.329.119.494.17.065.021.132.048.2.069.325.092.649.174.974.241.075.017.149.025.224.04s.126.021.188.031c.13.023.26.05.39.069.245.033.488.061.733.08.1.008.209.01.314.017l.155.006c.08,0,.161.01.241.013.243,0,.486,0,.727-.01.155-.008.308-.025.463-.038.057-.006.113-.008.172-.015s.111-.006.165-.013c.348-.042.7-.1,1.037-.172.048-.01.094-.034.142-.044a11.311,11.311,0,0,0,1.1-.327c.176-.061.354-.1.53-.172a11.8,11.8,0,0,0,1.568-.752,9.475,9.475,0,0,0,1.242-.852c.017-.013.042-.025.057-.038a5.691,5.691,0,0,0,.678-.664c.015-.019.025-.038.04-.057s.046-.065.071-.1a3.665,3.665,0,0,0,.251-.343,3.069,3.069,0,0,0,.218-.431l0-.01.006-.017a2.489,2.489,0,0,0,.117-.375,2.4,2.4,0,0,0,.054-.4l0-.086.1-7.813a2.539,2.539,0,0,1-.08.392,2.439,2.439,0,0,0-.111-1.254l8.621,5.183,3.966-2.289.086-6.881,5.8,3.484,10.818-6.246.036-2.852,2.4,1.445,3.966-2.291.054-4.385,5.038,1.445,4.075-2.352.1-7.813Zm-25.228,31.85a6.076,6.076,0,0,1-.5.484,5.191,5.191,0,0,0,.563-.578C-441.21,227.906-441.227,227.937-441.252,227.969Zm-26.133-11.86.029-.042Zm-.153.3.008-.027Zm21.373,9.708a.961.961,0,0,0-.046-.209A.961.961,0,0,1-446.165,226.12Zm-.657-1.022a3.117,3.117,0,0,1,.291.27A3.117,3.117,0,0,0-446.822,225.1Zm.408.427a1.725,1.725,0,0,1,.151.23A1.725,1.725,0,0,0-446.414,225.525Zm-1.2-.995a6.3,6.3,0,0,1,.637.431A6.3,6.3,0,0,0-447.612,224.53Zm13.4-19.64.036-2.852,3.229,1.941-2.615,1.508-.825-.494Zm9.858,3.055,5,3-2.613,1.51L-424.4,211Zm-42.309,7.564a3.37,3.37,0,0,0-.423.289A3.37,3.37,0,0,1-466.667,215.51Zm-4.58,4.213c-.138-.111-.23-.222-.354-.333C-471.477,219.5-471.385,219.612-471.247,219.723Zm-1.684-2a2.652,2.652,0,0,1-.121-.421A2.652,2.652,0,0,0-472.93,217.721Zm.641,1a4.477,4.477,0,0,1-.27-.4C-472.467,218.456-472.4,218.588-472.289,218.722Zm31.584,8.347-.006.017a3.416,3.416,0,0,1-.26.436,3.112,3.112,0,0,0,.283-.54C-440.7,227.01-440.7,227.039-440.706,227.068Z" transform="translate(501.22 -185.802)"/><g transform="translate(0.001 0.001)"><g class="c" transform="translate(65.639)"><g transform="translate(9.168 2.29)"><path class="d" d="M-459.009,196.868l-.1,7.812-6.39-9.972.1-7.812Z" transform="translate(465.495 -186.896)"/></g><g transform="translate(35.645 15.986)"><path class="e" d="M-448.68,193.436l-.1,7.812-4.074,2.352.1-7.812Z" transform="translate(452.851 -193.436)"/></g><g transform="translate(21.192 14.195)"><path class="f" d="M-445.2,196.724l-.1,7.812-14.453-4.143.1-7.812Z" transform="translate(459.753 -192.581)"/></g><g transform="translate(0.097)"><path class="g" d="M-456.693,185.8l6.326,10.316,20.259,5.669-4.074,2.352L-448.635,200l1.2,2.179,8.156,4.9-3.966,2.29-26.585-15.986,3.966-2.29,11.591,6.969-6.39-9.972Z" transform="translate(469.827 -185.802)"/></g><g transform="translate(26.585 21.278)"><path class="e" d="M-453.114,195.964l-.1,7.812-3.967,2.29.1-7.812Z" transform="translate(457.177 -195.964)"/></g><g transform="translate(0 7.583)"><path class="h" d="M-443.191,205.409l-.1,7.812-26.585-15.986.1-7.812Z" transform="translate(469.873 -189.424)"/></g></g><g class="c" transform="translate(52.382 8.991)"><g transform="translate(7.769 2.286)"><path class="e" d="M-465.545,191.188l-.1,7.812-6.853,3.956.1-7.812Z" transform="translate(472.494 -191.188)"/></g><g transform="translate(18.976 9.836)"><path class="e" d="M-461.6,194.793l-.1,7.812-5.448,3.145.1-7.812Z" transform="translate(467.142 -194.793)"/></g><g transform="translate(0.097)"><path class="g" d="M-465.339,190.1l3.8,2.286-6.853,3.956,7.405,4.453,5.448-3.145,3.8,2.286-5.448,3.145,7.789,4.683,6.853-3.956,3.787,2.277-10.819,6.246-26.585-15.986Z" transform="translate(476.158 -190.096)"/></g><g transform="translate(26.585 15.986)"><path class="e" d="M-452.593,197.73l-.1,7.812-10.819,6.246.1-7.812Z" transform="translate(463.508 -197.73)"/></g><g transform="translate(0 6.246)"><path class="h" d="M-449.522,209.064l-.1,7.812L-476.2,200.891l.1-7.812Z" transform="translate(476.204 -193.079)"/></g></g><g class="c" transform="translate(38.384 16.235)"><g transform="translate(11.92 2.286)"><path class="e" d="M-472.949,194.647l-.1,7.812-4.152,2.4.1-7.812Z" transform="translate(477.197 -194.647)"/></g><g transform="translate(3.802 6.973)"><path class="e" d="M-476.825,196.886l-.1,7.812-4.152,2.4.1-7.812Z" transform="translate(481.074 -196.886)"/></g><g transform="translate(0 7.084)"><path class="h" d="M-478.991,199.225l-.1,7.812-3.8-2.286.1-7.812Z" transform="translate(482.889 -196.938)"/></g><g transform="translate(0.097)"><path class="g" d="M-470.574,193.555l3.8,2.286-4.152,2.4,22.783,13.7-3.966,2.29-22.783-13.7-4.152,2.4-3.8-2.286Z" transform="translate(482.843 -193.555)"/></g><g transform="translate(30.737 18.383)"><path class="e" d="M-464.148,202.334l-.1,7.812-3.966,2.29.1-7.812Z" transform="translate(468.211 -202.334)"/></g><g transform="translate(7.954 6.973)"><path class="h" d="M-456.211,210.585l-.1,7.812-22.783-13.7.1-7.812Z" transform="translate(479.091 -196.886)"/></g></g><g class="c" transform="translate(27.933 25.883)"><g class="c" transform="translate(5.618 3.306)"><g class="i"><g class="c" transform="translate(0 -0.001)"><path class="j" d="M-481.87,200.453l-.1,7.811a7.511,7.511,0,0,0-1.068-.538l.1-7.811a7.21,7.21,0,0,1,1.07.538" transform="translate(487.561 -199.552)"/><path class="k" d="M-482.662,200.011l-.1,7.811c-.18-.071-.358-.132-.532-.182l.1-7.813a5.364,5.364,0,0,1,.532.184" transform="translate(487.283 -199.648)"/><path class="l" d="M-483.009,199.873l-.1,7.813c-.119-.036-.239-.065-.354-.09l.1-7.811c.115.025.235.054.354.088" transform="translate(487.098 -199.694)"/><path class="m" d="M-483.212,199.811l-.1,7.811c-.1-.019-.193-.036-.289-.05l.1-7.811c.094.013.191.029.287.05" transform="translate(486.947 -199.72)"/><path class="n" d="M-483.366,199.775l-.1,7.811c-.084-.01-.17-.021-.253-.027l.1-7.811c.082.006.168.015.253.027" transform="translate(486.815 -199.735)"/><path class="o" d="M-483.495,199.755l-.1,7.811c-.08-.006-.159-.01-.239-.01l.1-7.813q.116,0,.239.013" transform="translate(486.69 -199.741)"/><path class="p" d="M-483.609,199.742l-.1,7.813c-.079,0-.159,0-.239,0l.1-7.811c.08,0,.159-.006.241,0" transform="translate(486.566 -199.742)"/><path class="q" d="M-483.713,199.744l-.1,7.811c-.088,0-.176.01-.262.021l.1-7.811c.086-.01.174-.017.262-.021" transform="translate(486.429 -199.739)"/><path class="r" d="M-483.8,199.754l-.1,7.811c-.113.015-.226.034-.337.057l.1-7.813c.109-.023.222-.042.335-.054" transform="translate(486.253 -199.728)"/><path class="s" d="M-483.322,199.78l-.1,7.813a3.813,3.813,0,0,0-1.116.438,3.12,3.12,0,0,0-.438.3l.1-7.811a3.122,3.122,0,0,1,.438-.3,3.863,3.863,0,0,1,1.118-.438" transform="translate(485.441 -199.7)"/><path class="r" d="M-484.763,200.132l-.1,7.811a1.951,1.951,0,0,0-.22.216l.1-7.811a1.79,1.79,0,0,1,.22-.216" transform="translate(485.326 -199.314)"/><path class="q" d="M-484.921,200.235l-.1,7.811a1.373,1.373,0,0,0-.117.161l.1-7.813a1.337,1.337,0,0,1,.117-.159" transform="translate(485.265 -199.202)"/><path class="p" d="M-485,200.311l-.1,7.813a1.059,1.059,0,0,0-.069.138l.1-7.811a.971.971,0,0,1,.069-.14" transform="translate(485.229 -199.119)"/><path class="o" d="M-485.05,200.378l-.1,7.811a.8.8,0,0,0-.042.132l.1-7.813a.943.943,0,0,1,.042-.13" transform="translate(485.207 -199.045)"/><path class="n" d="M-485.082,200.44l-.1,7.813a.717.717,0,0,0-.019.132l.1-7.811a.928.928,0,0,1,.017-.134" transform="translate(485.197 -198.978)"/><path class="m" d="M-485.1,200.5l-.1,7.811v.029l.1-7.811,0-.029" transform="translate(485.197 -198.908)"/></g></g></g><g class="c" transform="translate(0 4.925)"><g class="t"><g class="c"><path class="j" d="M-484.4,204.621l-.1,7.813c-2.264-1.361-3.4-2.76-3.386-4.108l.1-7.811c-.017,1.349,1.122,2.747,3.386,4.106" transform="translate(487.88 -200.515)"/></g></g></g><g transform="translate(11.212 4.206)"><path class="h" d="M-468.063,208.81l-.1,7.812-14.366-8.638.1-7.812Z" transform="translate(482.526 -200.172)"/></g><g class="c" transform="translate(25.578 12.845)"><g class="u"><g class="c"><path class="j" d="M-474.111,205.937l-.1,7.813c.006-.486-.44-1.028-1.457-1.642l.1-7.811c1.02.611,1.464,1.156,1.457,1.64" transform="translate(475.665 -204.297)"/></g></g></g><g transform="translate(3.386 9.032)"><path class="h" d="M-472.337,210.792l-.1,7.812-13.829-8.316.1-7.812Z" transform="translate(486.263 -202.476)"/></g><g class="c" transform="translate(17.215 14.516)"><g class="v"><g class="c"><path class="m" d="M-472.185,205.1l-.1,7.813,0,.086.1-7.811,0-.088" transform="translate(487.726 -205.095)"/><path class="n" d="M-472.158,205.137l-.1,7.811a2.4,2.4,0,0,1-.054.4l.1-7.813a2.418,2.418,0,0,0,.057-.4" transform="translate(487.698 -205.049)"/><path class="o" d="M-472.149,205.329l-.1,7.813a2.689,2.689,0,0,1-.126.4l.1-7.811a2.434,2.434,0,0,0,.126-.4" transform="translate(487.632 -204.839)"/><path class="p" d="M-472.161,205.522l-.1,7.811a3.066,3.066,0,0,1-.218.431l.1-7.811a3.1,3.1,0,0,0,.218-.431" transform="translate(487.518 -204.628)"/><path class="q" d="M-472.189,205.728l-.1,7.811a3.982,3.982,0,0,1-.362.5l.1-7.813a3.834,3.834,0,0,0,.362-.5" transform="translate(487.329 -204.403)"/><path class="r" d="M-472.2,205.965l-.1,7.813a5.7,5.7,0,0,1-.678.664l.1-7.813a5.537,5.537,0,0,0,.678-.664" transform="translate(486.975 -204.143)"/><path class="s" d="M-470.455,206.282l-.1,7.813a9.389,9.389,0,0,1-1.3.89,11.506,11.506,0,0,1-3.336,1.294l.1-7.813a11.445,11.445,0,0,0,3.336-1.294,9.028,9.028,0,0,0,1.3-.89" transform="translate(484.554 -203.796)"/><path class="r" d="M-474.547,207.325l-.1,7.813c-.341.073-.689.13-1.037.172l.1-7.813c.35-.04.7-.1,1.037-.172" transform="translate(484.012 -202.655)"/><path class="q" d="M-475.166,207.407l-.1,7.813c-.264.031-.532.052-.8.065l.1-7.813c.268-.013.536-.034.8-.065" transform="translate(483.594 -202.566)"/><path class="p" d="M-475.586,207.438l-.1,7.813c-.241.01-.484.015-.727.01l.1-7.813c.243,0,.486,0,.727-.01" transform="translate(483.215 -202.532)"/><path class="o" d="M-475.942,207.461l-.1,7.813c-.237,0-.473-.017-.71-.036l.1-7.811c.237.019.473.029.71.033" transform="translate(482.844 -202.544)"/><path class="n" d="M-476.269,207.47l-.1,7.811c-.243-.019-.488-.046-.733-.08l.1-7.813c.245.036.49.063.733.082" transform="translate(482.461 -202.586)"/><path class="m" d="M-476.583,207.46l-.1,7.813c-.268-.038-.534-.084-.8-.14l.1-7.811c.268.054.534.1.8.138" transform="translate(482.042 -202.659)"/><path class="l" d="M-476.876,207.449l-.1,7.811c-.325-.067-.649-.149-.974-.241l.1-7.813c.325.094.649.174.974.243" transform="translate(481.533 -202.786)"/><path class="k" d="M-477.157,207.446l-.1,7.813c-.442-.13-.884-.281-1.326-.459l.1-7.813a13.819,13.819,0,0,0,1.326.459" transform="translate(480.84 -203.025)"/><path class="j" d="M-477.3,207.578l-.1,7.813a16.045,16.045,0,0,1-2.261-1.131l.1-7.813a15.712,15.712,0,0,0,2.262,1.131" transform="translate(479.659 -203.616)"/></g></g></g><g transform="translate(0.096)"><path class="g" d="M-485.1,199.71c3.905-2.255,8.443-2.019,12.69.534l13.829,8.315c4.263,2.563,4.571,5.241.666,7.494-3.889,2.247-8.441,2.019-12.7-.544l-13.829-8.315C-488.694,204.642-488.988,201.955-485.1,199.71Zm22.844,11.3-14.365-8.638c-1.9-1.143-3.426-1.114-4.69-.383s-1.332,1.619.57,2.762l14.365,8.638c1.887,1.133,3.409,1.1,4.659.381,1.267-.729,1.349-1.627-.538-2.76" transform="translate(487.834 -198.163)"/></g></g><g class="c" transform="translate(11.683 33.805)"><g class="c" transform="translate(9.637 3.332)"><g class="w"><g class="c" transform="translate(0 0)"><path class="j" d="M-488.222,204.269l-.1,7.813a7.892,7.892,0,0,0-1.131-.574l.1-7.813a8.113,8.113,0,0,1,1.131.574" transform="translate(492.776 -203.365)"/><path class="k" d="M-489.094,203.785l-.1,7.813a5.023,5.023,0,0,0-.5-.172l.1-7.813c.161.046.327.1.5.172" transform="translate(492.517 -203.455)"/><path class="l" d="M-489.422,203.655l-.1,7.813c-.109-.031-.216-.059-.32-.08l.1-7.813c.1.021.212.048.32.08" transform="translate(492.35 -203.497)"/><path class="m" d="M-489.611,203.6l-.1,7.813c-.086-.019-.17-.034-.251-.046l.1-7.811q.126.019.251.044" transform="translate(492.218 -203.52)"/><path class="n" d="M-489.749,203.566l-.1,7.811c-.073-.008-.146-.017-.218-.023l.1-7.811c.071,0,.144.013.218.023" transform="translate(492.105 -203.532)"/><path class="o" d="M-489.861,203.548l-.1,7.811c-.069-.006-.136-.008-.2-.01l.1-7.811c.067,0,.134,0,.2.01" transform="translate(491.999 -203.537)"/><path class="p" d="M-489.955,203.538l-.1,7.811c-.071,0-.138,0-.207,0l.1-7.813c.069,0,.138,0,.207,0" transform="translate(491.89 -203.538)"/><path class="q" d="M-490.045,203.539l-.1,7.813a2.063,2.063,0,0,0-.226.019l.1-7.813q.113-.012.226-.019" transform="translate(491.772 -203.536)"/><path class="r" d="M-490.119,203.548l-.1,7.813a2.722,2.722,0,0,0-.291.048l.1-7.813c.1-.021.193-.036.291-.048" transform="translate(491.62 -203.526)"/><path class="s" d="M-489.828,203.571l-.1,7.813a3.78,3.78,0,0,0-1.114.444l.1-7.813a3.9,3.9,0,0,1,1.114-.444" transform="translate(491.038 -203.501)"/></g></g></g><g transform="translate(7.769 3.847)"><path class="e" d="M-489.966,203.783l-.1,7.812-1.867,1.078.1-7.812Z" transform="translate(491.93 -203.783)"/></g><g transform="translate(14.095 4.236)"><path class="h" d="M-484.826,206.366l-.1,7.812-3.986-2.4.1-7.812Z" transform="translate(488.909 -203.969)"/></g><g class="c" transform="translate(18.082 6.633)"><g class="x"><g class="c"><path class="j" d="M-485.443,206.685l-.1,7.813c.006-.45-.444-.957-1.466-1.573l.1-7.811c1.022.616,1.472,1.12,1.466,1.57" transform="translate(487.005 -205.114)"/></g></g></g><g class="c" transform="translate(22.438 8.223)"><g class="y"><g class="c"><path class="m" d="M-483.506,205.873l-.1,7.813,0,.082.1-7.813,0-.082" transform="translate(486.368 -205.873)"/><path class="n" d="M-483.481,205.912l-.1,7.813a2.326,2.326,0,0,1-.05.377l.1-7.811a2.325,2.325,0,0,0,.052-.379" transform="translate(486.342 -205.83)"/><path class="o" d="M-483.471,206.093l-.1,7.811a2.658,2.658,0,0,1-.119.381l.1-7.813a2.559,2.559,0,0,0,.119-.379" transform="translate(486.279 -205.632)"/><path class="p" d="M-483.482,206.274l-.1,7.813a3.147,3.147,0,0,1-.207.41l.1-7.813a3.026,3.026,0,0,0,.207-.41" transform="translate(486.171 -205.434)"/><path class="q" d="M-483.506,206.47l-.1,7.813a3.928,3.928,0,0,1-.352.484l.1-7.813a3.617,3.617,0,0,0,.352-.484" transform="translate(485.987 -205.22)"/><path class="r" d="M-483.507,206.7l-.1,7.813a5.756,5.756,0,0,1-.672.658l.1-7.813a5.581,5.581,0,0,0,.672-.657" transform="translate(485.636 -204.967)"/><path class="s" d="M-483.468,207.015l-.1,7.813a9.769,9.769,0,0,1-1.361.93l.1-7.811a9.767,9.767,0,0,0,1.361-.932" transform="translate(484.925 -204.624)"/></g></g></g><g transform="translate(20.571 11.545)"><path class="e" d="M-483.853,207.46l-.1,7.812-1.868,1.078.1-7.812Z" transform="translate(485.817 -207.46)"/></g><g transform="translate(0 4.929)"><path class="h" d="M-468.958,220.286l-.1,7.812-26.585-15.986.1-7.812Z" transform="translate(495.64 -204.3)"/></g><g transform="translate(26.585 18.625)"><path class="e" d="M-478.881,210.841l-.1,7.812-3.966,2.29.1-7.812Z" transform="translate(482.944 -210.841)"/></g><g transform="translate(0.097)"><path class="g" d="M-489.76,203.508c3.966-2.291,8.225-2.021,12.489.542l3.449,2.073c4.263,2.563,4.634,5.078.666,7.369l-1.866,1.076,9.98,6-3.966,2.289-26.585-15.986Zm12.248,5.072-3.987-2.4c-1.9-1.143-3.193-1.118-4.458-.389l-1.868,1.078,9,5.413,1.868-1.078c1.265-.731,1.33-1.493-.555-2.626" transform="translate(495.594 -201.946)"/></g></g><g class="c" transform="translate(0 42.129)"><g transform="translate(7.423 4.631)"><path class="l" d="M-482.234,215.1l-.1,7.812-15.344-6.971.1-7.812Z" transform="translate(497.675 -208.133)"/></g><g transform="translate(32.419 13.652)"><path class="e" d="M-481.628,212.441l-.1,7.812-4.013,2.317.1-7.812Z" transform="translate(485.738 -212.441)"/></g><g transform="translate(26.926 13.466)"><path class="l" d="M-482.771,214.854l-.1,7.812-5.493-2.5.1-7.812Z" transform="translate(488.361 -212.352)"/></g><g transform="translate(22.049 13.466)"><path class="e" d="M-485.716,212.352l-.1,7.812-4.877,2.816.1-7.812Z" transform="translate(490.69 -212.352)"/></g><g transform="translate(0.096)"><path class="g" d="M-495.37,205.921l30.629,13.653-4.012,2.316-5.495-2.5-4.877,2.814,4.136,3.288-3.644,2.1-22.542-18.32Zm13.136,13.812,3.828-2.209-15.345-6.971,11.517,9.18" transform="translate(501.174 -205.921)"/></g><g transform="translate(22.542 19.568)"><path class="e" d="M-486.716,215.266l-.1,7.812-3.642,2.1.1-7.812Z" transform="translate(490.455 -215.266)"/></g><g transform="translate(0 3.351)"><path class="z" d="M-478.581,225.842l-.1,7.812-22.542-18.32.1-7.812Z" transform="translate(501.22 -207.521)"/></g></g></g></g></svg>