<svg xmlns="http://www.w3.org/2000/svg" xmlns:xlink="http://www.w3.org/1999/xlink" width="131.524" height="80.676" viewBox="0 0 131.524 80.676"><defs><style>.a,.b{fill:none;}.b{stroke:#490c5a;stroke-linejoin:round;stroke-width:2px;}.c{isolation:isolate;}.d{fill:#622378;}.e{fill:#602176;}.f{fill:#4a0e5c;}.g{fill:#fff;}.h{clip-path:url(#a);}.i{fill:#490c5a;}.j{fill:#4b0e5c;}.k{fill:#4d115f;}.l{fill:#4f1361;}.m{fill:#511463;}.n{fill:#531666;}.o{fill:#551868;}.p{fill:#571a6a;}.q{fill:#591c6d;}.r{fill:#5b1d70;}.s{fill:#5d1f72;}.t{clip-path:url(#b);}.u{clip-path:url(#c);}.v{clip-path:url(#d);}.w{clip-path:url(#e);}.x{clip-path:url(#f);}.y{clip-path:url(#g);}.z{clip-path:url(#h);}.aa{clip-path:url(#i);}.ab{clip-path:url(#j);}.ac{clip-path:url(#k);}.ad{clip-path:url(#l);}.ae{clip-path:url(#m);}.af{fill:#5f2074;}.ag{fill:#602175;}.ah{fill:#5f2175;}.ai{fill:#5c1e71;}</style><clipPath id="a"><path class="a" d="M107.541,213.492l-.021,7.882c-1.328-.766-2.821-.827-4.722.276l.023-7.882C104.722,212.665,106.215,212.726,107.541,213.492Z" transform="translate(-102.798 -212.927)"/></clipPath><clipPath id="b"><path class="a" d="M101.285,223.341l.023-7.882c0-.507.471-1.055,1.543-1.679l-.023,7.882C101.756,222.286,101.287,222.834,101.285,223.341Z" transform="translate(-101.285 -213.78)"/></clipPath><clipPath id="c"><path class="a" d="M99,221.894l.023-7.882a2.371,2.371,0,0,0,.49,1.386l-.023,7.882A2.371,2.371,0,0,1,99,221.894Z" transform="translate(-99.001 -214.012)"/></clipPath><clipPath id="d"><path class="a" d="M103.406,216.773l-.023,7.882c-1.914-1.106-3.667-1.051-6.135.383l.021-7.882C99.738,215.722,101.493,215.668,103.406,216.773Z" transform="translate(-97.248 -216.005)"/></clipPath><clipPath id="e"><path class="a" d="M95.38,226.7l.021-7.882c0-.48.446-1,1.443-1.583l-.021,7.882C95.824,225.7,95.38,226.225,95.38,226.7Z" transform="translate(-95.38 -217.24)"/></clipPath><clipPath id="f"><path class="a" d="M92.28,225.836l.023-7.882c0,.886.645,1.721,1.97,2.488a8.626,8.626,0,0,0,6.3.865l-.021,7.882a8.623,8.623,0,0,1-6.3-.865C92.925,227.557,92.278,226.722,92.28,225.836Z" transform="translate(-92.28 -217.954)"/></clipPath><clipPath id="g"><path class="a" d="M100.247,220.4l-.023,7.882a8.364,8.364,0,0,0-2.772,2.148l.023-7.882A8.365,8.365,0,0,1,100.247,220.4Z" transform="translate(-97.451 -220.397)"/></clipPath><clipPath id="h"><path class="a" d="M62.161,209.753l-.023,7.884c0-.4-.333-.787-1-1.171l.023-7.882C61.828,208.968,62.161,209.351,62.161,209.753Z" transform="translate(-61.139 -208.585)"/></clipPath><clipPath id="i"><path class="a" d="M66.206,209.291l-.021,7.882c0,1.175-1.066,2.335-3.122,3.528l.021-7.882C65.14,211.626,66.2,210.466,66.206,209.291Z" transform="translate(-63.063 -209.291)"/></clipPath><clipPath id="j"><path class="a" d="M66.845,211.24l-.021,7.882a10.93,10.93,0,0,1-8.068,1.541l.021-7.882A10.936,10.936,0,0,0,66.845,211.24Z" transform="translate(-58.756 -211.24)"/></clipPath><clipPath id="k"><path class="a" d="M57.314,213.062l-.023,7.882c0-.513-.486-.99-1.395-1.516l.021-7.882C56.826,212.072,57.316,212.549,57.314,213.062Z" transform="translate(-55.896 -211.546)"/></clipPath><clipPath id="l"><path class="a" d="M60.712,212.719l-.023,7.882c0,1.235-1.154,2.414-3.154,3.577l.023-7.882C59.558,215.133,60.707,213.955,60.712,212.719Z" transform="translate(-57.535 -212.719)"/></clipPath><clipPath id="m"><path class="a" d="M63.157,215.04l-.023,7.882a12.078,12.078,0,0,1-12.692-.025l.023-7.882A12.083,12.083,0,0,0,63.157,215.04Z" transform="translate(-50.442 -215.015)"/></clipPath></defs><g transform="translate(1 1)"><path class="b" d="M111.1,243.963l26.587-15.452.023-7.882-5.851-3.378-5.989,2.565.017-6.012-5.851-3.378-1.795,1.043,0-2.069.017-.008-13.01-7.511-3.562,2.069.01-4.111-6.156-3.554-30.88,12.972-.021,7.884,3.874,2.236,5.555-2.389,1.066.616-.017,5.587,4.245,2.45,3.688-2.961-.015,5.082,4.2,2.423,6.209-3.608-.019,7.182L97.1,235.88l3.143-1.826-.01,3.635,3.981,2.3,2.911-1.246-.008,2.921Zm-9.649-34.777-5.763,3.35,5.767-4.632ZM85.088,221.051l.006-.006L87.27,222.3l-.006,0Z" transform="translate(-28.282 -196.287)"/><path class="b" d="M115.733,233.8l3.788-2.2,0-1.29,1.859-1.08.015-4.7,2.368,1.367,3.786-2.2.023-7.882-4.816-2.781a12.135,12.135,0,0,0-12.828.195l-.49.287c-2.084,1.21-3.095,2.377-3.051,3.549,0-.025-.013-.052-.013-.08l0,1.33a11.608,11.608,0,0,0-7.989,1.625l-2.7,1.568c-2.352,1.365-3.476,2.693-3.346,3.922a1.521,1.521,0,0,1-.036-.191l-.023,7.882c0,.886.645,1.721,1.973,2.488a8.067,8.067,0,0,0,1.1.532c.088.036.178.061.268.092.061.021.121.042.182.061.1.031.193.071.291.1.191.054.383.1.58.142.17.036.339.065.513.09l.046.006.036,0c.136.019.272.036.41.046.168.015.333.023.5.027s.36,0,.542,0l.107-.008,0,0,0,1.219,4.274,2.469a4.257,4.257,0,0,1,.362-.419c.061-.065.117-.134.184-.2s.178-.149.266-.224c.134-.111.266-.222.417-.331.107-.077.228-.157.345-.234.157-.1.314-.209.49-.316.224-.138.454-.276.708-.425l8.74-5.078.023-7.882.017.008-.023,7.886,1.078.622.021-7.884.019.008Zm-3.271-17.144c-.157.1-.325.2-.45.3.126-.1.293-.2.45-.3Zm-.643.467,0,0,.019-.017Zm-.555.647-.01.015.013-.021Zm.329-.446,0,0c-.015.017-.042.036-.057.052C111.549,217.362,111.576,217.343,111.593,217.324Zm-11.582,6.567c-.142.09-.291.18-.406.268.119-.09.27-.184.419-.276Zm-.588.429-.006,0,.033-.029Zm-.521.6.013-.027Zm7.566-7.417a1.983,1.983,0,0,0,.052.214A1.983,1.983,0,0,1,106.467,217.5Zm-7.235,6.981-.031.034-.04.036C99.182,224.532,99.209,224.509,99.232,224.486Zm-.431.758,0,.025Zm-6.077,1.168a3.372,3.372,0,0,0,.408.456A3.372,3.372,0,0,1,92.724,226.412Zm-.335-.7a2.065,2.065,0,0,0,.182.438A2.065,2.065,0,0,1,92.389,225.711Zm.961,1.374a6.506,6.506,0,0,0,.923.643A6.506,6.506,0,0,1,93.35,227.084Z" transform="translate(1.95 -179.869)"/><path class="b" d="M55.694,233.836c.054.021.107.057.161.078q.6.236,1.2.408l.015,0,.027.006c.276.077.551.147.827.2.247.052.494.094.741.13h.008l.015,0c.218.031.438.057.658.073s.44.031.658.036c.073,0,.144,0,.216,0h.136c.109,0,.218,0,.327,0q.371-.013.741-.05c.092-.008.184-.027.276-.038l-.008,2.781,3.859,2.226,5.555-2.387,1.081.624-.015,5.587,4.242,2.45,1.908-1.533-.008,2.63,3.8,2.19,5.25-3.049-.017,6.07,4.32,2.494,3.02-1.755-.008,3.493,4.213,2.433,5.4-3.141-.019,6.251,4.322,2.494,8.885-11.94,17.7-3.51.023-7.882L131,238.78l-5.507,1.148.013-4.32-4.213-2.433-3.02,1.755.008-3.493-3.75-2.165-4.335,2.521.015-5.015-5.279-3.047-6.209,3.608.019-7.182L92.582,216.6l-9.13,3.84.021-7.339h0v0h0c0-1.173-1.049-2.362-3.223-3.618l-6.359-3.671L47.3,221.262l-.023,7.882,6.621,3.824A15.119,15.119,0,0,0,55.694,233.836Zm14.547-10.97c-.067.052-.124.1-.195.157-.023.019-.057.036-.082.054.1-.073.188-.144.281-.216Zm12.491-8.085h0c.033-.038.046-.075.077-.113C82.777,214.705,82.765,214.743,82.731,214.781Zm-.892.838h0c.08-.063.134-.124.207-.186C81.971,215.495,81.917,215.555,81.839,215.618Zm1.443-1.675,0,0a2.235,2.235,0,0,0,.073-.322A2.2,2.2,0,0,1,83.282,213.943Zm-5.98-1.2a.908.908,0,0,0-.22-.519A.908.908,0,0,1,77.3,212.741Zm-.291-.591a2.821,2.821,0,0,0-.687-.53A2.821,2.821,0,0,1,77.011,212.151Zm-10.506,6.6a1.132,1.132,0,0,0-.109-.151A1.132,1.132,0,0,1,66.5,218.755Zm.191.4a.923.923,0,0,0-.038-.167A.923.923,0,0,1,66.7,219.155Zm-.588-.808c-.054-.044-.092-.086-.151-.13C66.015,218.261,66.055,218.3,66.107,218.347Z" transform="translate(-47.28 -185.869)"/><g transform="translate(0)"><g class="c" transform="translate(36.364)"><g transform="translate(13.557 4.392)"><path class="d" d="M86.627,198.384l-.022,7.882L71.12,212.905l.022-7.882Z" transform="translate(-71.12 -198.384)"/></g><g transform="translate(14.724 3.554)"><path class="e" d="M94.012,197.984l-.022,7.882-22.313,17.92L71.7,215.9Z" transform="translate(-71.677 -197.984)"/></g><g transform="translate(36.799 7.805)"><path class="f" d="M86.64,202.554l-.022,7.882-4.4-2.54.022-7.882Z" transform="translate(-82.219 -200.014)"/></g><g transform="translate(45.396 12.768)"><path class="f" d="M90.746,204.924l-.022,7.882-4.4-2.54.022-7.882Z" transform="translate(-86.325 -202.385)"/></g><g transform="translate(49.794 13.107)"><path class="d" d="M92.235,202.546l-.022,7.882-3.787,2.2.022-7.882Z" transform="translate(-88.425 -202.546)"/></g><g transform="translate(3.874 12.822)"><path class="d" d="M72.073,202.41l-.022,7.882L66.5,212.68l.022-7.882Z" transform="translate(-66.496 -202.41)"/></g><g transform="translate(0 12.973)"><path class="f" d="M68.542,204.719l-.022,7.882-3.874-2.237.022-7.882Z" transform="translate(-64.646 -202.482)"/></g><g transform="translate(9.429 12.822)"><path class="f" d="M74.326,205.386l-.022,7.882-5.155-2.976.022-7.882Z" transform="translate(-69.149 -202.41)"/></g><g transform="translate(10.479 19.024)"><path class="f" d="M73.917,207.822l-.022,7.882-4.244-2.45.022-7.882Z" transform="translate(-69.65 -205.372)"/></g><g transform="translate(0.022)"><path class="g" d="M101.693,199.841l-22.312,17.92-4.245-2.45,4.1-3.227-5.155-2.976L68.53,211.5l-3.874-2.238,30.88-12.972Zm-23.478,7.478,4.058,2.343L93.7,200.678l-15.485,6.64" transform="translate(-64.656 -196.287)"/></g><g transform="translate(22.595 12.768)"><path class="d" d="M98.259,202.385l-.022,7.882-22.8,13.25.022-7.882Z" transform="translate(-75.436 -202.385)"/></g><g transform="translate(18.397 23.595)"><path class="f" d="M77.652,209.979l-.022,7.882-4.2-2.424.022-7.882Z" transform="translate(-73.431 -207.555)"/></g><g transform="translate(18.419 5.595)"><path class="g" d="M108.642,206.471l-3.8,2.21-4.4-2.54L77.655,219.383l-4.213-2.433,22.786-13.242-4.4-2.54,3.8-2.21Z" transform="translate(-73.442 -198.959)"/></g></g><g class="c" transform="translate(65.147 14.14)"><g transform="translate(3.673 6.639)"><path class="d" d="M98.982,206.21l-.022,7.882L80.146,225.025l.022-7.882Z" transform="translate(-80.146 -206.21)"/></g><g transform="translate(16.664 3.377)"><path class="e" d="M102.145,204.653l-.022,7.882L86.35,225.295l.022-7.882Z" transform="translate(-86.35 -204.653)"/></g><g transform="translate(0 15.451)"><path class="f" d="M82.087,212.539l-.022,7.882L78.392,218.3l.022-7.882Z" transform="translate(-78.392 -210.419)"/></g><g transform="translate(6.806 19.381)"><path class="f" d="M85.646,214.594l-.022,7.882-3.982-2.3.022-7.882Z" transform="translate(-81.642 -212.295)"/></g><g transform="translate(10.788 12.27)"><path class="d" d="M105.542,208.9l-.022,7.882-21.976,9.41.022-7.882Z" transform="translate(-83.543 -208.899)"/></g><g transform="translate(0.022)"><path class="g" d="M122.662,213.242,96.074,228.694l-3.982-2.3,19.075-11.085L89.19,224.72l-3.982-2.3,15.681-12.742L82.075,220.612,78.4,218.491,104.99,203.04l5.849,3.377-15.773,12.76,21.746-9.312Z" transform="translate(-78.402 -203.04)"/></g><g transform="translate(13.69 23.355)"><path class="f" d="M88.933,216.492l-.022,7.882-3.982-2.3.022-7.882Z" transform="translate(-84.929 -214.193)"/></g><g transform="translate(17.672 10.203)"><path class="d" d="M113.441,207.912l-.022,7.882L86.831,231.245l.022-7.882Z" transform="translate(-86.831 -207.912)"/></g></g><g class="c" transform="translate(94.23 31.426)"><g class="c" transform="translate(22.025 3.418)"><g class="h"><g class="c" transform="translate(0 0.001)"><path class="i" d="M105.393,213.351l-.021,7.882a4.674,4.674,0,0,0-.611-.3l.023-7.882a4.529,4.529,0,0,1,.609.3" transform="translate(-100.65 -212.786)"/><path class="j" d="M104.974,213.122,104.951,221q-.182-.072-.364-.126l.021-7.882c.124.036.245.077.366.126" transform="translate(-100.841 -212.852)"/><path class="k" d="M104.752,213.031l-.021,7.882c-.092-.025-.184-.048-.276-.067l.023-7.882c.092.019.184.042.274.067" transform="translate(-100.985 -212.887)"/><path class="l" d="M104.6,212.985l-.023,7.882c-.077-.015-.155-.029-.232-.04l.023-7.882c.077.01.155.023.232.04" transform="translate(-101.107 -212.908)"/><path class="m" d="M104.481,212.958l-.023,7.882c-.071-.01-.144-.019-.218-.025l.023-7.882c.073.006.144.015.218.025" transform="translate(-101.22 -212.921)"/><path class="n" d="M104.375,212.938l-.023,7.882c-.071-.006-.142-.008-.214-.01l.021-7.882c.073,0,.144,0,.216.01" transform="translate(-101.332 -212.926)"/><path class="o" d="M104.278,212.929l-.021,7.882c-.075,0-.151,0-.228,0l.023-7.882q.113,0,.226,0" transform="translate(-101.451 -212.927)"/><path class="p" d="M104.189,212.928l-.023,7.882c-.086,0-.174.008-.262.019l.023-7.884c.088-.008.176-.015.262-.017" transform="translate(-101.588 -212.926)"/><path class="q" d="M104.105,212.936l-.023,7.884c-.111.01-.226.027-.341.048l.023-7.882c.115-.023.228-.038.341-.05" transform="translate(-101.766 -212.918)"/><path class="r" d="M104.087,212.96l-.023,7.882a4.846,4.846,0,0,0-.618.155l.023-7.882a4.756,4.756,0,0,1,.618-.155" transform="translate(-102.089 -212.891)"/><path class="s" d="M104.178,213.034l-.023,7.882a7,7,0,0,0-1.357.618l.023-7.882a6.947,6.947,0,0,1,1.357-.618" transform="translate(-102.798 -212.81)"/></g></g></g><g transform="translate(20.4 4.261)"><path class="d" d="M103.67,213.329l-.022,7.882-1.625.944.022-7.882Z" transform="translate(-102.022 -213.329)"/></g><g transform="translate(26.746 3.984)"><path class="f" d="M109.813,215.933l-.022,7.882-4.738-2.736.022-7.882Z" transform="translate(-105.053 -213.197)"/></g><g transform="translate(31.484 4.519)"><path class="d" d="M111.125,213.453l-.022,7.882-3.787,2.2.022-7.882Z" transform="translate(-107.316 -213.453)"/></g><g class="c" transform="translate(18.856 5.205)"><g class="t"><g class="c" transform="translate(0.001)"><path class="s" d="M102.112,213.78l-.023,7.882-.128.075.023-7.882.128-.075" transform="translate(-100.546 -213.78)"/><path class="r" d="M102.44,213.816l-.023,7.882a5.407,5.407,0,0,0-.873.634l.023-7.882a5.412,5.412,0,0,1,.873-.635" transform="translate(-101.002 -213.741)"/><path class="q" d="M101.7,214.119,101.682,222a2.5,2.5,0,0,0-.264.283l.023-7.884a2.482,2.482,0,0,1,.264-.281" transform="translate(-101.14 -213.409)"/><path class="p" d="M101.513,214.253l-.023,7.884a1.608,1.608,0,0,0-.138.205l.021-7.882a1.645,1.645,0,0,1,.14-.207" transform="translate(-101.213 -213.263)"/><path class="o" d="M101.414,214.352l-.021,7.882a1.009,1.009,0,0,0-.08.168l.023-7.882a1.2,1.2,0,0,1,.077-.168" transform="translate(-101.254 -213.154)"/><path class="n" d="M101.36,214.432l-.023,7.882a1,1,0,0,0-.044.149l.023-7.882a1,1,0,0,1,.044-.149" transform="translate(-101.277 -213.067)"/><path class="m" d="M101.324,214.5l-.023,7.882a.842.842,0,0,0-.015.142l.021-7.882a.85.85,0,0,1,.017-.142" transform="translate(-101.285 -212.989)"/><path class="l" d="M101.308,214.571l-.022,7.882v.022l.022-7.882v-.022" transform="translate(-101.285 -212.914)"/></g></g></g><g class="c" transform="translate(14.074 5.69)"><g class="u"><g class="c"><path class="i" d="M99.514,215.4l-.023,7.882a2.371,2.371,0,0,1-.49-1.386l.023-7.882a2.371,2.371,0,0,0,.49,1.386" transform="translate(-99.001 -214.012)"/></g></g></g><g class="c" transform="translate(10.403 9.864)"><g class="v"><g class="c" transform="translate(0 0)"><path class="i" d="M100.658,216.6l-.023,7.882a6.575,6.575,0,0,0-.875-.427l.021-7.882a6.486,6.486,0,0,1,.877.427" transform="translate(-94.5 -215.827)"/><path class="j" d="M100.03,216.253l-.021,7.882q-.239-.094-.477-.163l.021-7.882q.239.069.477.163" transform="translate(-94.749 -215.913)"/><path class="k" d="M99.732,216.134l-.021,7.882c-.115-.031-.23-.061-.343-.084l.021-7.882c.115.023.23.052.343.084" transform="translate(-94.929 -215.956)"/><path class="l" d="M99.537,216.076l-.021,7.882c-.094-.021-.188-.036-.283-.05l.021-7.882c.094.015.188.029.283.05" transform="translate(-95.076 -215.983)"/><path class="m" d="M99.39,216.041l-.021,7.882c-.086-.013-.174-.021-.26-.029l.023-7.882c.086.008.172.017.258.029" transform="translate(-95.212 -215.998)"/><path class="n" d="M99.266,216.019l-.023,7.882c-.084-.006-.17-.011-.255-.013l.023-7.882c.084,0,.17.006.255.013" transform="translate(-95.346 -216.004)"/><path class="o" d="M99.151,216.007l-.023,7.882q-.135,0-.27,0l.021-7.882c.092,0,.182,0,.272,0" transform="translate(-95.487 -216.005)"/><path class="p" d="M99.04,216.006l-.021,7.882c-.1,0-.205.01-.308.021l.021-7.882c.1-.01.207-.017.308-.021" transform="translate(-95.647 -216.004)"/><path class="q" d="M98.938,216.016l-.021,7.882c-.13.015-.262.031-.394.057l.023-7.882c.132-.025.264-.042.392-.057" transform="translate(-95.853 -215.993)"/><path class="r" d="M98.956,216.043l-.023,7.882a6.17,6.17,0,0,0-.785.2l.021-7.882a6.294,6.294,0,0,1,.787-.2" transform="translate(-96.263 -215.964)"/><path class="s" d="M99.154,216.138l-.021,7.882a9.7,9.7,0,0,0-1.885.873l.021-7.882a9.813,9.813,0,0,1,1.885-.873" transform="translate(-97.248 -215.86)"/></g></g></g><g transform="translate(16.538 10.632)"><path class="f" d="M101.805,217.3l-.022,7.882-1.605-.927.022-7.882Z" transform="translate(-100.178 -216.372)"/></g><g transform="translate(26.129 10.053)"><path class="d" d="M107.755,216.1l-.022,7.882-2.975,1.729.022-7.882Z" transform="translate(-104.758 -216.095)"/></g><g transform="translate(7.934 11.015)"><path class="d" d="M98.56,216.555l-.022,7.882-2.469,1.435.022-7.882Z" transform="translate(-96.069 -216.555)"/></g><g class="c" transform="translate(6.491 12.45)"><g class="w"><g class="c" transform="translate(0)"><path class="s" d="M96.15,217.24l-.021,7.882-.115.069.021-7.884.115-.067" transform="translate(-94.686 -217.24)"/><path class="r" d="M96.457,217.272l-.021,7.884a4.883,4.883,0,0,0-.808.586l.023-7.882a4.886,4.886,0,0,1,.806-.588" transform="translate(-95.108 -217.205)"/><path class="q" d="M95.785,217.553l-.023,7.882a2.33,2.33,0,0,0-.255.272l.023-7.882a2.162,2.162,0,0,1,.255-.272" transform="translate(-95.242 -216.898)"/><path class="p" d="M95.6,217.683l-.023,7.882a1.778,1.778,0,0,0-.132.195l.023-7.882a1.33,1.33,0,0,1,.132-.195" transform="translate(-95.311 -216.755)"/><path class="o" d="M95.505,217.776l-.023,7.882a1.371,1.371,0,0,0-.075.159l.023-7.882a1.362,1.362,0,0,1,.075-.159" transform="translate(-95.35 -216.654)"/><path class="n" d="M95.451,217.852l-.023,7.882a.93.93,0,0,0-.04.144L95.409,218a.937.937,0,0,1,.042-.144" transform="translate(-95.371 -216.57)"/><path class="m" d="M95.418,217.921,95.4,225.8a.757.757,0,0,0-.017.136l.023-7.882a.749.749,0,0,1,.015-.136" transform="translate(-95.38 -216.495)"/><path class="l" d="M95.4,217.986l-.022,7.882v.02l.022-7.882v-.02" transform="translate(-95.38 -216.424)"/></g></g></g><g transform="translate(23.453 12.423)"><path class="d" d="M107.29,217.227l-.022,7.882-3.787,2.2.022-7.882Z" transform="translate(-103.48 -217.227)"/></g><g transform="translate(22.358 13.989)"><path class="g" d="M104.057,218.6l-.022,7.888-1.077-.622.022-7.888Z" transform="translate(-102.957 -217.975)"/></g><g class="c" transform="translate(0 13.945)"><g class="x"><g class="c"><path class="r" d="M96.44,219.555l-.021,7.882c-.121.025-.243.05-.364.071l.023-7.882c.119-.021.241-.046.362-.071" transform="translate(-88.15 -216.203)"/><path class="q" d="M96.51,219.589l-.023,7.882c-.279.05-.553.09-.827.117l.023-7.884c.272-.027.549-.065.827-.115" transform="translate(-88.582 -216.165)"/><path class="p" d="M96.013,219.644l-.023,7.884c-.212.021-.423.034-.632.042l.023-7.882c.209-.008.421-.021.632-.044" transform="translate(-88.913 -216.105)"/><path class="o" d="M95.664,219.665l-.023,7.882c-.182.006-.362.006-.542,0l.021-7.882c.18,0,.362,0,.544,0" transform="translate(-89.196 -216.082)"/><path class="n" d="M95.382,219.68l-.021,7.882c-.17,0-.335-.013-.5-.027l.023-7.882c.165.015.333.023.5.027" transform="translate(-89.459 -216.095)"/><path class="m" d="M95.139,219.681l-.023,7.882c-.165-.013-.329-.031-.492-.054l.021-7.882c.163.023.329.042.494.054" transform="translate(-89.716 -216.124)"/><path class="l" d="M94.913,219.674l-.021,7.882c-.174-.025-.343-.054-.513-.09l.021-7.882c.17.036.341.065.513.09" transform="translate(-89.984 -216.171)"/><path class="k" d="M94.7,219.658l-.021,7.882c-.2-.04-.389-.088-.58-.142l.023-7.882c.191.054.383.1.578.142" transform="translate(-90.287 -216.245)"/><path class="j" d="M94.512,219.647l-.023,7.882a7.718,7.718,0,0,1-.741-.251l.023-7.882a7.716,7.716,0,0,0,.741.251" transform="translate(-90.674 -216.376)"/><path class="i" d="M95.377,220.974l-.023,7.882a8.06,8.06,0,0,1-1.1-.532c-1.328-.766-1.975-1.6-1.973-2.488l.023-7.882c0,.886.645,1.721,1.97,2.488a8.078,8.078,0,0,0,1.1.532" transform="translate(-92.28 -217.954)"/></g></g></g><g transform="translate(13.601 13.982)"><path class="d" d="M107.538,217.972l-.022,7.882-8.74,5.079.022-7.882Z" transform="translate(-98.775 -217.972)"/></g><g transform="translate(6.554 18.741)"><path class="f" d="M99.707,222.712l-.022,7.882-4.275-2.468.022-7.882Z" transform="translate(-95.41 -220.244)"/></g><g class="c" transform="translate(10.828 19.061)"><g class="y"><g class="c"><path class="s" d="M99.116,220.4l-.023,7.882c-.214.126-.417.245-.609.362l.021-7.882c.195-.117.4-.237.611-.362" transform="translate(-96.321 -220.397)"/><path class="r" d="M99.329,220.57l-.021,7.882a9.792,9.792,0,0,0-1.577,1.124l.023-7.882a9.733,9.733,0,0,1,1.575-1.124" transform="translate(-97.145 -220.208)"/><path class="q" d="M98,221.107l-.023,7.882a4.3,4.3,0,0,0-.471.509l.023-7.882a4.292,4.292,0,0,1,.471-.509" transform="translate(-97.391 -219.62)"/><path class="p" d="M97.589,221.35l-.023,7.882c-.04.05-.077.1-.115.153l.023-7.882c.038-.052.075-.1.115-.153" transform="translate(-97.451 -219.354)"/></g></g></g><g transform="translate(0.022)"><path class="g" d="M115.744,225.918l-1.112-.641-8.74,5.078a8.364,8.364,0,0,0-2.772,2.148l-4.276-2.469a6.032,6.032,0,0,1,1.715-1.443,8.626,8.626,0,0,1-6.3-.865c-3.087-1.782-2.5-3.947,1.411-6.219l2.7-1.568a11.5,11.5,0,0,1,8.483-1.568c-1.148-1.623-.279-3.2,2.574-4.856l.49-.285a12.131,12.131,0,0,1,12.828-.2l4.816,2.781-3.788,2.2-4.739-2.737c-1.326-.766-2.819-.827-4.72.276l-1.625.944c-2.132,1.24-1.88,2.184-.306,3.093l1.836,1.06,2.973-1.728,4.2,2.423-2.974,1.73,1.11.641Zm-11.475.517,6.165-3.583-1.6-.926c-1.914-1.106-3.669-1.051-6.138.383l-2.469,1.434c-1.9,1.106-1.788,2-.444,2.781a4.383,4.383,0,0,0,4.49-.09" transform="translate(-92.291 -211.295)"/></g></g><g class="c" transform="translate(0 19.941)"><g transform="translate(26.999 4.643)"><path class="f" d="M62.218,209.195l-.022,7.882-2.022-1.167.022-7.882Z" transform="translate(-60.173 -208.027)"/></g><g class="c" transform="translate(29.021 5.811)"><g class="z"><g class="c"><path class="i" d="M62.161,209.753l-.023,7.884c0-.4-.333-.787-1-1.171l.023-7.882c.666.383,1,.766,1,1.168" transform="translate(-61.139 -208.585)"/></g></g></g><g transform="translate(19.976 4.643)"><path class="d" d="M63.865,208.027l-.022,7.882L56.82,219.99l.022-7.882Z" transform="translate(-56.82 -208.027)"/></g><g class="c" transform="translate(33.049 7.289)"><g class="aa"><g class="c"><path class="l" d="M64.576,209.291l-.021,7.882,0,.05.023-7.882v-.05" transform="translate(-61.433 -209.291)"/><path class="m" d="M64.6,209.315l-.023,7.882a1.85,1.85,0,0,1-.038.337l.021-7.882a2.055,2.055,0,0,0,.04-.337" transform="translate(-61.453 -209.265)"/><path class="n" d="M64.607,209.476l-.021,7.882a2.324,2.324,0,0,1-.1.341l.021-7.882a1.905,1.905,0,0,0,.1-.341" transform="translate(-61.504 -209.089)"/><path class="o" d="M64.6,209.639l-.021,7.882a3.019,3.019,0,0,1-.176.375l.021-7.882a2.519,2.519,0,0,0,.176-.375" transform="translate(-61.596 -208.91)"/><path class="p" d="M64.584,209.818l-.021,7.882a3.739,3.739,0,0,1-.3.446l.023-7.882a3.483,3.483,0,0,0,.3-.446" transform="translate(-61.755 -208.715)"/><path class="q" d="M64.573,210.031l-.023,7.882a5.347,5.347,0,0,1-.557.595l.023-7.882a5.558,5.558,0,0,0,.557-.595" transform="translate(-62.046 -208.481)"/><path class="r" d="M64.91,210.315l-.023,7.882a10.513,10.513,0,0,1-1.711,1.244l.023-7.882a10.735,10.735,0,0,0,1.711-1.244" transform="translate(-62.939 -208.171)"/><path class="s" d="M63.323,210.909l-.023,7.882c-.077.046-.157.094-.237.14l.021-7.882c.082-.046.161-.094.239-.14" transform="translate(-63.063 -207.521)"/></g></g></g><g transform="translate(32.098 10.818)"><path class="d" d="M63.582,210.976l-.022,7.882-.951.552.022-7.882Z" transform="translate(-62.609 -210.976)"/></g><g transform="translate(16.173 10.934)"><path class="f" d="M56.894,212.11l-.022,7.882L55,218.913l.022-7.882Z" transform="translate(-55.004 -211.031)"/></g><g class="c" transform="translate(24.031 11.37)"><g class="ab"><g class="c"><path class="s" d="M64.078,211.24l-.021,7.882a14.255,14.255,0,0,1-2.772,1.261l.021-7.884a14.064,14.064,0,0,0,2.772-1.258" transform="translate(-55.989 -211.24)"/><path class="r" d="M62.031,211.841l-.021,7.884a10.945,10.945,0,0,1-1.388.348l.021-7.882a10.527,10.527,0,0,0,1.388-.35" transform="translate(-56.715 -210.583)"/><path class="q" d="M61.058,212.008l-.021,7.882c-.266.048-.53.086-.794.111l.021-7.882c.266-.025.53-.063.794-.111" transform="translate(-57.129 -210.4)"/><path class="p" d="M60.6,212.061l-.021,7.882c-.214.023-.429.036-.643.044l.023-7.882c.214-.008.427-.021.641-.044" transform="translate(-57.465 -210.342)"/><path class="o" d="M60.263,212.082l-.023,7.882c-.195.006-.387.006-.582,0l.023-7.882c.193,0,.387,0,.582,0" transform="translate(-57.769 -210.319)"/><path class="n" d="M59.981,212.1l-.023,7.882c-.191,0-.383-.015-.574-.031l.021-7.882c.193.017.383.027.576.031" transform="translate(-58.069 -210.334)"/><path class="m" d="M59.721,212.1l-.021,7.882c-.2-.015-.4-.038-.605-.067l.023-7.882c.2.029.4.05.6.067" transform="translate(-58.385 -210.369)"/><path class="l" d="M59.471,212.1l-.023,7.882c-.224-.031-.45-.071-.676-.117l.021-7.884c.228.048.452.088.678.119" transform="translate(-58.739 -210.432)"/><path class="k" d="M58.81,211.982l-.021,7.884-.034-.008.023-7.882.031.006" transform="translate(-58.756 -210.435)"/></g></g></g><g class="c" transform="translate(18.042 12.011)"><g class="ac"><g class="c"><path class="i" d="M57.314,213.062l-.023,7.882c0-.513-.486-.99-1.395-1.516l.021-7.882c.909.526,1.4,1,1.4,1.516" transform="translate(-55.896 -211.546)"/></g></g></g><g transform="translate(8.016 10.934)"><path class="d" d="M59.288,211.031l-.022,7.882-8.157,4.74.022-7.882Z" transform="translate(-51.108 -211.031)"/></g><g class="c" transform="translate(21.474 14.467)"><g class="ad"><g class="c"><path class="l" d="M59.064,212.719l-.023,7.882v.052l.021-7.882,0-.052" transform="translate(-55.887 -212.719)"/><path class="m" d="M59.083,212.744l-.021,7.882a2.129,2.129,0,0,1-.04.343l.021-7.882a1.919,1.919,0,0,0,.04-.343" transform="translate(-55.908 -212.692)"/><path class="n" d="M59.1,212.908l-.021,7.882a2.454,2.454,0,0,1-.1.35L59,213.258a2.195,2.195,0,0,0,.1-.35" transform="translate(-55.962 -212.512)"/><path class="o" d="M59.089,213.075l-.023,7.882a2.6,2.6,0,0,1-.178.381l.023-7.882a2.829,2.829,0,0,0,.178-.381" transform="translate(-56.055 -212.33)"/><path class="p" d="M59.07,213.257l-.023,7.882a3.579,3.579,0,0,1-.3.446l.023-7.882a3.741,3.741,0,0,0,.3-.446" transform="translate(-56.213 -212.13)"/><path class="q" d="M59.065,213.47l-.023,7.882a5.288,5.288,0,0,1-.572.614l.023-7.882a5.291,5.291,0,0,0,.572-.614" transform="translate(-56.512 -211.897)"/><path class="r" d="M59.382,213.763l-.023,7.882a10.679,10.679,0,0,1-1.7,1.24L57.68,215a10.678,10.678,0,0,0,1.7-1.24" transform="translate(-57.402 -211.577)"/><path class="s" d="M57.814,214.355l-.023,7.882c-.084.05-.168.1-.255.151l.023-7.882.255-.151" transform="translate(-57.535 -210.929)"/></g></g></g><g transform="translate(19.313 18.045)"><path class="d" d="M58.687,214.427l-.022,7.882L56.5,223.566l.022-7.882Z" transform="translate(-56.503 -214.427)"/></g><g transform="translate(0 15.452)"><path class="f" d="M53.923,217.012l-.022,7.882-6.621-3.823.022-7.882Z" transform="translate(-47.28 -213.189)"/></g><g transform="translate(0.023)"><path class="g" d="M71.322,218.722c1.395,1.818.264,3.493-2.557,5.132L66.6,225.11a12.083,12.083,0,0,1-12.692-.025l-6.621-3.824L73.878,205.81l6.359,3.671c4.351,2.513,4.211,4.76.1,7.147l-.951.553A10.932,10.932,0,0,1,71.322,218.722Zm-8.809,3.886,2.316-1.346c2.469-1.434,2.416-2.335.5-3.44l-1.868-1.076-8.156,4.739,2.408,1.39c1.4.81,2.819.882,4.8-.266m11.777-12.156-7.023,4.081,1.637.944a4.851,4.851,0,0,0,5.338-.17l1.487-.863c1.9-1.106,2.081-1.962.584-2.825l-2.023-1.168" transform="translate(-47.291 -205.81)"/></g><g class="c" transform="translate(6.621 19.275)"><g class="ae"><g class="c"><path class="s" d="M57.924,215.027l-.023,7.882a13.844,13.844,0,0,1-2.676,1.206l.023-7.882a13.842,13.842,0,0,0,2.676-1.206" transform="translate(-45.209 -215.002)"/><path class="r" d="M56.07,215.6l-.023,7.882a12.1,12.1,0,0,1-1.573.4L54.5,216a11.835,11.835,0,0,0,1.573-.4" transform="translate(-46.031 -214.372)"/><path class="q" d="M54.976,215.792l-.023,7.884c-.306.054-.611.1-.917.128l.023-7.882c.306-.031.611-.073.917-.13" transform="translate(-46.51 -214.165)"/><path class="p" d="M54.446,215.854l-.023,7.882q-.371.038-.741.05L53.7,215.9c.249-.008.5-.025.743-.05" transform="translate(-46.897 -214.097)"/><path class="o" d="M54.057,215.878l-.021,7.882c-.226.008-.452.008-.678,0l.023-7.882c.226.006.452,0,.676,0" transform="translate(-47.252 -214.071)"/><path class="n" d="M53.725,215.9l-.023,7.882c-.218,0-.438-.017-.658-.034l.021-7.884c.22.019.44.031.66.036" transform="translate(-47.595 -214.088)"/><path class="m" d="M53.42,215.9l-.021,7.884c-.226-.019-.452-.046-.681-.077l.023-7.882q.339.047.678.075" transform="translate(-47.951 -214.128)"/><path class="l" d="M53.129,215.894l-.023,7.882c-.247-.036-.494-.078-.741-.13l.023-7.882c.247.052.494.094.741.13" transform="translate(-48.338 -214.196)"/><path class="k" d="M52.842,215.876l-.023,7.882c-.289-.061-.58-.132-.869-.214l.023-7.882c.289.082.578.153.869.214" transform="translate(-48.792 -214.307)"/><path class="j" d="M52.6,215.875l-.023,7.882q-.6-.173-1.206-.408l.023-7.882q.6.236,1.206.408" transform="translate(-49.422 -214.521)"/><path class="i" d="M52.417,215.962l-.023,7.882a14.761,14.761,0,0,1-1.952-.946l.023-7.882a15.027,15.027,0,0,0,1.952.946" transform="translate(-50.442 -215.015)"/></g></g></g></g><g class="c" transform="translate(14.415 30.732)"><g transform="translate(13.557 4.394)"><path class="d" d="M76.13,213.061l-.022,7.882-15.469,6.647.022-7.882Z" transform="translate(-60.638 -213.061)"/></g><g transform="translate(3.858 12.823)"><path class="d" d="M61.584,217.087l-.022,7.882-5.555,2.388.022-7.882Z" transform="translate(-56.007 -217.087)"/></g><g transform="translate(0 12.984)"><path class="f" d="M58.045,219.391l-.022,7.882-3.858-2.228.022-7.882Z" transform="translate(-54.164 -217.163)"/></g><g transform="translate(9.414 12.823)"><path class="f" d="M63.852,220.072l-.022,7.882-5.17-2.985.022-7.882Z" transform="translate(-58.66 -217.087)"/></g><g transform="translate(0.023)"><path class="g" d="M91.195,214.519,68.9,232.447,64.653,230l4.1-3.227-5.17-2.984-5.555,2.387-3.857-2.228,30.863-12.983ZM67.732,222l4.044,2.335L83.2,215.356,67.732,222" transform="translate(-54.175 -210.963)"/></g><g transform="translate(14.724 3.556)"><path class="e" d="M83.515,212.661l-.022,7.882L61.2,238.472l.022-7.882Z" transform="translate(-61.195 -212.661)"/></g><g transform="translate(10.479 19.034)"><path class="f" d="M63.435,222.5l-.022,7.882-4.244-2.45.022-7.882Z" transform="translate(-59.169 -220.053)"/></g></g><g class="c" transform="translate(31.037 37.861)"><g transform="translate(3.797 6.451)"><path class="d" d="M83.2,217.449l-.022,7.882L63.915,236.522l.022-7.882Z" transform="translate(-63.915 -217.449)"/></g><g transform="translate(20.272 3.047)"><path class="af" d="M83.4,215.823l-.022,7.882L71.783,235.449l.022-7.882Z" transform="translate(-71.783 -215.823)"/></g><g transform="translate(0 15.451)"><path class="f" d="M65.921,223.939,65.9,231.82l-3.8-2.192.022-7.882Z" transform="translate(-62.102 -221.746)"/></g><g transform="translate(0.022)"><path class="g" d="M102.051,222.075,75.463,237.527l-4.321-2.495,14.027-14.213L65.909,232.011l-3.8-2.192L88.7,214.368l5.278,3.047L82.385,229.159,98.3,219.91Z" transform="translate(-62.113 -214.368)"/></g><g transform="translate(13.35 7.708)"><path class="d" d="M95.088,218.049l-.022,7.882L68.477,241.382,68.5,233.5Z" transform="translate(-68.477 -218.049)"/></g><g transform="translate(9.029 20.664)"><path class="f" d="M70.757,226.731l-.022,7.882-4.321-2.495.022-7.882Z" transform="translate(-66.414 -224.236)"/></g></g><g class="c" transform="translate(47.397 47.306)"><g transform="translate(19.209 2.433)"><path class="d" d="M90.7,220.04l-.022,7.882-11.592,6.737.022-7.882Z" transform="translate(-79.088 -220.04)"/></g><g transform="translate(22.807 8.037)"><path class="ag" d="M98.531,222.717l-.022,7.882-17.7,3.511.022-7.882Z" transform="translate(-80.806 -222.717)"/></g><g transform="translate(12.386 12.475)"><path class="ah" d="M79.571,224.836l-.022,7.882-3.719.659.022-7.882Z" transform="translate(-75.83 -224.836)"/></g><g transform="translate(4.213 13.134)"><path class="d" d="M80.122,225.151l-.022,7.882-8.173,4.749.022-7.882Z" transform="translate(-71.927 -225.151)"/></g><g transform="translate(0 15.451)"><path class="f" d="M74.15,228.69l-.022,7.882-4.213-2.433.022-7.882Z" transform="translate(-69.915 -226.257)"/></g><g transform="translate(9.6 20.994)"><path class="f" d="M78.843,231.4l-.022,7.882L74.5,236.786l.022-7.882Z" transform="translate(-74.499 -228.904)"/></g><g transform="translate(0.022)"><path class="g" d="M110.435,226.916l-17.7,3.511-8.886,11.94-4.321-2.495,6.506-8.519-3.719.659-8.173,4.749-4.213-2.433,26.588-15.451,4.213,2.433-11.592,6.737,17.086-3.564Z" transform="translate(-69.925 -218.878)"/></g><g transform="translate(13.921 11.548)"><path class="ai" d="M85.471,224.393l-.022,7.882-8.886,11.94.022-7.882Z" transform="translate(-76.563 -224.393)"/></g></g></g></g></svg>