<svg xmlns="http://www.w3.org/2000/svg" xmlns:xlink="http://www.w3.org/1999/xlink" width="102.305" height="70.35" viewBox="0 0 102.305 70.35"><defs><style>.a{fill:none;}.b,.u{fill:#fff;}.b{stroke:#155e85;stroke-linejoin:round;stroke-width:2px;}.c{isolation:isolate;}.d{fill:#08547f;}.e{clip-path:url(#a);}.f{fill:#07527d;}.g{fill:#166fa4;}.h{clip-path:url(#b);}.i{fill:#0c5985;}.j{fill:#0d5b88;}.k{fill:#0f5d8b;}.l{fill:#105f8e;}.m{fill:#116292;}.n{fill:#126495;}.o{fill:#136798;}.p{fill:#14699c;}.q{clip-path:url(#c);}.r{fill:#0a5682;}.s{clip-path:url(#d);}.t{clip-path:url(#e);}.v{clip-path:url(#f);}.w{fill:#085480;}.x{clip-path:url(#g);}.y{clip-path:url(#h);}.z{clip-path:url(#i);}.aa{clip-path:url(#j);}.ab{clip-path:url(#k);}.ac{clip-path:url(#l);}.ad{fill:#166da1;}</style><clipPath id="a"><path class="a" d="M65.721,120.962l-.023,7.882c0-.4-.329-.785-.99-1.168l.021-7.882C65.39,120.177,65.723,120.558,65.721,120.962Z" transform="translate(-64.707 -119.794)"/></clipPath><clipPath id="b"><path class="a" d="M69.76,120.511l-.023,7.882c0,1.173-1.057,2.329-3.1,3.516l.021-7.882C68.7,122.84,69.758,121.684,69.76,120.511Z" transform="translate(-66.638 -120.511)"/></clipPath><clipPath id="c"><path class="a" d="M70.429,122.454l-.021,7.882a11,11,0,0,1-8.085,1.55L62.346,124A11,11,0,0,0,70.429,122.454Z" transform="translate(-62.323 -122.454)"/></clipPath><clipPath id="d"><path class="a" d="M60.874,124.268l-.023,7.884c0-.513-.482-.99-1.388-1.514l.023-7.882C60.391,123.279,60.876,123.757,60.874,124.268Z" transform="translate(-59.463 -122.756)"/></clipPath><clipPath id="e"><path class="a" d="M64.269,123.93l-.023,7.884c0,1.233-1.15,2.414-3.143,3.572l.023-7.882C63.117,126.346,64.265,125.165,64.269,123.93Z" transform="translate(-61.103 -123.93)"/></clipPath><clipPath id="f"><path class="a" d="M66.731,126.247l-.021,7.882A12.076,12.076,0,0,1,54,134.112l.023-7.884A12.068,12.068,0,0,0,66.731,126.247Z" transform="translate(-54.002 -126.228)"/></clipPath><clipPath id="g"><path class="a" d="M79.85,129.118,79.826,137c0-.4-.329-.785-.99-1.166l.021-7.882C79.521,128.333,79.852,128.716,79.85,129.118Z" transform="translate(-78.836 -127.952)"/></clipPath><clipPath id="h"><path class="a" d="M83.892,128.663l-.023,7.882c0,1.173-1.062,2.329-3.11,3.518l.023-7.882C82.828,130.992,83.887,129.836,83.892,128.663Z" transform="translate(-80.759 -128.663)"/></clipPath><clipPath id="i"><path class="a" d="M74.207,132.634l-.023,7.882c0-.519-.459-1.007-1.34-1.516l.023-7.882C73.749,131.627,74.209,132.115,74.207,132.634Z" transform="translate(-72.844 -131.118)"/></clipPath><clipPath id="j"><path class="a" d="M84.026,130.926,84,138.808a11.131,11.131,0,0,1-8.129,1.541l.023-7.882A11.133,11.133,0,0,0,84.026,130.926Z" transform="translate(-75.874 -130.926)"/></clipPath><clipPath id="k"><path class="a" d="M77.85,132.279l-.023,7.882c0,1.235-1.265,2.414-3.321,3.61l.023-7.882C76.585,134.693,77.846,133.514,77.85,132.279Z" transform="translate(-74.506 -132.279)"/></clipPath><clipPath id="l"><path class="a" d="M74.013,135.143l-.021,7.882a8.068,8.068,0,0,0-2.772,2.148l.021-7.882A8.11,8.11,0,0,1,74.013,135.143Z" transform="translate(-71.22 -135.143)"/></clipPath></defs><g transform="translate(0.999 1)"><path class="b" d="M83.8,120.69l-6.343-3.662L50.869,132.48l-.021,7.882,6.6,3.813a14.337,14.337,0,0,0,1.8.873c.054.023.107.057.159.077q.6.239,1.206.41l.013,0,.029.006c.274.077.549.147.825.2.245.052.492.094.739.13l.013,0,.013,0c.218.029.433.054.651.073s.438.029.655.033c.075,0,.149,0,.224,0h.14c.1,0,.207,0,.31,0q.371-.013.741-.05c.113-.01.228-.033.341-.048.086-.01.172-.023.258-.036.1-.017.209-.025.314-.044.163-.029.322-.086.484-.121l-.01,3.631,11.467,6.621,2.6-1.512-.01,3.007,4.215,2.433,4.6-2.672-.015,5.319,4.291,2.477a3.5,3.5,0,0,1,.381-.45c.052-.057.1-.117.157-.172.09-.086.2-.167.3-.249.119-.1.235-.2.366-.293s.249-.17.377-.253.278-.184.436-.279c.086-.054.184-.111.276-.165l-.01,3.181L100,168.741l6.24-3.625-.021,7.216,4.213,2.433,3.669-2.134-.01,4.247,3.874,2.236,5.555-2.389,1.066.616-.017,5.587,4.245,2.45,22.314-17.918.021-7.884L145,156.022l-3.56,1.5.008-3.543.013-.006-13.014-7.513-1.834,1.066.006-2.113-26.59,15.452-.168-.1h0l.168.1,26.587-15.452-4.213-2.431-5.8,3.371.015-4.956c0-1.173-1.051-2.362-3.227-3.618l-6.359-3.673-2.6,1.512.008-3.007-11.467-6.621-5.949,3.457.015-5.12a2.016,2.016,0,0,1-.113.5C87.267,123.48,86.291,122.129,83.8,120.69Zm23.017,44.091,0,0,3.641,2.1,0,0Zm9.567-22.471a3.375,3.375,0,0,1-.511.758v0a3.506,3.506,0,0,0,.511-.76Zm-.689.951a7.075,7.075,0,0,1-.712.643h0a6.629,6.629,0,0,0,.712-.645ZM78.656,130a9.908,9.908,0,0,1-1.684.157h0A9.928,9.928,0,0,0,78.656,130Zm-1.753.157h0c-.036,0-.073-.01-.109-.013h0C76.83,130.149,76.868,130.159,76.9,130.159Zm-3.1,3.909c-.067.052-.124.1-.195.157-.023.017-.057.036-.08.052.1-.071.186-.142.278-.214Zm12.319-7.88a6.47,6.47,0,0,1-.6.544,6.264,6.264,0,0,0,.6-.549Zm-3.958,18.823,3.055,1.765-3.577,2.077.008-3.009-.461-.266Zm15.791,2.308a1.165,1.165,0,0,1,.1.155A1.165,1.165,0,0,0,97.955,147.32Zm.243.4a.923.923,0,0,1,.038.168A.923.923,0,0,0,98.2,147.716Zm3.69,3.886c-.042.031-.073.063-.117.094s-.094.059-.136.086c.1-.067.186-.134.276-.2Zm3.4-3.711h0l-.04,0h0Zm-7.612-.838c-.05-.042-.088-.084-.144-.128C97.586,146.97,97.624,147.012,97.674,147.054Zm-5.926-4.073.01-3.543,1.614-.938,3.053,1.763Zm-5.285-17.227a3.307,3.307,0,0,0,.348-.519l0,.006A3.394,3.394,0,0,1,86.463,125.754ZM85.2,127l0,0a12.967,12.967,0,0,1-1.269.833A13.68,13.68,0,0,0,85.2,127Zm-4.343-3.061a.89.89,0,0,0-.216-.517A.89.89,0,0,1,80.861,123.94Zm-.287-.591a2.889,2.889,0,0,0-.685-.53A2.889,2.889,0,0,1,80.574,123.35Zm-10.506,6.607c-.038-.05-.063-.1-.109-.153C70.006,129.856,70.031,129.906,70.069,129.956Zm.188.4a.791.791,0,0,0-.04-.165A.791.791,0,0,1,70.257,130.354Zm-.591-.812c-.05-.042-.088-.082-.144-.124C69.579,129.46,69.617,129.5,69.667,129.542Zm45.109,14.532h0a13.278,13.278,0,0,1-1.271.835A13.409,13.409,0,0,0,114.776,144.074Zm-4.328-3.053a.89.89,0,0,0-.216-.517A.89.89,0,0,1,110.447,141.021Zm-.287-.591a2.835,2.835,0,0,0-.685-.528A2.835,2.835,0,0,1,110.16,140.43Z" transform="translate(-50.847 -117.028)"/><g transform="translate(0 0)"><g class="c"><g transform="translate(26.999 4.625)"><path class="d" d="M65.785,120.4l-.022,7.882-2.022-1.167.022-7.882Z" transform="translate(-63.741 -119.237)"/></g><g class="c" transform="translate(29.021 5.792)"><g class="e"><g class="c"><path class="f" d="M65.721,120.962l-.023,7.882c0-.4-.329-.785-.99-1.168l.021-7.882c.662.383.995.764.993,1.168" transform="translate(-64.707 -119.794)"/></g></g></g><g transform="translate(19.961 4.625)"><path class="g" d="M67.44,119.237l-.022,7.882-7.038,4.09.022-7.882Z" transform="translate(-60.38 -119.237)"/></g><g class="c" transform="translate(33.065 7.293)"><g class="h"><g class="c"><path class="i" d="M68.141,120.511l-.023,7.882v.05l.023-7.882v-.05" transform="translate(-65.019 -120.511)"/><path class="j" d="M68.161,120.535l-.023,7.882a2.026,2.026,0,0,1-.038.337l.021-7.882a2.029,2.029,0,0,0,.04-.337" transform="translate(-65.039 -120.485)"/><path class="k" d="M68.173,120.7l-.021,7.882a2.068,2.068,0,0,1-.1.343l.023-7.882a2.059,2.059,0,0,0,.1-.343" transform="translate(-65.091 -120.309)"/><path class="l" d="M68.167,120.86l-.023,7.882a2.423,2.423,0,0,1-.176.375l.023-7.882a2.632,2.632,0,0,0,.176-.375" transform="translate(-65.183 -120.129)"/><path class="m" d="M68.149,121.039l-.023,7.882a3.485,3.485,0,0,1-.3.446l.021-7.882a3.5,3.5,0,0,0,.3-.446" transform="translate(-65.341 -119.933)"/><path class="n" d="M68.136,121.252l-.021,7.882a5.173,5.173,0,0,1-.557.595l.023-7.882a5.323,5.323,0,0,0,.555-.595" transform="translate(-65.632 -119.7)"/><path class="o" d="M68.466,121.536l-.023,7.882a10.488,10.488,0,0,1-1.694,1.231l.023-7.882a10.491,10.491,0,0,0,1.694-1.231" transform="translate(-66.517 -119.39)"/><path class="p" d="M66.893,122.124l-.023,7.882c-.075.046-.155.092-.232.138l.021-7.882.235-.138" transform="translate(-66.638 -118.746)"/></g></g></g><g transform="translate(32.113 10.809)"><path class="g" d="M67.157,122.19l-.022,7.882-.951.552.022-7.882Z" transform="translate(-66.184 -122.19)"/></g><g transform="translate(16.173 10.916)"><path class="d" d="M60.461,123.319l-.022,7.882-1.867-1.078.022-7.882Z" transform="translate(-58.571 -122.241)"/></g><g class="c" transform="translate(24.029 11.362)"><g class="q"><g class="c" transform="translate(0.001)"><path class="p" d="M67.654,122.454l-.021,7.882a14.27,14.27,0,0,1-2.775,1.261l.021-7.884a14.136,14.136,0,0,0,2.775-1.258" transform="translate(-59.55 -122.454)"/><path class="o" d="M65.613,123.055l-.021,7.884a11.183,11.183,0,0,1-1.4.352l.023-7.882a11.066,11.066,0,0,0,1.4-.354" transform="translate(-60.283 -121.797)"/><path class="n" d="M64.63,123.224l-.023,7.882c-.266.048-.532.086-.8.113l.023-7.884c.266-.025.534-.063.8-.111" transform="translate(-60.7 -121.612)"/><path class="m" d="M64.168,123.277l-.023,7.884c-.216.021-.431.036-.647.042l.023-7.882q.324-.009.647-.044" transform="translate(-61.038 -121.554)"/><path class="l" d="M63.827,123.3,63.8,131.18c-.195.006-.389.008-.586,0l.023-7.882c.195.006.392,0,.586,0" transform="translate(-61.345 -121.531)"/><path class="k" d="M63.543,123.314,63.52,131.2c-.193,0-.385-.015-.578-.029l.023-7.882c.193.015.385.025.578.029" transform="translate(-61.647 -121.545)"/><path class="j" d="M63.281,123.321l-.023,7.882c-.2-.017-.4-.04-.605-.069l.021-7.882c.2.029.406.052.607.069" transform="translate(-61.963 -121.581)"/><path class="i" d="M63.028,123.313l-.021,7.882c-.226-.031-.45-.071-.678-.117l.023-7.882c.226.046.452.086.676.117" transform="translate(-62.317 -121.642)"/><path class="r" d="M62.358,123.2l-.022,7.882-.012,0,.022-7.882.012,0" transform="translate(-62.323 -121.644)"/></g></g></g><g class="c" transform="translate(18.04 11.994)"><g class="s"><g class="c"><path class="f" d="M60.874,124.268l-.023,7.884c0-.513-.482-.99-1.388-1.514l.023-7.882c.9.523,1.39,1,1.388,1.512" transform="translate(-59.463 -122.756)"/></g></g></g><g transform="translate(8.001 10.916)"><path class="g" d="M62.864,122.241l-.022,7.882-8.173,4.749.022-7.882Z" transform="translate(-54.668 -122.241)"/></g><g class="c" transform="translate(21.474 14.453)"><g class="t"><g class="c"><path class="i" d="M62.627,123.93l-.023,7.884v.052l.021-7.882,0-.054" transform="translate(-59.461 -123.93)"/><path class="j" d="M62.646,123.956l-.021,7.882a2.132,2.132,0,0,1-.04.343l.021-7.882a1.921,1.921,0,0,0,.04-.343" transform="translate(-59.482 -123.902)"/><path class="k" d="M62.66,124.12,62.639,132a2.374,2.374,0,0,1-.1.35l.023-7.882a2.135,2.135,0,0,0,.1-.35" transform="translate(-59.535 -123.722)"/><path class="l" d="M62.652,124.287l-.023,7.882a2.713,2.713,0,0,1-.178.381l.021-7.882a2.514,2.514,0,0,0,.18-.381" transform="translate(-59.628 -123.539)"/><path class="m" d="M62.631,124.469l-.021,7.882a3.6,3.6,0,0,1-.3.448l.023-7.882a3.359,3.359,0,0,0,.3-.448" transform="translate(-59.787 -123.34)"/><path class="n" d="M62.628,124.683l-.023,7.882a5.291,5.291,0,0,1-.572.614l.021-7.882a5.318,5.318,0,0,0,.574-.614" transform="translate(-60.086 -123.106)"/><path class="o" d="M62.94,124.976l-.021,7.882a10.6,10.6,0,0,1-1.7,1.235l.023-7.882a10.575,10.575,0,0,0,1.694-1.235" transform="translate(-60.972 -122.786)"/><path class="p" d="M61.377,125.566l-.023,7.882-.251.149.023-7.882.251-.149" transform="translate(-61.103 -122.14)"/></g></g></g><g transform="translate(19.312 18.027)"><path class="g" d="M62.255,125.637l-.022,7.882-2.162,1.256.022-7.882Z" transform="translate(-60.071 -125.637)"/></g><g transform="translate(0 15.452)"><path class="d" d="M57.476,128.221l-.022,7.882-6.606-3.814.022-7.882Z" transform="translate(-50.848 -124.407)"/></g><g transform="translate(0.021)"><path class="u" d="M74.889,129.94c1.38,1.809.251,3.484-2.555,5.116l-2.163,1.256a12.068,12.068,0,0,1-12.706-.019l-6.607-3.813,26.59-15.452,6.343,3.662c4.351,2.513,4.226,4.768.132,7.147l-.951.553A11,11,0,0,1,74.889,129.94Zm-8.824,3.876,2.316-1.344c2.469-1.434,2.433-2.343.519-3.449l-1.868-1.078-8.173,4.749,2.408,1.39c1.42.821,2.821.882,4.8-.268m11.793-12.162-7.038,4.09,1.65.953a4.854,4.854,0,0,0,5.338-.186l1.472-.856c1.9-1.1,2.1-1.968.6-2.833l-2.021-1.166" transform="translate(-50.858 -117.028)"/></g><g class="c" transform="translate(6.605 19.265)"><g class="v"><g class="c"><path class="p" d="M61.5,126.237l-.021,7.882a14,14,0,0,1-2.7,1.217l.023-7.882a14.034,14.034,0,0,0,2.695-1.217" transform="translate(-48.772 -126.218)"/><path class="o" d="M59.631,126.818l-.023,7.882a12.187,12.187,0,0,1-1.579.4l.023-7.882a12.271,12.271,0,0,0,1.579-.4" transform="translate(-49.596 -125.583)"/><path class="n" d="M58.529,127.008l-.023,7.882c-.3.054-.607.1-.913.128l.023-7.882c.3-.031.609-.073.913-.128" transform="translate(-50.073 -125.375)"/><path class="m" d="M58,127.069l-.023,7.882q-.371.038-.741.05l.023-7.882q.371-.013.741-.05" transform="translate(-50.461 -125.308)"/><path class="l" d="M57.614,127.093l-.023,7.882c-.224.008-.448.008-.674,0l.023-7.882c.224.006.45,0,.674,0" transform="translate(-50.813 -125.282)"/><path class="k" d="M57.282,127.113l-.023,7.882c-.218,0-.438-.017-.655-.034l.021-7.884c.22.019.438.031.658.036" transform="translate(-51.155 -125.299)"/><path class="j" d="M56.978,127.116,56.957,135c-.226-.019-.452-.044-.676-.077l.021-7.882c.226.031.452.059.676.075" transform="translate(-51.509 -125.339)"/><path class="i" d="M56.688,127.109l-.021,7.882c-.247-.036-.494-.077-.739-.13l.021-7.882c.247.052.494.094.739.13" transform="translate(-51.895 -125.406)"/><path class="r" d="M56.4,127.091l-.021,7.882c-.289-.059-.578-.13-.867-.212l.021-7.884q.433.126.867.214" transform="translate(-52.348 -125.518)"/><path class="w" d="M56.165,127.09l-.021,7.884q-.6-.173-1.206-.41l.023-7.882a12.171,12.171,0,0,0,1.2.408" transform="translate(-52.978 -125.731)"/><path class="f" d="M55.985,127.179l-.023,7.882a14.737,14.737,0,0,1-1.96-.949l.023-7.884a14.258,14.258,0,0,0,1.96.951" transform="translate(-54.002 -126.228)"/></g></g></g></g><g class="c" transform="translate(15.511 8.956)"><g transform="translate(34.268 6.621)"><path class="g" d="M78.43,124.467l-.022,7.882-3.787,2.2.022-7.882Z" transform="translate(-74.62 -124.467)"/></g><g transform="translate(27.014 4.634)"><path class="d" d="M78.432,127.706l-.022,7.882L71.156,131.4l.022-7.882Z" transform="translate(-71.156 -123.518)"/></g><g transform="translate(19.608 4.634)"><path class="g" d="M75.047,123.518l-.022,7.882-7.406,4.3.022-7.882Z" transform="translate(-67.619 -123.518)"/></g><g transform="translate(21.578 12.27)"><path class="g" d="M72.385,127.165l-.022,7.882-3.8,2.21.022-7.882Z" transform="translate(-68.56 -127.165)"/></g><g transform="translate(15.805 11.147)"><path class="d" d="M71.6,129.961l-.022,7.882L65.8,134.51l.022-7.882Z" transform="translate(-65.803 -126.628)"/></g><g transform="translate(8.016 11.147)"><path class="g" d="M69.895,126.628l-.022,7.882-7.789,4.527.022-7.882Z" transform="translate(-62.083 -126.628)"/></g><g transform="translate(0 15.451)"><path class="d" d="M69.745,135.3l-.022,7.882-11.467-6.621.022-7.882Z" transform="translate(-58.255 -128.684)"/></g><g transform="translate(11.467 19.862)"><path class="g" d="M67.556,130.79l-.022,7.882-3.8,2.21L63.754,133Z" transform="translate(-63.731 -130.79)"/></g><g transform="translate(0.022)"><path class="u" d="M96.321,127.926l-3.787,2.2-7.254-4.188-7.406,4.3,5.772,3.333-3.8,2.21-5.772-3.333-7.789,4.527,7.254,4.188-3.8,2.21-11.467-6.621L84.854,121.3Z" transform="translate(-58.266 -121.305)"/></g></g><g class="c" transform="translate(29.571 17.072)"><g transform="translate(27.014 4.635)"><path class="d" d="M79.914,128.562l-.022,7.882-2.022-1.167.022-7.882Z" transform="translate(-77.87 -127.394)"/></g><g class="c" transform="translate(29.037 5.802)"><g class="x"><g class="c"><path class="f" d="M79.85,129.118,79.826,137c0-.4-.329-.785-.99-1.166l.021-7.882c.664.381.995.764.993,1.166" transform="translate(-78.836 -127.952)"/></g></g></g><g transform="translate(18.841 4.635)"><path class="g" d="M82.162,127.394l-.022,7.882-8.173,4.749.022-7.882Z" transform="translate(-73.967 -127.394)"/></g><g class="c" transform="translate(33.063 7.291)"><g class="y"><g class="c"><path class="i" d="M82.268,128.663l-.023,7.882,0,.052.023-7.882,0-.052" transform="translate(-79.136 -128.663)"/><path class="j" d="M82.286,128.688l-.023,7.882a1.824,1.824,0,0,1-.038.335l.023-7.882a2.05,2.05,0,0,0,.038-.335" transform="translate(-79.155 -128.636)"/><path class="k" d="M82.3,128.848l-.023,7.882a2.326,2.326,0,0,1-.1.341l.023-7.882a2.327,2.327,0,0,0,.1-.341" transform="translate(-79.207 -128.461)"/><path class="l" d="M82.293,129.011l-.023,7.882a2.514,2.514,0,0,1-.176.375l.023-7.882a3.021,3.021,0,0,0,.176-.375" transform="translate(-79.299 -128.282)"/><path class="m" d="M82.275,129.19l-.023,7.882a3.327,3.327,0,0,1-.3.444l.021-7.882a3.722,3.722,0,0,0,.3-.444" transform="translate(-79.456 -128.086)"/><path class="n" d="M82.261,129.4l-.021,7.882a5.335,5.335,0,0,1-.555.595l.021-7.884a4.8,4.8,0,0,0,.555-.593" transform="translate(-79.746 -127.855)"/><path class="o" d="M82.6,129.685l-.021,7.884a10.727,10.727,0,0,1-1.7,1.238l.023-7.882a10.569,10.569,0,0,0,1.7-1.24" transform="translate(-80.635 -127.545)"/><path class="p" d="M81.019,130.277,81,138.159c-.077.046-.155.092-.237.138l.023-7.882.237-.138" transform="translate(-80.759 -126.897)"/></g></g></g><g transform="translate(30.963 10.81)"><path class="g" d="M81.879,130.343l-.022,7.882-2.1,1.221.022-7.882Z" transform="translate(-79.756 -130.343)"/></g><g transform="translate(15.039 11.594)"><path class="d" d="M73.624,131.555l-.022,7.882-1.451-.838.022-7.882Z" transform="translate(-72.151 -130.718)"/></g><g class="c" transform="translate(16.489 12.432)"><g class="z"><g class="c"><path class="f" d="M74.207,132.634l-.023,7.882c0-.519-.459-1.007-1.34-1.516l.023-7.882c.882.509,1.342,1,1.34,1.516" transform="translate(-72.844 -131.118)"/></g></g></g><g class="c" transform="translate(22.834 12.03)"><g class="aa"><g class="c" transform="translate(0)"><path class="p" d="M81.208,130.926l-.023,7.882a14.007,14.007,0,0,1-2.735,1.24l.023-7.882a14.008,14.008,0,0,0,2.735-1.24" transform="translate(-73.056 -130.926)"/><path class="o" d="M79.222,131.518,79.2,139.4a10.892,10.892,0,0,1-1.434.36l.023-7.882a11.321,11.321,0,0,0,1.434-.36" transform="translate(-73.805 -130.278)"/><path class="n" d="M78.216,131.69l-.023,7.882c-.272.05-.547.088-.819.115l.021-7.882c.274-.027.547-.065.821-.115" transform="translate(-74.233 -130.09)"/><path class="m" d="M77.741,131.745l-.021,7.882c-.22.023-.442.038-.662.044l.021-7.882c.222-.006.442-.021.662-.044" transform="translate(-74.579 -130.03)"/><path class="l" d="M77.392,131.766l-.021,7.882c-.2.006-.4.008-.6,0l.023-7.884c.2.006.4,0,.6,0" transform="translate(-74.891 -130.007)"/><path class="k" d="M77.1,131.783l-.023,7.884q-.292-.009-.584-.031l.023-7.884q.292.025.584.031" transform="translate(-75.197 -130.022)"/><path class="j" d="M76.835,131.787l-.023,7.884c-.2-.017-.406-.04-.611-.069l.023-7.882c.2.029.408.05.611.067" transform="translate(-75.516 -130.057)"/><path class="i" d="M76.575,131.781l-.023,7.882c-.224-.031-.448-.071-.672-.117l.021-7.882c.226.046.45.086.674.117" transform="translate(-75.867 -130.119)"/><path class="r" d="M75.909,131.665l-.022,7.882-.012,0,.022-7.882.012,0" transform="translate(-75.874 -130.12)"/></g></g></g><g transform="translate(0 15.452)"><path class="d" d="M69.205,134.993l-.022,7.882-4.213-2.433.022-7.882Z" transform="translate(-64.969 -132.56)"/></g><g transform="translate(4.213 11.594)"><path class="g" d="M77.829,130.718l-.022,7.882-10.825,6.291L67,137.009Z" transform="translate(-66.982 -130.718)"/></g><g class="c" transform="translate(19.97 14.863)"><g class="ab"><g class="c"><path class="i" d="M76.115,132.279l-.023,7.882v.048l.023-7.882v-.048" transform="translate(-72.771 -132.279)"/><path class="j" d="M76.134,132.3l-.023,7.882a1.783,1.783,0,0,1-.036.314l.021-7.882a2,2,0,0,0,.038-.314" transform="translate(-72.79 -132.254)"/><path class="k" d="M76.145,132.452l-.021,7.882a2.255,2.255,0,0,1-.094.322l.023-7.882a2.072,2.072,0,0,0,.092-.323" transform="translate(-72.839 -132.09)"/><path class="l" d="M76.142,132.606l-.023,7.882a2.434,2.434,0,0,1-.17.36l.023-7.882a2.669,2.669,0,0,0,.17-.36" transform="translate(-72.927 -131.921)"/><path class="m" d="M76.124,132.778,76.1,140.66a3.47,3.47,0,0,1-.291.431l.023-7.882a3.466,3.466,0,0,0,.291-.431" transform="translate(-73.079 -131.733)"/><path class="n" d="M76.13,132.984l-.023,7.882a5.2,5.2,0,0,1-.567.605l.023-7.882a5.362,5.362,0,0,0,.567-.605" transform="translate(-73.376 -131.508)"/><path class="o" d="M76.529,133.273l-.023,7.882a11.565,11.565,0,0,1-1.851,1.344l.021-7.882a11.492,11.492,0,0,0,1.853-1.344" transform="translate(-74.343 -131.192)"/><path class="p" d="M74.839,133.915l-.021,7.882c-.1.061-.205.124-.312.184l.023-7.882.31-.184" transform="translate(-74.506 -130.489)"/></g></g></g><g transform="translate(15.86 18.473)"><path class="g" d="M76.675,134l-.022,7.882-4.109,2.388.022-7.882Z" transform="translate(-72.544 -134.003)"/></g><g transform="translate(0.022)"><path class="u" d="M80.84,146.041a8.11,8.11,0,0,0-2.772,2.148l-4.291-2.477c.459-.534.718-.865,2.881-2.121l4.186-2.433c2.469-1.434,2.54-2.442.626-3.545l-1.451-.838-10.826,6.29-4.213-2.433,26.587-15.452,6.359,3.673c4.351,2.513,4.211,4.758.117,7.136l-2.1,1.221a11.133,11.133,0,0,1-8.129,1.541c1.225,1.721-.1,3.3-2.865,4.9Zm9.955-10.7,2.622-1.524c1.9-1.106,2.1-1.97.6-2.833l-2.021-1.168-8.173,4.749,1.652.955a4.844,4.844,0,0,0,5.321-.178" transform="translate(-64.98 -125.181)"/></g><g transform="translate(8.797 20.531)"><path class="d" d="M73.484,137.463l-.022,7.882-4.291-2.477.022-7.882Z" transform="translate(-69.171 -134.986)"/></g><g class="c" transform="translate(13.089 20.86)"><g class="ac"><g class="c"><path class="p" d="M72.919,135.143l-.021,7.882c-.239.14-.465.272-.678.4l.021-7.884c.214-.128.44-.26.678-.4" transform="translate(-70.126 -135.143)"/><path class="o" d="M73.03,135.334l-.021,7.884a9.228,9.228,0,0,0-1.51,1.076l.021-7.882a9.45,9.45,0,0,1,1.51-1.078" transform="translate(-70.915 -134.934)"/><path class="n" d="M71.752,135.849l-.021,7.882a4.108,4.108,0,0,0-.444.477l.023-7.882a4.279,4.279,0,0,1,.442-.477" transform="translate(-71.147 -134.371)"/><path class="m" d="M71.383,136.077l-.023,7.882c-.048.063-.1.126-.14.193l.021-7.882c.046-.067.092-.13.142-.193" transform="translate(-71.22 -134.121)"/></g></g></g></g><g class="c" transform="translate(44.943 25.948)"><g transform="translate(0.022)"><path class="u" d="M103.122,131.852,76.534,147.3l-4.213-2.433L98.909,129.42Z" transform="translate(-72.321 -129.42)"/></g><g transform="translate(4.213 2.433)"><path class="g" d="M100.933,130.582l-.022,7.882L74.323,153.915l.022-7.882Z" transform="translate(-74.323 -130.582)"/></g><g transform="translate(0 15.451)"><path class="d" d="M76.546,139.231l-.022,7.882-4.213-2.433.022-7.882Z" transform="translate(-72.31 -136.799)"/></g></g><g class="c" transform="translate(55.376 29.426)"><g transform="translate(18.402 2.208)"><path class="d" d="M90.5,134.674l-.022,7.882-4.4-2.54.022-7.882Z" transform="translate(-86.081 -132.135)"/></g><g transform="translate(31.413 7.518)"><path class="g" d="M96.1,134.671l-.022,7.882-3.787,2.2.022-7.882Z" transform="translate(-92.294 -134.671)"/></g><g transform="translate(27.014 7.18)"><path class="d" d="M94.614,137.049l-.022,7.882-4.4-2.539.022-7.882Z" transform="translate(-90.194 -134.509)"/></g><g transform="translate(0.024)"><path class="u" d="M112.514,138.594l-3.8,2.21-4.4-2.54L81.519,151.51,77.3,149.076,100.1,135.831l-4.4-2.54,3.8-2.21Z" transform="translate(-77.305 -131.081)"/></g><g transform="translate(4.213 7.18)"><path class="g" d="M102.128,134.509l-.022,7.882-22.8,13.25.022-7.882Z" transform="translate(-79.305 -134.509)"/></g><g transform="translate(0 17.997)"><path class="d" d="M81.529,142.108l-.022,7.882-4.213-2.433.022-7.882Z" transform="translate(-77.293 -139.675)"/></g><g transform="translate(21.428 13.961)"><path class="g" d="M103.033,137.747l-.022,7.882-15.485,6.639.022-7.882Z" transform="translate(-87.526 -137.747)"/></g><g transform="translate(11.745 22.39)"><path class="g" d="M88.479,141.773l-.022,7.882L82.9,152.043l.022-7.882Z" transform="translate(-82.902 -141.773)"/></g><g transform="translate(7.871 22.542)"><path class="d" d="M84.948,144.082l-.022,7.882-3.874-2.237.022-7.882Z" transform="translate(-81.052 -141.845)"/></g><g transform="translate(17.3 22.39)"><path class="d" d="M90.732,144.749l-.022,7.882-5.155-2.976.022-7.882Z" transform="translate(-85.555 -141.773)"/></g><g transform="translate(22.595 13.123)"><path class="ad" d="M110.418,137.347l-.022,7.882-22.313,17.92.022-7.882Z" transform="translate(-88.083 -137.347)"/></g><g transform="translate(18.351 28.592)"><path class="d" d="M90.323,147.185l-.022,7.882-4.244-2.45.022-7.882Z" transform="translate(-86.056 -144.735)"/></g><g transform="translate(7.893 9.569)"><path class="u" d="M118.1,139.2l-22.312,17.92-4.245-2.45,4.1-3.227-5.155-2.976-5.555,2.389-3.874-2.239,30.88-12.972Zm-23.478,7.478,4.058,2.343,11.427-8.983-15.485,6.64" transform="translate(-81.062 -135.65)"/></g></g></g></g></svg>