<svg xmlns="http://www.w3.org/2000/svg" xmlns:xlink="http://www.w3.org/1999/xlink" width="112.427" height="75.74" viewBox="0 0 112.427 75.74"><defs><style>.a,.b{fill:none;}.b{stroke:#831412;stroke-linejoin:round;stroke-width:2px;}.c{isolation:isolate;}.d{fill:#831412;}.e{clip-path:url(#a);}.f{fill:#811310;}.g{clip-path:url(#b);}.h{fill:#8b1815;}.i{fill:#8e1917;}.j{fill:#921a19;}.k{fill:#951c1a;}.l{fill:#991d1b;}.m{fill:#9c1e1d;}.n{fill:#a01f1e;}.o{fill:#a3201f;}.p{fill:#ac2322;}.q{fill:#fff;}.r{clip-path:url(#c);}.s{fill:#871614;}.t{fill:#841512;}.u{clip-path:url(#d);}.v{clip-path:url(#e);}.w{clip-path:url(#f);}.x{clip-path:url(#g);}.y{fill:#a82221;}.z{fill:#a72221;}.aa{fill:#a2201f;}.ab{clip-path:url(#h);}.ac{clip-path:url(#i);}.ad{clip-path:url(#j);}.ae{clip-path:url(#k);}.af{clip-path:url(#l);}.ag{clip-path:url(#m);}</style><clipPath id="a"><path class="a" d="M-99.755,212.814l-.021,7.882c0-.423-.36-.808-.99-1.173l.021-7.882C-100.113,212.005-99.753,212.391-99.755,212.814Z" transform="translate(100.766 -211.641)"/></clipPath><clipPath id="b"><path class="a" d="M-95.71,212.319l-.023,7.882c0,1.286-1.135,2.58-3.329,3.855l.021-7.882C-96.844,214.9-95.714,213.6-95.71,212.319Z" transform="translate(99.062 -212.319)"/></clipPath><clipPath id="c"><path class="a" d="M-98.736,217.888l-.023,7.882a12.155,12.155,0,0,1-12.859.2l.023-7.882A12.155,12.155,0,0,0-98.736,217.888Z" transform="translate(111.618 -217.888)"/></clipPath><clipPath id="d"><path class="a" d="M-89.9,217.211l-.021,7.882c0-.438-.364-.838-1.005-1.208a4.494,4.494,0,0,0-4.8.268l.023-7.882A4.494,4.494,0,0,1-90.9,216C-90.264,216.373-89.9,216.773-89.9,217.211Z" transform="translate(95.725 -215.433)"/></clipPath><clipPath id="e"><path class="a" d="M-88.442,216.394l-.023,7.882c0,1.321-1.112,2.653-3.294,3.922l.023-7.882C-89.556,219.047-88.446,217.715-88.442,216.394Z" transform="translate(91.759 -216.394)"/></clipPath><clipPath id="f"><path class="a" d="M-103.265,229.281l.023-7.882c0-.48.44-1.005,1.436-1.583l-.023,7.882C-102.825,228.276-103.263,228.8-103.265,229.281Z" transform="translate(103.265 -219.816)"/></clipPath><clipPath id="g"><path class="a" d="M-106.033,228.343l.021-7.884c0,1.25.982,2.486,2.986,3.644a12.652,12.652,0,0,0,13.075-.2l-.023,7.882a12.652,12.652,0,0,1-13.075.2C-105.051,230.826-106.037,229.591-106.033,228.343Z" transform="translate(106.033 -220.459)"/></clipPath><clipPath id="h"><path class="a" d="M-64.471,233.179l-.021,7.882c0-.4-.333-.787-.993-1.168l.023-7.882C-64.8,232.392-64.468,232.775-64.471,233.179Z" transform="translate(65.484 -232.011)"/></clipPath><clipPath id="i"><path class="a" d="M-60.419,232.718l-.021,7.882c0,1.177-1.066,2.335-3.12,3.528l.021-7.882C-61.485,235.053-60.421,233.893-60.419,232.718Z" transform="translate(63.56 -232.718)"/></clipPath><clipPath id="j"><path class="a" d="M-70.113,236.687l-.023,7.882c0-.521-.459-1.009-1.332-1.514l.021-7.882C-70.572,235.678-70.111,236.166-70.113,236.687Z" transform="translate(71.468 -235.173)"/></clipPath><clipPath id="k"><path class="a" d="M-60.279,234.981l-.021,7.884a11.2,11.2,0,0,1-8.146,1.55l.023-7.882A11.185,11.185,0,0,0-60.279,234.981Z" transform="translate(68.446 -234.981)"/></clipPath><clipPath id="l"><path class="a" d="M-66.468,236.34l-.021,7.882c0,1.231-1.261,2.406-3.325,3.606l.023-7.882C-67.726,238.746-66.47,237.571-66.468,236.34Z" transform="translate(69.814 -236.34)"/></clipPath><clipPath id="m"><path class="a" d="M-70.29,239.2l-.023,7.882a8.319,8.319,0,0,0-2.787,2.138l.021-7.882A8.331,8.331,0,0,1-70.29,239.2Z" transform="translate(73.1 -239.199)"/></clipPath></defs><g transform="translate(1 1)"><path class="b" d="M-106.4,236.789c.042.017.084.044.128.061q.572.226,1.145.389c.038.01.075.017.113.027.054.017.109.027.163.04.193.052.385.1.578.144.239.048.477.09.718.124.05.008.1.013.153.019l.121.013c.13.015.258.033.387.044.216.017.431.029.647.033.149,0,.3,0,.444,0,.036,0,.073,0,.111,0s.08,0,.119,0c.249-.008.5-.025.75-.05.188-.019.377-.052.565-.08.071-.01.142-.019.214-.031.05-.008.1-.01.149-.021.214-.038.427-.111.641-.161.3-.069.591-.132.886-.224.042-.013.084-.017.126-.031.3-.1.6-.228.9-.35.17-.067.341-.121.513-.2.13-.059.26-.13.389-.193l-.013,4.789c0,1.25.982,2.486,2.984,3.644a13.517,13.517,0,0,0,1.686.815c.031.013.061.033.092.046q.575.226,1.16.394c.059.017.117.027.174.042s.14.034.209.052c.17.042.337.09.507.124.251.052.5.1.756.132.063.008.128.015.191.021l.14.017c.124.015.247.031.373.042.23.019.463.031.693.038.147,0,.293,0,.44,0,.042,0,.086,0,.13,0s.1,0,.153,0c.268-.011.536-.027.8-.054.165-.017.331-.046.5-.069.088-.013.176-.023.264-.038s.144-.017.218-.029c.2-.038.4-.1.6-.151.115-.027.228-.048.341-.075l-.01,3.778,4.2,2.425,5.4-3.141-.019,6.251,4.322,2.494,8.885-11.94,12.539-2.488-16.31,9.48,4.2,2.429,0,0-4.2-2.425-.023,7.882,4.2,2.425,6.255-3.635-.019,7.235,11.467,6.621,2.6-1.512-.008,3.009,4.213,2.431,4.6-2.672-.015,5.319,4.276,2.469a3.643,3.643,0,0,1,.383-.446c.048-.05.092-.1.144-.155.084-.08.184-.153.276-.23.126-.1.249-.209.392-.312.113-.08.241-.161.364-.241.149-.1.293-.2.459-.3.243-.147.492-.3.769-.456l4.094-2.381c.107-.061.211-.124.316-.186.383-.23.731-.463,1.049-.693.042-.031.073-.061.113-.092a8.67,8.67,0,0,0,.691-.559c.061-.054.1-.111.155-.165s.128-.134.188-.2.161-.159.224-.239a3.651,3.651,0,0,0,.289-.427c.019-.034.029-.065.046-.1l.031-.065c.031-.065.067-.13.092-.195a2.068,2.068,0,0,0,.092-.323,1.78,1.78,0,0,0,.036-.314l0-.048,0-1.212c.073.01.144.027.218.038.2.029.4.05.607.067s.389.027.584.031c.046,0,.094,0,.14,0h.075c.128,0,.255,0,.381,0,.222-.008.444-.023.664-.044.276-.027.549-.067.823-.115.025,0,.048-.015.073-.019.08-.015.161-.044.241-.061a11.125,11.125,0,0,0,1.129-.285c.157-.05.316-.126.473-.182s.31-.117.463-.18a14.8,14.8,0,0,0,1.811-.879l2.086-1.212.237-.14c.387-.235.729-.467,1.039-.7.077-.057.138-.113.209-.17.159-.126.327-.251.463-.375.1-.09.168-.18.253-.27.059-.065.124-.128.178-.193.038-.044.09-.088.124-.132a3.743,3.743,0,0,0,.3-.446c.034-.061.057-.121.086-.182l.036-.077c.017-.038.04-.075.054-.113a2.351,2.351,0,0,0,.1-.343,1.825,1.825,0,0,0,.038-.335l0-.052h0l.021-7.882a2.082,2.082,0,0,1-.149.651c.467-1.386-.5-2.785-3.089-4.278l-6.343-3.662-2.6,1.512.008-3.009-11.467-6.621-1.843,1.072,0-2.125,0,0,0,0v0h0l-13-7.5-.689.4,0-.8-4.2-2.423-5.522,1.148.013-4.328-4.2-2.425-5.815,3.38.015-5.162c0,.017-.01.036-.01.052.031-1.269-.949-2.527-2.988-3.706a12.536,12.536,0,0,0-12.273-.193l.015-4.686c0,.019-.013.038-.013.057.034-1.229-.949-2.452-3.022-3.65l-6.653-3.84-26.588,15.452-.023,7.882,6.653,3.84A14.347,14.347,0,0,0-106.4,236.789Zm11.276-1.137.036.036-.038-.036Zm4.5-2.249,0,.025Zm.1-.322.013-.029Zm25.545-5.5L-65,227.6c.088-.071.149-.144.228-.216C-64.847,227.45-64.9,227.514-64.979,227.579Zm-15.267-8.606-.033.025c.086-.067.147-.136.224-.2C-80.123,218.854-80.173,218.912-80.246,218.973ZM-94.766,236a10.545,10.545,0,0,0,1.326.9A10.545,10.545,0,0,1-94.766,236Zm75.549,33.234c-.042.029-.1.059-.138.088.1-.067.188-.136.278-.2l-.029.025C-19.145,269.168-19.177,269.2-19.217,269.229Zm-19.612-6.7,3.07,1.774-3.577,2.077.008-3.009-.475-.274Zm15.8,2.312a1.707,1.707,0,0,1,.1.157A1.707,1.707,0,0,0-23.03,264.842Zm.243.4a.989.989,0,0,1,.038.17A.989.989,0,0,0-22.787,265.238Zm-.519-.658c-.05-.042-.088-.086-.144-.13C-23.394,264.495-23.356,264.538-23.306,264.58Zm-5.953-4.054.008-3.562,1.617-.938,3.07,1.771ZM-4.6,259.84a3.435,3.435,0,0,1-.331.492,3.435,3.435,0,0,0,.331-.492Zm-.689.951a.784.784,0,0,1-.063.054.784.784,0,0,0,.063-.054Zm-5.26-2.232a.9.9,0,0,0-.216-.521A.9.9,0,0,1-10.545,258.558Zm-.285-.591a2.888,2.888,0,0,0-.685-.53A2.888,2.888,0,0,1-10.83,257.967ZM-63.444,225.7l-.029.061a2.451,2.451,0,0,0,.1-.41A2.257,2.257,0,0,1-63.444,225.7Zm-.4.651a3.152,3.152,0,0,1-.2.322l-.029.031A3.927,3.927,0,0,0-63.842,226.348Zm-5.212-1.887a.964.964,0,0,0-.241-.58A.964.964,0,0,1-69.054,224.461Zm-.276-.614a2.813,2.813,0,0,0-.712-.555A2.813,2.813,0,0,1-69.33,223.848Zm-9.373-6.715-.034.071a2.534,2.534,0,0,0,.1-.4A2.28,2.28,0,0,1-78.7,217.132Zm-.41.651c-.067.094-.1.191-.184.285l-.034.036C-79.241,218-79.189,217.89-79.113,217.784Zm-5.31-1.868a.914.914,0,0,0-.237-.559A.914.914,0,0,1-84.424,215.916Zm-.272-.593a2.807,2.807,0,0,0-.7-.54A2.807,2.807,0,0,1-84.7,215.323Z" transform="translate(114.795 -208.769)"/><g transform="translate(0.001)"><g class="c"><g transform="translate(26.999 4.642)"><path class="d" d="M-99.5,212.358l-.022,7.882-2.377-1.372.022-7.882Z" transform="translate(101.901 -210.986)"/></g><g class="c" transform="translate(29.376 6.014)"><g class="e"><g class="c"><path class="f" d="M-99.755,212.814l-.021,7.882c0-.423-.36-.808-.99-1.173l.021-7.882c.632.364.993.75.99,1.173" transform="translate(100.766 -211.641)"/></g></g></g><g class="c" transform="translate(32.944 7.434)"><g class="g"><g class="c"><path class="h" d="M-97.448,212.319l-.023,7.882,0,.057.023-7.882,0-.057" transform="translate(100.8 -212.319)"/><path class="i" d="M-97.428,212.346l-.023,7.882a2.124,2.124,0,0,1-.042.381l.021-7.882a2.363,2.363,0,0,0,.044-.381" transform="translate(100.779 -212.289)"/><path class="j" d="M-97.413,212.528l-.021,7.882a2.732,2.732,0,0,1-.113.389l.023-7.882a2.471,2.471,0,0,0,.111-.389" transform="translate(100.719 -212.09)"/><path class="k" d="M-97.42,212.714l-.023,7.882a2.981,2.981,0,0,1-.2.425l.023-7.882a3.229,3.229,0,0,0,.2-.425" transform="translate(100.615 -211.887)"/><path class="l" d="M-97.44,212.917l-.023,7.882a3.987,3.987,0,0,1-.343.5l.023-7.882a3.993,3.993,0,0,0,.343-.5" transform="translate(100.436 -211.665)"/><path class="m" d="M-97.459,213.158l-.023,7.882a5.8,5.8,0,0,1-.62.664l.023-7.884a5.616,5.616,0,0,0,.62-.662" transform="translate(100.112 -211.401)"/><path class="n" d="M-97.15,213.474l-.023,7.884a10.9,10.9,0,0,1-1.778,1.3l.021-7.882a10.838,10.838,0,0,0,1.78-1.3" transform="translate(99.183 -211.055)"/><path class="o" d="M-98.809,214.094l-.021,7.882-.232.138.021-7.882q.119-.069.232-.138" transform="translate(99.062 -210.377)"/></g></g></g><g transform="translate(8.016 4.642)"><path class="p" d="M-91.962,210.986l-.022,7.882L-110.967,229.9l.022-7.882Z" transform="translate(110.967 -210.986)"/></g><g transform="translate(19.511 11.289)"><path class="p" d="M-92.023,214.16l-.022,7.882-13.432,7.806.022-7.882Z" transform="translate(105.477 -214.16)"/></g><g transform="translate(0 15.451)"><path class="d" d="M-108.121,219.988l-.022,7.882-6.652-3.84.022-7.882Z" transform="translate(114.795 -216.148)"/></g><g transform="translate(0.022)"><path class="q" d="M-81.544,212.609c4.213,2.431,3.966,4.971-.3,7.448l-13.431,7.806a12.155,12.155,0,0,1-12.859.2l-6.653-3.84L-88.2,208.769Zm-18.142,12.937,13.831-8.037c1.9-1.106,1.774-1.96.446-2.726l-2.377-1.372-18.982,11.031,2.377,1.372c1.328.766,2.8.838,4.705-.268" transform="translate(114.784 -208.769)"/></g><g class="c" transform="translate(6.652 19.095)"><g class="r"><g class="c"><path class="o" d="M-103.91,217.888l-.023,7.882a15.185,15.185,0,0,1-2.955,1.336l.023-7.882a15.241,15.241,0,0,0,2.955-1.336" transform="translate(116.793 -217.888)"/><path class="n" d="M-106,218.526l-.023,7.882a12.478,12.478,0,0,1-1.652.417l.023-7.882a12.57,12.57,0,0,0,1.652-.417" transform="translate(115.929 -217.19)"/><path class="m" d="M-107.169,218.725l-.023,7.882c-.308.057-.618.1-.928.132l.023-7.882c.31-.031.618-.075.928-.132" transform="translate(115.445 -216.972)"/><path class="l" d="M-107.705,218.788l-.023,7.882c-.249.025-.5.042-.75.05l.021-7.882c.251-.008.5-.025.752-.05" transform="translate(115.053 -216.903)"/><path class="k" d="M-108.1,218.812l-.021,7.882c-.224.008-.45.008-.674,0l.023-7.882c.224.006.448.006.672,0" transform="translate(114.701 -216.877)"/><path class="j" d="M-108.439,218.831l-.023,7.882c-.216,0-.431-.017-.647-.033l.023-7.882c.216.017.431.029.647.034" transform="translate(114.363 -216.894)"/><path class="i" d="M-108.74,218.836l-.023,7.882c-.222-.019-.442-.044-.662-.075l.021-7.882c.222.031.442.057.664.075" transform="translate(114.017 -216.933)"/><path class="h" d="M-109.029,218.826l-.021,7.882c-.241-.033-.48-.075-.718-.124l.023-7.882c.239.048.477.09.716.124" transform="translate(113.642 -216.997)"/><path class="s" d="M-109.3,218.812l-.023,7.882c-.285-.061-.57-.13-.854-.211l.021-7.882c.285.082.572.151.856.212" transform="translate(113.196 -217.108)"/><path class="t" d="M-109.557,218.8l-.021,7.882q-.575-.163-1.145-.389l.023-7.882a12.053,12.053,0,0,0,1.143.389" transform="translate(112.597 -217.311)"/><path class="f" d="M-109.721,218.889l-.023,7.882a14.093,14.093,0,0,1-1.874-.907l.023-7.882a13.964,13.964,0,0,0,1.874.907" transform="translate(111.618 -217.785)"/></g></g></g></g><g class="c" transform="translate(18.347 10.596)"><g class="c" transform="translate(21.585 3.358)"><g class="u"><g class="c" transform="translate(0 -0.001)"><path class="f" d="M-92.094,217.065l-.021,7.882c0-.438-.364-.838-1.005-1.208a4.284,4.284,0,0,0-.6-.291l.023-7.882a4.292,4.292,0,0,1,.6.291c.641.371,1.005.771,1,1.208" transform="translate(97.917 -215.286)"/><path class="t" d="M-93.5,215.633l-.023,7.882a3.906,3.906,0,0,0-.373-.128l.021-7.882c.128.036.251.08.375.128" transform="translate(97.723 -215.353)"/><path class="s" d="M-93.728,215.542l-.021,7.882c-.094-.027-.191-.05-.287-.071l.021-7.882c.1.021.193.044.287.071" transform="translate(97.573 -215.39)"/><path class="h" d="M-93.888,215.493l-.021,7.882c-.08-.015-.161-.029-.243-.042l.023-7.882c.082.013.161.025.241.042" transform="translate(97.446 -215.412)"/><path class="i" d="M-94.01,215.464l-.023,7.882c-.075-.01-.151-.019-.228-.025l.023-7.882c.077.006.153.015.228.025" transform="translate(97.327 -215.425)"/><path class="j" d="M-94.12,215.446l-.023,7.882q-.11-.009-.226-.013l.023-7.882q.113,0,.226.013" transform="translate(97.208 -215.432)"/><path class="k" d="M-94.221,215.434l-.023,7.882c-.08,0-.159,0-.239,0l.023-7.882c.08,0,.159,0,.239,0" transform="translate(97.084 -215.432)"/><path class="l" d="M-94.317,215.434l-.023,7.882c-.09,0-.182.008-.274.019l.021-7.882c.094-.01.184-.017.276-.019" transform="translate(96.94 -215.431)"/><path class="m" d="M-94.407,215.443l-.021,7.882a3.545,3.545,0,0,0-.356.05l.023-7.882c.119-.023.239-.04.354-.05" transform="translate(96.754 -215.421)"/><path class="n" d="M-94.424,215.467l-.023,7.882a5.273,5.273,0,0,0-.645.161l.023-7.882a5.273,5.273,0,0,1,.645-.161" transform="translate(96.417 -215.394)"/><path class="o" d="M-94.376,215.544l-.023,7.882a6.911,6.911,0,0,0-1.326.605l.023-7.882a6.912,6.912,0,0,1,1.326-.605" transform="translate(95.725 -215.31)"/></g></g></g><g class="c" transform="translate(29.89 5.371)"><g class="v"><g class="c"><path class="h" d="M-90.163,216.394l-.023,7.882v.063l.021-7.882,0-.063" transform="translate(93.48 -216.394)"/><path class="i" d="M-90.14,216.424l-.021,7.882a2.47,2.47,0,0,1-.048.406l.023-7.882a2.257,2.257,0,0,0,.046-.406" transform="translate(93.455 -216.361)"/><path class="j" d="M-90.124,216.618l-.023,7.882a2.536,2.536,0,0,1-.119.417l.023-7.882a2.537,2.537,0,0,0,.119-.417" transform="translate(93.392 -216.149)"/><path class="k" d="M-90.131,216.817l-.023,7.882a3.173,3.173,0,0,1-.214.454l.023-7.882a3.17,3.17,0,0,0,.214-.454" transform="translate(93.281 -215.931)"/><path class="l" d="M-90.159,217.034l-.023,7.882a4.084,4.084,0,0,1-.356.526l.023-7.882a4.231,4.231,0,0,0,.356-.526" transform="translate(93.095 -215.694)"/><path class="m" d="M-90.182,217.285l-.023,7.882a5.923,5.923,0,0,1-.637.68l.021-7.882a5.774,5.774,0,0,0,.639-.681" transform="translate(92.762 -215.419)"/><path class="n" d="M-89.928,217.61l-.021,7.882a10.475,10.475,0,0,1-1.709,1.25l.023-7.882a10.576,10.576,0,0,0,1.707-1.25" transform="translate(91.87 -215.064)"/><path class="o" d="M-91.524,218.207l-.023,7.882-.211.126.023-7.882.211-.126" transform="translate(91.759 -214.411)"/></g></g></g><g transform="translate(7.233 4.195)"><path class="p" d="M-88.2,215.833l-.022,7.882-14.352,8.34.022-7.882Z" transform="translate(102.579 -215.833)"/></g><g class="c" transform="translate(5.796 12.536)"><g class="w"><g class="c"><path class="o" d="M-102.5,219.816l-.023,7.882-.113.067.023-7.882.113-.067" transform="translate(103.956 -219.816)"/><path class="n" d="M-102.191,219.848l-.023,7.882a4.811,4.811,0,0,0-.8.582l.023-7.882a4.8,4.8,0,0,1,.8-.582" transform="translate(103.537 -219.781)"/><path class="m" d="M-102.861,220.126l-.023,7.882a2.3,2.3,0,0,0-.253.272l.021-7.882a2.33,2.33,0,0,1,.255-.272" transform="translate(103.405 -219.477)"/><path class="l" d="M-103.046,220.256l-.021,7.882a1.722,1.722,0,0,0-.134.2l.023-7.882a1.47,1.47,0,0,1,.132-.2" transform="translate(103.335 -219.335)"/><path class="k" d="M-103.139,220.35l-.023,7.882a.926.926,0,0,0-.075.161l.021-7.882a1.132,1.132,0,0,1,.077-.161" transform="translate(103.296 -219.232)"/><path class="j" d="M-103.194,220.427l-.021,7.882a.752.752,0,0,0-.042.144l.021-7.882a1.26,1.26,0,0,1,.042-.145" transform="translate(103.274 -219.148)"/><path class="i" d="M-103.227,220.5l-.021,7.882a.78.78,0,0,0-.017.138l.023-7.882a.775.775,0,0,1,.015-.138" transform="translate(103.265 -219.072)"/><path class="h" d="M-103.242,220.562l-.022,7.882v.02l.022-7.882v-.02" transform="translate(103.265 -219)"/></g></g></g><g transform="translate(16.059 9.292)"><path class="p" d="M-84.511,218.267l-.022,7.882-13.831,8.037.022-7.882Z" transform="translate(98.364 -218.267)"/></g><g class="c" transform="translate(0 13.883)"><g class="x"><g class="c"><path class="o" d="M-96.847,222.105l-.023,7.882a14.752,14.752,0,0,1-2.86,1.288l.023-7.882a14.75,14.75,0,0,0,2.86-1.288" transform="translate(112.928 -218.658)"/><path class="n" d="M-98.8,222.72l-.023,7.882a13.579,13.579,0,0,1-1.73.436l.023-7.882a13.561,13.561,0,0,0,1.73-.436" transform="translate(112.025 -217.985)"/><path class="m" d="M-100.022,222.928l-.023,7.882c-.327.059-.651.1-.978.136l.023-7.882c.327-.033.651-.077.978-.136" transform="translate(111.514 -217.758)"/><path class="l" d="M-100.58,222.993l-.023,7.882c-.268.027-.536.044-.8.054l.023-7.882c.268-.01.536-.027.8-.054" transform="translate(111.094 -217.687)"/><path class="k" d="M-101.007,223.019l-.023,7.882c-.241.008-.482.008-.722,0l.023-7.882c.241,0,.482,0,.722,0" transform="translate(110.716 -217.658)"/><path class="j" d="M-101.367,223.041l-.023,7.882c-.23-.006-.463-.019-.693-.038l.023-7.882c.23.019.461.031.693.038" transform="translate(110.354 -217.676)"/><path class="i" d="M-101.692,223.045l-.023,7.882c-.235-.019-.469-.046-.7-.08l.021-7.882c.235.034.469.061.706.08" transform="translate(109.987 -217.717)"/><path class="h" d="M-102,223.034l-.021,7.882c-.253-.036-.5-.08-.756-.132l.023-7.882q.377.079.754.132" transform="translate(109.592 -217.786)"/><path class="s" d="M-102.292,223.016l-.023,7.882c-.3-.061-.595-.134-.89-.218l.023-7.882c.3.084.593.157.89.218" transform="translate(109.127 -217.9)"/><path class="t" d="M-102.576,223l-.023,7.882c-.389-.111-.775-.243-1.16-.394l.023-7.884c.383.153.771.283,1.16.4" transform="translate(108.521 -218.107)"/><path class="f" d="M-101.248,224.961l-.023,7.884a13.718,13.718,0,0,1-1.778-.861c-2-1.158-2.988-2.393-2.984-3.641l.021-7.884c0,1.25.982,2.486,2.986,3.644a13.431,13.431,0,0,0,1.778.859" transform="translate(106.033 -220.459)"/></g></g></g><g transform="translate(0.022)"><path class="q" d="M-75.836,215.546c4.136,2.389,3.951,5.107-.3,7.576l-13.831,8.037a12.652,12.652,0,0,1-13.075.2c-4.121-2.381-3.937-5.1.312-7.566l13.829-8.039A12.65,12.65,0,0,1-75.836,215.546Zm-18.584,13.341,14.352-8.34c1.9-1.106,1.772-2.014.429-2.789a4.494,4.494,0,0,0-4.8.268l-14.352,8.34c-1.9,1.1-1.774,2.012-.446,2.779a4.506,4.506,0,0,0,4.814-.258" transform="translate(106.023 -213.829)"/></g></g><g class="c" transform="translate(30.744 17.749)"><g transform="translate(19.194 2.424)"><path class="p" d="M-79.332,218.4l-.022,7.882-11.592,6.737.022-7.882Z" transform="translate(90.947 -218.403)"/></g><g transform="translate(22.792 8.028)"><path class="y" d="M-71.5,221.079l-.022,7.882-17.7,3.511.022-7.882Z" transform="translate(89.229 -221.079)"/></g><g transform="translate(12.371 12.466)"><path class="z" d="M-90.464,223.2l-.022,7.882-3.719.659.022-7.882Z" transform="translate(94.205 -223.199)"/></g><g transform="translate(4.198 13.126)"><path class="p" d="M-89.913,223.513l-.022,7.882-8.173,4.749.022-7.882Z" transform="translate(98.108 -223.513)"/></g><g transform="translate(0 15.451)"><path class="d" d="M-95.893,227.048l-.022,7.882-4.2-2.424.022-7.882Z" transform="translate(100.113 -224.624)"/></g><g transform="translate(9.584 20.985)"><path class="d" d="M-91.192,229.762l-.022,7.882-4.321-2.495.022-7.882Z" transform="translate(95.536 -227.267)"/></g><g transform="translate(0.022)"><path class="q" d="M-59.608,225.274l-17.7,3.511-8.886,11.94-4.321-2.495,6.505-8.519-3.719.659L-95.9,235.12l-4.2-2.424,26.588-15.451,4.2,2.424-11.592,6.737,17.1-3.555Z" transform="translate(100.102 -217.245)"/></g><g transform="translate(13.906 11.539)"><path class="aa" d="M-84.564,222.756l-.022,7.882-8.886,11.94.022-7.882Z" transform="translate(93.472 -222.756)"/></g></g><g class="c" transform="translate(49.743 26.177)"><g transform="translate(18.387 2.212)"><path class="d" d="M-77.838,224.866l-.022,7.882-4.4-2.54.022-7.882Z" transform="translate(82.259 -222.326)"/></g><g transform="translate(31.382 7.505)"><path class="p" d="M-72.228,224.854l-.022,7.882-3.8,2.21.022-7.882Z" transform="translate(76.053 -224.854)"/></g><g transform="translate(26.983 7.175)"><path class="d" d="M-73.733,227.236l-.022,7.882-4.4-2.54.022-7.882Z" transform="translate(78.154 -224.696)"/></g><g transform="translate(0.02)"><path class="q" d="M-55.839,228.78l-3.8,2.209-4.4-2.539-22.78,13.238-4.212-2.432,22.78-13.238-4.4-2.539,3.8-2.209Z" transform="translate(91.03 -221.27)"/></g><g transform="translate(4.198 7.175)"><path class="p" d="M-66.227,224.7l-.022,7.882L-89.035,245.82l.022-7.882Z" transform="translate(89.035 -224.696)"/></g><g transform="translate(0 17.993)"><path class="d" d="M-86.82,232.286l-.022,7.882-4.2-2.424.022-7.882Z" transform="translate(91.04 -229.862)"/></g></g><g class="c" transform="translate(60.176 34.742)"><g transform="translate(34.252 6.621)"><path class="p" d="M-65.875,228.522-65.9,236.4l-3.8,2.21.022-7.882Z" transform="translate(69.7 -228.522)"/></g><g transform="translate(26.983 4.634)"><path class="d" d="M-65.88,231.77l-.022,7.882-7.269-4.2.022-7.882Z" transform="translate(73.171 -227.573)"/></g><g transform="translate(19.577 4.634)"><path class="p" d="M-69.28,227.573l-.022,7.882-7.406,4.3.022-7.882Z" transform="translate(76.708 -227.573)"/></g><g transform="translate(21.562 12.27)"><path class="p" d="M-71.951,231.22l-.022,7.882-3.787,2.2.022-7.882Z" transform="translate(75.76 -231.22)"/></g><g transform="translate(15.79 11.138)"><path class="d" d="M-72.722,234.012l-.022,7.882-5.772-3.333.022-7.882Z" transform="translate(78.517 -230.679)"/></g><g transform="translate(8.001 11.138)"><path class="p" d="M-74.425,230.679l-.022,7.882-7.789,4.527.022-7.882Z" transform="translate(82.237 -230.679)"/></g><g transform="translate(0 15.451)"><path class="d" d="M-74.568,239.36l-.022,7.882-11.467-6.621.022-7.882Z" transform="translate(86.057 -232.739)"/></g><g transform="translate(11.467 19.862)"><path class="p" d="M-76.756,234.845l-.022,7.882-3.8,2.21.022-7.882Z" transform="translate(80.581 -234.845)"/></g><g transform="translate(0.022)"><path class="q" d="M-47.992,231.981l-3.8,2.21-7.269-4.2-7.406,4.3,5.772,3.333-3.787,2.2-5.772-3.333-7.789,4.527,7.269,4.2-3.8,2.21-11.467-6.621,26.588-15.451Z" transform="translate(86.047 -225.36)"/></g></g><g class="c" transform="translate(74.236 42.86)"><g transform="translate(26.999 4.642)"><path class="d" d="M-64.405,232.621l-.022,7.882-2.022-1.167.022-7.882Z" transform="translate(66.45 -231.454)"/></g><g class="c" transform="translate(29.021 5.809)"><g class="ab"><g class="c"><path class="f" d="M-64.471,233.179l-.021,7.882c0-.4-.333-.787-.993-1.168l.023-7.882c.66.381.993.764.99,1.168" transform="translate(65.484 -232.011)"/></g></g></g><g transform="translate(18.841 4.642)"><path class="p" d="M-62.166,231.454l-.022,7.882-8.157,4.741.022-7.882Z" transform="translate(70.345 -231.454)"/></g><g class="c" transform="translate(33.05 7.289)"><g class="ac"><g class="c"><path class="h" d="M-62.048,232.718l-.021,7.882,0,.052.023-7.882v-.052" transform="translate(65.189 -232.718)"/><path class="i" d="M-62.028,232.743l-.023,7.882a1.825,1.825,0,0,1-.038.335l.021-7.882a2.032,2.032,0,0,0,.04-.335" transform="translate(65.169 -232.691)"/><path class="j" d="M-62.017,232.9l-.021,7.882a2.351,2.351,0,0,1-.1.343l.021-7.884a1.856,1.856,0,0,0,.1-.341" transform="translate(65.118 -232.516)"/><path class="k" d="M-62.023,233.066l-.021,7.884a2.992,2.992,0,0,1-.176.373l.021-7.882a2.419,2.419,0,0,0,.176-.375" transform="translate(65.026 -232.337)"/><path class="l" d="M-62.04,233.245l-.021,7.882a3.743,3.743,0,0,1-.3.446l.023-7.882a3.483,3.483,0,0,0,.3-.446" transform="translate(64.867 -232.141)"/><path class="m" d="M-62.052,233.458l-.023,7.882a5.144,5.144,0,0,1-.555.595l.021-7.882a5.35,5.35,0,0,0,.557-.595" transform="translate(64.577 -231.908)"/><path class="n" d="M-61.715,233.742l-.021,7.882a10.734,10.734,0,0,1-1.711,1.244l.023-7.884a10.49,10.49,0,0,0,1.709-1.242" transform="translate(63.684 -231.598)"/><path class="o" d="M-63.3,234.335l-.023,7.884-.237.14.021-7.882c.082-.048.161-.094.239-.142" transform="translate(63.56 -230.949)"/></g></g></g><g transform="translate(30.963 10.817)"><path class="p" d="M-62.449,234.4l-.022,7.882-2.085,1.212.022-7.882Z" transform="translate(64.556 -234.403)"/></g><g transform="translate(15.039 11.592)"><path class="d" d="M-70.688,235.611l-.022,7.882-1.451-.838.022-7.882Z" transform="translate(72.161 -234.773)"/></g><g class="c" transform="translate(16.49 12.43)"><g class="ad"><g class="c"><path class="f" d="M-70.113,236.687l-.023,7.882c0-.521-.459-1.009-1.332-1.514l.021-7.882c.875.5,1.336.993,1.334,1.514" transform="translate(71.468 -235.173)"/></g></g></g><g class="c" transform="translate(22.818 12.028)"><g class="ae"><g class="c" transform="translate(0)"><path class="o" d="M-63.1,234.981l-.021,7.884a14.058,14.058,0,0,1-2.747,1.242l.023-7.882a13.932,13.932,0,0,0,2.745-1.244" transform="translate(71.266 -234.981)"/><path class="n" d="M-65.091,235.575l-.023,7.882a11.4,11.4,0,0,1-1.443.364l.023-7.882a11.366,11.366,0,0,0,1.443-.364" transform="translate(70.512 -234.331)"/><path class="m" d="M-66.1,235.749l-.023,7.882c-.274.048-.547.088-.823.115l.023-7.882c.274-.027.549-.067.823-.115" transform="translate(70.082 -234.141)"/><path class="l" d="M-66.58,235.8l-.023,7.882c-.22.021-.442.036-.664.044l.023-7.882c.222-.008.442-.023.664-.044" transform="translate(69.736 -234.081)"/><path class="k" d="M-66.932,235.825l-.023,7.882c-.2.006-.4.008-.6,0l.023-7.882c.2.006.4,0,.6,0" transform="translate(69.424 -234.058)"/><path class="j" d="M-67.224,235.842l-.023,7.882q-.292-.006-.584-.031l.023-7.882q.292.025.584.031" transform="translate(69.119 -234.073)"/><path class="i" d="M-67.491,235.846l-.023,7.882c-.2-.017-.4-.038-.607-.067l.023-7.882c.2.027.4.05.607.067" transform="translate(68.801 -234.108)"/><path class="h" d="M-67.749,235.84l-.023,7.882c-.222-.031-.446-.071-.668-.117l.023-7.882c.222.046.444.086.668.117" transform="translate(68.452 -234.169)"/><path class="s" d="M-68.411,235.724l-.022,7.882-.012,0,.022-7.882.012,0" transform="translate(68.446 -234.171)"/></g></g></g><g transform="translate(0 15.451)"><path class="d" d="M-75.107,239.048l-.022,7.882-4.213-2.433.022-7.882Z" transform="translate(79.343 -236.616)"/></g><g transform="translate(4.213 11.592)"><path class="p" d="M-66.483,234.773l-.022,7.882-10.825,6.291.022-7.882Z" transform="translate(77.331 -234.773)"/></g><g class="c" transform="translate(19.954 14.874)"><g class="af"><g class="c"><path class="h" d="M-68.2,236.34l-.021,7.882,0,.048.023-7.882v-.048" transform="translate(71.55 -236.34)"/><path class="i" d="M-68.185,236.363l-.023,7.882a1.781,1.781,0,0,1-.036.314l.023-7.882a1.781,1.781,0,0,0,.036-.314" transform="translate(71.532 -236.315)"/><path class="j" d="M-68.173,236.513l-.023,7.882a2.066,2.066,0,0,1-.092.323l.021-7.882a2.084,2.084,0,0,0,.094-.323" transform="translate(71.483 -236.151)"/><path class="k" d="M-68.178,236.667l-.021,7.882a2.767,2.767,0,0,1-.17.358l.023-7.882a2.5,2.5,0,0,0,.168-.358" transform="translate(71.395 -235.982)"/><path class="l" d="M-68.195,236.838l-.023,7.882a3.648,3.648,0,0,1-.289.427l.021-7.882a3.436,3.436,0,0,0,.291-.427" transform="translate(71.244 -235.795)"/><path class="m" d="M-68.19,237.042l-.021,7.882a5.192,5.192,0,0,1-.567.605l.023-7.882a5.165,5.165,0,0,0,.565-.605" transform="translate(70.947 -235.572)"/><path class="n" d="M-67.787,237.331l-.023,7.882a11.555,11.555,0,0,1-1.853,1.344l.021-7.882a11.685,11.685,0,0,0,1.855-1.344" transform="translate(69.979 -235.256)"/><path class="o" d="M-69.477,237.973l-.021,7.882c-.1.063-.209.126-.316.186l.023-7.882c.107-.061.211-.124.314-.186" transform="translate(69.814 -234.553)"/></g></g></g><g transform="translate(15.86 18.48)"><path class="p" d="M-67.653,238.062l-.022,7.882-4.094,2.379.022-7.882Z" transform="translate(71.769 -238.062)"/></g><g transform="translate(0.023)"><path class="q" d="M-63.472,250.1a8.331,8.331,0,0,0-2.789,2.138l-4.274-2.469c.459-.534.718-.865,2.879-2.121l4.171-2.423c2.483-1.445,2.54-2.46.641-3.556l-1.449-.838-10.826,6.29-4.213-2.431,26.587-15.452L-46.4,232.9c4.368,2.521,4.228,4.766.117,7.155l-2.086,1.21a11.186,11.186,0,0,1-8.144,1.552c1.225,1.719-.09,3.288-2.865,4.9Zm9.955-10.7,2.622-1.524c1.9-1.106,2.065-1.968.584-2.825l-2.023-1.166-8.156,4.741,1.635.944a4.838,4.838,0,0,0,5.338-.17" transform="translate(79.332 -229.237)"/></g><g transform="translate(8.797 20.53)"><path class="d" d="M-70.844,241.509l-.022,7.882-4.275-2.468.022-7.882Z" transform="translate(75.142 -239.041)"/></g><g class="c" transform="translate(13.073 20.86)"><g class="ag"><g class="c"><path class="o" d="M-71.382,239.2l-.023,7.882c-.247.142-.48.278-.7.41l.021-7.882c.22-.132.452-.268.7-.41" transform="translate(74.192 -239.199)"/><path class="n" d="M-71.282,239.395l-.021,7.882a9.385,9.385,0,0,0-1.529,1.091l.023-7.882a9.354,9.354,0,0,1,1.527-1.091" transform="translate(73.393 -238.985)"/><path class="m" d="M-72.578,239.916-72.6,247.8a4.245,4.245,0,0,0-.442.473l.023-7.882a3.883,3.883,0,0,1,.442-.473" transform="translate(73.162 -238.415)"/><path class="l" d="M-72.958,240.142l-.023,7.882q-.063.082-.119.163l.021-7.882c.04-.057.08-.109.121-.163" transform="translate(73.1 -238.167)"/></g></g></g></g></g></g></svg>