<svg xmlns="http://www.w3.org/2000/svg" xmlns:xlink="http://www.w3.org/1999/xlink" width="101.806" height="68.242" viewBox="0 0 101.806 68.242"><defs><style>.a,.b{fill:none;}.b{stroke:#164b68;stroke-linejoin:round;stroke-width:2px;}.c{isolation:isolate;}.d{fill:#2379a8;}.e{fill:#164b68;}.f{fill:#fff;}.g{clip-path:url(#a);}.h{fill:#134059;}.i{fill:#13425c;}.j{fill:#144560;}.k{fill:#154763;}.l{fill:#164a67;}.m{fill:#164c6a;}.n{fill:#174f6d;}.o{fill:#185171;}.p{fill:#185474;}.q{fill:#195678;}.r{fill:#1a597b;}.s{fill:#1b5b7f;}.t{fill:#1b5d82;}.u{fill:#1c6085;}.v{fill:#1d6289;}.w{fill:#1e658c;}.x{fill:#1e6790;}.y{fill:#1f6a93;}.z{fill:#206c96;}.aa{fill:#206f9a;}.ab{fill:#21719d;}.ac{fill:#2274a1;}.ad{fill:#2376a4;}.ae{fill:#247bab;}.af{fill:#3e8bb5;}.ag{fill:#4991b9;}.ah{fill:#5296bc;}.ai{clip-path:url(#b);}.aj{clip-path:url(#c);}.ak{clip-path:url(#d);}.al{clip-path:url(#e);}.am{clip-path:url(#f);}.an{clip-path:url(#g);}.ao{clip-path:url(#h);}.ap{clip-path:url(#i);}.aq{clip-path:url(#j);}.ar{clip-path:url(#k);}.as{clip-path:url(#l);}</style><clipPath id="a"><path class="a" d="M183.028,295.645l-.023,8.535c0-.417-.348-.8-.965-1.156a4.325,4.325,0,0,0-4.636.247l.025-8.535a4.33,4.33,0,0,1,4.636-.247C182.681,294.846,183.031,295.229,183.028,295.645Z" transform="translate(-177.404 -293.931)"/></clipPath><clipPath id="b"><path class="a" d="M184.447,294.858l-.025,8.535c0,1.277-1.076,2.567-3.193,3.8l.025-8.533C183.369,297.425,184.443,296.135,184.447,294.858Z" transform="translate(-181.229 -294.858)"/></clipPath><clipPath id="c"><path class="a" d="M170.042,308.275l.025-8.535c0-.465.427-.974,1.388-1.531l-.023,8.535C170.471,307.3,170.044,307.81,170.042,308.275Z" transform="translate(-170.042 -298.209)"/></clipPath><clipPath id="d"><path class="a" d="M167.367,307.359l.023-8.533c0,1.208.955,2.408,2.9,3.533a12.211,12.211,0,0,0,12.618-.195l-.025,8.535a12.211,12.211,0,0,1-12.618.193C168.322,309.769,167.363,308.569,167.367,307.359Z" transform="translate(-167.367 -298.826)"/></clipPath><clipPath id="e"><path class="a" d="M187.505,299.511l-.025,8.535c0-.39-.318-.76-.959-1.129l.025-8.535C187.185,298.751,187.505,299.121,187.505,299.511Z" transform="translate(-186.521 -298.382)"/></clipPath><clipPath id="f"><path class="a" d="M191.408,299.07l-.025,8.535c0,1.137-1.026,2.257-3,3.407l.023-8.535C190.382,301.327,191.4,300.207,191.408,299.07Z" transform="translate(-188.38 -299.07)"/></clipPath><clipPath id="g"><path class="a" d="M182.371,302.729l-.025,8.535c0-.475-.444-.921-1.294-1.413l.023-8.535C181.927,301.808,182.371,302.254,182.371,302.729Z" transform="translate(-181.052 -301.316)"/></clipPath><clipPath id="h"><path class="a" d="M191.683,301.136l-.023,8.533a10.152,10.152,0,0,1-7.723,1.405l.025-8.535A10.153,10.153,0,0,0,191.683,301.136Z" transform="translate(-183.937 -301.136)"/></clipPath><clipPath id="i"><path class="a" d="M185.933,302.447l-.023,8.533c0,1.1-1.227,2.209-3.315,3.424l.023-8.535C184.708,304.654,185.931,303.544,185.933,302.447Z" transform="translate(-182.595 -302.447)"/></clipPath><clipPath id="j"><path class="a" d="M181.863,305.334l-.025,8.535a7.829,7.829,0,0,0-2.68,2.069l.025-8.535A7.814,7.814,0,0,1,181.863,305.334Z" transform="translate(-179.158 -305.334)"/></clipPath><clipPath id="k"><path class="a" d="M184.267,316.487l.023-8.535c0-.452.427-.949,1.39-1.508l-.023,8.535C184.694,315.538,184.267,316.035,184.267,316.487Z" transform="translate(-184.267 -306.444)"/></clipPath><clipPath id="l"><path class="a" d="M181.581,315.593l.023-8.535c0,1.175.928,2.339,2.846,3.445a12.023,12.023,0,0,0,12.512-.253l-.025,8.533a12.019,12.019,0,0,1-12.512.255C182.509,317.932,181.577,316.768,181.581,315.593Z" transform="translate(-181.581 -307.058)"/></clipPath></defs><g transform="translate(1 1)"><path class="b" d="M254.053,327.578l-5.268,2.291.015-5.325-5.79-3.342-2.9,1.684.008-3.35-3.918-2.262-4.144,2.408.015-4.793-4.064-2.347-5.622,3.267.015-4.8a2.011,2.011,0,0,1-.107.471c.325-1.29-.618-2.6-3.017-3.981l-6.016-3.474-5.658,3.29.015-5.126c0,.017-.011.036-.011.052.029-1.225-.913-2.437-2.877-3.572a11.916,11.916,0,0,0-8.215-1.455l.008-2.852-10.751-6.207-25.7,14.937-.023,8.535,4.064,2.347,11.2-6.508,1.282.741a3.02,3.02,0,0,0-1.1,2.764,2.368,2.368,0,0,1-.094-.473l-.023,8.533a2.384,2.384,0,0,0,.161.823c.031.084.077.165.117.249a3.37,3.37,0,0,0,.35.578c.067.09.136.18.216.27a5.906,5.906,0,0,0,.622.6c.077.067.142.136.228.2.027.021.046.042.073.065.2.153.425.308.662.459.151.1.308.191.471.285l.165.094c.184.1.373.2.559.3.161.08.325.157.488.23.092.042.186.08.281.119l.044.019.086.036c.128.052.256.1.385.149s.239.084.36.124.218.071.329.1.214.063.32.09l.05.013.019.006.232.059c.1.023.2.046.3.067l.281.057c.092.017.184.033.276.048s.18.029.268.042l.216.027h.013l.027,0c.086.01.172.019.258.027s.157.015.235.021.157.01.234.015.155.008.232.01l.22.006h.222c.054,0,.109,0,.163,0h.063c.082,0,.163,0,.243-.008l.245-.013c.1-.006.207-.015.31-.025q.179-.016.358-.038c.065-.006.128-.027.191-.036.31-.042.618-.111.926-.178.191-.04.381-.059.572-.109.036-.01.071-.023.109-.031l-.01,3.711,4.064,2.347,4.332-2.519-.015,5.011,4.144,2.393a3.612,3.612,0,0,1,.467-.551l.017-.015a7.324,7.324,0,0,1,1.173-.884c.216-.136.442-.274.687-.419.115-.067.216-.132.337-.2l2.408-1.4-.015,5.009a2.279,2.279,0,0,0,.157.8c.029.082.075.163.113.245a3.286,3.286,0,0,0,.343.561c.065.088.132.174.207.262a5.77,5.77,0,0,0,.616.593c.075.065.136.128.218.191.025.021.042.04.067.061.2.151.419.3.653.452.149.1.306.191.469.285l.163.092c.184.1.371.2.557.3.161.08.32.155.482.226.1.044.193.084.289.124l.04.017.075.031c.126.05.251.1.379.147s.232.082.35.122.216.069.322.1.207.061.312.088l.08.021.023.006c.063.017.128.034.191.048.1.023.191.044.287.065s.182.038.274.057.178.031.266.046.176.027.264.04.163.023.247.031l.023,0,.008,0,.214.023.235.019c.073.006.149.011.224.015s.149.008.224.01.145,0,.218,0,.142,0,.216,0,.142,0,.216,0l.029,0h.011l.2-.006.245-.013c.094-.006.189-.015.283-.023.132-.01.262-.025.394-.04.075-.01.151-.033.226-.044.291-.042.58-.107.871-.17.182-.04.366-.057.551-.107.109-.027.216-.063.325-.094l0,0-.01,3.826,3.541,2.044,3.032-1.749-.01,3.495,3.411,1.968,3.03-1.29-.01,3.034,3.851,2.222,25.7-14.936.025-8.533Zm-47.238,2.808-.025-.025a9.962,9.962,0,0,0,1.217.821A10.226,10.226,0,0,1,206.814,330.386Zm-6.259-4.741h0l.015-.015h0Zm.607-.509Zm-24.07-11.915-.017-.015a10.391,10.391,0,0,0,1.223.825A10.462,10.462,0,0,1,177.092,313.221Zm7.155-10.947,1.9-1.106.988.572-2.892,1.679Zm17.709-.593a.758.758,0,0,1,.027.134A.758.758,0,0,0,201.956,301.681Zm20.249,10.185a3.407,3.407,0,0,1-.327.486,3.305,3.305,0,0,0,.327-.488ZM210.789,327.89v0Zm.8-1.055-.017.013Zm-1.862-7.088,0,0c-.031.034-.086.067-.119.1.046-.042.1-.086.144-.13Zm-1.016.842-.094.065c-.027.019-.065.04-.092.059.1-.069.2-.14.291-.209C208.774,320.531,208.749,320.559,208.709,320.588Zm2.45,6.615-.008.008Zm-.266.358,0,0Zm-5.616-10.74a.787.787,0,0,1,.036.155A.787.787,0,0,0,205.277,316.821Zm-.645-.731.027.019-.027-.019Zm.067.055c.027.021.044.044.071.065l-.048-.042Zm.341.312a1.227,1.227,0,0,1,.082.109l-.013-.01A1.051,1.051,0,0,0,205.041,316.456Zm11.377-5.987a.679.679,0,0,1,.027.126A.679.679,0,0,0,216.417,310.47Zm-.134-.253a.457.457,0,0,0-.034-.053c.019.023.036.048.052.071Zm-10.451-5.176-.029.021c.128-.1.209-.2.322-.3C206.021,304.854,205.947,304.948,205.832,305.04ZM181,310.671v0Zm.1-.339,0,0Zm40.527,2.383h0a6.686,6.686,0,0,1-.714.647A6.486,6.486,0,0,0,221.633,312.714Zm-.963.865h0a12.573,12.573,0,0,1-1.273.838A12.573,12.573,0,0,0,220.67,313.579Zm-4.619-3.616c-.036-.031-.063-.065-.1-.1C215.988,309.9,216.015,309.931,216.051,309.963Zm-8.636-6.814h0a.242.242,0,0,0-.023.04,2.645,2.645,0,0,0,.1-.4A2.514,2.514,0,0,1,207.415,303.149Zm-.381.605a3.911,3.911,0,0,1-.216.345l-.013.015-.019.017A3.884,3.884,0,0,0,207.034,303.754Zm-5.206-2.293-.006-.006a.77.77,0,0,0-.048-.078A.97.97,0,0,1,201.828,301.461Zm-.358-.375c.04.033.067.067.1.1C201.537,301.153,201.51,301.12,201.47,301.086ZM176.7,312.861c-.161-.149-.327-.3-.459-.444l-.027-.036A5.865,5.865,0,0,0,176.7,312.861Zm-1.064-1.378a3.271,3.271,0,0,0,.247.425,3.628,3.628,0,0,1-.205-.337C175.662,311.542,175.647,311.512,175.635,311.483Z" transform="translate(-160.049 -288.156)"/><g transform="translate(0 0.001)"><g class="c"><g transform="translate(32.785 6.206)"><path class="d" d="M179.4,291.12l-.024,8.535-3.666,2.13.024-8.535Z" transform="translate(-175.705 -291.12)"/></g><g transform="translate(26.1 4.477)"><path class="e" d="M179.222,294.154l-.024,8.535-6.685-3.859.024-8.535Z" transform="translate(-172.513 -290.295)"/></g><g transform="translate(18.941 4.477)"><path class="d" d="M176.278,290.295l-.024,8.535-7.159,4.16.024-8.535Z" transform="translate(-169.094 -290.295)"/></g><g transform="translate(15.262 10.776)"><path class="e" d="M172.6,296.328l-.024,8.535-5.241-3.026.024-8.535Z" transform="translate(-167.337 -293.302)"/></g><g transform="translate(20.502 11.663)"><path class="d" d="M173.543,293.726l-.024,8.535L169.84,304.4l.024-8.535Z" transform="translate(-169.84 -293.726)"/></g><g transform="translate(0 14.936)"><path class="e" d="M164.137,297.636l-.024,8.535-4.064-2.347.024-8.535Z" transform="translate(-160.049 -295.289)"/></g><g transform="translate(4.064 10.776)"><path class="d" d="M173.211,293.3l-.024,8.535-11.2,6.507.024-8.535Z" transform="translate(-161.99 -293.302)"/></g><g transform="translate(0.024)"><path class="f" d="M196.511,294.362l-3.666,2.13-6.685-3.859L179,296.794l5.241,3.026-3.679,2.138-5.241-3.026-11.2,6.507-4.064-2.347,25.7-14.936Z" transform="translate(-160.06 -288.156)"/></g></g><g class="c" transform="translate(15.324 8.845)"><g class="c" transform="translate(21.017 3.248)"><g class="g"><g class="c" transform="translate(0 -0.001)"><path class="h" d="M180.4,295.218l-.023,8.535a1.193,1.193,0,0,0-.572-.9l.023-8.533a1.174,1.174,0,0,1,.572.9" transform="translate(-174.776 -293.503)"/><path class="i" d="M179.948,294.405l-.023,8.533c-.071-.052-.147-.1-.228-.157l.025-8.535c.082.052.157.1.226.159" transform="translate(-174.895 -293.586)"/><path class="j" d="M179.839,294.316l-.025,8.535c-.052-.034-.107-.067-.165-.1l-.059-.034.025-8.535.059.033.165.1" transform="translate(-175.013 -293.656)"/><path class="k" d="M179.718,294.236l-.025,8.535c-.065-.036-.13-.071-.2-.1l.025-8.535c.065.031.132.067.2.1" transform="translate(-175.115 -293.71)"/><path class="l" d="M179.608,294.175l-.025,8.535c-.054-.029-.109-.054-.165-.08l.025-8.535c.054.025.111.052.165.08" transform="translate(-175.202 -293.752)"/><path class="m" d="M179.515,294.126l-.025,8.535-.14-.061.023-8.533c.048.019.094.038.142.059" transform="translate(-175.275 -293.782)"/><path class="n" d="M179.44,294.092l-.023,8.533-.128-.048.025-8.533c.042.015.084.031.126.048" transform="translate(-175.342 -293.807)"/><path class="o" d="M179.377,294.067l-.025,8.533-.119-.042.023-8.535.121.044" transform="translate(-175.404 -293.83)"/><path class="p" d="M179.311,294.039l-.023,8.535-.107-.034.025-8.533.1.031" transform="translate(-175.46 -293.847)"/><path class="q" d="M179.261,294.024l-.025,8.533-.1-.029.025-8.535.1.031" transform="translate(-175.515 -293.863)"/><path class="r" d="M179.206,294.005l-.025,8.535-.1-.023.025-8.535.1.023" transform="translate(-175.565 -293.875)"/><path class="s" d="M179.16,293.994l-.025,8.535-.1-.023.025-8.535.1.023" transform="translate(-175.615 -293.887)"/><path class="t" d="M179.111,293.98l-.025,8.535L179,302.5l.025-8.533.09.017" transform="translate(-175.662 -293.896)"/><path class="u" d="M179.067,293.972l-.025,8.533-.088-.015.023-8.535.09.017" transform="translate(-175.708 -293.905)"/><path class="v" d="M179.022,293.962,179,302.5l-.086-.013.023-8.535.086.013" transform="translate(-175.753 -293.911)"/><path class="w" d="M178.98,293.954l-.023,8.535-.084-.01.025-8.535.082.01" transform="translate(-175.797 -293.917)"/><path class="x" d="M178.941,293.948l-.025,8.535-.082-.01.023-8.533.084.008" transform="translate(-175.84 -293.921)"/><path class="y" d="M178.9,293.944l-.023,8.533-.077-.006.025-8.535.075.008" transform="translate(-175.88 -293.926)"/><path class="z" d="M178.862,293.938l-.025,8.535-.075,0,.025-8.535.075,0" transform="translate(-175.919 -293.928)"/><path class="aa" d="M178.825,293.935l-.025,8.535-.075,0,.025-8.533.075,0" transform="translate(-175.959 -293.929)"/><path class="ab" d="M178.788,293.934l-.025,8.533-.073,0,.023-8.533.075,0" transform="translate(-175.997 -293.93)"/><path class="ac" d="M178.751,293.933l-.023,8.533h-.073l.023-8.535c.025,0,.05,0,.073,0" transform="translate(-176.035 -293.931)"/><path class="ad" d="M178.716,293.931l-.023,8.535-.073,0,.023-8.535.073,0" transform="translate(-176.074 -293.931)"/><path class="d" d="M178.687,293.932l-.023,8.535-.084,0,.025-8.535.082,0" transform="translate(-176.117 -293.93)"/><path class="ae" d="M178.65,293.933l-.025,8.535-.086,0,.023-8.535.088,0" transform="translate(-176.162 -293.929)"/><path class="af" d="M178.608,293.935l-.023,8.535-.088.006.023-8.533.088-.008" transform="translate(-176.208 -293.927)"/><path class="ag" d="M178.6,293.939l-.023,8.533-.153.017.023-8.535c.052-.006.1-.01.153-.015" transform="translate(-176.288 -293.922)"/><path class="ah" d="M178.763,293.946l-.023,8.535a4.742,4.742,0,0,0-.605.119l.025-8.535a4.66,4.66,0,0,1,.6-.119" transform="translate(-176.604 -293.915)"/><path class="ag" d="M178.3,294l-.025,8.535c-.086.023-.172.048-.26.075l.023-8.533c.088-.029.176-.054.262-.078" transform="translate(-176.74 -293.852)"/><path class="af" d="M178.176,294.04l-.023,8.533c-.09.029-.18.063-.272.1l.025-8.535c.09-.033.182-.067.27-.094" transform="translate(-176.882 -293.812)"/><path class="ae" d="M178.066,294.085l-.025,8.535c-.1.04-.2.082-.306.128l.023-8.535c.1-.046.205-.088.308-.128" transform="translate(-177.042 -293.763)"/><path class="d" d="M177.936,294.146l-.023,8.535c-.113.05-.226.1-.341.163l.023-8.535c.115-.059.23-.113.341-.163" transform="translate(-177.22 -293.696)"/><path class="ad" d="M177.779,294.224l-.023,8.535c-.117.061-.232.124-.352.193l.025-8.535c.117-.069.234-.132.35-.193" transform="translate(-177.404 -293.611)"/></g></g></g><g class="c" transform="translate(29.027 5.188)"><g class="ai"><g class="c"><path class="l" d="M182.779,294.858l-.025,8.535v.052l.025-8.533v-.054" transform="translate(-179.561 -294.858)"/><path class="m" d="M182.786,294.884l-.025,8.533c0,.065-.006.13-.013.193l.023-8.535c.008-.063.013-.128.015-.19" transform="translate(-179.567 -294.83)"/><path class="n" d="M182.786,294.975l-.023,8.535c-.006.063-.017.124-.029.186l.025-8.535a1.826,1.826,0,0,0,.027-.186" transform="translate(-179.583 -294.73)"/><path class="o" d="M182.78,295.064l-.025,8.535c-.01.061-.025.119-.04.178l.023-8.533c.017-.061.031-.119.042-.18" transform="translate(-179.603 -294.633)"/><path class="p" d="M182.767,295.15l-.023,8.533c-.017.059-.033.117-.054.176l.025-8.533c.019-.059.038-.117.052-.176" transform="translate(-179.632 -294.539)"/><path class="q" d="M182.749,295.234l-.025,8.533c-.019.059-.042.117-.067.176l.025-8.535c.023-.059.046-.117.067-.174" transform="translate(-179.667 -294.447)"/><path class="r" d="M182.724,295.317l-.025,8.535c-.025.059-.05.115-.08.174l.023-8.535c.029-.057.057-.115.082-.174" transform="translate(-179.708 -294.356)"/><path class="s" d="M182.692,295.4l-.023,8.535c-.029.061-.061.119-.1.178l.025-8.535c.033-.059.065-.117.094-.178" transform="translate(-179.759 -294.265)"/><path class="t" d="M182.655,295.485l-.025,8.535c-.033.061-.071.121-.109.182l.023-8.535c.04-.061.077-.121.111-.182" transform="translate(-179.816 -294.172)"/><path class="u" d="M182.612,295.572l-.023,8.535-.13.186.023-8.535c.046-.063.09-.126.13-.186" transform="translate(-179.883 -294.077)"/><path class="v" d="M182.561,295.661l-.023,8.535c-.048.065-.1.13-.151.193l.023-8.533q.079-.1.151-.195" transform="translate(-179.962 -293.98)"/><path class="w" d="M182.5,295.754l-.023,8.533c-.057.069-.117.138-.178.205l.023-8.533c.063-.069.121-.138.178-.205" transform="translate(-180.055 -293.878)"/><path class="x" d="M182.433,295.852l-.023,8.533c-.065.073-.134.145-.207.216l.025-8.535c.071-.071.14-.142.205-.214" transform="translate(-180.163 -293.771)"/><path class="y" d="M182.359,295.954l-.025,8.535q-.119.119-.251.239l.023-8.535c.088-.08.174-.159.253-.239" transform="translate(-180.295 -293.659)"/><path class="z" d="M182.262,296.068l-.023,8.535c-.1.084-.195.17-.3.253l.023-8.535c.1-.084.205-.17.3-.253" transform="translate(-180.451 -293.534)"/><path class="aa" d="M182.155,296.189l-.023,8.535c-.117.094-.239.188-.366.281l.025-8.533q.192-.141.364-.283" transform="translate(-180.643 -293.402)"/><path class="ab" d="M182.037,296.324l-.025,8.533c-.149.111-.308.22-.473.331l.023-8.535c.168-.109.325-.22.475-.329" transform="translate(-180.89 -293.254)"/><path class="ac" d="M181.884,296.481l-.023,8.535c-.195.126-.4.253-.616.379l.023-8.533c.218-.128.421-.253.616-.381" transform="translate(-181.212 -293.082)"/><path class="ad" d="M181.286,296.663l-.023,8.533-.034.019.025-8.533.031-.019" transform="translate(-181.229 -292.883)"/></g></g></g><g transform="translate(6.991 4.054)"><path class="d" d="M184.756,294.316l-.024,8.535L170.706,311l.024-8.535Z" transform="translate(-170.706 -294.316)"/></g><g class="c" transform="translate(5.601 12.205)"><g class="aj"><g class="c" transform="translate(0.001 -0.001)"><path class="ad" d="M170.739,298.209l-.024,8.535-.017.01.024-8.535.017-.01" transform="translate(-169.326 -298.209)"/><path class="ac" d="M170.884,298.214l-.023,8.533c-.111.065-.216.13-.312.193l.025-8.535c.1-.063.2-.128.31-.191" transform="translate(-169.488 -298.203)"/><path class="ab" d="M170.691,298.305l-.025,8.535c-.08.052-.153.1-.224.155l.025-8.535c.069-.05.144-.1.224-.155" transform="translate(-169.605 -298.103)"/><path class="aa" d="M170.555,298.379l-.025,8.535c-.059.044-.115.086-.168.13l.023-8.535c.054-.042.109-.086.17-.13" transform="translate(-169.693 -298.023)"/><path class="z" d="M170.453,298.441l-.023,8.535c-.046.038-.09.073-.13.111l.023-8.535c.042-.036.084-.073.13-.111" transform="translate(-169.761 -297.955)"/><path class="y" d="M170.377,298.494l-.023,8.535a1.129,1.129,0,0,0-.1.1l.023-8.535c.034-.031.067-.065.1-.1" transform="translate(-169.814 -297.897)"/><path class="x" d="M170.319,298.54l-.023,8.535c-.031.029-.059.059-.086.088l.023-8.533c.027-.031.057-.061.086-.09" transform="translate(-169.859 -297.846)"/><path class="w" d="M170.269,298.583l-.023,8.533c-.025.027-.048.054-.069.08l.025-8.535c.021-.025.044-.052.067-.077" transform="translate(-169.895 -297.799)"/><path class="v" d="M170.233,298.62l-.025,8.535-.059.075.025-8.535.059-.075" transform="translate(-169.926 -297.759)"/><path class="u" d="M170.2,298.656l-.025,8.535-.048.069.025-8.533.048-.071" transform="translate(-169.951 -297.719)"/><path class="t" d="M170.173,298.69l-.025,8.533-.042.069.025-8.535.042-.067" transform="translate(-169.973 -297.682)"/><path class="s" d="M170.149,298.722l-.025,8.535-.034.063.023-8.535.036-.063" transform="translate(-169.99 -297.647)"/><path class="r" d="M170.128,298.752l-.023,8.535-.029.063.025-8.535.027-.063" transform="translate(-170.006 -297.614)"/><path class="q" d="M170.113,298.782l-.025,8.535-.023.063.023-8.535.025-.063" transform="translate(-170.018 -297.582)"/><path class="p" d="M170.1,298.812l-.023,8.535-.019.061.025-8.535.017-.061" transform="translate(-170.028 -297.549)"/><path class="o" d="M170.089,298.841l-.025,8.535-.015.061.025-8.533.015-.063" transform="translate(-170.035 -297.517)"/><path class="n" d="M170.079,298.871l-.025,8.533-.008.063.023-8.535.011-.061" transform="translate(-170.04 -297.484)"/><path class="m" d="M170.07,298.9l-.023,8.535,0,.067.023-8.535,0-.067" transform="translate(-170.042 -297.453)"/><path class="l" d="M170.067,298.932l-.024,8.535v.017l.024-8.535v-.017" transform="translate(-170.042 -297.418)"/></g></g></g><g transform="translate(15.519 8.986)"><path class="d" d="M188.311,296.672l-.024,8.535-13.508,7.85.024-8.535Z" transform="translate(-174.778 -296.672)"/></g><g class="c" transform="translate(0 13.497)"><g class="ak"><g class="c"><path class="ad" d="M175.162,300.42l-.025,8.535c-.228.134-.456.26-.687.377l.023-8.535c.23-.117.461-.243.689-.377" transform="translate(-159.618 -297.082)"/><path class="d" d="M174.852,300.6l-.023,8.535c-.241.124-.484.239-.724.348l.023-8.535c.243-.107.484-.224.725-.348" transform="translate(-159.997 -296.885)"/><path class="ae" d="M174.491,300.766l-.023,8.535q-.349.154-.7.289l.023-8.535c.235-.09.467-.184.7-.289" transform="translate(-160.361 -296.704)"/><path class="af" d="M174.14,300.9l-.023,8.535c-.22.084-.44.161-.662.232l.025-8.535q.33-.107.66-.232" transform="translate(-160.707 -296.553)"/><path class="ag" d="M173.837,301.015l-.025,8.535c-.226.073-.454.14-.683.2l.023-8.535q.342-.091.685-.2" transform="translate(-161.063 -296.431)"/><path class="ah" d="M174.034,301.111l-.023,8.535a12.558,12.558,0,0,1-1.688.325l.025-8.535a12.457,12.457,0,0,0,1.686-.325" transform="translate(-161.945 -296.326)"/><path class="ag" d="M172.535,301.266l-.025,8.535c-.119.013-.239.025-.358.036l.025-8.533q.179-.016.358-.038" transform="translate(-162.132 -296.157)"/><path class="af" d="M172.339,301.284l-.025,8.533c-.1.01-.207.019-.31.025l.023-8.535c.1-.006.207-.015.312-.023" transform="translate(-162.294 -296.137)"/><path class="ae" d="M172.155,301.3l-.023,8.535-.245.013.025-8.535c.082,0,.161-.006.243-.013" transform="translate(-162.422 -296.125)"/><path class="d" d="M172.039,301.3l-.025,8.535c-.08,0-.161.006-.243.008l.025-8.535c.082,0,.161,0,.243-.008" transform="translate(-162.549 -296.118)"/><path class="ad" d="M171.914,301.305l-.025,8.535c-.075,0-.151,0-.226,0l.025-8.535c.075,0,.151,0,.226,0" transform="translate(-162.667 -296.114)"/><path class="ac" d="M171.8,301.306l-.025,8.535h-.222l.025-8.535c.073,0,.147,0,.222,0" transform="translate(-162.783 -296.113)"/><path class="ab" d="M171.7,301.309l-.025,8.535-.22-.006.023-8.535.222.006" transform="translate(-162.898 -296.116)"/><path class="aa" d="M171.6,301.309l-.023,8.535c-.077,0-.155-.006-.232-.01l.025-8.535c.075,0,.153.008.23.01" transform="translate(-163.019 -296.122)"/><path class="z" d="M171.489,301.306l-.025,8.535c-.077,0-.155-.008-.235-.015l.025-8.535c.077.006.155.01.235.015" transform="translate(-163.142 -296.129)"/><path class="y" d="M171.377,301.3l-.025,8.535c-.077-.006-.157-.013-.235-.021l.023-8.535c.08.008.157.015.237.021" transform="translate(-163.265 -296.14)"/><path class="x" d="M171.275,301.3l-.023,8.535c-.086-.008-.172-.017-.258-.027l.025-8.535c.086.01.172.021.255.027" transform="translate(-163.399 -296.154)"/><path class="w" d="M171.153,301.284l-.025,8.535-.255-.031.025-8.535c.086.01.17.023.255.031" transform="translate(-163.533 -296.171)"/><path class="v" d="M171.037,301.275l-.025,8.535c-.088-.013-.178-.027-.268-.042l.025-8.535c.088.015.178.029.268.042" transform="translate(-163.673 -296.193)"/><path class="u" d="M170.914,301.258l-.025,8.535c-.092-.015-.184-.031-.276-.048l.025-8.535c.092.017.184.034.276.048" transform="translate(-163.817 -296.218)"/><path class="t" d="M170.784,301.24l-.025,8.535-.281-.057.023-8.535q.141.031.283.056" transform="translate(-163.964 -296.247)"/><path class="s" d="M170.655,301.218l-.023,8.535c-.1-.021-.2-.044-.3-.067l.023-8.535c.1.023.2.046.3.067" transform="translate(-164.118 -296.283)"/><path class="r" d="M170.518,301.19l-.023,8.535c-.1-.025-.2-.05-.3-.077l.025-8.533.3.075" transform="translate(-164.275 -296.322)"/><path class="q" d="M170.386,301.163l-.025,8.533c-.107-.027-.214-.059-.32-.09l.023-8.535c.109.031.216.063.322.092" transform="translate(-164.443 -296.37)"/><path class="p" d="M170.235,301.125l-.023,8.535c-.111-.033-.22-.067-.329-.1l.023-8.533c.109.036.22.069.329.1" transform="translate(-164.615 -296.424)"/><path class="o" d="M170.094,301.088l-.023,8.533c-.121-.04-.241-.08-.36-.124l.025-8.535q.179.066.358.126" transform="translate(-164.803 -296.489)"/><path class="n" d="M169.937,301.04l-.025,8.535c-.13-.048-.258-.1-.385-.149l.025-8.535c.128.052.255.1.385.149" transform="translate(-165.004 -296.567)"/><path class="m" d="M169.767,300.982l-.025,8.535c-.138-.057-.274-.113-.41-.174l.023-8.535c.136.061.274.119.413.174" transform="translate(-165.218 -296.658)"/><path class="l" d="M169.609,300.928l-.023,8.535c-.163-.073-.327-.151-.488-.23l.025-8.535c.161.082.323.157.486.23" transform="translate(-165.473 -296.778)"/><path class="k" d="M169.415,300.852l-.025,8.535c-.186-.092-.375-.193-.559-.3l.023-8.535c.186.1.373.2.561.3" transform="translate(-165.765 -296.932)"/><path class="j" d="M169.186,300.755l-.023,8.535L169,309.2c-.163-.094-.32-.189-.469-.285l.023-8.535c.151.1.308.191.471.287l.163.092" transform="translate(-166.097 -297.13)"/><path class="i" d="M168.9,300.616l-.023,8.535c-.239-.151-.461-.306-.664-.459l.025-8.535c.2.153.423.308.662.459" transform="translate(-166.444 -297.37)"/><path class="h" d="M169.16,301.613l-.025,8.535a3.675,3.675,0,0,1-1.767-2.789l.023-8.533a3.678,3.678,0,0,0,1.769,2.787" transform="translate(-167.367 -298.826)"/></g></g></g><g transform="translate(0.024)"><path class="f" d="M196.712,294.049c3.983,2.3,3.811,4.925-.306,7.319L182.9,309.215a12.211,12.211,0,0,1-12.618.195c-4-2.31-3.826-4.933.279-7.319l13.508-7.85A12.227,12.227,0,0,1,196.712,294.049ZM178.58,307.017l14.028-8.152c1.832-1.064,1.721-1.929.425-2.678a4.33,4.33,0,0,0-4.636.247l-14.028,8.152c-1.832,1.064-1.721,1.945-.423,2.693a4.327,4.327,0,0,0,4.634-.262" transform="translate(-167.378 -292.38)"/></g></g><g class="c" transform="translate(27.488 15.869)"><g transform="translate(26.1 4.477)"><path class="e" d="M187.509,298.938l-.024,8.535-1.845-1.065.024-8.535Z" transform="translate(-185.64 -297.873)"/></g><g class="c" transform="translate(27.945 5.543)"><g class="al"><g class="c"><path class="h" d="M187.294,299.373l-.025,8.535a1.136,1.136,0,0,0-.555-.865l.023-8.535a1.139,1.139,0,0,1,.557.865" transform="translate(-186.31 -298.244)"/><path class="i" d="M186.857,298.591l-.023,8.535c-.071-.052-.149-.107-.23-.159l.023-8.535c.084.052.161.107.23.159" transform="translate(-186.43 -298.327)"/><path class="j" d="M186.718,298.487l-.023,8.535c-.057-.036-.113-.071-.174-.1l.025-8.535c.059.036.117.069.172.1" transform="translate(-186.521 -298.382)"/></g></g></g><g transform="translate(18.755 4.477)"><path class="d" d="M189.5,297.873l-.024,8.535-7.345,4.269.024-8.535Z" transform="translate(-182.132 -297.873)"/></g><g class="c" transform="translate(31.838 6.984)"><g class="am"><g class="c"><path class="l" d="M189.839,299.07l-.025,8.535v.044l.025-8.535v-.044" transform="translate(-186.811 -299.07)"/><path class="m" d="M189.845,299.091l-.025,8.535c0,.052,0,.1-.01.157l.023-8.535q.009-.078.013-.157" transform="translate(-186.817 -299.047)"/><path class="n" d="M189.844,299.166l-.023,8.535c-.006.052-.015.1-.023.157l.023-8.535a1.36,1.36,0,0,0,.023-.157" transform="translate(-186.829 -298.965)"/><path class="o" d="M189.839,299.241l-.023,8.535c-.01.048-.021.1-.034.144l.023-8.533c.013-.05.025-.1.034-.147" transform="translate(-186.846 -298.883)"/><path class="p" d="M189.829,299.311l-.023,8.533c-.015.05-.029.1-.046.147l.025-8.535q.025-.072.044-.144" transform="translate(-186.87 -298.806)"/><path class="q" d="M189.814,299.38l-.025,8.535c-.017.048-.033.1-.054.145l.023-8.533c.021-.05.04-.1.057-.147" transform="translate(-186.899 -298.731)"/><path class="r" d="M189.792,299.45l-.023,8.533c-.021.048-.042.1-.067.144l.025-8.533c.023-.048.046-.1.065-.144" transform="translate(-186.934 -298.654)"/><path class="s" d="M189.769,299.519l-.025,8.533c-.025.05-.05.1-.08.149l.025-8.533c.027-.05.054-.1.08-.149" transform="translate(-186.975 -298.579)"/><path class="t" d="M189.738,299.59l-.025,8.533c-.029.052-.061.1-.094.153l.025-8.535q.05-.075.094-.151" transform="translate(-187.025 -298.501)"/><path class="u" d="M189.7,299.662l-.025,8.535q-.05.078-.107.157l.023-8.535c.038-.052.075-.1.109-.157" transform="translate(-187.08 -298.422)"/><path class="v" d="M189.66,299.737l-.023,8.535q-.063.085-.132.17l.023-8.535q.069-.085.132-.17" transform="translate(-187.149 -298.34)"/><path class="w" d="M189.607,299.818l-.023,8.535c-.048.056-.1.115-.151.174l.023-8.535c.052-.059.1-.115.151-.174" transform="translate(-187.228 -298.252)"/><path class="x" d="M189.555,299.9l-.023,8.535c-.061.065-.121.13-.188.195l.025-8.535c.065-.065.128-.13.186-.195" transform="translate(-187.327 -298.161)"/><path class="y" d="M189.485,299.994l-.025,8.535c-.071.071-.147.14-.224.211l.023-8.535c.08-.071.155-.14.226-.211" transform="translate(-187.444 -298.059)"/><path class="z" d="M189.4,300.1l-.023,8.535c-.086.078-.176.153-.272.23l.025-8.535c.094-.075.184-.153.27-.23" transform="translate(-187.586 -297.949)"/><path class="aa" d="M189.32,300.205l-.025,8.535c-.113.094-.235.186-.362.279l.025-8.533c.128-.094.247-.186.362-.281" transform="translate(-187.775 -297.828)"/><path class="ab" d="M189.205,300.339l-.025,8.533c-.149.109-.306.22-.473.329l.025-8.535c.165-.109.325-.218.473-.327" transform="translate(-188.022 -297.682)"/><path class="ac" d="M189.071,300.495l-.025,8.535c-.2.134-.421.268-.649.4l.023-8.535c.23-.134.446-.268.651-.4" transform="translate(-188.361 -297.511)"/><path class="ad" d="M188.439,300.687l-.023,8.535-.036.021.023-8.535.036-.021" transform="translate(-188.38 -297.301)"/></g></g></g><g transform="translate(30.256 10.39)"><path class="d" d="M189.23,300.7l-.024,8.535-1.581.919.024-8.535Z" transform="translate(-187.625 -300.697)"/></g><g transform="translate(15.089 10.877)"><path class="e" d="M181.81,301.74l-.024,8.535-1.4-.81.024-8.535Z" transform="translate(-180.381 -300.929)"/></g><g transform="translate(22.455 12.714)"><path class="d" d="M184,301.806l-.024,8.535-.08.046.024-8.535Z" transform="translate(-183.899 -301.806)"/></g><g class="c" transform="translate(16.493 11.687)"><g class="an"><g class="c"><path class="h" d="M182.049,302.518l-.025,8.535a1.357,1.357,0,0,0-.676-1.009l.025-8.535a1.366,1.366,0,0,1,.676,1.009" transform="translate(-180.729 -301.105)"/><path class="i" d="M181.548,301.632l-.025,8.535c-.1-.077-.214-.155-.337-.235l.023-8.535c.124.079.237.157.339.234" transform="translate(-180.905 -301.227)"/><path class="j" d="M181.356,301.486l-.023,8.535c-.088-.056-.182-.113-.281-.17l.023-8.535c.1.056.193.113.281.17" transform="translate(-181.052 -301.316)"/></g></g></g><g class="c" transform="translate(22.534 11.31)"><g class="ao"><g class="c"><path class="ad" d="M188.015,301.136l-.023,8.533c-.235.136-.469.264-.7.385l.025-8.535c.232-.119.465-.247.7-.383" transform="translate(-180.269 -301.136)"/><path class="d" d="M187.676,301.319l-.025,8.535c-.23.117-.463.228-.691.331l.023-8.535c.23-.1.461-.212.693-.331" transform="translate(-180.63 -300.936)"/><path class="ae" d="M187.313,301.477l-.023,8.535c-.212.094-.423.182-.632.262l.025-8.535c.209-.08.419-.167.63-.262" transform="translate(-180.96 -300.763)"/><path class="af" d="M186.976,301.6l-.025,8.535c-.186.071-.375.138-.561.2l.023-8.535c.188-.061.375-.128.563-.2" transform="translate(-181.253 -300.626)"/><path class="ag" d="M186.7,301.7l-.023,8.535c-.184.059-.366.113-.549.161l.025-8.535c.182-.048.364-.1.547-.161" transform="translate(-181.54 -300.522)"/><path class="ah" d="M186.854,301.774l-.025,8.535a9.548,9.548,0,0,1-1.342.26l.025-8.533a9.9,9.9,0,0,0,1.342-.262" transform="translate(-182.241 -300.438)"/><path class="ag" d="M185.671,301.9l-.025,8.533c-.1.013-.2.023-.3.033l.023-8.535c.1-.008.2-.019.306-.031" transform="translate(-182.4 -300.301)"/><path class="af" d="M185.483,301.914l-.023,8.535c-.075.006-.151.013-.226.017l.025-8.535c.075,0,.149-.01.224-.017" transform="translate(-182.518 -300.285)"/><path class="ae" d="M185.358,301.922l-.025,8.535-.188.01.023-8.535c.063,0,.128-.006.191-.011" transform="translate(-182.617 -300.276)"/><path class="d" d="M185.261,301.927l-.023,8.535c-.061,0-.119,0-.18,0l.023-8.533.18-.006" transform="translate(-182.711 -300.271)"/><path class="ad" d="M185.171,301.93l-.023,8.533-.172,0,.023-8.535.172,0" transform="translate(-182.8 -300.267)"/><path class="ac" d="M185.087,301.932l-.023,8.535-.168,0,.023-8.535c.057,0,.113,0,.167,0" transform="translate(-182.888 -300.267)"/><path class="ab" d="M185.008,301.932l-.023,8.535c-.056,0-.113,0-.17,0l.023-8.535c.057,0,.113,0,.17,0" transform="translate(-182.976 -300.27)"/><path class="aa" d="M184.929,301.932l-.023,8.535c-.059,0-.117,0-.174-.008l.023-8.535c.059,0,.115.006.174.008" transform="translate(-183.067 -300.274)"/><path class="z" d="M184.847,301.93l-.023,8.535c-.059,0-.117-.006-.176-.01l.023-8.535c.059,0,.117.008.176.01" transform="translate(-183.159 -300.279)"/><path class="y" d="M184.77,301.928l-.023,8.535c-.063,0-.126-.01-.188-.017l.025-8.535c.061.006.124.013.186.017" transform="translate(-183.258 -300.288)"/><path class="x" d="M184.683,301.921l-.025,8.535-.191-.019.025-8.535c.063.006.126.015.191.019" transform="translate(-183.357 -300.298)"/><path class="w" d="M184.6,301.916l-.025,8.535c-.067-.008-.134-.017-.2-.027l.023-8.535c.067.01.136.019.2.027" transform="translate(-183.462 -300.312)"/><path class="v" d="M184.5,301.9l-.023,8.535q-.1-.013-.207-.031l.025-8.533c.067.01.136.021.205.029" transform="translate(-183.57 -300.327)"/><path class="u" d="M184.41,301.9l-.025,8.533c-.071-.01-.144-.023-.216-.038l.023-8.535c.073.015.144.027.218.04" transform="translate(-183.683 -300.348)"/><path class="t" d="M184.309,301.879l-.023,8.535-.224-.044.023-8.535c.075.015.149.031.224.044" transform="translate(-183.8 -300.371)"/><path class="s" d="M184.206,301.862l-.023,8.535-.232-.052.025-8.535c.075.019.153.036.23.052" transform="translate(-183.922 -300.399)"/><path class="r" d="M183.991,301.814l-.025,8.535-.029-.008.025-8.535.029.008" transform="translate(-183.937 -300.403)"/></g></g></g><g transform="translate(4.064 10.877)"><path class="d" d="M186.165,300.929l-.024,8.535-11.025,6.407.024-8.535Z" transform="translate(-175.117 -300.929)"/></g><g transform="translate(0 14.937)"><path class="e" d="M177.264,305.215l-.024,8.535-4.064-2.346.024-8.535Z" transform="translate(-173.176 -302.868)"/></g><g class="c" transform="translate(19.724 14.055)"><g class="ap"><g class="c"><path class="l" d="M184.2,302.447l-.023,8.533v.036l.023-8.535v-.034" transform="translate(-180.863 -302.447)"/><path class="m" d="M184.207,302.463,184.183,311c0,.042,0,.084-.01.126l.025-8.533c0-.044.008-.086.008-.128" transform="translate(-180.869 -302.429)"/><path class="n" d="M184.207,302.524l-.025,8.533c0,.042-.01.082-.017.124l.023-8.535a1.218,1.218,0,0,0,.019-.121" transform="translate(-180.877 -302.363)"/><path class="o" d="M184.2,302.582l-.023,8.535c-.008.04-.017.08-.029.119l.025-8.533c.01-.042.021-.082.027-.121" transform="translate(-180.893 -302.299)"/><path class="p" d="M184.195,302.64l-.025,8.533c-.01.04-.023.08-.036.119l.023-8.533q.022-.06.038-.119" transform="translate(-180.911 -302.236)"/><path class="q" d="M184.181,302.7l-.023,8.533c-.015.042-.029.082-.046.121l.023-8.533c.017-.042.034-.082.046-.121" transform="translate(-180.935 -302.174)"/><path class="r" d="M184.165,302.755l-.023,8.533c-.019.042-.036.082-.057.124l.023-8.535c.021-.04.04-.082.057-.121" transform="translate(-180.965 -302.11)"/><path class="s" d="M184.144,302.813l-.023,8.535c-.021.044-.044.086-.069.13l.023-8.535c.025-.044.048-.086.069-.13" transform="translate(-181.001 -302.047)"/><path class="t" d="M184.118,302.875l-.023,8.535q-.038.066-.082.132l.023-8.535q.044-.066.082-.132" transform="translate(-181.044 -301.979)"/><path class="u" d="M184.089,302.938l-.023,8.535q-.047.072-.1.144l.025-8.535c.036-.048.067-.1.1-.145" transform="translate(-181.096 -301.91)"/><path class="v" d="M184.053,303.007l-.025,8.535c-.038.05-.077.1-.119.153l.023-8.533c.044-.052.084-.1.121-.155" transform="translate(-181.159 -301.834)"/><path class="w" d="M184.005,303.081l-.023,8.533c-.046.057-.092.111-.142.165l.023-8.533c.05-.057.1-.111.142-.165" transform="translate(-181.233 -301.753)"/><path class="x" d="M183.957,303.16l-.023,8.533c-.057.063-.117.126-.18.188l.023-8.535c.063-.063.124-.126.18-.186" transform="translate(-181.327 -301.667)"/><path class="y" d="M183.9,303.249l-.023,8.535c-.073.071-.149.142-.228.214l.025-8.535q.119-.107.226-.214" transform="translate(-181.446 -301.57)"/><path class="z" d="M183.823,303.351l-.025,8.535c-.092.084-.191.167-.293.251l.023-8.535c.1-.084.2-.168.3-.251" transform="translate(-181.599 -301.458)"/><path class="aa" d="M183.735,303.471l-.023,8.535c-.126.1-.258.2-.4.3l.023-8.535c.14-.1.272-.2.4-.3" transform="translate(-181.806 -301.327)"/><path class="ab" d="M183.638,303.616l-.023,8.535c-.18.132-.371.262-.572.4l.025-8.535c.2-.132.392-.264.57-.4" transform="translate(-182.105 -301.168)"/><path class="ac" d="M183.531,303.8l-.025,8.535q-.411.27-.886.547l.025-8.535c.314-.184.611-.367.886-.547" transform="translate(-182.568 -300.961)"/><path class="ad" d="M182.673,304.066l-.025,8.535-.052.031.023-8.535.054-.031" transform="translate(-182.595 -300.676)"/></g></g></g><g transform="translate(15.207 17.476)"><path class="d" d="M184.978,304.081l-.024,8.535-4.516,2.624.024-8.535Z" transform="translate(-180.438 -304.081)"/></g><g transform="translate(0.024)"><path class="f" d="M188.4,315.835a7.814,7.814,0,0,0-2.68,2.069l-4.146-2.393a8.775,8.775,0,0,1,2.8-2.044l4.7-2.733c2.391-1.39,2.454-2.247.607-3.313l-1.4-.81-11.025,6.408-4.064-2.347,25.7-14.937,6.016,3.474c4.213,2.431,4.077,4.615.119,6.916l-1.581.919a10.153,10.153,0,0,1-7.721,1.4l-.08.048c1.407,1.535.176,3.026-2.733,4.716Zm10.173-10.667,1.993-1.158c1.832-1.066,2.014-1.9.572-2.733l-1.845-1.066-7.346,4.27,1.47.848a4.685,4.685,0,0,0,5.155-.161" transform="translate(-173.187 -295.735)"/></g><g transform="translate(8.383 19.776)"><path class="e" d="M181.348,307.572l-.024,8.535-4.145-2.393.024-8.535Z" transform="translate(-177.179 -305.179)"/></g><g class="c" transform="translate(12.527 20.1)"><g class="aq"><g class="c"><path class="ad" d="M180.562,305.334l-.025,8.535-.188.109.025-8.533.188-.111" transform="translate(-177.856 -305.334)"/><path class="ac" d="M180.9,305.387l-.025,8.533c-.371.218-.708.421-1.014.62l.025-8.535c.3-.2.641-.4,1.014-.618" transform="translate(-178.386 -305.276)"/><path class="ab" d="M180.1,305.682l-.025,8.535c-.14.092-.274.184-.4.279l.023-8.535c.128-.092.262-.184.4-.279" transform="translate(-178.595 -304.953)"/><path class="aa" d="M179.836,305.815l-.023,8.535c-.094.067-.182.136-.268.205l.025-8.535c.084-.069.174-.138.266-.205" transform="translate(-178.735 -304.808)"/><path class="z" d="M179.675,305.913l-.025,8.535c-.069.056-.136.113-.2.172l.023-8.535c.065-.057.132-.115.2-.172" transform="translate(-178.84 -304.701)"/><path class="y" d="M179.558,306l-.023,8.535c-.059.052-.113.1-.165.157l.023-8.535c.054-.052.109-.1.165-.157" transform="translate(-178.926 -304.611)"/><path class="x" d="M179.467,306.07l-.023,8.535c-.05.048-.1.1-.142.147l.025-8.535c.046-.05.092-.1.14-.147" transform="translate(-179 -304.529)"/><path class="w" d="M179.392,306.14l-.025,8.535c-.042.046-.084.094-.124.144l.025-8.535c.04-.05.08-.1.124-.145" transform="translate(-179.065 -304.452)"/><path class="v" d="M179.326,306.209l-.025,8.535c-.038.046-.075.094-.111.142l.023-8.533q.053-.075.113-.145" transform="translate(-179.123 -304.377)"/><path class="u" d="M179.248,306.278l-.023,8.533-.067.094.025-8.535.065-.092" transform="translate(-179.158 -304.301)"/></g></g></g></g><g class="c" transform="translate(45.088 24.384)"><g transform="translate(7.015 2.347)"><path class="d" d="M204.852,300.922l-.024,8.535-19.9,11.563.024-8.535Z" transform="translate(-184.931 -300.922)"/></g><g class="c" transform="translate(5.624 13.91)"><g class="ar"><g class="c" transform="translate(-0.001 -0.001)"><path class="ad" d="M184.964,306.444l-.024,8.535-.018.011.024-8.535.018-.01" transform="translate(-183.549 -306.444)"/><path class="ac" d="M185.116,306.449l-.025,8.533c-.115.069-.222.134-.322.2l.025-8.535c.1-.067.207-.132.323-.2" transform="translate(-183.718 -306.438)"/><path class="ab" d="M184.912,306.544l-.025,8.535c-.08.052-.157.1-.228.157l.025-8.535c.071-.052.147-.1.228-.157" transform="translate(-183.837 -306.334)"/><path class="aa" d="M184.773,306.619l-.025,8.535-.17.13.025-8.535c.052-.042.109-.086.17-.13" transform="translate(-183.926 -306.252)"/><path class="z" d="M184.672,306.681l-.025,8.535q-.069.057-.132.113l.025-8.535q.063-.056.132-.113" transform="translate(-183.995 -306.184)"/><path class="y" d="M184.592,306.735l-.025,8.535-.1.092.025-8.533c.031-.031.063-.063.1-.094" transform="translate(-184.046 -306.125)"/><path class="x" d="M184.537,306.78l-.025,8.533c-.029.029-.057.059-.084.088l.025-8.535c.025-.029.054-.057.084-.086" transform="translate(-184.09 -306.076)"/><path class="w" d="M184.488,306.821l-.025,8.535c-.023.025-.046.052-.067.077l.023-8.535.069-.078" transform="translate(-184.125 -306.031)"/><path class="v" d="M184.449,306.858l-.023,8.535-.057.073.025-8.535.054-.073" transform="translate(-184.155 -305.99)"/><path class="u" d="M184.419,306.893l-.025,8.535-.048.067.025-8.535.048-.067" transform="translate(-184.18 -305.952)"/><path class="t" d="M184.391,306.925l-.025,8.535-.038.065.023-8.535.04-.065" transform="translate(-184.199 -305.917)"/><path class="s" d="M184.369,306.956l-.023,8.535-.034.061.023-8.535.034-.061" transform="translate(-184.217 -305.883)"/><path class="r" d="M184.349,306.985l-.023,8.535-.027.061.023-8.535.027-.061" transform="translate(-184.231 -305.852)"/><path class="q" d="M184.334,307.014l-.023,8.535-.023.059.025-8.535.021-.059" transform="translate(-184.243 -305.82)"/><path class="p" d="M184.323,307.042l-.025,8.535-.019.059.025-8.535.019-.059" transform="translate(-184.253 -305.789)"/><path class="o" d="M184.311,307.07l-.025,8.535-.013.059.025-8.535.013-.059" transform="translate(-184.26 -305.759)"/><path class="n" d="M184.3,307.1l-.025,8.535-.008.059.023-8.535.01-.059" transform="translate(-184.264 -305.728)"/><path class="m" d="M184.294,307.126l-.023,8.535,0,.063.023-8.535,0-.063" transform="translate(-184.266 -305.697)"/><path class="l" d="M184.291,307.156l-.024,8.535v.016l.024-8.535v-.016" transform="translate(-184.267 -305.664)"/></g></g></g><g transform="translate(15.355 6.993)"><path class="d" d="M208.543,303.141l-.024,8.535-19.605,11.393.024-8.535Z" transform="translate(-188.914 -303.141)"/></g><g transform="translate(0.024)"><path class="f" d="M216.553,306.795l-19.6,11.393a12.024,12.024,0,0,1-12.512.253c-4-2.307-3.706-4.862.4-7.247L204.441,299.8l4.065,2.347-19.9,11.563c-1.832,1.064-1.721,1.9-.438,2.638a4.218,4.218,0,0,0,4.569-.253l19.9-11.563Z" transform="translate(-181.593 -299.801)"/></g><g class="c" transform="translate(0 15.196)"><g class="as"><g class="c" transform="translate(0)"><path class="ad" d="M189.314,308.582l-.025,8.533c-.239.14-.477.27-.718.394l.023-8.533c.241-.124.482-.255.72-.394" transform="translate(-173.934 -305.391)"/><path class="d" d="M188.986,308.77l-.023,8.533c-.249.128-.5.247-.75.36l.025-8.535c.249-.111.5-.23.748-.358" transform="translate(-174.326 -305.185)"/><path class="ae" d="M188.609,308.941l-.025,8.535c-.235.1-.473.2-.71.293l.023-8.533c.239-.092.475-.191.712-.3" transform="translate(-174.696 -304.998)"/><path class="af" d="M188.246,309.082l-.023,8.533c-.222.086-.444.163-.668.237l.025-8.535c.222-.073.444-.151.666-.234" transform="translate(-175.045 -304.844)"/><path class="ag" d="M187.936,309.194l-.025,8.535c-.226.073-.454.14-.681.2l.023-8.533c.228-.061.454-.128.683-.2" transform="translate(-175.401 -304.721)"/><path class="ah" d="M188.114,309.29l-.023,8.533a12.368,12.368,0,0,1-1.648.32l.023-8.535a12.228,12.228,0,0,0,1.648-.318" transform="translate(-176.262 -304.616)"/><path class="ag" d="M186.672,309.442l-.023,8.535c-.132.015-.262.029-.394.04l.025-8.533c.13-.013.262-.025.392-.042" transform="translate(-176.468 -304.45)"/><path class="af" d="M186.428,309.462,186.4,318c-.094.008-.188.017-.283.023l.025-8.535c.094-.006.188-.013.283-.021" transform="translate(-176.615 -304.428)"/><path class="ae" d="M186.273,309.472l-.025,8.535-.245.013.025-8.535c.082,0,.163-.008.245-.013" transform="translate(-176.743 -304.417)"/><path class="d" d="M186.153,309.478l-.025,8.535c-.08,0-.159.006-.239.008l.023-8.535c.08,0,.161,0,.241-.008" transform="translate(-176.868 -304.411)"/><path class="ad" d="M186.025,309.482,186,318.017c-.073,0-.145,0-.216,0l.023-8.535c.071,0,.144,0,.216,0" transform="translate(-176.981 -304.406)"/><path class="ac" d="M185.922,309.483l-.023,8.535c-.073,0-.145,0-.216,0l.023-8.533h.216" transform="translate(-177.093 -304.405)"/><path class="ab" d="M185.82,309.486l-.023,8.533c-.073,0-.144,0-.218,0l.025-8.535.216.006" transform="translate(-177.207 -304.408)"/><path class="aa" d="M185.721,309.485l-.025,8.535c-.075,0-.151-.006-.224-.01l.023-8.535c.075,0,.151.008.226.01" transform="translate(-177.324 -304.414)"/><path class="z" d="M185.612,309.483l-.023,8.535c-.075,0-.151-.008-.224-.015l.023-8.535c.075.006.151.01.224.015" transform="translate(-177.441 -304.421)"/><path class="y" d="M185.511,309.478l-.023,8.535-.235-.019.025-8.535c.077.006.155.015.232.019" transform="translate(-177.564 -304.431)"/><path class="x" d="M185.406,309.473l-.025,8.535c-.082-.008-.163-.017-.245-.027l.023-8.535c.082.01.165.019.247.027" transform="translate(-177.692 -304.446)"/><path class="w" d="M185.288,309.462,185.265,318c-.084-.008-.165-.019-.247-.031l.025-8.535q.122.019.245.031" transform="translate(-177.821 -304.462)"/><path class="v" d="M185.181,309.452l-.025,8.535c-.088-.013-.176-.025-.264-.04l.025-8.535c.088.015.176.027.264.04" transform="translate(-177.959 -304.483)"/><path class="u" d="M185.056,309.436l-.025,8.535c-.088-.015-.176-.029-.266-.046l.025-8.535c.088.017.178.031.266.046" transform="translate(-178.098 -304.507)"/><path class="t" d="M184.933,309.42l-.025,8.535c-.092-.019-.184-.036-.274-.057l.023-8.535q.138.031.276.057" transform="translate(-178.241 -304.536)"/><path class="s" d="M184.807,309.4l-.023,8.535c-.1-.021-.191-.042-.287-.065l.025-8.535c.094.023.191.046.285.065" transform="translate(-178.391 -304.57)"/><path class="r" d="M184.675,309.37l-.025,8.535c-.1-.023-.195-.048-.293-.073l.025-8.535c.1.025.195.05.293.073" transform="translate(-178.544 -304.609)"/><path class="q" d="M184.545,309.344l-.025,8.535c-.1-.029-.207-.059-.312-.09l.025-8.535c.1.031.207.061.312.09" transform="translate(-178.707 -304.656)"/><path class="p" d="M184.4,309.306l-.025,8.535c-.107-.031-.216-.065-.322-.1l.025-8.535c.107.036.214.069.323.1" transform="translate(-178.876 -304.708)"/><path class="o" d="M184.262,309.269l-.025,8.535c-.117-.04-.235-.08-.35-.122l.023-8.535c.117.042.235.084.352.121" transform="translate(-179.058 -304.772)"/><path class="n" d="M184.108,309.225l-.023,8.535c-.128-.046-.253-.1-.379-.147l.025-8.535c.126.052.251.1.377.147" transform="translate(-179.256 -304.848)"/><path class="m" d="M183.942,309.168l-.025,8.535c-.136-.054-.27-.111-.4-.172l.023-8.535c.134.061.27.117.406.172" transform="translate(-179.467 -304.938)"/><path class="l" d="M183.788,309.114l-.023,8.535c-.161-.071-.32-.146-.482-.226l.025-8.535c.159.08.32.155.48.226" transform="translate(-179.719 -305.056)"/><path class="k" d="M183.6,309.041l-.025,8.535c-.186-.092-.373-.191-.557-.3l.025-8.533c.184.1.371.2.557.293" transform="translate(-180.01 -305.209)"/><path class="j" d="M183.373,308.945l-.025,8.533-.163-.092c-.163-.094-.32-.189-.469-.285l.025-8.533c.149.094.3.188.469.283l.163.094" transform="translate(-180.34 -305.406)"/><path class="i" d="M183.081,308.805l-.025,8.533c-.235-.149-.454-.3-.653-.452l.023-8.535c.2.151.419.3.655.454" transform="translate(-180.682 -305.644)"/><path class="h" d="M183.325,309.766,183.3,318.3a3.56,3.56,0,0,1-1.721-2.707l.023-8.535a3.566,3.566,0,0,0,1.721,2.708" transform="translate(-181.581 -307.058)"/></g></g></g></g><g class="c" transform="translate(57.235 33.044)"><g transform="translate(3.543 5.712)"><path class="d" d="M208.624,306.665,208.6,315.2l-19.526,11.27.024-8.535Z" transform="translate(-189.074 -306.665)"/></g><g transform="translate(15.688 3.342)"><path class="ac" d="M210.7,305.533l-.024,8.535-15.8,12.188.024-8.535Z" transform="translate(-194.874 -305.533)"/></g><g transform="translate(0 14.936)"><path class="e" d="M190.949,313.115l-.024,8.535-3.543-2.046.024-8.535Z" transform="translate(-187.382 -311.07)"/></g><g transform="translate(6.564 18.726)"><path class="e" d="M193.95,314.848l-.024,8.535-3.409-1.968.024-8.535Z" transform="translate(-190.516 -312.88)"/></g><g transform="translate(9.974 11.131)"><path class="ae" d="M214.649,309.252l-.024,8.535-22.48,9.564.024-8.535Z" transform="translate(-192.145 -309.252)"/></g><g transform="translate(0.024)"><path class="f" d="M229.94,313.663l-25.7,14.936-3.85-2.223,19.459-11.308-22.48,9.564-3.409-1.968,16.5-13.014-19.526,11.27-3.543-2.046,25.7-14.936,5.789,3.342-15.8,12.188,21.057-9.155Z" transform="translate(-187.393 -303.937)"/></g><g transform="translate(12.995 22.439)"><path class="e" d="M197.462,316.876l-.024,8.535-3.85-2.223.024-8.535Z" transform="translate(-193.587 -314.653)"/></g><g transform="translate(16.846 9.726)"><path class="d" d="M221.152,308.582l-.024,8.535-25.7,14.936.024-8.535Z" transform="translate(-195.426 -308.582)"/></g></g></g></g></svg>