<svg xmlns="http://www.w3.org/2000/svg" xmlns:xlink="http://www.w3.org/1999/xlink" width="98.935" height="62.357" viewBox="0 0 98.935 62.357"><defs><style>.a,.b{fill:none;}.b{stroke:#831412;stroke-linejoin:round;stroke-width:2px;}.c{isolation:isolate;}.d{fill:#fff;}.e{fill:#ab2322;}.f{fill:#831412;}.g{clip-path:url(#a);}.h{fill:#811310;}.i{fill:#841512;}.j{fill:#871614;}.k{fill:#8b1815;}.l{fill:#8e1917;}.m{fill:#921a19;}.n{fill:#951c1a;}.o{fill:#991d1b;}.p{fill:#9c1e1d;}.q{fill:#a01f1e;}.r{clip-path:url(#b);}.s{clip-path:url(#c);}.t{clip-path:url(#d);}</style><clipPath id="a"><path class="a" d="M-396.77,156.29l.1-7.813c0-.44.369-.84,1-1.206a4.436,4.436,0,0,1,4.8.32l-.1,7.811a4.44,4.44,0,0,0-4.8-.32C-396.4,155.45-396.764,155.85-396.77,156.29Z" transform="translate(396.77 -146.712)"/></clipPath><clipPath id="b"><path class="a" d="M-399.538,155.443l.1-7.813c-.017,1.355,1.093,2.735,3.294,4.058l-.1,7.813C-398.445,158.177-399.555,156.8-399.538,155.443Z" transform="translate(399.538 -147.63)"/></clipPath><clipPath id="c"><path class="a" d="M-385.613,152.888l-.1,7.813c.006-.49-.431-1.032-1.436-1.637l.1-7.811C-386.045,151.856-385.607,152.4-385.613,152.888Z" transform="translate(387.146 -151.253)"/></clipPath><clipPath id="d"><path class="a" d="M-375.2,151.96l-.1,7.811c-.017,1.258-1,2.494-2.986,3.639a12.477,12.477,0,0,1-13.075-.331l.1-7.813a12.468,12.468,0,0,0,13.075.331C-376.207,154.452-375.221,153.219-375.2,151.96Z" transform="translate(391.361 -151.96)"/></clipPath></defs><g transform="translate(1 0.999)"><path class="b" d="M-343.222,172.619l.09-7.293,6.146,3.694,11.467-6.621.038-3.032,2.555,1.537,11.128-6.426.1-7.811-3.8-2.287-6.929,4-22.783-13.7-4.2,2.423-.038,3.034-2.555-1.537-11.467,6.621-.027,2.148-1.809-1.089-13,7.5-.036,2.842a12.088,12.088,0,0,0-8.144,1.518c-2.029,1.173-3,2.435-2.984,3.721,0-.023-.015-.048-.015-.071l-.065,5.241-5.735-3.449-4.274,2.469-.069,5.6-4.716-2.835-4.2,2.423-.1,7.813,26.585,15.986,4.2-2.425.069-5.6,4.714,2.835,4.276-2.469.048-3.815c.232.063.465.126.7.174.132.029.264.046.394.069.067.013.132.025.2.036s.151.027.226.038c.249.036.5.063.745.082.182.015.362.021.545.027l.1,0,.088,0c.253,0,.507,0,.758-.01s.484-.033.725-.059l.08-.006.044,0q.55-.066,1.093-.182c.073-.015.144-.048.216-.065a12.125,12.125,0,0,0,1.183-.354c.191-.065.381-.115.57-.191a13.1,13.1,0,0,0,1.707-.819,10.308,10.308,0,0,0,1.361-.934c.021-.017.052-.034.073-.05a6.156,6.156,0,0,0,.735-.718c.013-.017.021-.033.034-.048.027-.031.044-.063.069-.094a4.442,4.442,0,0,0,.289-.4,3.175,3.175,0,0,0,.228-.454l0,0v0a2.969,2.969,0,0,0,.134-.421,2.47,2.47,0,0,0,.057-.425l0-.09.1-7.811a2.5,2.5,0,0,1-.1.473,2.664,2.664,0,0,0-.331-1.889l9.31,5.6Zm-13.86.13a6.375,6.375,0,0,1-.563.547,5.97,5.97,0,0,0,.6-.6Zm-26.558-11.364.006-.025Zm21.533,9.595a.848.848,0,0,0-.044-.209A.848.848,0,0,1-362.108,170.979Zm-.241-.6a1.725,1.725,0,0,1,.151.23A1.725,1.725,0,0,0-362.349,170.378Zm-1.185-1a6.468,6.468,0,0,1,.632.429A6.468,6.468,0,0,0-363.534,169.382Zm.783.568a3.363,3.363,0,0,1,.291.272A3.363,3.363,0,0,0-362.751,169.949ZM-348.3,148.7l.038-3.032,3.382,2.031-3.185,1.839-.825-.494Zm9.771,2.818,5.225,3.141-3.185,1.839-2.086-1.252Zm-44.619,9.235a3.656,3.656,0,0,1,.469-.32A3.656,3.656,0,0,0-383.153,160.752Zm-.287.279-.023.034Zm-5.2,2.839a3.935,3.935,0,0,1-.253-.4A3.935,3.935,0,0,0-388.635,163.87Zm1.024,1c-.136-.109-.222-.22-.343-.329C-387.833,164.649-387.747,164.76-387.611,164.869Zm-1.644-2a2.611,2.611,0,0,1-.1-.429A2.611,2.611,0,0,0-389.255,162.867ZM-356.5,171.8v0a3.565,3.565,0,0,1-.31.509,3.451,3.451,0,0,0,.322-.565C-356.492,171.763-356.488,171.781-356.5,171.8Z" transform="translate(408.639 -134.681)"/><g class="c" transform="translate(59.126)"><g transform="translate(0.097)"><path class="d" d="M-376.159,134.682l22.783,13.7,6.93-4,3.8,2.286-11.128,6.425-26.586-15.986Z" transform="translate(380.357 -134.682)"/></g><g transform="translate(26.585 11.985)"><path class="e" d="M-356.483,140.4l-.1,7.812-11.128,6.425.1-7.812Z" transform="translate(367.707 -140.405)"/></g><g transform="translate(0 2.424)"><path class="f" d="M-353.721,151.825l-.1,7.812L-380.4,143.651l.1-7.812Z" transform="translate(380.403 -135.839)"/></g></g><g class="c" transform="translate(45.066 3.921)"><g transform="translate(8 2.286)"><path class="e" d="M-375.931,137.646l-.1,7.812-7.269,4.2.1-7.812Z" transform="translate(383.297 -137.646)"/></g><g transform="translate(19.208 9.89)"><path class="e" d="M-372.076,141.277l-.1,7.812-5.772,3.333.1-7.812Z" transform="translate(377.945 -141.277)"/></g><g transform="translate(0.097)"><path class="d" d="M-375.6,136.554l3.8,2.286-7.269,4.2,7.405,4.453,5.772-3.333,3.8,2.286-5.772,3.333,7.773,4.674,7.269-4.2,3.8,2.286-11.467,6.621-26.585-15.986Z" transform="translate(387.071 -136.554)"/></g><g transform="translate(26.586 15.986)"><path class="e" d="M-362.858,144.188l-.1,7.812-11.467,6.621.1-7.812Z" transform="translate(374.422 -144.188)"/></g><g transform="translate(0 6.621)"><path class="f" d="M-360.436,155.7l-.1,7.812-26.585-15.986.1-7.812Z" transform="translate(387.118 -139.716)"/></g></g><g class="c" transform="translate(30.235 11.602)"><g transform="translate(12.399 2.286)"><path class="e" d="M-383.784,141.314l-.1,7.812-4.4,2.54.1-7.812Z" transform="translate(388.279 -141.314)"/></g><g transform="translate(3.802 7.249)"><path class="e" d="M-387.89,143.684l-.1,7.812-4.4,2.54.1-7.812Z" transform="translate(392.385 -143.684)"/></g><g transform="translate(0 7.503)"><path class="f" d="M-390.3,146.091l-.1,7.812-3.8-2.286.1-7.812Z" transform="translate(394.201 -143.805)"/></g><g transform="translate(0.097)"><path class="d" d="M-381.159,140.222l3.8,2.286-4.4,2.54,22.783,13.7-4.2,2.424-22.783-13.7-4.4,2.54-3.8-2.286Z" transform="translate(394.154 -140.222)"/></g><g transform="translate(30.984 18.525)"><path class="e" d="M-375.109,149.069l-.1,7.812-4.2,2.424.1-7.812Z" transform="translate(379.404 -149.069)"/></g><g transform="translate(8.201 7.249)"><path class="f" d="M-367.4,157.383l-.1,7.812-22.783-13.7.1-7.812Z" transform="translate(390.284 -143.684)"/></g></g><g class="c" transform="translate(19.058 21.78)"><g class="c" transform="translate(5.796 3.412)"><g class="g"><g class="c" transform="translate(0 -0.001)"><path class="h" d="M-393.368,147.4l-.1,7.811a7.106,7.106,0,0,0-1.024-.515l.1-7.811a7.1,7.1,0,0,1,1.024.515" transform="translate(399.267 -146.521)"/><path class="i" d="M-394.116,146.981l-.1,7.811q-.267-.107-.528-.182l.1-7.811a4.764,4.764,0,0,1,.526.182" transform="translate(398.991 -146.616)"/><path class="j" d="M-394.452,146.846l-.1,7.811c-.121-.036-.243-.065-.362-.09l.1-7.811c.119.023.239.054.362.09" transform="translate(398.802 -146.663)"/><path class="k" d="M-394.664,146.783l-.1,7.811q-.145-.031-.289-.05l.1-7.813c.1.015.193.031.291.052" transform="translate(398.651 -146.69)"/><path class="l" d="M-394.819,146.745l-.1,7.813c-.088-.013-.174-.023-.26-.029l.1-7.811c.086.006.172.015.26.027" transform="translate(398.515 -146.705)"/><path class="m" d="M-394.95,146.725l-.1,7.811c-.084-.006-.165-.01-.247-.01l.1-7.813c.082,0,.165.006.247.013" transform="translate(398.386 -146.711)"/><path class="n" d="M-395.066,146.712l-.1,7.813c-.084,0-.167,0-.249,0l.1-7.811c.082,0,.165-.006.249,0" transform="translate(398.256 -146.712)"/><path class="o" d="M-395.171,146.714l-.1,7.811c-.092,0-.184.013-.276.023l.1-7.811c.09-.013.182-.019.274-.023" transform="translate(398.111 -146.709)"/><path class="p" d="M-395.263,146.725l-.1,7.811c-.117.015-.235.033-.35.059l.1-7.813c.115-.023.232-.044.352-.057" transform="translate(397.928 -146.697)"/><path class="q" d="M-394.721,146.752l-.1,7.813a4.172,4.172,0,0,0-1.212.473,3.681,3.681,0,0,0-.5.341l.1-7.811a3.618,3.618,0,0,1,.5-.341,4.177,4.177,0,0,1,1.212-.475" transform="translate(397.035 -146.667)"/><path class="p" d="M-396.306,147.142l-.1,7.811a2,2,0,0,0-.241.237l.1-7.811a1.992,1.992,0,0,1,.241-.237" transform="translate(396.909 -146.241)"/><path class="o" d="M-396.48,147.255l-.1,7.811a1.381,1.381,0,0,0-.128.174l.1-7.811a1.333,1.333,0,0,1,.126-.174" transform="translate(396.842 -146.117)"/><path class="n" d="M-396.567,147.338l-.1,7.811a.983.983,0,0,0-.073.149l.1-7.813a1.209,1.209,0,0,1,.075-.147" transform="translate(396.804 -146.026)"/><path class="m" d="M-396.62,147.408l-.1,7.813a.889.889,0,0,0-.044.138l.1-7.811a.823.823,0,0,1,.044-.14" transform="translate(396.781 -145.95)"/><path class="l" d="M-396.654,147.475l-.1,7.811a.776.776,0,0,0-.019.14l.1-7.813a.8.8,0,0,1,.019-.138" transform="translate(396.771 -145.876)"/><path class="k" d="M-396.672,147.541l-.1,7.813,0,.029.1-7.813v-.029" transform="translate(396.77 -145.804)"/></g></g></g><g class="c" transform="translate(0 5.334)"><g class="r"><g class="c"><path class="h" d="M-396.148,151.688l-.1,7.813c-2.2-1.323-3.311-2.7-3.294-4.058l.1-7.813c-.017,1.355,1.093,2.735,3.294,4.058" transform="translate(399.538 -147.63)"/></g></g></g><g transform="translate(11.599 4.291)"><path class="f" d="M-379.552,155.761l-.1,7.812L-394,154.943l.1-7.812Z" transform="translate(393.999 -147.132)"/></g><g class="c" transform="translate(25.949 12.921)"><g class="s"><g class="c"><path class="h" d="M-385.613,152.888l-.1,7.813c.006-.49-.431-1.032-1.436-1.637l.1-7.811c1,.6,1.441,1.145,1.434,1.635" transform="translate(387.146 -151.253)"/></g></g></g><g transform="translate(3.294 9.393)"><path class="f" d="M-384.039,157.884l-.1,7.812-13.829-8.315.1-7.812Z" transform="translate(397.965 -149.568)"/></g><g class="c" transform="translate(17.123 14.401)"><g class="t"><g class="c"><path class="k" d="M-383.592,151.96l-.1,7.811,0,.09.1-7.811,0-.09" transform="translate(399.75 -151.96)"/><path class="l" d="M-383.567,152l-.1,7.811a2.471,2.471,0,0,1-.057.425l.1-7.813a2.411,2.411,0,0,0,.057-.423" transform="translate(399.72 -151.913)"/><path class="m" d="M-383.553,152.205l-.1,7.813a2.808,2.808,0,0,1-.136.427l.1-7.813a2.791,2.791,0,0,0,.136-.427" transform="translate(399.649 -151.692)"/><path class="n" d="M-383.57,152.409l-.1,7.813a3.18,3.18,0,0,1-.228.454l.1-7.811a3.193,3.193,0,0,0,.228-.456" transform="translate(399.53 -151.469)"/><path class="o" d="M-383.593,152.627l-.1,7.811a4.441,4.441,0,0,1-.392.54l.1-7.813a4.434,4.434,0,0,0,.392-.538" transform="translate(399.325 -151.23)"/><path class="p" d="M-383.6,152.884l-.1,7.813a6.317,6.317,0,0,1-.735.718l.1-7.811a6.023,6.023,0,0,0,.735-.72" transform="translate(398.941 -150.949)"/><path class="q" d="M-381.666,153.228l-.1,7.811a10.153,10.153,0,0,1-1.434.984,12.631,12.631,0,0,1-3.675,1.428l.1-7.811a12.634,12.634,0,0,0,3.675-1.43,10.157,10.157,0,0,0,1.434-.982" transform="translate(396.272 -150.573)"/><path class="p" d="M-386.2,154.38l-.1,7.811q-.543.116-1.093.182l.1-7.813q.55-.063,1.093-.18" transform="translate(395.701 -149.313)"/><path class="o" d="M-386.855,154.466l-.1,7.813c-.281.034-.565.057-.848.069l.1-7.811c.285-.015.567-.038.848-.071" transform="translate(395.258 -149.218)"/><path class="n" d="M-387.307,154.5l-.1,7.811c-.251.013-.5.015-.758.01l.1-7.811c.253,0,.507,0,.758-.01" transform="translate(394.862 -149.181)"/><path class="m" d="M-387.684,154.524l-.1,7.811c-.243,0-.486-.015-.729-.036l.1-7.811c.243.019.486.031.729.036" transform="translate(394.481 -149.194)"/><path class="l" d="M-388.023,154.531l-.1,7.811c-.247-.019-.5-.046-.745-.08l.1-7.813c.247.036.5.063.743.082" transform="translate(394.092 -149.237)"/><path class="k" d="M-388.34,154.523l-.1,7.813c-.272-.04-.545-.086-.817-.145l.1-7.811c.272.057.544.1.819.142" transform="translate(393.665 -149.311)"/><path class="j" d="M-388.658,154.506l-.1,7.811c-.32-.065-.639-.144-.959-.237l.1-7.813q.477.138.957.239" transform="translate(393.164 -149.436)"/><path class="i" d="M-388.939,154.5l-.1,7.813c-.433-.126-.865-.276-1.294-.448l.1-7.811q.644.258,1.3.446" transform="translate(392.488 -149.669)"/><path class="h" d="M-389.108,154.617l-.1,7.811a15.012,15.012,0,0,1-2.157-1.076l.1-7.813a15.023,15.023,0,0,0,2.157,1.078" transform="translate(391.361 -150.233)"/></g></g></g><g transform="translate(0.097)"><path class="d" d="M-396.494,146.767a12.471,12.471,0,0,1,13.06.339l13.829,8.315c4.247,2.555,4.431,5.321.31,7.7a12.468,12.468,0,0,1-13.075-.331l-13.829-8.315C-400.445,151.923-400.629,149.156-396.494,146.767ZM-373.541,158l-14.352-8.629a4.436,4.436,0,0,0-4.8-.32c-1.342.775-1.47,1.7.429,2.842l14.352,8.629a4.436,4.436,0,0,0,4.812.31c1.328-.766,1.455-1.69-.444-2.831" transform="translate(399.492 -145.083)"/></g></g><g class="c" transform="translate(0 28.906)"><g transform="translate(8.982 2.468)"><path class="f" d="M-392.862,156.514l-.1,7.812-11.392-6.85.1-7.812Z" transform="translate(404.35 -149.665)"/></g><g transform="translate(19.392 11.604)"><path class="e" d="M-394.5,154.027l-.1,7.812-4.784,2.762.1-7.812Z" transform="translate(399.378 -154.027)"/></g><g transform="translate(35.568 15.986)"><path class="e" d="M-387.282,156.12l-.1,7.812-4.275,2.468.1-7.812Z" transform="translate(391.654 -156.12)"/></g><g transform="translate(24.176 11.604)"><path class="f" d="M-385.605,160.877l-.1,7.812-11.392-6.85.1-7.812Z" transform="translate(397.094 -154.027)"/></g><g transform="translate(0.097)"><path class="d" d="M-395.336,148.486l26.586,15.986-4.275,2.468-11.392-6.85-4.784,2.762,11.392,6.85-4.2,2.424-26.585-15.986,4.2-2.424,11.392,6.85,4.784-2.762-11.392-6.85Z" transform="translate(408.593 -148.486)"/></g><g transform="translate(26.585 21.216)"><path class="e" d="M-391.649,158.618l-.1,7.812-4.2,2.424.1-7.812Z" transform="translate(395.943 -158.618)"/></g><g transform="translate(0 7.654)"><path class="f" d="M-381.957,168.127l-.1,7.812-26.586-15.986.1-7.812Z" transform="translate(408.639 -152.141)"/></g></g></g></svg>