<svg xmlns="http://www.w3.org/2000/svg" xmlns:xlink="http://www.w3.org/1999/xlink" width="105.272" height="68.393" viewBox="0 0 105.272 68.393"><defs><style>.a,.b{fill:none;}.b{stroke:#155e85;stroke-linejoin:round;stroke-width:2px;}.c{isolation:isolate;}.d{clip-path:url(#a);}.e{fill:#155d83;}.f{fill:#165f86;}.g{fill:#186289;}.h{fill:#19648d;}.i{fill:#1a6790;}.j{fill:#1c6993;}.k{fill:#1d6c96;}.l{fill:#1e6e9a;}.m{fill:#20719e;}.n{fill:#2174a1;}.o{clip-path:url(#b);}.p{fill:#155e85;}.q{clip-path:url(#c);}.r{clip-path:url(#d);}.s{fill:#fff;}.t{fill:#247bab;}.u{fill:#19658d;}.v{fill:#145c82;}.w{clip-path:url(#e);}.x{clip-path:url(#f);}.y{clip-path:url(#g);}.z{clip-path:url(#h);}.aa{fill:#135a80;}.ab{fill:#1b6791;}</style><clipPath id="a"><path class="a" d="M-246.8,336.335l.1-7.811c0-.408.333-.775.909-1.108,1.267-.731,2.775-.752,4.676.392l-.1,7.811c-1.9-1.143-3.409-1.122-4.676-.392C-246.473,335.56-246.8,335.927-246.8,336.335Z" transform="translate(246.804 -326.903)"/></clipPath><clipPath id="b"><path class="a" d="M-249.485,335.486l.1-7.813c-.017,1.348,1.124,2.747,3.386,4.108l-.1,7.811C-248.36,338.233-249.5,336.834-249.485,335.486Z" transform="translate(249.485 -327.673)"/></clipPath><clipPath id="c"><path class="a" d="M-235.715,333.1l-.1,7.813c.006-.486-.442-1.028-1.466-1.644l.1-7.811C-236.157,332.076-235.709,332.618-235.715,333.1Z" transform="translate(237.277 -331.46)"/></clipPath><clipPath id="d"><path class="a" d="M-225.73,332.254l-.1,7.813c-.015,1.181-.919,2.326-2.735,3.373-3.889,2.247-8.441,2.019-12.7-.542l.1-7.813c4.261,2.563,8.814,2.789,12.7.544C-226.647,334.58-225.744,333.437-225.73,332.254Z" transform="translate(241.263 -332.254)"/></clipPath><clipPath id="e"><path class="a" d="M-242.405,351.321l.1-7.813c0-.364.3-.693.812-.991,1.141-.66,2.5-.683,4.2.341l-.1,7.813c-1.7-1.024-3.055-1-4.2-.341C-242.108,350.628-242.4,350.954-242.405,351.321Z" transform="translate(242.405 -342.051)"/></clipPath><clipPath id="f"><path class="a" d="M-244.814,350.555l.1-7.811c-.015,1.212,1.011,2.469,3.047,3.694l-.1,7.811C-243.8,353.026-244.829,351.767-244.814,350.555Z" transform="translate(244.814 -342.744)"/></clipPath><clipPath id="g"><path class="a" d="M-232.438,347.624l-.1,7.813c0-.44-.4-.932-1.328-1.489l.1-7.813C-232.84,346.692-232.432,347.184-232.438,347.624Z" transform="translate(233.862 -346.135)"/></clipPath><clipPath id="h"><path class="a" d="M-223.486,346.854l-.1,7.813c-.013,1.06-.823,2.086-2.458,3.03-3.486,2.012-7.578,1.809-11.4-.486l.1-7.813c3.817,2.3,7.909,2.5,11.4.486C-224.309,348.942-223.5,347.914-223.486,346.854Z" transform="translate(237.436 -346.854)"/></clipPath></defs><g transform="translate(0.999 1.081)"><path class="b" d="M-196.718,346.987l-.044,3.522-1.483-.892c.044-.048.1-.094.145-.142.017-.019.025-.04.042-.059s.048-.067.073-.1a3.985,3.985,0,0,0,.247-.339,3.089,3.089,0,0,0,.218-.431l0-.013.006-.019a2.837,2.837,0,0,0,.117-.373,2.441,2.441,0,0,0,.054-.4l0-.088h0l.1-7.813a2.15,2.15,0,0,1-.08.394c.27-1.472-.823-3.011-3.319-4.513l-13.831-8.315c-4.247-2.555-8.8-2.781-12.688-.536-1.878,1.085-2.758,2.272-2.712,3.5,0-.04-.025-.082-.025-.121l-.1,7.813c-.013,1.108.8,2.249,2.329,3.378l-1.52.877-1.585-.953.094-7.639-3.8-2.285-10.493,6.058-.042,3.323-2.8-1.684-3.533,2.042-.048,3.807-4.027-1.455-4.986,2.879-.042,3.321-2.8-1.681-3.966,2.289-.1,7.813,26.585,15.986,3.966-2.291.042-3.321,1.323.8-.285.163-.1,7.811,23.857,14.346,3.566-2.058.048-3.922,4.5,1.292,3.658-2.111.027-2.333c.052.006.1.019.155.025.22.031.44.057.658.073.1.006.191.008.287.015l.136.006c.071,0,.142.008.216.01.218,0,.436,0,.653-.01.138-.006.276-.021.413-.034l.157-.013c.05,0,.1-.006.149-.013a9.273,9.273,0,0,0,.932-.155c.044-.008.084-.027.128-.038.329-.075.653-.182.976-.291.161-.054.322-.092.482-.155a10.662,10.662,0,0,0,1.405-.674,8.247,8.247,0,0,0,1.114-.764.435.435,0,0,0,.05-.036,5.146,5.146,0,0,0,.609-.593c.015-.019.023-.036.038-.052s.04-.059.063-.088a3.575,3.575,0,0,0,.224-.308,2.685,2.685,0,0,0,.195-.387l0-.01,0-.015a2.612,2.612,0,0,0,.107-.337,2.354,2.354,0,0,0,.048-.362l0-.077.1-7.679,7.557,4.546,3.564-2.058.054-4.27,3.049,2.477,3.271-1.889.065-5.132.582-.335,4.94,2.243,3.6-2.077.1-7.811-27.484-12.252Zm5.748,24.215a2.959,2.959,0,0,1-.235.389,2.914,2.914,0,0,0,.255-.484c-.01.025-.006.052-.017.077Zm-39.662-2.9.3-.172.057-4.613,3.03,1.093-.2.115-.067,5.453Zm34.771,2.035a.949.949,0,0,0-.042-.191A.949.949,0,0,1-195.862,370.342Zm-19.041-8.987.027-.033Zm-.136.272.006-.023Zm.4-.547a2.7,2.7,0,0,1,.381-.262A2.883,2.883,0,0,0-214.637,361.08Zm18.172,8.336a3.167,3.167,0,0,1,.268.247A3.167,3.167,0,0,0-196.465,369.416Zm.371.385a1.317,1.317,0,0,1,.14.212A1.317,1.317,0,0,0-196.094,369.8Zm-1.085-.9a5.811,5.811,0,0,1,.576.391A5.811,5.811,0,0,0-197.179,368.9Zm-15.594-18.425a15.682,15.682,0,0,0,2.021,1.011c.08.034.159.088.241.122.209.084.421.144.632.218.165.057.331.121.5.172.065.019.13.048.2.067q.487.141.974.243c.073.015.149.025.222.038s.126.023.188.034c.13.023.26.05.389.069.245.033.49.061.735.079.1.008.209.011.314.015l.017,0-4.385,2.532-.031,2.467a10.254,10.254,0,0,0-3.734.052l.08-6.408-5.928-3.564.021-1.688Zm-5.589,14.122c-.126-.1-.212-.2-.322-.3C-218.574,364.4-218.488,364.5-218.362,364.6Zm-1.625-2.178a2.413,2.413,0,0,0,.109.379A2.413,2.413,0,0,1-219.987,362.422Zm.444.921a3.845,3.845,0,0,0,.243.356A3.845,3.845,0,0,1-219.543,363.344Zm-4.552-33.6.031-.04Zm-.153.3.008-.025Zm4.159,31.862c0-.038-.023-.073-.023-.111l-.084,6.881-2.911-4.72,1.786-1.03.042-3.323,1.591.957A2.323,2.323,0,0,0-220.09,361.911Zm28.185,10.52a4.506,4.506,0,0,0,.507-.519c-.021.027-.038.054-.059.082A4.688,4.688,0,0,1-191.9,372.432Zm1.024-1.671a2.325,2.325,0,0,0,.027-.243l.021.013A2.252,2.252,0,0,1-190.88,370.761Zm-6.533-30.059-.006.019a3.3,3.3,0,0,1-.262.438,3.125,3.125,0,0,0,.285-.54C-197.407,340.645-197.4,340.674-197.414,340.7Zm-.482.812c-.023.031-.042.061-.067.092a5.716,5.716,0,0,1-.494.484A5.135,5.135,0,0,0-197.9,341.514Zm-4.98-1.753a.95.95,0,0,0-.046-.207A.95.95,0,0,1-202.875,339.761Zm-.1-.364a1.669,1.669,0,0,0-.153-.228A1.669,1.669,0,0,1-202.975,339.4Zm-.27-.385a3.336,3.336,0,0,0-.289-.266A3.336,3.336,0,0,1-203.245,339.011Zm-.448-.406a6.091,6.091,0,0,0-.637-.431A6.091,6.091,0,0,1-203.694,338.605Zm-19.677-9.461a3.1,3.1,0,0,0-.427.293A3.1,3.1,0,0,1-223.371,329.144Zm-4.577,4.211c-.138-.109-.23-.22-.354-.331C-228.179,333.136-228.087,333.247-227.948,333.355Zm-1.313-1.4a4.038,4.038,0,0,0,.27.4A4.038,4.038,0,0,1-229.261,331.959Zm-.494-1.024a2.907,2.907,0,0,0,.124.421A2.907,2.907,0,0,1-229.755,330.935Z" transform="translate(267.306 -325.323)"/><g class="c" transform="translate(37.316)"><g class="c" transform="translate(5.614 3.307)"><g class="d"><g class="c" transform="translate(0 0)"><path class="e" d="M-243.475,327.621l-.1,7.811a7.6,7.6,0,0,0-1.083-.544l.1-7.813a7.838,7.838,0,0,1,1.083.547" transform="translate(249.156 -326.715)"/><path class="f" d="M-244.28,327.169l-.1,7.813a5.332,5.332,0,0,0-.532-.184l.1-7.811c.174.05.352.111.532.182" transform="translate(248.878 -326.81)"/><path class="g" d="M-244.628,327.033l-.1,7.811c-.119-.034-.237-.063-.352-.086l.1-7.813c.115.025.235.054.352.088" transform="translate(248.694 -326.856)"/><path class="h" d="M-244.831,326.971l-.1,7.813c-.1-.021-.191-.038-.285-.05l.1-7.813c.094.015.188.029.285.05" transform="translate(248.546 -326.882)"/><path class="i" d="M-244.984,326.935l-.1,7.813c-.086-.013-.17-.021-.251-.027l.1-7.813c.084.006.165.017.251.027" transform="translate(248.414 -326.896)"/><path class="j" d="M-245.112,326.914l-.1,7.813c-.08-.006-.159-.01-.237-.013l.1-7.811c.077,0,.157,0,.237.01" transform="translate(248.291 -326.902)"/><path class="k" d="M-245.225,326.9l-.1,7.811c-.08,0-.159,0-.237,0l.1-7.813c.077,0,.157,0,.237,0" transform="translate(248.167 -326.902)"/><path class="l" d="M-245.327,326.9l-.1,7.813c-.088,0-.174.01-.258.021l.1-7.813c.086-.01.172-.017.258-.021" transform="translate(248.033 -326.901)"/><path class="m" d="M-245.411,326.914l-.1,7.813c-.113.013-.224.031-.333.055l.1-7.811a2.892,2.892,0,0,1,.333-.057" transform="translate(247.859 -326.89)"/><path class="n" d="M-244.932,326.941l-.1,7.811a3.827,3.827,0,0,0-1.11.433,3.209,3.209,0,0,0-.444.3l.1-7.811a3.218,3.218,0,0,1,.444-.3,3.811,3.811,0,0,1,1.11-.433" transform="translate(247.047 -326.86)"/><path class="m" d="M-246.371,327.293l-.1,7.811a1.963,1.963,0,0,0-.22.216l.1-7.811a1.79,1.79,0,0,1,.22-.216" transform="translate(246.932 -326.475)"/><path class="l" d="M-246.529,327.4l-.1,7.811a1.368,1.368,0,0,0-.117.161l.1-7.813a1.132,1.132,0,0,1,.115-.159" transform="translate(246.871 -326.362)"/><path class="k" d="M-246.608,327.472l-.1,7.813a.849.849,0,0,0-.069.138l.1-7.813a.871.871,0,0,1,.071-.138" transform="translate(246.835 -326.279)"/><path class="j" d="M-246.659,327.538l-.1,7.813a.718.718,0,0,0-.04.13l.1-7.813a.766.766,0,0,1,.04-.13" transform="translate(246.814 -326.207)"/><path class="i" d="M-246.689,327.6l-.1,7.813a.671.671,0,0,0-.019.13l.1-7.811a.713.713,0,0,1,.019-.132" transform="translate(246.804 -326.139)"/><path class="h" d="M-246.708,327.663l-.1,7.811v.029l.1-7.811v-.029" transform="translate(246.804 -326.07)"/></g></g></g><g class="c" transform="translate(0 4.921)"><g class="o"><g class="c"><path class="e" d="M-246,331.781l-.1,7.811c-2.262-1.359-3.4-2.758-3.386-4.106l.1-7.813c-.017,1.348,1.124,2.747,3.386,4.108" transform="translate(249.485 -327.673)"/></g></g></g><g transform="translate(11.198 4.212)"><path class="p" d="M-229.675,335.973l-.1,7.812-14.366-8.638.1-7.812Z" transform="translate(244.137 -327.335)"/></g><g class="c" transform="translate(25.564 12.851)"><g class="q"><g class="c"><path class="e" d="M-235.715,333.1l-.1,7.813c.006-.486-.442-1.028-1.466-1.644l.1-7.811c1.024.616,1.472,1.158,1.466,1.642" transform="translate(237.277 -331.46)"/></g></g></g><g transform="translate(3.387 9.029)"><path class="p" d="M-233.942,337.951l-.1,7.812-13.829-8.316.1-7.812Z" transform="translate(247.868 -329.635)"/></g><g class="c" transform="translate(17.217 14.513)"><g class="r"><g class="c"><path class="h" d="M-233.794,332.254l-.1,7.813,0,.086.1-7.811,0-.088" transform="translate(249.327 -332.254)"/><path class="i" d="M-233.767,332.3l-.1,7.811a2.432,2.432,0,0,1-.054.406l.1-7.813a2.408,2.408,0,0,0,.054-.4" transform="translate(249.298 -332.208)"/><path class="j" d="M-233.755,332.489l-.1,7.813a2.733,2.733,0,0,1-.128.4l.1-7.813a2.663,2.663,0,0,0,.128-.4" transform="translate(249.232 -331.997)"/><path class="k" d="M-233.769,332.682l-.1,7.813a3.089,3.089,0,0,1-.218.431l.1-7.811a3.23,3.23,0,0,0,.218-.434" transform="translate(249.118 -331.786)"/><path class="l" d="M-233.8,332.889l-.1,7.811a4.21,4.21,0,0,1-.362.5l.1-7.811a4,4,0,0,0,.362-.5" transform="translate(248.929 -331.559)"/><path class="m" d="M-233.806,333.127l-.1,7.811a5.654,5.654,0,0,1-.676.662l.1-7.811a5.816,5.816,0,0,0,.676-.662" transform="translate(248.575 -331.299)"/><path class="n" d="M-232.065,333.443l-.1,7.811a9.078,9.078,0,0,1-1.294.886,11.455,11.455,0,0,1-3.334,1.294l.1-7.811a11.551,11.551,0,0,0,3.336-1.294,9.354,9.354,0,0,0,1.292-.886" transform="translate(246.158 -330.953)"/><path class="m" d="M-236.151,334.484l-.1,7.811c-.343.073-.689.132-1.036.172l.1-7.811c.348-.042.693-.1,1.037-.172" transform="translate(245.616 -329.814)"/><path class="l" d="M-236.77,334.566l-.1,7.811c-.266.031-.532.054-.8.065l.1-7.811c.268-.013.534-.033.8-.065" transform="translate(245.198 -329.725)"/><path class="k" d="M-237.189,334.6l-.1,7.811c-.243.013-.484.015-.729.01l.1-7.811c.243,0,.486,0,.727-.011" transform="translate(244.817 -329.691)"/><path class="j" d="M-237.546,334.621l-.1,7.811c-.235,0-.471-.015-.708-.034l.1-7.813c.237.019.473.031.71.036" transform="translate(244.448 -329.704)"/><path class="i" d="M-237.872,334.627l-.1,7.813c-.245-.019-.49-.046-.735-.079l.1-7.813c.245.034.49.061.735.08" transform="translate(244.064 -329.745)"/><path class="h" d="M-238.189,334.62l-.1,7.813c-.266-.038-.534-.086-.8-.14l.1-7.813c.266.056.534.1.8.14" transform="translate(243.646 -329.819)"/><path class="g" d="M-238.48,334.606l-.1,7.813q-.487-.1-.974-.243l.1-7.811c.325.094.649.174.974.241" transform="translate(243.137 -329.945)"/><path class="f" d="M-238.761,334.6l-.1,7.811a13.979,13.979,0,0,1-1.326-.456l.1-7.813a13.448,13.448,0,0,0,1.325.459" transform="translate(242.445 -330.184)"/><path class="e" d="M-238.905,334.737l-.1,7.813a15.948,15.948,0,0,1-2.262-1.131l.1-7.813a15.7,15.7,0,0,0,2.262,1.131" transform="translate(241.263 -330.775)"/></g></g></g><g transform="translate(0.097)"><path class="s" d="M-246.7,326.866c3.889-2.245,8.441-2.019,12.688.536l13.831,8.315c4.261,2.563,4.554,5.25.666,7.494s-8.443,2.019-12.7-.544l-13.831-8.315C-250.3,331.8-250.591,329.113-246.7,326.866Zm22.827,11.308-14.365-8.638c-1.9-1.143-3.409-1.122-4.676-.392s-1.332,1.619.57,2.76l14.367,8.64c1.885,1.133,3.392,1.112,4.659.381s1.332-1.619-.555-2.752" transform="translate(249.439 -325.323)"/></g></g><g class="c" transform="translate(22.24 6.112)"><g transform="translate(7.769 2.286)"><path class="t" d="M-246.35,329.334l-.1,7.812-6.528,3.769.1-7.812Z" transform="translate(252.975 -329.334)"/></g><g transform="translate(19.574 10.196)"><path class="t" d="M-242.116,333.111l-.1,7.812-5.124,2.958.1-7.812Z" transform="translate(247.337 -333.111)"/></g><g transform="translate(0.097)"><path class="s" d="M-246.144,328.242l3.8,2.286-6.528,3.769,8.019,4.822,5.124-2.958,3.787,2.277-5.124,2.958,10.978,6.6-3.967,2.29L-256.638,334.3Z" transform="translate(256.638 -328.242)"/></g><g transform="translate(26.586 19.755)"><path class="t" d="M-239.925,337.676l-.1,7.812-3.966,2.29.1-7.812Z" transform="translate(243.988 -337.676)"/></g><g transform="translate(0 6.059)"><path class="p" d="M-230,347.121l-.1,7.812-26.586-15.986.1-7.812Z" transform="translate(256.685 -331.135)"/></g></g><g class="c" transform="translate(6.806 13.81)"><g transform="translate(9.06 2.041)"><path class="p" d="M-243.717,342.462l-.1,7.812-15.915-9.569.1-7.812Z" transform="translate(259.729 -332.893)"/></g><g transform="translate(35.105 15.986)"><path class="t" d="M-243.119,339.552l-.1,7.812-4.074,2.352.1-7.812Z" transform="translate(247.29 -339.552)"/></g><g transform="translate(10.909 9.61)"><path class="u" d="M-234.553,345.236l-.1,7.812-24.2-8.728.1-7.812Z" transform="translate(258.845 -336.508)"/></g><g transform="translate(0.097)"><path class="s" d="M-251.415,331.918l26.586,15.986-4.075,2.352-24.2-8.728,19.257,11.579-3.581,2.067-26.586-15.986,4.985-2.878,19.989,7.217-15.915-9.569Z" transform="translate(264.009 -331.918)"/></g><g transform="translate(26.586 21.189)"><path class="t" d="M-247.682,342.038l-.1,7.812-3.581,2.067.1-7.812Z" transform="translate(251.359 -342.038)"/></g><g transform="translate(0 7.271)"><path class="p" d="M-237.373,351.376l-.1,7.812L-264.055,343.2l.1-7.812Z" transform="translate(264.055 -335.391)"/></g></g><g class="c" transform="translate(0 22.721)"><g transform="translate(0.097)"><path class="s" d="M-263.293,336.174l26.586,15.986-3.966,2.29-26.586-15.986Z" transform="translate(267.259 -336.174)"/></g><g transform="translate(26.586 15.986)"><path class="t" d="M-250.546,343.808l-.1,7.812-3.966,2.29.1-7.812Z" transform="translate(254.609 -343.808)"/></g><g transform="translate(0 2.29)"><path class="p" d="M-240.623,353.253l-.1,7.812-26.586-15.986.1-7.812Z" transform="translate(267.305 -337.267)"/></g></g><g class="c" transform="translate(56.478 18.661)"><g transform="translate(20.668 4.149)"><path class="g" d="M-216.588,342.483l-.1,7.812-13.779-6.266.1-7.812Z" transform="translate(230.464 -336.217)"/></g><g transform="translate(33.809 12.085)"><path class="t" d="M-219.74,340.006l-.1,7.812-4.352,2.513.1-7.812Z" transform="translate(224.189 -340.006)"/></g><g transform="translate(14.014 3.004)"><path class="v" d="M-213.316,352.108l-.1,7.812-20.23-16.439.1-7.812Z" transform="translate(233.642 -335.669)"/></g><g transform="translate(10.704 6.797)"><path class="t" d="M-231.407,337.481l-.1,7.812-3.72,2.148.1-7.812Z" transform="translate(235.223 -337.481)"/></g><g transform="translate(3.419 11.003)"><path class="t" d="M-234.885,339.49l-.1,7.812-3.719,2.147.1-7.812Z" transform="translate(238.701 -339.49)"/></g><g transform="translate(0 11.095)"><path class="p" d="M-236.819,341.589l-.1,7.812-3.419-2.056.1-7.812Z" transform="translate(240.334 -339.533)"/></g><g transform="translate(43.102 12.252)"><path class="t" d="M-216.058,340.086l-.1,7.812-3.6,2.076.1-7.812Z" transform="translate(219.751 -340.086)"/></g><g transform="translate(38.161 12.085)"><path class="g" d="M-217.073,342.249l-.1,7.812-4.941-2.243.1-7.812Z" transform="translate(222.11 -340.006)"/></g><g transform="translate(14.11)"><path class="s" d="M-228.395,334.235l27.484,12.252-3.6,2.075-4.942-2.243-4.351,2.513,3.706,2.957-3.273,1.889-20.23-16.44Zm11.806,12.394,3.428-1.979-13.781-6.265,10.353,8.244" transform="translate(233.596 -334.235)"/></g><g transform="translate(34.243 17.553)"><path class="t" d="M-220.613,342.618l-.1,7.812-3.272,1.889.1-7.812Z" transform="translate(223.981 -342.618)"/></g><g transform="translate(27.576 21.234)"><path class="t" d="M-223.5,344.375l-.1,7.812-3.565,2.058.1-7.812Z" transform="translate(227.165 -344.375)"/></g><g transform="translate(0.097 4.741)"><path class="s" d="M-229.284,336.5l3.419,2.056-3.72,2.147,20.438,12.289-3.565,2.058-20.437-12.289-3.72,2.148-3.419-2.056Z" transform="translate(240.288 -336.499)"/></g><g transform="translate(7.138 11.003)"><path class="p" d="M-216.391,351.778l-.1,7.812L-236.925,347.3l.1-7.812Z" transform="translate(236.925 -339.49)"/></g></g><g class="c" transform="translate(47.097 32.062)"><g class="c" transform="translate(5.045 2.966)"><g class="w"><g class="c" transform="translate(0 0.001)"><path class="e" d="M-239.412,342.69l-.1,7.813a6.671,6.671,0,0,0-.961-.486l.1-7.811a6.794,6.794,0,0,1,.963.484" transform="translate(244.52 -341.883)"/><path class="f" d="M-240.127,342.292l-.1,7.811a4.727,4.727,0,0,0-.475-.163l.1-7.813c.155.046.314.1.475.165" transform="translate(244.271 -341.969)"/><path class="g" d="M-240.437,342.168l-.1,7.813c-.107-.031-.212-.057-.316-.079l.1-7.811c.1.021.207.048.314.078" transform="translate(244.106 -342.01)"/><path class="h" d="M-240.618,342.113l-.1,7.811c-.086-.017-.172-.031-.255-.044l.1-7.811c.086.01.17.025.258.044" transform="translate(243.973 -342.033)"/><path class="i" d="M-240.759,342.082l-.1,7.811c-.075-.01-.151-.019-.224-.025l.1-7.811c.073.006.149.013.224.025" transform="translate(243.856 -342.046)"/><path class="j" d="M-240.871,342.062l-.1,7.811c-.071,0-.142-.008-.214-.01l.1-7.811c.071,0,.142,0,.214.01" transform="translate(243.744 -342.051)"/><path class="k" d="M-240.973,342.052l-.1,7.811c-.071,0-.142,0-.214,0l.1-7.813c.071,0,.142,0,.214,0" transform="translate(243.632 -342.052)"/><path class="l" d="M-241.065,342.053l-.1,7.813a2.16,2.16,0,0,0-.232.019l.1-7.813c.075-.008.153-.015.23-.019" transform="translate(243.511 -342.05)"/><path class="m" d="M-241.139,342.062l-.1,7.813a2.414,2.414,0,0,0-.3.05l.1-7.813q.148-.031.3-.05" transform="translate(243.355 -342.04)"/><path class="n" d="M-240.709,342.086l-.1,7.813a3.417,3.417,0,0,0-1.005.394,2.5,2.5,0,0,0-.4.27l.1-7.813a2.961,2.961,0,0,1,.4-.27,3.42,3.42,0,0,1,1.005-.394" transform="translate(242.623 -342.014)"/><path class="m" d="M-242.007,342.4l-.1,7.813a1.56,1.56,0,0,0-.2.193l.1-7.813a1.72,1.72,0,0,1,.2-.193" transform="translate(242.52 -341.667)"/><path class="l" d="M-242.149,342.495l-.1,7.813a1.076,1.076,0,0,0-.1.142l.1-7.811a1.246,1.246,0,0,1,.1-.145" transform="translate(242.465 -341.566)"/><path class="k" d="M-242.221,342.564l-.1,7.811a.863.863,0,0,0-.063.124l.1-7.811a.761.761,0,0,1,.063-.124" transform="translate(242.432 -341.491)"/><path class="j" d="M-242.265,342.623l-.1,7.811a.839.839,0,0,0-.036.117l.1-7.811a.761.761,0,0,1,.036-.117" transform="translate(242.414 -341.427)"/><path class="i" d="M-242.292,342.679l-.1,7.811a.749.749,0,0,0-.017.117l.1-7.811a.716.716,0,0,1,.017-.117" transform="translate(242.405 -341.365)"/><path class="h" d="M-242.309,342.735l-.1,7.811v.027l.1-7.813v-.025" transform="translate(242.405 -341.304)"/></g></g></g><g class="c" transform="translate(0 4.417)"><g class="x"><g class="c"><path class="e" d="M-241.671,346.438l-.1,7.811c-2.035-1.223-3.059-2.481-3.045-3.694l.1-7.811c-.015,1.212,1.011,2.469,3.047,3.694" transform="translate(244.814 -342.744)"/></g></g></g><g transform="translate(10.054 3.774)"><path class="p" d="M-227.037,350.181l-.1,7.812-12.879-7.744.1-7.812Z" transform="translate(240.013 -342.437)"/></g><g class="c" transform="translate(22.934 11.518)"><g class="y"><g class="c"><path class="e" d="M-232.438,347.624l-.1,7.813c0-.44-.4-.932-1.328-1.489l.1-7.813c.926.557,1.334,1.049,1.328,1.489" transform="translate(233.862 -346.135)"/></g></g></g><g transform="translate(3.046 8.11)"><path class="p" d="M-230.859,351.966l-.1,7.812-12.4-7.458.1-7.812Z" transform="translate(243.36 -344.508)"/></g><g class="c" transform="translate(15.45 13.023)"><g class="z"><g class="c"><path class="h" d="M-230.723,346.854l-.1,7.813,0,.077.1-7.811,0-.08" transform="translate(244.673 -346.854)"/><path class="i" d="M-230.7,346.892l-.1,7.811a2.356,2.356,0,0,1-.048.362l.1-7.811a2.146,2.146,0,0,0,.048-.362" transform="translate(244.648 -346.812)"/><path class="j" d="M-230.688,347.065l-.1,7.811a2.342,2.342,0,0,1-.115.362l.1-7.813a2.114,2.114,0,0,0,.115-.36" transform="translate(244.587 -346.623)"/><path class="k" d="M-230.7,347.237l-.1,7.813a2.687,2.687,0,0,1-.195.387l.1-7.811a2.717,2.717,0,0,0,.195-.39" transform="translate(244.486 -346.435)"/><path class="l" d="M-230.726,347.423l-.1,7.811a3.438,3.438,0,0,1-.325.446l.1-7.811a3.744,3.744,0,0,0,.325-.446" transform="translate(244.316 -346.232)"/><path class="m" d="M-230.732,347.636l-.1,7.811a4.843,4.843,0,0,1-.609.595l.1-7.811a4.972,4.972,0,0,0,.607-.595" transform="translate(243.998 -345.999)"/><path class="n" d="M-229.169,347.92l-.1,7.811a8.33,8.33,0,0,1-1.164.8,10.3,10.3,0,0,1-2.99,1.16l.1-7.813a10.3,10.3,0,0,0,2.99-1.16,8.184,8.184,0,0,0,1.166-.8" transform="translate(241.827 -345.688)"/><path class="m" d="M-232.839,348.855l-.1,7.813c-.308.065-.618.117-.932.153l.1-7.811c.312-.038.622-.088.93-.155" transform="translate(241.341 -344.665)"/><path class="l" d="M-233.393,348.929l-.1,7.811c-.239.029-.477.048-.718.059l.1-7.811c.241-.013.482-.031.72-.059" transform="translate(240.965 -344.584)"/><path class="k" d="M-233.772,348.957l-.1,7.811c-.218.01-.436.013-.653.01l.1-7.813c.218,0,.438,0,.653-.008" transform="translate(240.624 -344.553)"/><path class="j" d="M-234.092,348.977l-.1,7.813c-.212,0-.425-.015-.639-.031l.1-7.813c.214.017.427.027.639.031" transform="translate(240.29 -344.565)"/><path class="i" d="M-234.387,348.983l-.1,7.813c-.218-.017-.438-.042-.658-.073l.1-7.811c.22.031.44.054.658.071" transform="translate(239.947 -344.603)"/><path class="h" d="M-234.668,348.978l-.1,7.811c-.241-.034-.48-.075-.72-.124l.1-7.813c.241.05.48.092.72.126" transform="translate(239.57 -344.668)"/><path class="g" d="M-234.931,348.966l-.1,7.813c-.291-.061-.582-.134-.875-.218l.1-7.813c.291.086.582.157.873.218" transform="translate(239.113 -344.782)"/><path class="f" d="M-235.184,348.962l-.1,7.813q-.594-.173-1.187-.41l.1-7.813a12.482,12.482,0,0,0,1.189.41" transform="translate(238.493 -344.996)"/><path class="e" d="M-235.317,349.08l-.1,7.813a14.454,14.454,0,0,1-2.023-1.011l.1-7.813a14.025,14.025,0,0,0,2.023,1.011" transform="translate(237.436 -345.525)"/></g></g></g><g transform="translate(0.097)"><path class="s" d="M-242.316,342.022c3.505-2.023,7.58-1.809,11.4.486l12.4,7.457c3.817,2.3,4.1,4.7.593,6.724-3.487,2.014-7.578,1.809-11.4-.486l-12.4-7.457C-245.541,346.448-245.8,344.036-242.316,342.022Zm20.481,10.131-12.878-7.744c-1.7-1.024-3.057-1-4.2-.341s-1.194,1.447.509,2.471l12.878,7.744c1.7,1.024,3.072,1.009,4.2.36s1.194-1.466-.509-2.49" transform="translate(244.768 -340.635)"/></g></g><g class="c" transform="translate(31.537 37.357)"><g transform="translate(8.226 2.049)"><path class="aa" d="M-242.486,353.083l-.1,7.812-5.734-8.942.1-7.812Z" transform="translate(248.316 -344.142)"/></g><g transform="translate(31.975 14.345)"><path class="t" d="M-233.221,350.013l-.1,7.812-3.658,2.112.1-7.812Z" transform="translate(236.975 -350.013)"/></g><g transform="translate(19.012 12.737)"><path class="ab" d="M-230.106,352.965l-.1,7.812-12.963-3.72.1-7.812Z" transform="translate(243.166 -349.246)"/></g><g transform="translate(0.097)"><path class="s" d="M-240.423,343.163l5.7,9.249,18.155,5.1-3.658,2.112-12.963-3.72,1.081,1.942,7.329,4.407-3.565,2.058L-252.2,349.962l3.565-2.058,10.4,6.25-5.734-8.942Z" transform="translate(252.199 -343.163)"/></g><g transform="translate(23.856 19.085)"><path class="t" d="M-237.19,352.277l-.1,7.812-3.565,2.058.1-7.812Z" transform="translate(240.852 -352.277)"/></g><g transform="translate(0 6.799)"><path class="p" d="M-228.292,360.755l-.1,7.812-23.856-14.345.1-7.812Z" transform="translate(252.245 -346.41)"/></g></g></g></svg>