<svg xmlns="http://www.w3.org/2000/svg" xmlns:xlink="http://www.w3.org/1999/xlink" width="122.415" height="79.491" viewBox="0 0 122.415 79.491"><defs><style>.a,.b{fill:none;}.b{stroke:#831412;stroke-linejoin:round;stroke-width:2px;}.c{isolation:isolate;}.d{fill:#ac2322;}.e{fill:#a82221;}.f{fill:#831412;}.g{fill:#fff;}.h{fill:#a2201f;}.i{clip-path:url(#a);}.j{fill:#811310;}.k{clip-path:url(#b);}.l{fill:#8b1815;}.m{fill:#8e1917;}.n{fill:#921a19;}.o{fill:#951c1a;}.p{fill:#991d1b;}.q{fill:#9c1e1d;}.r{fill:#a01f1e;}.s{fill:#a3201f;}.t{clip-path:url(#c);}.u{clip-path:url(#d);}.v{clip-path:url(#e);}.w{clip-path:url(#f);}.x{clip-path:url(#g);}.y{fill:#871614;}.z{fill:#841512;}.aa{fill:#ac2323;}.ab{fill:#a22;}.ac{fill:#a72221;}</style><clipPath id="a"><path class="a" d="M-148.1,122.745l-.023,7.882c0-.379-.3-.733-.911-1.083l.023-7.882C-148.407,122.012-148.1,122.366-148.1,122.745Z" transform="translate(149.035 -121.662)"/></clipPath><clipPath id="b"><path class="a" d="M-144.05,122.248l-.023,7.882c0,1.175-1.1,2.347-3.208,3.574l.023-7.882C-145.145,124.6-144.054,123.423-144.05,122.248Z" transform="translate(147.281 -122.248)"/></clipPath><clipPath id="c"><path class="a" d="M-153.758,126.239l-.023,7.882c0-.488-.417-.942-1.223-1.407l.023-7.882C-154.177,125.3-153.756,125.751-153.758,126.239Z" transform="translate(155.004 -124.832)"/></clipPath><clipPath id="d"><path class="a" d="M-144.08,124.534l-.021,7.882a11.237,11.237,0,0,1-7.991,1.64l.021-7.882A11.245,11.245,0,0,0-144.08,124.534Z" transform="translate(152.092 -124.534)"/></clipPath><clipPath id="e"><path class="a" d="M-150.1,125.868l-.023,7.882c0,1.227-1.3,2.419-3.415,3.65l.021-7.882C-151.4,128.287-150.107,127.1-150.1,125.868Z" transform="translate(153.541 -125.868)"/></clipPath><clipPath id="f"><path class="a" d="M-154.025,128.751l-.023,7.882a8.965,8.965,0,0,0-2.787,2.121l.023-7.882A8.935,8.935,0,0,1-154.025,128.751Z" transform="translate(156.835 -128.751)"/></clipPath><clipPath id="g"><path class="a" d="M-142.08,130.613l-.023,7.884c-5.319,3.091-9.385,2.324-12.38.6a19.27,19.27,0,0,1-1.836-1.15l.023-7.882a18.752,18.752,0,0,0,1.836,1.15C-151.465,132.939-147.4,133.706-142.08,130.613Z" transform="translate(156.319 -130.062)"/></clipPath></defs><g transform="translate(0.999 1)"><path class="b" d="M-63.389,165.709l.013-4.728L-68.36,158.1l-5.855,3.4.021-6.77-5.8-3.35-11.81,5.057,2.915-2.3.021-7.882-5.8-3.35-5.71,2.448.015-5.735-3.966-2.291-8.116,4.718.021-7.731c0,.017-.01.031-.01.048.031-1.127-.928-2.251-2.959-3.424l-5.989-3.457-2.446,1.422.006-2.829-10.818-6.246-1.813,1.051.006-2.094-3.966-2.291-5.2,1.16.013-4.154-3.968-2.289-26.587,15.452-.021,7.882,3.966,2.289,5.095-2.961-.017,5.893,4.073,2.354,1.816-2.312-.008,3.355,10.818,6.246,2.448-1.422-.008,2.829,3.966,2.289,4.351-2.527-.015,5.032,4.029,2.326a4.485,4.485,0,0,1,.366-.408c.054-.054.1-.113.157-.167s.113-.09.165-.136c.124-.107.258-.211.4-.316l0,1.652a19.271,19.271,0,0,0,1.836,1.15,12.286,12.286,0,0,0,1.416.687c.061.025.113.061.176.084.209.084.429.151.645.22.092.031.18.065.272.092.029.008.054.021.084.029q.361.1.741.182c.14.029.285.052.427.075.038.006.073.015.109.019l.1.019c.2.027.4.05.6.067s.394.027.595.031c.036,0,.075,0,.113,0h.1c.138,0,.274,0,.415,0,.232-.008.467-.025.708-.048.1-.01.2-.029.3-.042s.168-.023.251-.036c.124-.019.243-.029.366-.052l.036-.008-.008,2.888,3.644,2.1,5.509-2.414.741.429-.015,5.587,4,2.308.789-.624,0,1.078,3.644,2.1,5.524-2.406.727.419-.017,5.587,4.014,2.316,1.8-1.418-.006,2.452,3.581,2.067,4.954-2.879-.017,5.731,4.075,2.352,26.587-15.45.023-7.882-3.535-2.042Zm-63.886-21.12-.059.048c-.046.033-.109.067-.155.1.092-.067.184-.132.272-.2C-127.239,144.556-127.252,144.572-127.275,144.589Zm-3.983-4.492c.05.04.086.08.132.119C-131.172,140.177-131.207,140.137-131.257,140.1Zm.389.371c.038.048.063.1.094.147A1.579,1.579,0,0,0-130.868,140.468Zm.216.379a.808.808,0,0,1,.033.157A.842.842,0,0,0-130.652,140.847Zm5.3,7.844.115.019c.195.027.389.05.582.065s.377.027.565.031h.008l-.542.314a7.108,7.108,0,0,1-.731.373Zm11.238-11.829-.036.027c.082-.063.138-.124.211-.186C-114,136.758-114.047,136.808-114.114,136.862Zm-22.349-3.514,1.956-1.135,2.5,1.443-4.462,2.592Zm-9.253,5.377,2.5,1.443-3.407,1.979.008-2.829-.061-.033Zm33.087-3.564-.031.069a2.223,2.223,0,0,0,.1-.366A2.181,2.181,0,0,1-112.629,135.162Zm-.394.6c-.059.08-.094.159-.163.239l-.031.033C-113.138,135.941-113.09,135.851-113.023,135.761Zm-5.4-1.631a.855.855,0,0,0-.2-.48A.855.855,0,0,1-118.421,134.13Zm-.272-.557a2.539,2.539,0,0,0-.62-.482A2.539,2.539,0,0,1-118.693,133.573Zm-36.021-2.079.875-1.116,1.648-.352Z" transform="translate(176.183 -111.215)"/><g class="c"><g transform="translate(18.963 2.29)"><path class="d" d="M-155.513,112.308l-.022,7.882-11.592,6.736.022-7.882Z" transform="translate(167.127 -112.308)"/></g><g transform="translate(22.344 7.574)"><path class="e" d="M-148.127,114.832l-.022,7.882-17.362,3.707.022-7.882Z" transform="translate(165.512 -114.832)"/></g><g transform="translate(12.139 12.288)"><path class="e" d="M-166.721,117.083l-.022,7.882-3.642.7.022-7.882Z" transform="translate(170.385 -117.083)"/></g><g transform="translate(3.967 12.992)"><path class="d" d="M-166.093,117.419l-.022,7.882-8.173,4.749.022-7.882Z" transform="translate(174.288 -117.419)"/></g><g transform="translate(0 15.451)"><path class="f" d="M-172.194,120.884l-.022,7.882-3.967-2.29.022-7.882Z" transform="translate(176.182 -118.594)"/></g><g transform="translate(9.044 20.673)"><path class="f" d="M-167.767,123.44l-.022,7.882-4.074-2.352.022-7.882Z" transform="translate(171.863 -121.087)"/></g><g transform="translate(0.022)"><path class="g" d="M-136.465,118.789l-17.362,3.707-9.225,11.744-4.074-2.352,6.737-8.385-3.642.7-8.173,4.749-3.967-2.29,26.588-15.451,3.967,2.29-11.592,6.736,16.778-3.743Z" transform="translate(176.172 -111.215)"/></g><g transform="translate(13.119 11.281)"><path class="h" d="M-160.67,116.6l-.022,7.882-9.226,11.744.022-7.882Z" transform="translate(169.918 -116.602)"/></g></g><g class="c" transform="translate(14.924 8.617)"><g transform="translate(33.604 6.246)"><path class="d" d="M-149.182,118.313l-.022,7.882-3.8,2.21.022-7.882Z" transform="translate(153.007 -118.313)"/></g><g transform="translate(26.752 4.5)"><path class="f" d="M-149.4,121.435l-.022,7.882-6.853-3.956.022-7.882Z" transform="translate(156.28 -117.479)"/></g><g transform="translate(19.346 4.5)"><path class="d" d="M-152.388,117.479l-.022,7.882-7.406,4.3.022-7.882Z" transform="translate(159.817 -117.479)"/></g><g transform="translate(20.976 11.94)"><path class="d" d="M-155.213,121.032l-.022,7.882-3.8,2.21.022-7.882Z" transform="translate(159.038 -121.032)"/></g><g transform="translate(15.543 11.014)"><path class="f" d="M-156.178,123.726l-.022,7.882-5.433-3.137.022-7.882Z" transform="translate(161.633 -120.589)"/></g><g transform="translate(7.769 11.014)"><path class="d" d="M-157.549,120.589l-.022,7.882-7.774,4.518.022-7.882Z" transform="translate(165.345 -120.589)"/></g><g transform="translate(0 15.451)"><path class="f" d="M-158.214,128.955l-.022,7.882-10.819-6.246.022-7.882Z" transform="translate(169.055 -122.708)"/></g><g transform="translate(10.819 19.488)"><path class="d" d="M-160.064,124.636l-.022,7.882-3.8,2.21.022-7.882Z" transform="translate(163.889 -124.636)"/></g><g transform="translate(0.022)"><path class="g" d="M-131.638,121.576l-3.8,2.21-6.853-3.956-7.406,4.3,5.433,3.137-3.8,2.21-5.433-3.137-7.774,4.518,6.853,3.956-3.8,2.21-10.819-6.246,26.588-15.451Z" transform="translate(169.045 -115.33)"/></g></g><g class="c" transform="translate(28.182 16.271)"><g transform="translate(26.752 4.5)"><path class="f" d="M-148.012,122.239l-.022,7.882-1.914-1.1.022-7.882Z" transform="translate(149.949 -121.134)"/></g><g class="c" transform="translate(28.665 5.606)"><g class="i"><g class="c"><path class="j" d="M-148.1,122.745l-.023,7.882c0-.379-.3-.733-.911-1.083l.023-7.882c.605.35.911.7.911,1.083" transform="translate(149.035 -121.662)"/></g></g></g><g transform="translate(18.594 4.5)"><path class="d" d="M-145.665,121.134l-.022,7.882-8.157,4.74.022-7.882Z" transform="translate(153.844 -121.134)"/></g><g class="c" transform="translate(32.338 6.833)"><g class="k"><g class="c"><path class="l" d="M-145.726,122.248l-.023,7.882v.05l.023-7.882v-.05" transform="translate(148.957 -122.248)"/><path class="m" d="M-145.706,122.272l-.023,7.882a2.175,2.175,0,0,1-.038.327l.023-7.882a2.167,2.167,0,0,0,.038-.327" transform="translate(148.937 -122.222)"/><path class="n" d="M-145.693,122.428l-.023,7.882a2.076,2.076,0,0,1-.1.339l.023-7.884a2.206,2.206,0,0,0,.1-.337" transform="translate(148.886 -122.051)"/><path class="o" d="M-145.7,122.589l-.023,7.884a2.535,2.535,0,0,1-.174.369l.023-7.882a2.682,2.682,0,0,0,.174-.371" transform="translate(148.795 -121.875)"/><path class="p" d="M-145.718,122.766l-.023,7.882a3.368,3.368,0,0,1-.3.444l.023-7.882a3.841,3.841,0,0,0,.3-.444" transform="translate(148.639 -121.681)"/><path class="q" d="M-145.72,122.978l-.023,7.882a5.351,5.351,0,0,1-.567.605l.023-7.882a5.349,5.349,0,0,0,.567-.605" transform="translate(148.342 -121.449)"/><path class="r" d="M-145.36,123.267l-.023,7.882a10.918,10.918,0,0,1-1.776,1.29l.023-7.882a11.013,11.013,0,0,0,1.776-1.29" transform="translate(147.414 -121.133)"/><path class="s" d="M-147,123.883l-.023,7.882c-.084.05-.168.1-.255.151l.023-7.882.255-.151" transform="translate(147.281 -120.459)"/></g></g></g><g transform="translate(30.253 10.408)"><path class="d" d="M-146.169,123.955l-.022,7.882-2.085,1.212.022-7.882Z" transform="translate(148.276 -123.955)"/></g><g transform="translate(14.792 11.45)"><path class="f" d="M-154.264,125.246l-.022,7.882-1.374-.793.022-7.882Z" transform="translate(155.66 -124.453)"/></g><g class="c" transform="translate(16.166 12.244)"><g class="t"><g class="c"><path class="j" d="M-153.758,126.239l-.023,7.882c0-.488-.417-.942-1.223-1.407l.023-7.882c.8.465,1.225.919,1.223,1.407" transform="translate(155.004 -124.832)"/></g></g></g><g class="c" transform="translate(22.263 11.62)"><g class="u"><g class="c"><path class="s" d="M-146.758,124.534l-.021,7.882a14.543,14.543,0,0,1-2.865,1.3l.023-7.882a14.47,14.47,0,0,0,2.862-1.3" transform="translate(154.77 -124.534)"/><path class="r" d="M-148.872,125.154l-.023,7.882a11.055,11.055,0,0,1-1.434.36l.023-7.882a11.145,11.145,0,0,0,1.434-.36" transform="translate(154.021 -123.856)"/><path class="q" d="M-149.882,125.326l-.023,7.882c-.272.05-.542.088-.812.115l.021-7.882c.272-.027.542-.065.815-.115" transform="translate(153.596 -123.668)"/><path class="p" d="M-150.358,125.381l-.021,7.882c-.216.021-.431.036-.647.042l.021-7.882c.216-.006.431-.021.647-.042" transform="translate(153.258 -123.607)"/><path class="o" d="M-150.7,125.4l-.021,7.882c-.195.008-.389.008-.584,0l.023-7.882c.195,0,.387,0,.582,0" transform="translate(152.953 -123.586)"/><path class="n" d="M-150.987,125.419l-.023,7.882q-.283-.006-.565-.031l.023-7.882c.188.017.377.025.565.031" transform="translate(152.658 -123.6)"/><path class="m" d="M-151.248,125.422l-.023,7.882c-.193-.015-.387-.038-.582-.065l.023-7.882c.195.027.387.05.582.065" transform="translate(152.353 -123.634)"/><path class="l" d="M-151.569,125.4l-.023,7.882c-.168-.023-.333-.052-.5-.084l.021-7.882c.168.031.335.061.5.084" transform="translate(152.092 -123.677)"/></g></g></g><g transform="translate(0 15.451)"><path class="f" d="M-158.735,128.654l-.022,7.882-3.966-2.29.022-7.882Z" transform="translate(162.724 -126.364)"/></g><g transform="translate(3.966 11.45)"><path class="d" d="M-149.982,124.453l-.022,7.882-10.825,6.291.022-7.882Z" transform="translate(160.83 -124.453)"/></g><g class="c" transform="translate(19.229 14.413)"><g class="v"><g class="c"><path class="l" d="M-151.887,125.868l-.023,7.882v.046l.023-7.882v-.046" transform="translate(155.325 -125.868)"/><path class="m" d="M-151.868,125.89l-.023,7.882a1.645,1.645,0,0,1-.036.3l.023-7.882a1.853,1.853,0,0,0,.036-.3" transform="translate(155.307 -125.844)"/><path class="n" d="M-151.856,126.035l-.023,7.882a2.022,2.022,0,0,1-.092.318l.023-7.882a2.021,2.021,0,0,0,.092-.318" transform="translate(155.259 -125.685)"/><path class="o" d="M-151.863,126.187l-.023,7.882a2.368,2.368,0,0,1-.163.348l.023-7.882a2.6,2.6,0,0,0,.163-.348" transform="translate(155.173 -125.519)"/><path class="p" d="M-151.874,126.353l-.023,7.882a3.3,3.3,0,0,1-.291.429l.023-7.882a3.307,3.307,0,0,0,.291-.429" transform="translate(155.021 -125.337)"/><path class="q" d="M-151.867,126.558l-.023,7.882a5.231,5.231,0,0,1-.57.609l.023-7.882a5.227,5.227,0,0,0,.57-.609" transform="translate(154.724 -125.113)"/><path class="r" d="M-151.431,126.849l-.023,7.882a12.109,12.109,0,0,1-1.926,1.395l.023-7.882a12.2,12.2,0,0,0,1.926-1.395" transform="translate(153.717 -124.795)"/><path class="s" d="M-153.181,127.515l-.023,7.882c-.109.067-.222.134-.337.2l.021-7.882c.117-.067.228-.134.339-.2" transform="translate(153.541 -124.066)"/></g></g></g><g transform="translate(15.119 18.062)"><path class="d" d="M-151.372,127.611l-.022,7.882-4.109,2.388.022-7.882Z" transform="translate(155.504 -127.611)"/></g><g transform="translate(0.023)"><path class="g" d="M-147.594,139.435a8.934,8.934,0,0,0-2.787,2.121l-4.029-2.326a9.183,9.183,0,0,1,2.9-2.111l4.169-2.425c2.469-1.434,2.6-2.423.8-3.466l-1.374-.794-10.826,6.29-3.966-2.289,26.587-15.452,5.989,3.457c4.119,2.379,3.872,4.563-.239,6.95l-2.086,1.212a11.245,11.245,0,0,1-7.991,1.64c1.1,1.648-.258,3.189-3.034,4.8Zm10.217-10.568,2.622-1.524c1.9-1.1,2.113-1.941.708-2.752l-1.914-1.106-8.156,4.741,1.558.9c1.48.854,3.051.98,5.183-.26" transform="translate(162.713 -118.985)"/></g><g transform="translate(8.303 20.245)"><path class="f" d="M-154.708,130.979l-.022,7.882-4.028-2.326.022-7.882Z" transform="translate(158.759 -128.653)"/></g><g class="c" transform="translate(12.332 20.45)"><g class="w"><g class="c"><path class="s" d="M-155.155,128.751l-.023,7.882c-.22.128-.427.251-.624.371l.021-7.882c.2-.121.406-.243.626-.371" transform="translate(157.965 -128.751)"/><path class="r" d="M-154.932,128.928l-.021,7.882a9.834,9.834,0,0,0-1.625,1.16l.021-7.882a10.023,10.023,0,0,1,1.625-1.16" transform="translate(157.116 -128.557)"/><path class="q" d="M-156.3,129.482l-.021,7.882a4.36,4.36,0,0,0-.486.521l.023-7.882a4.517,4.517,0,0,1,.484-.521" transform="translate(156.862 -127.951)"/><path class="p" d="M-156.76,129.731l-.023,7.882-.052.069.023-7.882.052-.069" transform="translate(156.835 -127.679)"/></g></g></g></g><g class="c" transform="translate(41.594 26.117)"><g transform="translate(14.217 2.29)"><path class="d" d="M-129.528,124.781l-.022,7.882-19.979,11.611.022-7.882Z" transform="translate(149.53 -124.781)"/></g><g transform="translate(0.023)"><path class="g" d="M-122.113,125.978l-19.979,11.609c-5.321,3.093-9.385,2.326-12.38.6a18.757,18.757,0,0,1-1.836-1.15l3.8-2.211c.387.276.9.572,1.328.821a4.376,4.376,0,0,0,4.814-.17l20.287-11.789Z" transform="translate(156.308 -123.687)"/></g><g class="c" transform="translate(0 13.349)"><g class="x"><g class="c"><path class="s" d="M-147.788,130.325l-.023,7.884a17.118,17.118,0,0,1-3.29,1.5l.021-7.882a17.02,17.02,0,0,0,3.292-1.5" transform="translate(162.027 -129.774)"/><path class="r" d="M-150.2,131.041l-.021,7.882a12.409,12.409,0,0,1-1.679.425l.023-7.882a12.958,12.958,0,0,0,1.677-.425" transform="translate(161.15 -128.991)"/><path class="q" d="M-151.4,131.244l-.023,7.882c-.31.057-.614.1-.913.13l.021-7.882c.3-.029.605-.073.915-.13" transform="translate(160.673 -128.769)"/><path class="p" d="M-151.948,131.306l-.021,7.882c-.241.023-.475.04-.708.048l.023-7.882c.232-.008.467-.025.706-.048" transform="translate(160.303 -128.701)"/><path class="o" d="M-152.328,131.329l-.023,7.882c-.211.006-.419.008-.624,0l.021-7.882c.205.006.415,0,.626,0" transform="translate(159.977 -128.676)"/><path class="n" d="M-152.643,131.346l-.021,7.882c-.2,0-.4-.015-.595-.031l.023-7.882c.195.017.392.027.593.031" transform="translate(159.667 -128.691)"/><path class="m" d="M-152.924,131.35l-.023,7.882c-.2-.017-.4-.04-.6-.067l.023-7.882c.2.027.4.05.6.067" transform="translate(159.355 -128.726)"/><path class="l" d="M-153.186,131.342l-.023,7.882q-.327-.047-.641-.113l.023-7.882q.314.066.641.113" transform="translate(159.02 -128.785)"/><path class="y" d="M-153.44,131.324l-.023,7.882q-.38-.079-.741-.182l.021-7.882c.243.069.49.13.743.182" transform="translate(158.633 -128.88)"/><path class="z" d="M-153.66,131.32l-.021,7.882c-.346-.1-.678-.214-1-.341l.021-7.882c.325.128.658.243,1,.341" transform="translate(158.11 -129.059)"/><path class="j" d="M-152.87,131.982l-.021,7.882a11.767,11.767,0,0,1-1.591-.771,19.27,19.27,0,0,1-1.836-1.15l.023-7.882a18.752,18.752,0,0,0,1.836,1.15,12.128,12.128,0,0,0,1.589.771" transform="translate(156.319 -130.062)"/></g></g></g></g><g class="c" transform="translate(50.869 31.695)"><g transform="translate(13.264 4.295)"><path class="aa" d="M-130.187,128.4l-.022,7.882L-145.555,143l.022-7.882Z" transform="translate(145.555 -128.402)"/></g><g transform="translate(3.642 12.813)"><path class="aa" d="M-144.619,132.47l-.022,7.882-5.509,2.415.022-7.882Z" transform="translate(150.15 -132.47)"/></g><g transform="translate(0 13.125)"><path class="f" d="M-148.225,134.722l-.022,7.882-3.642-2.1.022-7.882Z" transform="translate(151.89 -132.619)"/></g><g transform="translate(9.151 12.813)"><path class="f" d="M-142.635,135.277l-.022,7.882-4.862-2.807.022-7.882Z" transform="translate(147.519 -132.47)"/></g><g transform="translate(0.022)"><path class="g" d="M-115.46,129.7-138,147.488l-4-2.31,4.136-3.206-4.862-2.808-5.507,2.414-3.644-2.1,30.616-13.125Zm-23.153,7.664,3.811,2.2,11.534-8.92-15.345,6.72" transform="translate(151.879 -126.351)"/></g><g transform="translate(13.875 3.35)"><path class="ab" d="M-122.7,127.951l-.022,7.882-22.544,17.786.022-7.882Z" transform="translate(145.264 -127.951)"/></g><g transform="translate(9.878 18.828)"><path class="f" d="M-143.153,137.65l-.022,7.882-4-2.308.022-7.882Z" transform="translate(147.172 -135.343)"/></g></g><g class="c" transform="translate(65.531 40.17)"><g transform="translate(13.264 4.294)"><path class="aa" d="M-123.17,132.449l-.022,7.882-15.361,6.71.022-7.882Z" transform="translate(138.553 -132.449)"/></g><g transform="translate(3.642 12.813)"><path class="aa" d="M-137.6,136.517l-.022,7.882-5.525,2.406.022-7.882Z" transform="translate(143.148 -136.517)"/></g><g transform="translate(0 13.116)"><path class="f" d="M-141.223,138.765l-.022,7.882-3.642-2.1.022-7.882Z" transform="translate(144.888 -136.662)"/></g><g transform="translate(9.167 12.813)"><path class="f" d="M-135.626,139.324l-.022,7.882-4.862-2.807.022-7.882Z" transform="translate(140.51 -136.517)"/></g><g transform="translate(0.022)"><path class="g" d="M-108.441,133.748l-22.546,17.784L-135,149.217l4.15-3.2-4.86-2.806-5.526,2.406-3.641-2.1,30.631-13.117Zm-23.172,7.654,3.828,2.209,11.534-8.918-15.362,6.709" transform="translate(144.877 -130.398)"/></g><g transform="translate(13.89 3.35)"><path class="ab" d="M-115.688,132l-.022,7.882-22.544,17.786.022-7.882Z" transform="translate(138.254 -131.998)"/></g><g transform="translate(9.878 18.819)"><path class="f" d="M-136.135,141.7l-.022,7.882-4.013-2.317.022-7.882Z" transform="translate(140.171 -139.385)"/></g></g><g class="c" transform="translate(81.212 46.888)"><g transform="translate(3.581 6.327)"><path class="d" d="M-116.408,136.628l-.022,7.882L-135.689,155.7l.022-7.882Z" transform="translate(135.689 -136.628)"/></g><g transform="translate(19.731 2.878)"><path class="ac" d="M-116.113,134.981l-.022,7.882-11.842,11.6.022-7.882Z" transform="translate(127.976 -134.981)"/></g><g transform="translate(0 15.451)"><path class="f" d="M-133.8,143.052l-.022,7.882-3.581-2.067.022-7.882Z" transform="translate(137.399 -140.985)"/></g><g transform="translate(0.022)"><path class="g" d="M-98.207,140.877l-26.588,15.451-4.075-2.352,14.32-14.043-19.259,11.192-3.581-2.067,26.588-15.451,4.985,2.878-11.842,11.6,15.916-9.249Z" transform="translate(137.389 -133.606)"/></g><g transform="translate(12.594 7.271)"><path class="d" d="M-104.775,137.079l-.022,7.882-26.588,15.451.022-7.882Z" transform="translate(131.385 -137.079)"/></g><g transform="translate(8.519 20.37)"><path class="f" d="M-129.234,145.686l-.022,7.882-4.075-2.352.022-7.882Z" transform="translate(133.331 -143.334)"/></g></g></g></svg>