<svg xmlns="http://www.w3.org/2000/svg" xmlns:xlink="http://www.w3.org/1999/xlink" width="158.371" height="100.673" viewBox="0 0 158.371 100.673"><defs><style>.a,.b{fill:none;}.b{stroke:#490c5a;stroke-linejoin:round;stroke-width:2px;}.c{isolation:isolate;}.d{fill:#4a0e5b;}.e{fill:#612277;}.f{fill:#501362;}.g{fill:#fff;}.h{fill:#4d115f;}.i{fill:#480b59;}.j{clip-path:url(#a);}.k{fill:#490c5a;}.l{fill:#4b0e5c;}.m{fill:#4f1361;}.n{fill:#511463;}.o{fill:#531666;}.p{fill:#551868;}.q{fill:#571a6a;}.r{fill:#591c6d;}.s{fill:#5b1d70;}.t{clip-path:url(#b);}.u{clip-path:url(#c);}.v{fill:#460957;}.w{fill:#521564;}</style><clipPath id="a"><path class="a" d="M-412.844,391.618l.1-7.813c0-.413.345-.787.961-1.143,1.342-.775,2.819-.779,4.72.364l-.1,7.813c-1.9-1.143-3.378-1.139-4.72-.364C-412.5,390.831-412.838,391.205-412.844,391.618Z" transform="translate(412.844 -382.118)"/></clipPath><clipPath id="b"><path class="a" d="M-388.428,392.417l-.1,7.811c.006-.48-.425-1.007-1.413-1.6-5.474-3.292-14.71.831-22.3-3.732-2.251-1.355-3.4-2.737-3.386-4.09l.1-7.811c-.017,1.351,1.135,2.735,3.388,4.088,7.589,4.565,16.827.442,22.3,3.734C-388.853,391.408-388.422,391.935-388.428,392.417Z" transform="translate(415.625 -382.994)"/></clipPath><clipPath id="c"><path class="a" d="M-391.47,387.434l-.1,7.811c-.015,1.229-.984,2.435-2.953,3.572-4.121,2.379-8.688,2.161-12.951-.4l.1-7.813c4.261,2.563,8.828,2.781,12.949.4C-392.454,389.867-391.484,388.661-391.47,387.434Z" transform="translate(407.47 -387.434)"/></clipPath></defs><g transform="translate(0.999 1)"><path class="b" d="M-305.045,357.612l-.048,3.987-4.272-1.493-5.279,3.049-.077,6.246-6.11-2.674-6.158,3.556-.052,4.152-3.5-2.1-13,7.5-.044,3.585-3.507-1.537-6.156,3.556-.09,7.3-6.146-3.7-4.276,2.469-.069,5.6-4.714-2.835-4.2,2.425-.038,3.032-2.555-1.535-11.483,6.627-.044,3.579a11.6,11.6,0,0,0-8.874,1.229c-1.985,1.145-2.911,2.364-2.871,3.608,0-.036-.021-.071-.021-.1l-.1,7.811a4.024,4.024,0,0,0,1.772,2.94l-2.81,1.623-.825-.5.59-.341.1-7.811-3.8-2.287-11.467,6.621-.054,4.358-1.859-3.254-4.2,2.425-.08,6.445-5.43-3.265-4.2,2.423-.1,7.813,26.585,15.986,4.2-2.425.057-4.565,5.331,1.455,4.322-2.494.027-2.241,1.884,1.135,11.469-6.621.038-3.158.025.006c.1.021.195.034.291.052l.195.033c.1.017.209.04.312.054.243.033.486.061.729.08.142.01.285.015.427.021l.132.006c.05,0,.1.006.153.006.245,0,.49,0,.735-.01.205-.008.408-.029.613-.05.04,0,.082,0,.122-.008l.084-.008q.534-.063,1.062-.176c.067-.015.13-.044.2-.059a11.778,11.778,0,0,0,1.156-.348c.188-.065.379-.113.565-.188a12.992,12.992,0,0,0,1.681-.808,10.168,10.168,0,0,0,1.357-.93c.023-.019.057-.038.08-.054a5.811,5.811,0,0,0,.722-.708l.029-.04c.021-.025.036-.052.056-.077a4.148,4.148,0,0,0,.3-.408,3.019,3.019,0,0,0,.22-.434l0-.006,0,0a2.626,2.626,0,0,0,.13-.415,2.3,2.3,0,0,0,.057-.41l0-.088.061-4.841,5.354,3.221,11.481-6.63.038-3.034,2.557,1.537,4.2-2.423.071-5.6,4.714,2.835,4.276-2.469.034-2.726,1.927,1.594,3.859-2.226.069-5.717,1-.574,5.539,2.475,4.245-2.45.052-4.3,3.62,2.176,4.2-2.423.063-5.107,3.61,2.986,3.859-2.228.069-5.714,1.011-.584,5.539,2.477,4.245-2.45.027-2.222,1.872,1.124,3.8-2.192.061-4.827,5.172,1.807,4.32-2.5.1-7.811-26.585-15.986Zm-21.74,20.733,6.332,5.237-6.349-3.817Zm-44.839,29.944.038-3.034,3.38,2.033-3.185,1.839-.825-.5Zm4.776,16.4c-.04.038-.075.075-.117.113.042-.038.075-.075.115-.113Zm-4.68-2.171a.817.817,0,0,0-.046-.207A.817.817,0,0,1-371.528,422.522Zm-.239-.593a1.619,1.619,0,0,1,.149.228A1.619,1.619,0,0,0-371.766,421.929Zm-.4-.421a3.044,3.044,0,0,1,.289.268A3.044,3.044,0,0,0-372.162,421.508Zm-9.934-5.478.006-.5.815.49Zm-10.667-3.256.008-.025Zm2.548,14.157c.142.027.285.048.427.073.167.027.333.061.5.086.044.006.088.017.132.023.214.029.425.044.639.067.258.029.513.063.771.084.042,0,.086.01.128.013.109.008.22.008.331.015q.785.053,1.566.071c.082,0,.165.008.247.01s.153,0,.23,0q1.03.013,2.04,0l-.027,2.255-4.936,2.85-2.1-1.263Zm28.361-15.824,5.239,3.149L-359.8,416.1l-2.1-1.263Zm-30.443,1.047a3.526,3.526,0,0,1,.461-.314A3.526,3.526,0,0,0-392.3,412.155Zm-.276.274-.027.036Zm-4.106,3.8c-.138-.111-.23-.222-.354-.331C-396.909,416-396.817,416.114-396.679,416.225Zm-1.315-1.4a4.186,4.186,0,0,0,.27.4A4.186,4.186,0,0,1-397.994,414.827Zm-.492-1.022a2.607,2.607,0,0,0,.119.423A2.607,2.607,0,0,1-398.486,413.8Zm-8.768,20.01-3.822-1.018-1.114-1.95Z" transform="translate(431.08 -355.447)"/><g class="c" transform="translate(116.339)"><g transform="translate(9.6 2.165)"><path class="d" d="M-354.926,366.05l-.1,7.812-15.914-9.569.1-7.812Z" transform="translate(370.937 -356.481)"/></g><g transform="translate(35.614 15.986)"><path class="e" d="M-354.1,363.081l-.1,7.812-4.321,2.495.1-7.812Z" transform="translate(358.513 -363.081)"/></g><g transform="translate(11.125 9.922)"><path class="f" d="M-345.623,368.743l-.1,7.812L-370.208,368l.1-7.812Z" transform="translate(370.208 -360.185)"/></g><g transform="translate(0.097)"><path class="g" d="M-362.125,355.447l26.585,15.986-4.321,2.5-24.489-8.558,19.257,11.579-3.8,2.192-26.585-15.985,5.278-3.047,20.236,7.074-15.914-9.569Z" transform="translate(375.475 -355.447)"/></g><g transform="translate(26.585 21.501)"><path class="e" d="M-358.932,365.715l-.1,7.812-3.8,2.192.1-7.812Z" transform="translate(362.825 -365.715)"/></g><g transform="translate(0 7.708)"><path class="d" d="M-348.839,375.113l-.1,7.812-26.585-15.986.1-7.812Z" transform="translate(375.521 -359.128)"/></g></g><g class="c" transform="translate(77.739 11.281)"><g transform="translate(33.846 4.737)"><path class="h" d="M-362.227,370l-.1,7.812-15.468-6.9.1-7.812Z" transform="translate(377.791 -363.096)"/></g><g transform="translate(48.332 13.483)"><path class="e" d="M-365.606,367.273l-.1,7.812-5.17,2.985.1-7.812Z" transform="translate(370.873 -367.273)"/></g><g transform="translate(26.253 3.555)"><path class="i" d="M-359.01,380.986l-.1,7.812-22.31-18.454.1-7.812Z" transform="translate(381.417 -362.532)"/></g><g transform="translate(22.107 7.891)"><path class="e" d="M-378.9,364.6l-.1,7.812-4.4,2.539.1-7.812Z" transform="translate(383.397 -364.602)"/></g><g transform="translate(9.708 13.108)"><path class="d" d="M-385.42,369.38l-.1,7.812-3.8-2.286.1-7.812Z" transform="translate(389.319 -367.094)"/></g><g transform="translate(13.51 12.854)"><path class="e" d="M-383.008,366.973l-.1,7.812-4.4,2.54.1-7.812Z" transform="translate(387.503 -366.973)"/></g><g transform="translate(53.503 13.483)"><path class="h" d="M-362.768,369.749l-.1,7.812-5.54-2.476.1-7.812Z" transform="translate(368.404 -367.273)"/></g><g transform="translate(59.042 13.508)"><path class="e" d="M-361.418,367.285l-.1,7.812-4.244,2.45.1-7.812Z" transform="translate(365.758 -367.285)"/></g><g transform="translate(48.563 19.781)"><path class="e" d="M-366.808,370.281l-.1,7.812-3.858,2.228.1-7.812Z" transform="translate(370.763 -370.281)"/></g><g transform="translate(26.35)"><path class="g" d="M-375.213,360.834l30.876,13.508-4.245,2.45-5.541-2.475-5.17,2.984,4.09,3.315-3.859,2.228-22.309-18.454Zm12.843,13.98,4.06-2.343-15.468-6.9,11.408,9.243" transform="translate(381.371 -360.834)"/></g><g transform="translate(17.909 12.854)"><path class="d" d="M-362.522,380.672l-.1,7.812-22.783-13.7.1-7.812Z" transform="translate(385.402 -366.973)"/></g><g transform="translate(9.804 5.605)"><path class="g" d="M-376.277,363.511l3.8,2.286-4.4,2.54,22.783,13.7-4.2,2.424-22.783-13.7-4.4,2.54-3.8-2.286Z" transform="translate(389.272 -363.511)"/></g><g transform="translate(40.692 24.13)"><path class="e" d="M-370.227,372.357l-.1,7.812-4.2,2.424.1-7.812Z" transform="translate(374.522 -372.357)"/></g><g transform="translate(7.593 19.894)"><path class="h" d="M-374.779,377.243l-.1,7.812-15.453-6.908.1-7.812Z" transform="translate(390.329 -370.335)"/></g><g transform="translate(27.235 28.649)"><path class="h" d="M-375.312,376.991l-.1,7.812-5.54-2.476.1-7.812Z" transform="translate(380.948 -374.515)"/></g><g transform="translate(32.774 28.674)"><path class="e" d="M-373.962,374.528l-.1,7.812-4.244,2.45.1-7.812Z" transform="translate(378.303 -374.528)"/></g><g transform="translate(22.08 28.649)"><path class="e" d="M-378.159,374.515l-.1,7.812-5.155,2.976.1-7.812Z" transform="translate(383.41 -374.515)"/></g><g transform="translate(0.097 15.156)"><path class="g" d="M-387.752,368.072l30.861,13.519-4.244,2.45-5.539-2.477-5.155,2.978,4.09,3.313-3.859,2.228-22.309-18.454Zm12.83,13.99,4.058-2.343-15.452-6.908,11.393,9.251" transform="translate(393.908 -368.072)"/></g><g transform="translate(0 18.712)"><path class="i" d="M-371.548,388.224l-.1,7.812-22.31-18.454.1-7.812Z" transform="translate(393.954 -369.77)"/></g><g transform="translate(22.31 34.938)"><path class="e" d="M-379.345,377.519l-.1,7.812-3.858,2.228.1-7.812Z" transform="translate(383.3 -377.519)"/></g></g><g class="c" transform="translate(58.247 33.593)"><g transform="translate(8.982 2.468)"><path class="d" d="M-387.47,379.527l-.1,7.812-11.407-6.859.1-7.812Z" transform="translate(398.974 -372.668)"/></g><g transform="translate(19.392 11.604)"><path class="e" d="M-389.122,377.031l-.1,7.812L-394,387.6l.1-7.812Z" transform="translate(394.003 -377.031)"/></g><g transform="translate(35.568 15.986)"><path class="e" d="M-381.906,379.123l-.1,7.812-4.275,2.468.1-7.812Z" transform="translate(386.278 -379.123)"/></g><g transform="translate(24.176 11.604)"><path class="d" d="M-380.23,383.881l-.1,7.812-11.391-6.85.1-7.812Z" transform="translate(391.718 -377.031)"/></g><g transform="translate(0.097)"><path class="g" d="M-389.96,371.489l26.585,15.986-4.275,2.468-11.391-6.85-4.784,2.762,11.391,6.85-4.2,2.424-26.585-15.986,4.2-2.424,11.407,6.859,4.784-2.762-11.407-6.859Z" transform="translate(403.217 -371.489)"/></g><g transform="translate(26.585 21.216)"><path class="e" d="M-386.273,381.621l-.1,7.812-4.2,2.424.1-7.812Z" transform="translate(390.567 -381.621)"/></g><g transform="translate(0 7.654)"><path class="d" d="M-376.581,391.13l-.1,7.812-26.585-15.986.1-7.812Z" transform="translate(403.263 -375.145)"/></g></g><g class="c" transform="translate(44.171 42.744)"><g transform="translate(8.016 2.286)"><path class="e" d="M-398.791,376.951l-.1,7.812-7.269,4.2.1-7.812Z" transform="translate(406.157 -376.951)"/></g><g transform="translate(19.223 9.89)"><path class="e" d="M-394.936,380.582l-.1,7.812-5.772,3.333.1-7.812Z" transform="translate(400.805 -380.582)"/></g><g transform="translate(0.097)"><path class="g" d="M-398.456,375.86l3.8,2.286-7.269,4.2,7.405,4.453,5.772-3.333,3.8,2.286-5.772,3.333,7.789,4.683,7.269-4.2,3.787,2.277-11.483,6.629-26.585-15.986Z" transform="translate(409.939 -375.86)"/></g><g transform="translate(26.585 15.986)"><path class="e" d="M-385.71,383.494l-.1,7.812-11.483,6.629.1-7.812Z" transform="translate(397.289 -383.494)"/></g><g transform="translate(0 6.63)"><path class="d" d="M-383.3,395.011l-.1,7.812-26.585-15.986.1-7.812Z" transform="translate(409.985 -379.026)"/></g></g><g class="c" transform="translate(32.361 52.548)"><g transform="translate(12.611 2.576)"><path class="e" d="M-405.524,381.771l-.1,7.812-3.982,2.3.1-7.812Z" transform="translate(409.603 -381.771)"/></g><g transform="translate(11.507 4.211)"><path class="d" d="M-408.929,383.216l-.1,7.812-1.1-.664.1-7.812Z" transform="translate(410.13 -382.552)"/></g><g class="c" transform="translate(5.824 3.303)"><g class="j"><g class="c" transform="translate(0 0)"><path class="k" d="M-409.459,382.841l-.1,7.813a7.632,7.632,0,0,0-1.1-.555l.1-7.811a7.586,7.586,0,0,1,1.1.553" transform="translate(415.239 -381.933)"/><path class="l" d="M-410.284,382.382l-.1,7.811c-.176-.071-.352-.13-.521-.18l.1-7.811a5.189,5.189,0,0,1,.523.18" transform="translate(414.966 -382.027)"/><path class="h" d="M-410.627,382.247l-.1,7.811c-.117-.034-.232-.063-.345-.086l.1-7.811c.113.023.228.052.346.086" transform="translate(414.786 -382.072)"/><path class="m" d="M-410.827,382.187l-.1,7.811c-.094-.019-.186-.036-.279-.048l.1-7.813c.092.013.184.029.279.05" transform="translate(414.64 -382.098)"/><path class="n" d="M-410.977,382.151l-.1,7.813c-.084-.013-.165-.021-.247-.027l.1-7.813c.08.006.161.017.245.027" transform="translate(414.511 -382.113)"/><path class="o" d="M-411.1,382.13l-.1,7.813c-.077-.006-.155-.01-.23-.013l.1-7.811c.078,0,.153,0,.232.01" transform="translate(414.391 -382.118)"/><path class="p" d="M-411.211,382.119l-.1,7.811c-.08,0-.157,0-.234,0l.1-7.813c.078,0,.155,0,.235,0" transform="translate(414.268 -382.119)"/><path class="q" d="M-411.312,382.12l-.1,7.813c-.086,0-.172.01-.255.021l.1-7.813c.084-.008.17-.017.255-.021" transform="translate(414.135 -382.117)"/><path class="r" d="M-411.394,382.13l-.1,7.813c-.113.013-.224.031-.333.054l.1-7.811q.163-.035.333-.057" transform="translate(413.961 -382.106)"/><path class="s" d="M-410.859,382.157l-.1,7.811a4.031,4.031,0,0,0-1.175.465,3.372,3.372,0,0,0-.486.331l.1-7.811a3.5,3.5,0,0,1,.486-.333,4.085,4.085,0,0,1,1.175-.463" transform="translate(413.093 -382.077)"/><path class="r" d="M-412.4,382.537l-.1,7.811a1.943,1.943,0,0,0-.228.224l.1-7.813a1.923,1.923,0,0,1,.228-.222" transform="translate(412.974 -381.661)"/><path class="q" d="M-412.566,382.643l-.1,7.813a1.342,1.342,0,0,0-.119.163l.1-7.811a1.225,1.225,0,0,1,.119-.165" transform="translate(412.912 -381.545)"/><path class="p" d="M-412.65,382.722l-.1,7.811a1.056,1.056,0,0,0-.069.138l.1-7.811a.857.857,0,0,1,.069-.138" transform="translate(412.876 -381.458)"/><path class="o" d="M-412.7,382.788l-.1,7.811a.72.72,0,0,0-.042.13l.1-7.813a.915.915,0,0,1,.042-.128" transform="translate(412.854 -381.386)"/><path class="n" d="M-412.73,382.849l-.1,7.813a.886.886,0,0,0-.017.128l.1-7.811a.876.876,0,0,1,.017-.13" transform="translate(412.845 -381.32)"/><path class="m" d="M-412.746,382.911l-.1,7.811,0,.029.1-7.813v-.027" transform="translate(412.844 -381.252)"/></g></g></g><g class="c" transform="translate(0 5.136)"><g class="t"><g class="c"><path class="k" d="M-401.271,388.619l-.1,7.811c.006-.48-.425-1.007-1.413-1.6a7.871,7.871,0,0,0-1.106-.549l.1-7.813a7.648,7.648,0,0,1,1.1.551c.988.593,1.42,1.12,1.413,1.6" transform="translate(428.468 -379.196)"/><path class="l" d="M-403.315,386.628l-.1,7.813a9.257,9.257,0,0,0-.9-.312l.1-7.811a9.425,9.425,0,0,1,.907.31" transform="translate(427.995 -379.358)"/><path class="h" d="M-403.783,386.426l-.1,7.811c-.274-.08-.553-.147-.84-.207l.1-7.811c.285.059.563.128.838.207" transform="translate(427.556 -379.466)"/><path class="m" d="M-404.153,386.3l-.1,7.811c-.291-.061-.591-.111-.894-.153l.1-7.813c.3.044.6.094.9.155" transform="translate(427.089 -379.547)"/><path class="n" d="M-404.464,386.207l-.1,7.813c-.366-.052-.739-.09-1.12-.119l.1-7.813q.569.044,1.118.119" transform="translate(426.504 -379.609)"/><path class="o" d="M-404.672,386.127l-.1,7.813c-.565-.044-1.147-.067-1.742-.077l.1-7.811c.595.008,1.177.031,1.744.075" transform="translate(425.594 -379.649)"/><path class="p" d="M-403.368,386.055l-.1,7.811c-1.851-.031-3.826.063-5.836.029l.1-7.811c2.008.034,3.983-.061,5.834-.029" transform="translate(422.545 -379.652)"/><path class="o" d="M-408.081,386.116l-.1,7.811c-.712-.013-1.428-.04-2.144-.1l.1-7.811c.716.054,1.434.084,2.146.1" transform="translate(421.424 -379.684)"/><path class="n" d="M-409.425,386.106l-.1,7.811c-.513-.038-1.024-.092-1.537-.163l.1-7.813c.513.071,1.024.126,1.537.165" transform="translate(420.622 -379.77)"/><path class="m" d="M-410.269,386.06l-.1,7.813c-.442-.063-.886-.138-1.325-.228l.1-7.813c.44.092.884.167,1.326.228" transform="translate(419.929 -379.889)"/><path class="h" d="M-410.916,386l-.1,7.813c-.436-.09-.867-.2-1.3-.32l.1-7.813c.431.126.863.23,1.3.32" transform="translate(419.251 -380.057)"/><path class="l" d="M-411.426,385.949l-.1,7.813a15.706,15.706,0,0,1-1.51-.519l.1-7.811a15.854,15.854,0,0,0,1.51.517" transform="translate(418.462 -380.327)"/><path class="k" d="M-410.1,388.1l-.1,7.811a14.49,14.49,0,0,1-2.044-1.016c-2.251-1.355-3.4-2.737-3.386-4.09l.1-7.811c-.017,1.351,1.135,2.735,3.388,4.088A14.163,14.163,0,0,0-410.1,388.1" transform="translate(415.625 -382.994)"/></g></g></g><g transform="translate(15.452 16.625)"><path class="d" d="M-406.524,389.458l-.1,7.812-1.625-.977.1-7.812Z" transform="translate(408.246 -388.481)"/></g><g class="c" transform="translate(17.077 14.434)"><g class="u"><g class="c"><path class="m" d="M-399.778,387.434l-.1,7.811,0,.088.1-7.813,0-.086" transform="translate(415.778 -387.434)"/><path class="n" d="M-399.75,387.475l-.1,7.813a2.3,2.3,0,0,1-.057.41l.1-7.813a2.286,2.286,0,0,0,.057-.41" transform="translate(415.748 -387.389)"/><path class="o" d="M-399.739,387.671l-.1,7.813a2.624,2.624,0,0,1-.13.415l.1-7.813a2.627,2.627,0,0,0,.13-.415" transform="translate(415.68 -387.175)"/><path class="p" d="M-399.752,387.869l-.1,7.813a3.124,3.124,0,0,1-.224.442l.1-7.813a3.224,3.224,0,0,0,.222-.442" transform="translate(415.563 -386.958)"/><path class="q" d="M-399.775,388.08l-.1,7.813a3.828,3.828,0,0,1-.381.526l.1-7.811a4.034,4.034,0,0,0,.383-.528" transform="translate(415.364 -386.727)"/><path class="r" d="M-399.78,388.332l-.1,7.811a5.966,5.966,0,0,1-.722.708l.1-7.813a5.8,5.8,0,0,0,.722-.706" transform="translate(414.987 -386.452)"/><path class="s" d="M-397.872,388.669l-.1,7.813a10.424,10.424,0,0,1-1.437.984,12.359,12.359,0,0,1-3.6,1.4l.1-7.811a12.365,12.365,0,0,0,3.6-1.405,10.112,10.112,0,0,0,1.436-.984" transform="translate(412.356 -386.083)"/><path class="r" d="M-402.353,389.81l-.1,7.811q-.528.113-1.062.176l.1-7.811q.534-.063,1.062-.176" transform="translate(411.801 -384.835)"/><path class="q" d="M-402.987,389.894l-.1,7.811c-.272.034-.547.054-.819.067l.1-7.811c.272-.013.547-.036.819-.067" transform="translate(411.373 -384.743)"/><path class="p" d="M-403.422,389.926l-.1,7.811c-.245.012-.49.015-.735.01l.1-7.811c.245,0,.49,0,.735-.01" transform="translate(410.989 -384.708)"/><path class="o" d="M-403.785,389.95l-.1,7.811c-.237,0-.473-.015-.712-.034l.1-7.813c.237.019.473.031.71.036" transform="translate(410.618 -384.721)"/><path class="n" d="M-404.114,389.956l-.1,7.813c-.243-.019-.486-.046-.729-.08l.1-7.813c.243.036.486.061.729.08" transform="translate(410.237 -384.762)"/><path class="m" d="M-404.426,389.948l-.1,7.813c-.266-.038-.532-.084-.8-.14l.1-7.811c.266.054.532.1.8.138" transform="translate(409.82 -384.835)"/><path class="h" d="M-404.725,389.935l-.1,7.811c-.32-.065-.639-.144-.959-.237l.1-7.813q.481.138.959.239" transform="translate(409.319 -384.959)"/><path class="l" d="M-405,389.931l-.1,7.813q-.653-.192-1.3-.452l.1-7.811a13.776,13.776,0,0,0,1.3.45" transform="translate(408.637 -385.195)"/><path class="k" d="M-405.139,390.065l-.1,7.811a15.767,15.767,0,0,1-2.234-1.116l.1-7.813a15.438,15.438,0,0,0,2.232,1.118" transform="translate(407.47 -385.779)"/></g></g></g><g transform="translate(0.097)"><path class="g" d="M-412.687,382.174c4.09-2.362,8.61-2.117,12.874.446l.827.5-3.983,2.3-1.1-.664c-1.9-1.143-3.378-1.139-4.72-.364s-1.378,1.646.524,2.789c5.472,3.29,14.725-.842,22.316,3.723,4.261,2.563,4.54,5.258.4,7.645-4.121,2.379-8.688,2.161-12.949-.4l-1.627-.976,3.983-2.3,1.9,1.143a4.351,4.351,0,0,0,4.751.291c1.344-.775,1.487-1.671-.4-2.8-5.472-3.292-14.71.831-22.3-3.734C-416.454,387.2-416.777,384.534-412.687,382.174Z" transform="translate(415.579 -380.541)"/></g></g><g class="c" transform="translate(15.819 59.122)"><g transform="translate(8 2.286)"><path class="e" d="M-412.338,384.773l-.1,7.812-7.269,4.2.1-7.812Z" transform="translate(419.704 -384.773)"/></g><g transform="translate(19.208 9.89)"><path class="e" d="M-408.483,388.4l-.1,7.812-5.772,3.333.1-7.812Z" transform="translate(414.352 -388.404)"/></g><g transform="translate(0.097)"><path class="g" d="M-412.011,383.681l3.8,2.286-7.269,4.2,7.405,4.453,5.772-3.333,3.8,2.286-5.772,3.333,7.789,4.683,7.269-4.2,3.787,2.277-11.467,6.621L-423.478,390.3Z" transform="translate(423.478 -383.681)"/></g><g transform="translate(26.585 15.986)"><path class="e" d="M-399.265,391.315l-.1,7.812-11.467,6.621.1-7.812Z" transform="translate(410.829 -391.315)"/></g><g transform="translate(0 6.621)"><path class="d" d="M-396.843,402.828l-.1,7.812-26.585-15.985.1-7.812Z" transform="translate(423.525 -386.843)"/></g></g><g class="c" transform="translate(0 66.848)"><g transform="translate(9.708 2.424)"><path class="v" d="M-420.266,398.678l-.1,7.812-6.081-10.151.1-7.812Z" transform="translate(426.443 -388.528)"/></g><g transform="translate(36.17 15.986)"><path class="e" d="M-409.388,395l-.1,7.812-4.321,2.5.1-7.812Z" transform="translate(413.806 -395.004)"/></g><g transform="translate(21.486 14.472)"><path class="w" d="M-406.038,398.29l-.1,7.812-14.684-4.009.1-7.812Z" transform="translate(420.819 -394.281)"/></g><g transform="translate(0.097)"><path class="g" d="M-417.127,387.37l6,10.5,20.583,5.482-4.321,2.5-14.684-4.009,1.141,2.214,8.156,4.9-4.2,2.424L-431.033,395.4l4.2-2.424,11.591,6.969-6.081-10.151Z" transform="translate(431.033 -387.37)"/></g><g transform="translate(26.585 21.59)"><path class="e" d="M-414.089,397.681l-.1,7.812-4.2,2.424.1-7.812Z" transform="translate(418.383 -397.681)"/></g><g transform="translate(0 8.028)"><path class="d" d="M-404.4,407.19l-.1,7.812-26.585-15.986.1-7.812Z" transform="translate(431.079 -391.204)"/></g></g></g></svg>