<svg xmlns="http://www.w3.org/2000/svg" xmlns:xlink="http://www.w3.org/1999/xlink" width="119.691" height="79.939" viewBox="0 0 119.691 79.939"><defs><style>.a,.b{fill:none;}.b{stroke:#831412;stroke-linejoin:round;stroke-width:2px;}.c{isolation:isolate;}.d{fill:#ac2322;}.e{fill:#a82221;}.f{fill:#a72221;}.g{fill:#831412;}.h{fill:#fff;}.i{fill:#a2201f;}.j{clip-path:url(#a);}.k{fill:#a3201f;}.l{fill:#a01f1e;}.m{fill:#9c1e1d;}.n{fill:#991d1b;}.o{fill:#951c1a;}.p{fill:#921a19;}.q{fill:#8e1917;}.r{fill:#8b1815;}.s{clip-path:url(#b);}.t{fill:#871614;}.u{fill:#841512;}.v{fill:#811310;}.w{fill:#a62121;}.x{clip-path:url(#c);}.y{clip-path:url(#d);}.z{clip-path:url(#e);}.aa{clip-path:url(#f);}.ab{clip-path:url(#g);}.ac{clip-path:url(#h);}</style><clipPath id="a"><path class="a" d="M-73.542,330.558l.023-7.882c0-.471.433-.988,1.42-1.562L-72.122,329C-73.109,329.57-73.54,330.087-73.542,330.558Z" transform="translate(73.542 -321.114)"/></clipPath><clipPath id="b"><path class="a" d="M-76.348,329.648l.021-7.882c0,1.215.959,2.419,2.94,3.564a12.454,12.454,0,0,0,12.951-.268l-.021,7.882a12.454,12.454,0,0,1-12.951.268C-75.391,332.066-76.352,330.862-76.348,329.648Z" transform="translate(76.348 -321.766)"/></clipPath><clipPath id="c"><path class="a" d="M-31.38,336.4l-.023,7.882c0-.4-.329-.785-.99-1.168l.021-7.882C-31.708,335.616-31.377,336-31.38,336.4Z" transform="translate(32.393 -335.233)"/></clipPath><clipPath id="d"><path class="a" d="M-27.34,335.95l-.023,7.882c0,1.173-1.057,2.328-3.1,3.516l.021-7.882C-28.4,338.279-27.342,337.123-27.34,335.95Z" transform="translate(30.462 -335.95)"/></clipPath><clipPath id="e"><path class="a" d="M-37.016,339.926l-.021,7.882c0-.521-.463-1.014-1.349-1.524l.023-7.884C-37.478,338.912-37.013,339.4-37.016,339.926Z" transform="translate(38.385 -338.399)"/></clipPath><clipPath id="f"><path class="a" d="M-27.188,338.212l-.023,7.882a11.111,11.111,0,0,1-8.144,1.533l.023-7.882A11.11,11.11,0,0,0-27.188,338.212Z" transform="translate(35.355 -338.212)"/></clipPath><clipPath id="g"><path class="a" d="M-33.379,339.56l-.023,7.884c0,1.233-1.265,2.414-3.321,3.61l.023-7.882C-34.646,341.976-33.383,340.8-33.379,339.56Z" transform="translate(36.723 -339.56)"/></clipPath><clipPath id="h"><path class="a" d="M-37.216,342.425l-.023,7.882a8.353,8.353,0,0,0-2.77,2.148l.021-7.882A8.338,8.338,0,0,1-37.216,342.425Z" transform="translate(40.009 -342.425)"/></clipPath></defs><g transform="translate(0.999 1)"><path class="b" d="M-75.559,332.621l-.017,6.251,4.322,2.494,4.584-6.158-.021,7.318c0,1.214.957,2.419,2.94,3.564a13.331,13.331,0,0,0,1.663.806c.029.011.057.029.086.04.373.149.752.277,1.131.385.067.019.134.031.2.048s.14.036.209.052c.151.038.3.08.45.111.245.05.492.094.737.128.082.013.163.019.243.027l.142.017c.1.01.2.025.3.034.224.019.448.029.672.036.18,0,.362,0,.542,0,.027,0,.054,0,.082,0s.052,0,.077,0c.264-.008.526-.025.789-.052.2-.021.4-.054.6-.084.075-.013.149-.019.224-.031.048-.008.1-.013.144-.021.205-.038.408-.107.611-.155s.385-.08.578-.134l-.01,3.876,11.113,6.416,1.843-1.07-.006,2.13,4.213,2.433,3.02-1.755-.01,3.493,3.8,2.192,5.25-3.051-.017,6.071,4.322,2.5,3.02-1.755-.01,3.493,11.467,6.619,2.617-1.52-.008,3.026,4.2,2.425,4.6-2.672-.015,5.319L9.4,387.934a3.808,3.808,0,0,1,.362-.421c.061-.065.115-.134.182-.2s.178-.151.268-.226c.132-.111.264-.222.413-.329.111-.079.232-.159.352-.239.157-.1.31-.205.484-.31.226-.14.454-.278.71-.427l4.111-2.387c.1-.063.209-.124.312-.186q.572-.345,1.049-.693c.042-.029.071-.061.113-.092a8.534,8.534,0,0,0,.689-.557c.061-.054.1-.111.155-.167s.13-.134.191-.2.159-.159.222-.239a3.3,3.3,0,0,0,.291-.429c.019-.031.029-.065.046-.1l.031-.067c.031-.065.067-.13.092-.195a2.343,2.343,0,0,0,.094-.323,2,2,0,0,0,.036-.316v-.048l0-1.208c.084.015.168.031.249.044.205.029.408.052.611.069s.392.025.586.031c.04,0,.077,0,.117,0l.063,0c.14,0,.279,0,.419,0q.33-.009.66-.044c.272-.027.547-.065.817-.113l.059-.015c.069-.013.14-.038.209-.052a11.823,11.823,0,0,0,1.164-.293c.155-.05.31-.124.465-.18s.3-.115.456-.178a14.584,14.584,0,0,0,1.807-.879l2.1-1.221q.119-.069.232-.138a12.459,12.459,0,0,0,1.034-.7c.075-.057.138-.113.209-.17.153-.121.318-.245.45-.366.1-.092.172-.184.26-.279.061-.063.124-.126.178-.188.036-.042.086-.084.119-.128a3.621,3.621,0,0,0,.3-.444c.036-.063.059-.126.088-.188l.036-.075c.017-.038.04-.075.052-.113a2.064,2.064,0,0,0,.1-.343,2.027,2.027,0,0,0,.038-.335l0-.052.021-7.882a2.061,2.061,0,0,1-.111.492c.339-1.336-.637-2.687-3.122-4.123l-6.343-3.662-2.617,1.522.008-3.028L8.864,348.927l-3.02,1.755.01-3.493L2.1,345.023l-4.337,2.519.015-5.015L-7.5,339.481l-3.02,1.755.01-3.493h0l-4.213-2.431-24.628,14.31.006-2.125,0,0-.126-.073,15.969-9.281.023-7.873,0,0,0,0v0l0,0-4.2-2.429-2.869,1.667.008-3.321-3.981-2.3-4.368,2.538.015-5.051-4.2-2.425-1.579.919.006-1.828-4.2-2.423-5.522,1.145.013-4.326L-58.564,310l-26.59,15.452-.021,7.882,4.213,2.433Zm8.977,2.467,0,.006,0-.006Zm.08.4a3.358,3.358,0,0,0,.312.553A3.358,3.358,0,0,1-66.5,335.492Zm.534.919a5.777,5.777,0,0,0,.611.607A5.777,5.777,0,0,1-65.969,336.411Zm.923.907a10.443,10.443,0,0,0,1.315.89A10.443,10.443,0,0,1-65.045,337.318Zm4.257-2.542,0,.019Zm10.457,10.774,4.064,2.347v0l-4.067-2.349Zm-9.262-12.126c-.142.09-.291.18-.406.268.117-.09.268-.182.417-.274Zm-.582.423,0,0,.027-.023Zm-.22.2c-.013.013-.031.027-.042.04.019-.021.046-.044.067-.065Zm-.3.41.015-.031Zm78.357,40.184c-.038.027-.092.057-.132.086.094-.067.184-.134.274-.2l-.021.017C17.741,374.574,17.709,374.605,17.663,374.639Zm-19.6-6.684,3.07,1.773-3.591,2.086.008-3.026-.461-.266Zm15.793,2.31a1.581,1.581,0,0,1,.107.155A1.581,1.581,0,0,0,13.852,370.264Zm.247.4a.977.977,0,0,1,.036.17A.977.977,0,0,0,14.1,370.662ZM13.572,370c-.05-.042-.088-.086-.144-.128C13.484,369.913,13.521,369.957,13.572,370Zm-5.928-4.056.008-3.562,1.617-.94,3.07,1.774Zm24.646-.678a3.449,3.449,0,0,1-.306.454,3.66,3.66,0,0,0,.308-.459Zm-.687.949c-.132.138-.3.276-.456.415.159-.138.329-.278.459-.417Zm-.919.812v0a12.952,12.952,0,0,1-1.269.833A12.964,12.964,0,0,0,30.684,367.025Zm-4.341-3.061a.89.89,0,0,0-.216-.517A.89.89,0,0,1,26.343,363.964Zm-.287-.591a2.888,2.888,0,0,0-.685-.53A2.888,2.888,0,0,1,26.056,363.373Zm-63.149-10.179,16.287-9.465-16.287,9.465-2.259-1.3h0Zm-6.05-3.493h0l-.124-.071h0Zm-20.167-19-.021.013.961-1.292,1.91-.379Z" transform="translate(85.176 -309.995)"/><g transform="translate(0 0)"><g class="c"><g transform="translate(19.225 2.433)"><path class="d" d="M-64.4,311.157l-.022,7.882-11.577,6.728.022-7.882Z" transform="translate(75.995 -311.157)"/></g><g transform="translate(22.807 8.037)"><path class="e" d="M-56.559,313.833l-.022,7.882-17.7,3.511.022-7.882Z" transform="translate(74.284 -313.833)"/></g><g transform="translate(12.386 12.466)"><path class="f" d="M-75.5,315.948l-.022,7.882-3.734.668.022-7.882Z" transform="translate(79.26 -315.948)"/></g><g transform="translate(4.213 13.134)"><path class="d" d="M-74.968,316.268l-.022,7.882-8.173,4.749.022-7.882Z" transform="translate(83.163 -316.268)"/></g><g transform="translate(0 15.451)"><path class="g" d="M-80.94,319.807l-.022,7.882-4.213-2.433.022-7.882Z" transform="translate(85.175 -317.374)"/></g><g transform="translate(9.6 20.994)"><path class="g" d="M-76.247,322.516l-.022,7.882-4.321-2.5.022-7.882Z" transform="translate(80.591 -320.021)"/></g><g transform="translate(0.022)"><path class="h" d="M-44.656,318.033l-17.7,3.511-8.886,11.94-4.321-2.495,6.521-8.528-3.734.668-8.173,4.749-4.213-2.433L-58.577,310l4.213,2.433-11.577,6.728,17.087-3.547Z" transform="translate(85.165 -309.995)"/></g><g transform="translate(13.921 11.548)"><path class="i" d="M-69.619,315.51l-.022,7.882-8.886,11.94.022-7.882Z" transform="translate(78.527 -315.51)"/></g></g><g class="c" transform="translate(18.485 8.945)"><g transform="translate(7.296 2.425)"><path class="d" d="M-52.341,315.425l-.022,7.882-20.5,11.914.022-7.882Z" transform="translate(72.864 -315.425)"/></g><g class="c" transform="translate(5.876 14.338)"><g class="j"><g class="c"><path class="k" d="M-72.782,321.114-72.8,329l-.113.067.023-7.882.113-.067" transform="translate(74.225 -321.114)"/><path class="l" d="M-72.48,321.146l-.023,7.882a5.076,5.076,0,0,0-.794.578l.021-7.882a4.979,4.979,0,0,1,.8-.578" transform="translate(73.81 -321.079)"/><path class="m" d="M-73.145,321.422l-.021,7.882a2.42,2.42,0,0,0-.251.268l.023-7.882a2.618,2.618,0,0,1,.249-.268" transform="translate(73.679 -320.777)"/><path class="n" d="M-73.326,321.55l-.023,7.882a1.635,1.635,0,0,0-.13.193l.021-7.882a1.661,1.661,0,0,1,.132-.193" transform="translate(73.611 -320.637)"/><path class="o" d="M-73.419,321.642l-.021,7.882a1.207,1.207,0,0,0-.075.159l.023-7.882a1.075,1.075,0,0,1,.073-.159" transform="translate(73.572 -320.536)"/><path class="p" d="M-73.471,321.718l-.023,7.882a.881.881,0,0,0-.04.14l.021-7.882a.9.9,0,0,1,.042-.14" transform="translate(73.551 -320.453)"/><path class="q" d="M-73.5,321.785l-.021,7.882a.776.776,0,0,0-.017.136l.023-7.882a.774.774,0,0,1,.015-.136" transform="translate(73.542 -320.38)"/><path class="r" d="M-73.519,321.85l-.022,7.882v.02l.022-7.882v-.02" transform="translate(73.542 -320.309)"/></g></g></g><g transform="translate(15.891 7.236)"><path class="d" d="M-48.5,317.723l-.022,7.882-20.24,11.762.022-7.882Z" transform="translate(68.759 -317.723)"/></g><g transform="translate(0.021)"><path class="h" d="M-40.206,321.5l-20.241,11.762a12.454,12.454,0,0,1-12.951.268c-4.136-2.389-3.828-5.036.421-7.5l20.238-11.764,4.2,2.425-20.5,11.913c-1.9,1.106-1.742,2-.415,2.764a4.417,4.417,0,0,0,4.766-.251l20.5-11.913Z" transform="translate(76.338 -314.267)"/></g><g class="c" transform="translate(0 15.703)"><g class="s"><g class="c"><path class="k" d="M-67.2,323.34l-.021,7.882a15.114,15.114,0,0,1-2.94,1.326l.021-7.882a15.188,15.188,0,0,0,2.94-1.326" transform="translate(83.114 -320.044)"/><path class="l" d="M-69.245,323.973l-.021,7.882a13.461,13.461,0,0,1-1.717.433l.023-7.882a13.354,13.354,0,0,0,1.715-.433" transform="translate(82.217 -319.352)"/><path class="m" d="M-70.452,324.18l-.023,7.882c-.322.059-.647.1-.972.136l.023-7.882c.322-.033.647-.077.972-.136" transform="translate(81.71 -319.125)"/><path class="n" d="M-71.012,324.245l-.023,7.882c-.264.027-.526.044-.789.052l.023-7.882c.264-.008.526-.025.789-.052" transform="translate(81.297 -319.054)"/><path class="o" d="M-71.434,324.27l-.023,7.882c-.232.008-.467.01-.7,0l.023-7.882c.232.006.467,0,.7,0" transform="translate(80.931 -319.027)"/><path class="p" d="M-71.785,324.291l-.023,7.882c-.224-.006-.448-.017-.672-.036l.021-7.882c.224.019.448.029.674.036" transform="translate(80.58 -319.043)"/><path class="q" d="M-72.1,324.3l-.021,7.882c-.228-.019-.454-.044-.683-.078l.023-7.882c.226.034.454.059.681.077" transform="translate(80.223 -319.084)"/><path class="r" d="M-72.4,324.285l-.023,7.882c-.245-.034-.492-.077-.737-.128l.023-7.882c.245.05.49.094.737.128" transform="translate(79.838 -319.15)"/><path class="t" d="M-72.685,324.268l-.023,7.882c-.287-.059-.574-.13-.861-.211l.023-7.882c.285.082.572.151.861.211" transform="translate(79.388 -319.261)"/><path class="u" d="M-72.955,324.257l-.023,7.882c-.379-.109-.758-.237-1.131-.385l.021-7.882q.562.223,1.133.385" transform="translate(78.797 -319.462)"/><path class="v" d="M-71.639,326.176l-.021,7.882a13.12,13.12,0,0,1-1.749-.846c-1.983-1.145-2.944-2.35-2.94-3.564l.021-7.882c0,1.215.959,2.419,2.94,3.564a13.267,13.267,0,0,0,1.748.846" transform="translate(76.348 -321.766)"/></g></g></g></g><g class="c" transform="translate(30.898 17.836)"><g transform="translate(8.001 2.427)"><path class="d" d="M-43.791,319.672l-.022,7.882L-66.6,340.8l.022-7.882Z" transform="translate(66.599 -319.672)"/></g><g transform="translate(0.014)"><path class="h" d="M-39.614,320.946-62.4,334.183l6.913,3.992-3.8,2.209-11.126-6.425,26.586-15.446Z" transform="translate(70.413 -318.513)"/></g><g transform="translate(11.112 19.66)"><path class="d" d="M-61.288,327.9l-.022,7.882-3.8,2.21.022-7.882Z" transform="translate(65.113 -327.902)"/></g><g transform="translate(0 15.454)"><path class="g" d="M-59.285,332.309l-.022,7.882-11.112-6.416.022-7.882Z" transform="translate(70.42 -325.893)"/></g></g><g class="c" transform="translate(43.847 25.315)"><g transform="translate(0.022)"><path class="h" d="M-33.424,324.517l-26.588,15.451-4.213-2.433,26.588-15.451Z" transform="translate(64.225 -322.085)"/></g><g transform="translate(4.213 2.433)"><path class="d" d="M-35.614,323.246l-.022,7.882L-62.224,346.58l.022-7.882Z" transform="translate(62.224 -323.246)"/></g><g transform="translate(0 15.451)"><path class="g" d="M-60,331.9l-.022,7.882-4.213-2.433.022-7.882Z" transform="translate(64.236 -329.463)"/></g></g><g class="c" transform="translate(51.07 29.485)"><g transform="translate(3.797 6.451)"><path class="d" d="M-39.693,327.157l-.022,7.882-19.259,11.192.022-7.882Z" transform="translate(58.974 -327.157)"/></g><g transform="translate(20.287 3.047)"><path class="w" d="M-39.5,325.531l-.022,7.882L-51.1,345.149l.022-7.882Z" transform="translate(51.099 -325.531)"/></g><g transform="translate(0 15.451)"><path class="g" d="M-56.968,333.647l-.022,7.882-3.8-2.192.022-7.882Z" transform="translate(60.787 -331.455)"/></g><g transform="translate(0.022)"><path class="h" d="M-20.838,331.784l-26.588,15.451-4.321-2.495,14.027-14.213-19.259,11.192-3.8-2.192,26.588-15.451,5.278,3.047-11.579,11.736,15.9-9.241Z" transform="translate(60.776 -324.076)"/></g><g transform="translate(13.35 7.708)"><path class="d" d="M-27.8,327.757l-.022,7.882L-54.411,351.09l.022-7.882Z" transform="translate(54.411 -327.757)"/></g><g transform="translate(9.029 20.664)"><path class="g" d="M-52.131,336.439l-.022,7.882-4.321-2.5.022-7.882Z" transform="translate(56.475 -333.944)"/></g></g><g class="c" transform="translate(67.43 38.93)"><g transform="translate(34.268 6.621)"><path class="d" d="M-32.8,331.748l-.022,7.882-3.787,2.2.022-7.882Z" transform="translate(36.609 -331.748)"/></g><g transform="translate(27.014 4.634)"><path class="g" d="M-32.8,334.987l-.022,7.882-7.254-4.188.022-7.882Z" transform="translate(40.073 -330.799)"/></g><g transform="translate(19.608 4.634)"><path class="d" d="M-36.182,330.8l-.022,7.882-7.406,4.3.022-7.882Z" transform="translate(43.61 -330.799)"/></g><g transform="translate(21.578 12.27)"><path class="d" d="M-38.845,334.446l-.022,7.882-3.8,2.21.022-7.882Z" transform="translate(42.67 -334.446)"/></g><g transform="translate(15.805 11.147)"><path class="g" d="M-39.632,337.243l-.022,7.882-5.772-3.333.022-7.882Z" transform="translate(45.426 -333.91)"/></g><g transform="translate(8.016 11.147)"><path class="d" d="M-41.334,333.91l-.022,7.882-7.789,4.527.022-7.882Z" transform="translate(49.146 -333.91)"/></g><g transform="translate(0 15.451)"><path class="g" d="M-41.484,342.586l-.022,7.882-11.467-6.621.022-7.882Z" transform="translate(52.974 -335.965)"/></g><g transform="translate(11.467 19.862)"><path class="d" d="M-43.673,338.072l-.022,7.882-3.8,2.21.022-7.882Z" transform="translate(47.498 -338.072)"/></g><g transform="translate(0.022)"><path class="h" d="M-14.908,335.207l-3.787,2.2-7.254-4.188-7.406,4.3,5.772,3.333-3.8,2.21-5.772-3.333-7.789,4.527,7.254,4.188-3.8,2.21-11.467-6.621,26.588-15.451Z" transform="translate(52.963 -328.587)"/></g></g><g class="c" transform="translate(81.505 47.056)"><g transform="translate(26.999 4.626)"><path class="g" d="M-31.315,335.843l-.022,7.882-2.022-1.167.022-7.882Z" transform="translate(33.359 -334.676)"/></g><g class="c" transform="translate(29.021 5.792)"><g class="x"><g class="c"><path class="v" d="M-31.38,336.4l-.023,7.882c0-.4-.329-.785-.99-1.168l.021-7.882c.664.383.995.766.993,1.168" transform="translate(32.393 -335.233)"/></g></g></g><g transform="translate(18.826 4.626)"><path class="d" d="M-29.067,334.676l-.022,7.882-8.173,4.749.022-7.882Z" transform="translate(37.262 -334.676)"/></g><g class="c" transform="translate(33.065 7.293)"><g class="y"><g class="c"><path class="r" d="M-28.959,335.95l-.021,7.882,0,.052.023-7.884v-.05" transform="translate(32.081 -335.95)"/><path class="q" d="M-28.939,335.974l-.023,7.884A2.076,2.076,0,0,1-29,344.2l.021-7.884a2.03,2.03,0,0,0,.04-.337" transform="translate(32.061 -335.924)"/><path class="p" d="M-28.927,336.135l-.021,7.884a2.1,2.1,0,0,1-.1.341l.023-7.882a2.06,2.06,0,0,0,.1-.343" transform="translate(32.009 -335.748)"/><path class="o" d="M-28.933,336.3l-.023,7.882a2.536,2.536,0,0,1-.176.377l.023-7.884a2.626,2.626,0,0,0,.176-.375" transform="translate(31.917 -335.568)"/><path class="n" d="M-28.951,336.478l-.023,7.884a3.619,3.619,0,0,1-.3.444l.021-7.882a3.5,3.5,0,0,0,.3-.446" transform="translate(31.759 -335.372)"/><path class="m" d="M-28.964,336.691l-.021,7.882a5.175,5.175,0,0,1-.557.595l.023-7.882a5.148,5.148,0,0,0,.555-.595" transform="translate(31.468 -335.139)"/><path class="l" d="M-28.634,336.975l-.023,7.882a10.368,10.368,0,0,1-1.694,1.231l.023-7.882a10.366,10.366,0,0,0,1.694-1.231" transform="translate(30.583 -334.829)"/><path class="k" d="M-30.207,337.563l-.023,7.882q-.113.069-.232.138l.021-7.882.235-.138" transform="translate(30.462 -334.185)"/></g></g></g><g transform="translate(30.963 10.81)"><path class="d" d="M-29.343,337.629l-.022,7.882-2.1,1.221.022-7.882Z" transform="translate(31.466 -337.629)"/></g><g transform="translate(15.023 11.585)"><path class="g" d="M-37.6,338.837l-.022,7.882-1.451-.838.022-7.882Z" transform="translate(39.078 -337.999)"/></g><g class="c" transform="translate(16.474 12.422)"><g class="z"><g class="c"><path class="v" d="M-37.016,339.926l-.021,7.882c0-.521-.463-1.014-1.349-1.524l.023-7.884c.884.513,1.349,1,1.346,1.527" transform="translate(38.385 -338.399)"/></g></g></g><g class="c" transform="translate(22.819 12.03)"><g class="aa"><g class="c"><path class="k" d="M-30.017,338.212l-.023,7.882a14.016,14.016,0,0,1-2.728,1.237l.023-7.882a14.015,14.015,0,0,0,2.728-1.238" transform="translate(38.184 -338.212)"/><path class="l" d="M-32,338.8l-.023,7.882a11.561,11.561,0,0,1-1.432.36l.023-7.882A11.545,11.545,0,0,0-32,338.8" transform="translate(37.436 -337.565)"/><path class="m" d="M-33,338.975l-.023,7.882q-.408.072-.817.113l.023-7.882q.408-.041.817-.113" transform="translate(37.009 -337.377)"/><path class="n" d="M-33.475,339.029l-.023,7.882q-.33.035-.66.044l.023-7.882q.33-.009.66-.044" transform="translate(36.665 -337.318)"/><path class="o" d="M-33.822,339.05l-.023,7.882c-.2.008-.4.008-.6,0l.023-7.882c.2,0,.4,0,.6,0" transform="translate(36.352 -337.295)"/><path class="p" d="M-34.115,339.068l-.023,7.882c-.195-.006-.389-.017-.586-.031l.023-7.882c.195.015.392.025.586.031" transform="translate(36.045 -337.309)"/><path class="q" d="M-34.382,339.073l-.023,7.882c-.2-.017-.406-.04-.611-.069l.023-7.882c.205.029.408.052.611.069" transform="translate(35.726 -337.346)"/><path class="r" d="M-34.64,339.066l-.023,7.882c-.224-.031-.45-.071-.676-.119l.021-7.882q.339.072.678.119" transform="translate(35.373 -337.408)"/><path class="t" d="M-35.3,338.95l-.021,7.882-.034-.006.023-7.882.031.006" transform="translate(35.355 -337.411)"/></g></g></g><g transform="translate(0 15.452)"><path class="g" d="M-42.032,342.27l-.022,7.882-4.2-2.424.022-7.882Z" transform="translate(46.252 -339.846)"/></g><g transform="translate(4.198 11.585)"><path class="d" d="M-33.4,338l-.022,7.882-10.825,6.291.022-7.882Z" transform="translate(44.247 -337.999)"/></g><g class="c" transform="translate(19.954 14.853)"><g class="ab"><g class="c"><path class="r" d="M-35.114,339.56l-.023,7.882v.048l.023-7.882v-.048" transform="translate(38.458 -339.56)"/><path class="q" d="M-35.1,339.583l-.023,7.882a2,2,0,0,1-.036.316l.021-7.884a1.98,1.98,0,0,0,.038-.314" transform="translate(38.439 -339.535)"/><path class="p" d="M-35.084,339.733l-.021,7.884a2.347,2.347,0,0,1-.094.323l.023-7.882a2.032,2.032,0,0,0,.092-.325" transform="translate(38.39 -339.371)"/><path class="o" d="M-35.087,339.888l-.023,7.882a2.673,2.673,0,0,1-.17.36l.023-7.882a2.669,2.669,0,0,0,.17-.36" transform="translate(38.302 -339.201)"/><path class="n" d="M-35.1,340.06l-.023,7.882a3.3,3.3,0,0,1-.291.429l.023-7.882a3.533,3.533,0,0,0,.291-.429" transform="translate(38.15 -339.013)"/><path class="m" d="M-35.1,340.265l-.023,7.882a5.2,5.2,0,0,1-.567.607l.023-7.882a5.2,5.2,0,0,0,.567-.607" transform="translate(37.853 -338.789)"/><path class="l" d="M-34.7,340.555l-.023,7.882a11.692,11.692,0,0,1-1.851,1.342l.021-7.882a11.623,11.623,0,0,0,1.853-1.342" transform="translate(36.886 -338.471)"/><path class="k" d="M-36.39,341.2l-.021,7.882c-.1.063-.207.124-.312.186l.023-7.882c.1-.063.209-.124.31-.186" transform="translate(36.723 -337.77)"/></g></g></g><g transform="translate(15.845 18.464)"><path class="d" d="M-34.554,341.285l-.022,7.882-4.109,2.388.022-7.882Z" transform="translate(38.686 -341.285)"/></g><g transform="translate(0.021)"><path class="h" d="M-30.4,353.319a8.338,8.338,0,0,0-2.772,2.148l-4.291-2.477c.459-.536.735-.856,2.9-2.113l4.186-2.433c2.469-1.434,2.525-2.45.611-3.556l-1.451-.838-10.826,6.292-4.2-2.425,26.59-15.452,6.343,3.662c4.351,2.513,4.226,4.768.132,7.147l-2.1,1.221a11.11,11.11,0,0,1-8.144,1.533c1.225,1.719-.1,3.3-2.865,4.9Zm9.955-10.7,2.622-1.522c1.9-1.106,2.1-1.97.6-2.835l-2.021-1.166-8.173,4.749,1.652.953a4.84,4.84,0,0,0,5.321-.178" transform="translate(46.242 -332.467)"/></g><g transform="translate(8.782 20.522)"><path class="g" d="M-37.746,344.745l-.022,7.882-4.291-2.477.022-7.882Z" transform="translate(42.058 -342.268)"/></g><g class="c" transform="translate(13.073 20.852)"><g class="ac"><g class="c"><path class="k" d="M-38.345,342.425l-.023,7.882c-.214.124-.417.245-.609.36l.023-7.882c.193-.115.4-.237.609-.36" transform="translate(41.138 -342.425)"/><path class="l" d="M-38.13,342.6l-.023,7.882a9.765,9.765,0,0,0-1.577,1.127l.023-7.882A9.665,9.665,0,0,1-38.13,342.6" transform="translate(40.314 -342.237)"/><path class="m" d="M-39.461,343.135l-.023,7.882a4.453,4.453,0,0,0-.471.507l.023-7.882a4.444,4.444,0,0,1,.471-.507" transform="translate(40.068 -341.648)"/><path class="n" d="M-39.873,343.377l-.023,7.882c-.04.05-.077.1-.113.155l.021-7.882c.038-.052.075-.1.115-.155" transform="translate(40.009 -341.384)"/></g></g></g></g></g></g></svg>