<svg xmlns="http://www.w3.org/2000/svg" xmlns:xlink="http://www.w3.org/1999/xlink" width="100.701" height="66.958" viewBox="0 0 100.701 66.958"><defs><style>.a{fill:none;}.b,.e{fill:#fff;}.b{stroke:#155e85;stroke-linejoin:round;stroke-width:2px;}.c{isolation:isolate;}.d{fill:#166fa4;}.f{fill:#08547f;}.g{fill:#166da1;}.h{clip-path:url(#a);}.i{fill:#07527d;}.j{clip-path:url(#b);}.k{fill:#0c5985;}.l{fill:#0d5b88;}.m{fill:#0f5d8b;}.n{fill:#105f8e;}.o{fill:#116292;}.p{fill:#126495;}.q{fill:#136798;}.r{fill:#14699c;}.s{clip-path:url(#c);}.t{fill:#0a5682;}.u{fill:#085480;}.v{fill:#166ca0;}.w{fill:#166c9f;}.x{fill:#14689a;}</style><clipPath id="a"><path class="a" d="M-68.847,453.942l-.023,7.882c0-.4-.358-.773-.995-1.139l.021-7.882C-69.205,453.169-68.845,453.538-68.847,453.942Z" transform="translate(69.865 -452.803)"/></clipPath><clipPath id="b"><path class="a" d="M-64.853,453.469l-.021,7.882c0,1.284-1.131,2.573-3.317,3.845l.023-7.882C-65.982,456.043-64.855,454.753-64.853,453.469Z" transform="translate(68.191 -453.469)"/></clipPath><clipPath id="c"><path class="a" d="M-63.112,456.266l-.023,7.882a12.142,12.142,0,0,1-12.845.188l.023-7.882A12.147,12.147,0,0,0-63.112,456.266Z" transform="translate(75.98 -456.266)"/></clipPath></defs><g transform="translate(1 1)"><path class="b" d="M-97.3,457.638l-.023,7.882,11.113,6.416.729-.423,0,.842,3.874,2.236,5.555-2.387,1.068.616-.017,5.587,4.245,2.45,1.952-1.568-.008,2.691,4.215,2.433,10-5.811,1.975,1.141c.191.109.383.186.574.285L-55.8,481.6l-.023,7.882,3.859,2.228,5.555-2.389,1.081.624-.015,5.587,4.245,2.452,1.952-1.571-.008,2.693,4.215,2.431,5.4-3.139-.017,6.251,4.322,2.494,8.885-11.94,17.7-3.512.021-7.882-4.213-2.433-5.505,1.147.01-4.318-4.213-2.433-6.255,3.635.021-7.235-6.144-3.547L-33,472.019l.017-6.2c0,.019-.01.036-.01.054.034-1.229-.949-2.452-3.024-3.652l-6.19-3.572-6.24,3.627.021-7.218-6.158-3.556-27.8,11.682,0-1.332,0,0-.126-.073,15.969-9.281.023-7.873,0,0,0,0v0l0,0-4.2-2.429-26.585,15.447,8,4.617v0Zm62.577,10.939-.031.025c.084-.067.144-.134.222-.2C-34.6,468.46-34.65,468.518-34.723,468.577Zm1.537-1.834-.034.069a2.326,2.326,0,0,0,.1-.4A2.306,2.306,0,0,1-33.186,466.742Zm-.406.649c-.069.094-.107.189-.186.285l-.034.034C-33.72,467.6-33.668,467.5-33.592,467.392Zm-5.233-1.872a.863.863,0,0,0-.237-.534A.863.863,0,0,1-38.825,465.52Zm-.276-.57a2.925,2.925,0,0,0-.7-.53A2.968,2.968,0,0,1-39.1,464.95Zm-47.207-.967.121.071h0l-.124-.069Z" transform="translate(97.323 -442.184)"/><g transform="translate(0.001 0)"><g class="c"><g transform="translate(8.001 2.426)"><path class="d" d="M-70.694,443.343l-.022,7.882L-93.5,464.466l.022-7.882Z" transform="translate(93.502 -443.343)"/></g><g transform="translate(0.014)"><path class="e" d="M-66.517,444.617-89.3,457.854l6.913,3.992-3.8,2.209-11.126-6.425,26.586-15.447Z" transform="translate(97.316 -442.184)"/></g><g transform="translate(11.112 19.66)"><path class="d" d="M-88.191,451.573l-.022,7.882-3.8,2.21.022-7.882Z" transform="translate(92.016 -451.573)"/></g><g transform="translate(0 15.454)"><path class="f" d="M-86.188,455.98l-.022,7.882-11.112-6.416.022-7.882Z" transform="translate(97.323 -449.564)"/></g></g><g class="c" transform="translate(11.838 9.314)"><g transform="translate(13.557 4.394)"><path class="d" d="M-69.688,448.73l-.022,7.882L-85.2,463.251l.022-7.882Z" transform="translate(85.195 -448.73)"/></g><g transform="translate(3.874 12.823)"><path class="d" d="M-84.242,452.756l-.022,7.882-5.555,2.388.022-7.882Z" transform="translate(89.82 -452.756)"/></g><g transform="translate(0 12.975)"><path class="f" d="M-87.773,455.065l-.022,7.882-3.874-2.237.022-7.882Z" transform="translate(91.67 -452.828)"/></g><g transform="translate(9.429 12.823)"><path class="f" d="M-81.989,455.732l-.022,7.882-5.155-2.976.022-7.882Z" transform="translate(87.167 -452.756)"/></g><g transform="translate(0.022)"><path class="e" d="M-54.622,450.188l-22.314,17.921-4.242-2.45,4.1-3.227-5.155-2.976-5.555,2.387-3.874-2.236,30.878-12.974Zm-23.48,7.476,4.06,2.345,11.425-8.983L-78.1,457.663" transform="translate(91.659 -446.632)"/></g><g transform="translate(14.724 3.556)"><path class="g" d="M-62.3,448.33l-.022,7.882-22.313,17.919.022-7.882Z" transform="translate(84.638 -448.33)"/></g><g transform="translate(10.479 19.025)"><path class="f" d="M-82.4,458.168l-.022,7.882-4.244-2.45.022-7.882Z" transform="translate(86.665 -455.718)"/></g></g><g class="c" transform="translate(28.506 16.461)"><g transform="translate(27.014 4.634)"><path class="f" d="M-68.811,453.4l-.022,7.882-1.976-1.141.022-7.882Z" transform="translate(70.809 -452.258)"/></g><g class="c" transform="translate(28.99 5.775)"><g class="h"><g class="c"><path class="i" d="M-68.847,453.942l-.023,7.882c0-.4-.358-.773-.995-1.139l.021-7.882c.639.366,1,.735,1,1.139" transform="translate(69.865 -452.803)"/></g></g></g><g transform="translate(18.013 4.634)"><path class="d" d="M-66.084,452.258l-.022,7.882-9,5.231.022-7.882Z" transform="translate(75.107 -452.258)"/></g><g class="c" transform="translate(32.496 7.17)"><g class="j"><g class="c"><path class="k" d="M-66.585,453.469l-.021,7.882,0,.057.023-7.882v-.057" transform="translate(69.923 -453.469)"/><path class="l" d="M-66.562,453.5l-.023,7.882a1.969,1.969,0,0,1-.044.381l.023-7.882a2.366,2.366,0,0,0,.044-.381" transform="translate(69.9 -453.439)"/><path class="m" d="M-66.548,453.678l-.023,7.882a2.468,2.468,0,0,1-.111.389l.023-7.882a2.477,2.477,0,0,0,.111-.39" transform="translate(69.842 -453.24)"/><path class="n" d="M-66.555,453.864l-.023,7.882a2.957,2.957,0,0,1-.2.423l.021-7.882a2.979,2.979,0,0,0,.2-.423" transform="translate(69.738 -453.037)"/><path class="o" d="M-66.578,454.066l-.021,7.882a4.043,4.043,0,0,1-.341.5l.021-7.882a3.762,3.762,0,0,0,.341-.5" transform="translate(69.56 -452.816)"/><path class="p" d="M-66.6,454.307l-.021,7.882a5.8,5.8,0,0,1-.62.662l.023-7.882a5.752,5.752,0,0,0,.618-.662" transform="translate(69.236 -452.552)"/><path class="q" d="M-66.289,454.623l-.023,7.882a10.923,10.923,0,0,1-1.769,1.292l.023-7.884a10.8,10.8,0,0,0,1.769-1.29" transform="translate(68.311 -452.207)"/><path class="r" d="M-67.938,455.239l-.023,7.884-.23.136.023-7.882.23-.138" transform="translate(68.191 -451.533)"/></g></g></g><g transform="translate(29.03 11.014)"><path class="d" d="M-66.358,455.3l-.022,7.882-3.465,2.014.022-7.882Z" transform="translate(69.846 -455.305)"/></g><g transform="translate(14.211 12.074)"><path class="f" d="M-74.925,456.952l-.022,7.882-1.976-1.141.022-7.882Z" transform="translate(76.923 -455.811)"/></g><g class="c" transform="translate(16.186 13.027)"><g class="s"><g class="c"><path class="r" d="M-68.288,456.266l-.023,7.882a15.021,15.021,0,0,1-2.938,1.33l.021-7.882a15.037,15.037,0,0,0,2.94-1.33" transform="translate(81.156 -456.266)"/><path class="q" d="M-70.365,456.9l-.021,7.882a12.577,12.577,0,0,1-1.652.417l.023-7.882a12.442,12.442,0,0,0,1.65-.417" transform="translate(80.293 -455.571)"/><path class="p" d="M-71.531,457.1l-.023,7.882c-.308.057-.616.1-.926.13l.023-7.882c.308-.029.618-.073.926-.13" transform="translate(79.809 -455.354)"/><path class="o" d="M-72.065,457.162l-.023,7.882c-.249.025-.5.044-.75.052l.021-7.882c.251-.01.5-.027.752-.052" transform="translate(79.417 -455.286)"/><path class="n" d="M-72.466,457.187l-.021,7.882c-.224.006-.448.008-.672,0l.021-7.882c.224.006.448,0,.672,0" transform="translate(79.066 -455.258)"/><path class="m" d="M-72.8,457.206l-.021,7.882c-.218,0-.433-.017-.649-.033l.023-7.882c.216.017.431.029.647.033" transform="translate(78.727 -455.275)"/><path class="l" d="M-73.1,457.211l-.023,7.882c-.222-.019-.442-.044-.664-.075l.023-7.882c.22.031.442.056.664.075" transform="translate(78.38 -455.314)"/><path class="k" d="M-73.389,457.2l-.023,7.882q-.358-.05-.716-.126l.021-7.882c.239.05.48.092.718.126" transform="translate(78.006 -455.38)"/><path class="t" d="M-73.66,457.185l-.021,7.882c-.287-.059-.572-.128-.856-.209l.021-7.882c.287.08.572.151.856.209" transform="translate(77.559 -455.489)"/><path class="u" d="M-73.918,457.18l-.021,7.882q-.575-.166-1.145-.389l.021-7.882c.381.149.764.279,1.145.389" transform="translate(76.96 -455.693)"/><path class="i" d="M-74.083,457.265l-.021,7.882a14.141,14.141,0,0,1-1.876-.909l.023-7.882a14.116,14.116,0,0,0,1.874.909" transform="translate(75.98 -456.168)"/></g></g></g><g transform="translate(4.213 12.074)"><path class="d" d="M-71.678,455.811l-.022,7.882-10,5.81.022-7.882Z" transform="translate(81.697 -455.811)"/></g><g transform="translate(0.022)"><path class="e" d="M-50.922,453.617c4.213,2.433,3.966,4.973-.281,7.442l-3.466,2.012a12.146,12.146,0,0,1-12.845.188l-1.975-1.141-10,5.811L-83.7,465.5l26.587-15.452Zm-8.221,7.174,3.987-2.316c1.9-1.106,1.788-1.88.446-2.655l-1.975-1.141-9,5.231,1.975,1.139c1.342.777,2.666.848,4.567-.258" transform="translate(83.699 -450.045)"/></g><g transform="translate(0 15.451)"><path class="f" d="M-79.474,459.857l-.022,7.882-4.213-2.433.022-7.882Z" transform="translate(83.71 -457.424)"/></g></g><g class="c" transform="translate(41.501 26.441)"><g transform="translate(13.557 4.384)"><path class="d" d="M-55.538,456.9l-.022,7.882-15.469,6.647.022-7.882Z" transform="translate(71.029 -456.905)"/></g><g transform="translate(3.858 12.814)"><path class="d" d="M-70.083,460.93l-.022,7.882-5.555,2.388.022-7.882Z" transform="translate(75.661 -460.93)"/></g><g transform="translate(0 12.974)"><path class="f" d="M-73.623,463.235l-.022,7.882-3.858-2.228.022-7.882Z" transform="translate(77.504 -461.007)"/></g><g transform="translate(9.414 12.814)"><path class="f" d="M-67.815,463.915l-.022,7.882-5.17-2.985.022-7.882Z" transform="translate(73.008 -460.93)"/></g><g transform="translate(0.022)"><path class="e" d="M-40.471,458.358l-22.3,17.927-4.242-2.45,4.1-3.225-5.17-2.986-5.555,2.389-3.859-2.228,30.878-12.974Zm-23.465,7.484,4.06,2.343,11.41-8.989-15.47,6.646" transform="translate(77.493 -454.811)"/></g><g transform="translate(14.724 3.546)"><path class="g" d="M-48.152,456.5l-.022,7.882-22.3,17.928.022-7.882Z" transform="translate(70.472 -456.505)"/></g><g transform="translate(10.479 19.024)"><path class="f" d="M-68.233,466.347l-.022,7.882-4.244-2.45.022-7.882Z" transform="translate(72.499 -463.896)"/></g></g><g class="c" transform="translate(58.169 33.587)"><g transform="translate(19.225 2.433)"><path class="d" d="M-48.764,459.386l-.022,7.882L-60.363,474l.022-7.882Z" transform="translate(60.363 -459.386)"/></g><g transform="translate(22.807 8.037)"><path class="v" d="M-40.928,462.062l-.022,7.882-17.7,3.511.022-7.882Z" transform="translate(58.652 -462.062)"/></g><g transform="translate(12.386 12.466)"><path class="w" d="M-59.872,464.177l-.022,7.882-3.734.668.022-7.882Z" transform="translate(63.629 -464.177)"/></g><g transform="translate(4.213 13.134)"><path class="d" d="M-59.336,464.5l-.022,7.882-8.173,4.75.022-7.882Z" transform="translate(67.531 -464.496)"/></g><g transform="translate(0 15.451)"><path class="f" d="M-65.308,468.035l-.022,7.882-4.213-2.433.022-7.882Z" transform="translate(69.544 -465.603)"/></g><g transform="translate(9.6 20.994)"><path class="f" d="M-60.615,470.744l-.022,7.882-4.321-2.495.022-7.882Z" transform="translate(64.959 -468.249)"/></g><g transform="translate(0.022)"><path class="e" d="M-29.024,466.261l-17.7,3.511-8.886,11.94-4.321-2.5,6.521-8.528-3.734.668-8.173,4.749-4.213-2.433,26.588-15.451,4.213,2.433-11.577,6.728,17.071-3.556Z" transform="translate(69.533 -458.224)"/></g><g transform="translate(13.921 11.548)"><path class="x" d="M-53.987,463.739l-.022,7.882-8.886,11.94.022-7.882Z" transform="translate(62.895 -463.739)"/></g></g></g></g></svg>