<svg xmlns="http://www.w3.org/2000/svg" xmlns:xlink="http://www.w3.org/1999/xlink" width="98.443" height="62.081" viewBox="0 0 98.443 62.081"><defs><style>.a,.b{fill:none;}.b{stroke:#831412;stroke-linejoin:round;stroke-width:2px;}.c{isolation:isolate;}.d{fill:#fff;}.e{fill:#ab2322;}.f{fill:#831412;}.g{clip-path:url(#a);}.h{fill:#811310;}.i{fill:#841512;}.j{fill:#871614;}.k{fill:#8b1815;}.l{fill:#8e1917;}.m{fill:#921a19;}.n{fill:#951c1a;}.o{fill:#991d1b;}.p{fill:#9c1e1d;}.q{fill:#a01f1e;}.r{clip-path:url(#b);}.s{clip-path:url(#c);}.t{clip-path:url(#d);}.u{clip-path:url(#e);}.v{clip-path:url(#f);}.w{clip-path:url(#g);}.x{clip-path:url(#h);}.y{clip-path:url(#i);}.z{clip-path:url(#j);}.aa{fill:#801310;}.ab{fill:#891714;}</style><clipPath id="a"><path class="a" d="M-229.42,216.282l-.1,7.813c-1.9-1.143-3.392-1.277-4.89-.413l.1-7.811C-232.812,215.007-231.322,215.138-229.42,216.282Z" transform="translate(234.406 -215.31)"/></clipPath><clipPath id="b"><path class="a" d="M-229.737,217.931l-.1,7.811c.006-.519-.459-1.087-1.535-1.734l.1-7.811C-230.2,216.844-229.73,217.412-229.737,217.931Z" transform="translate(231.368 -216.197)"/></clipPath><clipPath id="c"><path class="a" d="M-228.056,216.464l-.1,7.813a2.368,2.368,0,0,1-.4,1.24l.1-7.813A2.384,2.384,0,0,0-228.056,216.464Z" transform="translate(228.552 -216.464)"/></clipPath><clipPath id="d"><path class="a" d="M-223.261,219.516l-.1,7.813c-2.467-1.485-4.037-1.483-5.951-.377l.1-7.813C-227.3,218.035-225.73,218.033-223.261,219.516Z" transform="translate(229.311 -218.352)"/></clipPath><clipPath id="e"><path class="a" d="M-223.772,221.206l-.1,7.811c.006-.477-.45-1.005-1.493-1.631l.1-7.813C-224.224,220.2-223.767,220.727-223.772,221.206Z" transform="translate(225.363 -219.573)"/></clipPath><clipPath id="f"><path class="a" d="M-220.092,220.25l-.1,7.813c-.017,1.25-1.057,2.494-3.145,3.7l.1-7.811C-221.15,222.746-220.107,221.5-220.092,220.25Z" transform="translate(223.334 -220.25)"/></clipPath><clipPath id="g"><path class="a" d="M-242.34,229.021l.1-7.811c.006-.436.364-.831,1-1.2,1.342-.775,2.9-.823,4.8.32l-.1,7.813c-1.9-1.143-3.455-1.1-4.8-.32C-241.976,228.19-242.336,228.586-242.34,229.021Z" transform="translate(242.34 -219.45)"/></clipPath><clipPath id="h"><path class="a" d="M-245.112,228.182l.1-7.811c-.017,1.355,1.093,2.735,3.294,4.058l-.1,7.811C-244.019,230.916-245.129,229.536-245.112,228.182Z" transform="translate(245.112 -220.371)"/></clipPath><clipPath id="i"><path class="a" d="M-231.181,225.63l-.1,7.811c.006-.49-.436-1.03-1.443-1.635l.1-7.813C-231.616,224.6-231.175,225.138-231.181,225.63Z" transform="translate(232.72 -223.993)"/></clipPath><clipPath id="j"><path class="a" d="M-220.771,224.7l-.1,7.811c-.015,1.263-1.005,2.5-2.992,3.65a12.468,12.468,0,0,1-13.075-.331l.1-7.811a12.477,12.477,0,0,0,13.075.331C-221.777,227.2-220.786,225.958-220.771,224.7Z" transform="translate(236.935 -224.695)"/></clipPath></defs><g transform="translate(1 1)"><path class="b" d="M-226.056,266.727l.04-3.147,3.095,1.338,3.981-2.3.042-3.394,2.86,1.719,3.981-2.3.048-3.8c.228.061.457.121.685.17.132.027.264.046.4.069l.191.034c.075.013.153.029.228.04.249.036.5.063.745.082.18.015.362.019.542.025l.1.006.086,0c.253,0,.5,0,.758-.01s.484-.033.725-.061l.08-.006.044,0c.366-.042.731-.1,1.093-.18.071-.017.142-.048.216-.065a12.358,12.358,0,0,0,1.185-.356c.188-.065.381-.113.567-.188a13.121,13.121,0,0,0,1.707-.821,10.017,10.017,0,0,0,1.363-.936c.021-.015.052-.031.073-.048a6.2,6.2,0,0,0,.737-.722c.013-.015.021-.031.036-.048s.042-.063.067-.094a3.741,3.741,0,0,0,.289-.4,3.013,3.013,0,0,0,.23-.457l0,0v0a2.745,2.745,0,0,0,.134-.423,2.691,2.691,0,0,0,.059-.425l0-.092.065-5.227,5.727,3.445,6.621-3.824a11.567,11.567,0,0,0,1.233-.821c.067-.05.138-.1.2-.151s.111-.082.159-.121a6.226,6.226,0,0,0,.748-.733l.008-.008h0a3.955,3.955,0,0,0,.381-.526,2.878,2.878,0,0,0,.191-.375l.023-.044.015-.027a2.642,2.642,0,0,0,.128-.41,2.4,2.4,0,0,0,.057-.4l0-.084.059-4.868,5.7,3.428,4.2-2.425.044-3.574L-171.1,235l11.13-6.424.1-7.813-3.8-2.285-6.914,3.991-22.783-13.7-4.213,2.431-.046,3.577-3.011-1.811-4.2,2.423-.05,3.93a11.084,11.084,0,0,0-9.134,1.372l-6.343,3.662-.048,3.822a12.122,12.122,0,0,0-9.35,1.244c-2.029,1.171-3,2.435-2.984,3.719,0-.023-.015-.046-.015-.071l-.065,5.225-5.719-3.44-5.851,3.378-.073,6.014-5.9-2.565-5.851,3.376-.1,7.813,26.585,15.986Zm20.678-24.479a.936.936,0,0,0-.044-.209A.936.936,0,0,1-205.378,242.248Zm-.243-.6a1.726,1.726,0,0,1,.151.23A1.726,1.726,0,0,0-205.62,241.647Zm3.172-15.6a.929.929,0,0,0-.05-.23A.929.929,0,0,1-202.448,226.051Zm-.249-.645a1.908,1.908,0,0,1,.161.247A1.908,1.908,0,0,0-202.7,225.406Zm12.778,7.584a.831.831,0,0,0-.048-.205A.831.831,0,0,1-189.92,232.99Zm-.253-.591a1.611,1.611,0,0,1,.157.23A1.611,1.611,0,0,0-190.173,232.4Zm-1.233-1.005a7.267,7.267,0,0,1,.658.442A7.267,7.267,0,0,0-191.406,231.395Zm.817.58a3.63,3.63,0,0,1,.3.272A3.63,3.63,0,0,0-190.59,231.975Zm5.107,3.34c.1-.084.184-.17.272-.255h0C-185.3,235.145-185.386,235.231-185.482,235.315Zm-17.33-10.078a3.3,3.3,0,0,0-.325-.3A3.3,3.3,0,0,1-202.812,225.236Zm-.477-.442a6.772,6.772,0,0,0-.691-.469A6.772,6.772,0,0,1-203.29,224.794Zm2.783,19.367a5.54,5.54,0,0,1-.419.406c.149-.136.289-.272.413-.41Zm-5.227-2.672a3.749,3.749,0,0,0-.291-.272A3.749,3.749,0,0,1-205.734,241.49Zm-.444-.408a6.034,6.034,0,0,0-.634-.431A6.034,6.034,0,0,1-206.177,241.082Zm-20.735-8.43.008-.025Zm41,3.036-.008.006a12.238,12.238,0,0,1-1.233.821A12.169,12.169,0,0,0-185.916,235.687Zm-40.51-3.667a3.625,3.625,0,0,1,.467-.32A3.625,3.625,0,0,0-226.426,232.021Zm-.285.279-.025.033Zm-5.2,2.842a3.891,3.891,0,0,1-.258-.4A3.891,3.891,0,0,0-231.908,235.141Zm1.022,1c-.136-.111-.224-.222-.346-.333C-231.111,235.918-231.023,236.029-230.887,236.14Zm-1.644-2a2.65,2.65,0,0,1-.1-.427A2.65,2.65,0,0,0-232.53,234.138Z" transform="translate(256.314 -208.767)"/><g transform="translate(0)"><g class="c" transform="translate(58.632)"><g transform="translate(0.097)"><path class="d" d="M-224.054,208.767l22.783,13.7,6.914-3.992,3.8,2.286-11.128,6.425L-228.267,211.2Z" transform="translate(228.267 -208.767)"/></g><g transform="translate(26.585 11.994)"><path class="e" d="M-204.393,214.494l-.1,7.812-11.128,6.425.1-7.812Z" transform="translate(215.618 -214.494)"/></g><g transform="translate(0 2.433)"><path class="f" d="M-201.632,225.914l-.1,7.812-26.585-15.986.1-7.812Z" transform="translate(228.314 -209.928)"/></g></g><g class="c" transform="translate(51.379 4.197)"><g transform="translate(0.097)"><path class="d" d="M-227.534,210.771l26.585,15.986-4.2,2.424-26.585-15.986Z" transform="translate(231.732 -210.771)"/></g><g transform="translate(26.585 15.986)"><path class="e" d="M-214.787,218.405l-.1,7.812-4.2,2.424.1-7.812Z" transform="translate(219.082 -218.405)"/></g><g transform="translate(0 2.424)"><path class="f" d="M-205.1,227.914l-.1,7.812-26.585-15.986.1-7.812Z" transform="translate(231.778 -211.928)"/></g></g><g class="c" transform="translate(35.852 10.089)"><g class="c" transform="translate(10.023 3.613)"><g class="g"><g class="c" transform="translate(0 0)"><path class="h" d="M-231.348,216.091l-.1,7.813a8.423,8.423,0,0,0-1.2-.609l.1-7.811a8.411,8.411,0,0,1,1.2.607" transform="translate(236.334 -215.119)"/><path class="i" d="M-232.264,215.582l-.1,7.811c-.184-.073-.364-.136-.542-.189l.1-7.811a5.591,5.591,0,0,1,.542.188" transform="translate(236.05 -215.217)"/><path class="j" d="M-232.62,215.441l-.1,7.811q-.182-.05-.358-.088l.1-7.813c.117.025.237.054.358.09" transform="translate(235.863 -215.264)"/><path class="k" d="M-232.832,215.376l-.1,7.813c-.094-.021-.186-.036-.279-.048l.1-7.813c.092.013.184.029.278.048" transform="translate(235.718 -215.289)"/><path class="l" d="M-232.983,215.342l-.1,7.813c-.082-.013-.163-.021-.245-.027l.1-7.813c.08.006.161.017.243.027" transform="translate(235.59 -215.304)"/><path class="m" d="M-233.106,215.321l-.1,7.813c-.075-.006-.153-.01-.228-.01l.1-7.813c.075,0,.153,0,.23.01" transform="translate(235.47 -215.309)"/><path class="n" d="M-233.215,215.31l-.1,7.813c-.077,0-.155,0-.232,0l.1-7.811c.077,0,.155-.006.232,0" transform="translate(235.349 -215.31)"/><path class="o" d="M-233.313,215.312l-.1,7.811c-.086,0-.172.01-.258.021l.1-7.811c.086-.01.172-.019.258-.021" transform="translate(235.214 -215.307)"/><path class="p" d="M-233.4,215.322l-.1,7.811a3.032,3.032,0,0,0-.335.057l.1-7.813c.111-.023.222-.042.335-.054" transform="translate(235.039 -215.296)"/><path class="q" d="M-233.1,215.348l-.1,7.813a4.17,4.17,0,0,0-1.212.48l.1-7.811a4.174,4.174,0,0,1,1.212-.482" transform="translate(234.406 -215.268)"/></g></g></g><g transform="translate(8 4.173)"><path class="e" d="M-233.253,215.578l-.1,7.812-2.022,1.167.1-7.812Z" transform="translate(235.372 -215.578)"/></g><g transform="translate(14.912 4.585)"><path class="f" d="M-230.5,216.659l-.1,7.812-1.472-.885.1-7.812Z" transform="translate(232.071 -215.774)"/></g><g class="c" transform="translate(16.384 5.47)"><g class="r"><g class="c"><path class="h" d="M-229.737,217.931l-.1,7.811c.006-.519-.459-1.087-1.535-1.734l.1-7.811c1.076.647,1.541,1.214,1.535,1.734" transform="translate(231.368 -216.197)"/></g></g></g><g class="c" transform="translate(22.281 6.029)"><g class="s"><g class="c"><path class="k" d="M-228.263,216.464l-.1,7.813,0,.075.1-7.813,0-.075" transform="translate(228.759 -216.464)"/><path class="l" d="M-228.242,216.5l-.1,7.813a1.825,1.825,0,0,1-.048.348l.1-7.813a1.8,1.8,0,0,0,.048-.348" transform="translate(228.734 -216.425)"/><path class="m" d="M-228.231,216.666l-.1,7.813a2.435,2.435,0,0,1-.113.364l.1-7.813a2.214,2.214,0,0,0,.113-.364" transform="translate(228.675 -216.243)"/><path class="n" d="M-228.235,216.84l-.1,7.813a3.116,3.116,0,0,1-.207.408l.1-7.811a3.282,3.282,0,0,0,.207-.41" transform="translate(228.566 -216.053)"/><path class="o" d="M-228.428,217.036l-.1,7.811-.027.044.1-7.813.027-.042" transform="translate(228.552 -215.838)"/></g></g></g><g class="c" transform="translate(20.691 9.984)"><g class="t"><g class="c" transform="translate(0 0)"><path class="h" d="M-225.593,219.3l-.1,7.813a10.465,10.465,0,0,0-1.489-.76l.1-7.811a10.789,10.789,0,0,1,1.491.758" transform="translate(231.642 -218.14)"/><path class="i" d="M-226.764,218.658l-.1,7.811a6.251,6.251,0,0,0-.611-.212l.1-7.813c.2.059.4.13.611.214" transform="translate(231.323 -218.252)"/><path class="j" d="M-227.172,218.494l-.1,7.813c-.132-.038-.262-.071-.389-.1l.1-7.813c.128.027.258.059.389.1" transform="translate(231.119 -218.302)"/><path class="k" d="M-227.4,218.426l-.1,7.813c-.1-.023-.2-.04-.306-.054l.1-7.813c.1.015.2.033.306.054" transform="translate(230.96 -218.331)"/><path class="l" d="M-227.569,218.387l-.1,7.813c-.09-.013-.178-.023-.266-.029l.1-7.813c.088.008.178.017.266.029" transform="translate(230.821 -218.346)"/><path class="m" d="M-227.7,218.363l-.1,7.813c-.086-.006-.17-.01-.253-.013l.1-7.811c.084,0,.168,0,.253.01" transform="translate(230.688 -218.352)"/><path class="n" d="M-227.82,218.354l-.1,7.811c-.088,0-.174,0-.26,0l.1-7.813c.086,0,.174,0,.26,0" transform="translate(230.553 -218.352)"/><path class="o" d="M-227.929,218.354l-.1,7.813c-.1,0-.193.013-.289.023l.1-7.811q.144-.019.289-.025" transform="translate(230.402 -218.351)"/><path class="p" d="M-228.019,218.366l-.1,7.811c-.128.015-.255.038-.381.065l.1-7.813c.126-.027.253-.048.381-.063" transform="translate(230.203 -218.337)"/><path class="q" d="M-227.508,218.4l-.1,7.813a5.844,5.844,0,0,0-1.707.7l.1-7.813a5.926,5.926,0,0,1,1.707-.7" transform="translate(229.311 -218.305)"/></g></g></g><g transform="translate(18.825 10.771)"><path class="e" d="M-228.238,218.728l-.1,7.812-1.867,1.078.1-7.812Z" transform="translate(230.202 -218.728)"/></g><g transform="translate(26.643 11.148)"><path class="f" d="M-224.057,220.3l-.1,7.812-2.315-1.392.1-7.812Z" transform="translate(226.469 -218.908)"/></g><g class="c" transform="translate(28.959 12.54)"><g class="u"><g class="c"><path class="h" d="M-223.772,221.206l-.1,7.811c.006-.477-.45-1.005-1.493-1.631l.1-7.813c1.043.626,1.5,1.154,1.5,1.633" transform="translate(225.363 -219.573)"/></g></g></g><g class="c" transform="translate(33.207 13.957)"><g class="v"><g class="c"><path class="k" d="M-221.735,220.25l-.1,7.813,0,.084.1-7.811,0-.086" transform="translate(224.976 -220.25)"/><path class="l" d="M-221.707,220.291l-.1,7.811a2.365,2.365,0,0,1-.057.4l.1-7.811a2.216,2.216,0,0,0,.057-.4" transform="translate(224.947 -220.205)"/><path class="m" d="M-221.7,220.482l-.1,7.811a2.643,2.643,0,0,1-.128.41l.1-7.813a2.557,2.557,0,0,0,.128-.408" transform="translate(224.88 -219.996)"/><path class="n" d="M-221.705,220.677l-.1,7.813a3,3,0,0,1-.228.446l.1-7.811a3.215,3.215,0,0,0,.226-.448" transform="translate(224.761 -219.783)"/><path class="o" d="M-221.732,220.891l-.1,7.811a3.952,3.952,0,0,1-.381.526l.1-7.813a4.353,4.353,0,0,0,.381-.524" transform="translate(224.561 -219.549)"/><path class="p" d="M-221.719,221.141l-.1,7.813a6.067,6.067,0,0,1-.756.741l.1-7.811a6.381,6.381,0,0,0,.756-.743" transform="translate(224.167 -219.275)"/><path class="q" d="M-221.642,221.5l-.1,7.811a11.068,11.068,0,0,1-1.594,1.093l.1-7.811a11.565,11.565,0,0,0,1.6-1.093" transform="translate(223.334 -218.887)"/></g></g></g><g transform="translate(0.097)"><path class="d" d="M-216.866,220.854a11.228,11.228,0,0,1,8.822,1.612l2.178,1.309c4.092,2.46,4.123,5.044-.073,7.469l-6.621,3.822-26.585-15.986,6.343-3.662c4.368-2.521,8.244-2.391,12.353.08l.936.561C-216.772,217.709-215.857,219.241-216.866,220.854Zm6.678,5.271-2.314-1.392c-2.469-1.483-4.039-1.48-5.953-.377l-1.866,1.078,8.171,4.915,2.408-1.39c1.405-.81,1.533-1.644-.446-2.833m-20.959-7.2,7.038,4.232,1.635-.944c1.575-.909,1.843-1.876-.289-3.158l-1.472-.886c-1.9-1.143-3.392-1.275-4.889-.41l-2.023,1.166" transform="translate(239.146 -213.585)"/></g><g transform="translate(0 5.496)"><path class="f" d="M-212.51,232.195l-.1,7.812-26.585-15.986.1-7.812Z" transform="translate(239.192 -216.209)"/></g><g transform="translate(26.585 17.659)"><path class="e" d="M-219.779,222.018l-.1,7.812-6.621,3.823.1-7.812Z" transform="translate(226.496 -222.018)"/></g></g><g class="c" transform="translate(23.456 18.959)"><g class="c" transform="translate(5.805 3.412)"><g class="w"><g class="c" transform="translate(0 0.001)"><path class="h" d="M-238.936,220.144l-.1,7.813a7.152,7.152,0,0,0-1.034-.521l.1-7.813a7.374,7.374,0,0,1,1.034.521" transform="translate(244.827 -219.262)"/><path class="i" d="M-239.7,219.717l-.1,7.813c-.178-.071-.354-.132-.526-.182l.1-7.811c.172.05.348.109.526.18" transform="translate(244.552 -219.356)"/><path class="j" d="M-240.035,219.584l-.1,7.811c-.121-.033-.241-.065-.358-.088l.1-7.813c.117.025.237.054.358.09" transform="translate(244.365 -219.403)"/><path class="k" d="M-240.242,219.52l-.1,7.813c-.1-.021-.195-.038-.289-.052l.1-7.811q.141.019.289.05" transform="translate(244.214 -219.429)"/><path class="l" d="M-240.4,219.484l-.1,7.811c-.086-.01-.172-.021-.258-.027l.1-7.811c.086.006.172.015.258.027" transform="translate(244.079 -219.444)"/><path class="m" d="M-240.527,219.464l-.1,7.811c-.082-.006-.163-.01-.243-.013l.1-7.811c.08,0,.161,0,.243.013" transform="translate(243.953 -219.45)"/><path class="n" d="M-240.64,219.451l-.1,7.811c-.084,0-.167,0-.249,0l.1-7.811c.082,0,.163-.006.247,0" transform="translate(243.822 -219.451)"/><path class="o" d="M-240.744,219.453l-.1,7.811c-.092,0-.182.013-.272.023l.1-7.813c.09-.01.182-.017.274-.021" transform="translate(243.68 -219.448)"/><path class="p" d="M-240.837,219.463l-.1,7.813c-.117.013-.235.034-.348.057l.1-7.811c.115-.025.23-.044.348-.059" transform="translate(243.499 -219.437)"/><path class="q" d="M-240.288,219.491l-.1,7.811a4.2,4.2,0,0,0-1.221.48,3.651,3.651,0,0,0-.5.339l.1-7.811a3.469,3.469,0,0,1,.5-.341,4.2,4.2,0,0,1,1.221-.477" transform="translate(242.601 -219.406)"/><path class="p" d="M-241.88,219.882l-.1,7.811a1.953,1.953,0,0,0-.239.235l.1-7.813a1.808,1.808,0,0,1,.239-.232" transform="translate(242.477 -218.979)"/><path class="o" d="M-242.053,219.993l-.1,7.813a1.325,1.325,0,0,0-.126.172l.1-7.811a1.345,1.345,0,0,1,.126-.174" transform="translate(242.411 -218.857)"/><path class="n" d="M-242.14,220.076l-.1,7.811a.87.87,0,0,0-.073.147l.1-7.813a1.175,1.175,0,0,1,.073-.145" transform="translate(242.373 -218.766)"/><path class="m" d="M-242.191,220.145l-.1,7.813a.853.853,0,0,0-.044.136l.1-7.811a.886.886,0,0,1,.044-.138" transform="translate(242.35 -218.691)"/><path class="l" d="M-242.225,220.211l-.1,7.811a.782.782,0,0,0-.019.138l.1-7.811q.006-.069.019-.138" transform="translate(242.34 -218.619)"/><path class="k" d="M-242.244,220.277l-.1,7.811v.029l.1-7.811v-.029" transform="translate(242.34 -218.547)"/></g></g></g><g class="c" transform="translate(0 5.34)"><g class="x"><g class="c" transform="translate(0 -0.002)"><path class="h" d="M-241.722,224.43l-.1,7.811c-2.2-1.323-3.311-2.7-3.294-4.058l.1-7.813c-.017,1.357,1.093,2.737,3.294,4.06" transform="translate(245.112 -220.37)"/></g></g></g><g transform="translate(11.599 4.296)"><path class="f" d="M-225.126,228.5l-.1,7.812-14.351-8.629.1-7.812Z" transform="translate(239.573 -219.872)"/></g><g class="c" transform="translate(25.949 12.924)"><g class="y"><g class="c"><path class="h" d="M-231.181,225.63l-.1,7.811c.006-.49-.436-1.03-1.443-1.635l.1-7.813c1.007.605,1.449,1.145,1.443,1.637" transform="translate(232.72 -223.993)"/></g></g></g><g transform="translate(3.294 9.398)"><path class="f" d="M-229.613,230.624l-.1,7.812-13.829-8.316.1-7.812Z" transform="translate(243.539 -222.309)"/></g><g class="c" transform="translate(17.123 14.394)"><g class="z"><g class="c"><path class="k" d="M-229.165,224.7l-.1,7.811,0,.092.1-7.813,0-.09" transform="translate(245.328 -224.695)"/><path class="l" d="M-229.136,224.738l-.1,7.813a2.689,2.689,0,0,1-.059.425l.1-7.813a2.441,2.441,0,0,0,.059-.425" transform="translate(245.298 -224.648)"/><path class="m" d="M-229.124,224.941l-.1,7.813a2.606,2.606,0,0,1-.136.429l.1-7.813a2.744,2.744,0,0,0,.134-.429" transform="translate(245.226 -224.426)"/><path class="n" d="M-229.137,225.146l-.1,7.813a3.011,3.011,0,0,1-.23.457l.1-7.811a3.383,3.383,0,0,0,.232-.459" transform="translate(245.106 -224.202)"/><path class="o" d="M-229.165,225.365l-.1,7.811a4.08,4.08,0,0,1-.392.54l.1-7.811a4.384,4.384,0,0,0,.392-.54" transform="translate(244.902 -223.962)"/><path class="p" d="M-229.172,225.623l-.1,7.811a6.2,6.2,0,0,1-.737.722l.1-7.813a6.035,6.035,0,0,0,.737-.72" transform="translate(244.516 -223.68)"/><path class="q" d="M-227.238,225.967l-.1,7.813a10.131,10.131,0,0,1-1.436.984,12.636,12.636,0,0,1-3.675,1.43l.1-7.813a12.629,12.629,0,0,0,3.675-1.428,10.188,10.188,0,0,0,1.436-.986" transform="translate(241.846 -223.303)"/><path class="p" d="M-231.779,227.12l-.1,7.813c-.362.077-.727.138-1.093.18l.1-7.811q.55-.066,1.093-.182" transform="translate(241.275 -222.042)"/><path class="o" d="M-232.429,227.207l-.1,7.811c-.281.034-.565.057-.848.071l.1-7.813c.283-.013.567-.036.848-.069" transform="translate(240.832 -221.947)"/><path class="n" d="M-232.881,227.24l-.1,7.813c-.251.011-.5.015-.758.011l.1-7.813c.253,0,.507,0,.758-.01" transform="translate(240.436 -221.911)"/><path class="m" d="M-233.258,227.264l-.1,7.813c-.243,0-.486-.017-.729-.036l.1-7.813c.243.019.486.031.729.036" transform="translate(240.055 -221.924)"/><path class="l" d="M-233.6,227.271l-.1,7.813c-.247-.019-.5-.046-.745-.082l.1-7.813c.247.036.5.063.743.082" transform="translate(239.666 -221.967)"/><path class="k" d="M-233.914,227.263l-.1,7.813c-.272-.038-.544-.086-.817-.142l.1-7.813c.272.059.544.1.819.142" transform="translate(239.239 -222.041)"/><path class="j" d="M-234.232,227.245l-.1,7.813c-.32-.067-.639-.147-.959-.239l.1-7.811c.318.092.637.172.957.237" transform="translate(238.738 -222.165)"/><path class="i" d="M-234.513,227.242l-.1,7.811q-.65-.189-1.294-.446l.1-7.813c.429.172.861.322,1.3.448" transform="translate(238.062 -222.399)"/><path class="h" d="M-234.682,227.356l-.1,7.813a15.011,15.011,0,0,1-2.157-1.078l.1-7.811a15,15,0,0,0,2.157,1.076" transform="translate(236.935 -222.961)"/></g></g></g><g transform="translate(0.097)"><path class="d" d="M-242.068,219.511a12.491,12.491,0,0,1,13.075.329l13.829,8.317c4.247,2.553,4.416,5.329.3,7.708a12.477,12.477,0,0,1-13.075-.331l-13.829-8.315C-246.019,224.664-246.2,221.9-242.068,219.511Zm22.95,11.234-14.35-8.629c-1.9-1.143-3.455-1.1-4.8-.32s-1.455,1.69.446,2.833l14.35,8.629c1.9,1.143,3.455,1.1,4.8.32s1.455-1.69-.446-2.833" transform="translate(245.066 -217.821)"/></g></g><g class="c" transform="translate(0 26.081)"><g transform="translate(21.202 6.816)"><path class="f" d="M-227.019,235.946l-.1,7.812-19.073-11.468.1-7.812Z" transform="translate(246.189 -224.477)"/></g><g transform="translate(11.822 3.377)"><path class="aa" d="M-234.569,235.841l-.1,7.812-16-13.006.1-7.812Z" transform="translate(250.668 -222.835)"/></g><g transform="translate(40.275 15.986)"><path class="e" d="M-233,228.856l-.1,7.812-3.982,2.3.1-7.812Z" transform="translate(237.08 -228.856)"/></g><g transform="translate(11.462 12.765)"><path class="ab" d="M-228.814,236.812l-.1,7.812-21.93-9.494.1-7.812Z" transform="translate(250.84 -227.318)"/></g><g transform="translate(33.392 19.96)"><path class="e" d="M-236.289,230.754l-.1,7.812-3.982,2.3.1-7.812Z" transform="translate(240.367 -230.754)"/></g><g transform="translate(26.585 24.068)"><path class="e" d="M-239.848,232.716l-.1,7.812-3.673,2.121.1-7.812Z" transform="translate(243.618 -232.716)"/></g><g transform="translate(0 10.203)"><path class="f" d="M-229.632,242.08l-.1,7.812-26.585-15.986.1-7.812Z" transform="translate(256.314 -226.094)"/></g><g transform="translate(0.097)"><path class="d" d="M-238.6,221.222l26.585,15.986-3.982,2.3-19.073-11.468,16.171,13.143-3.982,2.3-21.93-9.493,18.8,11.3-3.673,2.121-26.585-15.986,5.849-3.377,21.976,9.557-16-13.006Z" transform="translate(256.268 -221.222)"/></g></g></g></g></svg>