<svg xmlns="http://www.w3.org/2000/svg" xmlns:xlink="http://www.w3.org/1999/xlink" width="101.947" height="66.075" viewBox="0 0 101.947 66.075"><defs><style>.a,.b{fill:none;}.b{stroke:#831412;stroke-linejoin:round;stroke-width:2px;}.c{isolation:isolate;}.d{clip-path:url(#a);}.e{fill:#811310;}.f{fill:#841512;}.g{fill:#871614;}.h{fill:#8b1815;}.i{fill:#8e1917;}.j{fill:#921a19;}.k{fill:#951c1a;}.l{fill:#991d1b;}.m{fill:#9c1e1d;}.n{fill:#a01f1e;}.o{fill:#ab2322;}.p{fill:#831412;}.q{clip-path:url(#b);}.r{clip-path:url(#c);}.s{clip-path:url(#d);}.t{clip-path:url(#e);}.u{fill:#fff;}.v{clip-path:url(#f);}.w{clip-path:url(#g);}.x{clip-path:url(#h);}.y{clip-path:url(#i);}.z{clip-path:url(#j);}.aa{clip-path:url(#k);}.ab{clip-path:url(#l);}.ac{clip-path:url(#m);}.ad{fill:#801310;}.ae{fill:#881614;}</style><clipPath id="a"><path class="a" d="M-163.73,229.9l-.1,7.813c-1.9-1.143-3.346-1.286-4.749-.473l.1-7.813C-167.076,228.617-165.629,228.758-163.73,229.9Z" transform="translate(168.575 -228.913)"/></clipPath><clipPath id="b"><path class="a" d="M-163.392,231.88l-.1,7.813c.008-.511-.463-1.08-1.564-1.742l.1-7.813C-163.855,230.8-163.386,231.369-163.392,231.88Z" transform="translate(165.055 -230.138)"/></clipPath><clipPath id="c"><path class="a" d="M-161.86,230.513l-.1,7.813a2.25,2.25,0,0,1-.318,1.1l.1-7.813A2.228,2.228,0,0,0-161.86,230.513Z" transform="translate(162.275 -230.513)"/></clipPath><clipPath id="d"><path class="a" d="M-157.045,233.646l-.1,7.811c-2.483-1.493-4.175-1.581-5.98-.54l.1-7.811C-161.221,232.063-159.529,232.153-157.045,233.646Z" transform="translate(163.122 -232.41)"/></clipPath><clipPath id="e"><path class="a" d="M-154.541,235.948l-.1,7.813a13.714,13.714,0,0,1-3.637-1.751l.1-7.813A13.611,13.611,0,0,0-154.541,235.948Z" transform="translate(158.275 -234.197)"/></clipPath><clipPath id="f"><path class="a" d="M-176.063,242.247l.1-7.813c.006-.408.333-.775.911-1.108,1.267-.731,2.775-.752,4.676.392l-.1,7.813c-1.9-1.143-3.409-1.122-4.674-.392C-175.73,241.472-176.057,241.839-176.063,242.247Z" transform="translate(176.063 -232.813)"/></clipPath><clipPath id="g"><path class="a" d="M-178.747,241.389l.1-7.811c-.017,1.353,1.129,2.758,3.394,4.119l-.1,7.813C-177.618,244.146-178.764,242.743-178.747,241.389Z" transform="translate(178.747 -233.578)"/></clipPath><clipPath id="h"><path class="a" d="M-164.967,239.02l-.1,7.811c.006-.486-.446-1.032-1.478-1.654l.1-7.811C-165.413,237.988-164.961,238.532-164.967,239.02Z" transform="translate(166.542 -237.366)"/></clipPath><clipPath id="i"><path class="a" d="M-154.987,238.165l-.1,7.811c-.015,1.181-.915,2.324-2.735,3.376-3.889,2.245-8.458,2.008-12.7-.544l.1-7.811c4.247,2.553,8.814,2.789,12.7.542C-155.9,240.489-155,239.346-154.987,238.165Z" transform="translate(170.522 -238.165)"/></clipPath><clipPath id="j"><path class="a" d="M-189.005,249.717l.1-7.811c0-.408.333-.775.911-1.11,1.25-.72,2.772-.752,4.674.392l-.1,7.813c-1.9-1.143-3.424-1.114-4.674-.392C-188.672,248.942-189,249.308-189.005,249.717Z" transform="translate(189.005 -240.287)"/></clipPath><clipPath id="k"><path class="a" d="M-191.692,248.863l.1-7.813c-.017,1.355,1.131,2.756,3.4,4.121l-.1,7.811C-190.561,251.618-191.709,250.215-191.692,248.863Z" transform="translate(191.692 -241.05)"/></clipPath><clipPath id="l"><path class="a" d="M-177.915,246.492l-.1,7.813c.006-.488-.442-1.034-1.474-1.654l.1-7.813C-178.356,245.458-177.908,246.006-177.915,246.492Z" transform="translate(179.485 -244.838)"/></clipPath><clipPath id="m"><path class="a" d="M-167.935,245.637l-.1,7.813c-.015,1.183-.915,2.326-2.728,3.373-3.905,2.255-8.458,2.01-12.7-.544l.1-7.811c4.247,2.553,8.8,2.8,12.7.544C-168.85,247.966-167.95,246.82-167.935,245.637Z" transform="translate(183.464 -245.637)"/></clipPath></defs><g transform="translate(1 0.963)"><path class="b" d="M-172.239,289.342l.036-2.986,2.911,1.286,3.75-2.165.04-3.214,2.708,1.627,3.75-2.165.046-3.656c.232.061.467.126.7.174.071.015.142.023.214.038l.186.031c.134.023.268.052.4.071.245.034.49.061.733.08.1.008.2.008.3.015l.155.006c.084,0,.168.013.251.013.243,0,.486,0,.727-.01.151-.006.3-.023.45-.036.059-.006.117-.008.174-.015s.117-.006.176-.015c.348-.04.693-.1,1.037-.172.046-.011.092-.029.138-.042.366-.084.725-.2,1.085-.322.18-.063.364-.1.542-.176a11.59,11.59,0,0,0,1.57-.754,9.107,9.107,0,0,0,1.231-.844c.017-.013.04-.025.054-.038a5.5,5.5,0,0,0,.676-.662c.017-.021.027-.04.044-.061s.048-.069.075-.1c.084-.111.174-.222.243-.335a2.992,2.992,0,0,0,.218-.433l0-.013.008-.023a2.482,2.482,0,0,0,.115-.369,2.458,2.458,0,0,0,.057-.406l0-.088.1-7.813a2.385,2.385,0,0,1-.08.394,2.441,2.441,0,0,0-.1-1.244l8.613,5.178,3.981-2.3.082-6.548c.364.188.727.366,1.1.521.08.034.159.086.239.119.211.084.425.147.637.22.165.057.329.119.494.17.065.021.13.048.195.069.327.092.651.174.976.241.075.017.149.025.222.04s.128.021.193.034c.13.023.26.05.389.067.245.036.492.063.737.082.1.008.205.008.308.015l.157.008c.082,0,.165.008.247.01.243,0,.486,0,.729-.01.153-.006.3-.023.452-.036.059-.006.117-.008.176-.015s.117-.008.174-.015c.348-.04.7-.1,1.039-.172.046-.01.092-.031.138-.042a10.68,10.68,0,0,0,1.091-.327c.178-.059.356-.1.532-.17a11.652,11.652,0,0,0,1.566-.752,9.278,9.278,0,0,0,1.238-.848c.017-.015.04-.025.057-.04a5.5,5.5,0,0,0,.676-.662c.017-.019.027-.04.042-.059s.048-.067.073-.1a3.567,3.567,0,0,0,.247-.339,3.084,3.084,0,0,0,.218-.431l0-.013.006-.021a2.624,2.624,0,0,0,.117-.371,2.4,2.4,0,0,0,.054-.4l0-.088.063-5.057,5.478,3.294,3.966-2.291.057-4.64.643.387c.31.186.58.343.829.486.084.048.157.088.235.132.161.09.314.174.452.249l.2.107c.132.067.253.128.369.182l.153.075c.153.069.293.13.423.182l0,0,.01,0c.337.136.626.226.959.333l4.029-2.326.1-7.813a13.522,13.522,0,0,1-3.669-1.694l-4.092-2.463c-2.674-1.608-5.243-2.408-7.976-1.916l.013-1.066a1.892,1.892,0,0,1-.05.341c.239-1.3-.787-2.613-3.072-3.989l-2.086-1.252c-4.108-2.471-7.892-2.655-12-.285l-5.987,3.457-.046,3.677a11.419,11.419,0,0,0-8.843,1.093c-1.876,1.085-2.752,2.274-2.7,3.5,0-.042-.025-.084-.025-.124l-.1,7.811a2.584,2.584,0,0,0,.168.842l-.716-.431.059-4.839-3.8-2.287-12.254,7.076-.036,2.743a11.334,11.334,0,0,0-7.7,1.359c-1.883,1.087-2.76,2.274-2.71,3.5,0-.042-.025-.084-.025-.126l-.063,5.057-5.478-3.292-5.524,3.189-.071,5.7-5.547-2.46-5.526,3.189-.1,7.813,26.585,15.986Zm54.054-54.632a2.506,2.506,0,0,1-.2.467,2.349,2.349,0,0,0,.214-.5Zm-3.124,17.533c-.042.044-.086.088-.132.13.048-.044.084-.088.128-.132Zm-4.554-2.2a.859.859,0,0,0-.046-.209A.859.859,0,0,1-125.863,250.046Zm-.1-.366a1.905,1.905,0,0,0-.153-.23A1.905,1.905,0,0,1-125.963,249.68Zm-.287-.408.017.023-.04-.036Zm-20.829-9.241.029-.042Zm-.153.3.008-.025Zm-.821,27.205a5.342,5.342,0,0,1-.49.482,5.3,5.3,0,0,0,.559-.574C-148.009,267.476-148.028,267.508-148.053,267.537Zm-4.917-1.843a.855.855,0,0,0-.046-.209A.877.877,0,0,1-152.97,265.694Zm-.668-1.028a3.306,3.306,0,0,1,.3.274A3.306,3.306,0,0,0-153.638,264.666Zm.415.429a1.516,1.516,0,0,1,.155.234A1.516,1.516,0,0,0-153.223,265.1Zm-1.208-1a6.935,6.935,0,0,1,.643.436A6.935,6.935,0,0,0-154.431,264.095Zm-19.749-8.418.029-.04Zm-.155.3.008-.027Zm26.83,10.652-.008.021a3.234,3.234,0,0,1-.258.433,3.265,3.265,0,0,0,.283-.54C-147.5,266.576-147.494,266.6-147.5,266.633Zm24.849-31.6a.942.942,0,0,0-.048-.22A.942.942,0,0,1-122.655,235.032Zm-.258-.637a1.781,1.781,0,0,1,.163.245A1.781,1.781,0,0,0-122.912,234.4Zm-.119-.17a3.424,3.424,0,0,0-.318-.291A3.424,3.424,0,0,1-123.032,234.226Zm-.484-.44a7.265,7.265,0,0,0-.7-.473A7.265,7.265,0,0,1-123.516,233.786Zm-22.839,5.641a3.1,3.1,0,0,0-.427.293A3.1,3.1,0,0,1-146.355,239.427Zm-4.58,4.211c-.14-.111-.235-.222-.358-.335C-151.169,243.416-151.075,243.527-150.934,243.638Zm-1.69-2.006a2.654,2.654,0,0,1-.121-.421A2.654,2.654,0,0,0-152.624,241.632Zm.645,1a4.185,4.185,0,0,1-.272-.4A4.185,4.185,0,0,0-151.979,242.635Zm-21.476,12.438a3.189,3.189,0,0,0-.429.3A3.189,3.189,0,0,1-173.455,255.074Zm-4.582,4.211c-.14-.109-.232-.22-.356-.331C-178.269,259.065-178.175,259.176-178.037,259.285Zm-1.692-2a2.921,2.921,0,0,1-.126-.421A2.921,2.921,0,0,0-179.729,257.281Zm.645,1a4.5,4.5,0,0,1-.272-.4A4.1,4.1,0,0,0-179.084,258.284Z" transform="translate(202.298 -227.236)"/><g transform="translate(0)"><g class="c" transform="translate(60.932)"><g class="c" transform="translate(9.683 3.513)"><g class="d"><g class="c" transform="translate(0 0)"><path class="e" d="M-165.565,229.712l-.1,7.813a8.606,8.606,0,0,0-1.235-.628l.1-7.811a8.8,8.8,0,0,1,1.235.626" transform="translate(170.411 -228.725)"/><path class="f" d="M-166.517,229.184l-.1,7.811c-.184-.073-.366-.136-.542-.188l.1-7.811a5.068,5.068,0,0,1,.542.188" transform="translate(170.127 -228.823)"/><path class="g" d="M-166.876,229.042l-.1,7.811c-.119-.033-.237-.063-.352-.086l.1-7.813c.117.025.232.052.352.088" transform="translate(169.944 -228.869)"/><path class="h" d="M-167.087,228.979l-.1,7.813c-.09-.021-.182-.036-.27-.048l.1-7.813c.09.013.18.029.27.048" transform="translate(169.802 -228.895)"/><path class="i" d="M-167.232,228.944l-.1,7.813c-.082-.01-.159-.021-.239-.027l.1-7.811q.119.009.239.025" transform="translate(169.678 -228.908)"/><path class="j" d="M-167.355,228.924l-.1,7.811c-.073,0-.149-.008-.222-.011l.1-7.811c.073,0,.149,0,.222.01" transform="translate(169.562 -228.913)"/><path class="k" d="M-167.461,228.914l-.1,7.811c-.075,0-.149,0-.222,0l.1-7.813c.073,0,.149,0,.222,0" transform="translate(169.446 -228.914)"/><path class="l" d="M-167.555,228.915l-.1,7.813q-.126.006-.245.019l.1-7.811c.082-.01.163-.017.245-.021" transform="translate(169.318 -228.912)"/><path class="m" d="M-167.638,228.925l-.1,7.811a3.091,3.091,0,0,0-.31.052l.1-7.813c.1-.021.205-.038.31-.05" transform="translate(169.156 -228.901)"/><path class="n" d="M-167.367,228.949l-.1,7.813a3.8,3.8,0,0,0-1.112.44l.1-7.813a3.8,3.8,0,0,1,1.112-.44" transform="translate(168.575 -228.875)"/></g></g></g><g transform="translate(7.769 4.027)"><path class="o" d="M-167.479,229.159l-.1,7.812-1.914,1.1.1-7.812Z" transform="translate(169.489 -229.159)"/></g><g transform="translate(14.433 4.5)"><path class="p" d="M-163.588,230.962l-.1,7.812-2.622-1.576.1-7.812Z" transform="translate(166.307 -229.385)"/></g><g class="c" transform="translate(17.054 6.077)"><g class="q"><g class="c"><path class="e" d="M-163.392,231.88l-.1,7.813c.008-.511-.463-1.08-1.564-1.742l.1-7.813c1.1.662,1.571,1.231,1.564,1.742" transform="translate(165.055 -230.138)"/></g></g></g><g class="c" transform="translate(22.876 6.862)"><g class="r"><g class="c"><path class="h" d="M-162.026,230.513l-.1,7.813,0,.073.1-7.811,0-.075" transform="translate(162.44 -230.513)"/><path class="i" d="M-162,230.549l-.1,7.811a2.118,2.118,0,0,1-.046.343l.1-7.811a1.933,1.933,0,0,0,.046-.343" transform="translate(162.416 -230.474)"/><path class="j" d="M-161.992,230.713l-.1,7.811a2.529,2.529,0,0,1-.111.352l.1-7.811a2.275,2.275,0,0,0,.111-.352" transform="translate(162.358 -230.294)"/><path class="k" d="M-162.02,230.881l-.1,7.811a2.92,2.92,0,0,1-.159.327l.1-7.813a2.574,2.574,0,0,0,.159-.325" transform="translate(162.275 -230.11)"/></g></g></g><g class="c" transform="translate(21.102 10.834)"><g class="s"><g class="c" transform="translate(0 0)"><path class="e" d="M-159.347,233.419l-.1,7.811a11.071,11.071,0,0,0-1.575-.8l.1-7.813a11.328,11.328,0,0,1,1.575.8" transform="translate(165.424 -232.183)"/><path class="f" d="M-160.578,232.736l-.1,7.813a6.646,6.646,0,0,0-.658-.228l.1-7.813c.214.063.434.138.658.228" transform="translate(165.08 -232.302)"/><path class="g" d="M-161.014,232.563l-.1,7.813c-.142-.042-.285-.077-.425-.107l.1-7.811c.138.029.281.065.423.1" transform="translate(164.858 -232.357)"/><path class="h" d="M-161.268,232.488l-.1,7.811c-.109-.021-.216-.04-.322-.057l.1-7.811c.107.015.216.034.325.057" transform="translate(164.69 -232.386)"/><path class="i" d="M-161.446,232.447l-.1,7.811c-.094-.013-.188-.023-.281-.029l.1-7.813c.092.008.186.019.281.031" transform="translate(164.543 -232.403)"/><path class="j" d="M-161.589,232.423l-.1,7.813q-.135-.013-.264-.013l.1-7.813q.132,0,.264.013" transform="translate(164.405 -232.409)"/><path class="k" d="M-161.713,232.41l-.1,7.813c-.09,0-.178,0-.268,0l.1-7.811c.088,0,.176-.006.266,0" transform="translate(164.265 -232.41)"/><path class="l" d="M-161.825,232.412l-.1,7.811c-.1,0-.195.013-.293.025l.1-7.813c.1-.01.2-.019.3-.023" transform="translate(164.112 -232.407)"/><path class="m" d="M-161.915,232.423l-.1,7.813c-.132.015-.264.038-.394.065l.1-7.813c.132-.027.262-.048.394-.065" transform="translate(163.906 -232.395)"/><path class="n" d="M-161.524,232.454l-.1,7.813a5.217,5.217,0,0,0-1.5.6l.1-7.811a5.164,5.164,0,0,1,1.5-.6" transform="translate(163.122 -232.361)"/></g></g></g><g transform="translate(19.728 11.53)"><path class="o" d="M-162.308,232.742l-.1,7.812-1.374.793.1-7.812Z" transform="translate(163.778 -232.742)"/></g><g transform="translate(27.082 12.07)"><path class="p" d="M-156,235.508l-.1,7.812-4.17-2.508.1-7.812Z" transform="translate(160.266 -233)"/></g><g transform="translate(34.889 14.001)"><path class="o" d="M-152.413,233.922l-.1,7.812-4.028,2.326.1-7.812Z" transform="translate(156.538 -233.922)"/></g><g class="c" transform="translate(31.252 14.576)"><g class="t"><g class="c"><path class="f" d="M-155.935,235.208l-.1,7.813c-.337-.109-.626-.2-.97-.335l.1-7.813c.341.138.63.228.967.335" transform="translate(159.669 -233.457)"/><path class="e" d="M-155.509,235.613l-.1,7.813a19.267,19.267,0,0,1-2.668-1.416l.1-7.813a18.56,18.56,0,0,0,2.668,1.416" transform="translate(158.275 -234.197)"/></g></g></g><g transform="translate(26.585 18.831)"><path class="o" d="M-156.44,236.229l-.1,7.812-3.966,2.29.1-7.812Z" transform="translate(160.503 -236.229)"/></g><g transform="translate(0.097)"><path class="u" d="M-137.9,239.542a13.522,13.522,0,0,0,3.669,1.694l-4.029,2.326a13.61,13.61,0,0,1-3.635-1.751l-4.171-2.507c-2.483-1.493-4.175-1.583-5.98-.54l-1.374.794,10.824,6.508-3.966,2.289-26.585-15.986,5.987-3.457c4.106-2.37,7.89-2.186,12,.285l2.086,1.252c2.728,1.642,3.69,3.2,2.8,4.743,2.85-.616,5.505.218,8.28,1.887Zm-18.193-6.23-2.624-1.577c-1.9-1.143-3.346-1.284-4.749-.473l-1.914,1.106,8.156,4.9,1.558-.9c1.468-.846,1.7-1.778-.427-3.059" transform="translate(173.153 -227.236)"/></g><g transform="translate(0 5.135)"><path class="p" d="M-146.517,245.674l-.1,7.812L-173.2,237.5l.1-7.812Z" transform="translate(173.199 -229.688)"/></g></g><g class="c" transform="translate(49.315 8.363)"><g class="c" transform="translate(5.62 3.315)"><g class="v"><g class="c" transform="translate(0 0)"><path class="e" d="M-172.733,233.529l-.1,7.813a7.709,7.709,0,0,0-1.081-.547l.1-7.811a7.588,7.588,0,0,1,1.083.544" transform="translate(178.416 -232.624)"/><path class="f" d="M-173.538,233.081l-.1,7.811c-.182-.071-.358-.132-.532-.182l.1-7.813a5.556,5.556,0,0,1,.532.184" transform="translate(178.138 -232.72)"/><path class="g" d="M-173.886,232.942l-.1,7.813q-.179-.05-.352-.088l.1-7.811c.115.023.232.052.352.086" transform="translate(177.955 -232.765)"/><path class="h" d="M-174.088,232.882l-.1,7.811c-.1-.021-.193-.038-.287-.05l.1-7.811c.092.013.188.029.285.05" transform="translate(177.805 -232.791)"/><path class="i" d="M-174.242,232.847l-.1,7.811c-.084-.013-.168-.021-.249-.027l.1-7.813c.082.008.165.017.251.029" transform="translate(177.674 -232.807)"/><path class="j" d="M-174.37,232.823l-.1,7.813c-.08-.006-.159-.01-.237-.01l.1-7.813c.077,0,.157,0,.237.01" transform="translate(177.551 -232.812)"/><path class="k" d="M-174.483,232.813l-.1,7.813c-.08,0-.159,0-.237,0l.1-7.811c.077,0,.157-.006.237,0" transform="translate(177.427 -232.813)"/><path class="l" d="M-174.585,232.815l-.1,7.811c-.088,0-.174.01-.258.021l.1-7.811a2.573,2.573,0,0,1,.258-.021" transform="translate(177.293 -232.81)"/><path class="m" d="M-174.669,232.825l-.1,7.811c-.113.013-.224.031-.333.054l.1-7.811c.109-.023.22-.042.333-.054" transform="translate(177.119 -232.799)"/><path class="n" d="M-174.19,232.851l-.1,7.811a3.831,3.831,0,0,0-1.11.436,3.211,3.211,0,0,0-.444.3l.1-7.813a3.215,3.215,0,0,1,.444-.3,3.826,3.826,0,0,1,1.11-.434" transform="translate(176.307 -232.771)"/><path class="m" d="M-175.629,233.2l-.1,7.813a1.787,1.787,0,0,0-.22.216l.1-7.813a1.957,1.957,0,0,1,.22-.216" transform="translate(176.192 -232.386)"/><path class="l" d="M-175.787,233.306l-.1,7.813a1.146,1.146,0,0,0-.117.159l.1-7.811a1.364,1.364,0,0,1,.117-.161" transform="translate(176.131 -232.273)"/><path class="k" d="M-175.869,233.383l-.1,7.811a1.063,1.063,0,0,0-.069.138l.1-7.811a.855.855,0,0,1,.069-.138" transform="translate(176.095 -232.189)"/><path class="j" d="M-175.916,233.449l-.1,7.811a.782.782,0,0,0-.042.13l.1-7.811a.933.933,0,0,1,.042-.13" transform="translate(176.073 -232.116)"/><path class="i" d="M-175.949,233.511l-.1,7.811a.94.94,0,0,0-.017.132l.1-7.813a.88.88,0,0,1,.017-.13" transform="translate(176.064 -232.049)"/><path class="h" d="M-175.965,233.573l-.1,7.813,0,.029.1-7.813,0-.029" transform="translate(176.063 -231.981)"/></g></g></g><g class="c" transform="translate(0 4.918)"><g class="w"><g class="c"><path class="e" d="M-175.256,237.7l-.1,7.813c-2.266-1.363-3.411-2.766-3.394-4.121l.1-7.811c-.017,1.353,1.129,2.758,3.394,4.119" transform="translate(178.747 -233.578)"/></g></g></g><g transform="translate(11.206 4.22)"><path class="p" d="M-158.948,241.874l-.1,7.812-14.351-8.629.1-7.812Z" transform="translate(173.396 -233.245)"/></g><g class="c" transform="translate(25.557 12.85)"><g class="x"><g class="c"><path class="e" d="M-164.967,239.02l-.1,7.811c.006-.486-.446-1.032-1.478-1.654l.1-7.811c1.032.622,1.485,1.166,1.478,1.654" transform="translate(166.542 -237.366)"/></g></g></g><g transform="translate(3.395 9.037)"><path class="p" d="M-163.2,243.861l-.1,7.812-13.829-8.315.1-7.812Z" transform="translate(177.126 -235.545)"/></g><g class="c" transform="translate(17.223 14.523)"><g class="y"><g class="c"><path class="h" d="M-163.052,238.165l-.1,7.811,0,.088.1-7.811,0-.088" transform="translate(178.587 -238.165)"/><path class="i" d="M-163.025,238.207l-.1,7.811a2.4,2.4,0,0,1-.054.4l.1-7.811a2.428,2.428,0,0,0,.054-.4" transform="translate(178.559 -238.119)"/><path class="j" d="M-163.013,238.4l-.1,7.811a2.653,2.653,0,0,1-.128.4l.1-7.811a2.725,2.725,0,0,0,.128-.4" transform="translate(178.492 -237.908)"/><path class="k" d="M-163.027,238.593l-.1,7.811a3.225,3.225,0,0,1-.218.434l.1-7.813a3.086,3.086,0,0,0,.218-.431" transform="translate(178.378 -237.697)"/><path class="l" d="M-163.055,238.8l-.1,7.813a3.974,3.974,0,0,1-.362.5l.1-7.811a3.991,3.991,0,0,0,.362-.5" transform="translate(178.189 -237.471)"/><path class="m" d="M-163.064,239.037l-.1,7.811a5.661,5.661,0,0,1-.676.664l.1-7.813a5.5,5.5,0,0,0,.676-.662" transform="translate(177.835 -237.211)"/><path class="n" d="M-161.326,239.353l-.1,7.813a9.262,9.262,0,0,1-1.294.886,11.446,11.446,0,0,1-3.327,1.29l.1-7.813a11.363,11.363,0,0,0,3.327-1.29,9.084,9.084,0,0,0,1.294-.886" transform="translate(175.421 -236.865)"/><path class="m" d="M-165.405,240.392l-.1,7.813c-.343.073-.691.132-1.039.172l.1-7.811c.35-.042.7-.1,1.039-.174" transform="translate(174.878 -235.729)"/><path class="l" d="M-166.025,240.475l-.1,7.811c-.266.031-.534.052-.8.065l.1-7.811c.268-.013.536-.033.8-.065" transform="translate(174.459 -235.638)"/><path class="k" d="M-166.446,240.506l-.1,7.811c-.243.013-.486.015-.729.01l.1-7.811c.243,0,.488,0,.729-.01" transform="translate(174.079 -235.604)"/><path class="j" d="M-166.8,240.53l-.1,7.811c-.237,0-.475-.015-.712-.033l.1-7.813c.237.019.475.031.712.036" transform="translate(173.707 -235.617)"/><path class="i" d="M-167.13,240.536l-.1,7.813c-.245-.019-.492-.046-.737-.082l.1-7.811c.247.034.492.061.737.08" transform="translate(173.322 -235.659)"/><path class="h" d="M-167.447,240.529l-.1,7.811c-.268-.038-.536-.084-.8-.14l.1-7.811c.268.056.536.1.8.14" transform="translate(172.901 -235.732)"/><path class="g" d="M-167.741,240.516l-.1,7.811q-.487-.1-.976-.241l.1-7.813c.325.094.649.176.974.243" transform="translate(172.392 -235.859)"/><path class="f" d="M-168.022,240.513l-.1,7.813q-.663-.195-1.326-.459l.1-7.813a13.647,13.647,0,0,0,1.328.459" transform="translate(171.699 -236.098)"/><path class="e" d="M-168.173,240.641l-.1,7.813a15.917,15.917,0,0,1-2.253-1.127l.1-7.811a15.776,15.776,0,0,0,2.251,1.124" transform="translate(170.522 -236.686)"/></g></g></g><g transform="translate(0.096)"><path class="u" d="M-175.972,232.772c3.905-2.253,8.458-2.008,12.7.544l13.829,8.315c4.249,2.555,4.571,5.241.666,7.494-3.889,2.247-8.456,2.01-12.7-.542l-13.831-8.317C-179.553,237.713-179.861,235.019-175.972,232.772Zm22.829,11.308-14.35-8.629c-1.9-1.143-3.409-1.122-4.676-.392s-1.332,1.619.57,2.762l14.35,8.629c1.9,1.143,3.409,1.122,4.674.392s1.334-1.619-.567-2.762" transform="translate(178.701 -231.23)"/></g></g><g class="c" transform="translate(32.673 14.376)"><g transform="translate(11.92 2.286)"><path class="o" d="M-176.769,235.193l-.1,7.812L-181,245.393l.1-7.812Z" transform="translate(181.002 -235.193)"/></g><g transform="translate(3.802 6.973)"><path class="o" d="M-180.646,237.431l-.1,7.812-4.136,2.388.1-7.812Z" transform="translate(184.879 -237.431)"/></g><g transform="translate(0 7.075)"><path class="p" d="M-182.8,239.766l-.1,7.812-3.8-2.286.1-7.812Z" transform="translate(186.695 -237.48)"/></g><g transform="translate(0.097)"><path class="u" d="M-174.394,234.1l3.8,2.286-4.136,2.388,22.783,13.7-3.982,2.3-22.783-13.7-4.136,2.388-3.8-2.286Z" transform="translate(186.649 -234.101)"/></g><g transform="translate(30.722 18.374)"><path class="o" d="M-167.945,242.876l-.1,7.812-3.982,2.3.1-7.812Z" transform="translate(172.023 -242.876)"/></g><g transform="translate(7.939 6.973)"><path class="p" d="M-160.024,251.131l-.1,7.812-22.783-13.7.1-7.812Z" transform="translate(182.903 -237.431)"/></g></g><g class="c" transform="translate(22.208 24.013)"><g class="c" transform="translate(5.627 3.315)"><g class="z"><g class="c"><path class="e" d="M-185.683,241l-.1,7.813a7.207,7.207,0,0,0-1.07-.538l.1-7.813a7.638,7.638,0,0,1,1.07.538" transform="translate(191.364 -240.097)"/><path class="f" d="M-186.474,240.556l-.1,7.813a5.615,5.615,0,0,0-.534-.184l.1-7.813a5.585,5.585,0,0,1,.534.184" transform="translate(191.085 -240.193)"/><path class="g" d="M-186.822,240.418l-.1,7.813c-.119-.036-.239-.065-.356-.088l.1-7.813c.115.025.235.054.354.088" transform="translate(190.899 -240.239)"/><path class="h" d="M-187.026,240.356l-.1,7.813c-.1-.021-.193-.038-.287-.052l.1-7.811q.141.019.289.05" transform="translate(190.749 -240.265)"/><path class="i" d="M-187.182,240.32l-.1,7.811c-.086-.01-.17-.021-.253-.027l.1-7.811c.084.006.167.015.253.027" transform="translate(190.617 -240.28)"/><path class="j" d="M-187.311,240.3l-.1,7.811c-.082-.006-.161-.01-.239-.01l.1-7.813q.116,0,.239.013" transform="translate(190.492 -240.286)"/><path class="k" d="M-187.424,240.287l-.1,7.813c-.082,0-.161,0-.241,0l.1-7.811c.08,0,.159-.006.241,0" transform="translate(190.366 -240.287)"/><path class="l" d="M-187.529,240.289l-.1,7.811c-.088,0-.174.01-.26.021l.1-7.811c.086-.01.174-.017.26-.021" transform="translate(190.23 -240.284)"/><path class="m" d="M-187.614,240.3l-.1,7.811c-.113.015-.224.033-.335.057l.1-7.813c.111-.023.222-.042.335-.054" transform="translate(190.055 -240.273)"/><path class="n" d="M-187.142,240.325l-.1,7.813a3.766,3.766,0,0,0-1.1.429,2.97,2.97,0,0,0-.444.3l.1-7.811a2.976,2.976,0,0,1,.444-.306,3.79,3.79,0,0,1,1.1-.429" transform="translate(189.249 -240.245)"/><path class="m" d="M-188.57,240.676l-.1,7.811a1.817,1.817,0,0,0-.222.216l.1-7.813a1.667,1.667,0,0,1,.222-.214" transform="translate(189.133 -239.861)"/><path class="l" d="M-188.732,240.778l-.1,7.813a1.149,1.149,0,0,0-.115.161l.1-7.813a1.285,1.285,0,0,1,.115-.161" transform="translate(189.073 -239.749)"/><path class="k" d="M-188.81,240.855l-.1,7.813a.724.724,0,0,0-.071.138l.1-7.813a1.089,1.089,0,0,1,.071-.138" transform="translate(189.036 -239.665)"/><path class="j" d="M-188.86,240.921l-.1,7.813a.716.716,0,0,0-.04.13l.1-7.813a.928.928,0,0,1,.04-.13" transform="translate(189.015 -239.593)"/><path class="i" d="M-188.89,240.983l-.1,7.813a.667.667,0,0,0-.019.13l.1-7.811a.711.711,0,0,1,.019-.132" transform="translate(189.005 -239.525)"/><path class="h" d="M-188.909,241.046l-.1,7.811v.029l.1-7.811v-.029" transform="translate(189.005 -239.456)"/></g></g></g><g class="c" transform="translate(0 4.914)"><g class="aa"><g class="c"><path class="e" d="M-188.195,245.171l-.1,7.811c-2.27-1.363-3.417-2.766-3.4-4.119l.1-7.813c-.017,1.355,1.131,2.756,3.4,4.121" transform="translate(191.692 -241.05)"/></g></g></g><g transform="translate(11.211 4.217)"><path class="p" d="M-171.891,249.346l-.1,7.812-14.351-8.629.1-7.812Z" transform="translate(186.338 -240.717)"/></g><g class="c" transform="translate(25.562 12.846)"><g class="ab"><g class="c"><path class="e" d="M-177.915,246.492l-.1,7.813c.006-.488-.442-1.034-1.474-1.654l.1-7.813c1.032.62,1.48,1.168,1.474,1.654" transform="translate(179.485 -244.838)"/></g></g></g><g transform="translate(3.4 9.034)"><path class="p" d="M-176.142,251.333l-.1,7.812-13.829-8.315.1-7.812Z" transform="translate(190.068 -243.018)"/></g><g class="c" transform="translate(17.23 14.519)"><g class="ac"><g class="c"><path class="h" d="M-176,245.637l-.1,7.813,0,.088.1-7.813,0-.088" transform="translate(191.526 -245.637)"/><path class="i" d="M-175.969,245.679l-.1,7.813a2.46,2.46,0,0,1-.057.406l.1-7.813a2.233,2.233,0,0,0,.057-.406" transform="translate(191.496 -245.591)"/><path class="j" d="M-175.959,245.873l-.1,7.813a2.5,2.5,0,0,1-.128.4l.1-7.811a2.456,2.456,0,0,0,.128-.406" transform="translate(191.429 -245.379)"/><path class="k" d="M-175.973,246.067l-.1,7.811a3,3,0,0,1-.218.433l.1-7.811a3.225,3.225,0,0,0,.218-.433" transform="translate(191.316 -245.167)"/><path class="l" d="M-176,246.274l-.1,7.811a3.991,3.991,0,0,1-.362.5l.1-7.811a3.993,3.993,0,0,0,.362-.5" transform="translate(191.126 -244.94)"/><path class="m" d="M-176.01,246.512l-.1,7.811a5.5,5.5,0,0,1-.676.662l.1-7.811a5.656,5.656,0,0,0,.676-.662" transform="translate(190.773 -244.68)"/><path class="n" d="M-174.272,246.828l-.1,7.811a9.1,9.1,0,0,1-1.286.882,11.432,11.432,0,0,1-3.336,1.294l.1-7.811a11.493,11.493,0,0,0,3.336-1.294,9.271,9.271,0,0,0,1.286-.882" transform="translate(188.359 -244.334)"/><path class="m" d="M-178.352,247.867l-.1,7.811c-.343.073-.689.132-1.037.172l.1-7.811c.348-.042.693-.1,1.037-.172" transform="translate(187.817 -243.197)"/><path class="l" d="M-178.971,247.949l-.1,7.811c-.266.031-.532.055-.8.065l.1-7.811c.268-.013.534-.033.8-.065" transform="translate(187.399 -243.108)"/><path class="k" d="M-179.391,247.98l-.1,7.811c-.241.013-.484.015-.727.01l.1-7.811c.243,0,.486,0,.727-.01" transform="translate(187.02 -243.074)"/><path class="j" d="M-179.747,248l-.1,7.811c-.237,0-.473-.015-.71-.033l.1-7.813c.237.019.473.031.71.036" transform="translate(186.649 -243.087)"/><path class="i" d="M-180.074,248.01l-.1,7.813c-.243-.019-.488-.046-.733-.08l.1-7.813c.245.034.49.061.733.08" transform="translate(186.266 -243.128)"/><path class="h" d="M-180.388,248l-.1,7.813c-.268-.038-.534-.086-.8-.14l.1-7.813c.268.057.536.1.8.14" transform="translate(185.847 -243.202)"/><path class="g" d="M-180.681,247.989l-.1,7.813c-.325-.067-.649-.149-.974-.243l.1-7.811c.322.094.647.174.972.241" transform="translate(185.338 -243.328)"/><path class="f" d="M-180.96,247.988l-.1,7.811q-.663-.192-1.326-.456l.1-7.813a13.672,13.672,0,0,0,1.328.459" transform="translate(184.646 -243.567)"/><path class="e" d="M-181.106,248.12l-.1,7.813a15.733,15.733,0,0,1-2.262-1.133l.1-7.811a15.94,15.94,0,0,0,2.262,1.131" transform="translate(183.464 -244.158)"/></g></g></g><g transform="translate(0.096)"><path class="u" d="M-188.911,240.244c3.889-2.247,8.456-2.01,12.7.544l13.829,8.315c4.247,2.553,4.554,5.248.666,7.494-3.905,2.253-8.458,2.008-12.7-.544l-13.829-8.315C-192.492,245.183-192.816,242.5-188.911,240.244Zm22.827,11.306-14.35-8.629c-1.9-1.143-3.424-1.112-4.674-.392-1.267.731-1.332,1.619.57,2.762l14.35,8.629c1.9,1.143,3.409,1.122,4.674.392s1.332-1.619-.57-2.762" transform="translate(191.646 -238.703)"/></g></g><g class="c" transform="translate(0 30.691)"><g transform="translate(20.431 6.683)"><path class="p" d="M-173.372,256.552l-.1,7.812L-192.541,252.9l.1-7.812Z" transform="translate(192.541 -245.084)"/></g><g transform="translate(11.143 3.19)"><path class="ad" d="M-180.707,256.324l-.1,7.812-16.173-12.908.1-7.812Z" transform="translate(196.976 -243.416)"/></g><g transform="translate(39.503 15.986)"><path class="o" d="M-179.586,249.527l-.1,7.812-3.75,2.165.1-7.812Z" transform="translate(183.433 -249.527)"/></g><g transform="translate(11.261 12.302)"><path class="ae" d="M-175.079,257.368l-.1,7.812-21.745-9.6.1-7.812Z" transform="translate(196.92 -247.767)"/></g><g transform="translate(33.006 19.737)"><path class="o" d="M-182.689,251.318l-.1,7.812-3.75,2.165.1-7.812Z" transform="translate(186.536 -251.318)"/></g><g transform="translate(26.585 23.604)"><path class="o" d="M-186.033,253.165l-.1,7.812-3.473,2,.1-7.812Z" transform="translate(189.602 -253.165)"/></g><g transform="translate(0 9.623)"><path class="p" d="M-175.616,262.474l-.1,7.812L-202.3,254.3l.1-7.812Z" transform="translate(202.298 -246.488)"/></g><g transform="translate(0.097)"><path class="u" d="M-185.583,241.893-159,257.878l-3.75,2.165-19.073-11.468L-165.5,261.63l-3.75,2.165-21.745-9.6,18.8,11.3-3.473,2-26.585-15.986,5.525-3.19,21.791,9.664-16.173-12.908Z" transform="translate(202.252 -241.893)"/></g></g></g></g></svg>