<svg xmlns="http://www.w3.org/2000/svg" xmlns:xlink="http://www.w3.org/1999/xlink" width="145.286" height="90.611" viewBox="0 0 145.286 90.611"><defs><style>.a,.b{fill:none;}.b{stroke:#490c5a;stroke-linejoin:round;stroke-width:2px;}.c{isolation:isolate;}.d{fill:#4d115f;}.e{fill:#612277;}.f{fill:#fff;}.g{fill:#480b59;}.h{clip-path:url(#a);}.i{fill:#490c5a;}.j{fill:#4b0e5c;}.k{fill:#4f1361;}.l{fill:#511463;}.m{fill:#531666;}.n{fill:#551868;}.o{fill:#571a6a;}.p{fill:#591c6d;}.q{fill:#5b1d70;}.r{fill:#4a0e5b;}.s{clip-path:url(#b);}.t{clip-path:url(#c);}.u{clip-path:url(#d);}.v{clip-path:url(#e);}.w{clip-path:url(#f);}.x{clip-path:url(#g);}.y{clip-path:url(#h);}.z{clip-path:url(#i);}.aa{clip-path:url(#j);}.ab{clip-path:url(#k);}.ac{clip-path:url(#l);}.ad{clip-path:url(#m);}</style><clipPath id="a"><path class="a" d="M-539.7,243.632l.1-7.811c0-.436.365-.831,1-1.2,1.342-.775,2.9-.823,4.8.32l-.1,7.813c-1.9-1.143-3.455-1.1-4.8-.32C-539.333,242.8-539.693,243.2-539.7,243.632Z" transform="translate(539.697 -234.061)"/></clipPath><clipPath id="b"><path class="a" d="M-542.5,242.785l.1-7.813c-.017,1.355,1.122,2.739,3.352,4.079l-.1,7.811C-541.375,245.522-542.514,244.14-542.5,242.785Z" transform="translate(542.497 -234.972)"/></clipPath><clipPath id="c"><path class="a" d="M-528.563,240.206l-.1,7.813c.006-.48-.425-1.005-1.418-1.6l.1-7.813C-528.988,239.2-528.557,239.728-528.563,240.206Z" transform="translate(530.077 -238.604)"/></clipPath><clipPath id="d"><path class="a" d="M-518.3,239.378l-.1,7.811c-.015,1.229-.98,2.435-2.946,3.57-4.121,2.379-8.7,2.153-12.951-.4l.1-7.811c4.247,2.553,8.83,2.781,12.951.4C-519.278,241.813-518.313,240.605-518.3,239.378Z" transform="translate(534.292 -239.378)"/></clipPath><clipPath id="e"><path class="a" d="M-548.764,243.58l-.1,7.811c-1.9-1.143-3.378-1.267-4.875-.4l.1-7.813C-552.141,242.314-550.665,242.437-548.764,243.58Z" transform="translate(553.735 -242.613)"/></clipPath><clipPath id="f"><path class="a" d="M-548.532,245.55l-.1,7.813c.006-.517-.454-1.078-1.526-1.723l.1-7.813C-548.987,244.472-548.526,245.035-548.532,245.55Z" transform="translate(550.155 -243.827)"/></clipPath><clipPath id="g"><path class="a" d="M-546.851,244.115l-.1,7.813a2.375,2.375,0,0,1-.389,1.233l.1-7.813A2.4,2.4,0,0,0-546.851,244.115Z" transform="translate(547.339 -244.115)"/></clipPath><clipPath id="h"><path class="a" d="M-542.079,247.313l-.1,7.811c-2.467-1.483-4.2-1.545-6.119-.442l.1-7.811C-546.286,245.765-544.548,245.828-542.079,247.313Z" transform="translate(548.296 -246.111)"/></clipPath><clipPath id="i"><path class="a" d="M-539.627,249.627l-.1,7.813a13.118,13.118,0,0,1-3.652-1.742l.1-7.811A13.019,13.019,0,0,0-539.627,249.627Z" transform="translate(543.375 -247.887)"/></clipPath><clipPath id="j"><path class="a" d="M-583.087,268.683l.1-7.811c.006-.436.365-.831,1-1.2,1.342-.777,2.9-.825,4.8.318l-.1,7.813c-1.9-1.143-3.455-1.1-4.8-.32C-582.723,267.852-583.081,268.248-583.087,268.683Z" transform="translate(583.087 -259.112)"/></clipPath><clipPath id="k"><path class="a" d="M-585.859,267.844l.1-7.811c-.017,1.355,1.093,2.735,3.294,4.058l-.1,7.811C-584.766,270.58-585.876,269.2-585.859,267.844Z" transform="translate(585.859 -260.033)"/></clipPath><clipPath id="l"><path class="a" d="M-571.929,265.293l-.1,7.811c.006-.49-.436-1.03-1.441-1.635l.1-7.813C-572.365,264.26-571.923,264.8-571.929,265.293Z" transform="translate(573.466 -263.655)"/></clipPath><clipPath id="m"><path class="a" d="M-561.519,264.357l-.1,7.811c-.015,1.263-1.005,2.5-2.992,3.65a12.468,12.468,0,0,1-13.075-.331l.1-7.811a12.469,12.469,0,0,0,13.073.331C-562.523,266.859-561.533,265.62-561.519,264.357Z" transform="translate(577.682 -264.357)"/></clipPath></defs><g transform="translate(1 1)"><path class="b" d="M-479.591,231.869l-.086,6.889a12.162,12.162,0,0,0-12.353-.069c-2.008,1.158-2.948,2.4-2.915,3.654,0-.031-.019-.065-.019-.1v0l-.092,7.463-8.782-3.842-6.144,3.547-.086,7c-4.023-2.337-7.836-2.429-12.105.036l-6.359,3.673-.044,3.574-3.011-1.811-4.276,2.469-.069,5.6-4.716-2.835-4.2,2.423-.077,6.294-6.156-2.693-6.158,3.556-.1,7.811,13.6,11.247-2.632,1.52-22.783-13.7-4.213,2.431-.048,3.822a12.122,12.122,0,0,0-9.35,1.244c-2.029,1.171-3,2.435-2.984,3.719,0-.023-.015-.046-.015-.069l-.1,7.811c-.017,1.355,1.093,2.737,3.294,4.058l13.829,8.317a15.378,15.378,0,0,0,1.941.967c.071.031.142.08.216.109.268.107.538.188.806.278.126.042.251.092.377.13.038.01.075.027.113.038.318.092.637.172.957.239.132.027.264.046.4.069l.193.034c.077.013.153.029.23.04.247.036.5.063.743.082.182.015.364.021.544.025l.1.006.088,0c.253,0,.507,0,.758-.01s.486-.034.727-.061l.075-.006.046,0q.55-.063,1.093-.18c.073-.017.144-.048.216-.065a12.158,12.158,0,0,0,1.185-.356c.188-.065.381-.113.567-.188a13.127,13.127,0,0,0,1.707-.821,10.369,10.369,0,0,0,1.365-.934c.019-.017.05-.033.071-.05a5.9,5.9,0,0,0,.737-.722c.013-.015.021-.031.036-.048s.044-.063.067-.094a3.724,3.724,0,0,0,.289-.4,3.232,3.232,0,0,0,.232-.456v-.006a2.51,2.51,0,0,0,.134-.423,2.47,2.47,0,0,0,.059-.425l0-.092.065-5.227,5.727,3.445,11.127-6.424.013-1.009.712.59,3.859-2.228.071-5.733.995-.574,5.555,2.483,4.245-2.45.027-2.274,1.916,1.152,4.2-2.423.069-5.6,4.716,2.835,4.276-2.467.044-3.577,3.011,1.811,4.213-2.433.061-4.91.871.523c.306.184.574.341.823.484l.22.124c.159.088.312.174.448.247.073.04.145.075.214.111.123.063.239.121.348.174l.168.08c.121.057.234.1.341.149l.069.029.01,0c.358.142.66.232,1.012.341l4.276-2.469.019-1.654,1.169.967,3.859-2.228.071-5.733.995-.574,5.555,2.486,4.245-2.45.034-2.865c.042.006.082.008.121.017.107.017.212.04.316.054.243.034.488.061.731.08.14.01.281.015.421.021l.136.006c.052,0,.1.006.157.006.245.006.49,0,.737-.008.2-.01.4-.031.6-.05l.128-.01c.029,0,.061,0,.09-.008.356-.042.712-.1,1.064-.176.065-.015.13-.044.195-.059a11.776,11.776,0,0,0,1.156-.348c.186-.063.377-.111.563-.186a13.1,13.1,0,0,0,1.679-.808,10.041,10.041,0,0,0,1.353-.928c.023-.017.054-.033.077-.05a5.939,5.939,0,0,0,.72-.708l.031-.042c.023-.027.038-.057.061-.084a4.407,4.407,0,0,0,.291-.4,3.234,3.234,0,0,0,.222-.442l0,0h0a2.629,2.629,0,0,0,.13-.415,2.318,2.318,0,0,0,.057-.412l0-.088.061-4.887,4.527,3.748,3.857-2.228.071-5.733.995-.576,5.555,2.486,4.244-2.45.1-7.813-30.876-13.508ZM-504.8,261.954l0,.013c.015-.05.015-.1.027-.155C-504.79,261.859-504.79,261.906-504.8,261.954Zm-.3.672h0l.008-.017Zm-4.372-.117a1.007,1.007,0,0,0-.046-.214A1.007,1.007,0,0,1-509.472,262.509Zm-.36-.81a3.269,3.269,0,0,0-.345-.32A3.269,3.269,0,0,1-509.832,261.7Zm.274.415a1.846,1.846,0,0,0-.157-.239A2,2,0,0,1-509.558,262.113Zm4.833.448.01-.894.917.76C-504.1,262.454-504.413,262.5-504.725,262.561Zm10.382-18.618a3.922,3.922,0,0,0,.262.4c-.012-.015-.036-.031-.048-.046A3.491,3.491,0,0,1-494.343,243.943Zm31.429,9.628c-.088.094-.186.186-.287.278.1-.094.193-.188.283-.283Zm-4.63-2.146a.839.839,0,0,0-.044-.207A.839.839,0,0,1-467.544,251.425Zm-.239-.59a1.469,1.469,0,0,1,.151.228A1.469,1.469,0,0,0-467.783,250.835Zm-1.173-.982a6.457,6.457,0,0,1,.628.427A6.457,6.457,0,0,0-468.955,249.852Zm.779.563a3.028,3.028,0,0,1,.287.266A3.028,3.028,0,0,0-468.176,250.416Zm-8.336-6.445.021-1.644,1.16.961Zm-12.543-2.117.008-.025Zm.486-.63a3.631,3.631,0,0,1,.467-.32A3.631,3.631,0,0,0-488.57,241.223Zm-.285.278-.025.034Zm-4.188,3.836c-.136-.111-.226-.22-.348-.329C-493.269,245.118-493.179,245.227-493.042,245.338Zm-1.673-2a2.669,2.669,0,0,1-.115-.425A2.669,2.669,0,0,0-494.716,243.34Zm-15.592,17.918a6.91,6.91,0,0,0-.691-.469A6.566,6.566,0,0,1-510.307,261.258Zm-43.2,44.562a5.587,5.587,0,0,1-.419.406c.149-.136.291-.272.415-.41Zm-4.871-1.914a.968.968,0,0,0-.044-.211A.968.968,0,0,1-558.38,303.907Zm-.245-.6a1.486,1.486,0,0,1,.153.235A1.486,1.486,0,0,0-558.624,303.3Zm-.111-.155a3.453,3.453,0,0,0-.293-.272A3.453,3.453,0,0,1-558.735,303.149Zm-.444-.408a6.316,6.316,0,0,0-.632-.431A6.573,6.573,0,0,1-559.179,302.741Zm-20.735-8.43.008-.025Zm.486-.63a3.42,3.42,0,0,1,.467-.318A3.42,3.42,0,0,0-579.428,293.68Zm-.285.278-.025.034Zm-5.453,2.444a3.976,3.976,0,0,0,.256.4A4.236,4.236,0,0,1-585.166,296.4Zm-.471-1.032a2.874,2.874,0,0,0,.1.427A2.639,2.639,0,0,1-585.637,295.37Zm1.749,2.429c-.136-.111-.222-.22-.343-.331C-584.11,297.579-584.025,297.688-583.889,297.8Z" transform="translate(585.859 -228.322)"/><g class="c" transform="translate(106.171)"><g transform="translate(7.562 4.729)"><path class="d" d="M-515.965,237.489l-.1,7.812-15.483-6.909.1-7.812Z" transform="translate(531.545 -230.58)"/></g><g transform="translate(32.774 13.509)"><path class="e" d="M-515.164,234.774l-.1,7.812-4.244,2.45.1-7.812Z" transform="translate(519.505 -234.774)"/></g><g transform="translate(27.219 13.475)"><path class="d" d="M-516.506,237.242l-.1,7.812-5.555-2.485.1-7.812Z" transform="translate(522.158 -234.757)"/></g><g transform="translate(22.049 13.475)"><path class="e" d="M-519.36,234.757l-.1,7.812-5.17,2.985.1-7.812Z" transform="translate(524.627 -234.757)"/></g><g transform="translate(0.097)"><path class="f" d="M-528.968,228.322l30.876,13.508-4.245,2.452-5.555-2.486-5.17,2.984,4.1,3.323-3.857,2.228-22.295-18.463Zm12.844,13.982,4.058-2.343-15.483-6.91,11.425,9.253" transform="translate(535.11 -228.322)"/></g><g transform="translate(22.295 19.782)"><path class="e" d="M-520.554,237.769l-.1,7.812-3.858,2.228.1-7.812Z" transform="translate(524.509 -237.769)"/></g><g transform="translate(0 3.547)"><path class="g" d="M-512.765,248.479l-.1,7.812-22.295-18.463.1-7.812Z" transform="translate(535.156 -230.016)"/></g></g><g class="c" transform="translate(90.8 8.703)"><g class="c" transform="translate(5.863 3.315)"><g class="h"><g class="c" transform="translate(0 0.001)"><path class="i" d="M-536.293,234.755l-.1,7.813a7.264,7.264,0,0,0-1.034-.521l.1-7.813a7.377,7.377,0,0,1,1.034.521" transform="translate(542.184 -233.873)"/><path class="j" d="M-537.053,234.328l-.1,7.813c-.178-.071-.354-.132-.526-.182l.1-7.811c.172.05.348.109.526.18" transform="translate(541.909 -233.967)"/><path class="d" d="M-537.391,234.2l-.1,7.811c-.121-.034-.241-.065-.36-.088l.1-7.813c.117.025.237.054.358.09" transform="translate(541.721 -234.014)"/><path class="k" d="M-537.6,234.131l-.1,7.813c-.1-.021-.193-.038-.287-.052l.1-7.811q.141.019.289.05" transform="translate(541.571 -234.04)"/><path class="l" d="M-537.753,234.1l-.1,7.811c-.088-.01-.172-.021-.257-.027l.1-7.811c.086.006.172.015.257.027" transform="translate(541.436 -234.055)"/><path class="m" d="M-537.884,234.075l-.1,7.811c-.082-.006-.163-.01-.243-.013l.1-7.811c.08,0,.161,0,.243.013" transform="translate(541.31 -234.061)"/><path class="n" d="M-538,234.062l-.1,7.811c-.084,0-.167,0-.249,0l.1-7.811c.082,0,.166-.006.249,0" transform="translate(541.179 -234.062)"/><path class="o" d="M-538.1,234.064l-.1,7.811c-.092,0-.182.013-.272.023l.1-7.813c.09-.01.18-.017.272-.021" transform="translate(541.037 -234.059)"/><path class="p" d="M-538.193,234.074l-.1,7.813c-.117.013-.235.033-.35.057l.1-7.811c.113-.025.23-.044.348-.059" transform="translate(540.855 -234.048)"/><path class="q" d="M-537.645,234.1l-.1,7.811a4.213,4.213,0,0,0-1.219.48,3.655,3.655,0,0,0-.5.339l.1-7.811a3.466,3.466,0,0,1,.5-.341,4.2,4.2,0,0,1,1.221-.477" transform="translate(539.959 -234.017)"/><path class="p" d="M-539.237,234.493l-.1,7.811a1.946,1.946,0,0,0-.239.234l.1-7.813a1.8,1.8,0,0,1,.239-.232" transform="translate(539.834 -233.59)"/><path class="o" d="M-539.41,234.6l-.1,7.813a1.351,1.351,0,0,0-.126.172l.1-7.811a1.349,1.349,0,0,1,.126-.174" transform="translate(539.768 -233.468)"/><path class="n" d="M-539.5,234.687l-.1,7.811a.853.853,0,0,0-.073.147l.1-7.813a.954.954,0,0,1,.073-.144" transform="translate(539.73 -233.377)"/><path class="m" d="M-539.548,234.756l-.1,7.813a.858.858,0,0,0-.044.136l.1-7.811a.873.873,0,0,1,.044-.138" transform="translate(539.707 -233.302)"/><path class="l" d="M-539.582,234.822l-.1,7.811a.779.779,0,0,0-.019.138l.1-7.811a.8.8,0,0,1,.019-.138" transform="translate(539.697 -233.23)"/><path class="k" d="M-539.6,234.888l-.1,7.811v.029l.1-7.811v-.029" transform="translate(539.697 -233.158)"/></g></g></g><g transform="translate(14.509 3.615)"><path class="e" d="M-531.49,234.2l-.1,7.812-3.982,2.3.1-7.812Z" transform="translate(535.568 -234.204)"/></g><g transform="translate(11.657 4.199)"><path class="r" d="M-533.982,236.2l-.1,7.812-2.852-1.715.1-7.812Z" transform="translate(536.93 -234.483)"/></g><g class="c" transform="translate(0 5.222)"><g class="s"><g class="c"><path class="i" d="M-539.048,239.051l-.1,7.811c-2.23-1.34-3.369-2.722-3.352-4.077l.1-7.813c-.017,1.355,1.122,2.739,3.352,4.079" transform="translate(542.497 -234.972)"/></g></g></g><g transform="translate(19.203 9.887)"><path class="e" d="M-531.316,237.2l-.1,7.812-1.914,1.1.1-7.812Z" transform="translate(533.326 -237.2)"/></g><g transform="translate(15.401 8.706)"><path class="r" d="M-531.243,238.922l-.1,7.812-3.8-2.286.1-7.812Z" transform="translate(535.142 -236.636)"/></g><g transform="translate(21.117 9.887)"><path class="r" d="M-527.425,240.141l-.1,7.812-4.891-2.941.1-7.812Z" transform="translate(532.412 -237.2)"/></g><g class="c" transform="translate(26.008 12.828)"><g class="t"><g class="c"><path class="i" d="M-528.563,240.206l-.1,7.813c.006-.48-.425-1.005-1.418-1.6l.1-7.813c.993.6,1.424,1.124,1.418,1.6" transform="translate(530.077 -238.604)"/></g></g></g><g transform="translate(3.352 9.301)"><path class="r" d="M-526.97,245.235l-.1,7.812-13.829-8.315.1-7.812Z" transform="translate(540.896 -236.92)"/></g><g class="c" transform="translate(17.181 14.449)"><g class="u"><g class="c"><path class="k" d="M-526.6,239.378l-.1,7.811,0,.088.1-7.811,0-.088" transform="translate(542.597 -239.378)"/><path class="l" d="M-526.575,239.42l-.1,7.811a2.318,2.318,0,0,1-.057.412l.1-7.813a2.29,2.29,0,0,0,.057-.41" transform="translate(542.567 -239.332)"/><path class="m" d="M-526.564,239.616l-.1,7.813a2.614,2.614,0,0,1-.13.415l.1-7.813a2.611,2.611,0,0,0,.13-.415" transform="translate(542.499 -239.118)"/><path class="n" d="M-526.577,239.814l-.1,7.813a3.411,3.411,0,0,1-.224.444l.1-7.813a3.017,3.017,0,0,0,.224-.444" transform="translate(542.382 -238.901)"/><path class="o" d="M-526.6,240.026l-.1,7.813a4.016,4.016,0,0,1-.383.526l.1-7.811a4.175,4.175,0,0,0,.383-.528" transform="translate(542.182 -238.669)"/><path class="p" d="M-526.607,240.278l-.1,7.811a5.932,5.932,0,0,1-.72.708l.1-7.813a5.935,5.935,0,0,0,.72-.706" transform="translate(541.806 -238.393)"/><path class="q" d="M-524.7,240.615l-.1,7.813a10.267,10.267,0,0,1-1.43.978,12.319,12.319,0,0,1-3.593,1.4l.1-7.813a12.37,12.37,0,0,0,3.593-1.4,10.331,10.331,0,0,0,1.43-.98" transform="translate(539.181 -238.025)"/><path class="p" d="M-529.171,241.751l-.1,7.813c-.352.075-.708.134-1.064.176l.1-7.811c.356-.042.712-.1,1.064-.178" transform="translate(538.625 -236.782)"/><path class="o" d="M-529.806,241.836l-.1,7.811c-.272.034-.547.054-.821.069l.1-7.813c.274-.013.549-.036.821-.067" transform="translate(538.196 -236.689)"/><path class="n" d="M-530.242,241.868l-.1,7.813c-.247.01-.492.015-.737.008l.1-7.811c.245,0,.492,0,.737-.01" transform="translate(537.811 -236.654)"/><path class="m" d="M-530.606,241.891l-.1,7.811c-.239,0-.475-.015-.714-.034l.1-7.811c.239.019.475.029.714.034" transform="translate(537.438 -236.666)"/><path class="l" d="M-530.938,241.9l-.1,7.811c-.243-.019-.488-.046-.731-.08l.1-7.813c.245.036.488.061.731.082" transform="translate(537.057 -236.709)"/><path class="k" d="M-531.251,241.89l-.1,7.813c-.266-.038-.534-.084-.8-.14l.1-7.811c.266.054.534.1.8.138" transform="translate(536.639 -236.781)"/><path class="d" d="M-531.549,241.877l-.1,7.811q-.481-.1-.961-.239l.1-7.811q.481.138.961.239" transform="translate(536.136 -236.906)"/><path class="j" d="M-531.827,241.874l-.1,7.811a13.757,13.757,0,0,1-1.307-.45l.1-7.813q.65.261,1.3.452" transform="translate(535.454 -237.142)"/><path class="i" d="M-531.97,242l-.1,7.813a15.645,15.645,0,0,1-2.224-1.114l.1-7.811A15.525,15.525,0,0,0-531.97,242" transform="translate(534.292 -237.723)"/></g></g></g><g transform="translate(0.096)"><path class="f" d="M-539.517,234.143c4.136-2.389,8.719-2.161,12.966.392l2.592,1.558-3.983,2.3-2.852-1.715c-1.9-1.143-3.455-1.1-4.8-.32s-1.455,1.69.446,2.833l14.35,8.629a4.332,4.332,0,0,0,4.751.293c1.342-.775,1.5-1.663-.4-2.806l-4.89-2.94-1.914,1.1-3.8-2.285,5.895-3.4,8.432,5.07c4.249,2.555,4.54,5.258.4,7.647s-8.7,2.151-12.951-.4L-539.1,241.78C-543.345,239.225-543.638,236.521-539.517,234.143Z" transform="translate(542.451 -232.478)"/></g></g><g class="c" transform="translate(75.782 17.546)"><g transform="translate(7.562 4.728)"><path class="d" d="M-530.478,245.868l-.1,7.812-15.483-6.909.1-7.812Z" transform="translate(546.058 -238.959)"/></g><g transform="translate(32.774 13.509)"><path class="e" d="M-529.676,243.152l-.1,7.812-4.244,2.45.1-7.812Z" transform="translate(534.017 -243.152)"/></g><g transform="translate(27.219 13.474)"><path class="d" d="M-531.018,245.621l-.1,7.812-5.555-2.485.1-7.812Z" transform="translate(536.67 -243.136)"/></g><g transform="translate(22.049 13.474)"><path class="e" d="M-533.872,243.136l-.1,7.812-5.17,2.985.1-7.812Z" transform="translate(539.139 -243.136)"/></g><g transform="translate(0.096)"><path class="f" d="M-543.479,236.7l30.876,13.508-4.245,2.45-5.555-2.484-5.17,2.984,4.1,3.323-3.859,2.228-22.295-18.463Zm12.842,13.982,4.06-2.345-15.483-6.908,11.423,9.253" transform="translate(549.623 -236.701)"/></g><g transform="translate(22.295 19.782)"><path class="e" d="M-535.067,246.148l-.1,7.812-3.858,2.228.1-7.812Z" transform="translate(539.022 -246.148)"/></g><g transform="translate(0 3.547)"><path class="g" d="M-527.277,256.858l-.1,7.812-22.295-18.463.1-7.812Z" transform="translate(549.669 -238.395)"/></g></g><g class="c" transform="translate(57.231 26.305)"><g class="c" transform="translate(10.037 3.62)"><g class="v"><g class="c" transform="translate(0 -0.001)"><path class="i" d="M-550.686,243.392l-.1,7.811a8.342,8.342,0,0,0-1.2-.605l.1-7.813a8.36,8.36,0,0,1,1.2.607" transform="translate(555.657 -242.424)"/><path class="j" d="M-551.6,242.882l-.1,7.813a5.471,5.471,0,0,0-.536-.186l.1-7.813c.176.052.354.113.536.186" transform="translate(555.377 -242.521)"/><path class="d" d="M-551.952,242.742l-.1,7.813c-.119-.036-.239-.065-.356-.09l.1-7.811c.117.025.237.054.356.088" transform="translate(555.191 -242.567)"/><path class="k" d="M-552.163,242.679l-.1,7.811c-.092-.019-.184-.034-.276-.048l.1-7.811c.092.013.184.029.277.048" transform="translate(555.047 -242.592)"/><path class="l" d="M-552.314,242.645l-.1,7.811c-.08-.01-.161-.019-.241-.025l.1-7.813c.079.006.161.015.241.027" transform="translate(554.921 -242.607)"/><path class="m" d="M-552.435,242.623l-.1,7.813c-.077-.006-.153-.01-.228-.01l.1-7.813c.075,0,.153,0,.228.01" transform="translate(554.802 -242.612)"/><path class="n" d="M-552.543,242.613l-.1,7.813c-.078,0-.153,0-.23,0l.1-7.811c.075,0,.153-.006.228,0" transform="translate(554.681 -242.613)"/><path class="o" d="M-552.638,242.615l-.1,7.811c-.086,0-.17.01-.255.021l.1-7.813c.086-.008.172-.017.258-.019" transform="translate(554.548 -242.61)"/><path class="p" d="M-552.721,242.624l-.1,7.813a3.1,3.1,0,0,0-.335.057l.1-7.813c.111-.023.224-.042.335-.057" transform="translate(554.373 -242.6)"/><path class="q" d="M-552.418,242.651l-.1,7.813a4.191,4.191,0,0,0-1.221.484l.1-7.813a4.252,4.252,0,0,1,1.221-.484" transform="translate(553.735 -242.571)"/></g></g></g><g transform="translate(8.016 4.184)"><path class="e" d="M-552.582,242.882l-.1,7.812-2.022,1.167.1-7.812Z" transform="translate(554.7 -242.882)"/></g><g transform="translate(14.912 4.587)"><path class="r" d="M-548.688,244.651l-.1,7.812-2.622-1.576.1-7.812Z" transform="translate(551.407 -243.075)"/></g><g class="c" transform="translate(17.533 6.162)"><g class="w"><g class="c"><path class="i" d="M-548.532,245.55l-.1,7.813c.006-.517-.454-1.078-1.526-1.723l.1-7.813c1.072.645,1.533,1.208,1.527,1.723" transform="translate(550.155 -243.827)"/></g></g></g><g class="c" transform="translate(23.43 6.766)"><g class="x"><g class="c"><path class="k" d="M-547.054,244.115l-.1,7.813,0,.075.1-7.811,0-.077" transform="translate(547.541 -244.115)"/><path class="l" d="M-547.033,244.152l-.1,7.811a2.084,2.084,0,0,1-.048.356l.1-7.813a1.855,1.855,0,0,0,.048-.354" transform="translate(547.516 -244.075)"/><path class="m" d="M-547.021,244.321l-.1,7.813a2.46,2.46,0,0,1-.115.366l.1-7.813a2.177,2.177,0,0,0,.115-.366" transform="translate(547.456 -243.89)"/><path class="n" d="M-547.028,244.5l-.1,7.813a2.821,2.821,0,0,1-.205.4l.1-7.811a2.835,2.835,0,0,0,.205-.406" transform="translate(547.349 -243.698)"/><path class="o" d="M-547.224,244.69l-.1,7.811-.019.031.1-7.813.019-.029" transform="translate(547.339 -243.486)"/></g></g></g><g class="c" transform="translate(21.426 10.946)"><g class="y"><g class="c" transform="translate(0 0)"><path class="i" d="M-544.488,247.085l-.1,7.811a10.655,10.655,0,0,0-1.508-.764l.1-7.813a10.692,10.692,0,0,1,1.51.766" transform="translate(550.705 -245.884)"/><path class="j" d="M-545.657,246.437l-.1,7.813a6.35,6.35,0,0,0-.651-.226l.1-7.813c.214.063.429.136.651.226" transform="translate(550.365 -246.002)"/><path class="d" d="M-546.089,246.266l-.1,7.813q-.214-.063-.421-.107l.1-7.811c.138.029.278.063.421.1" transform="translate(550.145 -246.057)"/><path class="k" d="M-546.336,246.192l-.1,7.811q-.166-.035-.333-.057l.1-7.813c.109.015.22.036.331.059" transform="translate(549.971 -246.088)"/><path class="l" d="M-546.516,246.149l-.1,7.813c-.1-.015-.193-.025-.289-.033l.1-7.811c.1.008.193.019.291.031" transform="translate(549.82 -246.104)"/><path class="m" d="M-546.663,246.125l-.1,7.811c-.092-.006-.182-.01-.274-.013l.1-7.811c.092,0,.182,0,.274.013" transform="translate(549.677 -246.111)"/><path class="n" d="M-546.792,246.113l-.1,7.811c-.094,0-.186,0-.278,0l.1-7.813c.092,0,.186,0,.278,0" transform="translate(549.531 -246.111)"/><path class="o" d="M-546.908,246.113l-.1,7.813c-.1,0-.207.013-.312.025l.1-7.811c.1-.013.207-.021.312-.027" transform="translate(549.368 -246.11)"/><path class="p" d="M-547.008,246.126l-.1,7.811c-.136.017-.27.04-.406.067l.1-7.811a3.91,3.91,0,0,1,.406-.067" transform="translate(549.156 -246.095)"/><path class="q" d="M-546.554,246.158l-.1,7.811a5.724,5.724,0,0,0-1.646.662l.1-7.811a5.629,5.629,0,0,1,1.646-.662" transform="translate(548.296 -246.06)"/></g></g></g><g transform="translate(19.975 11.705)"><path class="e" d="M-547.442,246.474l-.1,7.812-1.451.838.1-7.812Z" transform="translate(548.989 -246.474)"/></g><g transform="translate(27.546 12.147)"><path class="r" d="M-541.091,249.2l-.1,7.812-4.186-2.517.1-7.812Z" transform="translate(545.374 -246.685)"/></g><g transform="translate(35.383 13.936)"><path class="e" d="M-537.259,247.539l-.1,7.812-4.275,2.468.1-7.812Z" transform="translate(541.631 -247.539)"/></g><g class="c" transform="translate(31.731 14.664)"><g class="z"><g class="c"><path class="j" d="M-541,248.9l-.1,7.813c-.356-.109-.66-.2-1.022-.346l.1-7.811c.364.144.666.234,1.022.343" transform="translate(544.749 -247.157)"/><path class="i" d="M-540.649,249.284l-.1,7.811a18.832,18.832,0,0,1-2.63-1.4l.1-7.811a18.82,18.82,0,0,0,2.63,1.4" transform="translate(543.375 -247.887)"/></g></g></g><g transform="translate(26.585 19.051)"><path class="e" d="M-541.522,249.982l-.1,7.812-4.213,2.433.1-7.812Z" transform="translate(545.832 -249.982)"/></g><g transform="translate(0.097)"><path class="f" d="M-522.507,253.134a12.745,12.745,0,0,0,3.683,1.686l-4.276,2.469a13.019,13.019,0,0,1-3.652-1.74l-4.184-2.517c-2.469-1.485-4.207-1.547-6.121-.442l-1.451.838,10.824,6.508-4.213,2.433-26.585-15.986,6.359-3.673c4.351-2.513,8.227-2.383,12.336.088l2.086,1.254c2.729,1.642,3.644,3.227,2.649,4.831,2.974-.687,5.677.121,8.451,1.788Zm-18.442-6.087-2.622-1.575c-1.9-1.143-3.378-1.267-4.875-.4l-2.021,1.168,8.156,4.9,1.635-.944c1.575-.909,1.857-1.868-.274-3.149" transform="translate(558.482 -240.884)"/></g><g transform="translate(0 5.498)"><path class="r" d="M-531.846,259.5l-.1,7.812-26.585-15.986.1-7.812Z" transform="translate(558.528 -243.51)"/></g></g><g class="c" transform="translate(40.918 33.567)"><g transform="translate(8.982 2.468)"><path class="r" d="M-550.541,252.381l-.1,7.812-11.392-6.85.1-7.812Z" transform="translate(562.029 -245.531)"/></g><g transform="translate(19.392 11.604)"><path class="e" d="M-552.177,249.894l-.1,7.812-4.784,2.762.1-7.812Z" transform="translate(557.058 -249.894)"/></g><g transform="translate(35.568 15.986)"><path class="e" d="M-544.961,251.986l-.1,7.812-4.275,2.468.1-7.812Z" transform="translate(549.333 -251.986)"/></g><g transform="translate(24.176 11.604)"><path class="r" d="M-543.285,256.743l-.1,7.812-11.392-6.85.1-7.812Z" transform="translate(554.773 -249.894)"/></g><g transform="translate(0.097)"><path class="f" d="M-553.015,244.352l26.586,15.986-4.275,2.468-11.392-6.85-4.784,2.762,11.392,6.85-4.2,2.424-26.586-15.986,4.2-2.424,11.392,6.85,4.784-2.762-11.392-6.85Z" transform="translate(566.273 -244.352)"/></g><g transform="translate(26.586 21.216)"><path class="e" d="M-549.328,254.484l-.1,7.812-4.2,2.424.1-7.812Z" transform="translate(553.623 -254.484)"/></g><g transform="translate(0 7.654)"><path class="r" d="M-539.637,263.993l-.1,7.812-26.586-15.986.1-7.812Z" transform="translate(566.319 -248.008)"/></g></g><g class="c" transform="translate(28.524 44.822)"><g transform="translate(7.578 4.727)"><path class="d" d="M-553.038,258.894l-.1,7.812-15.483-6.909.1-7.812Z" transform="translate(568.618 -251.985)"/></g><g transform="translate(32.79 13.508)"><path class="e" d="M-552.237,256.178l-.1,7.812-4.244,2.45.1-7.812Z" transform="translate(556.578 -256.178)"/></g><g transform="translate(27.235 13.473)"><path class="d" d="M-553.579,258.646l-.1,7.812-5.555-2.485.1-7.812Z" transform="translate(559.231 -256.161)"/></g><g transform="translate(22.065 13.473)"><path class="e" d="M-556.433,256.161l-.1,7.812-5.17,2.985.1-7.812Z" transform="translate(561.7 -256.161)"/></g><g transform="translate(0.097)"><path class="f" d="M-566.033,249.727l30.876,13.508-4.245,2.45-5.555-2.486-5.17,2.986,4.1,3.321-3.859,2.228-22.309-18.452Zm12.842,13.98,4.06-2.343-15.483-6.908,11.423,9.251" transform="translate(572.191 -249.727)"/></g><g transform="translate(22.31 19.781)"><path class="e" d="M-557.628,259.173l-.1,7.812-3.858,2.228.1-7.812Z" transform="translate(561.583 -259.173)"/></g><g transform="translate(0 3.555)"><path class="g" d="M-549.83,269.878l-.1,7.812-22.31-18.454.1-7.812Z" transform="translate(572.237 -251.425)"/></g></g><g class="c" transform="translate(12.396 55.256)"><g transform="translate(0.096)"><path class="f" d="M-575.68,254.71l22.783,13.7,6.914-3.992,3.8,2.286-11.128,6.425-26.586-15.986Z" transform="translate(579.893 -254.71)"/></g><g transform="translate(26.585 11.994)"><path class="e" d="M-556.019,260.437l-.1,7.812-11.128,6.425.1-7.812Z" transform="translate(567.243 -260.437)"/></g><g transform="translate(0 2.433)"><path class="r" d="M-553.257,271.857l-.1,7.812-26.586-15.986.1-7.812Z" transform="translate(579.939 -255.871)"/></g></g><g class="c" transform="translate(0 61.064)"><g class="c" transform="translate(5.805 3.411)"><g class="aa"><g class="c" transform="translate(0 0)"><path class="i" d="M-579.683,259.805l-.1,7.813a7.15,7.15,0,0,0-1.035-.521l.1-7.811a7.132,7.132,0,0,1,1.034.519" transform="translate(585.574 -258.923)"/><path class="j" d="M-580.443,259.381l-.1,7.811c-.178-.071-.354-.132-.526-.182l.1-7.811a5.256,5.256,0,0,1,.526.182" transform="translate(585.299 -259.018)"/><path class="d" d="M-580.782,259.246l-.1,7.811c-.121-.034-.241-.065-.358-.088l.1-7.813c.117.025.237.054.358.09" transform="translate(585.112 -259.065)"/><path class="k" d="M-580.989,259.182l-.1,7.813q-.148-.031-.289-.05l.1-7.813c.1.013.191.029.289.05" transform="translate(584.961 -259.091)"/><path class="l" d="M-581.143,259.146l-.1,7.813c-.086-.013-.172-.023-.258-.029l.1-7.811c.084.006.17.015.255.027" transform="translate(584.826 -259.106)"/><path class="m" d="M-581.272,259.126l-.1,7.811c-.082-.006-.163-.01-.243-.013l.1-7.811c.08,0,.161,0,.245.013" transform="translate(584.7 -259.112)"/><path class="n" d="M-581.387,259.113l-.1,7.811c-.084,0-.165,0-.249,0l.1-7.811c.082,0,.163-.006.247,0" transform="translate(584.569 -259.113)"/><path class="o" d="M-581.491,259.115l-.1,7.811c-.09,0-.182.013-.272.023l.1-7.813c.09-.011.182-.017.274-.021" transform="translate(584.427 -259.11)"/><path class="p" d="M-581.584,259.125l-.1,7.813c-.117.013-.234.034-.348.057l.1-7.811c.115-.025.23-.044.348-.059" transform="translate(584.245 -259.099)"/><path class="q" d="M-581.035,259.153l-.1,7.811a4.2,4.2,0,0,0-1.221.48,3.646,3.646,0,0,0-.5.339l.1-7.811a3.417,3.417,0,0,1,.5-.339,4.2,4.2,0,0,1,1.221-.479" transform="translate(583.348 -259.068)"/><path class="p" d="M-582.627,259.544l-.1,7.811a1.946,1.946,0,0,0-.239.235l.1-7.813a1.95,1.95,0,0,1,.239-.232" transform="translate(583.224 -258.641)"/><path class="o" d="M-582.8,259.655l-.1,7.813a1.312,1.312,0,0,0-.126.172l.1-7.811a1.365,1.365,0,0,1,.126-.174" transform="translate(583.158 -258.519)"/><path class="n" d="M-582.888,259.738l-.1,7.811a1.042,1.042,0,0,0-.073.147l.1-7.813a1.2,1.2,0,0,1,.073-.144" transform="translate(583.12 -258.429)"/><path class="m" d="M-582.938,259.807l-.1,7.813a.82.82,0,0,0-.044.138l.1-7.813a.7.7,0,0,1,.042-.138" transform="translate(583.097 -258.353)"/><path class="l" d="M-582.97,259.873l-.1,7.813c-.008.044-.015.09-.019.136l.1-7.811a.79.79,0,0,1,.019-.138" transform="translate(583.087 -258.281)"/><path class="k" d="M-582.989,259.939l-.1,7.811v.029l.1-7.811,0-.029" transform="translate(583.087 -258.209)"/></g></g></g><g class="c" transform="translate(0 5.339)"><g class="ab"><g class="c"><path class="i" d="M-582.469,264.091l-.1,7.811c-2.2-1.321-3.311-2.7-3.294-4.058l.1-7.811c-.017,1.355,1.093,2.735,3.294,4.058" transform="translate(585.859 -260.033)"/></g></g></g><g transform="translate(11.599 4.295)"><path class="r" d="M-565.872,268.163l-.1,7.812-14.351-8.629.1-7.812Z" transform="translate(580.32 -259.534)"/></g><g class="c" transform="translate(25.951 12.923)"><g class="ac"><g class="c"><path class="i" d="M-571.929,265.293l-.1,7.811c.006-.49-.436-1.03-1.441-1.635l.1-7.813c1.005.605,1.447,1.147,1.441,1.638" transform="translate(573.466 -263.655)"/></g></g></g><g transform="translate(3.294 9.397)"><path class="r" d="M-570.36,270.286l-.1,7.812-13.829-8.315.1-7.812Z" transform="translate(584.286 -261.971)"/></g><g class="c" transform="translate(17.123 14.393)"><g class="ad"><g class="c"><path class="k" d="M-569.912,264.357l-.1,7.811,0,.092.1-7.813,0-.09" transform="translate(586.075 -264.357)"/><path class="l" d="M-569.883,264.4l-.1,7.813a2.475,2.475,0,0,1-.059.425l.1-7.813a2.453,2.453,0,0,0,.059-.425" transform="translate(586.045 -264.31)"/><path class="m" d="M-569.872,264.6l-.1,7.813a2.8,2.8,0,0,1-.134.429l.1-7.813a2.741,2.741,0,0,0,.134-.429" transform="translate(585.975 -264.088)"/><path class="n" d="M-569.884,264.808l-.1,7.813a3.241,3.241,0,0,1-.232.457l.1-7.811a3.369,3.369,0,0,0,.232-.459" transform="translate(585.853 -263.864)"/><path class="o" d="M-569.912,265.027l-.1,7.811a4.231,4.231,0,0,1-.392.542l.1-7.813a4.18,4.18,0,0,0,.392-.54" transform="translate(585.648 -263.624)"/><path class="p" d="M-569.919,265.285l-.1,7.813a6.027,6.027,0,0,1-.737.72l.1-7.811a6.21,6.21,0,0,0,.737-.722" transform="translate(585.263 -263.342)"/><path class="q" d="M-567.985,265.63l-.1,7.811a10.009,10.009,0,0,1-1.436.984,12.576,12.576,0,0,1-3.675,1.43l.1-7.813a12.63,12.63,0,0,0,3.675-1.428,10.35,10.35,0,0,0,1.437-.984" transform="translate(582.593 -262.964)"/><path class="p" d="M-572.526,266.782l-.1,7.813c-.362.077-.727.138-1.093.18l.1-7.811q.547-.066,1.091-.182" transform="translate(582.022 -261.704)"/><path class="o" d="M-573.174,266.869l-.1,7.811c-.281.033-.563.057-.848.071l.1-7.813c.285-.013.567-.036.85-.069" transform="translate(581.579 -261.609)"/><path class="n" d="M-573.628,266.9l-.1,7.813c-.251.01-.5.015-.758.01l.1-7.813c.253,0,.507,0,.758-.01" transform="translate(581.183 -261.573)"/><path class="m" d="M-574,266.926l-.1,7.813c-.243,0-.486-.017-.729-.036l.1-7.813c.243.021.486.031.729.036" transform="translate(580.802 -261.586)"/><path class="l" d="M-574.345,266.932l-.1,7.813c-.247-.019-.5-.046-.743-.082l.1-7.811c.247.034.5.061.743.08" transform="translate(580.414 -261.627)"/><path class="k" d="M-574.661,266.926l-.1,7.811c-.274-.038-.547-.086-.819-.142l.1-7.811c.272.057.544.1.819.142" transform="translate(579.986 -261.702)"/><path class="d" d="M-574.98,266.909l-.1,7.811c-.32-.067-.639-.147-.957-.239l.1-7.811q.477.138.957.239" transform="translate(579.486 -261.827)"/><path class="j" d="M-575.26,266.9l-.1,7.811q-.653-.188-1.3-.446l.1-7.813a13.211,13.211,0,0,0,1.3.448" transform="translate(578.809 -262.061)"/><path class="i" d="M-575.429,267.018l-.1,7.813a15.035,15.035,0,0,1-2.157-1.078l.1-7.811a14.9,14.9,0,0,0,2.155,1.076" transform="translate(577.682 -262.623)"/></g></g></g><g transform="translate(0.097)"><path class="f" d="M-582.814,259.173a12.491,12.491,0,0,1,13.075.331l13.829,8.315c4.247,2.553,4.416,5.329.3,7.708a12.469,12.469,0,0,1-13.073-.331l-13.831-8.315C-586.766,264.326-586.95,261.56-582.814,259.173Zm22.952,11.234-14.352-8.629c-1.9-1.143-3.455-1.1-4.8-.318s-1.455,1.688.446,2.831l14.35,8.629c1.9,1.143,3.455,1.1,4.8.32s1.457-1.69-.444-2.833" transform="translate(585.813 -257.483)"/></g></g></g></svg>