<svg xmlns="http://www.w3.org/2000/svg" xmlns:xlink="http://www.w3.org/1999/xlink" width="163.864" height="103.846" viewBox="0 0 163.864 103.846"><defs><style>.a,.b{fill:none;}.b{stroke:#490c5a;stroke-linejoin:round;stroke-width:2px;}.c{isolation:isolate;}.d{fill:#4a0e5b;}.e{fill:#612277;}.f{fill:#501362;}.g{fill:#fff;}.h{fill:#4d115f;}.i{fill:#480b59;}.j{fill:#460957;}.k{fill:#521564;}.l{clip-path:url(#a);}.m{fill:#490c5a;}.n{fill:#4b0e5c;}.o{fill:#4f1361;}.p{fill:#511463;}.q{fill:#531666;}.r{fill:#551868;}.s{fill:#571a6a;}.t{fill:#591c6d;}.u{fill:#5b1d70;}.v{clip-path:url(#b);}.w{clip-path:url(#c);}.x{clip-path:url(#d);}.y{clip-path:url(#e);}.z{clip-path:url(#f);}.aa{clip-path:url(#g);}.ab{clip-path:url(#h);}.ac{clip-path:url(#i);}</style><clipPath id="a"><path class="a" d="M-489.7,338.915l-.1,7.813c-1.9-1.143-3.378-1.085-4.72-.31l.1-7.813C-493.078,337.83-491.6,337.774-489.7,338.915Z" transform="translate(494.517 -338.038)"/></clipPath><clipPath id="b"><path class="a" d="M-484.127,344.034l-.1,7.813c0-.477-.434-1-1.434-1.606l.1-7.813C-484.561,343.031-484.121,343.557-484.127,344.034Z" transform="translate(485.658 -342.428)"/></clipPath><clipPath id="c"><path class="a" d="M-480.478,343.12l-.1,7.813c-.015,1.214-1.005,2.414-3.026,3.581l.1-7.813C-481.483,345.534-480.493,344.335-480.478,343.12Z" transform="translate(483.6 -343.12)"/></clipPath><clipPath id="d"><path class="a" d="M-500.615,345.219l-.1,7.811c-1.9-1.143-3.38-1.085-4.722-.31l.1-7.813C-503.992,344.132-502.516,344.076-500.615,345.219Z" transform="translate(505.433 -344.341)"/></clipPath><clipPath id="e"><path class="a" d="M-495.043,350.335l-.1,7.813c.006-.477-.433-1-1.434-1.606l.1-7.811C-495.475,349.332-495.037,349.86-495.043,350.335Z" transform="translate(496.574 -348.731)"/></clipPath><clipPath id="f"><path class="a" d="M-491.392,349.422l-.1,7.813c-.015,1.215-1.005,2.414-3.026,3.581l.1-7.813C-492.4,351.836-491.409,350.639-491.392,349.422Z" transform="translate(494.516 -349.422)"/></clipPath><clipPath id="g"><path class="a" d="M-522.343,357.67l-.1,7.813c-1.9-1.143-3.239-1.076-4.567-.31l.1-7.811C-525.582,356.6-524.244,356.527-522.343,357.67Z" transform="translate(527.006 -356.797)"/></clipPath><clipPath id="h"><path class="a" d="M-521.388,359.927l-.1,7.811c.006-.456-.434-.963-1.437-1.568l.1-7.811C-521.822,358.962-521.382,359.469-521.388,359.927Z" transform="translate(522.921 -358.359)"/></clipPath><clipPath id="i"><path class="a" d="M-517.78,359.028l-.1,7.811c-.017,1.217-1.007,2.419-3.024,3.583l.1-7.813C-518.787,361.447-517.8,360.245-517.78,359.028Z" transform="translate(520.9 -359.028)"/></clipPath></defs><g transform="translate(0.999 1)"><path class="b" d="M-400.232,322.566l-.05,3.987-4.272-1.493-5.279,3.049-.077,6.249-6.11-2.676-6.158,3.556-.1,7.811,9.542,7.894-8.523-2.27-6-10.5-4.213,2.431-.08,6.429-5.415-3.256-4.213,2.433-.044,3.574-3.011-1.809-4.2,2.423-.048,3.851a11.561,11.561,0,0,0-8.9,1.317l-6.653,3.84-.044,3.574-3.011-1.809-4.2,2.423-.046,3.851a11.574,11.574,0,0,0-8.906,1.317l-6.651,3.84-.044,3.522-2.967-1.784-3.75,2.165-.048,3.989L-497.974,379l-5.279,3.047-.038,3-2.523-1.518-11.469,6.621-.04,3.244a11.643,11.643,0,0,0-8.171,1.5l-6.188,3.572-.1,7.813,26.585,15.986,4.2-2.425.1-7.811-5.08-3.055.052-4.123,15.131,9.1,11.469-6.621.036-3,2.525,1.518,3.782-2.182.059-4.839,5.189,1.809,4.32-2.494.044-3.522,2.967,1.784,6.651-3.84a10.673,10.673,0,0,0,1.418-.969c.029-.025.075-.048.1-.073a6.037,6.037,0,0,0,.729-.712l.008-.01.019-.029a3.736,3.736,0,0,0,.348-.477,3.1,3.1,0,0,0,.193-.379l.015-.031.01-.021a2.453,2.453,0,0,0,.126-.4,2.126,2.126,0,0,0,.054-.394l0-.084.065-5.114,5.861,3.526,4.2-2.425.044-3.574,3.011,1.811,6.653-3.84a10.933,10.933,0,0,0,1.418-.972c.029-.023.075-.046.1-.071a5.885,5.885,0,0,0,.727-.712l.008-.013.021-.027a3.872,3.872,0,0,0,.346-.477,2.825,2.825,0,0,0,.193-.379l.017-.031.01-.021a2.44,2.44,0,0,0,.126-.4,2.331,2.331,0,0,0,.054-.394l0-.084h0l.063-5.114,5.863,3.526,4.2-2.425.044-3.574,3.011,1.811,4.213-2.433.057-4.565,5.329,1.455,4.322-2.5.015-1.116.787.653,3.859-2.228.071-5.733.98-.565,5.553,2.486,4.245-2.45.027-2.241,1.887,1.135,3.782-2.184.059-4.827,5.172,1.807,4.322-2.5.1-7.811L-396.5,320.409Zm-33.449,45.521a.923.923,0,0,0-.044-.205A.923.923,0,0,1-433.682,368.087Zm-.243-.588a1.65,1.65,0,0,1,.151.228A1.65,1.65,0,0,0-433.925,367.5Zm-1.183-.982a6.941,6.941,0,0,1,.63.427A6.941,6.941,0,0,0-435.108,366.517Zm.783.565a3.325,3.325,0,0,1,.289.266A3.325,3.325,0,0,0-434.324,367.082Zm5.5,2.969c-.1.1-.2.2-.312.3.111-.1.209-.2.306-.3Zm-27.714,11.232a.884.884,0,0,0-.044-.2A.884.884,0,0,1-456.54,381.284Zm-.241-.586a1.856,1.856,0,0,1,.151.226A1.856,1.856,0,0,0-456.781,380.7Zm-1.185-.982a6.31,6.31,0,0,1,.63.425A6.31,6.31,0,0,0-457.966,379.715Zm.789.568a3.2,3.2,0,0,1,.285.262A3.2,3.2,0,0,0-457.176,380.283Zm5.492,2.965c-.094.1-.2.2-.31.3.109-.1.209-.2.306-.3Zm-60.024,18.159c0-.015-.01-.034-.01-.05l.015.01A.227.227,0,0,1-511.708,401.407Zm9.6-7.786.038-3,3.35,2.014-3.139,1.813-.825-.5Zm9.771,2.854,5.193,3.122-3.139,1.811-2.1-1.263Z" transform="translate(531.778 -320.409)"/><g class="c" transform="translate(121.849)"><g transform="translate(9.6 2.156)"><path class="d" d="M-452.992,331.008l-.1,7.812L-469,329.25l.1-7.812Z" transform="translate(469.004 -321.439)"/></g><g transform="translate(35.599 15.986)"><path class="e" d="M-452.17,328.043l-.1,7.812-4.321,2.495.1-7.812Z" transform="translate(456.588 -328.043)"/></g><g transform="translate(11.11 9.922)"><path class="f" d="M-443.7,333.706l-.1,7.812-24.489-8.558.1-7.812Z" transform="translate(468.282 -325.147)"/></g><g transform="translate(0.097)"><path class="g" d="M-460.207,320.409l26.585,15.986-4.321,2.495-24.489-8.558,19.257,11.579-3.781,2.183-26.585-15.986,5.278-3.047,20.236,7.074-15.914-9.569Z" transform="translate(473.542 -320.409)"/></g><g transform="translate(26.585 21.501)"><path class="e" d="M-457.014,330.677l-.1,7.812-3.781,2.183.1-7.812Z" transform="translate(460.892 -330.677)"/></g><g transform="translate(0 7.699)"><path class="d" d="M-446.906,340.071l-.1,7.812L-473.588,331.9l.1-7.812Z" transform="translate(473.588 -324.086)"/></g></g><g class="c" transform="translate(109.502 11.272)"><g transform="translate(7.578 4.728)"><path class="h" d="M-460.3,334.968l-.1,7.812-15.468-6.918.1-7.812Z" transform="translate(475.866 -328.05)"/></g><g transform="translate(32.774 13.517)"><path class="e" d="M-459.492,332.247l-.1,7.812-4.244,2.45.1-7.812Z" transform="translate(463.833 -332.247)"/></g><g transform="translate(27.22 13.482)"><path class="h" d="M-460.834,334.716l-.1,7.812-5.555-2.485.1-7.812Z" transform="translate(466.485 -332.231)"/></g><g transform="translate(22.065 13.482)"><path class="e" d="M-463.7,332.231l-.1,7.812-5.155,2.976.1-7.812Z" transform="translate(468.947 -332.231)"/></g><g transform="translate(0.097)"><path class="g" d="M-473.28,325.792l30.859,13.517-4.245,2.45-5.553-2.484-5.155,2.976,4.1,3.323-3.859,2.228-22.309-18.455Zm12.828,13.99,4.058-2.345-15.466-6.916,11.408,9.262" transform="translate(479.438 -325.792)"/></g><g transform="translate(22.31 19.781)"><path class="e" d="M-464.875,335.239l-.1,7.812-3.858,2.228.1-7.812Z" transform="translate(468.83 -335.239)"/></g><g transform="translate(0 3.555)"><path class="i" d="M-457.077,345.944l-.1,7.812-22.31-18.454.1-7.812Z" transform="translate(479.484 -327.49)"/></g></g><g class="c" transform="translate(90.503 17.759)"><g transform="translate(9.708 2.433)"><path class="j" d="M-477.728,340.193l-.1,7.812-6.1-10.142.1-7.812Z" transform="translate(483.921 -330.051)"/></g><g transform="translate(36.185 15.986)"><path class="e" d="M-466.859,336.524l-.1,7.812-4.322,2.5.1-7.812Z" transform="translate(471.277 -336.524)"/></g><g transform="translate(21.501 14.472)"><path class="k" d="M-463.509,339.81l-.1,7.812-14.684-4.009.1-7.812Z" transform="translate(478.289 -335.801)"/></g><g transform="translate(0.097)"><path class="g" d="M-474.59,328.89l6,10.5L-448,344.875l-4.321,2.495-14.684-4.009,1.126,2.2,8.172,4.914-4.213,2.433-26.586-15.986,4.213-2.433,11.591,6.969-6.1-10.142Z" transform="translate(488.511 -328.89)"/></g><g transform="translate(26.586 21.59)"><path class="e" d="M-471.551,339.2l-.1,7.812-4.213,2.433.1-7.812Z" transform="translate(475.861 -339.2)"/></g><g transform="translate(0 8.037)"><path class="d" d="M-461.875,348.714l-.1,7.812-26.586-15.986.1-7.812Z" transform="translate(488.557 -332.728)"/></g></g><g class="c" transform="translate(83.249 27.561)"><g transform="translate(0.097)"><path class="g" d="M-487.777,333.571l26.586,15.986-4.2,2.424-26.586-15.986Z" transform="translate(491.975 -333.571)"/></g><g transform="translate(26.586 15.986)"><path class="e" d="M-475.031,341.2l-.1,7.812-4.2,2.424.1-7.812Z" transform="translate(479.325 -341.205)"/></g><g transform="translate(0 2.424)"><path class="d" d="M-465.339,350.714l-.1,7.812-26.586-15.986.1-7.812Z" transform="translate(492.021 -334.728)"/></g></g><g class="c" transform="translate(67.646 33.441)"><g class="c" transform="translate(10.378 3.475)"><g class="l"><g class="c" transform="translate(0 0)"><path class="m" d="M-491.62,338.733l-.1,7.813a7.1,7.1,0,0,0-1.047-.528l.1-7.813a7.421,7.421,0,0,1,1.045.528" transform="translate(496.436 -337.856)"/><path class="n" d="M-492.4,338.3l-.1,7.813c-.174-.069-.343-.13-.511-.178l.1-7.811c.167.048.337.107.513.176" transform="translate(496.169 -337.948)"/><path class="h" d="M-492.73,338.166l-.1,7.811c-.117-.034-.232-.061-.345-.086l.1-7.811c.115.023.228.052.346.086" transform="translate(495.988 -337.993)"/><path class="o" d="M-492.931,338.105l-.1,7.811c-.092-.019-.184-.036-.276-.048l.1-7.811c.09.012.182.029.274.048" transform="translate(495.844 -338.018)"/><path class="p" d="M-493.078,338.071l-.1,7.811c-.082-.01-.163-.021-.245-.027l.1-7.811c.08.006.161.015.245.027" transform="translate(495.716 -338.032)"/><path class="q" d="M-493.2,338.049l-.1,7.811c-.078,0-.155-.008-.232-.01l.1-7.811c.075,0,.153,0,.232.01" transform="translate(495.595 -338.038)"/><path class="r" d="M-493.31,338.04l-.1,7.811c-.08,0-.157,0-.237,0l.1-7.813c.077,0,.157,0,.237,0" transform="translate(495.471 -338.038)"/><path class="s" d="M-493.411,338.04l-.1,7.813c-.088,0-.174.01-.26.021l.1-7.813c.086-.008.174-.017.262-.021" transform="translate(495.335 -338.037)"/><path class="t" d="M-493.5,338.05l-.1,7.813c-.113.013-.224.031-.333.054l.1-7.811c.109-.023.22-.042.333-.057" transform="translate(495.161 -338.026)"/><path class="u" d="M-493.187,338.077l-.1,7.811a4.21,4.21,0,0,0-1.233.488l.1-7.813a4.23,4.23,0,0,1,1.233-.486" transform="translate(494.517 -337.996)"/></g></g></g><g transform="translate(8.016 4.042)"><path class="e" d="M-493.187,338.309l-.1,7.812-2.361,1.363.1-7.812Z" transform="translate(495.645 -338.309)"/></g><g transform="translate(15.098 4.352)"><path class="d" d="M-478.337,346.773l-.1,7.812-13.829-8.315.1-7.812Z" transform="translate(492.263 -338.457)"/></g><g class="c" transform="translate(28.928 12.666)"><g class="v"><g class="c"><path class="m" d="M-484.127,344.034l-.1,7.813c0-.477-.434-1-1.434-1.606l.1-7.813c1,.6,1.441,1.129,1.434,1.606" transform="translate(485.658 -342.428)"/></g></g></g><g class="c" transform="translate(33.238 14.115)"><g class="w"><g class="c"><path class="o" d="M-482.058,343.12l-.1,7.813,0,.084.1-7.813,0-.084" transform="translate(485.18 -343.12)"/><path class="p" d="M-482.031,343.16l-.1,7.813a2.331,2.331,0,0,1-.054.394l.1-7.813a2.3,2.3,0,0,0,.054-.394" transform="translate(485.151 -343.076)"/><path class="q" d="M-482.02,343.348l-.1,7.813a2.444,2.444,0,0,1-.126.4l.1-7.813a2.392,2.392,0,0,0,.126-.4" transform="translate(485.086 -342.871)"/><path class="r" d="M-482.032,343.539l-.1,7.813a3.075,3.075,0,0,1-.218.431l.1-7.811a3.231,3.231,0,0,0,.218-.433" transform="translate(484.972 -342.662)"/><path class="s" d="M-482.053,343.746l-.1,7.811a3.891,3.891,0,0,1-.377.517l.1-7.813a4.006,4.006,0,0,0,.377-.515" transform="translate(484.775 -342.435)"/><path class="t" d="M-482.05,343.992l-.1,7.813a5.887,5.887,0,0,1-.727.712l.1-7.811a5.884,5.884,0,0,0,.727-.714" transform="translate(484.395 -342.166)"/><path class="u" d="M-481.981,344.333l-.1,7.811a10.882,10.882,0,0,1-1.522,1.043l.1-7.813a10.713,10.713,0,0,0,1.522-1.041" transform="translate(483.6 -341.793)"/></g></g></g><g transform="translate(0 5.551)"><path class="d" d="M-472.791,355.016l-.1,7.812-26.585-15.986.1-7.812Z" transform="translate(499.473 -339.03)"/></g><g transform="translate(26.586 17.697)"><path class="e" d="M-480.028,344.83l-.1,7.812-6.652,3.841.1-7.812Z" transform="translate(486.777 -344.83)"/></g><g transform="translate(0.096)"><path class="g" d="M-492.774,338.09c4.213-2.433,8.581-2.226,12.842.337L-466.5,346.5c4.263,2.563,4.525,5.139.312,7.572l-6.653,3.84-26.585-15.986Zm22.276,10.956-13.831-8.315c-1.9-1.141-3.378-1.085-4.72-.31l-2.362,1.363,18.982,11.414,2.36-1.363c1.344-.777,1.472-1.646-.429-2.789" transform="translate(499.427 -336.379)"/></g></g><g class="c" transform="translate(60.392 40.757)"><g transform="translate(0.097)"><path class="g" d="M-498.693,339.873l26.586,15.986-4.2,2.424L-502.891,342.3Z" transform="translate(502.891 -339.873)"/></g><g transform="translate(26.585 15.986)"><path class="e" d="M-485.946,347.507l-.1,7.812-4.2,2.424.1-7.812Z" transform="translate(490.241 -347.507)"/></g><g transform="translate(0 2.424)"><path class="d" d="M-476.255,357.016l-.1,7.812-26.586-15.986.1-7.812Z" transform="translate(502.937 -341.03)"/></g></g><g class="c" transform="translate(44.788 46.639)"><g class="c" transform="translate(10.377 3.474)"><g class="x"><g class="c" transform="translate(0 0)"><path class="m" d="M-502.535,345.036l-.1,7.811a7.424,7.424,0,0,0-1.047-.528l.1-7.811a7.225,7.225,0,0,1,1.047.528" transform="translate(507.353 -344.157)"/><path class="n" d="M-503.314,344.6l-.1,7.811c-.174-.069-.345-.128-.513-.178l.1-7.811a5.013,5.013,0,0,1,.513.178" transform="translate(507.085 -344.25)"/><path class="h" d="M-503.647,344.468l-.1,7.811c-.115-.034-.23-.061-.343-.086l.1-7.811c.113.023.228.052.343.086" transform="translate(506.906 -344.295)"/><path class="o" d="M-503.846,344.407l-.1,7.811c-.094-.019-.186-.033-.276-.048l.1-7.811c.09.012.182.029.276.048" transform="translate(506.761 -344.32)"/><path class="p" d="M-503.995,344.373l-.1,7.811q-.126-.016-.245-.025l.1-7.813c.082.006.163.015.245.027" transform="translate(506.633 -344.335)"/><path class="q" d="M-504.118,344.352l-.1,7.813c-.077-.006-.157-.01-.232-.013l.1-7.811c.077,0,.155,0,.232.01" transform="translate(506.512 -344.34)"/><path class="r" d="M-504.227,344.341l-.1,7.811c-.08,0-.159,0-.237,0l.1-7.813c.078,0,.157,0,.237,0" transform="translate(506.388 -344.341)"/><path class="s" d="M-504.327,344.342l-.1,7.813c-.088,0-.176.011-.262.021l.1-7.811c.086-.01.174-.019.262-.023" transform="translate(506.251 -344.339)"/><path class="t" d="M-504.415,344.353l-.1,7.811c-.113.013-.222.031-.333.054l.1-7.811c.109-.023.22-.042.331-.055" transform="translate(506.077 -344.327)"/><path class="u" d="M-504.1,344.379l-.1,7.811a4.237,4.237,0,0,0-1.233.488l.1-7.813a4.22,4.22,0,0,1,1.235-.486" transform="translate(505.433 -344.299)"/></g></g></g><g transform="translate(8.016 4.041)"><path class="e" d="M-504.1,344.611l-.1,7.812-2.361,1.363.1-7.812Z" transform="translate(506.56 -344.611)"/></g><g transform="translate(15.098 4.351)"><path class="d" d="M-489.252,353.075l-.1,7.812-13.829-8.315.1-7.812Z" transform="translate(503.178 -344.76)"/></g><g class="c" transform="translate(28.927 12.668)"><g class="y"><g class="c"><path class="m" d="M-495.043,350.335l-.1,7.813c.006-.477-.433-1-1.434-1.606l.1-7.811c1,.6,1.441,1.129,1.435,1.6" transform="translate(496.574 -348.731)"/></g></g></g><g class="c" transform="translate(33.237 14.115)"><g class="z"><g class="c"><path class="o" d="M-492.971,349.422l-.1,7.813,0,.084.1-7.813,0-.084" transform="translate(496.096 -349.422)"/><path class="p" d="M-492.947,349.462l-.1,7.813a2.123,2.123,0,0,1-.054.394l.1-7.813a2.286,2.286,0,0,0,.052-.394" transform="translate(496.067 -349.378)"/><path class="q" d="M-492.934,349.65l-.1,7.813a2.446,2.446,0,0,1-.126.4l.1-7.811a2.71,2.71,0,0,0,.128-.4" transform="translate(496.002 -349.173)"/><path class="r" d="M-492.948,349.842l-.1,7.811a3.109,3.109,0,0,1-.218.431l.1-7.811a2.987,2.987,0,0,0,.218-.431" transform="translate(495.888 -348.963)"/><path class="s" d="M-492.97,350.048l-.1,7.811a4.072,4.072,0,0,1-.375.517l.1-7.811a4.212,4.212,0,0,0,.375-.517" transform="translate(495.692 -348.737)"/><path class="t" d="M-492.964,350.295l-.1,7.811a6.041,6.041,0,0,1-.729.712l.1-7.811a6.069,6.069,0,0,0,.729-.712" transform="translate(495.311 -348.467)"/><path class="u" d="M-492.9,350.635l-.1,7.811a10.88,10.88,0,0,1-1.522,1.043l.1-7.813a10.7,10.7,0,0,0,1.522-1.041" transform="translate(494.516 -348.095)"/></g></g></g><g transform="translate(0 5.551)"><path class="d" d="M-483.706,361.318l-.1,7.812-26.586-15.986.1-7.812Z" transform="translate(510.388 -345.332)"/></g><g transform="translate(26.586 17.696)"><path class="e" d="M-490.944,351.132l-.1,7.812-6.652,3.841.1-7.812Z" transform="translate(497.692 -351.132)"/></g><g transform="translate(0.097)"><path class="g" d="M-503.692,344.391c4.213-2.431,8.581-2.226,12.845.337l13.431,8.077c4.261,2.563,4.525,5.141.31,7.572l-6.651,3.84-26.585-15.986Zm22.276,10.958-13.829-8.315c-1.9-1.143-3.378-1.087-4.722-.312l-2.36,1.363,18.98,11.414,2.362-1.363c1.342-.775,1.47-1.644-.431-2.787" transform="translate(510.342 -342.681)"/></g></g><g class="c" transform="translate(28.429 53.927)"><g transform="translate(9.6 2.165)"><path class="d" d="M-497.606,356.765l-.1,7.812-15.915-9.569.1-7.812Z" transform="translate(513.617 -347.196)"/></g><g transform="translate(35.614 15.986)"><path class="e" d="M-496.775,353.8l-.1,7.812-4.321,2.5.1-7.812Z" transform="translate(501.193 -353.796)"/></g><g transform="translate(11.11 9.931)"><path class="f" d="M-488.295,359.454l-.1,7.812-24.5-8.549.1-7.812Z" transform="translate(512.895 -350.905)"/></g><g transform="translate(0.097)"><path class="g" d="M-504.8,346.162l26.585,15.986-4.321,2.5-24.5-8.549,19.257,11.579-3.781,2.183-26.586-15.986,5.278-3.048,20.236,7.074-15.915-9.569Z" transform="translate(518.155 -346.162)"/></g><g transform="translate(26.585 21.51)"><path class="e" d="M-501.627,356.434l-.1,7.812-3.781,2.183.1-7.812Z" transform="translate(505.505 -356.434)"/></g><g transform="translate(0 7.708)"><path class="d" d="M-491.519,365.829l-.1,7.812L-518.2,357.655l.1-7.812Z" transform="translate(518.201 -349.843)"/></g></g><g class="c" transform="translate(14.4 63.114)"><g transform="translate(8.016 2.286)"><path class="e" d="M-513.722,351.641l-.1,7.812-7.254,4.188.1-7.812Z" transform="translate(521.073 -351.641)"/></g><g transform="translate(19.208 9.872)"><path class="e" d="M-509.859,355.264l-.1,7.812-5.772,3.333.1-7.812Z" transform="translate(515.728 -355.264)"/></g><g transform="translate(0.097)"><path class="g" d="M-513.388,350.549l3.8,2.286-7.254,4.188,7.405,4.453,5.772-3.333,3.787,2.277-5.772,3.333,7.789,4.683,7.254-4.188,3.8,2.286-11.467,6.621-26.586-15.986Z" transform="translate(524.855 -350.549)"/></g><g transform="translate(26.585 15.986)"><path class="e" d="M-500.641,358.183l-.1,7.812-11.467,6.621.1-7.812Z" transform="translate(512.205 -358.183)"/></g><g transform="translate(0 6.621)"><path class="d" d="M-498.219,369.7l-.1,7.812L-524.9,361.523l.1-7.812Z" transform="translate(524.901 -353.711)"/></g></g><g class="c" transform="translate(0 72.768)"><g class="c" transform="translate(9.991 3.429)"><g class="aa"><g class="c" transform="translate(0 0)"><path class="m" d="M-524.165,357.5l-.1,7.813a7.465,7.465,0,0,0-1.078-.547l.1-7.811a7.452,7.452,0,0,1,1.078.544" transform="translate(528.828 -356.625)"/><path class="n" d="M-524.989,357.043l-.1,7.811c-.167-.067-.329-.121-.488-.168l.1-7.813c.159.046.32.1.488.17" transform="translate(528.574 -356.714)"/><path class="h" d="M-525.31,356.915l-.1,7.813c-.109-.031-.214-.059-.318-.08l.1-7.813c.1.023.209.048.318.08" transform="translate(528.407 -356.755)"/><path class="o" d="M-525.5,356.858l-.1,7.813c-.088-.019-.172-.034-.256-.044l.1-7.813c.084.013.17.027.256.044" transform="translate(528.274 -356.778)"/><path class="p" d="M-525.633,356.827l-.1,7.813c-.078-.013-.151-.019-.226-.025l.1-7.813q.113.009.226.025" transform="translate(528.156 -356.792)"/><path class="q" d="M-525.748,356.807l-.1,7.813c-.071-.006-.143-.01-.212-.01l.1-7.813c.069,0,.141.006.212.01" transform="translate(528.045 -356.797)"/><path class="r" d="M-525.847,356.8l-.1,7.813c-.073,0-.144,0-.216,0l.1-7.811c.071,0,.142,0,.216,0" transform="translate(527.933 -356.797)"/><path class="s" d="M-525.937,356.8l-.1,7.811c-.082,0-.161.011-.241.021l.1-7.813c.08-.008.159-.015.241-.019" transform="translate(527.807 -356.795)"/><path class="t" d="M-526.018,356.808l-.1,7.813c-.1.013-.205.029-.306.05l.1-7.813c.1-.021.2-.038.306-.05" transform="translate(527.647 -356.785)"/><path class="u" d="M-525.683,356.832l-.1,7.813a4.2,4.2,0,0,0-1.227.49l.1-7.811a4.234,4.234,0,0,1,1.227-.492" transform="translate(527.006 -356.759)"/></g></g></g><g transform="translate(8 3.993)"><path class="e" d="M-525.869,357.067l-.1,7.812-1.991,1.149.1-7.812Z" transform="translate(527.957 -357.067)"/></g><g transform="translate(14.559 4.302)"><path class="d" d="M-520.742,359.611l-.1,7.812-3.986-2.4.1-7.812Z" transform="translate(524.825 -357.214)"/></g><g class="c" transform="translate(18.545 6.699)"><g class="ab"><g class="c"><path class="m" d="M-521.388,359.927l-.1,7.811c.006-.456-.434-.963-1.437-1.568l.1-7.811c1,.6,1.443,1.11,1.437,1.568" transform="translate(522.921 -358.359)"/></g></g></g><g class="c" transform="translate(22.777 8.1)"><g class="ac"><g class="c"><path class="o" d="M-519.357,359.028l-.1,7.811,0,.084.1-7.811,0-.084" transform="translate(522.478 -359.028)"/><path class="p" d="M-519.333,359.068l-.1,7.811a2.135,2.135,0,0,1-.054.4l.1-7.811a2.309,2.309,0,0,0,.052-.4" transform="translate(522.449 -358.984)"/><path class="q" d="M-519.32,359.257l-.1,7.811a2.471,2.471,0,0,1-.126.4l.1-7.813a2.6,2.6,0,0,0,.128-.4" transform="translate(522.384 -358.778)"/><path class="r" d="M-519.333,359.448l-.1,7.813a3.028,3.028,0,0,1-.22.433l.1-7.811a2.93,2.93,0,0,0,.22-.436" transform="translate(522.269 -358.569)"/><path class="s" d="M-519.357,359.656l-.1,7.811a4.062,4.062,0,0,1-.375.517l.1-7.811a4.024,4.024,0,0,0,.375-.517" transform="translate(522.073 -358.341)"/><path class="t" d="M-519.351,359.9l-.1,7.811a6.071,6.071,0,0,1-.729.714l.1-7.813a6.062,6.062,0,0,0,.729-.712" transform="translate(521.692 -358.071)"/><path class="u" d="M-519.288,360.243l-.1,7.813a10.792,10.792,0,0,1-1.516,1.036l.1-7.813a10.545,10.545,0,0,0,1.514-1.037" transform="translate(520.9 -357.699)"/></g></g></g><g transform="translate(20.787 11.682)"><path class="e" d="M-519.763,360.738l-.1,7.812-1.991,1.149.1-7.812Z" transform="translate(521.851 -360.738)"/></g><g transform="translate(0 5.28)"><path class="d" d="M-505.1,373.667l-.1,7.812-26.586-15.986.1-7.812Z" transform="translate(531.777 -357.681)"/></g><g transform="translate(26.586 18.842)"><path class="e" d="M-514.787,364.158l-.1,7.812-4.2,2.424.1-7.812Z" transform="translate(519.081 -364.158)"/></g><g transform="translate(0.097)"><path class="g" d="M-525.543,356.867c4.2-2.425,8.581-2.226,12.845.337l3.449,2.073c4.247,2.555,4.494,5.141.3,7.564l-1.991,1.15,10,6.012-4.2,2.423-26.585-15.986Zm12.357,4.992-3.987-2.4c-1.9-1.143-3.239-1.074-4.567-.308l-1.991,1.15,9,5.411,1.991-1.15c1.327-.766,1.455-1.562-.446-2.705" transform="translate(531.731 -355.16)"/></g></g></g></svg>