<svg xmlns="http://www.w3.org/2000/svg" xmlns:xlink="http://www.w3.org/1999/xlink" width="96.89" height="64.753" viewBox="0 0 96.89 64.753"><defs><style>.a,.b{fill:none;}.b{stroke:#490c5a;stroke-linejoin:round;stroke-width:2px;}.c{isolation:isolate;}.d{fill:#4a0e5c;}.e{clip-path:url(#a);}.f{fill:#490c5a;}.g{fill:#622378;}.h{clip-path:url(#b);}.i{fill:#4f1361;}.j{fill:#511463;}.k{fill:#531666;}.l{fill:#551868;}.m{fill:#571a6a;}.n{fill:#591c6d;}.o{fill:#5b1d70;}.p{fill:#5d1f72;}.q{clip-path:url(#c);}.r{fill:#4d115f;}.s{fill:#4b0e5c;}.t{fill:#fff;}.u{clip-path:url(#d);}.v{clip-path:url(#e);}.w{clip-path:url(#f);}.x{clip-path:url(#g);}.y{clip-path:url(#h);}.z{clip-path:url(#i);}.aa{clip-path:url(#j);}.ab{clip-path:url(#k);}.ac{clip-path:url(#l);}</style><clipPath id="a"><path class="a" d="M161.606,174.142l-.021,7.882c0-.4-.36-.764-.99-1.129l.021-7.882C161.248,173.377,161.608,173.742,161.606,174.142Z" transform="translate(-160.595 -173.013)"/></clipPath><clipPath id="b"><path class="a" d="M165.617,173.668l-.023,7.882c0,1.286-1.135,2.58-3.332,3.857l.021-7.882C164.482,176.248,165.612,174.954,165.617,173.668Z" transform="translate(-162.262 -173.668)"/></clipPath><clipPath id="c"><path class="a" d="M167.348,176.468l-.023,7.882a12.148,12.148,0,0,1-12.845.205l.023-7.882A12.148,12.148,0,0,0,167.348,176.468Z" transform="translate(-154.48 -176.468)"/></clipPath><clipPath id="d"><path class="a" d="M171.076,178.361l-.023,7.882c0-.438-.362-.838-1-1.208a4.494,4.494,0,0,0-4.8.268l.021-7.882a4.5,4.5,0,0,1,4.8-.268C170.714,177.523,171.079,177.923,171.076,178.361Z" transform="translate(-165.253 -176.583)"/></clipPath><clipPath id="e"><path class="a" d="M172.536,177.544l-.023,7.882c0,1.321-1.114,2.655-3.294,3.922l.021-7.882C171.422,180.2,172.532,178.865,172.536,177.544Z" transform="translate(-169.219 -177.544)"/></clipPath><clipPath id="f"><path class="a" d="M157.713,190.431l.021-7.882c0-.48.442-1.005,1.436-1.583l-.021,7.882C158.153,189.426,157.713,189.951,157.713,190.431Z" transform="translate(-157.713 -180.966)"/></clipPath><clipPath id="g"><path class="a" d="M154.944,189.492l.023-7.882c0,1.248.982,2.486,2.984,3.641a12.652,12.652,0,0,0,13.075-.2L171,192.936a12.652,12.652,0,0,1-13.075.2C155.926,191.977,154.94,190.74,154.944,189.492Z" transform="translate(-154.944 -181.61)"/></clipPath><clipPath id="h"><path class="a" d="M188.941,187.965l-.021,7.884c0-.41-.341-.787-.963-1.145-1.342-.775-2.819-.794-4.72.312a4.073,4.073,0,0,0-2.272,3.922l.021-7.882a4.073,4.073,0,0,1,2.272-3.922c1.9-1.106,3.38-1.089,4.722-.312C188.6,187.18,188.943,187.557,188.941,187.965Z" transform="translate(-180.965 -186.267)"/></clipPath><clipPath id="i"><path class="a" d="M189.235,187.122,189.212,195c0,1.321-1.156,2.657-3.38,3.949l.021-7.882C188.077,189.779,189.231,188.443,189.235,187.122Z" transform="translate(-185.832 -187.122)"/></clipPath><clipPath id="j"><path class="a" d="M178.3,191.588l-.023,7.882c0-1.022-.178-2.107-.174-3.212l.021-7.882C178.126,189.482,178.306,190.566,178.3,191.588Z" transform="translate(-178.107 -188.376)"/></clipPath><clipPath id="k"><path class="a" d="M174.349,200.006l.023-7.882c0-.471.433-.986,1.418-1.558l-.023,7.882C174.782,199.019,174.351,199.535,174.349,200.006Z" transform="translate(-174.349 -190.566)"/></clipPath><clipPath id="l"><path class="a" d="M191.344,190.07l-.023,7.882c0,1.956-.582,3.977-3.778,5.832a12.435,12.435,0,0,1-12.951.268c-1.981-1.145-2.942-2.347-2.94-3.564l.023-7.882c0,1.217.959,2.419,2.94,3.564a12.436,12.436,0,0,0,12.951-.268C190.762,194.047,191.338,192.024,191.344,190.07Z" transform="translate(-171.652 -190.07)"/></clipPath></defs><g transform="translate(1 1)"><path class="b" d="M160.945,190.211l1.991,1.15a13.915,13.915,0,0,0,1.738.842l0,0a2.784,2.784,0,0,0-.649,2.322,2.492,2.492,0,0,1-.1-.486l-.023,7.882c0,1.248.982,2.486,2.986,3.641a13.364,13.364,0,0,0,1.684.815c.031.013.063.033.094.046q.575.226,1.16.394c.059.017.117.027.176.044l.2.05c.172.042.339.09.511.126.251.05.5.094.754.13.065.01.128.015.191.023l.142.015c.124.015.247.031.371.042.232.019.463.031.7.038.145,0,.291,0,.436,0,.044,0,.09,0,.134,0s.1,0,.153,0c.268-.008.536-.027.8-.054.165-.017.331-.046.5-.069.088-.013.176-.023.262-.038s.147-.017.218-.029c.2-.036.4-.1.6-.151.113-.027.226-.046.339-.075l-.01,3.778,11.128,6.424,1.826-1.062,0,2.115,4.213,2.431,5.44-3.162-.015,4.785c0,1.217.959,2.419,2.94,3.564a13.291,13.291,0,0,0,1.671.808c.029.013.057.031.086.042.375.149.754.276,1.133.385.065.019.132.031.2.048s.138.036.207.052c.151.038.3.08.454.111.245.05.49.094.735.128.082.013.163.019.245.029l.138.015c.1.01.2.025.3.033.224.019.448.029.67.036.182,0,.364,0,.547,0,.029,0,.057,0,.084,0s.046,0,.071,0c.262-.008.523-.025.785-.052.2-.021.408-.054.614-.086.071-.01.144-.019.218-.031.046-.008.092-.01.138-.019.205-.038.41-.107.616-.155l.086-.021-.01,3.51L215.029,233l26.588-15.452.023-7.882-11.479,6.671h0l11.479-6.671-4.213-2.433-5.451,3.168.015-4.818c0,.029-.019.059-.021.088.05-1.231-.877-2.448-2.879-3.606a11.837,11.837,0,0,0-9.021-1.256l.01-3.591-26.59,15.452-2.243-1.3h0l2.243,1.3,26.59-15.452-4.215-2.431-24.611,14.3.006-2.113-3.8,2.209-.136-.077v0l.134.077,3.8-2.209-.134-.077,15.971-9.281.021-7.873.008,0-4.213-2.431-5.807,3.376.015-5.155a.477.477,0,0,1-.013.052c.031-1.269-.946-2.527-2.986-3.7a12.451,12.451,0,0,0-11.544-.563l.013-3.9a.6.6,0,0,1-.015.059c.038-1.227-.94-2.448-3.007-3.641l-6.2-3.581L146.773,185.7l-.023,7.882,4.215,2.433ZM200.2,216.64l.027.027-.027-.027Zm21.838-4.726a4.538,4.538,0,0,1,1.187-.232h.019a3.608,3.608,0,0,1,.526.054l-.008,3.438-5.2,3.02.01-3.147c.023-.088.042-.176.073-.262s.065-.161.1-.241.073-.17.117-.251.1-.168.153-.251.094-.151.151-.226.119-.14.18-.211c.08-.09.161-.182.253-.27.054-.052.115-.1.174-.151a5.572,5.572,0,0,1,.735-.54c.054-.033.1-.069.155-.1A6.989,6.989,0,0,1,222.04,211.913Zm8.171-3.482-.05.04c.088-.071.153-.142.232-.212C230.328,208.316,230.28,208.375,230.21,208.431Zm-25.641,5.861,0,.019Zm14.624-8.359-.027.033.038-.048Zm-.421.729-.031.065c.019-.044.038-.088.059-.132Zm-.224.685c-.006.027-.017.052-.023.08.008-.038.023-.075.031-.113Zm-.121.959c0-.059,0-.117.008-.174C218.432,208.188,218.43,208.247,218.428,208.305Zm-.2,5.681c-.01.025-.025.052-.036.08.061-.159.1-.318.149-.477C218.3,213.72,218.275,213.852,218.224,213.986Zm-.341.737c-.029.054-.073.107-.1.161a5.5,5.5,0,0,0,.281-.538C218,214.472,217.954,214.6,217.883,214.724Zm-.484.729c-.033.04-.08.082-.113.124s-.071.075-.1.113c.142-.165.274-.331.392-.5C217.512,215.278,217.466,215.366,217.4,215.452Zm-.7.758c-.119.113-.268.226-.4.337.2-.163.383-.327.551-.492C216.79,216.106,216.752,216.158,216.7,216.21Zm-.8.67c-.021.017-.048.031-.067.046a11.919,11.919,0,0,1-1.018.662,11.824,11.824,0,0,0,1.171-.779C215.948,216.832,215.925,216.857,215.894,216.88Zm-3.294-5.622c-.008-.461-.04-.93-.08-1.411v-.019C212.56,210.314,212.592,210.793,212.6,211.258Zm3.775,13.09,11.228-6.523h0l-11.23,6.525ZM219.8,205.3l-.044.034c.044-.042.1-.08.144-.119C219.864,205.242,219.833,205.271,219.8,205.3Zm-7.379,7.536a4.055,4.055,0,0,1-2.069,2.479,5.513,5.513,0,0,1-2.479.806l.01-3.947,4.546-2.643Zm-11.879,4.129a10.642,10.642,0,0,0,1.317.89A10.642,10.642,0,0,1,200.541,216.966Zm31.24-10.424c-.013.027-.027.057-.042.084l-.008.017a2.56,2.56,0,0,0,.117-.415A2.8,2.8,0,0,1,231.781,206.542Zm-.427.685c-.067.092-.1.186-.182.278-.015.019-.036.038-.052.057A4.054,4.054,0,0,0,231.354,207.227Zm-5-1.782a.9.9,0,0,0-.222-.53A.909.909,0,0,1,226.353,205.445Zm-.272-.578a2.726,2.726,0,0,0-.67-.519A2.726,2.726,0,0,1,226.081,204.867Zm-56.345-10.673,0,.027Zm.1-.32.015-.031Zm.26-.371.071-.069-.031.033Zm.649-.532c-.065.044-.149.092-.207.136.059-.044.138-.09.205-.136Zm-.387.3.027-.025-.023.023Zm25.023-4.9-.025.021c.086-.069.147-.14.226-.211C195.507,188.243,195.454,188.308,195.377,188.371Zm-14.541-8.187-.034.027c.086-.069.149-.138.228-.207C180.962,180.064,180.909,180.122,180.836,180.183Zm-16.731,14.75a3.553,3.553,0,0,0,.322.559A3.553,3.553,0,0,1,164.105,194.933Zm.551.936a5.9,5.9,0,0,0,.618.611A5.9,5.9,0,0,1,164.656,195.869Zm.934.919a10.863,10.863,0,0,0,1.326.894A10.863,10.863,0,0,1,165.59,196.788Zm31.322-10.3-.027.061a2.736,2.736,0,0,0,.1-.41A2.678,2.678,0,0,1,196.912,186.49Zm-.4.653a3.5,3.5,0,0,1-.2.318l-.027.031A3.838,3.838,0,0,0,196.514,187.143Zm-5.212-1.891a.969.969,0,0,0-.241-.58A.969.969,0,0,1,191.3,185.253Zm-.274-.614a2.89,2.89,0,0,0-.712-.555A2.89,2.89,0,0,1,191.028,184.639Zm-8.646-6.3c-.01.025-.025.05-.036.075a2.4,2.4,0,0,0,.107-.4A2.307,2.307,0,0,1,182.381,178.34Zm-.41.651c-.067.094-.1.191-.184.285l-.036.038C181.843,179.205,181.9,179.1,181.971,178.992Zm-5.235-1.862a.863.863,0,0,0-.237-.532A.863.863,0,0,1,176.736,177.13Zm-.272-.563a3.011,3.011,0,0,0-.7-.53A3.011,3.011,0,0,1,176.464,176.567Z" transform="translate(-146.75 -170.247)"/><g transform="translate(0.001)"><g class="c"><g transform="translate(26.999 4.642)"><path class="d" d="M161.657,173.613l-.022,7.882-1.991-1.15.022-7.882Z" transform="translate(-159.644 -172.464)"/></g><g class="c" transform="translate(28.991 5.792)"><g class="e"><g class="c"><path class="f" d="M161.606,174.142l-.021,7.882c0-.4-.36-.764-.99-1.129l.021-7.882c.632.364.993.729.99,1.129" transform="translate(-160.595 -173.013)"/></g></g></g><g transform="translate(17.998 4.642)"><path class="g" d="M164.369,172.464l-.022,7.882-9,5.231.022-7.882Z" transform="translate(-155.345 -172.464)"/></g><g class="c" transform="translate(32.481 7.164)"><g class="h"><g class="c"><path class="i" d="M163.877,173.668l-.023,7.882,0,.059.023-7.884,0-.057" transform="translate(-160.523 -173.668)"/><path class="j" d="M163.9,173.7l-.023,7.884a2.122,2.122,0,0,1-.042.379l.021-7.882a2.336,2.336,0,0,0,.044-.381" transform="translate(-160.544 -173.638)"/><path class="k" d="M163.912,173.877l-.021,7.882a2.837,2.837,0,0,1-.113.392l.023-7.884a2.471,2.471,0,0,0,.111-.389" transform="translate(-160.604 -173.439)"/><path class="l" d="M163.9,174.063l-.023,7.884a3.069,3.069,0,0,1-.2.423l.021-7.882a3,3,0,0,0,.2-.425" transform="translate(-160.707 -173.236)"/><path class="m" d="M163.883,174.266l-.021,7.882a4.169,4.169,0,0,1-.343.507l.023-7.882a4.137,4.137,0,0,0,.341-.507" transform="translate(-160.887 -173.014)"/><path class="n" d="M163.866,174.508l-.023,7.882a5.787,5.787,0,0,1-.62.662l.023-7.882a5.783,5.783,0,0,0,.62-.662" transform="translate(-161.211 -172.749)"/><path class="o" d="M164.176,174.824l-.023,7.882a10.929,10.929,0,0,1-1.78,1.3l.021-7.882a10.952,10.952,0,0,0,1.782-1.3" transform="translate(-162.141 -172.403)"/><path class="p" d="M162.515,175.445l-.021,7.882c-.077.046-.155.092-.232.136l.021-7.882c.08-.046.157-.09.232-.136" transform="translate(-162.262 -171.724)"/></g></g></g><g transform="translate(29.03 11.022)"><path class="g" d="M164.086,175.51l-.022,7.882-3.45,2,.022-7.882Z" transform="translate(-160.614 -175.51)"/></g><g transform="translate(14.195 12.082)"><path class="d" d="M155.543,177.166l-.022,7.882-1.991-1.15.022-7.882Z" transform="translate(-153.529 -176.017)"/></g><g class="c" transform="translate(16.186 13.027)"><g class="q"><g class="c"><path class="p" d="M162.182,176.468l-.023,7.882a15.2,15.2,0,0,1-2.957,1.336l.023-7.882a15.258,15.258,0,0,0,2.957-1.336" transform="translate(-149.314 -176.468)"/><path class="o" d="M160.088,177.106l-.023,7.882a12.567,12.567,0,0,1-1.652.419l.021-7.882a12.514,12.514,0,0,0,1.654-.419" transform="translate(-150.177 -175.77)"/><path class="n" d="M158.92,177.306l-.021,7.882c-.31.057-.62.1-.93.13l.023-7.882c.31-.031.62-.073.928-.13" transform="translate(-150.663 -175.551)"/><path class="m" d="M158.384,177.368l-.023,7.882c-.249.025-.5.042-.75.05l.021-7.882c.251-.008.5-.025.752-.05" transform="translate(-151.055 -175.483)"/><path class="l" d="M157.984,177.392l-.021,7.882c-.226.008-.45.01-.674,0l.023-7.882c.224.006.448,0,.672,0" transform="translate(-151.407 -175.457)"/><path class="k" d="M157.65,177.413l-.023,7.882c-.216,0-.431-.017-.647-.036l.023-7.882c.216.019.431.029.647.036" transform="translate(-151.745 -175.474)"/><path class="j" d="M157.349,177.415l-.023,7.882c-.22-.017-.442-.042-.662-.073l.023-7.882c.22.031.44.057.662.073" transform="translate(-152.091 -175.512)"/><path class="i" d="M157.061,177.408l-.023,7.882q-.358-.05-.716-.126l.023-7.882q.358.075.716.126" transform="translate(-152.465 -175.577)"/><path class="r" d="M156.79,177.391l-.023,7.882c-.285-.059-.57-.128-.852-.209l.021-7.882c.285.082.57.151.854.209" transform="translate(-152.91 -175.687)"/><path class="s" d="M156.532,177.384l-.021,7.882c-.383-.109-.762-.239-1.141-.387l.021-7.882q.569.223,1.141.387" transform="translate(-153.506 -175.889)"/><path class="f" d="M156.365,177.469l-.021,7.882a13.946,13.946,0,0,1-1.864-.9l.023-7.882a13.915,13.915,0,0,0,1.862.9" transform="translate(-154.48 -176.361)"/></g></g></g><g transform="translate(4.213 12.082)"><path class="g" d="M158.767,176.017l-.022,7.882-9.982,5.8.022-7.882Z" transform="translate(-148.762 -176.017)"/></g><g transform="translate(0.022)"><path class="t" d="M179.553,173.828c4.2,2.425,3.951,4.963-.312,7.44l-3.449,2.006a12.148,12.148,0,0,1-12.845.205l-1.991-1.15-9.982,5.8-4.213-2.433,26.587-15.449Zm-8.236,7.166,3.987-2.318c1.9-1.106,1.774-1.872.446-2.636l-1.991-1.15-9,5.231,1.991,1.147c1.328.766,2.666.829,4.567-.274" transform="translate(-146.761 -170.247)"/></g><g transform="translate(0 15.45)"><path class="d" d="M150.986,180.058l-.022,7.882-4.213-2.433.022-7.882Z" transform="translate(-146.75 -177.625)"/></g></g><g class="c" transform="translate(17.157 9.911)"><g class="c" transform="translate(21.587 3.356)"><g class="u"><g class="c" transform="translate(0 0)"><path class="f" d="M168.884,178.215l-.023,7.882c0-.438-.362-.838-1-1.208a4.539,4.539,0,0,0-.6-.291l.021-7.882a4.553,4.553,0,0,1,.6.291c.641.371,1.005.771,1,1.208" transform="translate(-163.061 -176.437)"/><path class="s" d="M167.474,176.783l-.021,7.882c-.124-.048-.247-.09-.375-.128l.023-7.882c.126.038.251.08.373.128" transform="translate(-163.256 -176.504)"/><path class="r" d="M167.251,176.691l-.023,7.882c-.094-.027-.191-.05-.287-.069l.023-7.882c.1.019.193.042.287.069" transform="translate(-163.406 -176.54)"/><path class="i" d="M167.09,176.645l-.023,7.882c-.08-.017-.159-.031-.241-.042l.021-7.884c.082.013.163.027.243.044" transform="translate(-163.532 -176.563)"/><path class="j" d="M166.966,176.614l-.021,7.884c-.075-.013-.153-.021-.228-.027l.023-7.882q.113.009.226.025" transform="translate(-163.651 -176.576)"/><path class="k" d="M166.858,176.6l-.023,7.882c-.075-.006-.151-.01-.226-.01l.021-7.884c.077,0,.153.006.228.013" transform="translate(-163.77 -176.583)"/><path class="l" d="M166.756,176.583l-.021,7.884c-.08,0-.159,0-.241,0l.023-7.882c.082,0,.161,0,.239,0" transform="translate(-163.895 -176.583)"/><path class="m" d="M166.66,176.584l-.023,7.882c-.09,0-.182.008-.274.019l.023-7.882c.092-.01.184-.017.274-.019" transform="translate(-164.039 -176.582)"/><path class="n" d="M166.571,176.593l-.023,7.882a3.5,3.5,0,0,0-.354.05l.021-7.882c.121-.023.239-.04.356-.05" transform="translate(-164.224 -176.572)"/><path class="o" d="M166.552,176.617l-.021,7.882a4.858,4.858,0,0,0-.645.163l.023-7.882a4.9,4.9,0,0,1,.643-.163" transform="translate(-164.561 -176.546)"/><path class="p" d="M166.6,176.7l-.023,7.882a6.776,6.776,0,0,0-1.326.6l.021-7.882a6.73,6.73,0,0,1,1.328-.6" transform="translate(-165.253 -176.46)"/></g></g></g><g class="c" transform="translate(29.892 5.369)"><g class="v"><g class="c"><path class="i" d="M170.816,177.544l-.023,7.882,0,.063.023-7.882,0-.063" transform="translate(-167.499 -177.544)"/><path class="j" d="M170.838,177.574l-.023,7.882a2.261,2.261,0,0,1-.046.408l.023-7.882a2.462,2.462,0,0,0,.046-.408" transform="translate(-167.523 -177.511)"/><path class="k" d="M170.854,177.769l-.023,7.882a2.579,2.579,0,0,1-.119.415l.021-7.882a2.813,2.813,0,0,0,.121-.415" transform="translate(-167.586 -177.298)"/><path class="l" d="M170.845,177.967l-.021,7.882a3.074,3.074,0,0,1-.214.454l.023-7.882a3.277,3.277,0,0,0,.212-.454" transform="translate(-167.697 -177.081)"/><path class="m" d="M170.819,178.184l-.023,7.882a3.945,3.945,0,0,1-.356.526l.023-7.882a4.554,4.554,0,0,0,.356-.526" transform="translate(-167.883 -176.844)"/><path class="n" d="M170.8,178.435l-.023,7.882a5.962,5.962,0,0,1-.639.683l.023-7.884a5.954,5.954,0,0,0,.639-.681" transform="translate(-168.217 -176.569)"/><path class="o" d="M171.05,178.76l-.023,7.884a10.57,10.57,0,0,1-1.707,1.248l.021-7.882a10.384,10.384,0,0,0,1.709-1.25" transform="translate(-169.108 -176.214)"/><path class="p" d="M169.451,179.357l-.021,7.882-.212.126.021-7.882.212-.126" transform="translate(-169.219 -175.561)"/></g></g></g><g transform="translate(7.234 4.194)"><path class="g" d="M172.773,176.983l-.022,7.882-14.352,8.34.022-7.882Z" transform="translate(-158.399 -176.983)"/></g><g class="c" transform="translate(5.798 12.535)"><g class="w"><g class="c" transform="translate(-0.001)"><path class="p" d="M158.479,180.966l-.021,7.882-.113.067.021-7.882.113-.067" transform="translate(-157.021 -180.966)"/><path class="o" d="M158.785,181l-.021,7.882a4.931,4.931,0,0,0-.8.582l.023-7.882a4.9,4.9,0,0,1,.8-.582" transform="translate(-157.44 -180.931)"/><path class="n" d="M158.119,181.276l-.023,7.882a2.512,2.512,0,0,0-.255.272l.023-7.882a2.313,2.313,0,0,1,.255-.272" transform="translate(-157.573 -180.627)"/><path class="m" d="M157.932,181.406l-.023,7.882a1.472,1.472,0,0,0-.132.2l.021-7.882a1.731,1.731,0,0,1,.134-.2" transform="translate(-157.642 -180.485)"/><path class="l" d="M157.838,181.5l-.021,7.882a1.248,1.248,0,0,0-.077.161l.023-7.882a1.39,1.39,0,0,1,.075-.161" transform="translate(-157.683 -180.382)"/><path class="k" d="M157.785,181.577l-.023,7.882a1.253,1.253,0,0,0-.042.145l.023-7.882a.937.937,0,0,1,.042-.145" transform="translate(-157.705 -180.298)"/><path class="j" d="M157.751,181.646l-.023,7.882a.777.777,0,0,0-.015.138l.021-7.882a1.036,1.036,0,0,1,.017-.138" transform="translate(-157.712 -180.222)"/><path class="i" d="M157.735,181.712l-.022,7.882v.02l.022-7.882v-.02" transform="translate(-157.713 -180.15)"/></g></g></g><g transform="translate(16.06 9.291)"><path class="g" d="M176.467,179.417l-.022,7.882-13.831,8.037.022-7.882Z" transform="translate(-162.614 -179.417)"/></g><g class="c" transform="translate(0 13.883)"><g class="x"><g class="c"><path class="p" d="M164.129,183.255l-.021,7.882a14.749,14.749,0,0,1-2.86,1.288l.021-7.882a14.7,14.7,0,0,0,2.86-1.288" transform="translate(-148.047 -179.81)"/><path class="o" d="M162.174,183.87l-.021,7.882a13.17,13.17,0,0,1-1.732.436l.023-7.882a13.151,13.151,0,0,0,1.73-.436" transform="translate(-148.952 -179.138)"/><path class="n" d="M160.954,184.078l-.023,7.882c-.325.059-.651.1-.976.136l.021-7.882c.327-.031.653-.077.978-.136" transform="translate(-149.462 -178.91)"/><path class="m" d="M160.4,184.143l-.021,7.882c-.268.027-.536.046-.8.054l.021-7.882c.268-.008.536-.027.8-.054" transform="translate(-149.882 -178.839)"/><path class="l" d="M159.969,184.169l-.021,7.882c-.241.008-.482.01-.722,0l.021-7.882c.241.006.482,0,.722,0" transform="translate(-150.26 -178.81)"/><path class="k" d="M159.61,184.191l-.021,7.882c-.232-.006-.463-.019-.7-.038l.023-7.882c.23.019.463.031.693.038" transform="translate(-150.623 -178.828)"/><path class="j" d="M159.285,184.195l-.023,7.882c-.234-.019-.469-.046-.7-.08l.023-7.882c.235.033.469.061.7.08" transform="translate(-150.99 -178.87)"/><path class="i" d="M158.975,184.183l-.023,7.882c-.251-.036-.5-.08-.754-.13l.021-7.882c.251.05.5.094.756.13" transform="translate(-151.384 -178.937)"/><path class="r" d="M158.684,184.168l-.021,7.882c-.3-.063-.595-.136-.89-.22l.023-7.882c.3.084.59.157.888.22" transform="translate(-151.849 -179.052)"/><path class="s" d="M158.4,184.154l-.023,7.882q-.584-.167-1.16-.394l.021-7.882q.578.226,1.162.394" transform="translate(-152.455 -179.258)"/><path class="f" d="M159.729,186.112l-.021,7.882a13.585,13.585,0,0,1-1.778-.861c-2-1.156-2.99-2.393-2.986-3.641l.023-7.882c0,1.248.982,2.486,2.984,3.641a13.851,13.851,0,0,0,1.778.861" transform="translate(-154.944 -181.61)"/></g></g></g><g transform="translate(0.023)"><path class="t" d="M185.142,176.7c4.136,2.387,3.951,5.105-.3,7.574l-13.831,8.037a12.652,12.652,0,0,1-13.075.2c-4.119-2.379-3.935-5.1.312-7.566l13.831-8.037A12.645,12.645,0,0,1,185.142,176.7Zm-18.586,13.339,14.352-8.34c1.9-1.106,1.774-2.014.431-2.789a4.5,4.5,0,0,0-4.8.268l-14.352,8.34c-1.9,1.1-1.772,2.014-.446,2.779a4.5,4.5,0,0,0,4.814-.258" transform="translate(-154.955 -174.98)"/></g></g><g class="c" transform="translate(29.555 17.059)"><g transform="translate(8.001 2.427)"><path class="g" d="M187.493,179.553l-.022,7.882-22.785,13.241.022-7.882Z" transform="translate(-164.686 -179.553)"/></g><g transform="translate(0.019)"><path class="t" d="M191.671,180.825,168.889,194.07l6.914,3.991-3.8,2.21-11.128-6.422,26.584-15.455Z" transform="translate(-160.874 -178.394)"/></g><g transform="translate(11.128 19.67)"><path class="g" d="M170,187.787l-.022,7.882-3.8,2.21L166.2,190Z" transform="translate(-166.179 -187.787)"/></g><g transform="translate(0 15.455)"><path class="d" d="M172.015,192.2l-.022,7.882-11.128-6.425.022-7.882Z" transform="translate(-160.865 -185.774)"/></g></g><g class="c" transform="translate(42.504 24.539)"><g transform="translate(0.022)"><path class="t" d="M197.861,184.4l-26.588,15.451-4.213-2.433,26.588-15.451Z" transform="translate(-167.059 -181.966)"/></g><g transform="translate(4.213 2.433)"><path class="g" d="M195.671,183.127l-.022,7.882-26.588,15.451.022-7.882Z" transform="translate(-169.061 -183.127)"/></g><g transform="translate(0 15.451)"><path class="d" d="M171.284,191.777l-.022,7.882-4.213-2.433.022-7.882Z" transform="translate(-167.049 -189.345)"/></g></g><g class="c" transform="translate(52.144 30.159)"><g class="c" transform="translate(19.501 3.387)"><g class="y"><g class="c" transform="translate(0 0)"><path class="f" d="M185.6,187.826l-.021,7.884c0-.41-.341-.787-.963-1.145a4.43,4.43,0,0,0-.595-.289l.021-7.882a4.341,4.341,0,0,1,.6.289c.622.358.963.735.961,1.143" transform="translate(-177.623 -186.129)"/><path class="s" d="M184.228,186.459l-.021,7.882a3.264,3.264,0,0,0-.358-.121l.023-7.884a3.763,3.763,0,0,1,.356.124" transform="translate(-177.81 -186.193)"/><path class="r" d="M184.012,186.369l-.023,7.884c-.088-.027-.178-.048-.268-.067l.021-7.882c.09.019.18.04.27.065" transform="translate(-177.95 -186.227)"/><path class="i" d="M183.862,186.325l-.021,7.882c-.077-.017-.153-.029-.23-.04l.023-7.882c.077.01.153.023.228.04" transform="translate(-178.07 -186.248)"/><path class="j" d="M183.745,186.3l-.023,7.882c-.069-.01-.14-.019-.211-.025l.023-7.882c.071.006.14.015.211.025" transform="translate(-178.181 -186.261)"/><path class="k" d="M183.644,186.278l-.023,7.882c-.071,0-.14-.008-.212-.01l.021-7.882c.071,0,.142.006.214.01" transform="translate(-178.291 -186.266)"/><path class="l" d="M183.548,186.269l-.021,7.882c-.075,0-.151,0-.226,0l.023-7.884c.075,0,.151,0,.224,0" transform="translate(-178.409 -186.267)"/><path class="m" d="M183.458,186.268l-.023,7.884c-.084,0-.17.008-.255.017l.021-7.882q.129-.013.258-.019" transform="translate(-178.543 -186.266)"/><path class="n" d="M183.377,186.277l-.021,7.882c-.113.01-.224.027-.339.048l.023-7.884c.113-.019.226-.036.337-.046" transform="translate(-178.72 -186.257)"/><path class="o" d="M183.369,186.3l-.023,7.884a4.708,4.708,0,0,0-.63.159l.021-7.882a5.1,5.1,0,0,1,.632-.161" transform="translate(-179.049 -186.232)"/><path class="p" d="M183.506,186.376l-.021,7.882a7.1,7.1,0,0,0-1.395.639l-.077.044.023-7.882.075-.044a7.159,7.159,0,0,1,1.395-.639" transform="translate(-179.818 -186.148)"/><path class="o" d="M182.514,186.7l-.023,7.882a5.785,5.785,0,0,0-.915.672l.023-7.882a5.565,5.565,0,0,1,.915-.672" transform="translate(-180.297 -185.792)"/><path class="n" d="M181.84,187.023l-.023,7.882a4.013,4.013,0,0,0-.461.492l.023-7.882a4.006,4.006,0,0,1,.461-.492" transform="translate(-180.537 -185.44)"/><path class="m" d="M181.542,187.258l-.023,7.882a3.557,3.557,0,0,0-.312.467l.021-7.882a3.574,3.574,0,0,1,.314-.467" transform="translate(-180.7 -185.183)"/><path class="l" d="M181.349,187.481l-.021,7.882a3.457,3.457,0,0,0-.232.5l.023-7.882a3.441,3.441,0,0,1,.23-.5" transform="translate(-180.822 -184.939)"/><path class="k" d="M181.21,187.719l-.023,7.882a4.068,4.068,0,0,0-.174.62l.021-7.882a4.015,4.015,0,0,1,.176-.62" transform="translate(-180.913 -184.679)"/><path class="j" d="M181.085,188.015l-.021,7.882a5.507,5.507,0,0,0-.1.953l.021-7.882a5.722,5.722,0,0,1,.1-.953" transform="translate(-180.964 -184.355)"/><path class="i" d="M180.988,188.47l-.021,7.882c0,.059,0,.117,0,.176l.021-7.882c0-.059,0-.117,0-.176" transform="translate(-180.965 -183.857)"/></g></g></g><g class="c" transform="translate(29.693 5.177)"><g class="z"><g class="c"><path class="i" d="M187.47,187.122,187.447,195l0,.059.023-7.882,0-.059" transform="translate(-184.067 -187.122)"/><path class="j" d="M187.491,187.15l-.023,7.882a2.312,2.312,0,0,1-.044.4l.021-7.882a2.317,2.317,0,0,0,.046-.4" transform="translate(-184.09 -187.091)"/><path class="k" d="M187.506,187.339l-.021,7.882a2.7,2.7,0,0,1-.117.406l.021-7.882a2.473,2.473,0,0,0,.117-.406" transform="translate(-184.152 -186.885)"/><path class="l" d="M187.5,187.533l-.021,7.882a3.2,3.2,0,0,1-.207.44l.023-7.882a3.179,3.179,0,0,0,.205-.44" transform="translate(-184.26 -186.672)"/><path class="m" d="M187.477,187.743l-.023,7.882a4.288,4.288,0,0,1-.354.526l.021-7.884a3.923,3.923,0,0,0,.356-.523" transform="translate(-184.445 -186.443)"/><path class="n" d="M187.456,187.993l-.021,7.884a5.979,5.979,0,0,1-.641.683l.023-7.882a6.158,6.158,0,0,0,.639-.685" transform="translate(-184.78 -186.169)"/><path class="o" d="M187.75,188.32l-.023,7.882a10.973,10.973,0,0,1-1.786,1.307l.021-7.882a11.093,11.093,0,0,0,1.788-1.307" transform="translate(-185.713 -185.811)"/><path class="p" d="M186.081,188.944l-.021,7.882c-.075.044-.151.09-.228.134l.021-7.882c.077-.044.155-.09.228-.134" transform="translate(-185.832 -185.129)"/></g></g></g><g transform="translate(28.849 9.127)"><path class="g" d="M186.295,189.008l-.022,7.882-.843.49.022-7.882Z" transform="translate(-185.429 -189.008)"/></g><g transform="translate(24.867 7.318)"><path class="d" d="M187.532,190.443l-.022,7.882-3.982-2.3.022-7.882Z" transform="translate(-183.527 -188.144)"/></g><g class="c" transform="translate(13.517 7.803)"><g class="aa"><g class="c"><path class="f" d="M178.3,191.588l-.023,7.882c0-1.022-.178-2.107-.174-3.212l.021-7.882c0,1.106.178,2.19.176,3.212" transform="translate(-178.107 -188.376)"/></g></g></g><g transform="translate(7.066 11.283)"><path class="g" d="M176.95,190.038l-.022,7.882-1.9,1.1.022-7.882Z" transform="translate(-175.026 -190.038)"/></g><g class="c" transform="translate(5.648 12.389)"><g class="ab"><g class="c"><path class="p" d="M175.108,190.566l-.023,7.882-.113.067.023-7.882.113-.067" transform="translate(-173.667 -190.566)"/><path class="o" d="M175.41,190.6l-.023,7.882a5.053,5.053,0,0,0-.794.576l.023-7.882a4.946,4.946,0,0,1,.794-.576" transform="translate(-174.082 -190.531)"/><path class="n" d="M174.746,190.873l-.023,7.882a2.42,2.42,0,0,0-.249.268l.023-7.884a2.386,2.386,0,0,1,.249-.266" transform="translate(-174.212 -190.23)"/><path class="m" d="M174.565,191l-.023,7.884a1.481,1.481,0,0,0-.13.193l.021-7.882a1.688,1.688,0,0,1,.132-.195" transform="translate(-174.28 -190.091)"/><path class="l" d="M174.472,191.093l-.021,7.882a1.073,1.073,0,0,0-.075.157l.023-7.882a1.056,1.056,0,0,1,.073-.157" transform="translate(-174.319 -189.989)"/><path class="k" d="M174.42,191.168l-.023,7.882a.9.9,0,0,0-.04.142l.021-7.882a.917.917,0,0,1,.042-.142" transform="translate(-174.34 -189.907)"/><path class="j" d="M174.387,191.236l-.021,7.882a.761.761,0,0,0-.017.134l.023-7.882a.969.969,0,0,1,.015-.134" transform="translate(-174.349 -189.833)"/><path class="i" d="M174.372,191.3l-.022,7.882v.02l.022-7.882v-.02" transform="translate(-174.349 -189.763)"/></g></g></g><g class="c" transform="translate(0 11.35)"><g class="ac"><g class="c"><path class="i" d="M181.069,190.07l-.023,7.882c0,.08,0,.159,0,.239l.021-7.882c0-.08,0-.159,0-.239" transform="translate(-161.377 -190.07)"/><path class="j" d="M181.13,190.184l-.021,7.882a6.771,6.771,0,0,1-.124,1.152l.023-7.882a6.984,6.984,0,0,0,.121-1.152" transform="translate(-161.442 -189.945)"/><path class="k" d="M181.134,190.734l-.023,7.882a5.438,5.438,0,0,1-.241.854l.023-7.882a5.439,5.439,0,0,0,.241-.854" transform="translate(-161.568 -189.344)"/><path class="l" d="M181.072,191.142l-.023,7.882a5.193,5.193,0,0,1-.343.739l.023-7.882a5.193,5.193,0,0,0,.343-.739" transform="translate(-161.747 -188.897)"/><path class="m" d="M180.982,191.5l-.023,7.882a5.625,5.625,0,0,1-.484.72l.023-7.882a5.621,5.621,0,0,0,.484-.72" transform="translate(-162 -188.511)"/><path class="n" d="M180.882,191.839l-.023,7.882a7.064,7.064,0,0,1-.735.794l.021-7.882a6.9,6.9,0,0,0,.737-.794" transform="translate(-162.384 -188.135)"/><path class="o" d="M181.027,192.218l-.021,7.882a10.222,10.222,0,0,1-1.688,1.24l.023-7.882a10.116,10.116,0,0,0,1.686-1.24" transform="translate(-163.265 -187.72)"/><path class="p" d="M180.967,192.81l-.023,7.882-.161.094a15.236,15.236,0,0,1-2.95,1.332l.023-7.882a15.238,15.238,0,0,0,2.95-1.332l.161-.094" transform="translate(-164.891 -187.072)"/><path class="o" d="M178.749,193.491l-.023,7.882a13.294,13.294,0,0,1-1.711.431l.023-7.882a13.64,13.64,0,0,0,1.711-.431" transform="translate(-165.785 -186.327)"/><path class="n" d="M177.545,193.7l-.023,7.882c-.322.059-.647.1-.97.136l.021-7.882c.325-.031.647-.077.972-.136" transform="translate(-166.291 -186.102)"/><path class="m" d="M176.983,193.762l-.021,7.882c-.262.027-.523.044-.785.052l.021-7.882c.262-.008.524-.025.785-.052" transform="translate(-166.702 -186.031)"/><path class="l" d="M176.564,193.787l-.021,7.882c-.235.008-.467.01-.7,0l.023-7.882c.232.006.467,0,.7,0" transform="translate(-167.068 -186.004)"/><path class="k" d="M176.215,193.808l-.023,7.882c-.222-.006-.446-.017-.67-.036l.023-7.882c.224.017.446.029.67.036" transform="translate(-167.418 -186.02)"/><path class="j" d="M175.9,193.812l-.023,7.882c-.226-.019-.452-.044-.678-.077l.023-7.882c.224.034.452.059.678.077" transform="translate(-167.773 -186.061)"/><path class="i" d="M175.605,193.8l-.023,7.882c-.245-.034-.49-.077-.735-.128l.023-7.882c.243.05.488.094.735.128" transform="translate(-168.157 -186.127)"/><path class="r" d="M175.32,193.784l-.023,7.882c-.289-.059-.576-.13-.861-.211l.021-7.882c.287.082.574.153.863.211" transform="translate(-168.606 -186.238)"/><path class="s" d="M175.049,193.774l-.021,7.882c-.379-.109-.758-.237-1.133-.385l.023-7.882q.562.223,1.131.385" transform="translate(-169.198 -186.439)"/><path class="f" d="M176.372,195.7l-.023,7.882a13.117,13.117,0,0,1-1.757-.85c-1.981-1.145-2.942-2.347-2.94-3.564l.023-7.882c0,1.217.959,2.419,2.94,3.564a13.4,13.4,0,0,0,1.757.85" transform="translate(-171.652 -188.745)"/></g></g></g><g transform="translate(0.023)"><path class="t" d="M201.835,186.309c4.1,2.37,3.767,5-.482,7.467l-.842.49-3.983-2.3,1.1-.641c1.9-1.106,1.866-1.96.523-2.735s-2.821-.794-4.722.312c-5.474,3.181,1.711,8.518-5.88,12.928a12.436,12.436,0,0,1-12.951.268c-4.136-2.389-3.828-5.034.419-7.5l1.642-.953,3.966,2.289-1.9,1.106c-1.9,1.1-1.742,2-.4,2.77a4.437,4.437,0,0,0,4.768-.249c5.459-3.172-1.74-8.518,5.865-12.939C193.208,184.154,197.746,183.949,201.835,186.309Z" transform="translate(-171.663 -184.65)"/></g></g><g class="c" transform="translate(64.065 36.987)"><g transform="translate(0.022)"><path class="t" d="M208.157,190.343l-26.588,15.451-4.213-2.433,26.588-15.451Z" transform="translate(-177.356 -187.91)"/></g><g transform="translate(4.213 2.432)"><path class="g" d="M205.968,189.072l-.022,7.882-26.588,15.451.022-7.882Z" transform="translate(-179.357 -189.072)"/></g><g transform="translate(0 15.451)"><path class="d" d="M181.581,197.722l-.022,7.882-4.213-2.433.022-7.882Z" transform="translate(-177.345 -195.289)"/></g></g></g></g></svg>