<svg xmlns="http://www.w3.org/2000/svg" xmlns:xlink="http://www.w3.org/1999/xlink" width="135.252" height="87.324" viewBox="0 0 135.252 87.324"><defs><style>.a,.b{fill:none;}.b{stroke:#831412;stroke-linejoin:round;stroke-width:2px;}.c{isolation:isolate;}.d{fill:#fff;}.e{fill:#ab2322;}.f{fill:#831412;}.g{clip-path:url(#a);}.h{fill:#811310;}.i{fill:#841512;}.j{fill:#871614;}.k{fill:#8b1815;}.l{fill:#8e1917;}.m{fill:#921a19;}.n{fill:#951c1a;}.o{fill:#991d1b;}.p{fill:#9c1e1d;}.q{fill:#a01f1e;}.r{clip-path:url(#b);}.s{clip-path:url(#c);}.t{clip-path:url(#d);}.u{clip-path:url(#e);}.v{clip-path:url(#f);}.w{clip-path:url(#g);}.x{clip-path:url(#h);}.y{clip-path:url(#i);}.z{clip-path:url(#j);}.aa{clip-path:url(#k);}.ab{clip-path:url(#l);}.ac{clip-path:url(#m);}.ad{clip-path:url(#n);}.ae{clip-path:url(#o);}.af{clip-path:url(#p);}.ag{clip-path:url(#q);}.ah{clip-path:url(#r);}.ai{clip-path:url(#s);}.aj{clip-path:url(#t);}</style><clipPath id="a"><path class="a" d="M-201.129,54.867l-.1,7.811c-1.9-1.143-3.378-1.267-4.86-.41l.1-7.813C-204.506,53.6-203.03,53.724-201.129,54.867Z" transform="translate(206.085 -53.898)"/></clipPath><clipPath id="b"><path class="a" d="M-200.887,56.839l-.1,7.811c.006-.515-.454-1.078-1.529-1.725l.1-7.811C-201.341,55.759-200.881,56.322-200.887,56.839Z" transform="translate(202.512 -55.114)"/></clipPath><clipPath id="c"><path class="a" d="M-199.2,55.394l-.1,7.811a2.407,2.407,0,0,1-.4,1.25l.1-7.813A2.4,2.4,0,0,0-199.2,55.394Z" transform="translate(199.696 -55.394)"/></clipPath><clipPath id="d"><path class="a" d="M-194.42,58.592l-.1,7.813c-2.469-1.485-4.224-1.539-6.138-.433l.1-7.813C-198.644,57.055-196.889,57.107-194.42,58.592Z" transform="translate(200.654 -57.396)"/></clipPath><clipPath id="e"><path class="a" d="M-191.991,60.92l-.1,7.811a13.64,13.64,0,0,1-3.637-1.751l.1-7.811A13.679,13.679,0,0,0-191.991,60.92Z" transform="translate(195.725 -59.169)"/></clipPath><clipPath id="f"><path class="a" d="M-215.042,62.634l-.1,7.811c-1.9-1.143-3.225-1.083-4.567-.308l.1-7.813C-218.266,61.55-216.943,61.491-215.042,62.634Z" transform="translate(219.705 -61.757)"/></clipPath><clipPath id="g"><path class="a" d="M-214.081,64.888l-.1,7.811c0-.456-.438-.961-1.443-1.566l.1-7.813C-214.519,63.925-214.075,64.432-214.081,64.888Z" transform="translate(215.62 -63.32)"/></clipPath><clipPath id="h"><path class="a" d="M-210.475,63.989l-.1,7.811c-.015,1.217-1.005,2.416-3.028,3.585l.1-7.813C-211.48,66.405-210.489,65.2-210.475,63.989Z" transform="translate(213.599 -63.989)"/></clipPath><clipPath id="i"><path class="a" d="M-227.629,75.461l.1-7.813c.006-.438.366-.833.99-1.2a4.444,4.444,0,0,1,4.814.312l-.1,7.811a4.443,4.443,0,0,0-4.814-.31C-227.265,74.626-227.623,75.024-227.629,75.461Z" transform="translate(227.629 -65.886)"/></clipPath><clipPath id="j"><path class="a" d="M-230.4,74.614l.1-7.811c-.017,1.355,1.093,2.737,3.3,4.06l-.1,7.813C-229.3,77.35-230.414,75.971-230.4,74.614Z" transform="translate(230.397 -66.803)"/></clipPath><clipPath id="k"><path class="a" d="M-216.473,72.06l-.1,7.813c.006-.492-.431-1.032-1.434-1.635l.1-7.811C-216.9,71.028-216.467,71.57-216.473,72.06Z" transform="translate(218.004 -70.427)"/></clipPath><clipPath id="l"><path class="a" d="M-206.064,71.133l-.1,7.811c-.015,1.261-1.005,2.5-3,3.65a12.462,12.462,0,0,1-13.058-.339l.1-7.813a12.466,12.466,0,0,0,13.06.341C-207.071,73.631-206.081,72.394-206.064,71.133Z" transform="translate(222.219 -71.133)"/></clipPath><clipPath id="m"><path class="a" d="M-229.283,71.124l-.1,7.813c-1.9-1.143-3.376-1.267-4.873-.4l.1-7.813C-232.66,69.86-231.184,69.983-229.283,71.124Z" transform="translate(234.254 -70.159)"/></clipPath><clipPath id="n"><path class="a" d="M-229.051,73.1l-.1,7.813c.006-.517-.456-1.078-1.527-1.723l.1-7.813C-229.508,72.018-229.045,72.581-229.051,73.1Z" transform="translate(230.674 -71.373)"/></clipPath><clipPath id="o"><path class="a" d="M-227.372,71.661l-.1,7.813a2.393,2.393,0,0,1-.389,1.233l.1-7.813A2.393,2.393,0,0,0-227.372,71.661Z" transform="translate(227.858 -71.661)"/></clipPath><clipPath id="p"><path class="a" d="M-222.6,74.859l-.1,7.811c-2.469-1.483-4.207-1.545-6.121-.442l.1-7.811C-226.806,73.311-225.068,73.374-222.6,74.859Z" transform="translate(228.816 -73.657)"/></clipPath><clipPath id="q"><path class="a" d="M-220.146,77.173l-.1,7.813a13.086,13.086,0,0,1-3.65-1.742l.1-7.811A12.993,12.993,0,0,0-220.146,77.173Z" transform="translate(223.894 -75.433)"/></clipPath><clipPath id="r"><path class="a" d="M-236.49,75.017l-.1,7.811c-1.9-1.143-3.225-1.083-4.567-.308l.1-7.813C-239.714,73.933-238.391,73.874-236.49,75.017Z" transform="translate(241.153 -74.14)"/></clipPath><clipPath id="s"><path class="a" d="M-235.529,77.271l-.1,7.811c0-.457-.438-.961-1.443-1.566l.1-7.813C-235.967,76.308-235.523,76.815-235.529,77.271Z" transform="translate(237.068 -75.703)"/></clipPath><clipPath id="t"><path class="a" d="M-231.927,76.372l-.1,7.813c-.017,1.217-1.007,2.419-3.024,3.583l.1-7.813C-232.934,78.791-231.944,77.589-231.927,76.372Z" transform="translate(235.047 -76.372)"/></clipPath></defs><g transform="translate(0.999 1)"><path class="b" d="M-215.142,128.544l.1-7.813-5.08-3.053.052-4.123,15.131,9.1,4.213-2.433.061-4.91.873.523c.306.184.574.341.821.484l.22.124c.159.088.312.174.45.247l.212.111c.124.063.239.121.348.174.057.025.115.054.168.08.121.054.235.1.341.149l.071.029.008,0c.358.142.66.232,1.011.341l4.291-2.477.04-3.185c.111.023.222.038.331.059l.195.033c.077.013.155.029.232.04.249.036.5.063.745.082.178.015.358.021.536.025l.1.006.092,0c.253,0,.5,0,.758-.01s.475-.034.712-.059l.086-.006.05,0c.364-.044.729-.1,1.091-.182.071-.015.14-.046.211-.063.4-.094.789-.22,1.181-.354.188-.065.379-.115.565-.188a13.13,13.13,0,0,0,1.7-.817,10.3,10.3,0,0,0,1.369-.938c.021-.017.054-.033.075-.05a6.208,6.208,0,0,0,.737-.722c.013-.017.021-.031.034-.048s.042-.061.067-.09a4.408,4.408,0,0,0,.291-.4,3.344,3.344,0,0,0,.23-.456,2.581,2.581,0,0,0,.134-.427,2.277,2.277,0,0,0,.059-.425l0-.09.065-5.241,5.738,3.449,4.2-2.423.1-7.813-5.072-3.049.05-4.123,15.127,9.094,11.484-6.63.038-3.032,2.555,1.535,4.2-2.423.061-4.929.886.532c.31.186.58.343.829.488.084.046.157.088.234.132.161.09.312.174.45.247l.205.107c.132.069.255.13.371.184l.151.073c.151.069.293.13.423.182l0,0,.011,0c.337.134.626.224.959.331l4.291-2.477.08-6.393,5.384,3.239,4.213-2.433.09-7.277,6.129,3.685,4.213-2.433.1-7.811L-139.26,45.643l-4.213,2.433-.025,2.148-1.811-1.089-13,7.5-.034,2.8a11.476,11.476,0,0,0-7.76,1.7l-6.343,3.662-.038,3.032-2.555-1.535-11.483,6.63-.04,3.239a11.645,11.645,0,0,0-8.171,1.5l-6.188,3.574-.048,3.83a12.1,12.1,0,0,0-9.364,1.242c-2.023,1.168-2.994,2.429-2.971,3.711,0-.023-.015-.048-.015-.071h0l-.061,4.98c-3.872-2.109-7.572-2.128-11.695.253l-6.359,3.673-.04,3.244a11.652,11.652,0,0,0-8.171,1.5l-6.188,3.574-.1,7.811,26.585,15.986Zm3.361-35.845c.121.109.207.22.341.329C-211.574,92.919-211.66,92.808-211.781,92.7Zm40.454-16.3.036-3.034,3.382,2.033-3.185,1.839-.825-.5Zm-54.521,33.724a.336.336,0,0,0-.01-.044l.015.008C-225.843,110.1-225.849,110.107-225.849,110.119Zm39.914-10.981a.984.984,0,0,0-.046-.212A.986.986,0,0,1-185.935,99.138Zm-.243-.6a1.547,1.547,0,0,1,.151.23A1.547,1.547,0,0,0-186.178,98.537Zm-26.192,2.7a.888.888,0,0,0-.046-.214A.888.888,0,0,1-212.37,101.241Zm31.437-17.087c0,.013-.006.023,0,.036,0-.015-.008-.029-.01-.044Zm19.359-4.948,5.239,3.149-3.185,1.839-2.1-1.263Zm8.177-12.011a.931.931,0,0,0-.046-.222A.931.931,0,0,1-153.4,67.194Zm-.251-.647a1.668,1.668,0,0,1,.165.251A1.668,1.668,0,0,0-153.648,66.547Zm4.927.082-.006.017c.017-.052.017-.1.029-.155C-148.708,66.537-148.708,66.583-148.721,66.629Zm.08.616.015-1.183,0,.021a2.287,2.287,0,0,0-.283-1.112l3.784,2.274A9.255,9.255,0,0,0-148.641,67.245Zm-5.116-.863c-.023-.025-.063-.054-.088-.08v0C-153.82,66.328-153.78,66.357-153.757,66.382Zm-27.3,34.668c-.124.138-.276.276-.427.415.151-.14.3-.279.421-.419Zm-5.229-2.672a3,3,0,0,0-.287-.266A3,3,0,0,1-186.289,98.378Zm-.442-.408a6.217,6.217,0,0,0-.632-.429A6.217,6.217,0,0,1-186.731,97.97Zm-20.741-8.424.008-.025Zm-5.258,10.885a3.194,3.194,0,0,0-.308-.287A3.194,3.194,0,0,1-212.73,100.43Zm.274.415a1.5,1.5,0,0,0-.157-.239A1.605,1.605,0,0,1-212.456,100.845Zm5.467-11.93a3.559,3.559,0,0,1,.463-.316A3.559,3.559,0,0,0-206.988,88.915Zm-.285.279-.023.034Zm-5.189,2.835c-.01-.013-.027-.023-.036-.036a3.74,3.74,0,0,1-.22-.364A4,4,0,0,0-212.462,92.029Zm-.622-1a2.889,2.889,0,0,1-.1-.427A2.889,2.889,0,0,0-213.084,91.026Zm-.121,8.962a7.1,7.1,0,0,0-.689-.467A7.1,7.1,0,0,1-213.205,99.989Z" transform="translate(245.925 -45.643)"/><g class="c" transform="translate(102.356)"><g transform="translate(0.097)"><path class="d" d="M-192.784,45.643-166.2,61.629l-4.213,2.433L-197,48.075Z" transform="translate(196.998 -45.643)"/></g><g transform="translate(26.586 15.986)"><path class="e" d="M-180.038,53.277l-.1,7.812-4.213,2.433.1-7.812Z" transform="translate(184.348 -53.277)"/></g><g transform="translate(0 2.433)"><path class="f" d="M-170.362,62.79l-.1,7.812-26.586-15.986.1-7.812Z" transform="translate(197.044 -46.805)"/></g></g><g class="c" transform="translate(87.524 3.493)"><g transform="translate(12.414 2.286)"><path class="e" d="M-193.718,48.4l-.1,7.812-4.383,2.531.1-7.812Z" transform="translate(198.198 -48.403)"/></g><g transform="translate(3.802 7.25)"><path class="e" d="M-197.816,50.773l-.1,7.812-4.4,2.54.1-7.812Z" transform="translate(202.311 -50.773)"/></g><g transform="translate(0 7.503)"><path class="f" d="M-200.228,53.18l-.1,7.812-3.8-2.286.1-7.812Z" transform="translate(204.127 -50.894)"/></g><g transform="translate(0.097)"><path class="d" d="M-191.085,47.311l3.8,2.286-4.383,2.531,22.783,13.7L-173.1,68.26l-22.783-13.7-4.4,2.54-3.8-2.286Z" transform="translate(204.081 -47.311)"/></g><g transform="translate(30.984 18.516)"><path class="e" d="M-185.02,56.153l-.1,7.812L-189.33,66.4l.1-7.812Z" transform="translate(189.33 -56.153)"/></g><g transform="translate(8.201 7.25)"><path class="f" d="M-177.33,64.472l-.1,7.812-22.783-13.7.1-7.812Z" transform="translate(200.21 -50.773)"/></g></g><g class="c" transform="translate(73.387 13.665)"><g class="c" transform="translate(10.037 3.622)"><g class="g"><g class="c" transform="translate(0 0.001)"><path class="h" d="M-203.042,54.678l-.1,7.811a8.471,8.471,0,0,0-1.2-.605l.1-7.813a8.5,8.5,0,0,1,1.2.607" transform="translate(207.998 -53.71)"/><path class="i" d="M-203.958,54.168l-.1,7.813c-.182-.073-.362-.136-.538-.188l.1-7.811a5.491,5.491,0,0,1,.538.186" transform="translate(207.717 -53.807)"/><path class="j" d="M-204.311,54.028l-.1,7.811c-.119-.034-.239-.063-.356-.088l.1-7.811c.117.023.237.052.356.088" transform="translate(207.531 -53.853)"/><path class="k" d="M-204.522,53.965l-.1,7.811c-.092-.019-.184-.036-.276-.048l.1-7.811c.092.013.184.027.276.048" transform="translate(207.387 -53.878)"/><path class="l" d="M-204.673,53.931l-.1,7.811c-.082-.01-.161-.021-.241-.027l.1-7.811c.08.006.159.015.241.027" transform="translate(207.261 -53.893)"/><path class="m" d="M-204.794,53.909l-.1,7.811c-.077,0-.153-.008-.228-.01l.1-7.811c.075,0,.151,0,.228.01" transform="translate(207.142 -53.898)"/><path class="n" d="M-204.9,53.9l-.1,7.811c-.077,0-.153,0-.23,0l.1-7.813c.077,0,.153,0,.23,0" transform="translate(207.021 -53.899)"/><path class="o" d="M-205,53.9l-.1,7.813c-.086,0-.17.01-.255.021l.1-7.813c.086-.01.172-.017.255-.021" transform="translate(206.888 -53.897)"/><path class="p" d="M-205.082,53.91l-.1,7.813c-.111.013-.222.031-.331.054l.1-7.811a2.947,2.947,0,0,1,.331-.057" transform="translate(206.715 -53.886)"/><path class="q" d="M-204.783,53.937l-.1,7.811a4.163,4.163,0,0,0-1.206.477l.1-7.813a4.086,4.086,0,0,1,1.2-.475" transform="translate(206.085 -53.857)"/></g></g></g><g transform="translate(8 4.179)"><path class="e" d="M-204.924,54.165l-.1,7.812-2.037,1.176.1-7.812Z" transform="translate(207.057 -54.165)"/></g><g transform="translate(14.896 4.591)"><path class="f" d="M-201.046,55.937l-.1,7.812-2.622-1.576.1-7.812Z" transform="translate(203.764 -54.361)"/></g><g class="c" transform="translate(17.518 6.168)"><g class="r"><g class="c"><path class="h" d="M-200.887,56.839l-.1,7.811c.006-.515-.454-1.078-1.529-1.725l.1-7.811c1.074.645,1.535,1.208,1.529,1.725" transform="translate(202.512 -55.114)"/></g></g></g><g class="c" transform="translate(23.415 6.754)"><g class="s"><g class="c"><path class="k" d="M-199.406,55.394l-.1,7.811,0,.077.1-7.813,0-.075" transform="translate(199.903 -55.394)"/><path class="l" d="M-199.383,55.43l-.1,7.813a1.891,1.891,0,0,1-.048.356l.1-7.813a2.055,2.055,0,0,0,.05-.356" transform="translate(199.878 -55.355)"/><path class="m" d="M-199.373,55.6l-.1,7.813a2.468,2.468,0,0,1-.115.366l.1-7.811a2.265,2.265,0,0,0,.115-.369" transform="translate(199.817 -55.169)"/><path class="n" d="M-199.38,55.776l-.1,7.811a2.676,2.676,0,0,1-.207.408l.1-7.813a2.85,2.85,0,0,0,.205-.406" transform="translate(199.709 -54.976)"/><path class="o" d="M-199.572,55.97l-.1,7.813-.025.042.1-7.813.027-.042" transform="translate(199.696 -54.764)"/></g></g></g><g class="c" transform="translate(21.409 10.946)"><g class="t"><g class="c" transform="translate(0 -0.001)"><path class="h" d="M-196.844,58.364l-.1,7.813a10.523,10.523,0,0,0-1.5-.76l.1-7.813a10.751,10.751,0,0,1,1.5.76" transform="translate(203.078 -57.168)"/><path class="i" d="M-198,57.722l-.1,7.813a6.534,6.534,0,0,0-.651-.226l.1-7.813c.212.063.429.138.651.226" transform="translate(202.738 -57.286)"/><path class="j" d="M-198.432,57.551l-.1,7.813c-.145-.042-.285-.077-.423-.107l.1-7.811c.138.029.278.065.423.1" transform="translate(202.517 -57.34)"/><path class="k" d="M-198.68,57.477l-.1,7.811c-.113-.023-.224-.042-.335-.059l.1-7.811c.111.015.222.036.335.059" transform="translate(202.342 -57.371)"/><path class="l" d="M-198.862,57.434l-.1,7.811c-.1-.013-.195-.023-.293-.031l.1-7.811c.1.006.193.017.291.031" transform="translate(202.189 -57.388)"/><path class="m" d="M-199.008,57.411l-.1,7.811c-.092-.006-.184-.013-.276-.013l.1-7.813c.092,0,.184.006.279.015" transform="translate(202.044 -57.395)"/><path class="n" d="M-199.139,57.4l-.1,7.813c-.094,0-.188,0-.283,0l.1-7.813c.092,0,.186-.006.281,0" transform="translate(201.897 -57.396)"/><path class="o" d="M-199.257,57.4l-.1,7.813c-.1,0-.209.013-.312.025l.1-7.813q.154-.019.314-.025" transform="translate(201.734 -57.393)"/><path class="p" d="M-199.356,57.41l-.1,7.813c-.138.017-.274.038-.41.067l.1-7.811c.136-.029.272-.052.41-.069" transform="translate(201.519 -57.38)"/><path class="q" d="M-198.9,57.443l-.1,7.811a5.737,5.737,0,0,0-1.656.666l.1-7.813a5.635,5.635,0,0,1,1.654-.664" transform="translate(200.654 -57.344)"/></g></g></g><g transform="translate(19.959 11.709)"><path class="e" d="M-199.8,57.76l-.1,7.812-1.451.838.1-7.812Z" transform="translate(201.346 -57.76)"/></g><g transform="translate(27.546 12.142)"><path class="f" d="M-193.441,60.484l-.1,7.812-4.186-2.517.1-7.812Z" transform="translate(197.724 -57.967)"/></g><g transform="translate(35.367 13.931)"><path class="e" d="M-189.6,58.822l-.1,7.812-4.291,2.477.1-7.812Z" transform="translate(193.988 -58.822)"/></g><g class="c" transform="translate(31.73 14.659)"><g class="u"><g class="c"><path class="i" d="M-193.385,60.18l-.1,7.811c-.337-.107-.626-.2-.97-.335l.1-7.811c.343.136.632.226.97.335" transform="translate(197.119 -58.429)"/><path class="h" d="M-192.961,60.585l-.1,7.811a18.678,18.678,0,0,1-2.668-1.416l.1-7.811a19.156,19.156,0,0,0,2.666,1.416" transform="translate(195.725 -59.169)"/></g></g></g><g transform="translate(26.585 19.055)"><path class="e" d="M-193.887,61.268l-.1,7.812-4.2,2.424.1-7.812Z" transform="translate(198.182 -61.268)"/></g><g transform="translate(0.096)"><path class="d" d="M-174.872,64.421a12.779,12.779,0,0,0,3.7,1.679l-4.291,2.477a13.679,13.679,0,0,1-3.635-1.751l-4.186-2.517c-2.469-1.485-4.224-1.537-6.135-.433l-1.451.838,10.824,6.508-4.2,2.425-26.585-15.986L-204.489,54c4.353-2.513,8.244-2.393,12.352.077l2.086,1.254c2.731,1.642,3.644,3.227,2.634,4.839,2.988-.7,5.677.121,8.451,1.79Zm-18.442-6.085-2.622-1.577c-1.9-1.143-3.378-1.267-4.858-.413l-2.037,1.177,8.156,4.9,1.652-.953c1.558-.9,1.841-1.857-.291-3.139" transform="translate(210.832 -52.169)"/></g><g transform="translate(0 5.493)"><path class="f" d="M-184.2,70.777l-.1,7.812L-210.878,62.6l.1-7.812Z" transform="translate(210.878 -54.792)"/></g></g><g class="c" transform="translate(59.312 20.655)"><g transform="translate(8.016 2.286)"><path class="e" d="M-206.406,56.6l-.1,7.812-7.269,4.2.1-7.812Z" transform="translate(213.772 -56.599)"/></g><g transform="translate(19.208 9.88)"><path class="e" d="M-202.558,60.225l-.1,7.812-5.772,3.333.1-7.812Z" transform="translate(208.427 -60.225)"/></g><g transform="translate(0.097)"><path class="d" d="M-206.071,55.507l3.8,2.286-7.269,4.2,7.405,4.453,5.772-3.333,3.787,2.277-5.772,3.333,7.789,4.683,7.269-4.2,3.8,2.286-11.483,6.629-26.586-15.986Z" transform="translate(217.554 -55.507)"/></g><g transform="translate(26.586 15.986)"><path class="e" d="M-193.325,63.141l-.1,7.812L-204.9,77.582l.1-7.812Z" transform="translate(204.904 -63.141)"/></g><g transform="translate(0 6.629)"><path class="f" d="M-190.918,74.658l-.1,7.812L-217.6,66.484l.1-7.812Z" transform="translate(217.6 -58.673)"/></g></g><g class="c" transform="translate(44.912 30.315)"><g class="c" transform="translate(9.991 3.428)"><g class="v"><g class="c" transform="translate(0 0)"><path class="h" d="M-216.86,62.464l-.1,7.811a7.569,7.569,0,0,0-1.087-.549l.1-7.813a7.6,7.6,0,0,1,1.087.551" transform="translate(221.523 -61.586)"/><path class="i" d="M-217.691,62l-.1,7.813q-.251-.1-.49-.17l.1-7.811a4.827,4.827,0,0,1,.488.168" transform="translate(221.267 -61.674)"/><path class="j" d="M-218.014,61.875l-.1,7.811c-.107-.031-.212-.057-.314-.077l.1-7.813c.1.021.209.048.316.08" transform="translate(221.103 -61.715)"/><path class="k" d="M-218.2,61.818l-.1,7.813c-.086-.019-.17-.034-.253-.046l.1-7.811c.084.01.168.025.253.044" transform="translate(220.971 -61.738)"/><path class="l" d="M-218.336,61.787l-.1,7.811c-.075-.01-.149-.019-.222-.023l.1-7.813c.073.006.147.015.222.025" transform="translate(220.855 -61.752)"/><path class="m" d="M-218.447,61.767l-.1,7.813c-.071-.006-.142-.01-.212-.01l.1-7.813c.069,0,.14,0,.211.01" transform="translate(220.744 -61.757)"/><path class="n" d="M-218.547,61.757l-.1,7.813c-.071,0-.142,0-.214,0l.1-7.811c.071,0,.142,0,.214,0" transform="translate(220.633 -61.757)"/><path class="o" d="M-218.636,61.759l-.1,7.811c-.08,0-.159.01-.239.021l.1-7.813c.077-.008.157-.017.237-.019" transform="translate(220.508 -61.755)"/><path class="p" d="M-218.715,61.768l-.1,7.813a2.443,2.443,0,0,0-.3.05l.1-7.813c.1-.021.2-.038.3-.05" transform="translate(220.35 -61.745)"/><path class="q" d="M-218.373,61.792l-.1,7.813a4.161,4.161,0,0,0-1.235.494l.1-7.813a4.274,4.274,0,0,1,1.235-.494" transform="translate(219.705 -61.719)"/></g></g></g><g transform="translate(8 3.996)"><path class="e" d="M-218.568,62.028l-.1,7.812-1.991,1.149.1-7.812Z" transform="translate(220.656 -62.028)"/></g><g transform="translate(14.558 4.305)"><path class="f" d="M-213.441,64.573l-.1,7.812-3.986-2.4.1-7.812Z" transform="translate(217.524 -62.176)"/></g><g class="c" transform="translate(18.545 6.701)"><g class="w"><g class="c"><path class="h" d="M-214.081,64.888l-.1,7.811c0-.456-.438-.961-1.443-1.566l.1-7.813c1.005.605,1.449,1.112,1.443,1.568" transform="translate(215.62 -63.32)"/></g></g></g><g class="c" transform="translate(22.777 8.102)"><g class="x"><g class="c"><path class="k" d="M-212.056,63.989l-.1,7.811,0,.084.1-7.811,0-.084" transform="translate(215.18 -63.989)"/><path class="l" d="M-212.029,64.029l-.1,7.811a2.335,2.335,0,0,1-.054.4l.1-7.813a2.092,2.092,0,0,0,.054-.394" transform="translate(215.151 -63.945)"/><path class="m" d="M-212.018,64.217l-.1,7.813a2.448,2.448,0,0,1-.126.4l.1-7.811a2.469,2.469,0,0,0,.126-.4" transform="translate(215.086 -63.74)"/><path class="n" d="M-212.03,64.409l-.1,7.811a3.228,3.228,0,0,1-.218.433l.1-7.813a3.2,3.2,0,0,0,.218-.431" transform="translate(214.972 -63.53)"/><path class="o" d="M-212.051,64.615l-.1,7.813a4.019,4.019,0,0,1-.377.515l.1-7.811a3.9,3.9,0,0,0,.377-.517" transform="translate(214.775 -63.304)"/><path class="p" d="M-212.047,64.862l-.1,7.811a5.768,5.768,0,0,1-.729.714l.1-7.813a5.886,5.886,0,0,0,.727-.712" transform="translate(214.394 -63.034)"/><path class="q" d="M-211.978,65.2l-.1,7.813a10.768,10.768,0,0,1-1.522,1.043l.1-7.813a10.745,10.745,0,0,0,1.524-1.043" transform="translate(213.599 -62.662)"/></g></g></g><g transform="translate(20.787 11.685)"><path class="e" d="M-212.462,65.7l-.1,7.812-1.991,1.149.1-7.812Z" transform="translate(214.549 -65.7)"/></g><g transform="translate(0 5.283)"><path class="f" d="M-197.794,78.628l-.1,7.812-26.586-15.986.1-7.812Z" transform="translate(224.476 -62.643)"/></g><g transform="translate(26.586 18.845)"><path class="e" d="M-207.486,69.119l-.1,7.812-4.2,2.424.1-7.812Z" transform="translate(211.78 -69.119)"/></g><g transform="translate(0.097)"><path class="d" d="M-218.242,61.829c4.213-2.431,8.581-2.224,12.845.339l3.449,2.073c4.247,2.555,4.51,5.13.3,7.564l-1.989,1.15,9.995,6.01-4.2,2.425L-224.43,65.4Zm12.357,4.992-3.987-2.4c-1.9-1.143-3.225-1.085-4.567-.31l-1.991,1.15,9,5.413,1.991-1.15c1.342-.777,1.455-1.564-.446-2.708" transform="translate(224.43 -60.12)"/></g></g><g class="c" transform="translate(32.514 38.978)"><g class="c" transform="translate(5.796 3.412)"><g class="y"><g class="c" transform="translate(0 0)"><path class="h" d="M-224.226,66.575l-.1,7.811a7.08,7.08,0,0,0-1.024-.513l.1-7.813a7.2,7.2,0,0,1,1.022.515" transform="translate(230.127 -65.697)"/><path class="i" d="M-224.974,66.155l-.1,7.813a5.2,5.2,0,0,0-.524-.182l.1-7.813c.172.05.346.111.526.182" transform="translate(229.853 -65.792)"/><path class="j" d="M-225.31,66.02l-.1,7.813c-.124-.036-.243-.065-.362-.09l.1-7.813c.119.025.239.054.362.09" transform="translate(229.664 -65.839)"/><path class="k" d="M-225.521,65.956l-.1,7.813c-.1-.021-.195-.038-.291-.05l.1-7.813c.094.013.191.031.289.05" transform="translate(229.512 -65.865)"/><path class="l" d="M-225.675,65.921l-.1,7.813c-.086-.013-.172-.023-.258-.029l.1-7.813c.086.008.172.017.26.029" transform="translate(229.377 -65.881)"/><path class="m" d="M-225.806,65.9l-.1,7.813c-.084-.006-.165-.01-.247-.013l.1-7.811c.082,0,.163,0,.247.01" transform="translate(229.248 -65.886)"/><path class="n" d="M-225.921,65.887l-.1,7.811c-.084,0-.168,0-.251,0l.1-7.813c.082,0,.165,0,.249,0" transform="translate(229.117 -65.887)"/><path class="o" d="M-226.027,65.888l-.1,7.813c-.092,0-.184.013-.274.023l.1-7.813c.09-.01.182-.017.276-.023" transform="translate(228.974 -65.885)"/><path class="p" d="M-226.12,65.9l-.1,7.813c-.119.015-.237.034-.352.059l.1-7.813c.115-.025.232-.044.352-.059" transform="translate(228.79 -65.873)"/><path class="q" d="M-225.573,65.927l-.1,7.813a4.209,4.209,0,0,0-1.231.482,3.6,3.6,0,0,0-.488.335l.1-7.813a3.6,3.6,0,0,1,.488-.335,4.268,4.268,0,0,1,1.231-.482" transform="translate(227.892 -65.842)"/><path class="p" d="M-227.168,66.317l-.1,7.813a1.806,1.806,0,0,0-.239.232l.1-7.811a1.952,1.952,0,0,1,.239-.235" transform="translate(227.767 -65.416)"/><path class="o" d="M-227.341,66.429l-.1,7.811a1.345,1.345,0,0,0-.126.174l.1-7.813a1.328,1.328,0,0,1,.126-.172" transform="translate(227.701 -65.293)"/><path class="n" d="M-227.428,66.511l-.1,7.813a.871.871,0,0,0-.073.147l.1-7.811a.973.973,0,0,1,.073-.149" transform="translate(227.663 -65.203)"/><path class="m" d="M-227.479,66.582l-.1,7.811a.882.882,0,0,0-.044.138l.1-7.811a.758.758,0,0,1,.044-.138" transform="translate(227.64 -65.126)"/><path class="l" d="M-227.513,66.648l-.1,7.811a.784.784,0,0,0-.019.14l.1-7.813a.785.785,0,0,1,.019-.138" transform="translate(227.63 -65.054)"/><path class="k" d="M-227.531,66.714l-.1,7.813,0,.029.1-7.813,0-.029" transform="translate(227.629 -64.981)"/></g></g></g><g class="c" transform="translate(0 5.331)"><g class="z"><g class="c"><path class="h" d="M-227,70.863l-.1,7.813c-2.2-1.326-3.313-2.705-3.3-4.062l.1-7.811c-.017,1.355,1.093,2.737,3.3,4.06" transform="translate(230.397 -66.803)"/></g></g></g><g transform="translate(11.601 4.29)"><path class="f" d="M-210.41,74.935l-.1,7.812-14.351-8.629.1-7.812Z" transform="translate(224.857 -66.306)"/></g><g class="c" transform="translate(25.951 12.92)"><g class="aa"><g class="c"><path class="h" d="M-216.473,72.06l-.1,7.813c.006-.492-.431-1.032-1.434-1.635l.1-7.811c1,.6,1.441,1.143,1.434,1.633" transform="translate(218.004 -70.427)"/></g></g></g><g transform="translate(3.296 9.392)"><path class="f" d="M-214.9,77.058l-.1,7.812-13.829-8.315.1-7.812Z" transform="translate(228.823 -68.742)"/></g><g class="c" transform="translate(17.125 14.398)"><g class="ab"><g class="c"><path class="k" d="M-214.451,71.133l-.1,7.811,0,.09.1-7.811,0-.09" transform="translate(230.607 -71.133)"/><path class="l" d="M-214.425,71.176l-.1,7.811a2.281,2.281,0,0,1-.059.425l.1-7.813a2.447,2.447,0,0,0,.057-.423" transform="translate(230.576 -71.086)"/><path class="m" d="M-214.412,71.378l-.1,7.813a2.578,2.578,0,0,1-.134.427l.1-7.813a2.805,2.805,0,0,0,.136-.427" transform="translate(230.506 -70.865)"/><path class="n" d="M-214.427,71.582l-.1,7.813a3.12,3.12,0,0,1-.23.456l.1-7.813a3.012,3.012,0,0,0,.23-.457" transform="translate(230.386 -70.642)"/><path class="o" d="M-214.453,71.8l-.1,7.813a4.382,4.382,0,0,1-.392.54l.1-7.813a3.9,3.9,0,0,0,.392-.54" transform="translate(230.181 -70.403)"/><path class="p" d="M-214.46,72.058l-.1,7.813a6.208,6.208,0,0,1-.737.722l.1-7.813a6.206,6.206,0,0,0,.737-.722" transform="translate(229.796 -70.121)"/><path class="q" d="M-212.532,72.4l-.1,7.813a10.182,10.182,0,0,1-1.445.988,12.519,12.519,0,0,1-3.656,1.422l.1-7.811a12.612,12.612,0,0,0,3.658-1.422,10.459,10.459,0,0,0,1.443-.99" transform="translate(227.131 -69.744)"/><path class="p" d="M-217.063,73.555l-.1,7.811c-.362.077-.727.138-1.091.182l.1-7.813c.364-.044.729-.1,1.091-.18" transform="translate(226.561 -68.483)"/><path class="o" d="M-217.711,73.641l-.1,7.813c-.283.031-.565.057-.848.069l.1-7.813q.424-.019.848-.069" transform="translate(226.118 -68.389)"/><path class="n" d="M-218.163,73.674l-.1,7.813c-.253.01-.5.015-.758.01l.1-7.813c.253,0,.507,0,.758-.01" transform="translate(225.722 -68.353)"/><path class="m" d="M-218.54,73.7l-.1,7.813c-.243,0-.486-.017-.729-.036l.1-7.811c.243.019.486.029.729.033" transform="translate(225.341 -68.365)"/><path class="l" d="M-218.879,73.706l-.1,7.811c-.249-.019-.5-.046-.745-.082l.1-7.811c.249.034.5.061.745.082" transform="translate(224.952 -68.408)"/><path class="k" d="M-219.2,73.7l-.1,7.811c-.272-.038-.544-.086-.819-.142l.1-7.811c.272.057.544.1.817.142" transform="translate(224.524 -68.482)"/><path class="j" d="M-219.513,73.681l-.1,7.811c-.32-.067-.639-.147-.959-.239l.1-7.811c.318.092.639.172.959.239" transform="translate(224.023 -68.607)"/><path class="i" d="M-219.794,73.676l-.1,7.811a13.384,13.384,0,0,1-1.3-.448l.1-7.811c.429.172.863.322,1.3.448" transform="translate(223.346 -68.841)"/><path class="h" d="M-219.966,73.791l-.1,7.811a15,15,0,0,1-2.157-1.076l.1-7.813a15.023,15.023,0,0,0,2.157,1.078" transform="translate(222.219 -69.405)"/></g></g></g><g transform="translate(0.097)"><path class="d" d="M-227.365,65.949a12.473,12.473,0,0,1,13.073.331l13.831,8.315c4.247,2.555,4.431,5.321.3,7.71a12.466,12.466,0,0,1-13.06-.341l-13.829-8.315C-231.3,71.1-231.486,68.33-227.365,65.949ZM-204.4,77.177l-14.35-8.629a4.444,4.444,0,0,0-4.814-.312c-1.325.766-1.455,1.69.446,2.833l14.352,8.629a4.435,4.435,0,0,0,4.8.32c1.342-.775,1.47-1.7-.431-2.842" transform="translate(230.351 -64.257)"/></g></g><g class="c" transform="translate(14.4 47.716)"><g class="c" transform="translate(10.038 3.62)"><g class="ac"><g class="c" transform="translate(0 -0.001)"><path class="h" d="M-231.205,70.936l-.1,7.813a8.33,8.33,0,0,0-1.194-.605l.1-7.813a8.681,8.681,0,0,1,1.2.605" transform="translate(236.176 -69.97)"/><path class="i" d="M-232.12,70.428l-.1,7.813a5.687,5.687,0,0,0-.538-.186l.1-7.813c.176.052.356.113.538.186" transform="translate(235.895 -70.067)"/><path class="j" d="M-232.473,70.288l-.1,7.813c-.119-.036-.239-.065-.354-.09l.1-7.811c.117.025.235.054.354.088" transform="translate(235.71 -70.113)"/><path class="k" d="M-232.682,70.225l-.1,7.811c-.094-.019-.186-.034-.276-.048l.1-7.811c.09.013.182.029.276.048" transform="translate(235.566 -70.138)"/><path class="l" d="M-232.832,70.191l-.1,7.811c-.082-.01-.163-.019-.243-.025l.1-7.813c.082.006.161.015.243.027" transform="translate(235.439 -70.153)"/><path class="m" d="M-232.957,70.169l-.1,7.813q-.113-.009-.226-.013l.1-7.811c.075,0,.151,0,.226.01" transform="translate(235.321 -70.158)"/><path class="n" d="M-233.062,70.159l-.1,7.811c-.077,0-.155,0-.23,0l.1-7.813c.075,0,.153,0,.23,0" transform="translate(235.2 -70.159)"/><path class="o" d="M-233.158,70.16l-.1,7.813c-.086,0-.172.01-.258.021l.1-7.813c.084-.008.17-.017.255-.021" transform="translate(235.066 -70.157)"/><path class="p" d="M-233.24,70.17l-.1,7.813a3.07,3.07,0,0,0-.333.057l.1-7.813c.111-.023.222-.042.335-.057" transform="translate(234.892 -70.146)"/><path class="q" d="M-232.937,70.2l-.1,7.813a4.147,4.147,0,0,0-1.221.484l.1-7.813a4.206,4.206,0,0,1,1.221-.484" transform="translate(234.254 -70.117)"/></g></g></g><g transform="translate(8.016 4.184)"><path class="e" d="M-233.1,70.428l-.1,7.812-2.022,1.167.1-7.812Z" transform="translate(235.22 -70.428)"/></g><g transform="translate(14.912 4.587)"><path class="f" d="M-229.208,72.2l-.1,7.812-2.622-1.576.1-7.812Z" transform="translate(231.927 -70.62)"/></g><g class="c" transform="translate(17.535 6.162)"><g class="ad"><g class="c"><path class="h" d="M-229.051,73.1l-.1,7.813c.006-.517-.456-1.078-1.527-1.723l.1-7.813c1.07.645,1.533,1.208,1.527,1.723" transform="translate(230.674 -71.373)"/></g></g></g><g class="c" transform="translate(23.431 6.766)"><g class="ae"><g class="c"><path class="k" d="M-227.575,71.661l-.1,7.813,0,.075.1-7.811,0-.077" transform="translate(228.06 -71.661)"/><path class="l" d="M-227.55,71.7l-.1,7.811a2.081,2.081,0,0,1-.05.356l.1-7.813a2.06,2.06,0,0,0,.05-.354" transform="translate(228.034 -71.621)"/><path class="m" d="M-227.541,71.867l-.1,7.813a2.244,2.244,0,0,1-.115.366l.1-7.813a2.176,2.176,0,0,0,.115-.366" transform="translate(227.974 -71.436)"/><path class="n" d="M-227.548,72.042l-.1,7.813a2.83,2.83,0,0,1-.205.4l.1-7.811a2.826,2.826,0,0,0,.2-.406" transform="translate(227.867 -71.244)"/><path class="o" d="M-227.743,72.236l-.1,7.811-.017.031.1-7.813.019-.029" transform="translate(227.858 -71.032)"/></g></g></g><g class="c" transform="translate(21.425 10.946)"><g class="af"><g class="c" transform="translate(0 0)"><path class="h" d="M-225.009,74.631l-.1,7.811a10.771,10.771,0,0,0-1.508-.764l.1-7.813a10.8,10.8,0,0,1,1.508.766" transform="translate(231.226 -73.43)"/><path class="i" d="M-226.176,73.983l-.1,7.813a6.723,6.723,0,0,0-.651-.226l.1-7.813c.212.063.429.136.651.226" transform="translate(230.886 -73.548)"/><path class="j" d="M-226.607,73.812l-.1,7.813c-.142-.042-.283-.077-.423-.107l.1-7.811c.14.029.281.063.423.1" transform="translate(230.665 -73.603)"/><path class="k" d="M-226.857,73.738l-.1,7.811c-.111-.023-.222-.042-.331-.057l.1-7.813c.109.015.22.036.331.059" transform="translate(230.492 -73.634)"/><path class="l" d="M-227.037,73.7l-.1,7.813c-.1-.015-.195-.025-.289-.034l.1-7.811c.094.006.191.019.289.031" transform="translate(230.341 -73.65)"/><path class="m" d="M-227.182,73.671l-.1,7.811c-.092-.006-.184-.01-.274-.013l.1-7.811c.09,0,.182,0,.274.013" transform="translate(230.198 -73.657)"/><path class="n" d="M-227.31,73.659l-.1,7.811c-.094,0-.188,0-.281,0l.1-7.813c.092,0,.186,0,.281,0" transform="translate(230.051 -73.657)"/><path class="o" d="M-227.429,73.659l-.1,7.813c-.1,0-.207.013-.31.025l.1-7.811c.1-.013.205-.021.31-.027" transform="translate(229.889 -73.656)"/><path class="p" d="M-227.526,73.672l-.1,7.811c-.136.017-.272.04-.406.067l.1-7.811a3.818,3.818,0,0,1,.406-.067" transform="translate(229.677 -73.641)"/><path class="q" d="M-227.072,73.7l-.1,7.811a5.734,5.734,0,0,0-1.648.662l.1-7.811a5.617,5.617,0,0,1,1.648-.662" transform="translate(228.816 -73.606)"/></g></g></g><g transform="translate(19.975 11.705)"><path class="e" d="M-227.961,74.02l-.1,7.812-1.451.838.1-7.812Z" transform="translate(229.509 -74.02)"/></g><g transform="translate(27.546 12.147)"><path class="f" d="M-221.611,76.748l-.1,7.812-4.186-2.517.1-7.812Z" transform="translate(225.893 -74.231)"/></g><g transform="translate(35.383 13.927)"><path class="e" d="M-217.763,75.081l-.1,7.812-4.29,2.477.1-7.812Z" transform="translate(222.151 -75.081)"/></g><g class="c" transform="translate(31.732 14.664)"><g class="ag"><g class="c"><path class="i" d="M-221.52,76.443l-.1,7.813c-.354-.109-.658-.2-1.02-.346l.1-7.811c.362.144.666.235,1.022.343" transform="translate(225.268 -74.703)"/><path class="h" d="M-221.168,76.83l-.1,7.811a18.6,18.6,0,0,1-2.63-1.4l.1-7.811a18.828,18.828,0,0,0,2.63,1.4" transform="translate(223.894 -75.433)"/></g></g></g><g transform="translate(26.585 19.051)"><path class="e" d="M-222.042,77.528l-.1,7.812-4.213,2.433.1-7.812Z" transform="translate(226.352 -77.528)"/></g><g transform="translate(0.096)"><path class="d" d="M-203.027,80.68a12.411,12.411,0,0,0,3.7,1.677l-4.288,2.477a12.993,12.993,0,0,1-3.652-1.74l-4.186-2.517c-2.469-1.485-4.207-1.547-6.121-.442l-1.451.838,10.826,6.508-4.215,2.433L-239,73.929l6.359-3.673c4.351-2.513,8.227-2.383,12.338.088l2.083,1.254c2.731,1.642,3.644,3.227,2.651,4.831,2.973-.687,5.675.121,8.451,1.788Zm-18.44-6.087-2.622-1.577c-1.9-1.141-3.378-1.265-4.875-.4l-2.023,1.168,8.158,4.9,1.635-.944c1.575-.909,1.855-1.868-.274-3.149" transform="translate(239.002 -68.43)"/></g><g transform="translate(0 5.498)"><path class="f" d="M-212.366,87.041l-.1,7.812-26.586-15.986.1-7.812Z" transform="translate(239.048 -71.056)"/></g></g><g class="c" transform="translate(0 56.248)"><g class="c" transform="translate(9.991 3.425)"><g class="ah"><g class="c" transform="translate(0 0)"><path class="h" d="M-238.308,74.847l-.1,7.811a7.567,7.567,0,0,0-1.087-.549l.1-7.813a7.376,7.376,0,0,1,1.087.551" transform="translate(242.971 -73.969)"/><path class="i" d="M-239.139,74.385l-.1,7.813q-.251-.1-.49-.17l.1-7.813c.159.046.32.1.488.17" transform="translate(242.715 -74.058)"/><path class="j" d="M-239.462,74.255l-.1,7.813c-.1-.031-.212-.057-.314-.077l.1-7.813c.1.021.209.048.316.077" transform="translate(242.551 -74.098)"/><path class="k" d="M-239.646,74.2l-.1,7.813c-.086-.019-.17-.033-.253-.046l.1-7.811c.084.01.168.025.253.044" transform="translate(242.419 -74.121)"/><path class="l" d="M-239.784,74.17l-.1,7.811c-.075-.01-.149-.019-.222-.023l.1-7.813c.073.006.147.015.222.025" transform="translate(242.303 -74.135)"/><path class="m" d="M-239.9,74.15l-.1,7.813c-.071-.006-.142-.01-.212-.01l.1-7.813c.069,0,.14,0,.212.01" transform="translate(242.192 -74.14)"/><path class="n" d="M-240,74.14l-.1,7.813c-.071,0-.142,0-.214,0l.1-7.811c.071,0,.142,0,.214,0" transform="translate(242.081 -74.14)"/><path class="o" d="M-240.085,74.142l-.1,7.811c-.08,0-.159.01-.237.021l.1-7.813c.077-.008.157-.017.237-.019" transform="translate(241.957 -74.138)"/><path class="p" d="M-240.163,74.151l-.1,7.813a2.419,2.419,0,0,0-.3.05l.1-7.813c.1-.021.2-.038.3-.05" transform="translate(241.798 -74.128)"/><path class="q" d="M-239.821,74.175l-.1,7.813a4.161,4.161,0,0,0-1.235.494l.1-7.813a4.275,4.275,0,0,1,1.235-.494" transform="translate(241.153 -74.102)"/></g></g></g><g transform="translate(8 3.993)"><path class="e" d="M-240.016,74.411l-.1,7.812-1.991,1.149.1-7.812Z" transform="translate(242.104 -74.411)"/></g><g transform="translate(14.558 4.301)"><path class="f" d="M-234.889,76.956l-.1,7.812-3.986-2.4.1-7.812Z" transform="translate(238.972 -74.559)"/></g><g class="c" transform="translate(18.545 6.698)"><g class="ai"><g class="c"><path class="h" d="M-235.529,77.271l-.1,7.811c0-.457-.438-.961-1.443-1.566l.1-7.813c1.005.605,1.449,1.112,1.443,1.568" transform="translate(237.068 -75.703)"/></g></g></g><g class="c" transform="translate(22.777 8.098)"><g class="aj"><g class="c"><path class="k" d="M-233.5,76.372l-.1,7.813,0,.084.1-7.813,0-.084" transform="translate(236.625 -76.372)"/><path class="l" d="M-233.48,76.412l-.1,7.813a2.145,2.145,0,0,1-.054.4l.1-7.813a2.331,2.331,0,0,0,.052-.4" transform="translate(236.596 -76.328)"/><path class="m" d="M-233.467,76.6l-.1,7.813a2.47,2.47,0,0,1-.126.4l.1-7.813a2.712,2.712,0,0,0,.128-.4" transform="translate(236.53 -76.121)"/><path class="n" d="M-233.48,76.793l-.1,7.813a3.014,3.014,0,0,1-.22.433l.1-7.813a3.016,3.016,0,0,0,.22-.433" transform="translate(236.416 -75.911)"/><path class="o" d="M-233.5,77l-.1,7.813a4.222,4.222,0,0,1-.375.517l.1-7.813A3.877,3.877,0,0,0-233.5,77" transform="translate(236.22 -75.685)"/><path class="p" d="M-233.5,77.247l-.1,7.813a6.063,6.063,0,0,1-.729.712l.1-7.811a6.069,6.069,0,0,0,.729-.714" transform="translate(235.839 -75.415)"/><path class="q" d="M-233.435,77.588l-.1,7.811a10.629,10.629,0,0,1-1.516,1.039l.1-7.813a10.893,10.893,0,0,0,1.514-1.037" transform="translate(235.047 -75.042)"/></g></g></g><g transform="translate(20.787 11.681)"><path class="e" d="M-233.91,78.083l-.1,7.812L-236,87.044l.1-7.812Z" transform="translate(235.997 -78.083)"/></g><g transform="translate(0 5.28)"><path class="f" d="M-219.242,91.011l-.1,7.812-26.585-15.986.1-7.812Z" transform="translate(245.924 -75.026)"/></g><g transform="translate(26.585 18.842)"><path class="e" d="M-228.934,81.5l-.1,7.812-4.2,2.424.1-7.812Z" transform="translate(233.228 -81.502)"/></g><g transform="translate(0.097)"><path class="d" d="M-239.69,74.21c4.2-2.423,8.581-2.224,12.845.339l3.449,2.073c4.247,2.555,4.494,5.141.3,7.564l-1.991,1.15,10,6.01-4.2,2.425-26.585-15.986Zm12.357,4.992-3.987-2.4c-1.9-1.143-3.225-1.085-4.567-.31l-1.991,1.15,9,5.413,1.991-1.15c1.342-.777,1.455-1.564-.446-2.708" transform="translate(245.878 -72.505)"/></g></g></g></svg>