<svg xmlns="http://www.w3.org/2000/svg" xmlns:xlink="http://www.w3.org/1999/xlink" width="149.126" height="96.681" viewBox="0 0 149.126 96.681"><defs><style>.a,.b{fill:none;}.b{stroke:#831412;stroke-linejoin:round;stroke-width:2px;}.c{isolation:isolate;}.d{fill:#831412;}.e{fill:#ab2322;}.f{fill:#fff;}.g{fill:#881614;}.h{fill:#80120f;}.i{fill:#801310;}.j{fill:#891714;}.k{clip-path:url(#a);}.l{fill:#811310;}.m{clip-path:url(#b);}.n{fill:#8b1815;}.o{fill:#8e1917;}.p{fill:#921a19;}.q{fill:#951c1a;}.r{fill:#991d1b;}.s{fill:#9c1e1d;}.t{fill:#a01f1e;}.u{fill:#871614;}.v{fill:#841512;}.w{clip-path:url(#c);}.x{clip-path:url(#d);}.y{clip-path:url(#e);}.z{clip-path:url(#f);}.aa{clip-path:url(#g);}.ab{fill:#7e120e;}.ac{fill:#901918;}.ad{clip-path:url(#h);}.ae{clip-path:url(#i);}.af{clip-path:url(#j);}</style><clipPath id="a"><path class="a" d="M-398.063,281.5l-.1,7.811c.006-.477-.421-1.005-1.411-1.6l.1-7.811C-398.484,280.495-398.057,281.025-398.063,281.5Z" transform="translate(399.571 -279.9)"/></clipPath><clipPath id="b"><path class="a" d="M-387.8,280.679l-.1,7.811c-.015,1.223-.976,2.427-2.94,3.56-4.121,2.379-8.7,2.153-12.949-.4l.1-7.811c4.247,2.553,8.83,2.781,12.949.4C-388.776,283.1-387.815,281.9-387.8,280.679Z" transform="translate(403.786 -280.679)"/></clipPath><clipPath id="c"><path class="a" d="M-410.93,280.635l-.1,7.813c-1.9-1.143-3.392-1.277-4.889-.412l.1-7.811C-414.322,279.36-412.831,279.491-410.93,280.635Z" transform="translate(415.918 -279.663)"/></clipPath><clipPath id="d"><path class="a" d="M-410.7,282.612l-.1,7.811c.006-.519-.459-1.087-1.537-1.736l.1-7.811C-411.163,281.523-410.7,282.093-410.7,282.612Z" transform="translate(412.338 -280.876)"/></clipPath><clipPath id="e"><path class="a" d="M-409.024,281.153l-.1,7.813a2.392,2.392,0,0,1-.4,1.254l.1-7.813A2.381,2.381,0,0,0-409.024,281.153Z" transform="translate(409.522 -281.153)"/></clipPath><clipPath id="f"><path class="a" d="M-404.233,284.36l-.1,7.813c-2.469-1.485-4.236-1.547-6.15-.442l.1-7.813C-408.469,282.813-406.7,282.878-404.233,284.36Z" transform="translate(410.479 -283.16)"/></clipPath><clipPath id="g"><path class="a" d="M-401.818,286.679l-.1,7.813a13.431,13.431,0,0,1-3.635-1.751l.1-7.811A13.493,13.493,0,0,0-401.818,286.679Z" transform="translate(405.55 -284.931)"/></clipPath><clipPath id="h"><path class="a" d="M-397.629,300.083l.1-7.811c.006-.521.436-.995,1.208-1.441,1.681-.972,3.543-.98,5.92.45l-.1,7.811c-2.377-1.428-4.238-1.42-5.92-.448C-397.2,299.091-397.623,299.564-397.629,300.083Z" transform="translate(397.629 -290.149)"/></clipPath><clipPath id="i"><path class="a" d="M-367,303.085l-.1,7.813c.008-.6-.536-1.271-1.788-2.023-6.868-4.132-18.467,1.047-28-4.686-2.818-1.694-4.263-3.432-4.243-5.13l.1-7.811c-.021,1.7,1.422,3.434,4.24,5.128,9.536,5.733,21.135.557,28,4.686C-367.537,301.816-366.992,302.482-367,303.085Z" transform="translate(401.131 -291.248)"/></clipPath><clipPath id="j"><path class="a" d="M-370.827,296.824l-.1,7.813c-.019,1.543-1.231,3.059-3.7,4.483-5.187,2.994-10.922,2.71-16.258-.5l.1-7.811c5.335,3.208,11.071,3.493,16.258.5C-372.06,299.883-370.846,298.367-370.827,296.824Z" transform="translate(390.883 -296.824)"/></clipPath></defs><g transform="translate(1 1)"><path class="b" d="M-389.92,326.08l.061-4.929.888.532c.312.188.586.348.838.492l.218.124c.168.094.325.18.469.258l.2.1c.136.069.264.132.381.188.046.023.1.048.14.067.153.071.3.134.427.186h0l0,0c.341.136.628.224.959.329h0l4.291-2.477.04-3.271c.073.017.147.04.218.054.1.019.195.034.291.05.065.013.13.023.195.034.1.019.209.04.316.054.243.036.486.063.731.082.14.01.281.013.421.019l.132.006c.054,0,.107.008.159.008.247,0,.492,0,.737-.01.2-.008.4-.029.6-.05.044,0,.086,0,.128-.01s.061,0,.09-.006c.358-.042.712-.1,1.066-.176.065-.015.128-.044.193-.059a11.775,11.775,0,0,0,1.156-.348c.188-.065.377-.113.563-.186a12.857,12.857,0,0,0,1.679-.808,10.224,10.224,0,0,0,1.351-.926c.023-.019.057-.036.077-.052a5.907,5.907,0,0,0,.72-.7l.029-.042c.023-.027.038-.054.059-.082a4.06,4.06,0,0,0,.293-.4,2.94,2.94,0,0,0,.22-.438l0,0v0a2.4,2.4,0,0,0,.13-.412,2.3,2.3,0,0,0,.056-.41l0-.088h0l.067-5.365,5.746,3.455,3.658-2.113.04-3.147,3.093,1.34,3.983-2.3.042-3.394,2.86,1.719,3.981-2.3.033-2.7,1.912,1.581,3.857-2.228.071-5.715,1.011-.584,5.539,2.475,4.245-2.45.029-2.274,1.916,1.152,4.2-2.423.069-5.6,4.716,2.835,4.274-2.467.1-7.813-26.585-15.986-4.274,2.469-.069,5.6-4.716-2.835-4.2,2.425-.077,6.293-6.158-2.693-6.156,3.554-.09,7.279-6.131-3.687-5.849,3.378-.075,6.014-5.9-2.565-5.834,3.367-.042,3.323-2.8-1.684L-396.87,291l-.063,5.109-4.305-2.588-4.2,2.425-.046,3.644a11.173,11.173,0,0,0-8.782,1.453l-6.345,3.662-.1,7.811,26.585,15.986Zm14.97-21.17a.921.921,0,0,0-.044-.205A.921.921,0,0,1-374.95,304.909Zm4.787,2a6.114,6.114,0,0,1-.44.427c.155-.144.3-.287.431-.431Zm-5.13-2.741a3.513,3.513,0,0,0-.283-.266A3.513,3.513,0,0,1-375.294,304.166Zm.255.381a1.468,1.468,0,0,0-.147-.226A1.468,1.468,0,0,1-375.038,304.547Zm-26.516,2.559a.944.944,0,0,0-.048-.22A.944.944,0,0,1-401.554,307.106Zm-.251-.645a1.635,1.635,0,0,1,.163.249A1.635,1.635,0,0,0-401.806,306.461Zm-.113-.17a3.777,3.777,0,0,0-.308-.287A3.777,3.777,0,0,1-401.919,306.291Zm-.477-.442a6.822,6.822,0,0,0-.693-.469A6.822,6.822,0,0,1-402.4,305.85Zm26.667-2.088a5.87,5.87,0,0,0-.626-.425A5.87,5.87,0,0,1-375.729,303.762Z" transform="translate(420.704 -258.477)"/><path class="b" d="M-318.154,278.138l.08-6.464-4.783-2.875-16.329,9.427-.033,2.691-2.266-1.363-5.279,3.047-.069,5.484-2.339-4.094-5.279,3.047-.1,7.813.262.438-7.08-4.257-5.277,3.047-.1,7.813.555.333-8.284-3.627-7.733,4.464-.1,7.811,2.038,1.686-.99-.595c-5.336-3.208-11.025-3.52-16.149-.561-2.53,1.462-3.7,3.015-3.616,4.6,0-.067-.019-.132-.017-.2l-.1,7.811c-.021,1.7,1.424,3.434,4.243,5.13a17.888,17.888,0,0,0,2.305,1.145c.09.038.174.1.264.132.184.073.371.124.557.191.318.117.639.23.961.331.128.038.251.092.379.13.218.063.438.107.655.161s.452.117.68.168c.1.023.195.052.293.073.289.059.58.1.869.149.209.038.419.08.63.109.057.008.111.021.168.029.268.038.534.057.8.086.323.036.645.077.967.1.052,0,.107.013.159.017.14.01.278.008.419.019.655.042,1.311.071,1.962.086.1,0,.209.013.314.015s.193,0,.289,0c.863.01,1.719.01,2.565,0l-.078,6.357,2.054,1.235a19.646,19.646,0,0,0,2.5,1.252c.1.042.195.109.3.149.285.113.57.2.856.3.191.065.379.138.57.2.071.021.14.052.211.073.4.115.8.216,1.2.3.122.023.241.04.362.063.082.015.165.029.247.042.13.023.262.05.394.069.3.042.609.075.915.1.178.013.354.017.532.025l.165.008c.065,0,.13.008.195.008.308.006.616,0,.921-.013.255-.013.511-.038.766-.063.052,0,.1-.006.157-.013.036,0,.071,0,.107-.008.446-.052.89-.128,1.334-.222.084-.019.163-.054.247-.075a15,15,0,0,0,1.455-.436c.237-.082.473-.142.706-.235a16.2,16.2,0,0,0,2.117-1.02,13.134,13.134,0,0,0,1.485-1c.061-.046.126-.09.182-.136.04-.033.09-.065.128-.1a7.478,7.478,0,0,0,.907-.888c.015-.017.023-.036.038-.052.029-.033.048-.069.075-.1a4.9,4.9,0,0,0,.368-.5,3.887,3.887,0,0,0,.279-.551v0l0,0a3.56,3.56,0,0,0,.163-.521,2.906,2.906,0,0,0,.071-.517l0-.109.071-5.666,5.352,4.431,4.862-2.808.088-7.189,1.248-.72,6.967,3.116,5.325-3.074.036-2.871,2.419,1.453,5.277-3.047.071-5.742,6.7,1.83,5.417-3.128.034-2.816,2.375,1.428,5.277-3.049.1-7.811-22.029-13.247,1.15-.662,28.608,17.2,5.279-3.049.1-7.811Zm-23.478,19.047-3.158-5.526,13.986,8.41Zm-21.685,34.783a13.209,13.209,0,0,0,1.587-1.074c-.031.025-.069.052-.1.077A13.729,13.729,0,0,1-363.318,331.969Zm3.131-2.791-.042.067c.015-.023.025-.046.04-.069Zm-6.822-1.573a1.1,1.1,0,0,0-.057-.26A1.1,1.1,0,0,1-367.009,327.6Zm-.3-.743a2.1,2.1,0,0,1,.189.287A2.1,2.1,0,0,0-367.309,326.861Zm-1.48-1.24a8.186,8.186,0,0,1,.791.538A8.186,8.186,0,0,0-368.789,325.622Zm.976.706a3.935,3.935,0,0,1,.366.339A3.935,3.935,0,0,0-367.813,326.327Zm-12.463-6.883.084-6.831,8.634,7.149A55.94,55.94,0,0,0-380.277,319.444Zm-12.794-4.86.046-.04-.029.027Zm-.586.777.01-.031Zm32.384,15.11a7.329,7.329,0,0,0,.754-.754c-.021.027-.036.054-.059.082A7.644,7.644,0,0,1-361.274,330.471Zm-32.145-15.546-.034.046Zm-7.58,1.242a3.371,3.371,0,0,0,.3,1.062A3.371,3.371,0,0,1-401,316.167Zm.377,1.217a5.366,5.366,0,0,0,.733,1.083A5.454,5.454,0,0,1-400.622,317.384Zm.848,1.206a9.666,9.666,0,0,0,1.189,1.114A9.505,9.505,0,0,1-399.774,318.59Zm1.294,1.191a16.953,16.953,0,0,0,1.688,1.154A16.953,16.953,0,0,1-398.48,319.782Z" transform="translate(442.117 -247.185)"/><g transform="translate(0.001 0)"><g class="c" transform="translate(66.812)"><g transform="translate(8.982 2.468)"><path class="d" d="M-373,266.515l-.1,7.812-11.407-6.859.1-7.812Z" transform="translate(384.507 -259.656)"/></g><g transform="translate(19.392 11.604)"><path class="e" d="M-374.655,264.019l-.1,7.812-4.784,2.762.1-7.812Z" transform="translate(379.536 -264.019)"/></g><g transform="translate(35.568 15.986)"><path class="e" d="M-367.44,266.111l-.1,7.812-4.275,2.468.1-7.812Z" transform="translate(371.811 -266.111)"/></g><g transform="translate(24.176 11.604)"><path class="d" d="M-365.763,270.868l-.1,7.812-11.392-6.85.1-7.812Z" transform="translate(377.252 -264.019)"/></g><g transform="translate(0.097)"><path class="f" d="M-375.493,258.477l26.585,15.986-4.275,2.468-11.392-6.85-4.784,2.762,11.392,6.85-4.2,2.424-26.585-15.986,4.2-2.424,11.407,6.859,4.784-2.762-11.407-6.859Z" transform="translate(388.751 -258.477)"/></g><g transform="translate(26.585 21.216)"><path class="e" d="M-371.807,268.609l-.1,7.812-4.2,2.424.1-7.812Z" transform="translate(376.101 -268.609)"/></g><g transform="translate(0 7.654)"><path class="d" d="M-362.115,278.118l-.1,7.812L-388.8,269.944l.1-7.812Z" transform="translate(388.797 -262.133)"/></g></g><g class="c" transform="translate(54.419 11.255)"><g transform="translate(7.593 4.737)"><path class="g" d="M-375.54,273.023l-.1,7.812-15.453-6.909.1-7.812Z" transform="translate(391.09 -266.114)"/></g><g transform="translate(32.79 13.508)"><path class="e" d="M-374.716,270.3l-.1,7.812-4.244,2.45.1-7.812Z" transform="translate(379.057 -270.303)"/></g><g transform="translate(27.25 13.482)"><path class="g" d="M-376.066,272.766l-.1,7.812-5.54-2.476.1-7.812Z" transform="translate(381.702 -270.29)"/></g><g transform="translate(22.08 13.482)"><path class="e" d="M-378.9,270.29l-.1,7.812-5.17,2.985.1-7.812Z" transform="translate(384.171 -270.29)"/></g><g transform="translate(0.097)"><path class="f" d="M-388.513,263.852l30.876,13.508-4.245,2.45-5.539-2.477-5.17,2.986,4.09,3.313-3.859,2.228-22.309-18.452Zm12.845,13.98,4.043-2.335-15.452-6.908,11.408,9.243" transform="translate(394.669 -263.852)"/></g><g transform="translate(22.31 19.781)"><path class="e" d="M-380.106,273.3l-.1,7.812-3.858,2.228.1-7.812Z" transform="translate(384.061 -273.298)"/></g><g transform="translate(0 3.555)"><path class="h" d="M-372.309,284l-.1,7.812-22.31-18.454.1-7.812Z" transform="translate(394.716 -265.55)"/></g></g><g class="c" transform="translate(30.543 18.401)"><g transform="translate(21.202 6.825)"><path class="d" d="M-376.838,281.983l-.1,7.812-19.058-11.459.1-7.812Z" transform="translate(395.992 -270.524)"/></g><g transform="translate(11.807 3.377)"><path class="i" d="M-384.365,281.892l-.1,7.812-16.018-13.015.1-7.812Z" transform="translate(400.479 -268.877)"/></g><g transform="translate(40.26 15.986)"><path class="e" d="M-382.813,274.9l-.1,7.812-3.982,2.3.1-7.812Z" transform="translate(386.891 -274.898)"/></g><g transform="translate(11.446 12.765)"><path class="j" d="M-378.625,282.854l-.1,7.812-21.93-9.493.1-7.812Z" transform="translate(400.651 -273.361)"/></g><g transform="translate(33.376 19.96)"><path class="e" d="M-386.1,276.8l-.1,7.812-3.982,2.3.1-7.812Z" transform="translate(390.179 -276.796)"/></g><g transform="translate(26.585 24.067)"><path class="e" d="M-389.667,278.758l-.1,7.812-3.658,2.112.1-7.812Z" transform="translate(393.422 -278.758)"/></g><g transform="translate(0 10.194)"><path class="d" d="M-379.436,288.118l-.1,7.812-26.585-15.986.1-7.812Z" transform="translate(406.118 -272.132)"/></g><g transform="translate(0.097)"><path class="f" d="M-388.415,267.264l26.585,15.986-3.982,2.3-19.058-11.459,16.156,13.134-3.982,2.3-21.93-9.494,18.8,11.3-3.658,2.112-26.585-15.985,5.834-3.368,21.991,9.567-16.018-13.015Z" transform="translate(406.071 -267.264)"/></g></g><g class="c" transform="translate(15.171 30.233)"><g transform="translate(8.566 2.291)"><path class="d" d="M-388.757,286.344l-.1,7.812-20.514-12.335.1-7.812Z" transform="translate(409.368 -274.009)"/></g><g class="c" transform="translate(29.08 14.627)"><g class="k"><g class="c"><path class="l" d="M-398.063,281.5l-.1,7.811c.006-.477-.421-1.005-1.411-1.6l.1-7.811c.99.595,1.418,1.124,1.411,1.6" transform="translate(399.571 -279.9)"/></g></g></g><g transform="translate(0 7.236)"><path class="d" d="M-393.109,288.549l-.1,7.812-20.253-12.178.1-7.812Z" transform="translate(413.458 -276.371)"/></g><g class="c" transform="translate(20.254 16.258)"><g class="m"><g class="c"><path class="n" d="M-396.1,280.679l-.1,7.811,0,.088.1-7.813,0-.086" transform="translate(412.086 -280.679)"/><path class="o" d="M-396.073,280.72l-.1,7.813a2.3,2.3,0,0,1-.057.41l.1-7.813a2.276,2.276,0,0,0,.056-.41" transform="translate(412.057 -280.634)"/><path class="p" d="M-396.062,280.916l-.1,7.813a2.594,2.594,0,0,1-.13.412l.1-7.813a2.355,2.355,0,0,0,.13-.413" transform="translate(411.989 -280.42)"/><path class="q" d="M-396.076,281.113l-.1,7.813a3,3,0,0,1-.222.442l.1-7.811a3.137,3.137,0,0,0,.222-.444" transform="translate(411.873 -280.204)"/><path class="r" d="M-396.1,281.325l-.1,7.811a4.2,4.2,0,0,1-.381.526l.1-7.813a4.192,4.192,0,0,0,.381-.523" transform="translate(411.674 -279.972)"/><path class="s" d="M-396.1,281.575l-.1,7.813a5.916,5.916,0,0,1-.72.7l.1-7.813a5.925,5.925,0,0,0,.72-.7" transform="translate(411.297 -279.699)"/><path class="t" d="M-394.2,281.911l-.1,7.813a10.007,10.007,0,0,1-1.428.978,12.367,12.367,0,0,1-3.591,1.4l.1-7.813a12.305,12.305,0,0,0,3.591-1.4,10,10,0,0,0,1.428-.978" transform="translate(408.675 -279.331)"/><path class="s" d="M-398.664,283.047l-.1,7.813c-.354.075-.708.134-1.066.176l.1-7.813q.534-.063,1.064-.176" transform="translate(408.118 -278.088)"/><path class="r" d="M-399.3,283.131l-.1,7.813c-.272.031-.547.055-.821.067l.1-7.811q.412-.019.823-.069" transform="translate(407.689 -277.996)"/><path class="q" d="M-399.737,283.164l-.1,7.811c-.245.01-.49.015-.737.01l.1-7.811c.247,0,.492,0,.737-.01" transform="translate(407.304 -277.96)"/><path class="p" d="M-400.1,283.188l-.1,7.811c-.237,0-.475-.015-.712-.033l.1-7.813c.237.019.475.031.712.036" transform="translate(406.932 -277.973)"/><path class="o" d="M-400.432,283.194l-.1,7.813c-.245-.019-.488-.046-.731-.082l.1-7.811c.243.034.488.061.731.08" transform="translate(406.551 -278.015)"/><path class="n" d="M-400.744,283.187l-.1,7.811c-.268-.036-.534-.084-.8-.138l.1-7.813c.268.057.534.1.8.14" transform="translate(406.132 -278.088)"/><path class="u" d="M-401.045,283.172l-.1,7.813q-.481-.1-.959-.239l.1-7.813c.318.092.639.172.959.239" transform="translate(405.631 -278.213)"/><path class="v" d="M-401.321,283.168l-.1,7.813a13.605,13.605,0,0,1-1.307-.452l.1-7.811a13.582,13.582,0,0,0,1.307.45" transform="translate(404.948 -278.448)"/><path class="l" d="M-401.466,283.3l-.1,7.811A15.507,15.507,0,0,1-403.786,290l.1-7.811a15.735,15.735,0,0,0,2.224,1.112" transform="translate(403.786 -279.029)"/></g></g></g><g transform="translate(0.097)"><path class="f" d="M-400.882,272.915l20.255,12.179c4.247,2.555,4.555,5.25.417,7.637-4.119,2.381-8.7,2.153-12.949-.4l-20.253-12.179,4.2-2.425,20.515,12.336a4.353,4.353,0,0,0,4.768.283c1.326-.766,1.5-1.661-.4-2.8l-20.515-12.336Z" transform="translate(413.412 -272.915)"/></g></g><g class="c" transform="translate(0 40.739)"><g class="c" transform="translate(10.021 3.623)"><g class="w"><g class="c" transform="translate(0 0)"><path class="l" d="M-412.858,280.444l-.1,7.813a8.545,8.545,0,0,0-1.2-.609l.1-7.811a8.414,8.414,0,0,1,1.2.607" transform="translate(417.846 -279.472)"/><path class="v" d="M-413.777,279.935l-.1,7.811c-.184-.073-.364-.136-.54-.186l.1-7.813c.176.052.358.115.54.188" transform="translate(417.563 -279.57)"/><path class="u" d="M-414.13,279.794l-.1,7.813c-.121-.036-.241-.065-.36-.09l.1-7.813c.119.025.239.054.36.09" transform="translate(417.375 -279.617)"/><path class="n" d="M-414.344,279.729l-.1,7.813c-.092-.019-.186-.036-.279-.048l.1-7.813c.092.013.184.029.276.048" transform="translate(417.23 -279.642)"/><path class="o" d="M-414.494,279.7l-.1,7.813c-.082-.013-.161-.021-.243-.027l.1-7.813c.082.006.163.017.245.027" transform="translate(417.103 -279.657)"/><path class="p" d="M-414.618,279.674l-.1,7.813c-.078-.006-.153-.01-.23-.01l.1-7.813c.077,0,.153.006.23.01" transform="translate(416.982 -279.662)"/><path class="q" d="M-414.728,279.663l-.1,7.813c-.077,0-.155,0-.23,0l.1-7.811c.075,0,.153-.006.23,0" transform="translate(416.862 -279.663)"/><path class="r" d="M-414.823,279.665l-.1,7.811c-.088,0-.174.01-.26.021l.1-7.811c.084-.01.17-.017.258-.021" transform="translate(416.727 -279.66)"/><path class="s" d="M-414.907,279.675l-.1,7.811c-.111.015-.222.031-.333.057l.1-7.813c.111-.023.222-.042.335-.055" transform="translate(416.553 -279.649)"/><path class="t" d="M-414.607,279.7l-.1,7.813a4.154,4.154,0,0,0-1.214.48l.1-7.811a4.156,4.156,0,0,1,1.212-.482" transform="translate(415.918 -279.621)"/></g></g></g><g transform="translate(8 4.184)"><path class="e" d="M-414.765,279.931l-.1,7.812-2.022,1.167.1-7.812Z" transform="translate(416.883 -279.931)"/></g><g transform="translate(14.912 4.596)"><path class="d" d="M-410.879,281.695l-.1,7.812-2.606-1.567.1-7.812Z" transform="translate(413.583 -280.127)"/></g><g class="c" transform="translate(17.518 6.164)"><g class="x"><g class="c"><path class="l" d="M-410.7,282.612l-.1,7.811c.006-.519-.459-1.087-1.537-1.736l.1-7.811c1.078.647,1.543,1.217,1.537,1.736" transform="translate(412.338 -280.876)"/></g></g></g><g class="c" transform="translate(23.414 6.744)"><g class="y"><g class="c"><path class="n" d="M-409.233,281.153l-.1,7.813,0,.077.1-7.813,0-.078" transform="translate(409.731 -281.153)"/><path class="o" d="M-409.208,281.19l-.1,7.813a2.124,2.124,0,0,1-.05.356l.1-7.813a2.306,2.306,0,0,0,.048-.356" transform="translate(409.705 -281.113)"/><path class="p" d="M-409.2,281.36l-.1,7.813a2.234,2.234,0,0,1-.115.366l.1-7.811a2.5,2.5,0,0,0,.117-.369" transform="translate(409.645 -280.927)"/><path class="q" d="M-409.205,281.536l-.1,7.811a2.716,2.716,0,0,1-.207.413l.1-7.813a2.7,2.7,0,0,0,.207-.41" transform="translate(409.536 -280.734)"/><path class="r" d="M-409.4,281.732l-.1,7.813-.027.042.1-7.813.025-.042" transform="translate(409.522 -280.52)"/></g></g></g><g class="c" transform="translate(21.41 10.945)"><g class="z"><g class="c" transform="translate(0 0)"><path class="l" d="M-406.661,284.13l-.1,7.813a10.6,10.6,0,0,0-1.5-.762l.1-7.811a10.436,10.436,0,0,1,1.5.76" transform="translate(412.908 -282.929)"/><path class="v" d="M-407.818,283.489l-.1,7.811c-.222-.09-.442-.165-.655-.228l.1-7.811c.214.063.433.138.657.228" transform="translate(412.565 -283.049)"/><path class="u" d="M-408.253,283.317l-.1,7.811c-.145-.04-.287-.075-.427-.1l.1-7.813c.14.029.281.065.425.107" transform="translate(412.342 -283.105)"/><path class="n" d="M-408.5,283.241l-.1,7.813c-.113-.025-.224-.044-.337-.061l.1-7.811c.111.015.222.036.337.059" transform="translate(412.166 -283.135)"/><path class="o" d="M-408.686,283.2l-.1,7.811c-.1-.013-.2-.023-.293-.031l.1-7.813c.1.008.195.019.3.034" transform="translate(412.013 -283.153)"/><path class="p" d="M-408.835,283.173l-.1,7.813c-.094-.008-.186-.013-.278-.015l.1-7.811c.092,0,.186.006.279.013" transform="translate(411.867 -283.159)"/><path class="q" d="M-408.965,283.16l-.1,7.811c-.094,0-.191,0-.285,0l.1-7.811c.094,0,.188-.006.283,0" transform="translate(411.719 -283.16)"/><path class="r" d="M-409.083,283.162l-.1,7.811c-.1.006-.209.015-.314.027l.1-7.813c.1-.013.209-.021.316-.025" transform="translate(411.554 -283.157)"/><path class="s" d="M-409.184,283.174l-.1,7.813c-.138.017-.276.04-.413.069l.1-7.813c.136-.029.274-.052.412-.069" transform="translate(411.339 -283.144)"/><path class="t" d="M-408.737,283.207l-.1,7.813a5.612,5.612,0,0,0-1.646.66l.1-7.813a5.611,5.611,0,0,1,1.646-.66" transform="translate(410.479 -283.108)"/></g></g></g><g transform="translate(19.959 11.705)"><path class="e" d="M-409.625,283.522l-.1,7.812-1.451.838.1-7.812Z" transform="translate(411.172 -283.522)"/></g><g transform="translate(27.561 12.147)"><path class="d" d="M-403.275,286.241l-.1,7.812-4.17-2.508.1-7.812Z" transform="translate(407.542 -283.733)"/></g><g transform="translate(35.367 13.927)"><path class="e" d="M-399.427,284.584l-.1,7.812-4.291,2.477.1-7.812Z" transform="translate(403.814 -284.584)"/></g><g class="c" transform="translate(31.732 14.655)"><g class="aa"><g class="c"><path class="v" d="M-403.214,285.938l-.1,7.813c-.333-.1-.62-.193-.963-.331l.1-7.811c.343.136.63.224.963.329" transform="translate(406.946 -284.189)"/><path class="l" d="M-402.782,286.351l-.1,7.811a18.938,18.938,0,0,1-2.672-1.42l.1-7.811a18.942,18.942,0,0,0,2.672,1.42" transform="translate(405.55 -284.931)"/></g></g></g><g transform="translate(26.585 19.051)"><path class="e" d="M-403.713,287.03l-.1,7.812-4.2,2.424.1-7.812Z" transform="translate(408.008 -287.03)"/></g><g transform="translate(0.096)"><path class="f" d="M-384.681,290.192A12.674,12.674,0,0,0-381,291.859l-4.291,2.477a13.5,13.5,0,0,1-3.635-1.748l-4.171-2.509c-2.467-1.483-4.236-1.547-6.15-.442l-1.451.838,10.824,6.508-4.2,2.425-26.585-15.986,6.345-3.662a11.155,11.155,0,0,1,12.353.078l2.086,1.254c2.743,1.65,3.641,3.227,2.634,4.839,2.988-.7,5.675.121,8.449,1.79Zm-18.459-6.1-2.6-1.568c-1.9-1.143-3.392-1.275-4.889-.41l-2.023,1.166,8.173,4.915,1.65-.955c1.56-.9,1.826-1.866-.306-3.147" transform="translate(420.658 -277.932)"/></g><g transform="translate(0 5.489)"><path class="d" d="M-394.022,296.539l-.1,7.812L-420.7,288.365l.1-7.812Z" transform="translate(420.704 -280.554)"/></g></g><g class="c" transform="translate(102.833 21.614)"><g transform="translate(15.587 2.876)"><path class="e" d="M-358.53,270.172l-.1,7.812-5.525,3.19.1-7.812Z" transform="translate(364.152 -270.172)"/></g><g transform="translate(4.784 9.114)"><path class="e" d="M-363.689,273.151l-.1,7.812-5.525,3.19.1-7.812Z" transform="translate(369.311 -273.151)"/></g><g transform="translate(0 9.427)"><path class="d" d="M-366.715,276.177l-.1,7.812-4.784-2.876.1-7.812Z" transform="translate(371.595 -273.301)"/></g><g transform="translate(0.097)"><path class="f" d="M-355.22,268.8l4.783,2.876-5.525,3.19,28.609,17.2-5.278,3.047-28.609-17.2-5.525,3.19-4.784-2.876Z" transform="translate(371.549 -268.799)"/></g><g transform="translate(38.918 23.269)"><path class="e" d="M-347.635,279.911l-.1,7.812-5.278,3.047.1-7.812Z" transform="translate(353.01 -279.911)"/></g><g transform="translate(10.309 9.114)"><path class="d" d="M-337.967,290.354l-.1,7.812-28.609-17.2.1-7.812Z" transform="translate(366.672 -273.151)"/></g></g><g class="c" transform="translate(95.255 32.369)"><g transform="translate(0.097)"><path class="f" d="M-369.89,273.935l33.393,20.079-5.278,3.047-33.393-20.079Z" transform="translate(375.168 -273.935)"/></g><g transform="translate(33.393 20.079)"><path class="e" d="M-353.892,283.524l-.1,7.812-5.278,3.047.1-7.812Z" transform="translate(359.267 -283.524)"/></g><g transform="translate(0 3.047)"><path class="d" d="M-341.725,295.469l-.1,7.812L-375.214,283.2l.1-7.812Z" transform="translate(375.214 -275.39)"/></g></g><g class="c" transform="translate(75.376 36.806)"><g transform="translate(12.193 3.047)"><path class="ab" d="M-371.152,290.25l-.1,7.812-7.636-12.741.1-7.812Z" transform="translate(378.885 -277.51)"/></g><g transform="translate(45.446 20.079)"><path class="e" d="M-357.49,285.643l-.1,7.812L-363,296.582l.1-7.812Z" transform="translate(363.004 -285.643)"/></g><g transform="translate(26.999 18.172)"><path class="ac" d="M-353.27,289.767l-.1,7.812-18.448-5.035.1-7.812Z" transform="translate(371.814 -284.732)"/></g><g transform="translate(0.097)"><path class="f" d="M-367.19,276.054l7.541,13.193,25.852,6.886-5.417,3.128-18.447-5.035,1.415,2.779,10.257,6.167-5.278,3.047-33.393-20.079,5.278-3.047,14.55,8.749-7.636-12.741Z" transform="translate(384.661 -276.054)"/></g><g transform="translate(33.393 27.118)"><path class="e" d="M-363.386,289l-.1,7.812-5.278,3.047.1-7.812Z" transform="translate(368.76 -289.005)"/></g><g transform="translate(0 10.087)"><path class="d" d="M-351.218,300.95l-.1,7.812-33.393-20.079.1-7.812Z" transform="translate(384.707 -280.871)"/></g></g><g class="c" transform="translate(59.819 51.411)"><g transform="translate(9.514 5.946)"><path class="g" d="M-368.054,294.557l-.1,7.812-19.442-8.689.1-7.812Z" transform="translate(387.593 -285.868)"/></g><g transform="translate(41.171 16.977)"><path class="e" d="M-367.054,291.137l-.1,7.812-5.325,3.074.1-7.812Z" transform="translate(372.475 -291.137)"/></g><g transform="translate(34.205 16.936)"><path class="g" d="M-368.739,294.232l-.1,7.812-6.967-3.116.1-7.812Z" transform="translate(375.802 -291.117)"/></g><g transform="translate(27.723 16.936)"><path class="e" d="M-372.319,291.117l-.1,7.812-6.482,3.742.1-7.812Z" transform="translate(378.898 -291.117)"/></g><g transform="translate(0.096)"><path class="f" d="M-384.358,283.029l38.764,16.978-5.325,3.074-6.967-3.116-6.483,3.742,5.147,4.167-4.862,2.806-28.007-23.187Zm16.13,17.575,5.095-2.94-19.443-8.69,14.348,11.63" transform="translate(392.091 -283.029)"/></g><g transform="translate(28.007 24.845)"><path class="e" d="M-373.8,294.894l-.1,7.812-4.862,2.807.1-7.812Z" transform="translate(378.762 -294.894)"/></g><g transform="translate(0 4.463)"><path class="h" d="M-364.034,308.349l-.1,7.812-28.007-23.189.1-7.812Z" transform="translate(392.137 -285.161)"/></g></g><g class="c" transform="translate(40.985 62.173)"><g transform="translate(15.857 3.241)"><path class="e" d="M-388.477,289.716l-.1,7.812-4.985,2.878.1-7.812Z" transform="translate(393.559 -289.716)"/></g><g transform="translate(14.462 5.28)"><path class="d" d="M-392.733,291.529l-.1,7.812-1.4-.839.1-7.812Z" transform="translate(394.225 -290.69)"/></g><g class="c" transform="translate(7.333 4.147)"><g class="ad"><g class="c" transform="translate(0 0)"><path class="l" d="M-393.415,291.05l-.1,7.811a9.812,9.812,0,0,0-1.365-.689l.1-7.811a9.392,9.392,0,0,1,1.365.689" transform="translate(400.64 -289.916)"/><path class="v" d="M-394.438,290.479l-.1,7.811c-.224-.088-.442-.163-.655-.224l.1-7.813c.212.063.431.136.653.226" transform="translate(400.297 -290.034)"/><path class="u" d="M-394.866,290.309l-.1,7.813c-.147-.044-.289-.08-.431-.109l.1-7.811q.214.044.434.107" transform="translate(400.072 -290.09)"/><path class="n" d="M-395.116,290.235l-.1,7.811c-.119-.025-.237-.044-.352-.061l.1-7.813q.173.025.352.063" transform="translate(399.888 -290.123)"/><path class="o" d="M-395.306,290.189l-.1,7.813c-.1-.015-.207-.027-.31-.036l.1-7.811c.1.008.205.019.31.033" transform="translate(399.726 -290.141)"/><path class="p" d="M-395.464,290.164l-.1,7.811c-.1-.006-.195-.01-.291-.013l.1-7.813c.1,0,.195.006.291.015" transform="translate(399.574 -290.148)"/><path class="q" d="M-395.6,290.149l-.1,7.813c-.1,0-.2,0-.3,0l.1-7.813c.1,0,.2-.006.3,0" transform="translate(399.42 -290.149)"/><path class="r" d="M-395.727,290.151l-.1,7.813c-.109,0-.216.013-.322.025l.1-7.811c.107-.013.214-.021.323-.027" transform="translate(399.251 -290.146)"/><path class="s" d="M-395.83,290.164l-.1,7.811a4,4,0,0,0-.421.071l.1-7.813c.138-.029.276-.052.419-.069" transform="translate(399.032 -290.132)"/><path class="t" d="M-395.159,290.2l-.1,7.813a5,5,0,0,0-1.476.582,4.39,4.39,0,0,0-.609.415l.1-7.811a4.218,4.218,0,0,1,.609-.417,5.105,5.105,0,0,1,1.478-.582" transform="translate(397.942 -290.096)"/><path class="s" d="M-397.1,290.674l-.1,7.811a2.166,2.166,0,0,0-.287.283l.1-7.813a2.434,2.434,0,0,1,.287-.281" transform="translate(397.792 -289.574)"/><path class="r" d="M-397.3,290.808l-.1,7.813a1.459,1.459,0,0,0-.151.205l.1-7.811a1.622,1.622,0,0,1,.151-.207" transform="translate(397.713 -289.427)"/><path class="q" d="M-397.41,290.907l-.1,7.811a1.137,1.137,0,0,0-.088.176l.1-7.813a1.5,1.5,0,0,1,.088-.174" transform="translate(397.667 -289.319)"/><path class="p" d="M-397.471,290.99l-.1,7.813a1.1,1.1,0,0,0-.05.161l.1-7.811a1.212,1.212,0,0,1,.05-.163" transform="translate(397.641 -289.228)"/><path class="o" d="M-397.51,291.068l-.1,7.811a.876.876,0,0,0-.023.163l.1-7.813a1.031,1.031,0,0,1,.023-.161" transform="translate(397.629 -289.143)"/><path class="n" d="M-397.533,291.145l-.1,7.813v.036l.1-7.811v-.038" transform="translate(397.629 -289.059)"/></g></g></g><g class="c" transform="translate(0 6.449)"><g class="ae"><g class="c"><path class="l" d="M-383.123,298.318l-.1,7.813c.008-.6-.536-1.271-1.788-2.023a9.815,9.815,0,0,0-1.386-.689l.1-7.813a10.078,10.078,0,0,1,1.386.689c1.252.754,1.8,1.42,1.788,2.023" transform="translate(417.253 -286.48)"/><path class="v" d="M-385.7,295.809l-.1,7.813a11.911,11.911,0,0,0-1.137-.392l.1-7.811a11.341,11.341,0,0,1,1.137.389" transform="translate(416.659 -286.684)"/><path class="u" d="M-386.292,295.556l-.1,7.811q-.515-.148-1.051-.26l.1-7.811q.537.11,1.051.26" transform="translate(416.11 -286.819)"/><path class="n" d="M-386.756,295.4l-.1,7.811c-.367-.075-.741-.138-1.122-.193l.1-7.811q.572.079,1.122.193" transform="translate(415.524 -286.92)"/><path class="o" d="M-387.145,295.283l-.1,7.811c-.459-.065-.928-.113-1.405-.151l.1-7.811c.475.038.944.086,1.4.151" transform="translate(414.79 -286.999)"/><path class="p" d="M-387.405,295.182l-.1,7.811c-.71-.054-1.441-.084-2.186-.094l.1-7.813c.745.012,1.476.042,2.188.1" transform="translate(413.648 -287.049)"/><path class="q" d="M-385.765,295.09l-.1,7.813c-2.326-.04-4.8.078-7.329.036l.1-7.811c2.525.042,5-.075,7.329-.038" transform="translate(409.819 -287.053)"/><path class="p" d="M-391.686,295.168l-.1,7.811c-.894-.015-1.792-.05-2.695-.119l.1-7.813c.9.069,1.8.1,2.693.122" transform="translate(408.411 -287.093)"/><path class="o" d="M-393.371,295.153l-.1,7.813c-.643-.05-1.286-.117-1.929-.207l.1-7.811c.643.09,1.286.157,1.931.205" transform="translate(407.403 -287.2)"/><path class="n" d="M-394.431,295.1l-.1,7.811c-.557-.077-1.112-.172-1.667-.287l.1-7.813q.832.173,1.667.289" transform="translate(406.532 -287.351)"/><path class="u" d="M-395.247,295.02l-.1,7.813c-.544-.113-1.089-.247-1.629-.4l.1-7.813c.54.157,1.085.289,1.629.4" transform="translate(405.681 -287.561)"/><path class="v" d="M-395.885,294.958l-.1,7.813c-.637-.184-1.271-.4-1.9-.651l.1-7.813a18.975,18.975,0,0,0,1.9.651" transform="translate(404.69 -287.901)"/><path class="l" d="M-394.223,297.654l-.1,7.813a18.441,18.441,0,0,1-2.569-1.277c-2.818-1.694-4.263-3.432-4.243-5.13l.1-7.811c-.021,1.7,1.422,3.434,4.24,5.128a18,18,0,0,0,2.569,1.277" transform="translate(401.131 -291.248)"/></g></g></g><g transform="translate(19.405 20.877)"><path class="d" d="M-389.713,299.373l-.1,7.812-2.055-1.235.1-7.812Z" transform="translate(391.864 -298.138)"/></g><g class="c" transform="translate(21.46 18.125)"><g class="af"><g class="c"><path class="n" d="M-381.252,296.824l-.1,7.813,0,.109.1-7.811,0-.111" transform="translate(401.309 -296.824)"/><path class="o" d="M-381.22,296.877l-.1,7.811a2.9,2.9,0,0,1-.071.517l.1-7.811a2.926,2.926,0,0,0,.071-.517" transform="translate(401.272 -296.766)"/><path class="p" d="M-381.205,297.124l-.1,7.811a3.574,3.574,0,0,1-.163.521l.1-7.811a3.32,3.32,0,0,0,.163-.521" transform="translate(401.186 -296.496)"/><path class="q" d="M-381.222,297.373l-.1,7.811a3.961,3.961,0,0,1-.281.557l.1-7.811a4.078,4.078,0,0,0,.281-.557" transform="translate(401.04 -296.224)"/><path class="r" d="M-381.251,297.639l-.1,7.811a5.13,5.13,0,0,1-.482.662l.1-7.811a5.273,5.273,0,0,0,.482-.662" transform="translate(400.788 -295.932)"/><path class="s" d="M-381.259,297.955l-.1,7.811a7.476,7.476,0,0,1-.907.888l.1-7.813a7.46,7.46,0,0,0,.907-.886" transform="translate(400.314 -295.587)"/><path class="t" d="M-378.864,298.378l-.1,7.813a12.652,12.652,0,0,1-1.795,1.229,15.531,15.531,0,0,1-4.525,1.765l.1-7.813a15.584,15.584,0,0,0,4.525-1.763,12.827,12.827,0,0,0,1.795-1.231" transform="translate(397.013 -295.124)"/><path class="s" d="M-384.487,299.808l-.1,7.813c-.444.094-.888.17-1.334.222l.1-7.813q.669-.079,1.334-.222" transform="translate(396.316 -293.56)"/><path class="r" d="M-385.282,299.914l-.1,7.813c-.343.04-.687.067-1.03.084l.1-7.811c.346-.017.687-.044,1.03-.086" transform="translate(395.778 -293.444)"/><path class="q" d="M-385.831,299.955l-.1,7.811c-.306.015-.614.019-.921.013l.1-7.811c.308,0,.616,0,.921-.013" transform="translate(395.296 -293.399)"/><path class="p" d="M-386.287,299.984l-.1,7.811c-.3,0-.595-.019-.892-.042l.1-7.813q.446.034.892.044" transform="translate(394.83 -293.415)"/><path class="o" d="M-386.7,299.993l-.1,7.813c-.306-.025-.611-.059-.915-.1l.1-7.813c.3.044.609.077.915.1" transform="translate(394.352 -293.468)"/><path class="n" d="M-387.092,299.983l-.1,7.813c-.335-.046-.668-.1-1-.174l.1-7.813c.335.069.668.128,1,.174" transform="translate(393.828 -293.558)"/><path class="u" d="M-387.467,299.965l-.1,7.813c-.4-.084-.8-.184-1.2-.3l.1-7.813c.4.117.8.216,1.2.3" transform="translate(393.2 -293.715)"/><path class="v" d="M-387.813,299.961l-.1,7.813q-.823-.239-1.637-.565l.1-7.813c.544.218,1.089.406,1.638.565" transform="translate(392.345 -294.01)"/><path class="l" d="M-387.989,300.127l-.1,7.813a19.615,19.615,0,0,1-2.8-1.4l.1-7.811a19.372,19.372,0,0,0,2.8,1.4" transform="translate(390.883 -294.741)"/></g></g></g><g transform="translate(0.097)"><path class="f" d="M-397.45,290.212c5.124-2.959,10.813-2.647,16.149.561l1.057.637-4.984,2.877-1.4-.838c-2.377-1.43-4.238-1.422-5.92-.45s-1.734,2.069.643,3.5c6.868,4.129,18.482-1.057,28.032,4.686,5.336,3.208,5.685,6.6.5,9.6s-10.922,2.71-16.258-.5l-2.054-1.235,5-2.888,2.377,1.428c2.391,1.439,4.3,1.349,5.981.379s1.874-2.094-.517-3.533c-6.868-4.129-18.467,1.047-28-4.686C-402.179,296.538-402.591,293.179-397.45,290.212Z" transform="translate(401.085 -288.168)"/></g></g></g></g></svg>