<svg xmlns="http://www.w3.org/2000/svg" xmlns:xlink="http://www.w3.org/1999/xlink" width="97.474" height="65.523" viewBox="0 0 97.474 65.523"><defs><style>.a,.b{fill:none;}.b{stroke:#831412;stroke-linejoin:round;stroke-width:2px;}.c{isolation:isolate;}.d{fill:#831412;}.e{fill:#ab2322;}.f{fill:#8c1816;}.g{fill:#fff;}.h{clip-path:url(#a);}.i{fill:#811310;}.j{fill:#841512;}.k{fill:#871614;}.l{fill:#8b1815;}.m{fill:#8e1917;}.n{fill:#921a19;}.o{fill:#951c1a;}.p{fill:#991d1b;}.q{fill:#9c1e1d;}.r{fill:#a01f1e;}.s{clip-path:url(#b);}.t{clip-path:url(#c);}.u{clip-path:url(#d);}.v{fill:#881614;}.w{fill:#80120f;}.x{clip-path:url(#e);}.y{clip-path:url(#f);}.z{clip-path:url(#g);}</style><clipPath id="a"><path class="a" d="M-526.431,418.161l.1-7.811c.006-.436.362-.833.993-1.2a4.434,4.434,0,0,1,4.8.318l-.1,7.813a4.438,4.438,0,0,0-4.8-.32C-526.071,417.33-526.425,417.726-526.431,418.161Z" transform="translate(526.431 -408.594)"/></clipPath><clipPath id="b"><path class="a" d="M-529.2,417.33l.1-7.813c-.017,1.353,1.093,2.733,3.3,4.058l-.1,7.813C-528.108,420.06-529.218,418.682-529.2,417.33Z" transform="translate(529.201 -409.517)"/></clipPath><clipPath id="c"><path class="a" d="M-515.267,414.775l-.1,7.813c.006-.49-.436-1.032-1.443-1.638l.1-7.811C-515.7,413.745-515.261,414.285-515.267,414.775Z" transform="translate(516.806 -413.14)"/></clipPath><clipPath id="d"><path class="a" d="M-504.86,413.837l-.1,7.811c-.015,1.263-1.007,2.5-3,3.65a12.447,12.447,0,0,1-13.073-.329l.1-7.813a12.455,12.455,0,0,0,13.075.331C-505.868,416.337-504.875,415.1-504.86,413.837Z" transform="translate(521.028 -413.837)"/></clipPath><clipPath id="e"><path class="a" d="M-546.989,429.985l.1-7.813c0-.417.345-.8.963-1.154,1.328-.766,2.835-.768,4.72.364l-.1,7.813c-1.887-1.135-3.394-1.131-4.72-.364C-546.641,429.187-546.983,429.566-546.989,429.985Z" transform="translate(546.989 -420.482)"/></clipPath><clipPath id="f"><path class="a" d="M-522.568,430.771l-.1,7.811c.006-.477-.421-1.005-1.409-1.6-5.474-3.292-14.727.84-22.316-3.723-2.251-1.353-3.4-2.737-3.388-4.09l.1-7.811c-.017,1.353,1.137,2.735,3.388,4.09,7.589,4.563,16.842.431,22.316,3.723C-522.989,429.763-522.561,430.291-522.568,430.771Z" transform="translate(549.777 -421.358)"/></clipPath><clipPath id="g"><path class="a" d="M-525.626,425.8l-.1,7.813c-.015,1.225-.98,2.427-2.94,3.56-4.136,2.387-8.688,2.161-12.951-.4l.1-7.813c4.263,2.563,8.816,2.789,12.951.4C-526.606,428.228-525.641,427.024-525.626,425.8Z" transform="translate(541.614 -425.799)"/></clipPath></defs><g transform="translate(1 1)"><path class="b" d="M-480.889,401.688l-3.736,2.157-.048,3.987-4.272-1.493-5.279,3.047-.046,3.794a12.108,12.108,0,0,0-9.32,1.252c-2.031,1.173-3.011,2.435-2.99,3.719,0-.023-.015-.046-.015-.069l-.1,7.813c-.017,1.353,1.093,2.731,3.3,4.058l9.825,5.907-1.734,1-22.785-13.7-4.2,2.425-.078,6.292-6.156-2.693-6.144,3.545-.082,6.634a12.012,12.012,0,0,0-12.047.008c-1.985,1.145-2.911,2.364-2.869,3.608,0-.034-.023-.069-.023-.1l-.1,7.811c-.017,1.353,1.137,2.737,3.388,4.09a13.817,13.817,0,0,0,1.832.911c.069.029.136.075.207.1.147.061.3.1.444.153.255.094.511.186.768.266.1.029.2.071.3.1.176.05.352.086.528.13s.358.094.54.134c.075.017.151.04.228.057.235.048.469.082.7.122.166.027.331.061.494.084.042.006.084.017.126.023.216.029.429.044.645.067.255.029.513.063.769.084.04,0,.08.01.121.013.109.008.22.008.329.015.521.034,1.039.059,1.556.069.082,0,.165.01.249.01s.157,0,.237,0c.7.008,1.388.006,2.071,0l-.063,5.055,1.625.978a15.851,15.851,0,0,0,2,1c.08.033.159.086.239.117.224.09.45.157.674.234.153.052.3.111.454.157.059.017.117.044.176.061.32.092.639.172.959.237.094.021.188.034.283.05.063.013.126.023.189.034.109.017.216.04.323.057.243.034.486.061.727.08.14.01.279.013.419.019.044,0,.088.006.132.006l.157.008c.245,0,.49,0,.733-.01.2-.01.406-.029.611-.05l.119-.01c.029,0,.056,0,.086-.006q.531-.063,1.06-.176c.067-.015.132-.044.2-.061a11.985,11.985,0,0,0,1.158-.348c.186-.065.377-.113.563-.186a13.1,13.1,0,0,0,1.688-.812,10.214,10.214,0,0,0,1.351-.926c.021-.019.054-.036.075-.052a5.933,5.933,0,0,0,.72-.706l.029-.04c.023-.027.038-.055.059-.08a4.32,4.32,0,0,0,.293-.4,3.05,3.05,0,0,0,.22-.436l0,0,0,0a2.876,2.876,0,0,0,.13-.415,2.493,2.493,0,0,0,.054-.41l0-.086.057-4.523,4.274,3.541,3.859-2.228.071-5.733.995-.574,5.555,2.483,4.245-2.45.027-2.274,1.916,1.152,11.128-6.424.036-2.837.059.006c.075.013.151.029.226.04.247.036.494.061.744.082.182.015.364.019.548.025l.094,0,.082,0c.253.006.5,0,.756-.01s.494-.034.741-.061l.065,0,.04,0c.364-.044.729-.1,1.089-.18.075-.017.147-.048.22-.067a11.672,11.672,0,0,0,1.187-.356c.191-.065.381-.115.57-.189a13.155,13.155,0,0,0,1.709-.823,10.216,10.216,0,0,0,1.367-.938c.021-.017.054-.034.073-.05a6.079,6.079,0,0,0,.739-.722c.013-.015.021-.031.033-.046s.04-.059.063-.088a4.083,4.083,0,0,0,.3-.406,3.223,3.223,0,0,0,.23-.456,2.776,2.776,0,0,0,.134-.427,2.435,2.435,0,0,0,.059-.425l0-.09.065-5.187,5.706,3.432,3.782-2.184.059-4.827,5.172,1.807,4.322-2.5.1-7.811Zm6.519,27.5c-.117.13-.258.255-.4.383.14-.128.272-.255.39-.385Zm-4.835-1.929a.851.851,0,0,0-.046-.209A.851.851,0,0,1-479.205,427.264Zm-.245-.6a1.549,1.549,0,0,1,.151.23A1.392,1.392,0,0,0-479.45,426.665Zm-.111-.159a3.116,3.116,0,0,0-.293-.27A3.116,3.116,0,0,1-479.561,426.506ZM-480,426.1a6.264,6.264,0,0,0-.634-.429A6.264,6.264,0,0,1-480,426.1Zm-20.745-8.435.008-.027Zm.484-.637a3.532,3.532,0,0,1,.465-.316A3.4,3.4,0,0,0-500.266,417.027Zm-.285.281-.027.036ZM-506,419.753a3.925,3.925,0,0,0,.257.4A3.925,3.925,0,0,1-506,419.753Zm-.469-1.03a2.61,2.61,0,0,0,.1.429A2.61,2.61,0,0,1-506.469,418.723Zm1.751,2.431c-.136-.109-.224-.22-.346-.331C-504.942,420.934-504.854,421.045-504.718,421.154Zm-13.217,33.32-.08.075c.029-.025.05-.05.077-.078Zm-4.636-2.211a.876.876,0,0,0-.044-.2A.876.876,0,0,1-522.572,452.262Zm-.232-.586a1.713,1.713,0,0,1,.144.222A1.583,1.583,0,0,0-522.8,451.676Zm-1.173-.986a6.5,6.5,0,0,1,.626.423A6.5,6.5,0,0,0-523.977,450.69Zm.783.567a3.151,3.151,0,0,1,.279.26A3.151,3.151,0,0,0-523.194,451.257Zm-9.944-5.48.046-3.855,4.709,3.9C-529.993,445.731-531.591,445.754-533.138,445.777Zm-10.667-3.258.006-.027Zm.469-.626a3.358,3.358,0,0,1,.459-.314A3.358,3.358,0,0,0-543.336,441.893Zm-.278.276-.029.038Zm-5.436,2.408a4.019,4.019,0,0,0,.268.4A4.019,4.019,0,0,1-549.05,444.577Zm-.375-.6a2.643,2.643,0,0,1-.117-.421A2.643,2.643,0,0,0-549.425,443.974Zm1.336,1.667c.123.111.216.222.354.331l-.038-.025C-547.9,445.844-547.976,445.744-548.089,445.641Z" transform="translate(549.777 -401.688)"/><g class="c" transform="translate(55.457)"><g transform="translate(9.6 2.156)"><path class="d" d="M-502.713,412.278l-.1,7.812-15.9-9.56.1-7.812Z" transform="translate(518.709 -402.718)"/></g><g transform="translate(35.599 15.986)"><path class="e" d="M-501.875,409.322l-.1,7.812-4.321,2.5.1-7.812Z" transform="translate(506.293 -409.322)"/></g><g transform="translate(11.11 9.922)"><path class="f" d="M-493.4,414.984l-.1,7.812-24.489-8.558.1-7.812Z" transform="translate(517.988 -406.426)"/></g><g transform="translate(0.097)"><path class="g" d="M-509.912,401.688l26.585,15.986-4.321,2.495-24.489-8.558,19.257,11.579-3.781,2.183-26.585-15.986,5.278-3.047,20.221,7.065-15.9-9.56Z" transform="translate(523.247 -401.688)"/></g><g transform="translate(26.585 21.501)"><path class="e" d="M-506.719,411.956l-.1,7.812-3.781,2.183.1-7.812Z" transform="translate(510.597 -411.956)"/></g><g transform="translate(0 7.699)"><path class="d" d="M-496.611,421.35l-.1,7.812-26.586-15.986.1-7.812Z" transform="translate(523.293 -405.364)"/></g></g><g class="c" transform="translate(43.086 11.052)"><g class="c" transform="translate(5.8 3.409)"><g class="h"><g class="c" transform="translate(0 0)"><path class="i" d="M-523.034,409.283l-.1,7.813a7.487,7.487,0,0,0-1.026-.517l.1-7.811a7.23,7.23,0,0,1,1.026.515" transform="translate(528.92 -408.404)"/><path class="j" d="M-523.784,408.863l-.1,7.811c-.18-.071-.354-.132-.528-.182l.1-7.811c.174.05.348.111.528.182" transform="translate(528.644 -408.5)"/><path class="k" d="M-524.123,408.728l-.1,7.811c-.121-.034-.241-.065-.36-.088l.1-7.813c.119.025.239.055.36.09" transform="translate(528.456 -408.547)"/><path class="l" d="M-524.332,408.664l-.1,7.813c-.1-.021-.195-.038-.291-.052l.1-7.811c.1.013.193.029.291.05" transform="translate(528.304 -408.573)"/><path class="m" d="M-524.488,408.629l-.1,7.811c-.086-.013-.174-.021-.258-.027l.1-7.813c.086.006.172.017.258.029" transform="translate(528.169 -408.588)"/><path class="n" d="M-524.617,408.606l-.1,7.813c-.084-.006-.166-.01-.247-.013l.1-7.811c.082,0,.163,0,.247.01" transform="translate(528.04 -408.594)"/><path class="o" d="M-524.734,408.6l-.1,7.811c-.084,0-.168,0-.249,0l.1-7.813c.082,0,.165,0,.249,0" transform="translate(527.91 -408.594)"/><path class="p" d="M-524.838,408.6l-.1,7.813c-.094,0-.184.011-.276.023l.1-7.813c.092-.01.184-.019.276-.023" transform="translate(527.766 -408.593)"/><path class="q" d="M-524.931,408.607l-.1,7.813c-.117.012-.234.033-.352.056l.1-7.811c.117-.025.234-.044.352-.059" transform="translate(527.582 -408.581)"/><path class="r" d="M-524.394,408.635l-.1,7.811a4.225,4.225,0,0,0-1.212.475,3.474,3.474,0,0,0-.488.335l.1-7.813a3.511,3.511,0,0,1,.49-.333,4.129,4.129,0,0,1,1.21-.475" transform="translate(526.694 -408.55)"/><path class="q" d="M-525.97,409.021l-.1,7.813a1.959,1.959,0,0,0-.239.235l.1-7.813a1.969,1.969,0,0,1,.239-.234" transform="translate(526.569 -408.128)"/><path class="p" d="M-526.143,409.133l-.1,7.813a1.154,1.154,0,0,0-.126.174l.1-7.813a1.352,1.352,0,0,1,.126-.174" transform="translate(526.503 -408.005)"/><path class="o" d="M-526.229,409.216l-.1,7.813a1.076,1.076,0,0,0-.076.147l.1-7.813a1.2,1.2,0,0,1,.075-.147" transform="translate(526.464 -407.914)"/><path class="n" d="M-526.282,409.286l-.1,7.813a.76.76,0,0,0-.044.138l.1-7.813a1.156,1.156,0,0,1,.042-.138" transform="translate(526.441 -407.838)"/><path class="m" d="M-526.314,409.352l-.1,7.813q-.013.069-.019.138l.1-7.813a.785.785,0,0,1,.019-.138" transform="translate(526.431 -407.765)"/><path class="l" d="M-526.333,409.418l-.1,7.813v.029l.1-7.811,0-.031" transform="translate(526.431 -407.693)"/></g></g></g><g class="c" transform="translate(0 5.342)"><g class="s"><g class="c"><path class="i" d="M-525.8,413.575l-.1,7.813c-2.207-1.328-3.317-2.706-3.3-4.058l.1-7.813c-.017,1.353,1.093,2.733,3.3,4.058" transform="translate(529.201 -409.517)"/></g></g></g><g transform="translate(11.59 4.29)"><path class="d" d="M-509.2,417.653l-.1,7.812-14.366-8.638.1-7.812Z" transform="translate(523.666 -409.014)"/></g><g class="c" transform="translate(25.955 12.928)"><g class="t"><g class="c"><path class="i" d="M-515.267,414.775l-.1,7.813c.006-.49-.436-1.032-1.443-1.638l.1-7.811c1.007.605,1.449,1.145,1.443,1.635" transform="translate(516.806 -413.14)"/></g></g></g><g transform="translate(3.3 9.401)"><path class="d" d="M-513.714,419.762l-.1,7.812-13.814-8.306.1-7.812Z" transform="translate(527.625 -411.455)"/></g><g class="c" transform="translate(17.114 14.388)"><g class="u"><g class="c"><path class="l" d="M-513.256,413.837l-.1,7.811,0,.09.1-7.811,0-.09" transform="translate(529.423 -413.837)"/><path class="m" d="M-513.227,413.88l-.1,7.811a2.434,2.434,0,0,1-.059.425l.1-7.813a2.417,2.417,0,0,0,.059-.423" transform="translate(529.393 -413.79)"/><path class="n" d="M-513.216,414.082l-.1,7.813a2.786,2.786,0,0,1-.134.427l.1-7.811a2.524,2.524,0,0,0,.134-.429" transform="translate(529.323 -413.569)"/><path class="o" d="M-513.229,414.287l-.1,7.811a3.223,3.223,0,0,1-.23.456l.1-7.811a3.309,3.309,0,0,0,.23-.457" transform="translate(529.202 -413.345)"/><path class="p" d="M-513.255,414.505l-.1,7.811a4.3,4.3,0,0,1-.392.54l.1-7.811a4.378,4.378,0,0,0,.392-.54" transform="translate(528.998 -413.106)"/><path class="q" d="M-513.261,414.763l-.1,7.811a6.092,6.092,0,0,1-.739.722l.1-7.811a6.2,6.2,0,0,0,.737-.722" transform="translate(528.612 -412.824)"/><path class="r" d="M-511.319,415.108l-.1,7.811a10.159,10.159,0,0,1-1.443.988,12.615,12.615,0,0,1-3.683,1.434l.1-7.813a12.646,12.646,0,0,0,3.685-1.432,10.4,10.4,0,0,0,1.443-.988" transform="translate(525.934 -412.447)"/><path class="q" d="M-515.879,416.264l-.1,7.813c-.36.078-.724.138-1.089.18l.1-7.811c.364-.044.729-.1,1.089-.182" transform="translate(525.365 -411.182)"/><path class="p" d="M-516.526,416.351l-.1,7.811c-.281.033-.563.057-.846.069l.1-7.811c.283-.013.565-.036.846-.069" transform="translate(524.923 -411.087)"/><path class="o" d="M-516.977,416.384l-.1,7.811c-.251.013-.5.015-.756.01l.1-7.811c.253,0,.5,0,.756-.01" transform="translate(524.528 -411.051)"/><path class="n" d="M-517.354,416.408l-.1,7.811c-.241,0-.484-.015-.724-.033l.1-7.813c.241.019.484.031.725.036" transform="translate(524.149 -411.064)"/><path class="m" d="M-517.69,416.415l-.1,7.813c-.249-.021-.5-.048-.743-.082l.1-7.813c.247.036.5.063.743.082" transform="translate(523.761 -411.106)"/><path class="l" d="M-518.008,416.406l-.1,7.813c-.272-.038-.544-.086-.814-.142l.1-7.811c.27.057.542.1.814.14" transform="translate(523.335 -411.18)"/><path class="k" d="M-518.323,416.391l-.1,7.811c-.32-.067-.639-.147-.957-.239l.1-7.811c.318.092.637.172.957.239" transform="translate(522.835 -411.304)"/><path class="j" d="M-518.6,416.386l-.1,7.811a13.341,13.341,0,0,1-1.3-.446l.1-7.813a13.378,13.378,0,0,0,1.3.448" transform="translate(522.158 -411.539)"/><path class="i" d="M-518.769,416.5l-.1,7.813a15.217,15.217,0,0,1-2.163-1.08l.1-7.813a15.082,15.082,0,0,0,2.163,1.081" transform="translate(521.028 -412.103)"/></g></g></g><g transform="translate(0.098)"><path class="g" d="M-526.151,408.658a12.474,12.474,0,0,1,13.075.331l13.814,8.307c4.261,2.563,4.416,5.329.3,7.708a12.455,12.455,0,0,1-13.075-.331l-13.814-8.307C-530.117,413.8-530.286,411.047-526.151,408.658Zm22.95,11.237-14.365-8.64a4.434,4.434,0,0,0-4.8-.318c-1.344.775-1.441,1.7.444,2.831l14.367,8.64c1.9,1.143,3.455,1.1,4.8.318s1.455-1.688-.446-2.831" transform="translate(529.154 -406.966)"/></g></g><g class="c" transform="translate(27.399 21.475)"><g transform="translate(0.097)"><path class="g" d="M-532.449,411.943l22.783,13.7,6.93-4,3.8,2.286-11.128,6.424-26.585-15.986Z" transform="translate(536.647 -411.943)"/></g><g transform="translate(26.585 11.985)"><path class="e" d="M-512.772,417.667l-.1,7.812L-524,431.9l.1-7.812Z" transform="translate(523.997 -417.667)"/></g><g transform="translate(0 2.424)"><path class="d" d="M-510.011,429.086l-.1,7.812-26.585-15.986.1-7.812Z" transform="translate(536.693 -413.101)"/></g></g><g class="c" transform="translate(15.021 27.499)"><g transform="translate(7.562 4.727)"><path class="v" d="M-523.413,423.986l-.1,7.812-15.483-6.909.1-7.812Z" transform="translate(538.992 -417.078)"/></g><g transform="translate(32.774 13.508)"><path class="e" d="M-522.611,421.271l-.1,7.812-4.244,2.451.1-7.812Z" transform="translate(526.952 -421.271)"/></g><g transform="translate(27.219 13.473)"><path class="v" d="M-523.953,423.739l-.1,7.812-5.555-2.485.1-7.812Z" transform="translate(529.605 -421.254)"/></g><g transform="translate(22.049 13.473)"><path class="e" d="M-526.807,421.254l-.1,7.812-5.17,2.985.1-7.812Z" transform="translate(532.074 -421.254)"/></g><g transform="translate(0.096)"><path class="g" d="M-536.414,414.82l30.876,13.508-4.245,2.45-5.555-2.486-5.17,2.986,4.1,3.321-3.859,2.228-22.295-18.463Zm12.842,13.979,4.06-2.343-15.483-6.908,11.423,9.251" transform="translate(542.558 -414.82)"/></g><g transform="translate(22.295 19.781)"><path class="e" d="M-528,424.266l-.1,7.812-3.858,2.228.1-7.812Z" transform="translate(531.957 -424.266)"/></g><g transform="translate(0 3.546)"><path class="w" d="M-520.212,434.976l-.1,7.812L-542.6,424.325l.1-7.812Z" transform="translate(542.604 -416.513)"/></g></g><g class="c" transform="translate(0 36.049)"><g transform="translate(12.627 2.572)"><path class="e" d="M-539.668,420.131l-.1,7.812-3.982,2.3.1-7.812Z" transform="translate(543.747 -420.131)"/></g><g transform="translate(11.523 4.207)"><path class="d" d="M-543.073,421.576l-.1,7.812-1.1-.664.1-7.812Z" transform="translate(544.274 -420.912)"/></g><g class="c" transform="translate(5.838 3.305)"><g class="x"><g class="c" transform="translate(0 0)"><path class="i" d="M-543.613,421.2l-.1,7.813a7.363,7.363,0,0,0-1.081-.545l.1-7.811a7.634,7.634,0,0,1,1.078.542" transform="translate(549.395 -420.294)"/><path class="j" d="M-544.417,420.748l-.1,7.811c-.178-.071-.354-.132-.526-.182l.1-7.811a5.467,5.467,0,0,1,.528.182" transform="translate(549.12 -420.389)"/><path class="k" d="M-544.762,420.612l-.1,7.811c-.117-.034-.235-.063-.35-.086l.1-7.813c.115.025.232.054.35.088" transform="translate(548.937 -420.435)"/><path class="l" d="M-544.964,420.549l-.1,7.813c-.094-.021-.191-.036-.283-.05l.1-7.811c.094.013.188.029.283.048" transform="translate(548.79 -420.46)"/><path class="m" d="M-545.115,420.515l-.1,7.811c-.084-.01-.167-.021-.251-.027l.1-7.811c.084.006.167.015.251.027" transform="translate(548.659 -420.475)"/><path class="n" d="M-545.244,420.495l-.1,7.811c-.08-.006-.157-.01-.234-.01l.1-7.813c.077,0,.157.006.235.013" transform="translate(548.536 -420.481)"/><path class="o" d="M-545.354,420.482l-.1,7.813c-.082,0-.161,0-.239,0l.1-7.811c.08,0,.159-.006.239,0" transform="translate(548.411 -420.482)"/><path class="p" d="M-545.457,420.484l-.1,7.811c-.088,0-.174.013-.26.021l.1-7.811c.086-.01.172-.017.26-.021" transform="translate(548.276 -420.479)"/><path class="q" d="M-545.539,420.494l-.1,7.811c-.115.015-.226.033-.339.057l.1-7.811a2.952,2.952,0,0,1,.337-.057" transform="translate(548.098 -420.468)"/><path class="r" d="M-545.02,420.521l-.1,7.811a3.983,3.983,0,0,0-1.158.456,3.268,3.268,0,0,0-.482.329l.1-7.813a3.442,3.442,0,0,1,.482-.329,3.966,3.966,0,0,1,1.16-.454" transform="translate(547.242 -420.439)"/><path class="q" d="M-546.541,420.9l-.1,7.813a1.968,1.968,0,0,0-.23.224l.1-7.811a1.962,1.962,0,0,1,.23-.226" transform="translate(547.122 -420.029)"/><path class="p" d="M-546.708,421l-.1,7.811a1.264,1.264,0,0,0-.122.167l.1-7.813a1.461,1.461,0,0,1,.121-.165" transform="translate(547.058 -419.911)"/><path class="o" d="M-546.792,421.082l-.1,7.813a1,1,0,0,0-.071.14l.1-7.813a1.463,1.463,0,0,1,.071-.14" transform="translate(547.021 -419.825)"/><path class="n" d="M-546.843,421.149l-.1,7.813a.8.8,0,0,0-.04.132l.1-7.813a.782.782,0,0,1,.04-.132" transform="translate(547 -419.751)"/><path class="m" d="M-546.873,421.212l-.1,7.813a.692.692,0,0,0-.019.132l.1-7.813a.716.716,0,0,1,.019-.132" transform="translate(546.99 -419.683)"/><path class="l" d="M-546.891,421.275l-.1,7.813,0,.029.1-7.813v-.029" transform="translate(546.989 -419.614)"/></g></g></g><g class="c" transform="translate(0 5.14)"><g class="y"><g class="c"><path class="i" d="M-535.42,426.975l-.1,7.811c.006-.477-.421-1.005-1.409-1.6a7.832,7.832,0,0,0-1.1-.549l.1-7.811a7.635,7.635,0,0,1,1.1.549c.988.593,1.416,1.12,1.409,1.6" transform="translate(562.629 -417.563)"/><path class="j" d="M-537.46,424.99l-.1,7.811q-.44-.176-.9-.31l.1-7.813a9.216,9.216,0,0,1,.9.312" transform="translate(562.157 -417.726)"/><path class="k" d="M-537.928,424.785l-.1,7.813c-.272-.08-.553-.149-.836-.207l.1-7.811c.285.059.563.128.836.205" transform="translate(561.72 -417.833)"/><path class="l" d="M-538.3,424.661l-.1,7.811c-.293-.061-.591-.111-.894-.153l.1-7.813c.3.044.6.094.894.155" transform="translate(561.253 -417.914)"/><path class="m" d="M-538.608,424.568l-.1,7.813q-.547-.075-1.116-.119l.1-7.813c.379.029.752.069,1.116.119" transform="translate(560.67 -417.976)"/><path class="n" d="M-538.816,424.488l-.1,7.813c-.563-.044-1.145-.067-1.738-.077l.1-7.811c.595.01,1.175.031,1.738.075" transform="translate(559.762 -418.016)"/><path class="o" d="M-537.477,424.416l-.1,7.811c-1.868-.029-3.859.067-5.888.031l.1-7.811c2.029.034,4.021-.063,5.888-.031" transform="translate(556.686 -418.019)"/><path class="n" d="M-542.251,424.477l-.1,7.811c-.71-.01-1.422-.04-2.134-.094l.1-7.811c.712.054,1.426.082,2.134.094" transform="translate(555.571 -418.049)"/><path class="m" d="M-543.583,424.469l-.1,7.811c-.513-.04-1.024-.092-1.535-.163l.1-7.813c.511.071,1.024.126,1.535.165" transform="translate(554.769 -418.135)"/><path class="l" d="M-544.426,424.423l-.1,7.813q-.663-.094-1.323-.228l.1-7.813q.66.138,1.323.228" transform="translate(554.078 -418.254)"/><path class="k" d="M-545.072,424.362l-.1,7.813c-.433-.09-.867-.2-1.3-.32l.1-7.813c.429.126.863.23,1.3.32" transform="translate(553.4 -418.422)"/><path class="j" d="M-545.581,424.312l-.1,7.813a15.686,15.686,0,0,1-1.508-.519l.1-7.811a15.083,15.083,0,0,0,1.508.517" transform="translate(552.613 -418.692)"/><path class="i" d="M-544.253,426.461l-.1,7.811a14.1,14.1,0,0,1-2.04-1.014c-2.251-1.353-3.4-2.737-3.388-4.09l.1-7.811c-.017,1.353,1.137,2.735,3.388,4.09a14.316,14.316,0,0,0,2.04,1.013" transform="translate(549.777 -421.358)"/></g></g></g><g transform="translate(15.469 16.62)"><path class="d" d="M-540.668,427.818l-.1,7.812-1.625-.977.1-7.812Z" transform="translate(542.39 -426.841)"/></g><g class="c" transform="translate(17.093 14.439)"><g class="z"><g class="c"><path class="l" d="M-533.927,425.8l-.1,7.813,0,.086.1-7.811,0-.088" transform="translate(549.914 -425.799)"/><path class="m" d="M-533.9,425.841l-.1,7.811a2.484,2.484,0,0,1-.054.41l.1-7.811a2.747,2.747,0,0,0,.057-.41" transform="translate(549.886 -425.753)"/><path class="n" d="M-533.889,426.037l-.1,7.811a2.866,2.866,0,0,1-.13.415l.1-7.813a2.756,2.756,0,0,0,.13-.413" transform="translate(549.818 -425.539)"/><path class="o" d="M-533.9,426.234l-.1,7.813a3.374,3.374,0,0,1-.224.442l.1-7.813a3.034,3.034,0,0,0,.224-.442" transform="translate(549.701 -425.323)"/><path class="p" d="M-533.927,426.445l-.1,7.813a3.994,3.994,0,0,1-.381.523l.1-7.811a4,4,0,0,0,.381-.526" transform="translate(549.502 -425.092)"/><path class="q" d="M-533.931,426.7l-.1,7.811a5.915,5.915,0,0,1-.72.706l.1-7.813a5.9,5.9,0,0,0,.718-.7" transform="translate(549.126 -424.818)"/><path class="r" d="M-532.02,427.032l-.1,7.813a10.269,10.269,0,0,1-1.426.978,12.424,12.424,0,0,1-3.608,1.407l.1-7.811a12.433,12.433,0,0,0,3.608-1.409,10.245,10.245,0,0,0,1.428-.978" transform="translate(546.495 -424.45)"/><path class="q" d="M-536.5,428.172l-.1,7.811q-.528.113-1.06.176l.1-7.811c.354-.042.708-.1,1.06-.176" transform="translate(545.942 -423.203)"/><path class="p" d="M-537.135,428.256l-.1,7.811c-.272.031-.545.054-.817.067l.1-7.811c.272-.013.544-.036.817-.067" transform="translate(545.515 -423.111)"/><path class="o" d="M-537.569,428.288l-.1,7.811c-.243.011-.488.015-.733.011l.1-7.813c.245.006.49,0,.733-.008" transform="translate(545.132 -423.076)"/><path class="n" d="M-537.932,428.31l-.1,7.813c-.234,0-.471-.015-.708-.034l.1-7.813c.237.019.473.029.708.034" transform="translate(544.763 -423.089)"/><path class="m" d="M-538.26,428.318l-.1,7.813c-.241-.019-.484-.046-.727-.08l.1-7.813c.241.034.484.061.725.08" transform="translate(544.383 -423.131)"/><path class="l" d="M-538.57,428.31l-.1,7.813c-.264-.038-.53-.084-.794-.138l.1-7.813c.264.054.53.1.8.138" transform="translate(543.968 -423.203)"/><path class="k" d="M-538.865,428.3l-.1,7.813c-.32-.067-.639-.147-.959-.239l.1-7.813c.318.092.637.172.957.239" transform="translate(543.467 -423.328)"/><path class="j" d="M-539.14,428.293l-.1,7.813a13.767,13.767,0,0,1-1.3-.452l.1-7.811a13.614,13.614,0,0,0,1.307.45" transform="translate(542.786 -423.563)"/><path class="i" d="M-539.275,428.429l-.1,7.811a15.788,15.788,0,0,1-2.243-1.12l.1-7.813a15.8,15.8,0,0,0,2.243,1.122" transform="translate(541.614 -424.149)"/></g></g></g><g transform="translate(0.097)"><path class="g" d="M-546.84,420.54c4.09-2.362,8.627-2.125,12.889.438l.829.5-3.983,2.3-1.1-.664c-1.885-1.133-3.392-1.131-4.72-.364-1.344.775-1.38,1.665.507,2.8,5.474,3.292,14.727-.84,22.316,3.723,4.263,2.563,4.54,5.258.419,7.637s-8.688,2.161-12.951-.4l-1.625-.978,3.966-2.289,1.9,1.143a4.351,4.351,0,0,0,4.753.291c1.342-.775,1.516-1.671-.385-2.812-5.474-3.292-14.727.84-22.316-3.723C-550.6,425.57-550.929,422.9-546.84,420.54Z" transform="translate(549.731 -418.903)"/></g></g></g></svg>