<svg xmlns="http://www.w3.org/2000/svg" xmlns:xlink="http://www.w3.org/1999/xlink" width="143.659" height="91.104" viewBox="0 0 143.659 91.104"><defs><style>.a,.b{fill:none;}.b{stroke:#490c5a;stroke-linejoin:round;stroke-width:2px;}.c{isolation:isolate;}.d{fill:#622378;}.e{fill:#fff;}.f{clip-path:url(#a);}.g{fill:#5d1f72;}.h{fill:#5b1d70;}.i{fill:#591c6d;}.j{fill:#571a6a;}.k{fill:#551868;}.l{fill:#531666;}.m{fill:#511463;}.n{fill:#4f1361;}.o{fill:#4d115f;}.p{fill:#4b0e5c;}.q{fill:#490c5a;}.r{fill:#4a0e5c;}.s{fill:#602176;}.t{clip-path:url(#b);}.u{clip-path:url(#c);}.v{clip-path:url(#d);}.w{fill:#612277;}.x{clip-path:url(#e);}.y{clip-path:url(#f);}.z{clip-path:url(#g);}.aa{clip-path:url(#h);}.ab{clip-path:url(#i);}</style><clipPath id="a"><path class="a" d="M104.183,318.907l-.023,7.882c-5.321,3.091-9.557,2.228-12.736.392a21.348,21.348,0,0,1-1.945-1.212l.023-7.882a21.331,21.331,0,0,0,1.945,1.212C94.626,321.135,98.862,322,104.183,318.907Z" transform="translate(-89.479 -318.086)"/></clipPath><clipPath id="b"><path class="a" d="M117.175,322.054l-.023,7.884c0-.425-.358-.815-1-1.183l.023-7.882C116.815,321.242,117.177,321.631,117.175,322.054Z" transform="translate(-116.155 -320.873)"/></clipPath><clipPath id="c"><path class="a" d="M121.206,321.561l-.023,7.882c0,1.284-1.129,2.574-3.317,3.845l.023-7.882C120.075,324.135,121.2,322.845,121.206,321.561Z" transform="translate(-117.866 -321.561)"/></clipPath><clipPath id="d"><path class="a" d="M118.184,327.129l-.021,7.882a12.155,12.155,0,0,1-12.859.2l.021-7.884A12.15,12.15,0,0,0,118.184,327.129Z" transform="translate(-105.304 -327.129)"/></clipPath><clipPath id="e"><path class="a" d="M91.366,324.955l-.023,7.882c0-.415-.343-.8-.97-1.156-1.326-.766-2.819-.794-4.72.312a4.054,4.054,0,0,0-2.264,3.9l.021-7.882a4.054,4.054,0,0,1,2.266-3.9c1.9-1.106,3.392-1.078,4.72-.312C91.023,324.16,91.366,324.541,91.366,324.955Z" transform="translate(-83.39 -323.249)"/></clipPath><clipPath id="f"><path class="a" d="M91.658,324.1l-.023,7.882c0,1.321-1.156,2.659-3.382,3.953l.021-7.884C90.5,326.76,91.654,325.422,91.658,324.1Z" transform="translate(-88.253 -324.101)"/></clipPath><clipPath id="g"><path class="a" d="M80.725,328.546l-.021,7.882c0-1.011-.174-2.086-.172-3.179l.023-7.882C80.551,326.46,80.729,327.534,80.725,328.546Z" transform="translate(-80.532 -325.367)"/></clipPath><clipPath id="h"><path class="a" d="M76.774,336.992l.021-7.882c0-.471.438-.984,1.428-1.56l-.023,7.882C77.212,336.008,76.774,336.523,76.774,336.992Z" transform="translate(-76.774 -327.55)"/></clipPath><clipPath id="i"><path class="a" d="M93.778,327.061l-.023,7.882c0,1.95-.588,3.964-3.778,5.819a12.461,12.461,0,0,1-12.966.258c-1.977-1.141-2.938-2.345-2.936-3.562l.023-7.882c0,1.217.957,2.421,2.934,3.562A12.469,12.469,0,0,0,90,332.88C93.19,331.025,93.772,329.011,93.778,327.061Z" transform="translate(-74.076 -327.061)"/></clipPath></defs><g transform="translate(1 1)"><path class="b" d="M92.989,334.849c.071.029.134.071.207.1.174.069.358.121.536.182.13.044.258.092.389.132.057.019.107.04.163.057.264.075.534.142.808.2.09.019.184.031.274.048l.155.027c.084.015.168.031.251.044.207.029.417.052.628.071.186.015.377.023.567.029l.029,0h.021c.214.006.427,0,.645,0,.241-.008.484-.025.731-.05.052,0,.107-.015.159-.021s.136-.021.205-.029c.18-.023.36-.044.544-.077l-.008,2.984,3.874,2.236,5.555-2.389,1.066.616-.017,5.587,4.245,2.45,1.954-1.566-.008,2.689,6.653,3.842a14.2,14.2,0,0,0,1.746.846c.042.017.084.044.128.061.379.151.762.281,1.143.389.038.01.077.017.115.027.054.015.107.027.161.04.193.05.385.1.58.145.239.048.477.09.716.124.052.008.1.011.155.019l.121.013c.128.015.258.033.387.044.216.017.431.029.647.034.149,0,.3,0,.444,0h.228c.251-.008.5-.025.752-.05.188-.019.377-.052.565-.08.071-.01.142-.019.211-.031.05-.008.1-.01.151-.021.214-.038.427-.111.641-.161.3-.069.591-.132.884-.224.042-.013.086-.019.128-.031.3-.1.6-.228.9-.35.063-.025.124-.042.186-.069l-.017,5.614,5.771,3.334,3.066-1.436-.008,3.2L148,366.667l3.4-1.583-.01,3.543,3.859,2.226,5.555-2.387,1.081.624-.015,5.587,4.245,2.45,1.952-1.568-.008,2.691,11.127,6.424,3.8-2.209.023-7.882-3.8,2.209-.136-.077v0l.134.077,3.8-2.209-.132-.077,15.969-9.281.023-7.873.008,0-4.213-2.431-6.249,3.631.021-7.228-6.144-3.545-4.72,1.983.013-4.7-3.673-2.121-4.289,2.027.013-4.5-4.058-2.343-4.288,2.056.013-4.523-4.09-2.362-4.971,3.616.013-4.636c0,.019-.013.036-.013.054.034-1.229-.949-2.452-3.024-3.65l-6.651-3.84-6.24,3.625.019-7.216-6.156-3.556-6.052,2.542.017-6.027-4.213-2.433L99.662,323.56a4.49,4.49,0,0,1-4.938.08c-.463-.266-.988-.57-1.42-.854l-3.8,2.209-.023,7.882a21.361,21.361,0,0,0,1.945,1.212A13.686,13.686,0,0,0,92.989,334.849Zm57.531.186-.031.025c.084-.067.145-.136.224-.2C150.643,334.916,150.592,334.977,150.519,335.035Zm1.537-1.834-.031.067a2.507,2.507,0,0,0,.1-.4A2.728,2.728,0,0,1,152.056,333.2Zm-.406.649c-.067.094-.107.188-.186.283l-.031.033C151.522,334.062,151.574,333.955,151.65,333.85Zm-5.308-1.878a.932.932,0,0,0-.237-.561A.932.932,0,0,1,146.342,331.972Zm-.276-.6a2.88,2.88,0,0,0-.7-.545A2.88,2.88,0,0,1,146.065,331.375Z" transform="translate(-57.225 -311.771)"/><path class="b" d="M77.012,346.957a13.154,13.154,0,0,0,1.671.81c.029.01.059.029.088.042q.562.223,1.135.385c.065.019.132.031.2.048s.138.036.207.052c.153.038.306.082.461.113.245.05.49.094.737.128.08.013.159.019.239.027l.138.017c.1.01.2.025.306.033.224.019.448.029.672.036.178,0,.358,0,.536,0h.084c.029,0,.057,0,.084,0,.262-.008.526-.025.787-.052.2-.019.4-.054.6-.084.075-.01.149-.019.224-.031.048-.008.1-.013.149-.021.205-.038.408-.107.614-.155l.077-.019-.008,3.514,4.2,2.423,4.8-2.789-.017,5.551,4.276,2.469,1.95-1.133-.006,2.255,3.859,2.228,5.555-2.387,1.083.624-.017,5.587,4.245,2.45,1.952-1.57-.006,2.693,11.128,6.424.727-.423,0,.842,3.859,2.228,5.555-2.389,1.08.626-.015,5.585,4.228,2.442,3.688-2.961-.015,5.082,4.213,2.433,22.787-13.243,4.383,2.532,3.8-2.209.021-7.873.008,0-.008,0v0l-13-7.5-3.556,2.067.01-4.117-6.156-3.556-27.792,11.689,0-1.334-3.8,2.209-.136-.08h0l.134.077,3.8-2.211-.132-.075,15.971-9.281.021-7.873.008,0-4.213-2.433-6.248,3.633.021-7.228-6.144-3.547-6.253,2.628.019-6.228-4.276-2.469-4.8,2.791.015-5.553-4.2-2.423-5.465,3.174.015-4.837c0,.029-.019.061-.021.09.052-1.229-.871-2.444-2.865-3.6-4.092-2.362-8.627-2.157-12.876.312-3.258,1.893-3.8,3.953-3.784,5.943,0-.033,0-.065,0-.1l-.013,4.582a4.056,4.056,0,0,1-2.079,2.5,5.509,5.509,0,0,1-2.463.808l.013-4.425-3.983-2.3-1.642.953C74.989,333,73.9,334.5,74.189,335.963a2.286,2.286,0,0,1-.09-.45l-.023,7.882C74.074,344.612,75.035,345.816,77.012,346.957Zm89.5,22.134-5.779,3.359,5.782-4.644Zm-16.35,11.848,0,0,2.19,1.265,15.965-9.283,0,0L152.348,382.2Zm29.358-9.446-.036-.021.036.021Zm-4.383-2.532-4.228,2.456v0l4.222-2.454Zm-79.442-35.1c.054-.034.1-.067.153-.1a7.023,7.023,0,0,1,1.369-.626,4.6,4.6,0,0,1,1.2-.23h.017a3.78,3.78,0,0,1,.538.054l-.01,3.445-5.193,3.017.01-3.2c.021-.075.038-.153.063-.228s.065-.159.1-.239.071-.17.115-.251.1-.165.153-.247.094-.153.151-.226.117-.14.178-.209c.08-.09.161-.182.253-.272.052-.05.115-.1.172-.149A5.747,5.747,0,0,1,95.69,333.861Zm9.7-4.211-.05.042c.088-.071.151-.142.235-.214C105.5,329.535,105.455,329.593,105.385,329.65Zm-11.01-2.5-.031.033.038-.044Zm-.421.727-.034.069c.019-.044.04-.088.059-.132Zm-.226.687c-.006.027-.017.052-.021.078.006-.031.019-.063.027-.1Zm-.117.959.006-.176Zm-.195,5.7c-.01.027-.025.052-.036.08.063-.163.1-.325.151-.488C93.494,334.946,93.466,335.082,93.416,335.218Zm-.341.737c-.029.054-.073.107-.1.159a5.653,5.653,0,0,0,.285-.544C93.2,335.7,93.148,335.827,93.075,335.955Zm-.484.727c-.023.029-.059.059-.082.088-.04.048-.092.1-.134.144.142-.165.276-.331.394-.5C92.706,336.5,92.66,336.594,92.591,336.682Zm-.7.758c-.121.113-.27.226-.4.337.2-.165.385-.331.551-.5C91.982,337.333,91.944,337.387,91.888,337.44Zm-10.935-3.273c-.142.09-.291.18-.406.268.117-.09.27-.182.417-.274Zm-.586.427,0,0,.031-.027Zm-.519.6.015-.029Zm27.111-7.436-.04.084-.013.017a2.355,2.355,0,0,0,.119-.413A2.864,2.864,0,0,1,106.958,327.759Zm-.429.685c-.065.094-.1.186-.18.281-.015.019-.036.038-.052.057A4.042,4.042,0,0,0,106.529,328.444Zm-4.994-1.769a.9.9,0,0,0-.224-.536A.9.9,0,0,1,101.535,326.674Zm-.27-.582a2.752,2.752,0,0,0-.678-.526A2.752,2.752,0,0,1,101.264,326.092Zm-6.19.341c-.034.027-.065.057-.1.086l-.044.031C94.976,326.511,95.026,326.473,95.075,326.434Zm-3.9,11.6c-.031.023-.054.05-.088.073s-.05.031-.073.048a11.727,11.727,0,0,1-1.009.66A11.823,11.823,0,0,0,91.171,338.036Zm-3.47-6.988c.04.484.071.957.077,1.42C87.773,332,87.741,331.532,87.7,331.049Zm-7.528,3.715-.027.027-.04.036C80.126,334.805,80.153,334.784,80.174,334.763Zm-.421.752,0,.021Zm-4.033,2.674a10.744,10.744,0,0,0,1.313.886A10.744,10.744,0,0,1,75.72,338.189Zm-.312-.3a5.511,5.511,0,0,1-.607-.6A5.511,5.511,0,0,0,75.408,337.886Zm-.831-.972a3.321,3.321,0,0,1-.31-.551A3.321,3.321,0,0,0,74.576,336.914Z" transform="translate(-74.076 -300.981)"/><g transform="translate(0)"><g class="c" transform="translate(32.254)"><g transform="translate(14.681 2.433)"><path class="d" d="M116.492,312.933l-.022,7.882L96.49,332.426l.022-7.882Z" transform="translate(-96.49 -312.933)"/></g><g transform="translate(0.023)"><path class="e" d="M124.15,314.2l-19.979,11.611c-5.321,3.091-9.557,2.228-12.736.392a21.345,21.345,0,0,1-1.945-1.212l3.8-2.209c.431.285.957.588,1.42.854a4.49,4.49,0,0,0,4.938-.08l20.287-11.789Z" transform="translate(-89.49 -311.771)"/></g><g class="c" transform="translate(0 13.224)"><g class="f"><g class="c"><path class="g" d="M98.176,318.478l-.023,7.882A16.353,16.353,0,0,1,94.97,327.8l.021-7.882a16.371,16.371,0,0,0,3.185-1.443" transform="translate(-83.472 -317.657)"/><path class="h" d="M95.852,319.167l-.021,7.882a13.107,13.107,0,0,1-1.648.419l.021-7.882a12.964,12.964,0,0,0,1.648-.419" transform="translate(-84.333 -316.903)"/><path class="i" d="M94.692,319.367l-.021,7.882c-.316.056-.628.1-.934.132l.023-7.884c.306-.029.618-.073.932-.13" transform="translate(-84.821 -316.685)"/><path class="j" d="M94.142,319.429l-.023,7.884c-.247.023-.49.04-.731.048l.023-7.882c.241-.008.484-.025.731-.05" transform="translate(-85.203 -316.617)"/><path class="k" d="M93.748,319.453l-.023,7.882c-.218.006-.431.008-.645,0l.023-7.882c.211.006.427,0,.645,0" transform="translate(-85.54 -316.591)"/><path class="l" d="M93.426,319.472l-.023,7.882c-.207,0-.415-.015-.618-.034l.023-7.882c.2.017.408.029.618.034" transform="translate(-85.862 -316.607)"/><path class="m" d="M93.136,319.474l-.023,7.882q-.317-.025-.628-.069l.023-7.882q.311.044.628.069" transform="translate(-86.19 -316.643)"/><path class="n" d="M92.864,319.467l-.023,7.882c-.23-.033-.456-.073-.681-.119l.021-7.882c.224.046.452.086.683.119" transform="translate(-86.546 -316.705)"/><path class="o" d="M92.6,319.452l-.021,7.882c-.274-.057-.544-.124-.808-.2l.023-7.882c.264.075.532.142.806.2" transform="translate(-86.968 -316.809)"/><path class="p" d="M92.367,319.447l-.023,7.882c-.375-.107-.737-.232-1.091-.371l.023-7.882c.354.138.716.264,1.091.371" transform="translate(-87.538 -317.003)"/><path class="q" d="M93.217,320.159l-.023,7.882a13.437,13.437,0,0,1-1.769-.861,21.348,21.348,0,0,1-1.945-1.212l.023-7.882a21.331,21.331,0,0,0,1.945,1.212,13.427,13.427,0,0,0,1.769.861" transform="translate(-89.479 -318.086)"/></g></g></g></g><g class="c" transform="translate(42.07 5.918)"><g transform="translate(13.557 4.393)"><path class="d" d="M116.148,316.695l-.022,7.882-15.485,6.638.022-7.882Z" transform="translate(-100.641 -316.695)"/></g><g transform="translate(3.874 12.822)"><path class="d" d="M101.594,320.72l-.022,7.882-5.555,2.388.022-7.882Z" transform="translate(-96.017 -320.72)"/></g><g transform="translate(0 12.974)"><path class="r" d="M98.063,323.029l-.022,7.882-3.874-2.237.022-7.882Z" transform="translate(-94.167 -320.793)"/></g><g transform="translate(9.429 12.822)"><path class="r" d="M103.847,323.7l-.022,7.882L98.67,328.6l.022-7.882Z" transform="translate(-98.67 -320.72)"/></g><g transform="translate(0.023)"><path class="e" d="M131.212,318.153,108.9,336.071l-4.245-2.45,4.1-3.225-5.155-2.978-5.555,2.389-3.872-2.236L125.056,314.6Zm-23.478,7.475,4.058,2.343,11.427-8.981-15.485,6.638" transform="translate(-94.178 -314.597)"/></g><g transform="translate(14.724 3.555)"><path class="s" d="M123.533,316.295l-.022,7.882L101.2,342.1l.022-7.882Z" transform="translate(-101.198 -316.295)"/></g><g transform="translate(10.479 19.024)"><path class="r" d="M103.438,326.132l-.022,7.882-4.244-2.45.022-7.882Z" transform="translate(-99.171 -323.682)"/></g></g><g class="c" transform="translate(58.739 13.064)"><g transform="translate(27.014 4.633)"><path class="r" d="M117.411,321.586l-.022,7.882-2.361-1.363.022-7.882Z" transform="translate(-115.028 -320.222)"/></g><g class="c" transform="translate(29.375 5.995)"><g class="t"><g class="c"><path class="q" d="M117.175,322.054l-.023,7.884c0-.425-.358-.815-1-1.183l.023-7.882c.637.369,1,.758,1,1.181" transform="translate(-116.155 -320.873)"/></g></g></g><g class="c" transform="translate(32.958 7.436)"><g class="u"><g class="c"><path class="n" d="M119.473,321.561l-.023,7.882v.056l.023-7.882v-.057" transform="translate(-116.133 -321.561)"/><path class="m" d="M119.5,321.588l-.023,7.882a2.335,2.335,0,0,1-.044.381l.023-7.882a2.362,2.362,0,0,0,.044-.381" transform="translate(-116.156 -321.532)"/><path class="l" d="M119.511,321.77l-.023,7.882a2.277,2.277,0,0,1-.113.389l.023-7.882a2.73,2.73,0,0,0,.113-.389" transform="translate(-116.215 -321.332)"/><path class="k" d="M119.5,321.956l-.023,7.882a2.859,2.859,0,0,1-.2.423l.023-7.882a2.948,2.948,0,0,0,.2-.423" transform="translate(-116.319 -321.129)"/><path class="j" d="M119.481,322.158l-.023,7.882a3.632,3.632,0,0,1-.341.5l.023-7.882a3.81,3.81,0,0,0,.341-.5" transform="translate(-116.497 -320.908)"/><path class="i" d="M119.463,322.4l-.023,7.882a5.583,5.583,0,0,1-.618.662l.023-7.882a5.771,5.771,0,0,0,.618-.662" transform="translate(-116.82 -320.644)"/><path class="h" d="M119.769,322.715l-.023,7.882a10.925,10.925,0,0,1-1.769,1.292l.021-7.882a11.043,11.043,0,0,0,1.772-1.292" transform="translate(-117.745 -320.299)"/><path class="g" d="M118.119,323.332l-.021,7.882-.232.136.023-7.882.23-.136" transform="translate(-117.866 -319.624)"/></g></g></g><g transform="translate(8.016 4.633)"><path class="d" d="M124.975,320.222l-.022,7.882-19,11.04.022-7.882Z" transform="translate(-105.955 -320.222)"/></g><g transform="translate(19.511 11.28)"><path class="d" d="M124.914,323.4l-.022,7.882-13.447,7.815.022-7.882Z" transform="translate(-111.445 -323.397)"/></g><g transform="translate(0 15.45)"><path class="r" d="M108.8,329.229l-.022,7.882-6.652-3.84.022-7.882Z" transform="translate(-102.127 -325.388)"/></g><g transform="translate(0.023)"><path class="e" d="M135.376,321.85c4.215,2.431,3.968,4.971-.281,7.44l-13.448,7.815a12.15,12.15,0,0,1-12.859.195l-6.651-3.84,26.587-15.449Zm-18.14,12.937,13.831-8.037c1.9-1.106,1.788-1.968.446-2.745l-2.362-1.363-19,11.042,2.36,1.363a4.362,4.362,0,0,0,4.722-.26" transform="translate(-102.138 -318.01)"/></g><g class="c" transform="translate(6.653 19.095)"><g class="v"><g class="c"><path class="g" d="M113.01,327.129l-.021,7.882a15.236,15.236,0,0,1-2.955,1.336l.023-7.882a15.164,15.164,0,0,0,2.953-1.336" transform="translate(-100.129 -327.129)"/><path class="h" d="M110.92,327.767l-.023,7.882a12.557,12.557,0,0,1-1.652.417l.021-7.882a12.5,12.5,0,0,0,1.654-.417" transform="translate(-100.993 -326.431)"/><path class="i" d="M109.751,327.966l-.021,7.882c-.31.056-.618.1-.928.132l.023-7.882c.308-.031.618-.075.926-.132" transform="translate(-101.477 -326.213)"/><path class="j" d="M109.218,328.029l-.023,7.882c-.251.025-.5.042-.752.05l.023-7.882c.249-.008.5-.025.752-.05" transform="translate(-101.87 -326.144)"/><path class="k" d="M108.817,328.053l-.023,7.882c-.224.008-.448.008-.672,0l.023-7.882c.224.006.448,0,.672,0" transform="translate(-102.221 -326.118)"/><path class="l" d="M108.483,328.072l-.023,7.882c-.216,0-.431-.017-.647-.034l.021-7.882c.216.017.431.029.649.033" transform="translate(-102.559 -326.135)"/><path class="m" d="M108.181,328.077l-.021,7.882c-.222-.019-.442-.044-.664-.075l.023-7.882c.22.031.442.057.662.075" transform="translate(-102.906 -326.174)"/><path class="n" d="M107.893,328.067l-.023,7.882c-.239-.033-.477-.075-.716-.124l.023-7.882c.239.048.477.09.716.124" transform="translate(-103.28 -326.239)"/><path class="o" d="M107.624,328.054l-.023,7.882c-.287-.061-.572-.13-.856-.212l.023-7.882c.285.082.57.151.856.211" transform="translate(-103.728 -326.349)"/><path class="p" d="M107.365,328.046l-.023,7.882a12.063,12.063,0,0,1-1.143-.389l.021-7.882q.572.226,1.145.389" transform="translate(-104.325 -326.552)"/><path class="q" d="M107.2,328.131l-.021,7.882a13.979,13.979,0,0,1-1.874-.907l.021-7.884a13.845,13.845,0,0,0,1.874.909" transform="translate(-105.304 -327.027)"/></g></g></g></g><g class="c" transform="translate(76.364 21.52)"><g transform="translate(8.992 2.361)"><path class="w" d="M133.568,323.176l-.022,7.882-18.707,13.482.022-7.882Z" transform="translate(-114.838 -323.176)"/></g><g transform="translate(5.772 13.152)"><path class="d" d="M129.019,328.329,129,336.211l-15.7,7.351.022-7.882Z" transform="translate(-113.3 -328.329)"/></g><g transform="translate(0 17.171)"><path class="r" d="M116.338,333.581l-.022,7.882-5.772-3.333.022-7.882Z" transform="translate(-110.544 -330.248)"/></g><g transform="translate(17.018 7.173)"><path class="w" d="M137.708,325.473l-.022,7.882-19.015,13.482.022-7.882Z" transform="translate(-118.671 -325.473)"/></g><g transform="translate(0.022)"><path class="e" d="M154.536,333.81,124.97,347.541l-5.587-3.226,12.64-9.116-15.7,7.351-5.772-3.333,23.609-17.171,4.09,2.361-18.707,13.482,22.982-11.014,4.059,2.343L127.573,342.7l23.29-11.014Z" transform="translate(-110.555 -322.048)"/></g><g transform="translate(14.415 11.762)"><path class="d" d="M147.017,327.665l-.022,7.882-29.567,13.731.022-7.882Z" transform="translate(-117.428 -327.665)"/></g><g transform="translate(8.828 22.268)"><path class="r" d="M120.369,335.908l-.022,7.882-5.587-3.226.022-7.882Z" transform="translate(-114.76 -332.682)"/></g></g><g class="c" transform="translate(94.174 36)"><g transform="translate(13.557 4.384)"><path class="d" d="M141.015,331.056l-.022,7.882-15.469,6.647.022-7.882Z" transform="translate(-125.524 -331.056)"/></g><g transform="translate(3.858 12.813)"><path class="d" d="M126.47,335.082l-.022,7.882-5.555,2.388.022-7.882Z" transform="translate(-120.892 -335.082)"/></g><g transform="translate(0 12.974)"><path class="r" d="M122.93,337.386l-.022,7.882-3.858-2.228.022-7.882Z" transform="translate(-119.049 -335.159)"/></g><g transform="translate(9.414 12.813)"><path class="r" d="M128.738,338.067l-.022,7.882-5.17-2.985.022-7.882Z" transform="translate(-123.545 -335.082)"/></g><g transform="translate(0.022)"><path class="e" d="M156.082,332.508l-22.3,17.929-4.242-2.45,4.1-3.225-5.17-2.986-5.555,2.387-3.859-2.226,30.878-12.974Zm-23.465,7.486,4.06,2.343,11.41-8.992-15.47,6.648" transform="translate(-119.06 -328.963)"/></g><g transform="translate(14.724 3.546)"><path class="s" d="M148.4,330.656l-.022,7.882-22.3,17.928.022-7.882Z" transform="translate(-126.081 -330.656)"/></g><g transform="translate(10.479 19.024)"><path class="r" d="M128.321,340.5l-.022,7.882-4.244-2.45.022-7.882Z" transform="translate(-124.054 -338.048)"/></g></g><g class="c" transform="translate(110.843 43.142)"><g transform="translate(8.001 2.428)"><path class="d" d="M153.638,333.533l-.022,7.882L130.83,354.656l.022-7.882Z" transform="translate(-130.83 -333.533)"/></g><g transform="translate(0.018)"><path class="e" d="M157.816,334.805,135.034,348.05l6.914,3.991-3.8,2.21-11.128-6.422L153.6,332.374Z" transform="translate(-127.018 -332.374)"/></g><g transform="translate(11.128 19.67)"><path class="d" d="M136.148,341.767l-.022,7.882-3.8,2.21.022-7.882Z" transform="translate(-132.324 -341.767)"/></g><g transform="translate(0 15.455)"><path class="r" d="M138.159,346.179l-.022,7.882-11.128-6.425.022-7.882Z" transform="translate(-127.009 -339.754)"/></g></g><g class="c" transform="translate(0 20.653)"><g class="c" transform="translate(19.504 3.383)"><g class="x"><g class="c" transform="translate(0 0)"><path class="q" d="M88.024,324.817,88,332.7c0-.415-.343-.8-.97-1.156a4.192,4.192,0,0,0-.586-.285l.023-7.882a4.309,4.309,0,0,1,.586.285c.626.36.97.741.97,1.156" transform="translate(-80.048 -323.111)"/><path class="p" d="M86.655,323.44l-.023,7.882a3.6,3.6,0,0,0-.358-.121l.023-7.882a3.638,3.638,0,0,1,.358.122" transform="translate(-80.235 -323.174)"/><path class="o" d="M86.437,323.353l-.023,7.882c-.088-.025-.178-.048-.268-.067l.021-7.882c.092.019.182.042.27.067" transform="translate(-80.375 -323.209)"/><path class="n" d="M86.287,323.307l-.021,7.882c-.077-.015-.153-.029-.23-.04l.021-7.882c.077.01.155.023.23.04" transform="translate(-80.495 -323.23)"/><path class="m" d="M86.17,323.28l-.021,7.882c-.071-.01-.142-.019-.216-.025l.023-7.882c.071.006.144.015.214.025" transform="translate(-80.608 -323.243)"/><path class="l" d="M86.068,323.26l-.023,7.882c-.069,0-.142-.008-.214-.011l.023-7.882c.071,0,.142.006.214.01" transform="translate(-80.72 -323.248)"/><path class="k" d="M85.973,323.251l-.023,7.882c-.075,0-.151,0-.228,0l.023-7.882c.077,0,.153,0,.228,0" transform="translate(-80.839 -323.249)"/><path class="j" d="M85.88,323.25l-.023,7.882c-.084,0-.172.011-.258.019l.021-7.882c.088-.008.174-.015.26-.019" transform="translate(-80.973 -323.248)"/><path class="i" d="M85.8,323.259l-.021,7.882c-.113.01-.228.027-.343.048l.023-7.882c.115-.021.23-.038.341-.048" transform="translate(-81.153 -323.239)"/><path class="h" d="M85.788,323.282l-.023,7.882a5.078,5.078,0,0,0-.632.159l.023-7.882a5.074,5.074,0,0,1,.632-.159" transform="translate(-81.483 -323.213)"/><path class="g" d="M85.92,323.358,85.9,331.24a7.269,7.269,0,0,0-1.386.634l-.075.044.021-7.882.077-.044a7.025,7.025,0,0,1,1.386-.634" transform="translate(-82.247 -323.13)"/><path class="h" d="M84.934,323.682l-.021,7.882a5.788,5.788,0,0,0-.915.67l.023-7.882a5.539,5.539,0,0,1,.913-.67" transform="translate(-82.725 -322.776)"/><path class="i" d="M84.261,324l-.023,7.882a4.161,4.161,0,0,0-.459.492l.023-7.882a4.154,4.154,0,0,1,.459-.492" transform="translate(-82.964 -322.426)"/><path class="j" d="M83.965,324.237l-.023,7.882a3.6,3.6,0,0,0-.312.465l.023-7.882a3.407,3.407,0,0,1,.312-.465" transform="translate(-83.127 -322.169)"/><path class="k" d="M83.773,324.459l-.023,7.882a3.545,3.545,0,0,0-.23.5l.023-7.882a3.317,3.317,0,0,1,.23-.5" transform="translate(-83.248 -321.926)"/><path class="l" d="M83.634,324.7l-.023,7.882a4,4,0,0,0-.174.614l.023-7.882a4,4,0,0,1,.174-.614" transform="translate(-83.339 -321.667)"/><path class="m" d="M83.51,324.989l-.023,7.882a5.43,5.43,0,0,0-.1.946l.021-7.882a5.641,5.641,0,0,1,.1-.946" transform="translate(-83.389 -321.346)"/><path class="n" d="M83.413,325.441l-.021,7.882c0,.057,0,.113,0,.172l.021-7.882c0-.059,0-.115,0-.172" transform="translate(-83.39 -320.851)"/></g></g></g><g class="c" transform="translate(29.687 5.166)"><g class="y"><g class="c"><path class="n" d="M89.891,324.1l-.023,7.882v.059l.021-7.882,0-.059" transform="translate(-86.486 -324.101)"/><path class="m" d="M89.913,324.129l-.021,7.882a2.316,2.316,0,0,1-.046.4l.023-7.882a2.315,2.315,0,0,0,.044-.4" transform="translate(-86.51 -324.07)"/><path class="l" d="M89.93,324.318l-.023,7.882a2.7,2.7,0,0,1-.117.406l.023-7.882a2.7,2.7,0,0,0,.117-.406" transform="translate(-86.572 -323.864)"/><path class="k" d="M89.921,324.512l-.023,7.882a2.974,2.974,0,0,1-.207.44l.023-7.882a3.471,3.471,0,0,0,.207-.44" transform="translate(-86.68 -323.651)"/><path class="j" d="M89.9,324.722l-.023,7.882a4.133,4.133,0,0,1-.354.526l.021-7.882a4.076,4.076,0,0,0,.356-.526" transform="translate(-86.865 -323.422)"/><path class="i" d="M89.878,324.973l-.021,7.882a6,6,0,0,1-.641.685l.023-7.882a6.155,6.155,0,0,0,.639-.685" transform="translate(-87.199 -323.147)"/><path class="h" d="M90.173,325.3l-.023,7.882a11.09,11.09,0,0,1-1.788,1.307l.023-7.882a11.1,11.1,0,0,0,1.788-1.307" transform="translate(-88.134 -322.789)"/><path class="g" d="M88.5,325.924l-.023,7.882c-.075.046-.151.09-.228.136l.021-7.884c.077-.044.155-.09.23-.134" transform="translate(-88.253 -322.107)"/></g></g></g><g transform="translate(28.843 9.118)"><path class="d" d="M88.716,325.988l-.022,7.882-.843.49.022-7.882Z" transform="translate(-87.85 -325.988)"/></g><g transform="translate(24.876 7.319)"><path class="r" d="M89.945,327.419l-.022,7.882-3.966-2.29.022-7.882Z" transform="translate(-85.956 -325.129)"/></g><g class="c" transform="translate(13.519 7.817)"><g class="z"><g class="c"><path class="q" d="M80.725,328.546l-.021,7.882c0-1.011-.174-2.086-.172-3.179l.023-7.882c0,1.093.174,2.167.17,3.179" transform="translate(-80.532 -325.367)"/></g></g></g><g transform="translate(7.075 11.284)"><path class="d" d="M79.379,327.023l-.022,7.882-1.9,1.1.022-7.882Z" transform="translate(-77.455 -327.023)"/></g><g class="c" transform="translate(5.65 12.388)"><g class="aa"><g class="c" transform="translate(0)"><path class="g" d="M77.538,327.55l-.023,7.882-.115.069.023-7.882.115-.069" transform="translate(-76.089 -327.55)"/><path class="h" d="M77.841,327.583l-.023,7.882a4.812,4.812,0,0,0-.8.582l.021-7.882a4.842,4.842,0,0,1,.8-.582" transform="translate(-76.507 -327.514)"/><path class="i" d="M77.17,327.861l-.021,7.882a2.417,2.417,0,0,0-.251.266l.023-7.882a2.221,2.221,0,0,1,.249-.266" transform="translate(-76.638 -327.21)"/><path class="j" d="M76.989,327.988l-.023,7.882a1.633,1.633,0,0,0-.13.193l.023-7.882a1.417,1.417,0,0,1,.13-.193" transform="translate(-76.706 -327.071)"/><path class="k" d="M76.9,328.08l-.023,7.882a1.058,1.058,0,0,0-.073.157l.021-7.882a1.072,1.072,0,0,1,.075-.157" transform="translate(-76.744 -326.97)"/><path class="l" d="M76.844,328.155l-.021,7.882a.894.894,0,0,0-.042.14L76.8,328.3a.883.883,0,0,1,.04-.14" transform="translate(-76.766 -326.888)"/><path class="m" d="M76.812,328.222l-.023,7.882a.969.969,0,0,0-.015.134l.023-7.882a.733.733,0,0,1,.015-.134" transform="translate(-76.774 -326.815)"/><path class="n" d="M76.8,328.286l-.022,7.882v.02l.022-7.882v-.02" transform="translate(-76.774 -326.745)"/></g></g></g><g class="c" transform="translate(0 11.364)"><g class="ab"><g class="c"><path class="n" d="M83.5,327.061l-.023,7.882c0,.08,0,.159,0,.239l.021-7.882c0-.079,0-.159,0-.239" transform="translate(-63.796 -327.061)"/><path class="m" d="M83.558,327.175l-.021,7.882a7.07,7.07,0,0,1-.124,1.141l.023-7.882a6.839,6.839,0,0,0,.121-1.141" transform="translate(-63.86 -326.936)"/><path class="l" d="M83.562,327.72l-.023,7.882a5.247,5.247,0,0,1-.239.852l.023-7.884a5.613,5.613,0,0,0,.239-.85" transform="translate(-63.985 -326.34)"/><path class="k" d="M83.5,328.126l-.023,7.884a5.289,5.289,0,0,1-.343.737l.023-7.882a5.2,5.2,0,0,0,.343-.739" transform="translate(-64.164 -325.896)"/><path class="j" d="M83.412,328.479l-.023,7.882a5.632,5.632,0,0,1-.484.72l.023-7.882a5.857,5.857,0,0,0,.484-.72" transform="translate(-64.417 -325.51)"/><path class="i" d="M83.313,328.823,83.29,336.7a6.725,6.725,0,0,1-.737.791l.023-7.882a6.719,6.719,0,0,0,.737-.792" transform="translate(-64.802 -325.133)"/><path class="h" d="M83.458,329.2l-.023,7.882a10.028,10.028,0,0,1-1.688,1.242l.021-7.882a10.048,10.048,0,0,0,1.69-1.242" transform="translate(-65.684 -324.72)"/><path class="g" d="M83.387,329.794l-.021,7.882-.161.1a15.1,15.1,0,0,1-2.938,1.323l.021-7.882a15.234,15.234,0,0,0,2.94-1.323l.159-.1" transform="translate(-67.303 -324.071)"/><path class="h" d="M81.184,330.472l-.021,7.882a13.353,13.353,0,0,1-1.715.433l.023-7.882a13.406,13.406,0,0,0,1.713-.433" transform="translate(-68.199 -323.329)"/><path class="i" d="M79.979,330.679l-.023,7.882c-.322.059-.647.1-.972.136l.023-7.882c.322-.031.647-.077.972-.136" transform="translate(-68.707 -323.103)"/><path class="j" d="M79.418,330.744l-.023,7.882c-.262.027-.526.044-.787.052l.023-7.882c.262-.008.524-.025.787-.052" transform="translate(-69.118 -323.032)"/><path class="k" d="M79,330.769l-.023,7.882c-.235.008-.469.01-.7,0l.023-7.882c.235.006.469,0,.7,0" transform="translate(-69.486 -323.004)"/><path class="l" d="M78.646,330.79l-.023,7.882c-.224-.006-.448-.017-.672-.036l.023-7.882c.224.019.448.029.672.036" transform="translate(-69.837 -323.021)"/><path class="m" d="M78.331,330.795l-.023,7.882c-.228-.019-.456-.044-.683-.077l.023-7.882c.226.034.454.059.683.078" transform="translate(-70.193 -323.061)"/><path class="n" d="M78.033,330.784l-.023,7.882c-.247-.033-.492-.077-.737-.128l.021-7.882c.245.05.492.094.739.128" transform="translate(-70.578 -323.128)"/><path class="o" d="M77.746,330.768l-.021,7.882c-.289-.061-.578-.13-.865-.214l.023-7.882c.287.082.574.153.863.214" transform="translate(-71.03 -323.24)"/><path class="p" d="M77.476,330.755l-.023,7.882q-.572-.163-1.135-.385l.021-7.882q.565.223,1.137.385" transform="translate(-71.623 -323.441)"/><path class="q" d="M78.792,332.676l-.021,7.882a13.038,13.038,0,0,1-1.759-.852c-1.977-1.141-2.938-2.345-2.936-3.562l.023-7.882c0,1.217.957,2.421,2.934,3.562a13.436,13.436,0,0,0,1.759.852" transform="translate(-74.076 -325.747)"/></g></g></g><g transform="translate(0.023)"><path class="e" d="M104.27,323.295c4.09,2.36,3.75,4.99-.5,7.457l-.842.492-3.966-2.291,1.1-.641c1.9-1.106,1.849-1.97.507-2.745s-2.819-.794-4.72.312c-5.476,3.181,1.74,8.518-5.865,12.939a12.469,12.469,0,0,1-12.968.258c-4.121-2.379-3.828-5.034.421-7.5l1.64-.953,3.983,2.3-1.9,1.1c-1.9,1.106-1.759,1.987-.417,2.762a4.416,4.416,0,0,0,4.768-.249c5.459-3.172-1.725-8.51,5.88-12.928C95.643,321.138,100.178,320.933,104.27,323.295Z" transform="translate(-74.087 -321.634)"/></g></g><g class="c" transform="translate(11.931 27.481)"><g transform="translate(19.393 2.424)"><path class="d" d="M100.45,326.052l-.022,7.882-11.393,6.621.022-7.882Z" transform="translate(-89.035 -326.052)"/></g><g transform="translate(15.591 11.254)"><path class="r" d="M92.026,333.032,92,340.914l-4.784-2.762.022-7.882Z" transform="translate(-87.219 -330.269)"/></g><g transform="translate(4.198 11.254)"><path class="d" d="M93.193,330.269l-.022,7.882-11.393,6.621.022-7.882Z" transform="translate(-81.778 -330.269)"/></g><g transform="translate(0 15.451)"><path class="r" d="M83.994,334.7l-.022,7.882-4.2-2.424.022-7.882Z" transform="translate(-79.774 -332.274)"/></g><g transform="translate(0.022)"><path class="e" d="M119.63,332.549,93.042,348l-4.275-2.468,11.393-6.621-4.784-2.762L83.982,342.77l-4.2-2.424,26.588-15.451,4.2,2.424-11.393,6.621,4.784,2.762,11.393-6.621Z" transform="translate(-79.784 -324.895)"/></g><g transform="translate(13.257 7.654)"><path class="d" d="M112.715,328.55l-.022,7.882L86.1,351.883,86.127,344Z" transform="translate(-86.105 -328.55)"/></g><g transform="translate(8.982 20.637)"><path class="r" d="M88.361,337.219l-.022,7.882-4.275-2.468.022-7.882Z" transform="translate(-84.063 -334.75)"/></g></g><g class="c" transform="translate(27.133 38.735)"><g transform="translate(13.557 4.385)"><path class="d" d="M109,332.363l-.022,7.882-15.469,6.648.022-7.882Z" transform="translate(-93.508 -332.363)"/></g><g transform="translate(3.858 12.814)"><path class="d" d="M94.454,336.389l-.022,7.882-5.555,2.388.022-7.882Z" transform="translate(-88.876 -336.389)"/></g><g transform="translate(0 12.975)"><path class="r" d="M90.914,338.693l-.022,7.882-3.858-2.228.022-7.882Z" transform="translate(-87.033 -336.465)"/></g><g transform="translate(9.414 12.814)"><path class="r" d="M96.722,339.374l-.022,7.882-5.17-2.985.022-7.882Z" transform="translate(-91.529 -336.389)"/></g><g transform="translate(0.022)"><path class="e" d="M124.066,333.816l-22.3,17.929-4.245-2.45,4.1-3.227-5.17-2.984L90.9,345.471l-3.859-2.228,30.878-12.974ZM100.6,341.3l4.058,2.345,11.41-8.992L100.6,341.3" transform="translate(-87.044 -330.269)"/></g><g transform="translate(14.724 3.547)"><path class="s" d="M116.385,331.963l-.022,7.882-22.3,17.928.022-7.882Z" transform="translate(-94.065 -331.963)"/></g><g transform="translate(10.479 19.025)"><path class="r" d="M96.3,341.8l-.022,7.882-4.244-2.45.022-7.882Z" transform="translate(-92.038 -339.355)"/></g></g><g class="c" transform="translate(43.801 45.878)"><g transform="translate(8.001 2.427)"><path class="d" d="M121.622,334.84l-.022,7.882L98.814,355.963l.022-7.882Z" transform="translate(-98.814 -334.84)"/></g><g transform="translate(0.018)"><path class="e" d="M125.8,336.112l-22.782,13.244,6.915,3.991-3.8,2.21L95,349.135l26.584-15.455Z" transform="translate(-95.002 -333.68)"/></g><g transform="translate(11.128 19.67)"><path class="d" d="M104.133,343.074l-.022,7.882-3.8,2.21.022-7.882Z" transform="translate(-100.308 -343.074)"/></g><g transform="translate(0 15.455)"><path class="r" d="M106.144,347.485l-.022,7.882-11.128-6.425.022-7.882Z" transform="translate(-94.994 -341.061)"/></g></g><g class="c" transform="translate(55.654 55.194)"><g transform="translate(13.557 4.393)"><path class="d" d="M122.62,340.227l-.022,7.882-15.469,6.647.022-7.882Z" transform="translate(-107.128 -340.227)"/></g><g transform="translate(14.708 3.555)"><path class="s" d="M130.013,339.827l-.022,7.882-22.313,17.92.022-7.882Z" transform="translate(-107.678 -339.827)"/></g><g transform="translate(36.768 7.814)"><path class="r" d="M122.634,344.4l-.022,7.882-4.4-2.539.022-7.882Z" transform="translate(-118.213 -341.861)"/></g><g transform="translate(45.38 12.787)"><path class="r" d="M126.731,346.766l-.022,7.882-4.383-2.531.022-7.882Z" transform="translate(-122.326 -344.235)"/></g><g transform="translate(49.763 13.107)"><path class="d" d="M128.244,344.388l-.022,7.882-3.8,2.21.022-7.882Z" transform="translate(-124.419 -344.388)"/></g><g transform="translate(3.858 12.822)"><path class="d" d="M108.074,344.252l-.022,7.882-5.555,2.388.022-7.882Z" transform="translate(-102.497 -344.252)"/></g><g transform="translate(0 12.983)"><path class="r" d="M104.535,346.557l-.022,7.882-3.858-2.228.022-7.882Z" transform="translate(-100.654 -344.329)"/></g><g transform="translate(9.414 12.822)"><path class="r" d="M110.327,347.228l-.022,7.882-5.155-2.976.022-7.882Z" transform="translate(-105.15 -344.252)"/></g><g transform="translate(10.48 19.033)"><path class="r" d="M109.91,349.66l-.022,7.882-4.229-2.441.022-7.882Z" transform="translate(-105.659 -347.218)"/></g><g transform="translate(0.023)"><path class="e" d="M137.685,341.685,115.373,359.6l-4.23-2.442,4.09-3.233-5.155-2.978-5.555,2.389-3.857-2.228,30.863-12.983Zm-23.463,7.484,4.043,2.335,11.425-8.981-15.468,6.646" transform="translate(-100.665 -338.129)"/></g><g transform="translate(22.595 12.787)"><path class="d" d="M134.252,344.235l-.022,7.882-22.785,13.241.022-7.882Z" transform="translate(-111.444 -344.235)"/></g><g transform="translate(18.381 23.595)"><path class="r" d="M113.668,351.83l-.022,7.882-4.213-2.433.022-7.882Z" transform="translate(-109.432 -349.397)"/></g><g transform="translate(18.407 5.605)"><path class="e" d="M144.633,348.313l-3.8,2.21-4.4-2.538-22.777,13.241-4.213-2.431,22.777-13.241-4.4-2.538,3.8-2.21Z" transform="translate(-109.444 -340.806)"/></g></g></g></g></svg>