<svg xmlns="http://www.w3.org/2000/svg" xmlns:xlink="http://www.w3.org/1999/xlink" width="82.803" height="54.895" viewBox="0 0 82.803 54.895"><defs><style>.a,.b{fill:none;}.b{stroke:#490c5a;stroke-linejoin:round;stroke-width:2px;}.c{isolation:isolate;}.d{clip-path:url(#a);}.e{fill:#490c5a;}.f{fill:#4b0e5c;}.g{fill:#4d115f;}.h{fill:#4f1361;}.i{fill:#511463;}.j{fill:#531666;}.k{fill:#551868;}.l{fill:#571a6a;}.m{fill:#591c6d;}.n{fill:#5b1d70;}.o{fill:#5d1f72;}.p{clip-path:url(#b);}.q{fill:#622378;}.r{fill:#4a0e5c;}.s{clip-path:url(#c);}.t{clip-path:url(#d);}.u{clip-path:url(#e);}.v{fill:#fff;}.w{clip-path:url(#f);}.x{clip-path:url(#g);}.y{clip-path:url(#h);}.z{clip-path:url(#i);}.aa{clip-path:url(#j);}.ab{clip-path:url(#k);}.ac{clip-path:url(#l);}.ad{clip-path:url(#m);}.ae{clip-path:url(#n);}.af{clip-path:url(#o);}.ag{clip-path:url(#p);}</style><clipPath id="a"><path class="a" d="M50.3,408.263l-.023,7.882c0-.415-.339-.8-.963-1.156-1.326-.766-2.835-.783-4.72.312a4.068,4.068,0,0,0-2.268,3.912l.021-7.882a4.068,4.068,0,0,1,2.268-3.912c1.887-1.1,3.394-1.078,4.722-.312C49.958,407.468,50.3,407.849,50.3,408.263Z" transform="translate(-42.323 -406.561)"/></clipPath><clipPath id="b"><path class="a" d="M50.591,407.416l-.023,7.882c0,1.317-1.156,2.655-3.388,3.951l.023-7.882C49.435,410.069,50.587,408.733,50.591,407.416Z" transform="translate(-47.18 -407.416)"/></clipPath><clipPath id="c"><path class="a" d="M39.658,411.852l-.023,7.882c0-1.011-.172-2.083-.17-3.174l.023-7.884C39.484,409.768,39.66,410.84,39.658,411.852Z" transform="translate(-39.465 -408.675)"/></clipPath><clipPath id="d"><path class="a" d="M35.705,420.294l.023-7.882c0-.465.433-.976,1.418-1.547l-.023,7.882C36.138,419.319,35.707,419.829,35.705,420.294Z" transform="translate(-35.705 -410.865)"/></clipPath><clipPath id="e"><path class="a" d="M52.709,410.371l-.023,7.882c-.006,1.952-.586,3.968-3.771,5.819a12.442,12.442,0,0,1-12.968.258c-1.977-1.141-2.942-2.345-2.938-3.562l.021-7.882c0,1.217.961,2.421,2.94,3.562a12.442,12.442,0,0,0,12.968-.258C52.123,414.339,52.7,412.323,52.709,410.371Z" transform="translate(-33.009 -410.371)"/></clipPath><clipPath id="f"><path class="a" d="M53.565,412.106l-.023,7.882c0-.4-.358-.771-1-1.139l.023-7.882C53.2,411.336,53.565,411.7,53.565,412.106Z" transform="translate(-52.545 -410.967)"/></clipPath><clipPath id="g"><path class="a" d="M57.554,411.628l-.023,7.882c0,1.284-1.131,2.574-3.319,3.847l.023-7.882C56.423,414.2,57.55,412.912,57.554,411.628Z" transform="translate(-54.212 -411.628)"/></clipPath><clipPath id="h"><path class="a" d="M59.282,414.426l-.023,7.882a12.136,12.136,0,0,1-12.828.2l.023-7.882A12.135,12.135,0,0,0,59.282,414.426Z" transform="translate(-46.431 -414.426)"/></clipPath><clipPath id="i"><path class="a" d="M60.458,416.116,60.437,424c0-.4-.331-.785-.993-1.166l.023-7.882C60.129,415.331,60.46,415.714,60.458,416.116Z" transform="translate(-59.444 -414.95)"/></clipPath><clipPath id="j"><path class="a" d="M64.5,415.662l-.023,7.882c0,1.173-1.062,2.329-3.105,3.516l.021-7.882C63.435,417.991,64.492,416.835,64.5,415.662Z" transform="translate(-61.368 -415.662)"/></clipPath><clipPath id="k"><path class="a" d="M65.159,417.605l-.021,7.882a10.959,10.959,0,0,1-8.085,1.552l.023-7.882A10.954,10.954,0,0,0,65.159,417.605Z" transform="translate(-57.053 -417.605)"/></clipPath><clipPath id="l"><path class="a" d="M55.612,419.425l-.023,7.882c0-.511-.484-.991-1.388-1.512l.021-7.884C55.129,418.435,55.612,418.914,55.612,419.425Z" transform="translate(-54.201 -417.911)"/></clipPath><clipPath id="m"><path class="a" d="M59,419.082l-.023,7.882c0,1.233-1.15,2.414-3.143,3.572l.023-7.882C57.847,421.5,58.995,420.315,59,419.082Z" transform="translate(-55.833 -419.082)"/></clipPath><clipPath id="n"><path class="a" d="M61.453,421.392l-.021,7.882a12.061,12.061,0,0,1-12.692-.008l.021-7.882A12.065,12.065,0,0,0,61.453,421.392Z" transform="translate(-48.74 -421.384)"/></clipPath><clipPath id="o"><path class="a" d="M57.135,432.7l.021-7.882c0-.471.438-.984,1.426-1.56l-.021,7.882C57.571,431.714,57.135,432.227,57.135,432.7Z" transform="translate(-57.135 -423.256)"/></clipPath><clipPath id="p"><path class="a" d="M54.328,431.785l.021-7.882c0,1.219.963,2.427,2.948,3.572a12.454,12.454,0,0,0,12.951-.266l-.023,7.882a12.449,12.449,0,0,1-12.951.266C55.289,434.212,54.324,433,54.328,431.785Z" transform="translate(-54.328 -423.903)"/></clipPath></defs><g transform="translate(1 1.059)"><path class="b" d="M105.463,436.425l.015-5.051-4.213-2.433-5.758,3.346.015-4.9a2.1,2.1,0,0,1-.117.517c.358-1.344-.616-2.7-3.122-4.148l-6.343-3.662-5.2,3.024.013-4.178c0,.019-.013.038-.013.057.036-1.227-.942-2.45-3.009-3.641l-6.19-3.574-5.459,3.172.015-4.833c0,.029-.019.059-.019.088.05-1.229-.877-2.444-2.873-3.6-4.09-2.362-8.611-2.165-12.874.312-3.25,1.889-3.786,3.947-3.773,5.932,0-.034,0-.065,0-.1l-.013,4.58a4.082,4.082,0,0,1-2.09,2.519,5.5,5.5,0,0,1-2.465.8L42,416.234l-3.981-2.3-1.627.944c-2.471,1.436-3.558,2.93-3.269,4.393a2.469,2.469,0,0,1-.09-.452l-.021,7.882c0,1.217.961,2.421,2.938,3.562a13.4,13.4,0,0,0,1.677.813c.031.013.061.031.09.044q.565.223,1.137.385c.063.019.126.029.188.048l.205.05c.157.038.312.082.469.115.245.05.49.094.737.128.075.01.153.017.228.025l.14.017c.1.011.207.027.312.036.222.017.446.029.67.036.176,0,.35,0,.526,0,.029,0,.059,0,.088,0s.059,0,.088,0c.262-.008.523-.027.785-.052.2-.021.394-.054.591-.084.077-.01.153-.019.228-.031.05-.008.1-.013.149-.021.205-.038.408-.107.614-.155l.069-.017-.01,3.516,4.2,2.425,10-5.811,1.991,1.15a14.1,14.1,0,0,0,1.522.758l-3.288,1.91-.021,7.882,6.621,3.824a14.463,14.463,0,0,0,1.79.869c.052.021.1.054.159.075a12.573,12.573,0,0,0,1.2.406l.017,0,.044.013c.268.073.538.142.806.2.245.052.492.094.737.13l.017,0,.027,0c.209.029.421.054.632.071s.438.029.655.036c.077,0,.153,0,.228,0l.14,0c.1,0,.205,0,.308,0,.247-.011.494-.027.739-.05.115-.013.228-.034.343-.048.088-.013.174-.023.262-.038s.207-.025.31-.044c.193-.033.383-.1.576-.144.264-.061.528-.119.789-.2.071-.021.142-.031.214-.054.255-.082.507-.195.76-.293.161-.065.322-.117.482-.188s.32-.153.48-.232l-.013,4.764c0,1.219.961,2.427,2.946,3.572a13.066,13.066,0,0,0,1.665.806c.027.013.057.029.084.042.375.147.752.276,1.131.383.067.019.134.031.2.05s.14.034.211.052c.151.038.3.08.45.111.245.05.49.092.737.128.08.013.161.017.243.027l.142.017c.1.01.2.025.3.034.224.017.448.029.672.036.18,0,.36,0,.542,0,.027,0,.057,0,.086,0s.05,0,.075,0c.262-.008.526-.027.787-.052.2-.021.4-.054.605-.086.073-.01.149-.019.222-.031.048-.008.1-.01.147-.019.2-.038.406-.107.609-.155.32-.073.643-.142.963-.243.046-.015.094-.021.142-.036.3-.1.591-.226.886-.343.172-.069.346-.124.517-.2a16.094,16.094,0,0,0,1.537-.783l20.241-11.762.023-7.882-3.983-2.3Zm-65.588-18.94c-.142.09-.291.18-.406.266.117-.088.268-.182.415-.272Zm-.586.425,0,0,.031-.029Zm-.515.6.015-.029Zm15.854-1.34c.054-.033.1-.067.153-.1a7.141,7.141,0,0,1,1.361-.622,4.6,4.6,0,0,1,1.2-.23l.019,0a3.552,3.552,0,0,1,.542.057l-.01,3.44-5.2,3.022.008-3.185c.023-.082.04-.161.069-.241s.063-.161.1-.241.073-.17.117-.251.1-.165.151-.247.1-.153.153-.228.117-.138.176-.207c.082-.092.163-.184.258-.277.052-.048.113-.1.17-.147A5.6,5.6,0,0,1,54.627,417.168ZM95.293,428.3a3.515,3.515,0,0,1-.314.467,3.546,3.546,0,0,0,.316-.469Zm-16.729,4.724a1.672,1.672,0,0,0-.107-.151A1.672,1.672,0,0,1,78.564,433.028Zm-.4-.415c-.05-.042-.086-.082-.14-.121C78.074,432.532,78.11,432.572,78.16,432.613Zm.555.649a.9.9,0,0,1,.038.165A.9.9,0,0,0,78.715,433.263Zm5.235,10.792-.04.036c.019-.021.046-.042.067-.063Zm-.394.724,0,.021Zm-1.468-7.49c-.023.019-.057.036-.08.052.1-.071.186-.142.279-.214l0,0C82.216,437.185,82.159,437.237,82.088,437.289Zm1.562,7.17.015-.029Zm.517-.6,0,0,.031-.027Zm.182-.159c.117-.09.268-.182.415-.274l-.01.008C84.613,443.523,84.465,443.613,84.35,443.7Zm10.256-14.447c-.138.144-.312.289-.48.433.168-.147.343-.291.48-.436Zm-15.6-7.553-.031.027c.086-.069.147-.138.228-.207C79.133,421.58,79.083,421.641,79.008,421.7Zm-14.7-8.736-.05.04c.09-.071.153-.142.237-.214C64.432,412.848,64.383,412.907,64.312,412.963Zm-11-2.507-.029.036.038-.048Zm-.419.727c-.01.023-.023.046-.034.069.019-.044.04-.088.059-.132Zm-.226.689c-.006.027-.017.052-.023.08.008-.036.021-.071.029-.107Zm-.119.961c0-.061,0-.119.008-.178C52.548,412.714,52.546,412.773,52.544,412.834Zm-.2,5.7c-.01.025-.025.05-.036.077.063-.161.1-.325.151-.486C52.422,418.257,52.4,418.393,52.347,418.529Zm-.341.737c-.029.052-.071.1-.1.157a4.673,4.673,0,0,0,.285-.544C52.127,419.009,52.079,419.136,52.006,419.266Zm-.312.469c-.059.086-.1.172-.172.255-.031.04-.075.08-.109.121s-.073.075-.107.115c.142-.167.276-.333.394-.5Zm-.873,1.016c-.121.111-.268.224-.4.335a7.174,7.174,0,0,0,.551-.5C50.915,420.644,50.875,420.7,50.821,420.751Zm42.866,9.314h0a13.138,13.138,0,0,1-1.271.836A13.448,13.448,0,0,0,93.687,430.065Zm-4.328-3.053a.907.907,0,0,0-.218-.517A.907.907,0,0,1,89.358,427.012Zm-.289-.591a2.774,2.774,0,0,0-.683-.528A2.774,2.774,0,0,1,89.07,426.422Zm-8.525-6.556-.034.073a2.683,2.683,0,0,0,.107-.4A2.344,2.344,0,0,1,80.545,419.865Zm-.4.645a3.23,3.23,0,0,1-.188.289l-.034.036C80.011,420.726,80.063,420.619,80.141,420.51Zm-5.22-1.857a.883.883,0,0,0-.239-.534A.883.883,0,0,1,74.92,418.653Zm-.276-.57a3.01,3.01,0,0,0-.7-.53A3.01,3.01,0,0,1,74.644,418.083Zm-8.759-7.011c-.013.029-.027.057-.04.086l-.01.017a2.57,2.57,0,0,0,.119-.415A2.306,2.306,0,0,1,65.885,411.073Zm-.427.685c-.067.094-.1.186-.18.281-.017.019-.038.038-.052.057C65.319,411.981,65.378,411.87,65.458,411.757Zm-4.99-1.776a.921.921,0,0,0-.222-.536A.921.921,0,0,1,60.468,409.982ZM60.2,409.4a2.707,2.707,0,0,0-.672-.523A2.707,2.707,0,0,1,60.2,409.4Zm-6.184.343c-.036.029-.065.057-.1.086-.013.01-.031.021-.044.031C53.913,409.82,53.964,409.781,54.012,409.741Zm-3.9,11.6c-.034.025-.057.05-.09.075s-.052.034-.075.05c-.3.22-.634.438-1.005.655A11.462,11.462,0,0,0,50.109,421.344Zm-3.474-6.99c.04.482.071.955.077,1.418C46.7,415.309,46.672,414.838,46.635,414.354ZM39.1,418.077l-.023.025c-.013.013-.031.025-.044.038C39.05,418.119,39.077,418.1,39.1,418.077Zm-.417.752,0,.017Zm-5.482.842a3.238,3.238,0,0,0,.31.551A3.238,3.238,0,0,1,33.2,419.671Zm.534.919a5.669,5.669,0,0,0,.605.6A5.669,5.669,0,0,1,33.734,420.59Zm.923.907a10.342,10.342,0,0,0,1.313.886A10.342,10.342,0,0,1,34.657,421.5ZM79.3,447.324a10.439,10.439,0,0,0,1.319.89A10.439,10.439,0,0,1,79.3,447.324Z" transform="translate(-33.009 -404.947)"/><g transform="translate(0 0.001)"><g class="c"><g class="c" transform="translate(19.504 3.38)"><g class="d"><g class="c"><path class="e" d="M46.948,408.125l-.023,7.882c0-.415-.339-.8-.963-1.156a4.314,4.314,0,0,0-.578-.281l.021-7.882a4.237,4.237,0,0,1,.58.281c.624.36.965.741.963,1.156" transform="translate(-38.974 -406.422)"/><path class="f" d="M45.592,406.751l-.021,7.882a3.6,3.6,0,0,0-.358-.121l.023-7.882a3.75,3.75,0,0,1,.356.121" transform="translate(-39.161 -406.486)"/><path class="g" d="M45.377,406.665l-.023,7.882c-.09-.025-.18-.048-.27-.067l.023-7.882c.09.019.18.042.27.067" transform="translate(-39.302 -406.521)"/><path class="h" d="M45.228,406.619l-.023,7.882c-.077-.017-.155-.029-.232-.04L45,406.579c.077.01.155.023.232.04" transform="translate(-39.424 -406.541)"/><path class="i" d="M45.109,406.592l-.023,7.882c-.071-.01-.142-.019-.216-.025l.023-7.882c.071.006.144.015.216.025" transform="translate(-39.537 -406.554)"/><path class="j" d="M45.006,406.574l-.023,7.882c-.071-.006-.144-.01-.216-.01l.021-7.884c.073,0,.147.006.218.013" transform="translate(-39.649 -406.561)"/><path class="k" d="M44.908,406.561l-.021,7.884c-.075,0-.153,0-.23,0l.023-7.882c.077,0,.153,0,.228,0" transform="translate(-39.77 -406.561)"/><path class="l" d="M44.817,406.562l-.023,7.882c-.086,0-.174.008-.262.019l.023-7.884c.088-.008.176-.015.262-.017" transform="translate(-39.906 -406.56)"/><path class="m" d="M44.734,406.57l-.023,7.884c-.113.01-.228.027-.343.048l.021-7.882q.176-.031.346-.05" transform="translate(-40.086 -406.551)"/><path class="n" d="M44.722,406.594l-.021,7.882a4.814,4.814,0,0,0-.637.161l.023-7.882a4.777,4.777,0,0,1,.634-.161" transform="translate(-40.418 -406.525)"/><path class="o" d="M44.847,406.671l-.023,7.882a7.054,7.054,0,0,0-1.378.628l-.077.046.023-7.884.075-.044a7.058,7.058,0,0,1,1.38-.628" transform="translate(-41.179 -406.441)"/><path class="n" d="M43.869,406.992l-.023,7.884a5.672,5.672,0,0,0-.913.668l.023-7.882a5.668,5.668,0,0,1,.913-.67" transform="translate(-41.656 -406.089)"/><path class="m" d="M43.2,407.312l-.023,7.882a4.352,4.352,0,0,0-.461.492l.023-7.882a4.17,4.17,0,0,1,.461-.492" transform="translate(-41.896 -405.739)"/><path class="l" d="M42.9,407.547l-.023,7.882a3.773,3.773,0,0,0-.312.467l.023-7.882a3.561,3.561,0,0,1,.312-.467" transform="translate(-42.059 -405.482)"/><path class="k" d="M42.707,407.77l-.023,7.882a3.439,3.439,0,0,0-.23.5l.021-7.882a3.694,3.694,0,0,1,.232-.5" transform="translate(-42.18 -405.238)"/><path class="j" d="M42.566,408.008l-.021,7.882a3.955,3.955,0,0,0-.174.616l.021-7.882a3.958,3.958,0,0,1,.174-.616" transform="translate(-42.271 -404.978)"/><path class="i" d="M42.443,408.3l-.021,7.882a5.477,5.477,0,0,0-.1.951l.021-7.882a5.693,5.693,0,0,1,.1-.951" transform="translate(-42.322 -404.656)"/><path class="h" d="M42.346,408.756l-.021,7.882c0,.057,0,.115,0,.174l.021-7.882c0-.059,0-.117,0-.174" transform="translate(-42.323 -404.16)"/></g></g></g><g class="c" transform="translate(29.674 5.17)"><g class="p"><g class="c"><path class="h" d="M48.821,407.416,48.8,415.3v.059l.023-7.882v-.059" transform="translate(-45.41 -407.416)"/><path class="i" d="M48.845,407.444l-.023,7.882a2.293,2.293,0,0,1-.046.394l.023-7.882a2.294,2.294,0,0,0,.046-.394" transform="translate(-45.434 -407.385)"/><path class="j" d="M48.86,407.632l-.023,7.882a2.392,2.392,0,0,1-.117.4l.023-7.882a2.675,2.675,0,0,0,.117-.4" transform="translate(-45.495 -407.18)"/><path class="k" d="M48.85,407.825l-.023,7.882a3.189,3.189,0,0,1-.205.44l.023-7.882a3.186,3.186,0,0,0,.205-.44" transform="translate(-45.602 -406.969)"/><path class="l" d="M48.83,408.035l-.023,7.882a4.116,4.116,0,0,1-.354.523l.021-7.882a4.287,4.287,0,0,0,.356-.524" transform="translate(-45.787 -406.739)"/><path class="m" d="M48.809,408.285l-.021,7.882a6,6,0,0,1-.641.685l.023-7.882a5.958,5.958,0,0,0,.639-.685" transform="translate(-46.122 -406.465)"/><path class="n" d="M49.108,408.612l-.023,7.882A10.989,10.989,0,0,1,47.29,417.8l.023-7.882a10.987,10.987,0,0,0,1.795-1.311" transform="translate(-47.06 -406.108)"/><path class="o" d="M47.433,409.238l-.023,7.882c-.075.046-.151.09-.23.136l.023-7.882c.077-.046.155-.09.23-.136" transform="translate(-47.18 -405.423)"/></g></g></g><g transform="translate(28.847 9.122)"><path class="q" d="M47.635,409.3l-.022,7.882-.828.481.022-7.882Z" transform="translate(-46.785 -409.303)"/></g><g transform="translate(24.88 7.313)"><path class="r" d="M48.88,410.729l-.022,7.882-3.966-2.29.022-7.882Z" transform="translate(-44.891 -408.439)"/></g><g class="c" transform="translate(13.519 7.807)"><g class="s"><g class="c"><path class="e" d="M39.658,411.852l-.023,7.882c0-1.011-.172-2.083-.17-3.174l.023-7.884c0,1.093.172,2.165.17,3.177" transform="translate(-39.465 -408.675)"/></g></g></g><g transform="translate(7.064 11.287)"><path class="q" d="M38.306,410.337l-.022,7.882-1.9,1.1.022-7.882Z" transform="translate(-36.382 -410.337)"/></g><g class="c" transform="translate(5.645 12.393)"><g class="t"><g class="c"><path class="o" d="M36.464,410.865l-.023,7.882-.113.067.021-7.882.115-.067" transform="translate(-35.023 -410.865)"/><path class="n" d="M36.766,410.9l-.021,7.882a4.905,4.905,0,0,0-.8.58l.021-7.882a4.909,4.909,0,0,1,.8-.58" transform="translate(-35.44 -410.83)"/><path class="m" d="M36.1,411.174l-.021,7.882a2.383,2.383,0,0,0-.249.264l.023-7.882a2.554,2.554,0,0,1,.247-.264" transform="translate(-35.57 -410.527)"/><path class="l" d="M35.918,411.3l-.023,7.882a1.591,1.591,0,0,0-.128.191l.023-7.882a1.374,1.374,0,0,1,.128-.191" transform="translate(-35.637 -410.389)"/><path class="k" d="M35.828,411.391l-.023,7.882a1.142,1.142,0,0,0-.073.155l.023-7.882a.935.935,0,0,1,.073-.155" transform="translate(-35.675 -410.29)"/><path class="j" d="M35.776,411.465l-.023,7.882a.7.7,0,0,0-.04.14l.021-7.882a.891.891,0,0,1,.042-.14" transform="translate(-35.696 -410.209)"/><path class="i" d="M35.743,411.532l-.021,7.882a.711.711,0,0,0-.017.132l.023-7.882a.94.94,0,0,1,.015-.132" transform="translate(-35.705 -410.135)"/><path class="h" d="M35.728,411.6l-.022,7.882v.02l.022-7.882v-.02" transform="translate(-35.705 -410.066)"/></g></g></g><g class="c" transform="translate(0 11.358)"><g class="u"><g class="c"><path class="h" d="M42.431,410.371l-.023,7.882c0,.08,0,.159,0,.239l.023-7.882c0-.08,0-.159,0-.239" transform="translate(-22.731 -410.371)"/><path class="i" d="M42.49,410.485l-.023,7.882a6.886,6.886,0,0,1-.121,1.145l.023-7.882a6.91,6.91,0,0,0,.121-1.145" transform="translate(-22.794 -410.246)"/><path class="j" d="M42.495,411.032l-.023,7.882a5.351,5.351,0,0,1-.241.852l.023-7.882a5.354,5.354,0,0,0,.241-.852" transform="translate(-22.92 -409.648)"/><path class="k" d="M42.433,411.439l-.023,7.882a5.192,5.192,0,0,1-.343.739l.023-7.882a5.2,5.2,0,0,0,.343-.739" transform="translate(-23.1 -409.203)"/><path class="l" d="M42.342,411.792l-.023,7.882a5.584,5.584,0,0,1-.482.718l.021-7.882a5.613,5.613,0,0,0,.484-.718" transform="translate(-23.351 -408.816)"/><path class="m" d="M42.243,412.135l-.021,7.882a6.718,6.718,0,0,1-.737.792l.023-7.882a6.7,6.7,0,0,0,.735-.792" transform="translate(-23.736 -408.441)"/><path class="n" d="M42.388,412.513l-.023,7.882a9.978,9.978,0,0,1-1.684,1.24l.023-7.882a10.175,10.175,0,0,0,1.684-1.24" transform="translate(-24.616 -408.028)"/><path class="o" d="M42.328,413.105l-.023,7.882-.159.094a15.269,15.269,0,0,1-2.948,1.33l.023-7.882a15.262,15.262,0,0,0,2.948-1.33l.159-.094" transform="translate(-26.239 -407.38)"/><path class="n" d="M40.114,413.785l-.023,7.882a12.951,12.951,0,0,1-1.711.431l.023-7.882a13.385,13.385,0,0,0,1.711-.431" transform="translate(-27.133 -406.636)"/><path class="m" d="M38.908,413.991l-.023,7.882c-.322.059-.645.1-.967.136l.021-7.882c.322-.033.647-.077.97-.136" transform="translate(-27.639 -406.411)"/><path class="l" d="M38.349,414.056l-.021,7.882c-.262.025-.523.044-.785.052l.021-7.882c.262-.008.523-.027.785-.052" transform="translate(-28.049 -406.34)"/><path class="k" d="M37.93,414.081l-.021,7.882c-.235.008-.467.01-.7,0l.023-7.882c.232.006.467,0,.7,0" transform="translate(-28.415 -406.312)"/><path class="j" d="M37.581,414.1l-.023,7.882c-.224-.006-.448-.019-.67-.036l.021-7.882c.224.017.448.029.672.036" transform="translate(-28.765 -406.329)"/><path class="i" d="M37.266,414.107l-.021,7.882c-.228-.019-.454-.044-.683-.077l.023-7.882c.226.031.454.059.681.077" transform="translate(-29.122 -406.369)"/><path class="h" d="M36.969,414.1l-.023,7.882c-.245-.033-.49-.077-.735-.128l.023-7.882c.245.05.49.094.735.128" transform="translate(-29.506 -406.436)"/><path class="g" d="M36.685,414.08l-.023,7.882c-.289-.061-.576-.13-.863-.214l.021-7.882c.287.084.576.153.865.214" transform="translate(-29.957 -406.548)"/><path class="f" d="M36.414,414.067l-.021,7.882q-.572-.163-1.137-.385l.023-7.882q.565.223,1.135.385" transform="translate(-30.551 -406.749)"/><path class="e" d="M37.737,415.99l-.023,7.882a13.158,13.158,0,0,1-1.767-.857c-1.977-1.141-2.942-2.345-2.938-3.562l.021-7.882c0,1.217.961,2.421,2.94,3.562a13.287,13.287,0,0,0,1.767.856" transform="translate(-33.009 -409.057)"/></g></g></g><g transform="translate(0.022)"><path class="v" d="M63.191,406.61c4.09,2.362,3.767,4.982-.5,7.459l-.827.482L57.9,412.259l1.106-.641c1.885-1.1,1.849-1.97.507-2.745s-2.835-.783-4.722.312c-5.474,3.181,1.725,8.527-5.863,12.939a12.442,12.442,0,0,1-12.968.258c-4.121-2.379-3.842-5.026.419-7.5L38,413.935l3.981,2.3-1.9,1.106c-1.9,1.1-1.742,1.977-.4,2.754a4.4,4.4,0,0,0,4.753-.241c5.474-3.183-1.711-8.518,5.88-12.93C54.581,404.445,59.1,404.25,63.191,406.61Z" transform="translate(-33.019 -404.947)"/></g></g><g class="c" transform="translate(11.919 6.831)"><g transform="translate(26.999 4.625)"><path class="r" d="M53.608,411.567l-.022,7.882L51.595,418.3l.022-7.882Z" transform="translate(-51.595 -410.418)"/></g><g class="c" transform="translate(28.989 5.775)"><g class="w"><g class="c"><path class="e" d="M53.565,412.106l-.023,7.882c0-.4-.358-.771-1-1.139l.023-7.882c.637.369,1,.735,1,1.139" transform="translate(-52.545 -410.967)"/></g></g></g><g transform="translate(17.998 4.625)"><path class="q" d="M56.319,410.418,56.3,418.3l-9,5.231.022-7.882Z" transform="translate(-47.296 -410.418)"/></g><g class="c" transform="translate(32.48 7.159)"><g class="x"><g class="c"><path class="h" d="M55.82,411.628,55.8,419.51v.057l.021-7.882,0-.057" transform="translate(-52.478 -411.628)"/><path class="i" d="M55.841,411.655l-.021,7.882a2.364,2.364,0,0,1-.044.381l.021-7.882a1.97,1.97,0,0,0,.044-.381" transform="translate(-52.501 -411.598)"/><path class="j" d="M55.856,411.837l-.021,7.882a2.73,2.73,0,0,1-.113.389l.023-7.882a2.479,2.479,0,0,0,.111-.389" transform="translate(-52.56 -411.399)"/><path class="k" d="M55.849,412.023l-.023,7.882a2.963,2.963,0,0,1-.2.423l.023-7.882a2.963,2.963,0,0,0,.2-.423" transform="translate(-52.664 -411.196)"/><path class="l" d="M55.828,412.225l-.023,7.882a3.827,3.827,0,0,1-.341.5l.021-7.882a3.848,3.848,0,0,0,.343-.5" transform="translate(-52.842 -410.975)"/><path class="m" d="M55.809,412.466l-.021,7.882a5.61,5.61,0,0,1-.62.662l.023-7.882a5.59,5.59,0,0,0,.618-.662" transform="translate(-53.166 -410.711)"/><path class="n" d="M56.115,412.782l-.023,7.882a10.675,10.675,0,0,1-1.769,1.292l.021-7.882a10.914,10.914,0,0,0,1.772-1.292" transform="translate(-54.091 -410.365)"/><path class="o" d="M54.465,413.4l-.021,7.882q-.113.069-.232.138l.023-7.882.23-.138" transform="translate(-54.212 -409.691)"/></g></g></g><g transform="translate(29.015 11.005)"><path class="q" d="M56.045,413.465l-.022,7.882-3.465,2.014.022-7.882Z" transform="translate(-52.557 -413.465)"/></g><g transform="translate(14.195 12.066)"><path class="r" d="M47.493,415.121,47.471,423l-1.991-1.149.022-7.882Z" transform="translate(-45.48 -413.971)"/></g><g class="c" transform="translate(16.186 13.018)"><g class="y"><g class="c"><path class="o" d="M54.116,414.426l-.023,7.882a15.039,15.039,0,0,1-2.94,1.33l.023-7.882a15.04,15.04,0,0,0,2.94-1.33" transform="translate(-41.265 -414.426)"/><path class="n" d="M52.039,415.061l-.023,7.882a12.5,12.5,0,0,1-1.652.419l.023-7.882a12.555,12.555,0,0,0,1.652-.419" transform="translate(-42.128 -413.731)"/><path class="m" d="M50.871,415.261l-.023,7.882c-.308.054-.618.1-.926.13l.023-7.882c.308-.031.618-.075.926-.13" transform="translate(-42.612 -413.513)"/><path class="l" d="M50.338,415.323l-.023,7.882c-.251.025-.5.042-.752.05l.023-7.882c.249-.008.5-.025.752-.05" transform="translate(-43.005 -413.445)"/><path class="k" d="M49.937,415.347l-.023,7.882c-.224.008-.448.008-.672,0l.023-7.882c.224,0,.448,0,.672,0" transform="translate(-43.356 -413.418)"/><path class="j" d="M49.6,415.368l-.023,7.882c-.216-.006-.431-.017-.649-.036l.023-7.882c.216.019.431.029.649.036" transform="translate(-43.695 -413.435)"/><path class="i" d="M49.3,415.37l-.023,7.882c-.22-.019-.44-.042-.662-.073l.023-7.882c.22.031.442.054.662.073" transform="translate(-44.041 -413.473)"/><path class="h" d="M49.013,415.363l-.023,7.882c-.239-.036-.477-.075-.716-.126l.023-7.882c.239.05.477.09.716.126" transform="translate(-44.415 -413.539)"/><path class="g" d="M48.743,415.348l-.023,7.882c-.285-.059-.57-.13-.854-.209l.023-7.884c.285.082.57.153.854.212" transform="translate(-44.861 -413.649)"/><path class="f" d="M48.485,415.338l-.023,7.884c-.381-.111-.762-.239-1.141-.39l.021-7.882c.381.151.762.279,1.143.387" transform="translate(-45.457 -413.852)"/><path class="e" d="M48.316,415.423l-.021,7.882a13.941,13.941,0,0,1-1.864-.9l.023-7.882a13.915,13.915,0,0,0,1.862.9" transform="translate(-46.431 -414.323)"/></g></g></g><g transform="translate(4.198 12.066)"><path class="q" d="M50.726,413.971l-.022,7.882-10,5.81.022-7.882Z" transform="translate(-40.706 -413.971)"/></g><g transform="translate(0.023)"><path class="v" d="M71.489,411.783c4.2,2.423,3.949,4.963-.3,7.432l-3.466,2.012a12.135,12.135,0,0,1-12.828.2l-1.991-1.15-10,5.811-4.2-2.425L65.3,408.209Zm-8.221,7.172,3.987-2.316c1.9-1.106,1.788-1.88.446-2.655l-1.991-1.15-9,5.231,1.991,1.15c1.342.775,2.666.846,4.567-.26" transform="translate(-38.712 -408.209)"/></g><g transform="translate(0 15.452)"><path class="r" d="M42.921,418.012l-.022,7.882-4.2-2.424.022-7.882Z" transform="translate(-38.701 -415.588)"/></g></g><g class="c" transform="translate(26.319 15.144)"><g transform="translate(27.014 4.635)"><path class="r" d="M60.523,415.56l-.022,7.882-2.022-1.167.022-7.882Z" transform="translate(-58.479 -414.392)"/></g><g class="c" transform="translate(29.036 5.803)"><g class="z"><g class="c"><path class="e" d="M60.458,416.116,60.437,424c0-.4-.331-.785-.993-1.166l.023-7.882c.662.381.993.764.99,1.166" transform="translate(-59.444 -414.95)"/></g></g></g><g transform="translate(19.976 4.635)"><path class="q" d="M62.178,414.392l-.022,7.882-7.038,4.09.022-7.882Z" transform="translate(-55.118 -414.392)"/></g><g class="c" transform="translate(33.065 7.293)"><g class="aa"><g class="c"><path class="h" d="M62.874,415.662l-.023,7.882v.052l.023-7.884v-.05" transform="translate(-59.746 -415.662)"/><path class="i" d="M62.895,415.686l-.023,7.884a2.06,2.06,0,0,1-.04.335l.023-7.882a2.057,2.057,0,0,0,.04-.337" transform="translate(-59.766 -415.636)"/><path class="j" d="M62.906,415.847l-.023,7.882a1.9,1.9,0,0,1-.1.341l.023-7.882a2.324,2.324,0,0,0,.1-.341" transform="translate(-59.818 -415.46)"/><path class="k" d="M62.9,416.01l-.023,7.882a2.518,2.518,0,0,1-.176.375l.023-7.882a2.516,2.516,0,0,0,.176-.375" transform="translate(-59.91 -415.281)"/><path class="l" d="M62.882,416.189l-.023,7.882a3.619,3.619,0,0,1-.3.444l.023-7.882a3.627,3.627,0,0,0,.3-.444" transform="translate(-60.067 -415.085)"/><path class="m" d="M62.87,416.4l-.023,7.882a4.96,4.96,0,0,1-.555.593l.023-7.882a5.307,5.307,0,0,0,.555-.593" transform="translate(-60.357 -414.853)"/><path class="n" d="M63.2,416.684l-.023,7.882a10.476,10.476,0,0,1-1.7,1.238l.023-7.884a10.442,10.442,0,0,0,1.7-1.235" transform="translate(-61.245 -414.544)"/><path class="o" d="M61.626,417.274l-.023,7.884-.235.138.021-7.882c.082-.046.159-.092.237-.14" transform="translate(-61.368 -413.898)"/></g></g></g><g transform="translate(32.113 10.81)"><path class="q" d="M61.887,417.341l-.022,7.882-.951.552.022-7.882Z" transform="translate(-60.914 -417.341)"/></g><g transform="translate(16.189 10.926)"><path class="r" d="M55.2,418.475l-.022,7.882-1.867-1.078.022-7.882Z" transform="translate(-53.309 -417.397)"/></g><g class="c" transform="translate(24.029 11.362)"><g class="ab"><g class="c"><path class="o" d="M62.393,417.605l-.021,7.882a14.3,14.3,0,0,1-2.791,1.269l.021-7.882a14.2,14.2,0,0,0,2.791-1.269" transform="translate(-54.287 -417.605)"/><path class="n" d="M60.327,418.211l-.021,7.882a10.965,10.965,0,0,1-1.388.35l.021-7.884a10.86,10.86,0,0,0,1.388-.348" transform="translate(-55.013 -416.942)"/><path class="m" d="M59.354,418.377l-.021,7.884c-.266.046-.53.084-.794.111l.021-7.882c.266-.027.53-.065.794-.113" transform="translate(-55.427 -416.761)"/><path class="l" d="M58.9,418.431l-.021,7.882c-.214.021-.427.036-.643.042l.023-7.882c.214-.006.427-.021.641-.042" transform="translate(-55.763 -416.701)"/><path class="k" d="M58.558,418.451l-.023,7.882c-.193.006-.387.008-.58,0l.021-7.882c.195.006.389,0,.582,0" transform="translate(-56.066 -416.68)"/><path class="j" d="M58.276,418.467l-.021,7.882c-.191,0-.383-.015-.574-.029l.021-7.882c.193.015.383.025.574.029" transform="translate(-56.366 -416.694)"/><path class="i" d="M58.018,418.474,58,426.356c-.2-.017-.4-.04-.605-.069l.023-7.882q.3.044.6.069" transform="translate(-56.682 -416.73)"/><path class="h" d="M57.768,418.466l-.023,7.882c-.224-.031-.448-.071-.676-.117l.023-7.882c.226.046.452.086.676.117" transform="translate(-57.036 -416.791)"/><path class="g" d="M57.11,418.353l-.023,7.882-.034-.006.023-7.884.034.008" transform="translate(-57.053 -416.795)"/></g></g></g><g class="c" transform="translate(18.057 12.003)"><g class="ac"><g class="c"><path class="e" d="M55.612,419.425l-.023,7.882c0-.511-.484-.991-1.388-1.512l.021-7.884c.907.523,1.39,1,1.39,1.514" transform="translate(-54.201 -417.911)"/></g></g></g><g transform="translate(8.016 10.926)"><path class="q" d="M57.6,417.4l-.022,7.882-8.173,4.749.022-7.882Z" transform="translate(-49.406 -417.397)"/></g><g class="c" transform="translate(21.474 14.455)"><g class="ad"><g class="c"><path class="h" d="M57.357,419.082l-.023,7.882v.052l.021-7.882,0-.052" transform="translate(-54.191 -419.082)"/><path class="i" d="M57.376,419.107l-.021,7.882a2.132,2.132,0,0,1-.04.343l.021-7.882a1.92,1.92,0,0,0,.04-.343" transform="translate(-54.212 -419.055)"/><path class="j" d="M57.39,419.271l-.021,7.882a2.374,2.374,0,0,1-.1.35l.023-7.882a2.131,2.131,0,0,0,.1-.35" transform="translate(-54.265 -418.875)"/><path class="k" d="M57.382,419.438l-.023,7.882a2.5,2.5,0,0,1-.178.381l.021-7.882a2.515,2.515,0,0,0,.18-.381" transform="translate(-54.358 -418.693)"/><path class="l" d="M57.361,419.62,57.34,427.5a3.787,3.787,0,0,1-.3.45l.023-7.884a3.365,3.365,0,0,0,.3-.448" transform="translate(-54.517 -418.494)"/><path class="m" d="M57.358,419.834l-.023,7.884a5.288,5.288,0,0,1-.572.611l.021-7.882a5.156,5.156,0,0,0,.574-.614" transform="translate(-54.816 -418.259)"/><path class="n" d="M57.67,420.127l-.021,7.882a10.6,10.6,0,0,1-1.7,1.235l.023-7.882a10.573,10.573,0,0,0,1.694-1.235" transform="translate(-55.702 -417.939)"/><path class="o" d="M56.107,420.717l-.023,7.882c-.082.05-.165.1-.251.149l.023-7.882c.086-.05.17-.1.251-.149" transform="translate(-55.833 -417.293)"/></g></g></g><g transform="translate(19.312 18.027)"><path class="q" d="M56.985,420.788l-.022,7.882L54.8,429.926l.022-7.882Z" transform="translate(-54.801 -420.788)"/></g><g transform="translate(0 15.452)"><path class="r" d="M52.221,423.381l-.022,7.882-6.621-3.823.022-7.882Z" transform="translate(-45.578 -419.558)"/></g><g transform="translate(0.021)"><path class="v" d="M69.619,425.091c1.38,1.809.251,3.484-2.555,5.116L64.9,431.463a12.065,12.065,0,0,1-12.692-.008l-6.621-3.824,26.59-15.452,6.343,3.662c4.368,2.523,4.226,4.768.132,7.147l-.951.553A10.943,10.943,0,0,1,69.619,425.091Zm-8.807,3.886,2.314-1.346c2.469-1.435,2.433-2.343.519-3.449l-1.868-1.076-8.171,4.749,2.406,1.388c1.405.812,2.821.884,4.8-.266M72.6,416.813l-7.038,4.09,1.635.946a4.861,4.861,0,0,0,5.352-.18l1.472-.854c1.9-1.106,2.1-1.97.6-2.833L72.6,416.813" transform="translate(-45.588 -412.179)"/></g><g class="c" transform="translate(6.622 19.275)"><g class="ae"><g class="c"><path class="o" d="M56.232,421.388l-.021,7.882a13.886,13.886,0,0,1-2.7,1.217l.023-7.882a13.988,13.988,0,0,0,2.7-1.217" transform="translate(-43.519 -421.38)"/><path class="n" d="M54.36,421.969l-.023,7.882a11.932,11.932,0,0,1-1.579.4l.021-7.882a11.87,11.87,0,0,0,1.581-.4" transform="translate(-44.344 -420.744)"/><path class="m" d="M53.257,422.159l-.021,7.882c-.3.057-.609.1-.915.13l.023-7.882c.306-.031.609-.073.913-.13" transform="translate(-44.822 -420.536)"/><path class="l" d="M52.73,422.221l-.023,7.882c-.245.023-.492.04-.739.05l.021-7.884c.247-.008.494-.025.741-.048" transform="translate(-45.209 -420.468)"/><path class="k" d="M52.342,422.244l-.021,7.884c-.226.006-.45.008-.676,0l.023-7.882c.226.006.45,0,.674,0" transform="translate(-45.562 -420.443)"/><path class="j" d="M52.01,422.265l-.023,7.882c-.218-.006-.438-.017-.655-.036l.023-7.882c.218.019.438.029.655.036" transform="translate(-45.904 -420.46)"/><path class="i" d="M51.708,422.268l-.023,7.882c-.226-.019-.45-.044-.676-.075l.023-7.882c.224.031.45.057.676.075" transform="translate(-46.258 -420.499)"/><path class="h" d="M51.417,422.261l-.023,7.882c-.245-.036-.492-.077-.737-.13l.021-7.882c.247.052.492.094.739.13" transform="translate(-46.643 -420.567)"/><path class="g" d="M51.131,422.243l-.021,7.882c-.289-.059-.578-.13-.867-.211l.023-7.884c.289.084.578.155.865.214" transform="translate(-47.096 -420.678)"/><path class="f" d="M50.892,422.241l-.023,7.884q-.6-.173-1.2-.408l.021-7.882q.6.236,1.2.406" transform="translate(-47.721 -420.891)"/><path class="e" d="M50.71,422.328l-.021,7.882a14.59,14.59,0,0,1-1.95-.944l.021-7.882a14.7,14.7,0,0,0,1.95.944" transform="translate(-48.74 -421.384)"/></g></g></g></g><g class="c" transform="translate(44.642 23.993)"><g transform="translate(7.303 2.433)"><path class="q" d="M78.339,417.567l-.022,7.882-20.5,11.914.022-7.882Z" transform="translate(-57.816 -417.567)"/></g><g class="c" transform="translate(5.878 14.346)"><g class="af"><g class="c" transform="translate(-0.001)"><path class="o" d="M57.9,423.256l-.021,7.882-.115.069.021-7.882.115-.069" transform="translate(-56.449 -423.256)"/><path class="n" d="M58.2,423.289l-.021,7.882a5.057,5.057,0,0,0-.8.58l.023-7.882a5.041,5.041,0,0,1,.8-.58" transform="translate(-56.868 -423.22)"/><path class="m" d="M57.531,423.566l-.023,7.882a2.609,2.609,0,0,0-.249.268l.021-7.882a2.425,2.425,0,0,1,.251-.268" transform="translate(-56.999 -422.917)"/><path class="l" d="M57.348,423.694l-.021,7.882a1.639,1.639,0,0,0-.13.193l.023-7.884a1.6,1.6,0,0,1,.128-.191" transform="translate(-57.066 -422.777)"/><path class="k" d="M57.258,423.785l-.023,7.884a1.148,1.148,0,0,0-.073.155l.021-7.882a1.326,1.326,0,0,1,.075-.157" transform="translate(-57.105 -422.677)"/><path class="j" d="M57.2,423.86l-.021,7.882a1,1,0,0,0-.042.142L57.165,424a.9.9,0,0,1,.04-.142" transform="translate(-57.127 -422.595)"/><path class="i" d="M57.173,423.928l-.023,7.882a.73.73,0,0,0-.015.134l.021-7.882a.977.977,0,0,1,.017-.134" transform="translate(-57.134 -422.521)"/><path class="h" d="M57.157,423.992l-.022,7.882v.02l.022-7.882v-.02" transform="translate(-57.135 -422.451)"/></g></g></g><g transform="translate(15.898 7.244)"><path class="q" d="M82.183,419.865l-.022,7.882L61.92,439.509l.022-7.882Z" transform="translate(-61.92 -419.865)"/></g><g transform="translate(0.022)"><path class="v" d="M90.478,423.65,70.237,435.412a12.454,12.454,0,0,1-12.951.266c-4.136-2.387-3.845-5.042.4-7.511l20.241-11.762,4.213,2.433-20.5,11.913c-1.9,1.106-1.757,1.987-.415,2.762a4.416,4.416,0,0,0,4.768-.249l20.5-11.913Z" transform="translate(-54.338 -416.405)"/></g><g class="c" transform="translate(0 15.701)"><g class="ag"><g class="c"><path class="o" d="M63.479,425.482l-.023,7.882a15.247,15.247,0,0,1-2.94,1.326l.023-7.882a15.247,15.247,0,0,0,2.94-1.326" transform="translate(-47.558 -422.176)"/><path class="n" d="M61.435,426.115,61.412,434a13.349,13.349,0,0,1-1.715.433l.023-7.884a13.112,13.112,0,0,0,1.715-.431" transform="translate(-48.454 -421.483)"/><path class="m" d="M60.229,426.321l-.023,7.884c-.325.059-.649.1-.974.136l.023-7.882q.487-.05.974-.138" transform="translate(-48.963 -421.258)"/><path class="l" d="M59.666,426.387l-.023,7.882c-.262.025-.526.044-.787.052l.023-7.882c.262-.008.526-.027.787-.052" transform="translate(-49.374 -421.186)"/><path class="k" d="M59.247,426.412l-.023,7.882c-.235.008-.469.011-.7,0l.023-7.882c.235,0,.469,0,.7,0" transform="translate(-49.742 -421.158)"/><path class="j" d="M58.894,426.434l-.023,7.882c-.224-.006-.448-.019-.672-.036l.023-7.884q.336.028.672.038" transform="translate(-50.093 -421.176)"/><path class="i" d="M58.578,426.435l-.023,7.884c-.226-.019-.454-.046-.681-.077l.021-7.882c.228.031.454.059.683.075" transform="translate(-50.449 -421.215)"/><path class="h" d="M58.28,426.427l-.021,7.882c-.247-.036-.492-.077-.737-.128l.023-7.882c.245.05.49.092.735.128" transform="translate(-50.834 -421.282)"/><path class="g" d="M58,426.411l-.023,7.882c-.289-.061-.576-.132-.863-.214l.023-7.882c.287.082.574.153.863.214" transform="translate(-51.284 -421.393)"/><path class="f" d="M57.724,426.4l-.023,7.882c-.379-.107-.756-.237-1.131-.383l.023-7.882q.562.22,1.131.383" transform="translate(-51.875 -421.594)"/><path class="e" d="M59.046,428.323l-.023,7.882a13.27,13.27,0,0,1-1.748-.848c-1.985-1.145-2.95-2.354-2.946-3.572l.021-7.882c0,1.219.963,2.427,2.948,3.572a13.149,13.149,0,0,0,1.748.848" transform="translate(-54.328 -423.903)"/></g></g></g></g></g></g></svg>