<svg xmlns="http://www.w3.org/2000/svg" xmlns:xlink="http://www.w3.org/1999/xlink" width="110.599" height="70.72" viewBox="0 0 110.599 70.72"><defs><style>.a,.b{fill:none;}.b{stroke:#155e85;stroke-linejoin:round;stroke-width:2px;}.c{isolation:isolate;}.d{clip-path:url(#a);}.e{fill:#155d83;}.f{fill:#165f86;}.g{fill:#186289;}.h{fill:#19648d;}.i{fill:#1a6790;}.j{fill:#1c6993;}.k{fill:#1d6c96;}.l{fill:#1e6e9a;}.m{fill:#20719e;}.n{fill:#2174a1;}.o{fill:#247bab;}.p{fill:#155e85;}.q{clip-path:url(#b);}.r{clip-path:url(#c);}.s{clip-path:url(#d);}.t{fill:#fff;}.u{fill:#19658d;}.v{fill:#145c82;}.w{fill:#135a80;}.x{fill:#1b6791;}.y{clip-path:url(#e);}.z{clip-path:url(#f);}</style><clipPath id="a"><path class="a" d="M-239.491,456.233l.1-7.811c.006-.41.333-.777.9-1.108,1.265-.731,2.789-.76,4.691.383l-.1,7.811c-1.9-1.143-3.426-1.112-4.691-.381C-239.158,455.456-239.485,455.822-239.491,456.233Z" transform="translate(239.491 -446.797)"/></clipPath><clipPath id="b"><path class="a" d="M-242.2,455.373l.1-7.811c-.017,1.349,1.16,2.749,3.459,4.134l-.1,7.811C-241.042,458.124-242.219,456.723-242.2,455.373Z" transform="translate(242.202 -447.562)"/></clipPath><clipPath id="c"><path class="a" d="M-228.422,452.969l-.1,7.813c.006-.477-.431-1.011-1.441-1.617l.1-7.813C-228.853,451.959-228.416,452.493-228.422,452.969Z" transform="translate(229.959 -451.352)"/></clipPath><clipPath id="d"><path class="a" d="M-218.562,452.212l-.1,7.811c-.015,1.154-.9,2.272-2.7,3.311-3.889,2.245-8.332,1.956-12.6-.607l.1-7.811c4.263,2.561,8.707,2.852,12.6.605C-219.46,454.482-218.575,453.366-218.562,452.212Z" transform="translate(233.953 -452.212)"/></clipPath><clipPath id="e"><path class="a" d="M-256.659,469.315l-.1,7.811c.006-.477-.438-1.013-1.462-1.629l.1-7.813C-257.1,468.3-256.653,468.836-256.659,469.315Z" transform="translate(258.217 -467.684)"/></clipPath><clipPath id="f"><path class="a" d="M-246.824,468.55l-.1,7.811c-.015,1.152-.892,2.266-2.68,3.3-3.891,2.245-8.349,1.948-12.6-.607l.1-7.811c4.247,2.553,8.707,2.852,12.6.607C-247.716,470.816-246.839,469.7-246.824,468.55Z" transform="translate(262.196 -468.55)"/></clipPath></defs><g transform="translate(1 1.061)"><path class="b" d="M-173.321,455.687l-8.435-5.072-2.846,1.644.042-3.329-2.576-1.55c-4.263-2.563-8.707-2.852-12.612-.6-1.864,1.074-2.716,2.239-2.657,3.44,0-.048-.029-.1-.029-.142l-.061,4.982-5.388-3.239-3.535,2.039-.046,3.807-4.029-1.453-4.969,2.869-.073,5.951-5.777-2.576-5.8,3.35-.1,7.813,9.023,7.333-7.383-2.067-6.328-10.315-3.966,2.289-.075,6.085-5.126-3.082-3.966,2.291-.038,3.16-2.664-1.6-3.75,2.165-.059,4.8-4.046-2.431-3.966,2.289-.023,1.8-1.52-.913-12.271,7.084-.1,7.811,3.8,2.287,4.15-2.4,22.785,13.7,3.966-2.291.084-6.713c.448.243.9.465,1.353.655.086.036.17.094.255.128.182.073.364.126.547.188s.354.13.532.184c.086.027.172.065.258.088.32.094.639.174.959.241l.14.023.161.029c.163.029.329.063.492.086.241.034.482.061.72.08l.226.01.144.006c.109.006.216.013.325.015.234.006.471,0,.708-.008.126-.006.251-.021.377-.031.061,0,.121-.008.18-.015s.144-.008.218-.017c.337-.04.676-.1,1.009-.167.042-.008.082-.027.121-.036.362-.084.716-.2,1.072-.322.176-.059.352-.1.526-.167a11.7,11.7,0,0,0,1.552-.745,9.094,9.094,0,0,0,1.217-.833c.017-.015.042-.027.057-.04a5.267,5.267,0,0,0,.662-.647c.017-.019.027-.038.042-.057s.044-.061.067-.092a3.485,3.485,0,0,0,.243-.335,2.955,2.955,0,0,0,.214-.421l0-.01,0-.021a2.348,2.348,0,0,0,.115-.362,2.519,2.519,0,0,0,.054-.392l0-.088.065-5.2,5.514,3.315,3.966-2.289.054-4.385,5.04,1.445,4.073-2.354.013-1.02.729.593,3.644-2.1.069-5.717.672-.387,5.509,2.494,4-2.308.025-2.113,1.78,1.07,3.564-2.058.059-4.611,4.881,1.761,4.075-2.354.044-3.6c.241.065.484.13.725.18.046.01.094.017.14.025s.107.017.159.027c.163.029.329.063.492.086.239.034.48.061.718.08l.226.01.149.006c.1.006.211.015.316.017.235,0,.471,0,.706-.01.128-.006.255-.021.383-.031.061,0,.121-.009.182-.015s.138-.008.207-.017c.337-.04.674-.1,1.009-.168.042-.008.082-.027.124-.038a10.952,10.952,0,0,0,1.07-.32c.176-.059.356-.1.53-.17a11.564,11.564,0,0,0,1.552-.745,9.352,9.352,0,0,0,1.229-.842c.017-.015.044-.027.061-.042a5.447,5.447,0,0,0,.664-.649c.015-.019.025-.036.038-.052s.044-.061.067-.09a3.927,3.927,0,0,0,.249-.343,3.046,3.046,0,0,0,.211-.421l0-.008,0-.015a2.48,2.48,0,0,0,.115-.368,2.316,2.316,0,0,0,.054-.394l0-.086.1-7.811a2.23,2.23,0,0,1-.073.362C-169.684,458.719-170.817,457.194-173.321,455.687Zm3.283,4.977,0,.015a3.047,3.047,0,0,1-.249.412,2.8,2.8,0,0,0,.274-.532C-170.029,460.6-170.023,460.631-170.038,460.664Zm-.463.777-.006.011c-.023.029-.042.061-.065.09a5.518,5.518,0,0,1-.486.473A5.061,5.061,0,0,0-170.5,461.441Zm-26.07-11.846.029-.042Zm-.153.3.008-.025Zm21.357,9.691a.821.821,0,0,0-.044-.205A.821.821,0,0,1-175.367,459.59Zm-.243-.586a1.817,1.817,0,0,1,.149.226A1.817,1.817,0,0,0-175.61,459Zm-.113-.155a3.578,3.578,0,0,0-.285-.264A3.578,3.578,0,0,1-175.723,458.849Zm-.442-.4a6.613,6.613,0,0,0-.632-.427A6.613,6.613,0,0,1-176.165,458.445ZM-195.853,449a3.36,3.36,0,0,0-.423.289A3.36,3.36,0,0,1-195.853,449Zm-4.582,4.215c-.14-.111-.237-.222-.362-.333C-200.671,452.99-200.575,453.1-200.434,453.212Zm-1.719-2a2.7,2.7,0,0,1-.134-.419A2.63,2.63,0,0,0-202.153,451.21Zm.658,1c-.115-.134-.186-.264-.281-.4C-201.682,451.945-201.611,452.075-201.5,452.209Zm-28.541,43.842c-.052.057-.109.111-.168.165.059-.057.107-.113.163-.17Zm-4.481-2.253a.774.774,0,0,0-.046-.207A.774.774,0,0,1-234.518,493.8Zm-.251-.588a1.709,1.709,0,0,1,.155.228A1.709,1.709,0,0,0-234.77,493.209Z" transform="translate(278.465 -445.259)"/><g class="c" transform="translate(75.935)"><g class="c" transform="translate(5.677 3.22)"><g class="d"><g class="c" transform="translate(0 0)"><path class="e" d="M-236.164,447.508l-.1,7.811a7.4,7.4,0,0,0-1.07-.536l.1-7.813a7.648,7.648,0,0,1,1.07.538" transform="translate(241.855 -446.608)"/><path class="f" d="M-236.956,447.066l-.1,7.813a5.369,5.369,0,0,0-.532-.184l.1-7.813a5.355,5.355,0,0,1,.532.184" transform="translate(241.577 -446.704)"/><path class="g" d="M-237.3,446.928l-.1,7.813c-.119-.036-.239-.065-.354-.088l.1-7.813c.117.025.234.054.354.088" transform="translate(241.392 -446.75)"/><path class="h" d="M-237.506,446.866l-.1,7.813q-.144-.032-.289-.05l.1-7.813c.094.012.191.029.287.05" transform="translate(241.241 -446.776)"/><path class="i" d="M-237.661,446.83l-.1,7.813c-.084-.013-.17-.023-.251-.029l.1-7.811c.084.006.168.015.253.027" transform="translate(241.11 -446.79)"/><path class="j" d="M-237.789,446.81l-.1,7.811c-.082-.006-.161-.01-.241-.01l.1-7.813q.116,0,.239.013" transform="translate(240.984 -446.797)"/><path class="k" d="M-237.9,446.8l-.1,7.813c-.08,0-.159,0-.239,0l.1-7.811c.08,0,.159,0,.241,0" transform="translate(240.86 -446.797)"/><path class="l" d="M-238.007,446.8l-.1,7.811c-.088,0-.176.013-.262.023l.1-7.813c.086-.01.174-.017.262-.021" transform="translate(240.723 -446.795)"/><path class="m" d="M-238.093,446.809l-.1,7.813c-.113.013-.226.031-.337.054l.1-7.811a2.948,2.948,0,0,1,.335-.057" transform="translate(240.547 -446.784)"/><path class="n" d="M-237.616,446.836l-.1,7.811a3.873,3.873,0,0,0-1.116.438,2.963,2.963,0,0,0-.438.3l.1-7.813a3.111,3.111,0,0,1,.438-.3,3.8,3.8,0,0,1,1.118-.436" transform="translate(239.735 -446.754)"/><path class="m" d="M-239.057,447.187l-.1,7.813a1.784,1.784,0,0,0-.22.214l.1-7.811a1.966,1.966,0,0,1,.22-.216" transform="translate(239.62 -446.37)"/><path class="l" d="M-239.215,447.29l-.1,7.811a1.372,1.372,0,0,0-.117.161l.1-7.811a1.147,1.147,0,0,1,.115-.161" transform="translate(239.559 -446.258)"/><path class="k" d="M-239.294,447.367l-.1,7.811a1.06,1.06,0,0,0-.069.138l.1-7.811a.784.784,0,0,1,.071-.138" transform="translate(239.523 -446.173)"/><path class="j" d="M-239.344,447.433l-.1,7.811a1.066,1.066,0,0,0-.042.132l.1-7.811a.965.965,0,0,1,.042-.132" transform="translate(239.501 -446.101)"/><path class="i" d="M-239.377,447.5l-.1,7.811a.947.947,0,0,0-.017.132l.1-7.811a.9.9,0,0,1,.017-.132" transform="translate(239.492 -446.032)"/><path class="h" d="M-239.393,447.559l-.1,7.811,0,.029.1-7.811,0-.029" transform="translate(239.491 -445.963)"/></g></g></g><g transform="translate(14.123 3.669)"><path class="o" d="M-231.611,447.012l-.1,7.812-3.75,2.165.1-7.812Z" transform="translate(235.458 -447.012)"/></g><g transform="translate(11.271 4.12)"><path class="p" d="M-233.871,448.942l-.1,7.812-2.852-1.715.1-7.812Z" transform="translate(236.819 -447.227)"/></g><g class="c" transform="translate(0 4.822)"><g class="q"><g class="c"><path class="e" d="M-238.646,451.7l-.1,7.811c-2.3-1.382-3.476-2.783-3.459-4.134l.1-7.811c-.017,1.349,1.16,2.749,3.459,4.134" transform="translate(242.202 -447.562)"/></g></g></g><g transform="translate(18.925 9.808)"><path class="o" d="M-231.262,449.943l-.1,7.812-1.806,1.043.1-7.812Z" transform="translate(233.164 -449.943)"/></g><g transform="translate(15.123 8.564)"><path class="p" d="M-231.081,451.636l-.1,7.812-3.8-2.286.1-7.812Z" transform="translate(234.98 -449.349)"/></g><g transform="translate(20.731 9.808)"><path class="p" d="M-227.3,452.893l-.1,7.812-4.906-2.95.1-7.812Z" transform="translate(232.302 -449.943)"/></g><g class="c" transform="translate(25.637 12.758)"><g class="r"><g class="c"><path class="e" d="M-228.422,452.969l-.1,7.813c.006-.477-.431-1.011-1.441-1.617l.1-7.813c1.009.607,1.447,1.141,1.441,1.617" transform="translate(229.959 -451.352)"/></g></g></g><g transform="translate(3.46 8.955)"><path class="p" d="M-226.639,457.842l-.1,7.812-13.814-8.306.1-7.812Z" transform="translate(240.55 -449.536)"/></g><g class="c" transform="translate(17.274 14.559)"><g class="s"><g class="c"><path class="h" d="M-226.552,452.212l-.1,7.811,0,.086.1-7.811,0-.086" transform="translate(241.942 -452.212)"/><path class="i" d="M-226.525,452.253l-.1,7.811a2.312,2.312,0,0,1-.054.394l.1-7.813a2.284,2.284,0,0,0,.054-.392" transform="translate(241.914 -452.167)"/><path class="j" d="M-226.515,452.44l-.1,7.813a2.352,2.352,0,0,1-.124.392l.1-7.811a2.367,2.367,0,0,0,.124-.394" transform="translate(241.85 -451.963)"/><path class="k" d="M-226.528,452.628l-.1,7.811a3.042,3.042,0,0,1-.211.421l.1-7.813a2.914,2.914,0,0,0,.211-.419" transform="translate(241.739 -451.757)"/><path class="l" d="M-226.555,452.828l-.1,7.813a3.469,3.469,0,0,1-.354.484l.1-7.811a3.784,3.784,0,0,0,.352-.486" transform="translate(241.554 -451.538)"/><path class="m" d="M-226.56,453.06l-.1,7.811a5.317,5.317,0,0,1-.664.651l.1-7.811a5.477,5.477,0,0,0,.666-.651" transform="translate(241.207 -451.284)"/><path class="n" d="M-224.841,453.371l-.1,7.811a9.257,9.257,0,0,1-1.29.884,11.261,11.261,0,0,1-3.275,1.273l.1-7.811a11.355,11.355,0,0,0,3.277-1.275,9.168,9.168,0,0,0,1.288-.882" transform="translate(238.822 -450.944)"/><path class="m" d="M-228.878,454.4l-.1,7.811c-.335.071-.672.128-1.009.167l.1-7.813c.339-.04.674-.094,1.009-.165" transform="translate(238.295 -449.817)"/><path class="l" d="M-229.484,454.48l-.1,7.813q-.386.044-.773.063l.1-7.813q.386-.016.773-.063" transform="translate(237.891 -449.731)"/><path class="k" d="M-229.888,454.51l-.1,7.813c-.235.01-.471.015-.706.01l.1-7.813c.234,0,.471,0,.706-.01" transform="translate(237.523 -449.698)"/><path class="j" d="M-230.233,454.533l-.1,7.813c-.23,0-.461-.017-.691-.033l.1-7.813c.23.019.461.029.691.034" transform="translate(237.162 -449.71)"/><path class="i" d="M-230.548,454.54l-.1,7.813c-.239-.019-.48-.046-.718-.08l.1-7.811c.239.033.48.059.718.078" transform="translate(236.786 -449.751)"/><path class="h" d="M-230.853,454.534l-.1,7.811q-.4-.056-.791-.138l.1-7.811q.4.082.792.138" transform="translate(236.373 -449.823)"/><path class="g" d="M-231.144,454.521l-.1,7.811c-.32-.067-.639-.147-.959-.239l.1-7.811c.32.092.639.172.959.239" transform="translate(235.872 -449.948)"/><path class="f" d="M-231.406,454.523l-.1,7.811a14,14,0,0,1-1.334-.461l.1-7.811c.444.178.89.331,1.334.461" transform="translate(235.175 -450.188)"/><path class="e" d="M-231.518,454.674l-.1,7.811a16.258,16.258,0,0,1-2.339-1.17l.1-7.811a16.715,16.715,0,0,0,2.339,1.171" transform="translate(233.953 -450.8)"/></g></g></g><g transform="translate(0.097)"><path class="t" d="M-239.47,446.783c3.905-2.255,8.349-1.966,12.612.6l2.576,1.55-3.75,2.165-2.852-1.715c-1.9-1.143-3.426-1.114-4.691-.383s-1.332,1.619.57,2.762l14.365,8.638c1.887,1.135,3.38,1.087,4.63.364s1.378-1.608-.509-2.743l-4.906-2.95-1.805,1.043-3.8-2.287,5.555-3.208,8.435,5.072c4.261,2.563,4.661,5.187.758,7.44s-8.334,1.956-12.6-.605l-13.814-8.307C-242.959,451.652-243.358,449.028-239.47,446.783Z" transform="translate(242.156 -445.259)"/></g></g><g class="c" transform="translate(57.907 6.563)"><g transform="translate(9.044 2.041)"><path class="p" d="M-230.481,458.937l-.1,7.812-15.915-9.569.1-7.812Z" transform="translate(246.492 -449.368)"/></g><g transform="translate(35.09 15.986)"><path class="o" d="M-229.883,456.028l-.1,7.812-4.074,2.352.1-7.812Z" transform="translate(234.054 -456.028)"/></g><g transform="translate(10.909 9.62)"><path class="u" d="M-221.325,461.706l-.1,7.812L-245.6,460.8l.1-7.812Z" transform="translate(245.601 -452.988)"/></g><g transform="translate(0.097)"><path class="t" d="M-238.187,448.394l26.586,15.986-4.074,2.352-24.18-8.718,19.242,11.57-3.565,2.058-26.586-15.986,4.97-2.869L-225.806,460l-15.915-9.569Z" transform="translate(250.765 -448.394)"/></g><g transform="translate(26.586 21.189)"><path class="o" d="M-234.453,458.513l-.1,7.812-3.565,2.058.1-7.812Z" transform="translate(238.115 -458.513)"/></g><g transform="translate(0 7.262)"><path class="p" d="M-224.129,467.847l-.1,7.812-26.586-15.986.1-7.812Z" transform="translate(250.811 -451.862)"/></g></g><g class="c" transform="translate(46.255 17.201)"><g transform="translate(7.423 4.632)"><path class="g" d="M-237.39,462.657l-.1,7.812-15.344-6.971.1-7.812Z" transform="translate(252.831 -455.686)"/></g><g transform="translate(32.435 13.652)"><path class="o" d="M-236.793,459.994l-.1,7.812-4,2.308.1-7.812Z" transform="translate(240.886 -459.994)"/></g><g transform="translate(26.926 13.466)"><path class="g" d="M-237.912,462.4l-.1,7.812-5.509-2.494.1-7.812Z" transform="translate(243.517 -459.905)"/></g><g transform="translate(22.065 13.466)"><path class="o" d="M-240.881,459.9l-.1,7.812-4.862,2.807.1-7.812Z" transform="translate(245.839 -459.905)"/></g><g transform="translate(0.096)"><path class="t" d="M-250.528,453.474l30.631,13.653-4,2.308-5.509-2.494-4.862,2.806,4.121,3.3-3.644,2.1-22.542-18.32Zm13.155,13.8,3.811-2.2-15.345-6.971,11.534,9.172" transform="translate(256.33 -453.474)"/></g><g transform="translate(22.542 19.569)"><path class="o" d="M-241.872,462.819l-.1,7.812-3.642,2.1.1-7.812Z" transform="translate(245.611 -462.819)"/></g><g transform="translate(0 3.351)"><path class="v" d="M-233.737,473.395l-.1,7.812-22.542-18.32.1-7.812Z" transform="translate(256.376 -455.075)"/></g></g><g class="c" transform="translate(28.336 23.315)"><g transform="translate(9.168 2.29)"><path class="w" d="M-254.068,467.46l-.1,7.812-6.39-9.972.1-7.812Z" transform="translate(260.555 -457.487)"/></g><g transform="translate(35.645 15.986)"><path class="o" d="M-243.739,464.028l-.1,7.812-4.075,2.352.1-7.812Z" transform="translate(247.91 -464.028)"/></g><g transform="translate(21.192 14.195)"><path class="x" d="M-240.263,467.315l-.1,7.812-14.453-4.143.1-7.812Z" transform="translate(254.812 -463.173)"/></g><g transform="translate(0.097)"><path class="t" d="M-251.753,456.394l6.326,10.316,20.259,5.669-4.075,2.352-14.453-4.143,1.2,2.178,8.157,4.9-3.966,2.29-26.586-15.986,3.966-2.29,11.591,6.97-6.39-9.973Z" transform="translate(264.887 -456.394)"/></g><g transform="translate(26.586 21.279)"><path class="o" d="M-248.174,466.555l-.1,7.812-3.966,2.29.1-7.812Z" transform="translate(252.237 -466.555)"/></g><g transform="translate(0 7.583)"><path class="p" d="M-238.251,476l-.1,7.812-26.586-15.986.1-7.812Z" transform="translate(264.933 -460.015)"/></g></g><g class="c" transform="translate(13.813 32.458)"><g transform="translate(8.072 2.164)"><path class="p" d="M-247.4,474.129l-.1,7.812-20.514-12.335.1-7.812Z" transform="translate(268.014 -461.794)"/></g><g class="c" transform="translate(28.586 14.499)"><g class="y"><g class="c"><path class="e" d="M-256.659,469.315l-.1,7.811c.006-.477-.438-1.013-1.462-1.629l.1-7.813c1.024.616,1.468,1.152,1.462,1.631" transform="translate(258.217 -467.684)"/></g></g></g><g transform="translate(0 6.825)"><path class="p" d="M-251.518,476.2l-.1,7.812-20.253-12.178.1-7.812Z" transform="translate(271.868 -464.019)"/></g><g class="c" transform="translate(20.254 16.312)"><g class="z"><g class="c"><path class="h" d="M-254.8,468.55l-.1,7.811,0,.088.1-7.813,0-.086" transform="translate(270.176 -468.55)"/><path class="i" d="M-254.777,468.591l-.1,7.813a2.482,2.482,0,0,1-.054.392l.1-7.811a2.283,2.283,0,0,0,.054-.394" transform="translate(270.147 -468.505)"/><path class="j" d="M-254.767,468.779l-.1,7.811a2.514,2.514,0,0,1-.124.394l.1-7.811a2.514,2.514,0,0,0,.124-.394" transform="translate(270.083 -468.3)"/><path class="k" d="M-254.779,468.967l-.1,7.811a2.848,2.848,0,0,1-.214.421l.1-7.813a2.734,2.734,0,0,0,.214-.419" transform="translate(269.971 -468.094)"/><path class="l" d="M-254.809,469.167l-.1,7.813a3.622,3.622,0,0,1-.352.484l.1-7.813a3.8,3.8,0,0,0,.35-.484" transform="translate(269.787 -467.875)"/><path class="m" d="M-254.813,469.4l-.1,7.813a5.272,5.272,0,0,1-.662.647l.1-7.811a5.421,5.421,0,0,0,.662-.649" transform="translate(269.442 -467.622)"/><path class="n" d="M-253.1,469.708l-.1,7.811a8.97,8.97,0,0,1-1.273.873,11.205,11.205,0,0,1-3.271,1.271l.1-7.813a11.268,11.268,0,0,0,3.269-1.269,9.491,9.491,0,0,0,1.275-.873" transform="translate(267.068 -467.283)"/><path class="m" d="M-257.117,470.731l-.1,7.813c-.333.071-.67.128-1.009.167l.1-7.813c.339-.04.676-.094,1.011-.168" transform="translate(266.54 -466.164)"/><path class="l" d="M-257.724,470.811l-.1,7.813c-.258.029-.517.05-.775.063l.1-7.813c.258-.01.517-.031.775-.063" transform="translate(266.136 -466.076)"/><path class="k" d="M-258.129,470.841l-.1,7.813c-.237.011-.471.015-.708.011l.1-7.813c.237,0,.471,0,.708-.01" transform="translate(265.766 -466.044)"/><path class="j" d="M-258.473,470.864l-.1,7.813c-.232,0-.463-.017-.7-.034l.1-7.813c.23.019.463.029.693.033" transform="translate(265.403 -466.056)"/><path class="i" d="M-258.79,470.872l-.1,7.813c-.239-.019-.479-.046-.72-.08l.1-7.813c.241.034.482.061.722.08" transform="translate(265.026 -466.097)"/><path class="h" d="M-259.1,470.864l-.1,7.813c-.264-.038-.528-.084-.794-.138l.1-7.813c.266.054.53.1.794.138" transform="translate(264.612 -466.169)"/><path class="g" d="M-259.391,470.851l-.1,7.813c-.318-.067-.639-.147-.959-.241l.1-7.811c.32.092.641.172.959.239" transform="translate(264.111 -466.294)"/><path class="f" d="M-259.652,470.853l-.1,7.811a13.491,13.491,0,0,1-1.336-.461l.1-7.811c.446.178.89.331,1.336.461" transform="translate(263.413 -466.535)"/><path class="e" d="M-259.771,471l-.1,7.811a16.133,16.133,0,0,1-2.329-1.166l.1-7.811A16.558,16.558,0,0,0-259.771,471" transform="translate(262.196 -467.144)"/></g></g></g><g transform="translate(0.097)"><path class="t" d="M-260,460.76l20.255,12.177c4.247,2.555,4.661,5.187.773,7.434s-8.349,1.945-12.6-.607l-20.253-12.179,3.966-2.289,20.513,12.334c1.9,1.143,3.38,1.1,4.644.373s1.363-1.6-.538-2.743l-20.515-12.334Z" transform="translate(271.822 -460.76)"/></g></g><g class="c" transform="translate(0 40.174)"><g transform="translate(11.92 2.286)"><path class="o" d="M-268.524,465.537l-.1,7.812-4.152,2.4.1-7.812Z" transform="translate(272.772 -465.537)"/></g><g transform="translate(3.802 6.973)"><path class="o" d="M-272.4,467.775l-.1,7.812-4.152,2.4.1-7.812Z" transform="translate(276.649 -467.775)"/></g><g transform="translate(0 7.084)"><path class="p" d="M-274.566,470.114l-.1,7.812-3.8-2.286.1-7.812Z" transform="translate(278.465 -467.828)"/></g><g transform="translate(0.097)"><path class="t" d="M-266.149,464.445l3.8,2.286-4.152,2.4,22.783,13.7-3.966,2.29-22.783-13.7-4.152,2.4-3.8-2.286Z" transform="translate(278.419 -464.445)"/></g><g transform="translate(30.737 18.383)"><path class="o" d="M-259.723,473.223l-.1,7.812-3.966,2.29.1-7.812Z" transform="translate(263.786 -473.223)"/></g><g transform="translate(7.954 6.973)"><path class="p" d="M-251.787,481.474l-.1,7.812-22.783-13.7.1-7.812Z" transform="translate(274.667 -467.775)"/></g></g></g></svg>