<svg xmlns="http://www.w3.org/2000/svg" xmlns:xlink="http://www.w3.org/1999/xlink" width="169.595" height="112.194" viewBox="0 0 169.595 112.194"><defs><style>.a{fill:none;}.b,.g{fill:#fff;}.b{stroke:#155e85;stroke-linejoin:round;stroke-width:2px;}.c{isolation:isolate;}.d{fill:#166ea2;}.e{fill:#176fa4;}.f{fill:#08547f;}.h{fill:#166fa4;}.i{clip-path:url(#a);}.j{fill:#07527d;}.k{fill:#085480;}.l{fill:#0a5682;}.m{fill:#0c5985;}.n{fill:#0d5b88;}.o{fill:#0f5d8b;}.p{fill:#105f8e;}.q{fill:#116292;}.r{fill:#126495;}.s{fill:#136798;}.t{fill:#14699c;}.u{clip-path:url(#b);}.v{clip-path:url(#c);}.w{clip-path:url(#d);}.x{clip-path:url(#e);}.y{fill:#166da1;}.z{clip-path:url(#f);}.aa{clip-path:url(#g);}.ab{clip-path:url(#h);}.ac{clip-path:url(#i);}.ad{clip-path:url(#j);}.ae{fill:#186289;}.af{clip-path:url(#k);}.ag{clip-path:url(#l);}.ah{clip-path:url(#m);}.ai{clip-path:url(#n);}.aj{clip-path:url(#o);}.ak{clip-path:url(#p);}.al{clip-path:url(#q);}.am{clip-path:url(#r);}.an{clip-path:url(#s);}.ao{clip-path:url(#t);}.ap{clip-path:url(#u);}.aq{clip-path:url(#v);}.ar{clip-path:url(#w);}.as{fill:#156b9f;}.at{fill:#166ea3;}</style><clipPath id="a"><path class="a" d="M219.118,453l-.023,7.882c0-.415-.343-.794-.967-1.154-1.328-.766-2.821-.794-4.722.312a4.049,4.049,0,0,0-2.257,3.895l.023-7.882a4.053,4.053,0,0,1,2.257-3.9c1.9-1.1,3.394-1.076,4.72-.312C218.774,452.2,219.12,452.583,219.118,453Z" transform="translate(-211.148 -451.293)"/></clipPath><clipPath id="b"><path class="a" d="M219.413,452.145l-.023,7.882c0,1.319-1.156,2.657-3.382,3.951l.023-7.882C218.257,454.8,219.409,453.464,219.413,452.145Z" transform="translate(-216.008 -452.145)"/></clipPath><clipPath id="c"><path class="a" d="M208.486,456.579l-.023,7.882c0-1.011-.174-2.084-.17-3.175l.023-7.882C208.312,454.5,208.488,455.568,208.486,456.579Z" transform="translate(-208.293 -453.405)"/></clipPath><clipPath id="d"><path class="a" d="M204.533,465.025l.023-7.884c0-.465.433-.976,1.418-1.547l-.023,7.882C204.966,464.047,204.535,464.558,204.533,465.025Z" transform="translate(-204.533 -455.594)"/></clipPath><clipPath id="e"><path class="a" d="M221.538,455.1l-.023,7.882c-.006,1.956-.588,3.976-3.784,5.832a12.454,12.454,0,0,1-12.951.268c-1.985-1.148-2.95-2.356-2.946-3.575l.021-7.882c0,1.219.963,2.427,2.948,3.574a12.454,12.454,0,0,0,12.951-.268C220.949,459.072,221.531,457.054,221.538,455.1Z" transform="translate(-201.833 -455.098)"/></clipPath><clipPath id="f"><path class="a" d="M247.456,469.613l-.023,7.882c-1.342-.775-2.835-.837-4.737.268l.023-7.882C244.62,468.775,246.113,468.838,247.456,469.613Z" transform="translate(-242.696 -469.039)"/></clipPath><clipPath id="g"><path class="a" d="M241.187,479.449l.023-7.882c0-.507.467-1.055,1.535-1.675l-.023,7.882C241.654,478.394,241.189,478.942,241.187,479.449Z" transform="translate(-241.187 -469.892)"/></clipPath><clipPath id="h"><path class="a" d="M238.9,478.007l.023-7.882a2.368,2.368,0,0,0,.5,1.393L239.4,479.4A2.4,2.4,0,0,1,238.9,478.007Z" transform="translate(-238.903 -470.125)"/></clipPath><clipPath id="i"><path class="a" d="M243.3,472.882l-.023,7.882c-1.9-1.1-3.667-1.051-6.135.383l.023-7.882C239.638,471.831,241.405,471.787,243.3,472.882Z" transform="translate(-237.146 -472.118)"/></clipPath><clipPath id="j"><path class="a" d="M235.281,482.816l.023-7.882c0-.479.44-1,1.436-1.583l-.023,7.882C235.721,481.813,235.283,482.339,235.281,482.816Z" transform="translate(-235.281 -473.351)"/></clipPath><clipPath id="k"><path class="a" d="M232.178,481.957l.023-7.882c0,.884.643,1.719,1.973,2.486a8.72,8.72,0,0,0,6.311.854l-.023,7.884a8.734,8.734,0,0,1-6.311-.856C232.823,483.676,232.176,482.84,232.178,481.957Z" transform="translate(-232.178 -474.075)"/></clipPath><clipPath id="l"><path class="a" d="M240.152,476.513l-.023,7.882a8.083,8.083,0,0,0-2.772,2.148l.023-7.882A8.064,8.064,0,0,1,240.152,476.513Z" transform="translate(-237.357 -476.513)"/></clipPath><clipPath id="m"><path class="a" d="M187.585,454.779l-.021,7.882c0-.5-.413-.976-1.24-1.453l.023-7.882C187.174,453.8,187.587,454.279,187.585,454.779Z" transform="translate(-186.324 -453.326)"/></clipPath><clipPath id="n"><path class="a" d="M192.649,454.211l-.023,7.882c0,1.47-1.33,2.919-3.9,4.41l.021-7.882C191.319,457.13,192.645,455.679,192.649,454.211Z" transform="translate(-188.729 -454.211)"/></clipPath><clipPath id="o"><path class="a" d="M193.462,456.645l-.023,7.882a13.729,13.729,0,0,1-10.1,1.933l.021-7.882A13.733,13.733,0,0,0,193.462,456.645Z" transform="translate(-183.344 -456.645)"/></clipPath><clipPath id="p"><path class="a" d="M181.528,458.908l-.023,7.884c0-.639-.6-1.233-1.728-1.883l.023-7.882C180.925,457.677,181.53,458.272,181.528,458.908Z" transform="translate(-179.777 -457.028)"/></clipPath><clipPath id="q"><path class="a" d="M185.776,458.491l-.023,7.882c0,1.543-1.443,3.018-3.935,4.467l.023-7.882C184.333,461.508,185.771,460.034,185.776,458.491Z" transform="translate(-181.818 -458.491)"/></clipPath><clipPath id="r"><path class="a" d="M188.838,461.387l-.023,7.882a15.069,15.069,0,0,1-15.86-.027l.023-7.882A15.069,15.069,0,0,0,188.838,461.387Z" transform="translate(-172.955 -461.36)"/></clipPath><clipPath id="s"><path class="a" d="M183.441,473.532l.023-7.882c0-.588.542-1.229,1.776-1.945l-.023,7.882C183.983,472.3,183.443,472.944,183.441,473.532Z" transform="translate(-183.441 -463.705)"/></clipPath><clipPath id="t"><path class="a" d="M179.938,472.4l.021-7.882c0,1.518,1.2,3.02,3.671,4.448,5.17,2.984,10.876,2.762,16.2-.331l-.023,7.882c-5.321,3.093-11.027,3.315-16.2.331C181.136,475.418,179.934,473.917,179.938,472.4Z" transform="translate(-179.938 -464.517)"/></clipPath><clipPath id="u"><path class="a" d="M206.137,465.508l-.021,7.882c0-.53-.448-1.013-1.24-1.47l.021-7.884C205.691,464.495,206.139,464.978,206.137,465.508Z" transform="translate(-204.876 -464.036)"/></clipPath><clipPath id="v"><path class="a" d="M211.195,464.885l-.023,7.882c0,1.606-1.42,3.223-4.163,4.816l.023-7.882C209.775,468.108,211.189,466.491,211.195,464.885Z" transform="translate(-207.009 -464.885)"/></clipPath><clipPath id="w"><path class="a" d="M207.387,471.849l-.021,7.882c-5.321,3.093-10.782,3.279-16.044.241l.023-7.882C196.607,475.128,202.066,474.942,207.387,471.849Z" transform="translate(-191.322 -471.849)"/></clipPath></defs><g transform="translate(1 1)"><path class="b" d="M331.785,498.262a12.121,12.121,0,0,0-12.83.2l-.49.285c-2.081,1.21-3.1,2.373-3.055,3.545,0-.025-.015-.052-.015-.08l0,1.334a11.611,11.611,0,0,0-7.98,1.625l-2.7,1.568c-2.354,1.37-3.491,2.7-3.365,3.928a1.78,1.78,0,0,1-.034-.184l-.019,6.47-1.175-.678-3.746,1.573.01-3.729-3.65-2.109,20.569-16.52.023-7.882-6.158-3.556-3.56,1.5.01-3.537.015-.008-13.012-7.515-3.8,2.209.017.01-.015,5.084-14.788,8.59,13.552-10.9.023-7.882-6.158-3.556-8.634,3.631.019-7.12c0,.029-.019.059-.019.088.05-1.227-.873-2.444-2.867-3.6a11.847,11.847,0,0,0-9.038-1.252l.01-3.593.006,0-.006,0v0l0,0-4.2-2.429-2.1,1.219.006-2.427-3.673-2.121-4.289,2.029.013-4.5-4.058-2.345-4.288,2.056.013-4.523-4.09-2.362-23.61,17.171-.015,5.48-6.374-3.679-33.228,19.309L169,486.96l8.273,4.776a18.381,18.381,0,0,0,2.245,1.089c.067.027.134.071.2.1q.754.3,1.508.511l.01,0,.025.006q.521.148,1.047.258c.308.063.616.117.923.161h.006l.015,0c.274.04.549.071.823.092s.549.038.821.044c.09,0,.178,0,.266,0,.059,0,.117,0,.176,0,.134,0,.268,0,.4,0,.308-.011.616-.029.923-.061.138-.015.274-.04.413-.059.109-.015.218-.029.327-.046.134-.019.268-.031.4-.057.241-.044.477-.126.718-.18.325-.075.649-.149.974-.247.092-.027.184-.04.276-.069.316-.1.628-.241.942-.364.2-.08.4-.144.6-.232s.4-.191.6-.289l-.017,5.955c0,1.518,1.2,3.02,3.669,4.448a16.561,16.561,0,0,0,2.094,1.014c.036.015.073.038.109.052.469.186.942.346,1.418.482.08.023.161.038.241.061s.174.042.26.063c.193.048.383.1.578.142.3.063.611.117.917.161.1.013.2.021.3.031.059.008.117.015.176.021.128.013.253.031.379.042.278.023.557.038.838.046.224,0,.448,0,.67,0h.107c.031,0,.065,0,.1,0,.329-.013.655-.034.982-.067.251-.025.5-.069.754-.107.094-.013.186-.023.279-.038.061-.01.119-.015.178-.025.255-.046.509-.134.764-.193s.488-.1.731-.17l-.015,4.833,8.319,4.8a17.539,17.539,0,0,0,2.184,1.06c.054.021.109.056.161.077q.713.283,1.43.486c.046.013.092.021.138.034.065.019.132.031.2.048.243.065.488.13.731.182.3.061.6.113.894.155.063.008.126.013.191.021l.147.017c.163.019.327.042.49.054.268.023.538.038.806.044.184,0,.366,0,.551,0,.044,0,.09,0,.134,0s.1,0,.153,0q.468-.016.936-.063c.207-.021.415-.059.622-.088l-.01,3.61,4.816,2.779,6.935-2.976,1.357.783-.021,6.969,5.31,3.066,27.871-22.4.017-5.48.831.482,3.671-2.134-.013,4.245.126.073-14.126,15.177-11.008,6.4-.023,7.884,5.262,3.039,5.034-2.925-.017,5.821,4.831,2.787,6.921-2.984,1.355.783-.019,6.969,5.308,3.066,27.873-22.4.019-6.665.044,0h0l0,1.216,4.291,2.477a3.7,3.7,0,0,1,.381-.452c.054-.057.1-.115.159-.17.09-.086.2-.168.3-.251.119-.1.235-.2.368-.293.117-.084.249-.168.377-.251s.279-.184.434-.281c.239-.145.484-.293.756-.45l8.74-5.08.021-7.882.019.01-.023,7.886,1.076.622.023-7.886.017.01-.021,7.882,3.786-2.2,0-1.29,1.845-1.072.013-4.718,2.383,1.376,3.788-2.2.021-7.882Zm-11.5,4.728-.013.017.015-.019Zm.327-.446v0a.751.751,0,0,0-.061.054C320.563,502.581,320.591,502.563,320.607,502.544Zm-.429.85Zm-11.153,5.717c-.142.09-.293.18-.408.268.119-.09.272-.184.421-.276Zm-.586.427,0,0,.029-.025Zm-.523.607.013-.029Zm7.572-7.415c.019.071.027.142.052.214C315.515,502.872,315.506,502.8,315.488,502.73Zm-7.241,6.975-.031.036-.04.036C308.2,509.753,308.224,509.73,308.247,509.705Zm-.429.762,0,.025Zm-4.531,2.5a6.336,6.336,0,0,1-.928-.645A6.336,6.336,0,0,0,303.286,512.966Zm-1.707-1.581a2.114,2.114,0,0,1-.18-.44A2.052,2.052,0,0,0,301.579,511.385Zm.563.72a3.258,3.258,0,0,1-.41-.457A3.258,3.258,0,0,0,302.143,512.105Zm-16.446-7.35,1.066.616-.015,5.587,1.994,1.152-5.419,1.834.021-7.358-.812-.469ZM260.88,470.893a4.516,4.516,0,0,1,1.2-.23l.015,0a3.457,3.457,0,0,1,.555.059l-.011,3.863.536.31-5.74,2.417.008-3.329c.023-.078.04-.157.067-.234s.065-.159.1-.239.073-.167.115-.249.1-.168.153-.249.094-.151.151-.224.117-.14.178-.209a3.351,3.351,0,0,1,.253-.27c.052-.05.113-.1.17-.149a5.488,5.488,0,0,1,.731-.536c.054-.034.1-.069.153-.1A7.024,7.024,0,0,1,260.88,470.893Zm-61.616,19.74,0,.023Zm.115-.4.019-.038Zm.323-.463c.025-.025.057-.052.084-.08l-.029.031C199.742,489.735,199.717,489.751,199.7,489.768Zm.322-.289.027-.025-.025.023Zm.226-.2c.147-.111.335-.226.517-.341l-.01.008C200.581,489.056,200.4,489.169,200.251,489.278Zm13.693-19.242a4.374,4.374,0,0,1-.547.81,4.22,4.22,0,0,0,.547-.812Zm-.865,1.19a8.448,8.448,0,0,1-.641.582c.226-.195.459-.389.643-.582Zm-1.154,1.022a16.775,16.775,0,0,1-1.6,1.047,16.252,16.252,0,0,0,1.6-1.047Zm-14.239,8.83c-.084.065-.157.132-.245.2-.031.021-.071.044-.1.065.121-.088.235-.178.348-.268ZM258.047,464.9l-.029.036.036-.046Zm-.419.724-.033.071c.019-.044.04-.088.059-.132ZM252.515,492.4c-.013.031-.029.061-.044.092a2.949,2.949,0,0,0,.134-.5A3.156,3.156,0,0,1,252.515,492.4Zm-9.086-19.129,0,.019Zm1.38,16.666c-.044-.04-.078-.08-.13-.119C244.731,489.856,244.765,489.9,244.809,489.936Zm.358.4a1.62,1.62,0,0,0-.094-.149A1.62,1.62,0,0,1,245.167,490.336Zm.138.237a.771.771,0,0,1,.036.168A.771.771,0,0,0,245.305,490.572Zm3.267-4.3,0,.237-.327-.191C248.352,486.307,248.461,486.29,248.572,486.273Zm-9.524-10.661.04.04-.04-.038Zm1.669,1.229a10.673,10.673,0,0,1-1.319-.89A10.673,10.673,0,0,0,240.717,476.842Zm9.867,17.856-.042.034c.107-.086.184-.172.285-.258C250.741,494.549,250.676,494.624,250.584,494.7Zm1.187-1.133-.042.046c.113-.132.178-.266.274-.4C251.918,493.33,251.87,493.448,251.771,493.565Zm5.633-27.256c-.006.027-.017.054-.023.084.006-.034.021-.067.027-.1Zm-.117.965c0-.059,0-.117.006-.174C257.289,467.157,257.289,467.216,257.287,467.274Zm-.2,5.7c-.008.025-.025.052-.036.08a4.73,4.73,0,0,0,.149-.482C257.163,472.7,257.138,472.836,257.088,472.97Zm-.341.737c-.029.054-.073.107-.107.161a4.644,4.644,0,0,0,.285-.542C256.866,473.454,256.818,473.582,256.747,473.707Zm-.314.473c-.059.084-.1.17-.17.253-.031.04-.073.077-.1.115s-.078.082-.113.122c.142-.165.276-.331.394-.5Zm-.875,1.016c-.119.113-.268.224-.4.337.2-.165.385-.329.551-.5C255.652,475.089,255.614,475.144,255.557,475.2Zm-.8.67c-.023.017-.05.033-.073.048a11.77,11.77,0,0,1-1.011.66,11.5,11.5,0,0,0,1.173-.781C254.808,475.818,254.785,475.843,254.753,475.866Zm-3.3-5.654c-.006-.463-.038-.934-.075-1.416C251.42,469.278,251.451,469.752,251.457,470.212Zm-.174,1.562a4.07,4.07,0,0,1-2.09,2.519,5.437,5.437,0,0,1-2.463.8l.01-3.956,4.552-2.645Zm-14.2,8.106-2.7-1.558,3.371-1.96-.013,4.787a3,3,0,0,0,.894,1.977l-1.566.909Zm15.376,20.473c.01-.025.017-.05.027-.073.019-.044.046-.086.061-.13a3.03,3.03,0,0,0,.14-.486,2.648,2.648,0,0,0,.054-.475l0-.071.023-7.884c0,.025-.017.05-.017.073a2.8,2.8,0,0,0-.046-.291l5.269-2.266,1.08.624-.015,5.587,2.628,1.518Zm16.591-32.947-.05.042c.088-.071.151-.142.232-.211C269.172,467.293,269.124,467.35,269.055,467.406Zm-10.405-3.135c-.013.013-.034.023-.046.036.044-.04.094-.08.142-.117C258.713,464.217,258.682,464.245,258.65,464.272Zm-26.315,7.375h0l-1.719-.992h0Zm-2.293,6.571-3.39,1.971.019-6.322-1.323-.766,2.783-1.292-.017,5.3Zm-10.7-6.175-5.134,2.984.017-5.939.165.1,3.066-1.437-.01,3.2Zm-5.16-2.978a2.637,2.637,0,0,1-.121.54,2.637,2.637,0,0,0,.121-.54Zm50.842,26.948,3.388-2.724-.015,4.672Zm5.6-30.5c-.013.029-.027.057-.04.086l-.01.017a2.8,2.8,0,0,0,.119-.415A2.315,2.315,0,0,1,270.626,465.516Zm-.427.687c-.067.092-.1.186-.18.281-.017.019-.038.038-.054.057C270.06,466.426,270.119,466.313,270.2,466.2Zm-4.994-1.769a.922.922,0,0,0-.224-.538A.922.922,0,0,1,265.2,464.433Zm-.272-.584a2.8,2.8,0,0,0-.678-.526A2.8,2.8,0,0,1,264.932,463.849Zm-58.425,4.506a1.043,1.043,0,0,0-.034-.161A1.043,1.043,0,0,1,206.508,468.355Zm-.155-.4a1.184,1.184,0,0,0-.094-.151A1.184,1.184,0,0,1,206.353,467.951ZM206,467.54c-.046-.042-.082-.084-.134-.126C205.917,467.457,205.953,467.5,206,467.54Zm-12.974,8.4c-.046-.061-.077-.124-.134-.186C192.947,475.818,192.978,475.881,193.024,475.942Zm.235.5a1.02,1.02,0,0,0-.048-.2A1.02,1.02,0,0,1,193.259,476.438Zm-.731-1.005c-.065-.052-.111-.1-.182-.157C192.417,475.328,192.463,475.38,192.528,475.433Zm-.067,16.679c.021.036.038.069.059.1l-.061-.1Zm.337.561a7.051,7.051,0,0,0,.762.758A7.248,7.248,0,0,1,192.8,492.673Zm1.152,1.133a13.123,13.123,0,0,0,1.642,1.108A13.123,13.123,0,0,1,193.95,493.805ZM269,492.817l0,0,3.631,2.1-.006,0Z" transform="translate(-169.004 -440.798)"/><g class="c" transform="translate(39.618 0)"><g transform="translate(8.992 2.361)"><path class="d" d="M210.947,441.926l-.022,7.882L192.218,463.29l.022-7.882Z" transform="translate(-192.218 -441.926)"/></g><g transform="translate(5.772 13.152)"><path class="e" d="M206.4,447.079l-.022,7.882-15.7,7.351.022-7.882Z" transform="translate(-190.68 -447.079)"/></g><g transform="translate(0 17.171)"><path class="f" d="M193.718,452.331l-.022,7.882-5.772-3.333.022-7.882Z" transform="translate(-187.924 -448.998)"/></g><g transform="translate(17.018 7.173)"><path class="d" d="M215.088,444.224l-.022,7.882-19.015,13.482.022-7.882Z" transform="translate(-196.051 -444.224)"/></g><g transform="translate(0.022)"><path class="g" d="M231.916,452.56l-29.567,13.732-5.587-3.226,12.64-9.116-15.7,7.351-5.772-3.333L211.544,440.8l4.09,2.361-18.707,13.482,22.982-11.014,4.059,2.343-19.015,13.482,23.29-11.014Z" transform="translate(-187.934 -440.798)"/></g><g transform="translate(14.415 11.762)"><path class="e" d="M224.4,446.415l-.022,7.882-29.567,13.731.022-7.882Z" transform="translate(-194.808 -446.415)"/></g><g transform="translate(8.828 22.268)"><path class="f" d="M197.749,454.658l-.022,7.882-5.587-3.226.022-7.882Z" transform="translate(-192.139 -451.432)"/></g></g><g class="c" transform="translate(59.11 12.971)"><g transform="translate(0.016)"><path class="g" d="M228.039,449.425l-26.586,15.45-4.213-2.432,26.586-15.45Z" transform="translate(-197.24 -446.992)"/></g><g transform="translate(4.198 2.427)"><path class="h" d="M225.848,448.151l-.022,7.882-26.588,15.451.022-7.882Z" transform="translate(-199.237 -448.151)"/></g><g transform="translate(0 15.454)"><path class="f" d="M201.453,456.8l-.022,7.882-4.2-2.424.022-7.882Z" transform="translate(-197.232 -454.373)"/></g></g><g class="c" transform="translate(68.744 18.594)"><g class="c" transform="translate(19.506 3.383)"><g class="i"><g class="c" transform="translate(0 0)"><path class="j" d="M215.779,452.86l-.023,7.882c0-.415-.343-.794-.967-1.154a4.483,4.483,0,0,0-.588-.287l.023-7.882a4.719,4.719,0,0,1,.586.285c.626.362.972.741.97,1.156" transform="translate(-207.809 -451.155)"/><path class="k" d="M214.409,451.482l-.023,7.882c-.117-.046-.237-.086-.356-.121l.021-7.882c.121.036.241.075.358.122" transform="translate(-207.995 -451.219)"/><path class="l" d="M214.192,451.395l-.021,7.882c-.09-.025-.18-.046-.27-.065l.023-7.882c.09.019.18.04.268.065" transform="translate(-208.136 -451.253)"/><path class="m" d="M214.044,451.352l-.023,7.882c-.075-.017-.153-.029-.23-.042l.023-7.882c.077.013.153.025.23.042" transform="translate(-208.257 -451.274)"/><path class="n" d="M213.926,451.322,213.9,459.2c-.071-.008-.142-.017-.214-.023l.021-7.882c.073.006.144.015.216.023" transform="translate(-208.368 -451.286)"/><path class="o" d="M213.823,451.306l-.021,7.882c-.071-.006-.142-.01-.216-.01l.023-7.884q.107,0,.214.013" transform="translate(-208.481 -451.293)"/><path class="p" d="M213.727,451.293l-.023,7.884q-.113,0-.226,0l.021-7.882c.077,0,.153,0,.228,0" transform="translate(-208.599 -451.293)"/><path class="q" d="M213.635,451.294l-.021,7.882c-.086,0-.172.008-.26.017l.023-7.882c.086-.008.174-.015.258-.017" transform="translate(-208.735 -451.292)"/><path class="r" d="M213.556,451.3l-.023,7.882c-.113.013-.226.027-.343.048l.023-7.882c.115-.021.23-.036.343-.048" transform="translate(-208.914 -451.283)"/><path class="s" d="M213.543,451.325l-.023,7.882a5.2,5.2,0,0,0-.632.161l.023-7.882a5.079,5.079,0,0,1,.632-.161" transform="translate(-209.244 -451.258)"/><path class="t" d="M213.675,451.4l-.023,7.882a7.018,7.018,0,0,0-1.386.634l-.075.044.023-7.882.075-.046a7.116,7.116,0,0,1,1.386-.632" transform="translate(-210.008 -451.174)"/><path class="s" d="M212.688,451.726l-.023,7.882a5.578,5.578,0,0,0-.909.666l.023-7.882a5.484,5.484,0,0,1,.909-.666" transform="translate(-210.483 -450.819)"/><path class="r" d="M212.019,452.044,212,459.926a4.137,4.137,0,0,0-.459.49l.023-7.882a3.968,3.968,0,0,1,.459-.49" transform="translate(-210.722 -450.471)"/><path class="q" d="M211.722,452.278l-.023,7.882a3.387,3.387,0,0,0-.31.465l.021-7.884a3.733,3.733,0,0,1,.312-.463" transform="translate(-210.884 -450.215)"/><path class="p" d="M211.53,452.5l-.021,7.884a3.4,3.4,0,0,0-.23.494L211.3,453a3.767,3.767,0,0,1,.228-.5" transform="translate(-211.005 -449.974)"/><path class="o" d="M211.393,452.736l-.023,7.882a3.962,3.962,0,0,0-.174.616l.023-7.882a3.96,3.96,0,0,1,.174-.616" transform="translate(-211.096 -449.714)"/><path class="n" d="M211.27,453.03l-.023,7.882a5.644,5.644,0,0,0-.1.947l.023-7.882a5.432,5.432,0,0,1,.1-.946" transform="translate(-211.147 -449.393)"/><path class="m" d="M211.173,453.482l-.023,7.882c0,.059,0,.115,0,.174l.023-7.882c0-.059,0-.115,0-.174" transform="translate(-211.148 -448.898)"/></g></g></g><g class="c" transform="translate(29.682 5.167)"><g class="u"><g class="c"><path class="m" d="M217.646,452.145l-.023,7.882v.059l.023-7.882v-.059" transform="translate(-214.241 -452.145)"/><path class="n" d="M217.67,452.173l-.023,7.882a2.323,2.323,0,0,1-.046.4l.023-7.882a2.315,2.315,0,0,0,.046-.4" transform="translate(-214.265 -452.114)"/><path class="o" d="M217.685,452.362l-.023,7.882a2.533,2.533,0,0,1-.117.406l.023-7.882a2.769,2.769,0,0,0,.117-.406" transform="translate(-214.327 -451.908)"/><path class="p" d="M217.676,452.556l-.023,7.882a2.974,2.974,0,0,1-.207.44l.023-7.882a2.977,2.977,0,0,0,.207-.44" transform="translate(-214.435 -451.695)"/><path class="q" d="M217.654,452.766l-.023,7.882a4.056,4.056,0,0,1-.354.526l.023-7.884a4.108,4.108,0,0,0,.354-.523" transform="translate(-214.62 -451.466)"/><path class="r" d="M217.635,453.016l-.023,7.884a5.813,5.813,0,0,1-.641.683l.023-7.882a5.659,5.659,0,0,0,.641-.685" transform="translate(-214.954 -451.192)"/><path class="s" d="M217.928,453.343l-.023,7.882a11.005,11.005,0,0,1-1.788,1.309l.023-7.884a10.975,10.975,0,0,0,1.788-1.307" transform="translate(-215.889 -450.834)"/><path class="t" d="M216.259,453.967l-.023,7.884c-.075.044-.151.09-.228.134l.023-7.882c.077-.044.153-.09.228-.136" transform="translate(-216.008 -450.152)"/></g></g></g><g transform="translate(28.855 9.118)"><path class="h" d="M216.463,454.032l-.022,7.882-.828.481.022-7.882Z" transform="translate(-215.613 -454.032)"/></g><g transform="translate(24.888 7.309)"><path class="f" d="M217.707,455.458l-.022,7.882-3.966-2.29.022-7.882Z" transform="translate(-213.719 -453.168)"/></g><g class="c" transform="translate(13.527 7.805)"><g class="v"><g class="c"><path class="j" d="M208.486,456.579l-.023,7.882c0-1.011-.174-2.084-.17-3.175l.023-7.882c0,1.091.172,2.163.17,3.174" transform="translate(-208.293 -453.405)"/></g></g></g><g transform="translate(7.072 11.284)"><path class="h" d="M207.134,455.066l-.022,7.882-1.9,1.1.022-7.882Z" transform="translate(-205.21 -455.066)"/></g><g class="c" transform="translate(5.654 12.389)"><g class="w"><g class="c"><path class="t" d="M205.293,455.594l-.023,7.882-.115.067.023-7.882.115-.067" transform="translate(-203.853 -455.594)"/><path class="s" d="M205.595,455.626l-.023,7.882a5,5,0,0,0-.8.58l.023-7.882a4.907,4.907,0,0,1,.8-.58" transform="translate(-204.269 -455.559)"/><path class="r" d="M204.926,455.9l-.023,7.882a2.369,2.369,0,0,0-.247.266l.023-7.884a2.34,2.34,0,0,1,.247-.264" transform="translate(-204.398 -455.256)"/><path class="q" d="M204.746,456.029l-.023,7.884a1.419,1.419,0,0,0-.128.188l.021-7.882a1.615,1.615,0,0,1,.13-.191" transform="translate(-204.465 -455.118)"/><path class="p" d="M204.654,456.12,204.633,464a1.14,1.14,0,0,0-.073.155l.021-7.882a1.461,1.461,0,0,1,.073-.155" transform="translate(-204.503 -455.019)"/><path class="o" d="M204.6,456.194l-.021,7.882a.96.96,0,0,0-.042.14l.023-7.882a1.3,1.3,0,0,1,.04-.14" transform="translate(-204.525 -454.938)"/><path class="n" d="M204.571,456.261l-.023,7.882a.944.944,0,0,0-.015.132l.023-7.882a.708.708,0,0,1,.015-.132" transform="translate(-204.533 -454.864)"/><path class="m" d="M204.556,456.324l-.022,7.882v.02l.022-7.882v-.02" transform="translate(-204.533 -454.795)"/></g></g></g><g class="c" transform="translate(0 11.35)"><g class="x"><g class="c"><path class="m" d="M211.257,455.1l-.023,7.882c0,.08,0,.159,0,.239l.023-7.882c0-.08,0-.159,0-.239" transform="translate(-191.553 -455.098)"/><path class="n" d="M211.317,455.212l-.023,7.882a6.915,6.915,0,0,1-.121,1.147l.023-7.882a6.912,6.912,0,0,0,.121-1.148" transform="translate(-191.616 -454.973)"/><path class="o" d="M211.321,455.76l-.023,7.882a5.435,5.435,0,0,1-.241.854l.023-7.882a5.671,5.671,0,0,0,.241-.854" transform="translate(-191.742 -454.374)"/><path class="p" d="M211.259,456.168l-.023,7.882a5.205,5.205,0,0,1-.343.739l.021-7.882a5.216,5.216,0,0,0,.345-.739" transform="translate(-191.921 -453.927)"/><path class="q" d="M211.168,456.521l-.021,7.882a5.656,5.656,0,0,1-.486.72l.023-7.882a5.624,5.624,0,0,0,.484-.72" transform="translate(-192.175 -453.541)"/><path class="r" d="M211.069,456.865l-.023,7.882a6.572,6.572,0,0,1-.737.794l.023-7.882a6.734,6.734,0,0,0,.737-.794" transform="translate(-192.56 -453.165)"/><path class="s" d="M211.215,457.244l-.023,7.882a10.16,10.16,0,0,1-1.69,1.244l.023-7.882a10.255,10.255,0,0,0,1.69-1.244" transform="translate(-193.443 -452.75)"/><path class="t" d="M211.145,457.838l-.023,7.882-.161.094a15.117,15.117,0,0,1-2.94,1.326l.023-7.882a15.116,15.116,0,0,0,2.94-1.326l.161-.094" transform="translate(-195.063 -452.1)"/><path class="s" d="M208.94,458.516l-.023,7.882a13.349,13.349,0,0,1-1.715.433l.023-7.882a13.438,13.438,0,0,0,1.715-.434" transform="translate(-195.959 -451.359)"/><path class="r" d="M207.734,458.723l-.023,7.882q-.487.088-.974.136l.023-7.882c.325-.031.649-.077.974-.136" transform="translate(-196.468 -451.132)"/><path class="q" d="M207.171,458.788l-.023,7.882c-.262.027-.526.044-.787.055l.023-7.882c.262-.01.526-.027.787-.054" transform="translate(-196.879 -451.061)"/><path class="p" d="M206.751,458.814l-.023,7.882c-.235.008-.469.008-.7,0l.021-7.882c.235.006.469,0,.7,0" transform="translate(-197.246 -451.033)"/><path class="o" d="M206.4,458.834l-.021,7.882c-.226,0-.45-.017-.674-.036l.023-7.882c.224.019.448.031.672.036" transform="translate(-197.598 -451.05)"/><path class="n" d="M206.083,458.837l-.023,7.882c-.226-.019-.454-.044-.681-.075l.021-7.882c.228.031.454.057.683.075" transform="translate(-197.954 -451.09)"/><path class="m" d="M205.785,458.83l-.021,7.882c-.247-.036-.492-.077-.737-.13l.023-7.882c.245.05.49.094.735.13" transform="translate(-198.339 -451.157)"/><path class="l" d="M205.5,458.811l-.023,7.882c-.289-.059-.576-.13-.863-.211l.023-7.882c.287.082.574.153.863.212" transform="translate(-198.789 -451.268)"/><path class="k" d="M205.229,458.8l-.023,7.882q-.569-.163-1.131-.385l.023-7.882q.562.223,1.131.385" transform="translate(-199.38 -451.469)"/><path class="j" d="M206.551,460.725l-.023,7.882a13.253,13.253,0,0,1-1.748-.846c-1.985-1.148-2.95-2.356-2.946-3.574l.021-7.882c0,1.219.963,2.427,2.948,3.574a13.119,13.119,0,0,0,1.748.846" transform="translate(-201.833 -453.779)"/></g></g></g><g transform="translate(0.022)"><path class="g" d="M232.023,451.337c4.09,2.362,3.75,4.99-.5,7.459l-.829.482-3.966-2.291,1.089-.632c1.9-1.106,1.851-1.968.507-2.745-1.326-.764-2.819-.792-4.72.312-5.459,3.172,1.74,8.52-5.865,12.939a12.454,12.454,0,0,1-12.951.268c-4.136-2.389-3.845-5.044.4-7.511l1.64-.955,3.983,2.3-1.9,1.106c-1.9,1.106-1.742,1.979-.4,2.754a4.389,4.389,0,0,0,4.751-.241c5.474-3.181-1.709-8.518,5.882-12.93C223.4,449.182,227.934,448.977,232.023,451.337Z" transform="translate(-201.843 -449.678)"/></g></g><g class="c" transform="translate(79.56 27.249)"><g transform="translate(13.557 4.392)"><path class="h" d="M228.964,455.909l-.022,7.882-15.469,6.647.022-7.882Z" transform="translate(-213.473 -455.909)"/></g><g transform="translate(3.858 12.822)"><path class="h" d="M214.419,459.934l-.022,7.882-5.555,2.388.022-7.882Z" transform="translate(-208.841 -459.934)"/></g><g transform="translate(0 12.982)"><path class="f" d="M210.879,462.239l-.022,7.882L207,467.893l.022-7.882Z" transform="translate(-206.998 -460.011)"/></g><g transform="translate(9.414 12.822)"><path class="f" d="M216.686,462.919l-.022,7.882-5.17-2.985.022-7.882Z" transform="translate(-211.494 -459.934)"/></g><g transform="translate(0.022)"><path class="g" d="M244.031,457.367l-22.3,17.927-4.245-2.45,4.106-3.225-5.17-2.986-5.555,2.389-3.859-2.228,30.863-12.983Zm-23.465,7.484,4.043,2.335,11.427-8.981-15.47,6.646" transform="translate(-207.009 -453.811)"/></g><g transform="translate(14.724 3.555)"><path class="y" d="M236.349,455.509l-.022,7.882-22.3,17.928.022-7.882Z" transform="translate(-214.03 -455.509)"/></g><g transform="translate(10.479 19.033)"><path class="f" d="M216.269,465.351l-.022,7.882L212,470.782l.022-7.882Z" transform="translate(-212.003 -462.9)"/></g></g><g class="c" transform="translate(99.392 33.688)"><g transform="translate(18.418 2.213)"><path class="f" d="M229.67,460.473l-.022,7.882-4.383-2.531.022-7.882Z" transform="translate(-225.265 -457.943)"/></g><g transform="translate(31.413 7.515)"><path class="h" d="M235.28,460.475l-.022,7.882-3.787,2.2.022-7.882Z" transform="translate(-231.471 -460.475)"/></g><g transform="translate(27.014 7.176)"><path class="f" d="M233.791,462.852l-.022,7.882-4.4-2.54.022-7.882Z" transform="translate(-229.37 -460.313)"/></g><g transform="translate(0.029)"><path class="g" d="M251.691,464.4l-3.8,2.21-4.4-2.541L220.7,477.31l-4.214-2.434,22.792-13.24-4.4-2.541,3.8-2.21Z" transform="translate(-216.483 -456.886)"/></g><g transform="translate(4.213 7.176)"><path class="h" d="M241.3,460.313l-.022,7.882-22.8,13.25.022-7.882Z" transform="translate(-218.481 -460.313)"/></g><g transform="translate(0 17.994)"><path class="f" d="M220.705,467.912l-.022,7.882-4.213-2.433.022-7.882Z" transform="translate(-216.469 -465.479)"/></g><g transform="translate(21.429 13.957)"><path class="h" d="M242.209,463.551l-.022,7.882L226.7,478.072l.022-7.882Z" transform="translate(-226.703 -463.551)"/></g><g transform="translate(11.745 22.387)"><path class="h" d="M227.656,467.577l-.022,7.882-5.555,2.388.022-7.882Z" transform="translate(-222.078 -467.577)"/></g><g transform="translate(7.871 22.538)"><path class="f" d="M224.124,469.886l-.022,7.882-3.874-2.237.022-7.882Z" transform="translate(-220.228 -467.649)"/></g><g transform="translate(17.3 22.387)"><path class="f" d="M229.908,470.553l-.022,7.882-5.155-2.976.022-7.882Z" transform="translate(-224.731 -467.577)"/></g><g transform="translate(22.595 13.119)"><path class="y" d="M249.595,463.151l-.022,7.882L227.26,488.953l.022-7.882Z" transform="translate(-227.26 -463.151)"/></g><g transform="translate(18.351 28.588)"><path class="f" d="M229.5,472.989l-.022,7.882-4.244-2.451.022-7.882Z" transform="translate(-225.233 -470.539)"/></g><g transform="translate(7.894 9.563)"><path class="g" d="M257.276,465.009l-22.314,17.92-4.245-2.45,4.106-3.227-5.155-2.976-5.555,2.387-3.874-2.236,30.878-12.974Zm-23.48,7.476,4.06,2.345,11.425-8.983L233.8,472.484" transform="translate(-220.239 -461.453)"/></g></g><g class="c" transform="translate(132.286 55.722)"><g class="c" transform="translate(22.025 3.415)"><g class="z"><g class="c"><path class="j" d="M245.3,469.471l-.023,7.882a4.817,4.817,0,0,0-.62-.3l.021-7.882a4.47,4.47,0,0,1,.622.3" transform="translate(-240.545 -468.897)"/><path class="k" d="M244.877,469.235l-.021,7.882q-.185-.072-.371-.126l.021-7.882a3.869,3.869,0,0,1,.371.126" transform="translate(-240.739 -468.963)"/><path class="l" d="M244.65,469.145l-.021,7.882q-.138-.041-.276-.069l.021-7.882q.141.028.276.069" transform="translate(-240.883 -468.999)"/><path class="m" d="M244.5,469.1l-.021,7.882c-.078-.015-.155-.029-.235-.04l.023-7.882c.077.01.155.025.232.04" transform="translate(-241.006 -469.02)"/><path class="n" d="M244.378,469.07l-.023,7.882c-.071-.011-.144-.019-.218-.025l.023-7.882c.073.006.144.015.218.025" transform="translate(-241.12 -469.033)"/><path class="o" d="M244.273,469.051l-.023,7.882c-.071-.006-.142-.008-.216-.01l.023-7.882c.071,0,.145,0,.216.01" transform="translate(-241.232 -469.038)"/><path class="p" d="M244.176,469.041l-.023,7.882c-.075,0-.151,0-.228,0l.023-7.882c.077,0,.153,0,.228,0" transform="translate(-241.351 -469.039)"/><path class="q" d="M244.085,469.04l-.023,7.882c-.086,0-.172.008-.262.019l.023-7.884c.088-.008.176-.015.262-.017" transform="translate(-241.488 -469.038)"/><path class="r" d="M244,469.048l-.023,7.884c-.111.01-.224.027-.341.048l.023-7.884c.115-.021.23-.036.341-.048" transform="translate(-241.667 -469.03)"/><path class="s" d="M243.982,469.071l-.023,7.884a4.892,4.892,0,0,0-.616.155l.023-7.882a5.214,5.214,0,0,1,.616-.157" transform="translate(-241.988 -469.004)"/><path class="t" d="M244.074,469.146l-.023,7.882a6.924,6.924,0,0,0-1.355.618l.023-7.882a6.69,6.69,0,0,1,1.355-.618" transform="translate(-242.696 -468.923)"/></g></g></g><g transform="translate(20.4 4.255)"><path class="h" d="M243.568,469.441l-.022,7.882-1.625.945.022-7.882Z" transform="translate(-241.92 -469.441)"/></g><g transform="translate(26.762 3.988)"><path class="f" d="M249.719,472.049l-.022,7.882-4.738-2.736.022-7.882Z" transform="translate(-244.958 -469.313)"/></g><g transform="translate(31.5 4.522)"><path class="h" d="M251.031,469.568l-.022,7.882-3.787,2.2.022-7.882Z" transform="translate(-247.221 -469.568)"/></g><g class="c" transform="translate(18.865 5.2)"><g class="aa"><g class="c"><path class="t" d="M242.008,469.892l-.023,7.882-.124.073.021-7.882.126-.073" transform="translate(-240.45 -469.892)"/><path class="s" d="M242.335,469.927l-.021,7.882a5.331,5.331,0,0,0-.867.628l.023-7.882a5.407,5.407,0,0,1,.865-.628" transform="translate(-240.903 -469.854)"/><path class="r" d="M241.608,470.227l-.023,7.882a2.672,2.672,0,0,0-.264.283l.023-7.882a2.684,2.684,0,0,1,.264-.283" transform="translate(-241.04 -469.526)"/><path class="q" d="M241.417,470.362l-.023,7.882a1.514,1.514,0,0,0-.14.207l.023-7.884a1.445,1.445,0,0,1,.14-.205" transform="translate(-241.114 -469.378)"/><path class="p" d="M241.319,470.46l-.023,7.884a1.214,1.214,0,0,0-.08.168l.023-7.882a1.121,1.121,0,0,1,.08-.17" transform="translate(-241.155 -469.271)"/><path class="o" d="M241.262,470.541l-.023,7.882a1.02,1.02,0,0,0-.044.151l.023-7.882a1.032,1.032,0,0,1,.044-.151" transform="translate(-241.178 -469.182)"/><path class="n" d="M241.227,470.613l-.023,7.882a1.129,1.129,0,0,0-.017.145l.023-7.882a.851.851,0,0,1,.017-.144" transform="translate(-241.187 -469.103)"/><path class="m" d="M241.21,470.682l-.022,7.882v.022l.022-7.882v-.022" transform="translate(-241.187 -469.028)"/></g></g></g><g class="c" transform="translate(14.082 5.688)"><g class="ab"><g class="c"><path class="j" d="M239.424,471.518,239.4,479.4a2.4,2.4,0,0,1-.5-1.392l.023-7.882a2.368,2.368,0,0,0,.5,1.393" transform="translate(-238.903 -470.125)"/></g></g></g><g class="c" transform="translate(10.403 9.862)"><g class="ac"><g class="c" transform="translate(0 0)"><path class="j" d="M240.552,472.7l-.023,7.882a6.582,6.582,0,0,0-.867-.423l.021-7.882a6.481,6.481,0,0,1,.869.423" transform="translate(-234.393 -471.94)"/><path class="k" d="M239.932,472.365l-.021,7.882a4.773,4.773,0,0,0-.477-.161l.023-7.882a4.53,4.53,0,0,1,.475.161" transform="translate(-234.643 -472.025)"/><path class="l" d="M239.636,472.249l-.023,7.882c-.115-.033-.228-.061-.343-.086l.021-7.882c.115.023.23.052.346.086" transform="translate(-234.822 -472.069)"/><path class="m" d="M239.44,472.189l-.021,7.882c-.1-.019-.191-.036-.285-.05l.023-7.882q.141.022.283.05" transform="translate(-234.971 -472.096)"/><path class="n" d="M239.293,472.154l-.023,7.882c-.086-.01-.174-.021-.26-.027l.021-7.884c.088.008.174.019.262.029" transform="translate(-235.107 -472.111)"/><path class="o" d="M239.166,472.132l-.021,7.884c-.086-.008-.172-.013-.258-.015l.021-7.882q.129,0,.258.013" transform="translate(-235.241 -472.118)"/><path class="p" d="M239.051,472.12,239.03,480c-.092,0-.182,0-.274,0l.023-7.882c.092,0,.182,0,.272,0" transform="translate(-235.385 -472.118)"/><path class="q" d="M238.941,472.12,238.918,480c-.1,0-.205.01-.31.021l.023-7.882c.1-.01.207-.019.31-.021" transform="translate(-235.547 -472.117)"/><path class="r" d="M238.839,472.13l-.023,7.882c-.13.013-.264.031-.4.055l.023-7.882c.134-.023.266-.042.4-.054" transform="translate(-235.754 -472.106)"/><path class="s" d="M238.854,472.156l-.023,7.882a6.312,6.312,0,0,0-.789.2l.023-7.882a5.9,5.9,0,0,1,.789-.2" transform="translate(-236.167 -472.077)"/><path class="t" d="M239.043,472.252l-.023,7.882a9.821,9.821,0,0,0-1.874.867l.023-7.882a9.834,9.834,0,0,1,1.874-.867" transform="translate(-237.146 -471.972)"/></g></g></g><g transform="translate(16.539 10.626)"><path class="f" d="M241.719,473.419,241.7,481.3l-1.62-.936.022-7.882Z" transform="translate(-240.076 -472.483)"/></g><g transform="translate(26.144 10.065)"><path class="h" d="M247.645,472.215l-.022,7.882-2.959,1.72.022-7.882Z" transform="translate(-244.663 -472.215)"/></g><g transform="translate(7.934 11.01)"><path class="h" d="M238.458,472.666l-.022,7.882-2.469,1.435.022-7.882Z" transform="translate(-235.967 -472.666)"/></g><g class="c" transform="translate(6.498 12.444)"><g class="ad"><g class="c" transform="translate(0)"><path class="t" d="M236.049,473.351l-.023,7.882-.113.067.023-7.882.113-.067" transform="translate(-234.59 -473.351)"/><path class="s" d="M236.355,473.383l-.023,7.882a4.925,4.925,0,0,0-.8.584l.023-7.882a4.932,4.932,0,0,1,.8-.584" transform="translate(-235.009 -473.316)"/><path class="r" d="M235.686,473.662l-.023,7.882a2.525,2.525,0,0,0-.255.272l.023-7.882a2.325,2.325,0,0,1,.255-.272" transform="translate(-235.142 -473.011)"/><path class="q" d="M235.5,473.792l-.023,7.882a2.018,2.018,0,0,0-.132.195l.023-7.882a1.329,1.329,0,0,1,.132-.195" transform="translate(-235.211 -472.869)"/><path class="p" d="M235.407,473.885l-.023,7.882a1,1,0,0,0-.075.161l.021-7.882a1.252,1.252,0,0,1,.077-.161" transform="translate(-235.25 -472.767)"/><path class="o" d="M235.352,473.962l-.021,7.882a.816.816,0,0,0-.042.147l.021-7.882a1.426,1.426,0,0,1,.042-.147" transform="translate(-235.272 -472.683)"/><path class="n" d="M235.319,474.032l-.021,7.882a.772.772,0,0,0-.017.138l.023-7.882a.774.774,0,0,1,.015-.138" transform="translate(-235.281 -472.606)"/><path class="m" d="M235.3,474.1l-.022,7.882V482l.022-7.882v-.02" transform="translate(-235.281 -472.534)"/></g></g></g><g transform="translate(23.468 12.426)"><path class="h" d="M247.2,473.343l-.022,7.882-3.787,2.2.022-7.882Z" transform="translate(-243.385 -473.343)"/></g><g transform="translate(22.374 13.992)"><path class="ae" d="M243.963,474.713l-.022,7.888-1.077-.622.022-7.888Z" transform="translate(-242.863 -474.091)"/></g><g class="c" transform="translate(0 13.96)"><g class="af"><g class="c"><path class="s" d="M236.323,475.67l-.023,7.884c-.107.021-.212.042-.318.061l.023-7.882c.1-.019.212-.04.318-.063" transform="translate(-228.016 -472.33)"/><path class="r" d="M236.454,475.7l-.023,7.882c-.289.052-.576.092-.859.121l.023-7.882c.283-.029.57-.069.859-.121" transform="translate(-228.465 -472.297)"/><path class="q" d="M235.936,475.758l-.023,7.882q-.33.031-.653.044l.023-7.882q.324-.013.653-.044" transform="translate(-228.806 -472.234)"/><path class="p" d="M235.574,475.779l-.023,7.882c-.186.006-.373.006-.557,0l.021-7.882c.186,0,.373,0,.559,0" transform="translate(-229.097 -472.211)"/><path class="o" d="M235.283,475.794l-.021,7.882c-.172,0-.343-.013-.513-.027l.023-7.882c.17.013.339.023.511.027" transform="translate(-229.365 -472.224)"/><path class="n" d="M235.033,475.8l-.023,7.882c-.168-.015-.335-.033-.5-.056l.021-7.882q.248.034.5.057" transform="translate(-229.627 -472.254)"/><path class="m" d="M234.8,475.787l-.021,7.882c-.176-.025-.348-.054-.519-.09l.023-7.882c.172.036.343.065.517.09" transform="translate(-229.898 -472.301)"/><path class="l" d="M234.588,475.771l-.023,7.882c-.195-.04-.387-.088-.58-.142l.023-7.882c.191.054.385.1.58.142" transform="translate(-230.201 -472.375)"/><path class="k" d="M234.393,475.759l-.023,7.882c-.249-.071-.494-.155-.737-.249l.023-7.882c.241.094.488.178.737.249" transform="translate(-230.586 -472.505)"/><path class="j" d="M235.248,477.08l-.023,7.882a8.158,8.158,0,0,1-1.074-.519c-1.328-.766-1.975-1.6-1.973-2.486l.023-7.882c0,.884.643,1.719,1.973,2.486a7.912,7.912,0,0,0,1.074.519" transform="translate(-232.178 -474.075)"/></g></g></g><g transform="translate(13.617 13.986)"><path class="h" d="M247.443,474.087l-.022,7.882-8.74,5.079.022-7.882Z" transform="translate(-238.681 -474.087)"/></g><g transform="translate(6.554 18.735)"><path class="f" d="M239.621,478.833l-.022,7.882-4.291-2.477.022-7.882Z" transform="translate(-235.308 -476.356)"/></g><g class="c" transform="translate(10.845 19.065)"><g class="ag"><g class="c"><path class="t" d="M239.059,476.513l-.023,7.882c-.239.138-.465.272-.678.4l.023-7.882c.214-.13.44-.262.678-.4" transform="translate(-236.263 -476.513)"/><path class="s" d="M239.169,476.7l-.023,7.882a9.351,9.351,0,0,0-1.51,1.078l.023-7.882a9.23,9.23,0,0,1,1.51-1.078" transform="translate(-237.052 -476.304)"/><path class="r" d="M237.89,477.219l-.023,7.882a3.915,3.915,0,0,0-.442.475l.021-7.882a4.1,4.1,0,0,1,.444-.475" transform="translate(-237.283 -475.741)"/><path class="q" d="M237.52,477.446l-.021,7.882c-.05.063-.1.128-.142.195l.023-7.882c.044-.067.092-.132.14-.195" transform="translate(-237.357 -475.492)"/></g></g></g><g transform="translate(0.023)"><path class="g" d="M255.656,482.036l-1.112-.643-8.738,5.08a8.063,8.063,0,0,0-2.772,2.148l-4.291-2.477a6.187,6.187,0,0,1,1.73-1.436,8.72,8.72,0,0,1-6.311-.854c-3.1-1.79-2.483-3.956,1.426-6.23l2.7-1.568a11.51,11.51,0,0,1,8.483-1.566c-1.164-1.631-.281-3.2,2.571-4.858l.49-.285a12.117,12.117,0,0,1,12.83-.195l4.814,2.779-3.786,2.2L258.95,471.4c-1.342-.775-2.835-.838-4.737.268l-1.625.944c-2.132,1.238-1.866,2.19-.291,3.1l1.836,1.06,2.961-1.719,4.2,2.423-2.959,1.719,1.112.643Zm-11.473.517,6.165-3.583-1.621-.936c-1.9-1.1-3.667-1.051-6.135.383l-2.469,1.434c-1.9,1.106-1.774,2.014-.446,2.781a4.393,4.393,0,0,0,4.506-.08" transform="translate(-232.189 -467.409)"/></g></g><g class="c" transform="translate(0.001 18.972)"><g transform="translate(33.737 5.8)"><path class="f" d="M187.669,454.089l-.022,7.882-2.531-1.461.022-7.882Z" transform="translate(-185.116 -452.628)"/></g><g class="c" transform="translate(36.267 7.262)"><g class="ah"><g class="c"><path class="j" d="M187.585,454.779l-.021,7.882c0-.5-.413-.976-1.24-1.453l.023-7.882c.827.477,1.24.953,1.238,1.453" transform="translate(-186.324 -453.326)"/></g></g></g><g transform="translate(24.951 5.8)"><path class="h" d="M189.728,452.628l-.022,7.882-8.786,5.106.022-7.882Z" transform="translate(-180.92 -452.628)"/></g><g class="c" transform="translate(41.303 9.115)"><g class="ai"><g class="c"><path class="m" d="M190.613,454.211l-.023,7.882v.063l.023-7.882v-.063" transform="translate(-186.693 -454.211)"/><path class="n" d="M190.638,454.241l-.023,7.882a2.618,2.618,0,0,1-.048.421l.021-7.882a2.4,2.4,0,0,0,.05-.421" transform="translate(-186.718 -454.178)"/><path class="o" d="M190.652,454.442l-.021,7.882a2.938,2.938,0,0,1-.124.429l.021-7.882a2.493,2.493,0,0,0,.124-.429" transform="translate(-186.783 -453.958)"/><path class="p" d="M190.645,454.647l-.021,7.882a3.394,3.394,0,0,1-.222.469l.023-7.882a3.375,3.375,0,0,0,.22-.469" transform="translate(-186.899 -453.734)"/><path class="q" d="M190.623,454.871l-.023,7.882a4.18,4.18,0,0,1-.379.559l.023-7.882a4.383,4.383,0,0,0,.379-.559" transform="translate(-187.097 -453.489)"/><path class="r" d="M190.607,455.138l-.023,7.882a6.626,6.626,0,0,1-.7.743l.021-7.882a6.467,6.467,0,0,0,.7-.743" transform="translate(-187.46 -453.197)"/><path class="s" d="M191.025,455.493,191,463.375a13.273,13.273,0,0,1-2.134,1.552l.023-7.882a13.163,13.163,0,0,0,2.132-1.552" transform="translate(-188.575 -452.808)"/><path class="t" d="M189.047,456.234l-.023,7.882c-.1.059-.195.115-.3.174l.021-7.882c.1-.059.2-.115.3-.174" transform="translate(-188.729 -451.998)"/></g></g></g><g transform="translate(40.122 13.526)"><path class="h" d="M189.368,456.317l-.022,7.882-1.181.686.022-7.882Z" transform="translate(-188.165 -456.317)"/></g><g transform="translate(20.213 13.66)"><path class="f" d="M181.025,457.736,181,465.618l-2.346-1.354.022-7.882Z" transform="translate(-178.657 -456.381)"/></g><g class="c" transform="translate(30.027 14.212)"><g class="aj"><g class="c"><path class="t" d="M190,456.645l-.023,7.882a17.6,17.6,0,0,1-3.463,1.573l.023-7.882A17.642,17.642,0,0,0,190,456.645" transform="translate(-179.879 -456.645)"/><path class="s" d="M187.444,457.4l-.023,7.882a13.508,13.508,0,0,1-1.742.438l.023-7.882a13.693,13.693,0,0,0,1.742-.438" transform="translate(-180.79 -455.823)"/><path class="r" d="M186.223,457.605l-.023,7.882c-.331.061-.664.107-1,.14l.023-7.882c.333-.033.664-.08,1-.14" transform="translate(-181.31 -455.595)"/><path class="q" d="M185.649,457.672l-.023,7.882c-.27.027-.54.046-.81.054l.023-7.882c.27-.008.54-.027.81-.054" transform="translate(-181.734 -455.521)"/><path class="p" d="M185.222,457.7l-.023,7.882c-.243.008-.488.01-.733,0l.021-7.882c.245,0,.49,0,.735,0" transform="translate(-182.117 -455.493)"/><path class="o" d="M184.867,457.721l-.021,7.882c-.243-.006-.484-.019-.727-.04l.021-7.882c.243.019.486.034.727.04" transform="translate(-182.496 -455.512)"/><path class="n" d="M184.54,457.726l-.021,7.882c-.255-.021-.511-.05-.766-.086l.021-7.882c.258.036.513.065.766.086" transform="translate(-182.897 -455.556)"/><path class="m" d="M184.221,457.719,184.2,465.6c-.285-.04-.57-.09-.856-.151l.021-7.882c.287.061.574.109.856.151" transform="translate(-183.344 -455.635)"/></g></g></g><g class="c" transform="translate(22.558 15.014)"><g class="ak"><g class="c"><path class="j" d="M181.528,458.908l-.023,7.884c0-.639-.6-1.233-1.728-1.883l.023-7.882c1.124.649,1.73,1.244,1.728,1.88" transform="translate(-179.777 -457.028)"/></g></g></g><g transform="translate(10.001 13.66)"><path class="h" d="M184.015,456.381l-.022,7.882L173.78,470.2l.022-7.882Z" transform="translate(-173.78 -456.381)"/></g><g class="c" transform="translate(26.832 18.077)"><g class="al"><g class="c"><path class="m" d="M183.721,458.491l-.023,7.882,0,.065.023-7.882,0-.065" transform="translate(-179.763 -458.491)"/><path class="n" d="M183.744,458.522l-.023,7.882a2.45,2.45,0,0,1-.048.427l.023-7.882a2.7,2.7,0,0,0,.048-.427" transform="translate(-179.789 -458.457)"/><path class="o" d="M183.762,458.726l-.023,7.882a2.8,2.8,0,0,1-.126.438l.021-7.882a2.807,2.807,0,0,0,.128-.438" transform="translate(-179.854 -458.234)"/><path class="p" d="M183.751,458.935l-.021,7.882a3.6,3.6,0,0,1-.224.475l.023-7.882a3.345,3.345,0,0,0,.222-.475" transform="translate(-179.971 -458.005)"/><path class="q" d="M183.727,459.162l-.023,7.882a4.479,4.479,0,0,1-.379.561l.023-7.882a4.47,4.47,0,0,0,.379-.561" transform="translate(-180.169 -457.757)"/><path class="r" d="M183.721,459.43l-.023,7.882a6.624,6.624,0,0,1-.714.764l.021-7.882a6.658,6.658,0,0,0,.716-.764" transform="translate(-180.542 -457.464)"/><path class="s" d="M184.115,459.8l-.021,7.882a13.15,13.15,0,0,1-2.125,1.547l.023-7.882a13.132,13.132,0,0,0,2.123-1.547" transform="translate(-181.653 -457.064)"/><path class="t" d="M182.157,460.534l-.023,7.882c-.1.063-.209.126-.316.188l.023-7.882.316-.188" transform="translate(-181.818 -456.256)"/></g></g></g><g transform="translate(24.133 22.543)"><path class="h" d="M183.25,460.624l-.022,7.882-2.7,1.568.022-7.882Z" transform="translate(-180.529 -460.624)"/></g><g transform="translate(0 19.309)"><path class="f" d="M177.3,463.855l-.022,7.882L169,466.961l.022-7.882Z" transform="translate(-169.004 -459.079)"/></g><g transform="translate(0.022)"><path class="g" d="M199.041,466c1.736,2.264.318,4.358-3.193,6.4l-2.7,1.568a15.069,15.069,0,0,1-15.86-.027l-8.273-4.776,33.228-19.309,7.932,4.58c5.449,3.145,5.281,5.962.142,8.946l-1.179.687A13.733,13.733,0,0,1,199.041,466Zm-11.019,4.848,2.9-1.684c3.082-1.79,3.03-2.923.653-4.295l-2.345-1.355-10.212,5.934,3.009,1.738c1.776,1.024,3.53,1.1,6-.339m14.729-15.192-8.786,5.105,2.054,1.185c1.96,1.133,4.006,1.319,6.676-.23l1.839-1.07c2.377-1.382,2.618-2.45.75-3.528l-2.532-1.462" transform="translate(-169.015 -449.858)"/></g><g class="c" transform="translate(8.273 24.085)"><g class="am"><g class="c"><path class="t" d="M182.307,461.373l-.023,7.882a17.292,17.292,0,0,1-3.359,1.514l.021-7.882a17.254,17.254,0,0,0,3.361-1.514" transform="translate(-166.424 -461.346)"/><path class="s" d="M179.974,462.1l-.021,7.882a15.109,15.109,0,0,1-1.968.5l.023-7.882a15.118,15.118,0,0,0,1.966-.5" transform="translate(-167.452 -460.555)"/><path class="r" d="M178.6,462.333l-.023,7.882c-.379.069-.76.124-1.141.161l.023-7.882q.572-.057,1.141-.161" transform="translate(-168.048 -460.296)"/><path class="q" d="M177.946,462.41l-.023,7.882c-.308.031-.616.05-.923.063l.021-7.884c.308-.01.618-.031.926-.061" transform="translate(-168.531 -460.211)"/><path class="p" d="M177.461,462.439l-.021,7.884c-.283.008-.563.01-.844,0l.023-7.882c.281.008.561.006.842,0" transform="translate(-168.972 -460.18)"/><path class="o" d="M177.048,462.464l-.023,7.882c-.272-.006-.546-.021-.821-.044l.023-7.882c.274.023.547.038.821.044" transform="translate(-169.401 -460.2)"/><path class="n" d="M176.668,462.469l-.023,7.882c-.281-.023-.563-.054-.844-.094l.023-7.882c.281.04.563.071.844.094" transform="translate(-169.842 -460.25)"/><path class="m" d="M176.306,462.459l-.023,7.882c-.308-.044-.616-.1-.923-.161l.021-7.882c.308.063.616.117.926.161" transform="translate(-170.324 -460.334)"/><path class="l" d="M175.947,462.437l-.021,7.882c-.362-.075-.722-.163-1.083-.266l.021-7.882q.543.154,1.083.266" transform="translate(-170.89 -460.473)"/><path class="k" d="M175.652,462.439l-.021,7.882q-.754-.217-1.508-.511l.023-7.884c.5.2,1,.368,1.506.513" transform="translate(-171.677 -460.741)"/><path class="j" d="M175.424,462.545l-.023,7.884a18.456,18.456,0,0,1-2.446-1.187l.023-7.882a18.441,18.441,0,0,0,2.446,1.185" transform="translate(-172.955 -461.36)"/></g></g></g></g><g class="c" transform="translate(22.896 30.038)"><g transform="translate(9.111 3.029)"><path class="h" d="M209.949,456.59l-.022,7.882-25.637,14.9.022-7.882Z" transform="translate(-184.289 -456.59)"/></g><g class="c" transform="translate(7.335 17.929)"><g class="an"><g class="c"><path class="t" d="M184.386,463.705l-.023,7.882-.142.084.023-7.882.142-.084" transform="translate(-182.588 -463.705)"/><path class="s" d="M184.765,463.745l-.023,7.882a6.1,6.1,0,0,0-1,.725l.023-7.882a6.019,6.019,0,0,1,1-.725" transform="translate(-183.108 -463.661)"/><path class="r" d="M183.931,464.091l-.023,7.882a3,3,0,0,0-.312.333l.023-7.882a2.816,2.816,0,0,1,.312-.333" transform="translate(-183.271 -463.283)"/><path class="q" d="M183.7,464.25l-.023,7.882a1.773,1.773,0,0,0-.161.239l.021-7.882a1.785,1.785,0,0,1,.163-.239" transform="translate(-183.356 -463.109)"/><path class="p" d="M183.588,464.364l-.021,7.882a1.279,1.279,0,0,0-.092.2l.021-7.882a1.806,1.806,0,0,1,.092-.2" transform="translate(-183.404 -462.984)"/><path class="o" d="M183.523,464.458l-.021,7.882a1.122,1.122,0,0,0-.052.176l.023-7.882a1.388,1.388,0,0,1,.05-.176" transform="translate(-183.431 -462.881)"/><path class="n" d="M183.483,464.542l-.023,7.882a1.17,1.17,0,0,0-.019.168l.023-7.882a.936.936,0,0,1,.019-.168" transform="translate(-183.441 -462.789)"/><path class="m" d="M183.464,464.622l-.023,7.882v.025l.023-7.882v-.025" transform="translate(-183.441 -462.702)"/></g></g></g><g transform="translate(19.866 9.044)"><path class="h" d="M214.748,459.462l-.022,7.882-25.3,14.7.022-7.882Z" transform="translate(-189.425 -459.462)"/></g><g transform="translate(0.022)"><path class="g" d="M225.115,464.187l-25.3,14.7c-5.321,3.093-11.027,3.315-16.2.331s-4.789-6.282.532-9.375l25.3-14.7,5.248,3.03-25.637,14.9c-2.377,1.38-2.186,2.486-.5,3.457s3.577,1.068,5.951-.312l25.639-14.9Z" transform="translate(-179.948 -455.143)"/></g><g class="c" transform="translate(0 19.629)"><g class="ao"><g class="c"><path class="t" d="M191.375,466.483l-.023,7.882a18.944,18.944,0,0,1-3.688,1.665l.021-7.882a19.025,19.025,0,0,0,3.69-1.665" transform="translate(-171.486 -462.366)"/><path class="s" d="M188.8,467.278l-.021,7.882a16.516,16.516,0,0,1-2.14.54l.023-7.882a16.475,16.475,0,0,0,2.138-.54" transform="translate(-172.604 -461.496)"/><path class="r" d="M187.3,467.536l-.023,7.882q-.6.11-1.21.17l.023-7.882c.4-.04.806-.1,1.21-.17" transform="translate(-173.236 -461.214)"/><path class="q" d="M186.6,467.617l-.023,7.882c-.327.033-.653.054-.982.067l.023-7.884c.327-.01.653-.031.982-.065" transform="translate(-173.749 -461.126)"/><path class="p" d="M186.074,467.648l-.023,7.884c-.291.008-.582.01-.873,0l.023-7.884c.291.008.582.006.873,0" transform="translate(-174.205 -461.092)"/><path class="o" d="M185.639,467.673l-.023,7.884c-.281-.008-.559-.023-.838-.046l.021-7.882c.281.023.559.038.84.044" transform="translate(-174.643 -461.112)"/><path class="n" d="M185.243,467.678l-.021,7.882c-.285-.023-.567-.054-.85-.094l.023-7.882q.424.06.848.094" transform="translate(-175.087 -461.162)"/><path class="m" d="M184.874,467.668l-.023,7.882c-.306-.044-.614-.1-.917-.161l.021-7.882c.306.063.611.117.919.161" transform="translate(-175.566 -461.246)"/><path class="l" d="M184.518,467.646l-.021,7.882c-.362-.073-.72-.163-1.078-.266l.023-7.882c.358.1.716.193,1.076.266" transform="translate(-176.13 -461.385)"/><path class="k" d="M184.183,467.632l-.023,7.882a14.509,14.509,0,0,1-1.418-.482l.023-7.882c.469.186.942.346,1.418.482" transform="translate(-176.87 -461.636)"/><path class="j" d="M185.833,470.031l-.023,7.882a16.47,16.47,0,0,1-2.2-1.066c-2.471-1.428-3.673-2.929-3.669-4.448l.021-7.882c0,1.518,1.2,3.02,3.671,4.448a16.475,16.475,0,0,0,2.2,1.066" transform="translate(-179.938 -464.517)"/></g></g></g></g><g class="c" transform="translate(38.415 41.149)"><g transform="translate(33.737 5.801)"><path class="f" d="M206.446,464.93l-.022,7.882-2.963-1.711.022-7.882Z" transform="translate(-203.461 -463.219)"/></g><g class="c" transform="translate(36.701 7.511)"><g class="ap"><g class="c"><path class="j" d="M206.137,465.508l-.021,7.882c0-.53-.448-1.013-1.24-1.47l.021-7.884c.794.459,1.242.942,1.24,1.472" transform="translate(-204.876 -464.036)"/></g></g></g><g class="c" transform="translate(41.167 9.289)"><g class="aq"><g class="c"><path class="m" d="M209.021,464.885,209,472.767l0,.071.023-7.882,0-.071" transform="translate(-204.835 -464.885)"/><path class="n" d="M209.048,464.919l-.023,7.882a2.648,2.648,0,0,1-.054.475l.023-7.882a2.854,2.854,0,0,0,.054-.475" transform="translate(-204.864 -464.848)"/><path class="o" d="M209.066,465.146l-.023,7.882a3.027,3.027,0,0,1-.14.486l.023-7.882a3.035,3.035,0,0,0,.14-.486" transform="translate(-204.937 -464.6)"/><path class="p" d="M209.055,465.378l-.023,7.882a3.754,3.754,0,0,1-.247.53l.021-7.882a3.776,3.776,0,0,0,.249-.53" transform="translate(-205.066 -464.346)"/><path class="q" d="M209.03,465.631l-.021,7.882a4.887,4.887,0,0,1-.429.632l.023-7.882a5.254,5.254,0,0,0,.427-.632" transform="translate(-205.29 -464.069)"/><path class="r" d="M209.008,465.933l-.023,7.882a7.2,7.2,0,0,1-.775.827l.023-7.882a7.176,7.176,0,0,0,.775-.827" transform="translate(-205.695 -463.738)"/><path class="s" d="M209.395,466.328l-.023,7.882a13.648,13.648,0,0,1-2.224,1.623l.023-7.882a13.639,13.639,0,0,0,2.224-1.623" transform="translate(-206.857 -463.306)"/><path class="t" d="M207.323,467.1l-.023,7.882c-.094.059-.193.115-.291.172l.023-7.882c.1-.057.195-.113.291-.172" transform="translate(-207.009 -462.459)"/></g></g></g><g transform="translate(10.001 5.801)"><path class="h" d="M215.884,463.219l-.022,7.882L192.125,484.9l.022-7.882Z" transform="translate(-192.125 -463.219)"/></g><g transform="translate(24.362 14.106)"><path class="h" d="M215.811,467.185l-.022,7.882-16.805,9.766.022-7.882Z" transform="translate(-198.984 -467.185)"/></g><g transform="translate(0 19.31)"><path class="f" d="M195.69,474.473l-.022,7.882-8.319-4.8.022-7.882Z" transform="translate(-187.349 -469.671)"/></g><g transform="translate(0.022)"><path class="g" d="M228.907,465.253c5.262,3.038,4.942,6.211-.379,9.3l-16.806,9.766c-5.321,3.093-10.78,3.279-16.042.241l-8.319-4.8,33.228-19.311Zm-22.678,16.164,17.282-10.043c2.36-1.372,2.215-2.45.549-3.413l-2.963-1.711-23.735,13.8,2.963,1.711c1.667.961,3.528,1.043,5.905-.339" transform="translate(-187.36 -460.449)"/></g><g class="c" transform="translate(8.319 23.872)"><g class="ar"><g class="c"><path class="t" d="M200.931,471.849l-.021,7.882a18.976,18.976,0,0,1-3.687,1.669l.023-7.882a18.948,18.948,0,0,0,3.685-1.669" transform="translate(-184.866 -471.849)"/><path class="s" d="M198.321,472.646l-.023,7.882a15.663,15.663,0,0,1-2.058.519l.021-7.882a15.806,15.806,0,0,0,2.06-.519" transform="translate(-185.942 -470.977)"/><path class="r" d="M196.865,472.894l-.021,7.882c-.385.071-.771.124-1.156.163l.023-7.882q.578-.06,1.154-.163" transform="translate(-186.546 -470.706)"/><path class="q" d="M196.2,472.972l-.023,7.882q-.468.047-.936.063l.023-7.882q.468-.016.936-.063" transform="translate(-187.035 -470.62)"/><path class="p" d="M195.7,473l-.023,7.882c-.278.01-.557.01-.838,0l.023-7.882c.279.006.559.006.838,0" transform="translate(-187.472 -470.588)"/><path class="o" d="M195.285,473.027l-.023,7.882c-.268-.006-.538-.021-.806-.044l.021-7.882c.27.023.538.038.808.044" transform="translate(-187.893 -470.608)"/><path class="n" d="M194.909,473.031l-.021,7.882c-.276-.023-.551-.052-.827-.092l.023-7.882c.274.04.551.069.825.092" transform="translate(-188.326 -470.657)"/><path class="m" d="M194.551,473.02l-.023,7.882c-.3-.042-.595-.094-.894-.155l.023-7.882c.3.061.6.113.894.155" transform="translate(-188.793 -470.738)"/><path class="l" d="M194.214,473l-.023,7.882c-.356-.075-.71-.161-1.066-.264l.023-7.882q.531.151,1.066.264" transform="translate(-189.35 -470.875)"/><path class="k" d="M193.9,472.993l-.023,7.882q-.716-.2-1.43-.486l.023-7.882q.713.283,1.43.486" transform="translate(-190.097 -471.129)"/><path class="j" d="M193.69,473.1l-.023,7.882a17.319,17.319,0,0,1-2.345-1.137l.023-7.882a17.209,17.209,0,0,0,2.345,1.137" transform="translate(-191.322 -471.723)"/></g></g></g></g><g class="c" transform="translate(56.488 54.666)"><g transform="translate(16.924 5.499)"><path class="h" d="M223.436,469.53l-.022,7.882-19.352,8.3.022-7.882Z" transform="translate(-204.062 -469.53)"/></g><g transform="translate(4.815 16.032)"><path class="h" d="M205.239,474.56l-.022,7.882-6.937,2.976.022-7.882Z" transform="translate(-198.28 -474.56)"/></g><g transform="translate(0 16.228)"><path class="f" d="M200.818,477.434l-.022,7.882-4.815-2.78.022-7.882Z" transform="translate(-195.98 -474.654)"/></g><g transform="translate(11.752 16.032)"><path class="f" d="M208.066,478.285l-.022,7.882-6.451-3.725.022-7.882Z" transform="translate(-201.592 -474.56)"/></g><g transform="translate(0.023)"><path class="g" d="M242.26,471.352l-27.873,22.4-5.308-3.066,5.116-4.027-6.452-3.725-6.937,2.976-4.814-2.779L234.558,466.9ZM212.915,480.7l5.078,2.932L232.265,472.4l-19.351,8.3" transform="translate(-195.991 -466.904)"/></g><g transform="translate(18.397 4.447)"><path class="y" d="M232.66,469.028l-.022,7.882-27.872,22.4.022-7.882Z" transform="translate(-204.766 -469.028)"/></g><g transform="translate(13.088 23.784)"><path class="f" d="M207.562,481.327l-.022,7.882-5.309-3.065.022-7.882Z" transform="translate(-202.23 -478.262)"/></g></g><g class="c" transform="translate(82.231 62.615)"><g transform="translate(20.949 3.172)"><path class="as" d="M229.437,472.215l-.022,7.882-11.137,11.121.022-7.882Z" transform="translate(-218.278 -472.215)"/></g><g transform="translate(16.272 10.702)"><path class="at" d="M244.922,475.811l-.022,7.882-28.855,9.08.022-7.882Z" transform="translate(-216.045 -475.811)"/></g><g transform="translate(0.022)"><path class="g" d="M253.411,481.4l-28.855,9.08-11.009,6.4-5.263-3.039,11.009-6.4L234.876,470.7l5.494,3.172-11.137,11.121,19.162-6.487Z" transform="translate(-208.285 -470.7)"/></g><g transform="translate(5.263 19.782)"><path class="h" d="M221.819,480.147l-.022,7.882-11.009,6.4.022-7.882Z" transform="translate(-210.787 -480.147)"/></g><g transform="translate(0 23.141)"><path class="f" d="M213.559,484.79l-.022,7.882-5.263-3.038.022-7.882Z" transform="translate(-208.274 -481.751)"/></g><g transform="translate(27.218 18.347)"><path class="h" d="M240.631,479.462l-.022,7.882-19.336,8.3.022-7.882Z" transform="translate(-221.272 -479.462)"/></g><g transform="translate(15.109 28.88)"><path class="h" d="M222.433,484.492l-.022,7.882-6.921,2.985.022-7.882Z" transform="translate(-215.49 -484.492)"/></g><g transform="translate(10.279 29.076)"><path class="f" d="M218.036,487.374l-.022,7.882-4.831-2.789.022-7.882Z" transform="translate(-213.183 -484.586)"/></g><g transform="translate(22.031 28.88)"><path class="f" d="M225.269,488.217l-.022,7.882-6.451-3.725.022-7.882Z" transform="translate(-218.795 -484.492)"/></g><g transform="translate(28.676 17.295)"><path class="y" d="M249.863,478.96l-.022,7.882-27.872,22.4.022-7.882Z" transform="translate(-221.968 -478.96)"/></g><g transform="translate(23.366 36.632)"><path class="f" d="M224.764,491.259l-.022,7.882-5.309-3.065.022-7.882Z" transform="translate(-219.433 -488.194)"/></g><g transform="translate(10.3 12.859)"><path class="g" d="M259.462,481.278l-27.871,22.4-5.308-3.066,5.114-4.027-6.45-3.725-6.923,2.984-4.831-2.789,38.584-16.216Zm-29.329,9.356,5.061,2.923,14.275-11.228-19.336,8.3" transform="translate(-213.193 -476.841)"/></g></g></g></svg>